G04 #@! TF.FileFunction,Legend,Top*
%FSLAX46Y46*%
G04 Gerber Fmt 4.6, Leading zero omitted, Abs format (unit mm)*
G04 Created by KiCad (PCBNEW 4.0.6) date 03/19/18 00:54:58*
%MOMM*%
%LPD*%
G01*
G04 APERTURE LIST*
%ADD10C,0.100000*%
%ADD11C,0.150000*%
%ADD12C,0.120000*%
G04 APERTURE END LIST*
D10*
D11*
X79000000Y-90722000D02*
X80778000Y-99104000D01*
X80778000Y-99104000D02*
X79000000Y-106978000D01*
X94748000Y-106978000D02*
X88906000Y-106978000D01*
X79000000Y-106978000D02*
X86112000Y-106978000D01*
X94748000Y-90722000D02*
X88906000Y-90722000D01*
X79000000Y-90722000D02*
X86112000Y-90722000D01*
X94748000Y-90722000D02*
X94748000Y-106978000D01*
X79000000Y-90722000D02*
X79000000Y-106978000D01*
D12*
X102810000Y-67190000D02*
X102810000Y-72310000D01*
X100190000Y-67190000D02*
X100190000Y-72310000D01*
X102810000Y-67190000D02*
X100190000Y-67190000D01*
X102810000Y-72310000D02*
X100190000Y-72310000D01*
X115055722Y-75320277D02*
G75*
G03X110444420Y-75320000I-2305722J-1179723D01*
G01*
X115055722Y-77679723D02*
G75*
G02X110444420Y-77680000I-2305722J1179723D01*
G01*
X115055722Y-77679723D02*
G75*
G03X115055580Y-75320000I-2305722J1179723D01*
G01*
X112750000Y-73950000D02*
X112750000Y-79050000D01*
X112790000Y-73950000D02*
X112790000Y-79050000D01*
X112830000Y-73951000D02*
X112830000Y-79049000D01*
X112870000Y-73952000D02*
X112870000Y-79048000D01*
X112910000Y-73954000D02*
X112910000Y-79046000D01*
X112950000Y-73957000D02*
X112950000Y-79043000D01*
X112990000Y-73961000D02*
X112990000Y-79039000D01*
X113030000Y-73965000D02*
X113030000Y-75520000D01*
X113030000Y-77480000D02*
X113030000Y-79035000D01*
X113070000Y-73969000D02*
X113070000Y-75520000D01*
X113070000Y-77480000D02*
X113070000Y-79031000D01*
X113110000Y-73975000D02*
X113110000Y-75520000D01*
X113110000Y-77480000D02*
X113110000Y-79025000D01*
X113150000Y-73981000D02*
X113150000Y-75520000D01*
X113150000Y-77480000D02*
X113150000Y-79019000D01*
X113190000Y-73987000D02*
X113190000Y-75520000D01*
X113190000Y-77480000D02*
X113190000Y-79013000D01*
X113230000Y-73994000D02*
X113230000Y-75520000D01*
X113230000Y-77480000D02*
X113230000Y-79006000D01*
X113270000Y-74002000D02*
X113270000Y-75520000D01*
X113270000Y-77480000D02*
X113270000Y-78998000D01*
X113310000Y-74011000D02*
X113310000Y-75520000D01*
X113310000Y-77480000D02*
X113310000Y-78989000D01*
X113350000Y-74020000D02*
X113350000Y-75520000D01*
X113350000Y-77480000D02*
X113350000Y-78980000D01*
X113390000Y-74030000D02*
X113390000Y-75520000D01*
X113390000Y-77480000D02*
X113390000Y-78970000D01*
X113430000Y-74040000D02*
X113430000Y-75520000D01*
X113430000Y-77480000D02*
X113430000Y-78960000D01*
X113471000Y-74052000D02*
X113471000Y-75520000D01*
X113471000Y-77480000D02*
X113471000Y-78948000D01*
X113511000Y-74064000D02*
X113511000Y-75520000D01*
X113511000Y-77480000D02*
X113511000Y-78936000D01*
X113551000Y-74076000D02*
X113551000Y-75520000D01*
X113551000Y-77480000D02*
X113551000Y-78924000D01*
X113591000Y-74090000D02*
X113591000Y-75520000D01*
X113591000Y-77480000D02*
X113591000Y-78910000D01*
X113631000Y-74104000D02*
X113631000Y-75520000D01*
X113631000Y-77480000D02*
X113631000Y-78896000D01*
X113671000Y-74118000D02*
X113671000Y-75520000D01*
X113671000Y-77480000D02*
X113671000Y-78882000D01*
X113711000Y-74134000D02*
X113711000Y-75520000D01*
X113711000Y-77480000D02*
X113711000Y-78866000D01*
X113751000Y-74150000D02*
X113751000Y-75520000D01*
X113751000Y-77480000D02*
X113751000Y-78850000D01*
X113791000Y-74167000D02*
X113791000Y-75520000D01*
X113791000Y-77480000D02*
X113791000Y-78833000D01*
X113831000Y-74185000D02*
X113831000Y-75520000D01*
X113831000Y-77480000D02*
X113831000Y-78815000D01*
X113871000Y-74204000D02*
X113871000Y-75520000D01*
X113871000Y-77480000D02*
X113871000Y-78796000D01*
X113911000Y-74224000D02*
X113911000Y-75520000D01*
X113911000Y-77480000D02*
X113911000Y-78776000D01*
X113951000Y-74244000D02*
X113951000Y-75520000D01*
X113951000Y-77480000D02*
X113951000Y-78756000D01*
X113991000Y-74266000D02*
X113991000Y-75520000D01*
X113991000Y-77480000D02*
X113991000Y-78734000D01*
X114031000Y-74288000D02*
X114031000Y-75520000D01*
X114031000Y-77480000D02*
X114031000Y-78712000D01*
X114071000Y-74311000D02*
X114071000Y-75520000D01*
X114071000Y-77480000D02*
X114071000Y-78689000D01*
X114111000Y-74335000D02*
X114111000Y-75520000D01*
X114111000Y-77480000D02*
X114111000Y-78665000D01*
X114151000Y-74360000D02*
X114151000Y-75520000D01*
X114151000Y-77480000D02*
X114151000Y-78640000D01*
X114191000Y-74387000D02*
X114191000Y-75520000D01*
X114191000Y-77480000D02*
X114191000Y-78613000D01*
X114231000Y-74414000D02*
X114231000Y-75520000D01*
X114231000Y-77480000D02*
X114231000Y-78586000D01*
X114271000Y-74442000D02*
X114271000Y-75520000D01*
X114271000Y-77480000D02*
X114271000Y-78558000D01*
X114311000Y-74472000D02*
X114311000Y-75520000D01*
X114311000Y-77480000D02*
X114311000Y-78528000D01*
X114351000Y-74503000D02*
X114351000Y-75520000D01*
X114351000Y-77480000D02*
X114351000Y-78497000D01*
X114391000Y-74535000D02*
X114391000Y-75520000D01*
X114391000Y-77480000D02*
X114391000Y-78465000D01*
X114431000Y-74568000D02*
X114431000Y-75520000D01*
X114431000Y-77480000D02*
X114431000Y-78432000D01*
X114471000Y-74603000D02*
X114471000Y-75520000D01*
X114471000Y-77480000D02*
X114471000Y-78397000D01*
X114511000Y-74639000D02*
X114511000Y-75520000D01*
X114511000Y-77480000D02*
X114511000Y-78361000D01*
X114551000Y-74677000D02*
X114551000Y-75520000D01*
X114551000Y-77480000D02*
X114551000Y-78323000D01*
X114591000Y-74717000D02*
X114591000Y-75520000D01*
X114591000Y-77480000D02*
X114591000Y-78283000D01*
X114631000Y-74758000D02*
X114631000Y-75520000D01*
X114631000Y-77480000D02*
X114631000Y-78242000D01*
X114671000Y-74801000D02*
X114671000Y-75520000D01*
X114671000Y-77480000D02*
X114671000Y-78199000D01*
X114711000Y-74846000D02*
X114711000Y-75520000D01*
X114711000Y-77480000D02*
X114711000Y-78154000D01*
X114751000Y-74894000D02*
X114751000Y-75520000D01*
X114751000Y-77480000D02*
X114751000Y-78106000D01*
X114791000Y-74944000D02*
X114791000Y-75520000D01*
X114791000Y-77480000D02*
X114791000Y-78056000D01*
X114831000Y-74996000D02*
X114831000Y-75520000D01*
X114831000Y-77480000D02*
X114831000Y-78004000D01*
X114871000Y-75052000D02*
X114871000Y-75520000D01*
X114871000Y-77480000D02*
X114871000Y-77948000D01*
X114911000Y-75110000D02*
X114911000Y-75520000D01*
X114911000Y-77480000D02*
X114911000Y-77890000D01*
X114951000Y-75173000D02*
X114951000Y-75520000D01*
X114951000Y-77480000D02*
X114951000Y-77827000D01*
X114991000Y-75239000D02*
X114991000Y-77761000D01*
X115031000Y-75311000D02*
X115031000Y-77689000D01*
X115071000Y-75388000D02*
X115071000Y-77612000D01*
X115111000Y-75472000D02*
X115111000Y-77528000D01*
X115151000Y-75566000D02*
X115151000Y-77434000D01*
X115191000Y-75671000D02*
X115191000Y-77329000D01*
X115231000Y-75793000D02*
X115231000Y-77207000D01*
X115271000Y-75941000D02*
X115271000Y-77059000D01*
X115311000Y-76146000D02*
X115311000Y-76854000D01*
X109300000Y-76500000D02*
X110500000Y-76500000D01*
X109900000Y-75850000D02*
X109900000Y-77150000D01*
X104310000Y-65060000D02*
X101190000Y-65060000D01*
X104310000Y-62940000D02*
X101190000Y-62940000D01*
X104310000Y-65060000D02*
X104310000Y-64996000D01*
X104310000Y-63004000D02*
X104310000Y-62940000D01*
X101190000Y-65060000D02*
X101190000Y-64996000D01*
X101190000Y-63004000D02*
X101190000Y-62940000D01*
X105444278Y-69179723D02*
G75*
G03X110055580Y-69180000I2305722J1179723D01*
G01*
X105444278Y-66820277D02*
G75*
G02X110055580Y-66820000I2305722J-1179723D01*
G01*
X105444278Y-66820277D02*
G75*
G03X105444420Y-69180000I2305722J-1179723D01*
G01*
X107750000Y-70550000D02*
X107750000Y-65450000D01*
X107710000Y-70550000D02*
X107710000Y-65450000D01*
X107670000Y-70549000D02*
X107670000Y-65451000D01*
X107630000Y-70548000D02*
X107630000Y-65452000D01*
X107590000Y-70546000D02*
X107590000Y-65454000D01*
X107550000Y-70543000D02*
X107550000Y-65457000D01*
X107510000Y-70539000D02*
X107510000Y-65461000D01*
X107470000Y-70535000D02*
X107470000Y-68980000D01*
X107470000Y-67020000D02*
X107470000Y-65465000D01*
X107430000Y-70531000D02*
X107430000Y-68980000D01*
X107430000Y-67020000D02*
X107430000Y-65469000D01*
X107390000Y-70525000D02*
X107390000Y-68980000D01*
X107390000Y-67020000D02*
X107390000Y-65475000D01*
X107350000Y-70519000D02*
X107350000Y-68980000D01*
X107350000Y-67020000D02*
X107350000Y-65481000D01*
X107310000Y-70513000D02*
X107310000Y-68980000D01*
X107310000Y-67020000D02*
X107310000Y-65487000D01*
X107270000Y-70506000D02*
X107270000Y-68980000D01*
X107270000Y-67020000D02*
X107270000Y-65494000D01*
X107230000Y-70498000D02*
X107230000Y-68980000D01*
X107230000Y-67020000D02*
X107230000Y-65502000D01*
X107190000Y-70489000D02*
X107190000Y-68980000D01*
X107190000Y-67020000D02*
X107190000Y-65511000D01*
X107150000Y-70480000D02*
X107150000Y-68980000D01*
X107150000Y-67020000D02*
X107150000Y-65520000D01*
X107110000Y-70470000D02*
X107110000Y-68980000D01*
X107110000Y-67020000D02*
X107110000Y-65530000D01*
X107070000Y-70460000D02*
X107070000Y-68980000D01*
X107070000Y-67020000D02*
X107070000Y-65540000D01*
X107029000Y-70448000D02*
X107029000Y-68980000D01*
X107029000Y-67020000D02*
X107029000Y-65552000D01*
X106989000Y-70436000D02*
X106989000Y-68980000D01*
X106989000Y-67020000D02*
X106989000Y-65564000D01*
X106949000Y-70424000D02*
X106949000Y-68980000D01*
X106949000Y-67020000D02*
X106949000Y-65576000D01*
X106909000Y-70410000D02*
X106909000Y-68980000D01*
X106909000Y-67020000D02*
X106909000Y-65590000D01*
X106869000Y-70396000D02*
X106869000Y-68980000D01*
X106869000Y-67020000D02*
X106869000Y-65604000D01*
X106829000Y-70382000D02*
X106829000Y-68980000D01*
X106829000Y-67020000D02*
X106829000Y-65618000D01*
X106789000Y-70366000D02*
X106789000Y-68980000D01*
X106789000Y-67020000D02*
X106789000Y-65634000D01*
X106749000Y-70350000D02*
X106749000Y-68980000D01*
X106749000Y-67020000D02*
X106749000Y-65650000D01*
X106709000Y-70333000D02*
X106709000Y-68980000D01*
X106709000Y-67020000D02*
X106709000Y-65667000D01*
X106669000Y-70315000D02*
X106669000Y-68980000D01*
X106669000Y-67020000D02*
X106669000Y-65685000D01*
X106629000Y-70296000D02*
X106629000Y-68980000D01*
X106629000Y-67020000D02*
X106629000Y-65704000D01*
X106589000Y-70276000D02*
X106589000Y-68980000D01*
X106589000Y-67020000D02*
X106589000Y-65724000D01*
X106549000Y-70256000D02*
X106549000Y-68980000D01*
X106549000Y-67020000D02*
X106549000Y-65744000D01*
X106509000Y-70234000D02*
X106509000Y-68980000D01*
X106509000Y-67020000D02*
X106509000Y-65766000D01*
X106469000Y-70212000D02*
X106469000Y-68980000D01*
X106469000Y-67020000D02*
X106469000Y-65788000D01*
X106429000Y-70189000D02*
X106429000Y-68980000D01*
X106429000Y-67020000D02*
X106429000Y-65811000D01*
X106389000Y-70165000D02*
X106389000Y-68980000D01*
X106389000Y-67020000D02*
X106389000Y-65835000D01*
X106349000Y-70140000D02*
X106349000Y-68980000D01*
X106349000Y-67020000D02*
X106349000Y-65860000D01*
X106309000Y-70113000D02*
X106309000Y-68980000D01*
X106309000Y-67020000D02*
X106309000Y-65887000D01*
X106269000Y-70086000D02*
X106269000Y-68980000D01*
X106269000Y-67020000D02*
X106269000Y-65914000D01*
X106229000Y-70058000D02*
X106229000Y-68980000D01*
X106229000Y-67020000D02*
X106229000Y-65942000D01*
X106189000Y-70028000D02*
X106189000Y-68980000D01*
X106189000Y-67020000D02*
X106189000Y-65972000D01*
X106149000Y-69997000D02*
X106149000Y-68980000D01*
X106149000Y-67020000D02*
X106149000Y-66003000D01*
X106109000Y-69965000D02*
X106109000Y-68980000D01*
X106109000Y-67020000D02*
X106109000Y-66035000D01*
X106069000Y-69932000D02*
X106069000Y-68980000D01*
X106069000Y-67020000D02*
X106069000Y-66068000D01*
X106029000Y-69897000D02*
X106029000Y-68980000D01*
X106029000Y-67020000D02*
X106029000Y-66103000D01*
X105989000Y-69861000D02*
X105989000Y-68980000D01*
X105989000Y-67020000D02*
X105989000Y-66139000D01*
X105949000Y-69823000D02*
X105949000Y-68980000D01*
X105949000Y-67020000D02*
X105949000Y-66177000D01*
X105909000Y-69783000D02*
X105909000Y-68980000D01*
X105909000Y-67020000D02*
X105909000Y-66217000D01*
X105869000Y-69742000D02*
X105869000Y-68980000D01*
X105869000Y-67020000D02*
X105869000Y-66258000D01*
X105829000Y-69699000D02*
X105829000Y-68980000D01*
X105829000Y-67020000D02*
X105829000Y-66301000D01*
X105789000Y-69654000D02*
X105789000Y-68980000D01*
X105789000Y-67020000D02*
X105789000Y-66346000D01*
X105749000Y-69606000D02*
X105749000Y-68980000D01*
X105749000Y-67020000D02*
X105749000Y-66394000D01*
X105709000Y-69556000D02*
X105709000Y-68980000D01*
X105709000Y-67020000D02*
X105709000Y-66444000D01*
X105669000Y-69504000D02*
X105669000Y-68980000D01*
X105669000Y-67020000D02*
X105669000Y-66496000D01*
X105629000Y-69448000D02*
X105629000Y-68980000D01*
X105629000Y-67020000D02*
X105629000Y-66552000D01*
X105589000Y-69390000D02*
X105589000Y-68980000D01*
X105589000Y-67020000D02*
X105589000Y-66610000D01*
X105549000Y-69327000D02*
X105549000Y-68980000D01*
X105549000Y-67020000D02*
X105549000Y-66673000D01*
X105509000Y-69261000D02*
X105509000Y-66739000D01*
X105469000Y-69189000D02*
X105469000Y-66811000D01*
X105429000Y-69112000D02*
X105429000Y-66888000D01*
X105389000Y-69028000D02*
X105389000Y-66972000D01*
X105349000Y-68934000D02*
X105349000Y-67066000D01*
X105309000Y-68829000D02*
X105309000Y-67171000D01*
X105269000Y-68707000D02*
X105269000Y-67293000D01*
X105229000Y-68559000D02*
X105229000Y-67441000D01*
X105189000Y-68354000D02*
X105189000Y-67646000D01*
X111200000Y-68000000D02*
X110000000Y-68000000D01*
X110600000Y-68650000D02*
X110600000Y-67350000D01*
X106810000Y-55690000D02*
X106810000Y-60810000D01*
X104190000Y-55690000D02*
X104190000Y-60810000D01*
X106810000Y-55690000D02*
X104190000Y-55690000D01*
X106810000Y-60810000D02*
X104190000Y-60810000D01*
X99690000Y-73690000D02*
X104810000Y-73690000D01*
X99690000Y-76310000D02*
X104810000Y-76310000D01*
X99690000Y-73690000D02*
X99690000Y-76310000D01*
X104810000Y-73690000D02*
X104810000Y-76310000D01*
X102810000Y-92560000D02*
X99690000Y-92560000D01*
X102810000Y-90440000D02*
X99690000Y-90440000D01*
X102810000Y-92560000D02*
X102810000Y-92496000D01*
X102810000Y-90504000D02*
X102810000Y-90440000D01*
X99690000Y-92560000D02*
X99690000Y-92496000D01*
X99690000Y-90504000D02*
X99690000Y-90440000D01*
X115179723Y-73055722D02*
G75*
G03X115180000Y-68444420I-1179723J2305722D01*
G01*
X112820277Y-73055722D02*
G75*
G02X112820000Y-68444420I1179723J2305722D01*
G01*
X112820277Y-73055722D02*
G75*
G03X115180000Y-73055580I1179723J2305722D01*
G01*
X116550000Y-70750000D02*
X111450000Y-70750000D01*
X116550000Y-70790000D02*
X111450000Y-70790000D01*
X116549000Y-70830000D02*
X111451000Y-70830000D01*
X116548000Y-70870000D02*
X111452000Y-70870000D01*
X116546000Y-70910000D02*
X111454000Y-70910000D01*
X116543000Y-70950000D02*
X111457000Y-70950000D01*
X116539000Y-70990000D02*
X111461000Y-70990000D01*
X116535000Y-71030000D02*
X114980000Y-71030000D01*
X113020000Y-71030000D02*
X111465000Y-71030000D01*
X116531000Y-71070000D02*
X114980000Y-71070000D01*
X113020000Y-71070000D02*
X111469000Y-71070000D01*
X116525000Y-71110000D02*
X114980000Y-71110000D01*
X113020000Y-71110000D02*
X111475000Y-71110000D01*
X116519000Y-71150000D02*
X114980000Y-71150000D01*
X113020000Y-71150000D02*
X111481000Y-71150000D01*
X116513000Y-71190000D02*
X114980000Y-71190000D01*
X113020000Y-71190000D02*
X111487000Y-71190000D01*
X116506000Y-71230000D02*
X114980000Y-71230000D01*
X113020000Y-71230000D02*
X111494000Y-71230000D01*
X116498000Y-71270000D02*
X114980000Y-71270000D01*
X113020000Y-71270000D02*
X111502000Y-71270000D01*
X116489000Y-71310000D02*
X114980000Y-71310000D01*
X113020000Y-71310000D02*
X111511000Y-71310000D01*
X116480000Y-71350000D02*
X114980000Y-71350000D01*
X113020000Y-71350000D02*
X111520000Y-71350000D01*
X116470000Y-71390000D02*
X114980000Y-71390000D01*
X113020000Y-71390000D02*
X111530000Y-71390000D01*
X116460000Y-71430000D02*
X114980000Y-71430000D01*
X113020000Y-71430000D02*
X111540000Y-71430000D01*
X116448000Y-71471000D02*
X114980000Y-71471000D01*
X113020000Y-71471000D02*
X111552000Y-71471000D01*
X116436000Y-71511000D02*
X114980000Y-71511000D01*
X113020000Y-71511000D02*
X111564000Y-71511000D01*
X116424000Y-71551000D02*
X114980000Y-71551000D01*
X113020000Y-71551000D02*
X111576000Y-71551000D01*
X116410000Y-71591000D02*
X114980000Y-71591000D01*
X113020000Y-71591000D02*
X111590000Y-71591000D01*
X116396000Y-71631000D02*
X114980000Y-71631000D01*
X113020000Y-71631000D02*
X111604000Y-71631000D01*
X116382000Y-71671000D02*
X114980000Y-71671000D01*
X113020000Y-71671000D02*
X111618000Y-71671000D01*
X116366000Y-71711000D02*
X114980000Y-71711000D01*
X113020000Y-71711000D02*
X111634000Y-71711000D01*
X116350000Y-71751000D02*
X114980000Y-71751000D01*
X113020000Y-71751000D02*
X111650000Y-71751000D01*
X116333000Y-71791000D02*
X114980000Y-71791000D01*
X113020000Y-71791000D02*
X111667000Y-71791000D01*
X116315000Y-71831000D02*
X114980000Y-71831000D01*
X113020000Y-71831000D02*
X111685000Y-71831000D01*
X116296000Y-71871000D02*
X114980000Y-71871000D01*
X113020000Y-71871000D02*
X111704000Y-71871000D01*
X116276000Y-71911000D02*
X114980000Y-71911000D01*
X113020000Y-71911000D02*
X111724000Y-71911000D01*
X116256000Y-71951000D02*
X114980000Y-71951000D01*
X113020000Y-71951000D02*
X111744000Y-71951000D01*
X116234000Y-71991000D02*
X114980000Y-71991000D01*
X113020000Y-71991000D02*
X111766000Y-71991000D01*
X116212000Y-72031000D02*
X114980000Y-72031000D01*
X113020000Y-72031000D02*
X111788000Y-72031000D01*
X116189000Y-72071000D02*
X114980000Y-72071000D01*
X113020000Y-72071000D02*
X111811000Y-72071000D01*
X116165000Y-72111000D02*
X114980000Y-72111000D01*
X113020000Y-72111000D02*
X111835000Y-72111000D01*
X116140000Y-72151000D02*
X114980000Y-72151000D01*
X113020000Y-72151000D02*
X111860000Y-72151000D01*
X116113000Y-72191000D02*
X114980000Y-72191000D01*
X113020000Y-72191000D02*
X111887000Y-72191000D01*
X116086000Y-72231000D02*
X114980000Y-72231000D01*
X113020000Y-72231000D02*
X111914000Y-72231000D01*
X116058000Y-72271000D02*
X114980000Y-72271000D01*
X113020000Y-72271000D02*
X111942000Y-72271000D01*
X116028000Y-72311000D02*
X114980000Y-72311000D01*
X113020000Y-72311000D02*
X111972000Y-72311000D01*
X115997000Y-72351000D02*
X114980000Y-72351000D01*
X113020000Y-72351000D02*
X112003000Y-72351000D01*
X115965000Y-72391000D02*
X114980000Y-72391000D01*
X113020000Y-72391000D02*
X112035000Y-72391000D01*
X115932000Y-72431000D02*
X114980000Y-72431000D01*
X113020000Y-72431000D02*
X112068000Y-72431000D01*
X115897000Y-72471000D02*
X114980000Y-72471000D01*
X113020000Y-72471000D02*
X112103000Y-72471000D01*
X115861000Y-72511000D02*
X114980000Y-72511000D01*
X113020000Y-72511000D02*
X112139000Y-72511000D01*
X115823000Y-72551000D02*
X114980000Y-72551000D01*
X113020000Y-72551000D02*
X112177000Y-72551000D01*
X115783000Y-72591000D02*
X114980000Y-72591000D01*
X113020000Y-72591000D02*
X112217000Y-72591000D01*
X115742000Y-72631000D02*
X114980000Y-72631000D01*
X113020000Y-72631000D02*
X112258000Y-72631000D01*
X115699000Y-72671000D02*
X114980000Y-72671000D01*
X113020000Y-72671000D02*
X112301000Y-72671000D01*
X115654000Y-72711000D02*
X114980000Y-72711000D01*
X113020000Y-72711000D02*
X112346000Y-72711000D01*
X115606000Y-72751000D02*
X114980000Y-72751000D01*
X113020000Y-72751000D02*
X112394000Y-72751000D01*
X115556000Y-72791000D02*
X114980000Y-72791000D01*
X113020000Y-72791000D02*
X112444000Y-72791000D01*
X115504000Y-72831000D02*
X114980000Y-72831000D01*
X113020000Y-72831000D02*
X112496000Y-72831000D01*
X115448000Y-72871000D02*
X114980000Y-72871000D01*
X113020000Y-72871000D02*
X112552000Y-72871000D01*
X115390000Y-72911000D02*
X114980000Y-72911000D01*
X113020000Y-72911000D02*
X112610000Y-72911000D01*
X115327000Y-72951000D02*
X114980000Y-72951000D01*
X113020000Y-72951000D02*
X112673000Y-72951000D01*
X115261000Y-72991000D02*
X112739000Y-72991000D01*
X115189000Y-73031000D02*
X112811000Y-73031000D01*
X115112000Y-73071000D02*
X112888000Y-73071000D01*
X115028000Y-73111000D02*
X112972000Y-73111000D01*
X114934000Y-73151000D02*
X113066000Y-73151000D01*
X114829000Y-73191000D02*
X113171000Y-73191000D01*
X114707000Y-73231000D02*
X113293000Y-73231000D01*
X114559000Y-73271000D02*
X113441000Y-73271000D01*
X114354000Y-73311000D02*
X113646000Y-73311000D01*
X114000000Y-67300000D02*
X114000000Y-68500000D01*
X114650000Y-67900000D02*
X113350000Y-67900000D01*
D11*
X79000000Y-50500000D02*
X79000000Y-62500000D01*
X79000000Y-62500000D02*
X93000000Y-62500000D01*
X93000000Y-62500000D02*
X93000000Y-50500000D01*
X93000000Y-50500000D02*
X79000000Y-50500000D01*
X79000000Y-50500000D02*
X80000000Y-56500000D01*
X80000000Y-56500000D02*
X79000000Y-62500000D01*
X79000000Y-76500000D02*
X79000000Y-88500000D01*
X79000000Y-88500000D02*
X93000000Y-88500000D01*
X93000000Y-88500000D02*
X93000000Y-76500000D01*
X93000000Y-76500000D02*
X79000000Y-76500000D01*
X79000000Y-76500000D02*
X80000000Y-82500000D01*
X80000000Y-82500000D02*
X79000000Y-88500000D01*
X128500000Y-107278000D02*
X126722000Y-98896000D01*
X126722000Y-98896000D02*
X128500000Y-91022000D01*
X112752000Y-91022000D02*
X118594000Y-91022000D01*
X128500000Y-91022000D02*
X121388000Y-91022000D01*
X112752000Y-107278000D02*
X118594000Y-107278000D01*
X128500000Y-107278000D02*
X121388000Y-107278000D01*
X112752000Y-107278000D02*
X112752000Y-91022000D01*
X128500000Y-107278000D02*
X128500000Y-91022000D01*
D12*
X110480000Y-56600000D02*
X110810000Y-56600000D01*
X110810000Y-56600000D02*
X110810000Y-63020000D01*
X110810000Y-63020000D02*
X110480000Y-63020000D01*
X108520000Y-56600000D02*
X108190000Y-56600000D01*
X108190000Y-56600000D02*
X108190000Y-63020000D01*
X108190000Y-63020000D02*
X108520000Y-63020000D01*
X125980000Y-66100000D02*
X126310000Y-66100000D01*
X126310000Y-66100000D02*
X126310000Y-72520000D01*
X126310000Y-72520000D02*
X125980000Y-72520000D01*
X124020000Y-66100000D02*
X123690000Y-66100000D01*
X123690000Y-66100000D02*
X123690000Y-72520000D01*
X123690000Y-72520000D02*
X124020000Y-72520000D01*
X116600000Y-53520000D02*
X116600000Y-53190000D01*
X116600000Y-53190000D02*
X123020000Y-53190000D01*
X123020000Y-53190000D02*
X123020000Y-53520000D01*
X116600000Y-55480000D02*
X116600000Y-55810000D01*
X116600000Y-55810000D02*
X123020000Y-55810000D01*
X123020000Y-55810000D02*
X123020000Y-55480000D01*
X116600000Y-57020000D02*
X116600000Y-56690000D01*
X116600000Y-56690000D02*
X123020000Y-56690000D01*
X123020000Y-56690000D02*
X123020000Y-57020000D01*
X116600000Y-58980000D02*
X116600000Y-59310000D01*
X116600000Y-59310000D02*
X123020000Y-59310000D01*
X123020000Y-59310000D02*
X123020000Y-58980000D01*
X121980000Y-66100000D02*
X122310000Y-66100000D01*
X122310000Y-66100000D02*
X122310000Y-72520000D01*
X122310000Y-72520000D02*
X121980000Y-72520000D01*
X120020000Y-66100000D02*
X119690000Y-66100000D01*
X119690000Y-66100000D02*
X119690000Y-72520000D01*
X119690000Y-72520000D02*
X120020000Y-72520000D01*
X113980000Y-56600000D02*
X114310000Y-56600000D01*
X114310000Y-56600000D02*
X114310000Y-63020000D01*
X114310000Y-63020000D02*
X113980000Y-63020000D01*
X112020000Y-56600000D02*
X111690000Y-56600000D01*
X111690000Y-56600000D02*
X111690000Y-63020000D01*
X111690000Y-63020000D02*
X112020000Y-63020000D01*
X116600000Y-50020000D02*
X116600000Y-49690000D01*
X116600000Y-49690000D02*
X123020000Y-49690000D01*
X123020000Y-49690000D02*
X123020000Y-50020000D01*
X116600000Y-51980000D02*
X116600000Y-52310000D01*
X116600000Y-52310000D02*
X123020000Y-52310000D01*
X123020000Y-52310000D02*
X123020000Y-51980000D01*
X108980000Y-81600000D02*
X109310000Y-81600000D01*
X109310000Y-81600000D02*
X109310000Y-88020000D01*
X109310000Y-88020000D02*
X108980000Y-88020000D01*
X107020000Y-81600000D02*
X106690000Y-81600000D01*
X106690000Y-81600000D02*
X106690000Y-88020000D01*
X106690000Y-88020000D02*
X107020000Y-88020000D01*
X125900000Y-77980000D02*
X125900000Y-78310000D01*
X125900000Y-78310000D02*
X119480000Y-78310000D01*
X119480000Y-78310000D02*
X119480000Y-77980000D01*
X125900000Y-76020000D02*
X125900000Y-75690000D01*
X125900000Y-75690000D02*
X119480000Y-75690000D01*
X119480000Y-75690000D02*
X119480000Y-76020000D01*
X105480000Y-82100000D02*
X105810000Y-82100000D01*
X105810000Y-82100000D02*
X105810000Y-88520000D01*
X105810000Y-88520000D02*
X105480000Y-88520000D01*
X103520000Y-82100000D02*
X103190000Y-82100000D01*
X103190000Y-82100000D02*
X103190000Y-88520000D01*
X103190000Y-88520000D02*
X103520000Y-88520000D01*
X119600000Y-83020000D02*
X119600000Y-82690000D01*
X119600000Y-82690000D02*
X126020000Y-82690000D01*
X126020000Y-82690000D02*
X126020000Y-83020000D01*
X119600000Y-84980000D02*
X119600000Y-85310000D01*
X119600000Y-85310000D02*
X126020000Y-85310000D01*
X126020000Y-85310000D02*
X126020000Y-84980000D01*
X119600000Y-79520000D02*
X119600000Y-79190000D01*
X119600000Y-79190000D02*
X126020000Y-79190000D01*
X126020000Y-79190000D02*
X126020000Y-79520000D01*
X119600000Y-81480000D02*
X119600000Y-81810000D01*
X119600000Y-81810000D02*
X126020000Y-81810000D01*
X126020000Y-81810000D02*
X126020000Y-81480000D01*
X116600000Y-61020000D02*
X116600000Y-60690000D01*
X116600000Y-60690000D02*
X123020000Y-60690000D01*
X123020000Y-60690000D02*
X123020000Y-61020000D01*
X116600000Y-62980000D02*
X116600000Y-63310000D01*
X116600000Y-63310000D02*
X123020000Y-63310000D01*
X123020000Y-63310000D02*
X123020000Y-62980000D01*
X119600000Y-86520000D02*
X119600000Y-86190000D01*
X119600000Y-86190000D02*
X126020000Y-86190000D01*
X126020000Y-86190000D02*
X126020000Y-86520000D01*
X119600000Y-88480000D02*
X119600000Y-88810000D01*
X119600000Y-88810000D02*
X126020000Y-88810000D01*
X126020000Y-88810000D02*
X126020000Y-88480000D01*
X110520000Y-88400000D02*
X110190000Y-88400000D01*
X110190000Y-88400000D02*
X110190000Y-81980000D01*
X110190000Y-81980000D02*
X110520000Y-81980000D01*
X112480000Y-88400000D02*
X112810000Y-88400000D01*
X112810000Y-88400000D02*
X112810000Y-81980000D01*
X112810000Y-81980000D02*
X112480000Y-81980000D01*
X95100000Y-50520000D02*
X95100000Y-50190000D01*
X95100000Y-50190000D02*
X101520000Y-50190000D01*
X101520000Y-50190000D02*
X101520000Y-50520000D01*
X95100000Y-52480000D02*
X95100000Y-52810000D01*
X95100000Y-52810000D02*
X101520000Y-52810000D01*
X101520000Y-52810000D02*
X101520000Y-52480000D01*
X114020000Y-88400000D02*
X113690000Y-88400000D01*
X113690000Y-88400000D02*
X113690000Y-81980000D01*
X113690000Y-81980000D02*
X114020000Y-81980000D01*
X115980000Y-88400000D02*
X116310000Y-88400000D01*
X116310000Y-88400000D02*
X116310000Y-81980000D01*
X116310000Y-81980000D02*
X115980000Y-81980000D01*
X95980000Y-79100000D02*
X96310000Y-79100000D01*
X96310000Y-79100000D02*
X96310000Y-85520000D01*
X96310000Y-85520000D02*
X95980000Y-85520000D01*
X94020000Y-79100000D02*
X93690000Y-79100000D01*
X93690000Y-79100000D02*
X93690000Y-85520000D01*
X93690000Y-85520000D02*
X94020000Y-85520000D01*
X106405000Y-50790000D02*
G75*
G03X106405000Y-50790000I-950000J0D01*
G01*
X110955000Y-54080000D02*
X104125000Y-54080000D01*
X110955000Y-49460000D02*
X104125000Y-49460000D01*
X110955000Y-54080000D02*
X110955000Y-53465000D01*
X110955000Y-52535000D02*
X110955000Y-49460000D01*
X104125000Y-54080000D02*
X104125000Y-53465000D01*
X104125000Y-52535000D02*
X104125000Y-49460000D01*
X104734000Y-51394000D02*
X106059000Y-50069000D01*
X104850000Y-51510000D02*
X106175000Y-50185000D01*
X106405000Y-92290000D02*
G75*
G03X106405000Y-92290000I-950000J0D01*
G01*
X110955000Y-95580000D02*
X104125000Y-95580000D01*
X110955000Y-90960000D02*
X104125000Y-90960000D01*
X110955000Y-95580000D02*
X110955000Y-94965000D01*
X110955000Y-94035000D02*
X110955000Y-90960000D01*
X104125000Y-95580000D02*
X104125000Y-94965000D01*
X104125000Y-94035000D02*
X104125000Y-90960000D01*
X104734000Y-92894000D02*
X106059000Y-91569000D01*
X104850000Y-93010000D02*
X106175000Y-91685000D01*
X99120000Y-65920000D02*
X99120000Y-76160000D01*
X94479000Y-65920000D02*
X94479000Y-76160000D01*
X99120000Y-65920000D02*
X94479000Y-65920000D01*
X99120000Y-76160000D02*
X94479000Y-76160000D01*
X97610000Y-65920000D02*
X97610000Y-76160000D01*
X99120000Y-69190000D02*
X97610000Y-69190000D01*
X99120000Y-72891000D02*
X97610000Y-72891000D01*
X106600000Y-74610000D02*
X108400000Y-74610000D01*
X108400000Y-71390000D02*
X105950000Y-71390000D01*
D11*
X96925000Y-60075000D02*
X96975000Y-60075000D01*
X96925000Y-55925000D02*
X97070000Y-55925000D01*
X102075000Y-55925000D02*
X101930000Y-55925000D01*
X102075000Y-60075000D02*
X101930000Y-60075000D01*
X96925000Y-60075000D02*
X96925000Y-55925000D01*
X102075000Y-60075000D02*
X102075000Y-55925000D01*
X96975000Y-60075000D02*
X96975000Y-61475000D01*
X96925000Y-87075000D02*
X96975000Y-87075000D01*
X96925000Y-82925000D02*
X97070000Y-82925000D01*
X102075000Y-82925000D02*
X101930000Y-82925000D01*
X102075000Y-87075000D02*
X101930000Y-87075000D01*
X96925000Y-87075000D02*
X96925000Y-82925000D01*
X102075000Y-87075000D02*
X102075000Y-82925000D01*
X96975000Y-87075000D02*
X96975000Y-88475000D01*
D12*
X96020000Y-105400000D02*
X95690000Y-105400000D01*
X95690000Y-105400000D02*
X95690000Y-98980000D01*
X95690000Y-98980000D02*
X96020000Y-98980000D01*
X97980000Y-105400000D02*
X98310000Y-105400000D01*
X98310000Y-105400000D02*
X98310000Y-98980000D01*
X98310000Y-98980000D02*
X97980000Y-98980000D01*
X100520000Y-105400000D02*
X100190000Y-105400000D01*
X100190000Y-105400000D02*
X100190000Y-98980000D01*
X100190000Y-98980000D02*
X100520000Y-98980000D01*
X102480000Y-105400000D02*
X102810000Y-105400000D01*
X102810000Y-105400000D02*
X102810000Y-98980000D01*
X102810000Y-98980000D02*
X102480000Y-98980000D01*
D11*
X93500000Y-66500000D02*
X93500000Y-64500000D01*
X93500000Y-71500000D02*
X93500000Y-73500000D01*
X79000000Y-73500000D02*
X79500000Y-73500000D01*
X79000000Y-64500000D02*
X79500000Y-64500000D01*
X79000000Y-64500000D02*
X79000000Y-73500000D01*
X90556381Y-98929333D02*
X91270667Y-98929333D01*
X91413524Y-98976953D01*
X91508762Y-99072191D01*
X91556381Y-99215048D01*
X91556381Y-99310286D01*
X90889714Y-98024571D02*
X91556381Y-98024571D01*
X90508762Y-98262667D02*
X91223048Y-98500762D01*
X91223048Y-97881714D01*
X104357143Y-70166666D02*
X104404762Y-70214285D01*
X104452381Y-70357142D01*
X104452381Y-70452380D01*
X104404762Y-70595238D01*
X104309524Y-70690476D01*
X104214286Y-70738095D01*
X104023810Y-70785714D01*
X103880952Y-70785714D01*
X103690476Y-70738095D01*
X103595238Y-70690476D01*
X103500000Y-70595238D01*
X103452381Y-70452380D01*
X103452381Y-70357142D01*
X103500000Y-70214285D01*
X103547619Y-70166666D01*
X104452381Y-69214285D02*
X104452381Y-69785714D01*
X104452381Y-69500000D02*
X103452381Y-69500000D01*
X103595238Y-69595238D01*
X103690476Y-69690476D01*
X103738095Y-69785714D01*
X112583334Y-73047143D02*
X112535715Y-73094762D01*
X112392858Y-73142381D01*
X112297620Y-73142381D01*
X112154762Y-73094762D01*
X112059524Y-72999524D01*
X112011905Y-72904286D01*
X111964286Y-72713810D01*
X111964286Y-72570952D01*
X112011905Y-72380476D01*
X112059524Y-72285238D01*
X112154762Y-72190000D01*
X112297620Y-72142381D01*
X112392858Y-72142381D01*
X112535715Y-72190000D01*
X112583334Y-72237619D01*
X112964286Y-72237619D02*
X113011905Y-72190000D01*
X113107143Y-72142381D01*
X113345239Y-72142381D01*
X113440477Y-72190000D01*
X113488096Y-72237619D01*
X113535715Y-72332857D01*
X113535715Y-72428095D01*
X113488096Y-72570952D01*
X112916667Y-73142381D01*
X113535715Y-73142381D01*
X99333334Y-64357143D02*
X99285715Y-64404762D01*
X99142858Y-64452381D01*
X99047620Y-64452381D01*
X98904762Y-64404762D01*
X98809524Y-64309524D01*
X98761905Y-64214286D01*
X98714286Y-64023810D01*
X98714286Y-63880952D01*
X98761905Y-63690476D01*
X98809524Y-63595238D01*
X98904762Y-63500000D01*
X99047620Y-63452381D01*
X99142858Y-63452381D01*
X99285715Y-63500000D01*
X99333334Y-63547619D01*
X99666667Y-63452381D02*
X100285715Y-63452381D01*
X99952381Y-63833333D01*
X100095239Y-63833333D01*
X100190477Y-63880952D01*
X100238096Y-63928571D01*
X100285715Y-64023810D01*
X100285715Y-64261905D01*
X100238096Y-64357143D01*
X100190477Y-64404762D01*
X100095239Y-64452381D01*
X99809524Y-64452381D01*
X99714286Y-64404762D01*
X99666667Y-64357143D01*
X111333334Y-66857143D02*
X111285715Y-66904762D01*
X111142858Y-66952381D01*
X111047620Y-66952381D01*
X110904762Y-66904762D01*
X110809524Y-66809524D01*
X110761905Y-66714286D01*
X110714286Y-66523810D01*
X110714286Y-66380952D01*
X110761905Y-66190476D01*
X110809524Y-66095238D01*
X110904762Y-66000000D01*
X111047620Y-65952381D01*
X111142858Y-65952381D01*
X111285715Y-66000000D01*
X111333334Y-66047619D01*
X112190477Y-66285714D02*
X112190477Y-66952381D01*
X111952381Y-65904762D02*
X111714286Y-66619048D01*
X112333334Y-66619048D01*
X107857143Y-58416666D02*
X107904762Y-58464285D01*
X107952381Y-58607142D01*
X107952381Y-58702380D01*
X107904762Y-58845238D01*
X107809524Y-58940476D01*
X107714286Y-58988095D01*
X107523810Y-59035714D01*
X107380952Y-59035714D01*
X107190476Y-58988095D01*
X107095238Y-58940476D01*
X107000000Y-58845238D01*
X106952381Y-58702380D01*
X106952381Y-58607142D01*
X107000000Y-58464285D01*
X107047619Y-58416666D01*
X106952381Y-57511904D02*
X106952381Y-57988095D01*
X107428571Y-58035714D01*
X107380952Y-57988095D01*
X107333333Y-57892857D01*
X107333333Y-57654761D01*
X107380952Y-57559523D01*
X107428571Y-57511904D01*
X107523810Y-57464285D01*
X107761905Y-57464285D01*
X107857143Y-57511904D01*
X107904762Y-57559523D01*
X107952381Y-57654761D01*
X107952381Y-57892857D01*
X107904762Y-57988095D01*
X107857143Y-58035714D01*
X102083334Y-77857143D02*
X102035715Y-77904762D01*
X101892858Y-77952381D01*
X101797620Y-77952381D01*
X101654762Y-77904762D01*
X101559524Y-77809524D01*
X101511905Y-77714286D01*
X101464286Y-77523810D01*
X101464286Y-77380952D01*
X101511905Y-77190476D01*
X101559524Y-77095238D01*
X101654762Y-77000000D01*
X101797620Y-76952381D01*
X101892858Y-76952381D01*
X102035715Y-77000000D01*
X102083334Y-77047619D01*
X102940477Y-76952381D02*
X102750000Y-76952381D01*
X102654762Y-77000000D01*
X102607143Y-77047619D01*
X102511905Y-77190476D01*
X102464286Y-77380952D01*
X102464286Y-77761905D01*
X102511905Y-77857143D01*
X102559524Y-77904762D01*
X102654762Y-77952381D01*
X102845239Y-77952381D01*
X102940477Y-77904762D01*
X102988096Y-77857143D01*
X103035715Y-77761905D01*
X103035715Y-77523810D01*
X102988096Y-77428571D01*
X102940477Y-77380952D01*
X102845239Y-77333333D01*
X102654762Y-77333333D01*
X102559524Y-77380952D01*
X102511905Y-77428571D01*
X102464286Y-77523810D01*
X101083334Y-94167143D02*
X101035715Y-94214762D01*
X100892858Y-94262381D01*
X100797620Y-94262381D01*
X100654762Y-94214762D01*
X100559524Y-94119524D01*
X100511905Y-94024286D01*
X100464286Y-93833810D01*
X100464286Y-93690952D01*
X100511905Y-93500476D01*
X100559524Y-93405238D01*
X100654762Y-93310000D01*
X100797620Y-93262381D01*
X100892858Y-93262381D01*
X101035715Y-93310000D01*
X101083334Y-93357619D01*
X101416667Y-93262381D02*
X102083334Y-93262381D01*
X101654762Y-94262381D01*
X118167143Y-70916666D02*
X118214762Y-70964285D01*
X118262381Y-71107142D01*
X118262381Y-71202380D01*
X118214762Y-71345238D01*
X118119524Y-71440476D01*
X118024286Y-71488095D01*
X117833810Y-71535714D01*
X117690952Y-71535714D01*
X117500476Y-71488095D01*
X117405238Y-71440476D01*
X117310000Y-71345238D01*
X117262381Y-71202380D01*
X117262381Y-71107142D01*
X117310000Y-70964285D01*
X117357619Y-70916666D01*
X117690952Y-70345238D02*
X117643333Y-70440476D01*
X117595714Y-70488095D01*
X117500476Y-70535714D01*
X117452857Y-70535714D01*
X117357619Y-70488095D01*
X117310000Y-70440476D01*
X117262381Y-70345238D01*
X117262381Y-70154761D01*
X117310000Y-70059523D01*
X117357619Y-70011904D01*
X117452857Y-69964285D01*
X117500476Y-69964285D01*
X117595714Y-70011904D01*
X117643333Y-70059523D01*
X117690952Y-70154761D01*
X117690952Y-70345238D01*
X117738571Y-70440476D01*
X117786190Y-70488095D01*
X117881429Y-70535714D01*
X118071905Y-70535714D01*
X118167143Y-70488095D01*
X118214762Y-70440476D01*
X118262381Y-70345238D01*
X118262381Y-70154761D01*
X118214762Y-70059523D01*
X118167143Y-70011904D01*
X118071905Y-69964285D01*
X117881429Y-69964285D01*
X117786190Y-70011904D01*
X117738571Y-70059523D01*
X117690952Y-70154761D01*
X85952381Y-56833333D02*
X86666667Y-56833333D01*
X86809524Y-56880953D01*
X86904762Y-56976191D01*
X86952381Y-57119048D01*
X86952381Y-57214286D01*
X86047619Y-56404762D02*
X86000000Y-56357143D01*
X85952381Y-56261905D01*
X85952381Y-56023809D01*
X86000000Y-55928571D01*
X86047619Y-55880952D01*
X86142857Y-55833333D01*
X86238095Y-55833333D01*
X86380952Y-55880952D01*
X86952381Y-56452381D01*
X86952381Y-55833333D01*
X85952381Y-82833333D02*
X86666667Y-82833333D01*
X86809524Y-82880953D01*
X86904762Y-82976191D01*
X86952381Y-83119048D01*
X86952381Y-83214286D01*
X85952381Y-82452381D02*
X85952381Y-81833333D01*
X86333333Y-82166667D01*
X86333333Y-82023809D01*
X86380952Y-81928571D01*
X86428571Y-81880952D01*
X86523810Y-81833333D01*
X86761905Y-81833333D01*
X86857143Y-81880952D01*
X86904762Y-81928571D01*
X86952381Y-82023809D01*
X86952381Y-82309524D01*
X86904762Y-82404762D01*
X86857143Y-82452381D01*
X115848381Y-99737333D02*
X116562667Y-99737333D01*
X116705524Y-99784953D01*
X116800762Y-99880191D01*
X116848381Y-100023048D01*
X116848381Y-100118286D01*
X115848381Y-98784952D02*
X115848381Y-99261143D01*
X116324571Y-99308762D01*
X116276952Y-99261143D01*
X116229333Y-99165905D01*
X116229333Y-98927809D01*
X116276952Y-98832571D01*
X116324571Y-98784952D01*
X116419810Y-98737333D01*
X116657905Y-98737333D01*
X116753143Y-98784952D01*
X116800762Y-98832571D01*
X116848381Y-98927809D01*
X116848381Y-99165905D01*
X116800762Y-99261143D01*
X116753143Y-99308762D01*
X109952381Y-59976666D02*
X109476190Y-60310000D01*
X109952381Y-60548095D02*
X108952381Y-60548095D01*
X108952381Y-60167142D01*
X109000000Y-60071904D01*
X109047619Y-60024285D01*
X109142857Y-59976666D01*
X109285714Y-59976666D01*
X109380952Y-60024285D01*
X109428571Y-60071904D01*
X109476190Y-60167142D01*
X109476190Y-60548095D01*
X109952381Y-59024285D02*
X109952381Y-59595714D01*
X109952381Y-59310000D02*
X108952381Y-59310000D01*
X109095238Y-59405238D01*
X109190476Y-59500476D01*
X109238095Y-59595714D01*
X125452381Y-69666666D02*
X124976190Y-70000000D01*
X125452381Y-70238095D02*
X124452381Y-70238095D01*
X124452381Y-69857142D01*
X124500000Y-69761904D01*
X124547619Y-69714285D01*
X124642857Y-69666666D01*
X124785714Y-69666666D01*
X124880952Y-69714285D01*
X124928571Y-69761904D01*
X124976190Y-69857142D01*
X124976190Y-70238095D01*
X124547619Y-69285714D02*
X124500000Y-69238095D01*
X124452381Y-69142857D01*
X124452381Y-68904761D01*
X124500000Y-68809523D01*
X124547619Y-68761904D01*
X124642857Y-68714285D01*
X124738095Y-68714285D01*
X124880952Y-68761904D01*
X125452381Y-69333333D01*
X125452381Y-68714285D01*
X119643334Y-54952381D02*
X119310000Y-54476190D01*
X119071905Y-54952381D02*
X119071905Y-53952381D01*
X119452858Y-53952381D01*
X119548096Y-54000000D01*
X119595715Y-54047619D01*
X119643334Y-54142857D01*
X119643334Y-54285714D01*
X119595715Y-54380952D01*
X119548096Y-54428571D01*
X119452858Y-54476190D01*
X119071905Y-54476190D01*
X119976667Y-53952381D02*
X120595715Y-53952381D01*
X120262381Y-54333333D01*
X120405239Y-54333333D01*
X120500477Y-54380952D01*
X120548096Y-54428571D01*
X120595715Y-54523810D01*
X120595715Y-54761905D01*
X120548096Y-54857143D01*
X120500477Y-54904762D01*
X120405239Y-54952381D01*
X120119524Y-54952381D01*
X120024286Y-54904762D01*
X119976667Y-54857143D01*
X119643334Y-58452381D02*
X119310000Y-57976190D01*
X119071905Y-58452381D02*
X119071905Y-57452381D01*
X119452858Y-57452381D01*
X119548096Y-57500000D01*
X119595715Y-57547619D01*
X119643334Y-57642857D01*
X119643334Y-57785714D01*
X119595715Y-57880952D01*
X119548096Y-57928571D01*
X119452858Y-57976190D01*
X119071905Y-57976190D01*
X120500477Y-57785714D02*
X120500477Y-58452381D01*
X120262381Y-57404762D02*
X120024286Y-58119048D01*
X120643334Y-58119048D01*
X121452381Y-69476666D02*
X120976190Y-69810000D01*
X121452381Y-70048095D02*
X120452381Y-70048095D01*
X120452381Y-69667142D01*
X120500000Y-69571904D01*
X120547619Y-69524285D01*
X120642857Y-69476666D01*
X120785714Y-69476666D01*
X120880952Y-69524285D01*
X120928571Y-69571904D01*
X120976190Y-69667142D01*
X120976190Y-70048095D01*
X120452381Y-68571904D02*
X120452381Y-69048095D01*
X120928571Y-69095714D01*
X120880952Y-69048095D01*
X120833333Y-68952857D01*
X120833333Y-68714761D01*
X120880952Y-68619523D01*
X120928571Y-68571904D01*
X121023810Y-68524285D01*
X121261905Y-68524285D01*
X121357143Y-68571904D01*
X121404762Y-68619523D01*
X121452381Y-68714761D01*
X121452381Y-68952857D01*
X121404762Y-69048095D01*
X121357143Y-69095714D01*
X113452381Y-59976666D02*
X112976190Y-60310000D01*
X113452381Y-60548095D02*
X112452381Y-60548095D01*
X112452381Y-60167142D01*
X112500000Y-60071904D01*
X112547619Y-60024285D01*
X112642857Y-59976666D01*
X112785714Y-59976666D01*
X112880952Y-60024285D01*
X112928571Y-60071904D01*
X112976190Y-60167142D01*
X112976190Y-60548095D01*
X112452381Y-59119523D02*
X112452381Y-59310000D01*
X112500000Y-59405238D01*
X112547619Y-59452857D01*
X112690476Y-59548095D01*
X112880952Y-59595714D01*
X113261905Y-59595714D01*
X113357143Y-59548095D01*
X113404762Y-59500476D01*
X113452381Y-59405238D01*
X113452381Y-59214761D01*
X113404762Y-59119523D01*
X113357143Y-59071904D01*
X113261905Y-59024285D01*
X113023810Y-59024285D01*
X112928571Y-59071904D01*
X112880952Y-59119523D01*
X112833333Y-59214761D01*
X112833333Y-59405238D01*
X112880952Y-59500476D01*
X112928571Y-59548095D01*
X113023810Y-59595714D01*
X119643334Y-51452381D02*
X119310000Y-50976190D01*
X119071905Y-51452381D02*
X119071905Y-50452381D01*
X119452858Y-50452381D01*
X119548096Y-50500000D01*
X119595715Y-50547619D01*
X119643334Y-50642857D01*
X119643334Y-50785714D01*
X119595715Y-50880952D01*
X119548096Y-50928571D01*
X119452858Y-50976190D01*
X119071905Y-50976190D01*
X119976667Y-50452381D02*
X120643334Y-50452381D01*
X120214762Y-51452381D01*
X108452381Y-84976666D02*
X107976190Y-85310000D01*
X108452381Y-85548095D02*
X107452381Y-85548095D01*
X107452381Y-85167142D01*
X107500000Y-85071904D01*
X107547619Y-85024285D01*
X107642857Y-84976666D01*
X107785714Y-84976666D01*
X107880952Y-85024285D01*
X107928571Y-85071904D01*
X107976190Y-85167142D01*
X107976190Y-85548095D01*
X107880952Y-84405238D02*
X107833333Y-84500476D01*
X107785714Y-84548095D01*
X107690476Y-84595714D01*
X107642857Y-84595714D01*
X107547619Y-84548095D01*
X107500000Y-84500476D01*
X107452381Y-84405238D01*
X107452381Y-84214761D01*
X107500000Y-84119523D01*
X107547619Y-84071904D01*
X107642857Y-84024285D01*
X107690476Y-84024285D01*
X107785714Y-84071904D01*
X107833333Y-84119523D01*
X107880952Y-84214761D01*
X107880952Y-84405238D01*
X107928571Y-84500476D01*
X107976190Y-84548095D01*
X108071429Y-84595714D01*
X108261905Y-84595714D01*
X108357143Y-84548095D01*
X108404762Y-84500476D01*
X108452381Y-84405238D01*
X108452381Y-84214761D01*
X108404762Y-84119523D01*
X108357143Y-84071904D01*
X108261905Y-84024285D01*
X108071429Y-84024285D01*
X107976190Y-84071904D01*
X107928571Y-84119523D01*
X107880952Y-84214761D01*
X122523334Y-77452381D02*
X122190000Y-76976190D01*
X121951905Y-77452381D02*
X121951905Y-76452381D01*
X122332858Y-76452381D01*
X122428096Y-76500000D01*
X122475715Y-76547619D01*
X122523334Y-76642857D01*
X122523334Y-76785714D01*
X122475715Y-76880952D01*
X122428096Y-76928571D01*
X122332858Y-76976190D01*
X121951905Y-76976190D01*
X122999524Y-77452381D02*
X123190000Y-77452381D01*
X123285239Y-77404762D01*
X123332858Y-77357143D01*
X123428096Y-77214286D01*
X123475715Y-77023810D01*
X123475715Y-76642857D01*
X123428096Y-76547619D01*
X123380477Y-76500000D01*
X123285239Y-76452381D01*
X123094762Y-76452381D01*
X122999524Y-76500000D01*
X122951905Y-76547619D01*
X122904286Y-76642857D01*
X122904286Y-76880952D01*
X122951905Y-76976190D01*
X122999524Y-77023810D01*
X123094762Y-77071429D01*
X123285239Y-77071429D01*
X123380477Y-77023810D01*
X123428096Y-76976190D01*
X123475715Y-76880952D01*
X104952381Y-85952857D02*
X104476190Y-86286191D01*
X104952381Y-86524286D02*
X103952381Y-86524286D01*
X103952381Y-86143333D01*
X104000000Y-86048095D01*
X104047619Y-86000476D01*
X104142857Y-85952857D01*
X104285714Y-85952857D01*
X104380952Y-86000476D01*
X104428571Y-86048095D01*
X104476190Y-86143333D01*
X104476190Y-86524286D01*
X104952381Y-85000476D02*
X104952381Y-85571905D01*
X104952381Y-85286191D02*
X103952381Y-85286191D01*
X104095238Y-85381429D01*
X104190476Y-85476667D01*
X104238095Y-85571905D01*
X103952381Y-84381429D02*
X103952381Y-84286190D01*
X104000000Y-84190952D01*
X104047619Y-84143333D01*
X104142857Y-84095714D01*
X104333333Y-84048095D01*
X104571429Y-84048095D01*
X104761905Y-84095714D01*
X104857143Y-84143333D01*
X104904762Y-84190952D01*
X104952381Y-84286190D01*
X104952381Y-84381429D01*
X104904762Y-84476667D01*
X104857143Y-84524286D01*
X104761905Y-84571905D01*
X104571429Y-84619524D01*
X104333333Y-84619524D01*
X104142857Y-84571905D01*
X104047619Y-84524286D01*
X104000000Y-84476667D01*
X103952381Y-84381429D01*
X122167143Y-84452381D02*
X121833809Y-83976190D01*
X121595714Y-84452381D02*
X121595714Y-83452381D01*
X121976667Y-83452381D01*
X122071905Y-83500000D01*
X122119524Y-83547619D01*
X122167143Y-83642857D01*
X122167143Y-83785714D01*
X122119524Y-83880952D01*
X122071905Y-83928571D01*
X121976667Y-83976190D01*
X121595714Y-83976190D01*
X123119524Y-84452381D02*
X122548095Y-84452381D01*
X122833809Y-84452381D02*
X122833809Y-83452381D01*
X122738571Y-83595238D01*
X122643333Y-83690476D01*
X122548095Y-83738095D01*
X124071905Y-84452381D02*
X123500476Y-84452381D01*
X123786190Y-84452381D02*
X123786190Y-83452381D01*
X123690952Y-83595238D01*
X123595714Y-83690476D01*
X123500476Y-83738095D01*
X122167143Y-80952381D02*
X121833809Y-80476190D01*
X121595714Y-80952381D02*
X121595714Y-79952381D01*
X121976667Y-79952381D01*
X122071905Y-80000000D01*
X122119524Y-80047619D01*
X122167143Y-80142857D01*
X122167143Y-80285714D01*
X122119524Y-80380952D01*
X122071905Y-80428571D01*
X121976667Y-80476190D01*
X121595714Y-80476190D01*
X123119524Y-80952381D02*
X122548095Y-80952381D01*
X122833809Y-80952381D02*
X122833809Y-79952381D01*
X122738571Y-80095238D01*
X122643333Y-80190476D01*
X122548095Y-80238095D01*
X123500476Y-80047619D02*
X123548095Y-80000000D01*
X123643333Y-79952381D01*
X123881429Y-79952381D01*
X123976667Y-80000000D01*
X124024286Y-80047619D01*
X124071905Y-80142857D01*
X124071905Y-80238095D01*
X124024286Y-80380952D01*
X123452857Y-80952381D01*
X124071905Y-80952381D01*
X119167143Y-62452381D02*
X118833809Y-61976190D01*
X118595714Y-62452381D02*
X118595714Y-61452381D01*
X118976667Y-61452381D01*
X119071905Y-61500000D01*
X119119524Y-61547619D01*
X119167143Y-61642857D01*
X119167143Y-61785714D01*
X119119524Y-61880952D01*
X119071905Y-61928571D01*
X118976667Y-61976190D01*
X118595714Y-61976190D01*
X120119524Y-62452381D02*
X119548095Y-62452381D01*
X119833809Y-62452381D02*
X119833809Y-61452381D01*
X119738571Y-61595238D01*
X119643333Y-61690476D01*
X119548095Y-61738095D01*
X120452857Y-61452381D02*
X121071905Y-61452381D01*
X120738571Y-61833333D01*
X120881429Y-61833333D01*
X120976667Y-61880952D01*
X121024286Y-61928571D01*
X121071905Y-62023810D01*
X121071905Y-62261905D01*
X121024286Y-62357143D01*
X120976667Y-62404762D01*
X120881429Y-62452381D01*
X120595714Y-62452381D01*
X120500476Y-62404762D01*
X120452857Y-62357143D01*
X121857143Y-87952381D02*
X121523809Y-87476190D01*
X121285714Y-87952381D02*
X121285714Y-86952381D01*
X121666667Y-86952381D01*
X121761905Y-87000000D01*
X121809524Y-87047619D01*
X121857143Y-87142857D01*
X121857143Y-87285714D01*
X121809524Y-87380952D01*
X121761905Y-87428571D01*
X121666667Y-87476190D01*
X121285714Y-87476190D01*
X122809524Y-87952381D02*
X122238095Y-87952381D01*
X122523809Y-87952381D02*
X122523809Y-86952381D01*
X122428571Y-87095238D01*
X122333333Y-87190476D01*
X122238095Y-87238095D01*
X123666667Y-87285714D02*
X123666667Y-87952381D01*
X123428571Y-86904762D02*
X123190476Y-87619048D01*
X123809524Y-87619048D01*
X111952381Y-85642857D02*
X111476190Y-85976191D01*
X111952381Y-86214286D02*
X110952381Y-86214286D01*
X110952381Y-85833333D01*
X111000000Y-85738095D01*
X111047619Y-85690476D01*
X111142857Y-85642857D01*
X111285714Y-85642857D01*
X111380952Y-85690476D01*
X111428571Y-85738095D01*
X111476190Y-85833333D01*
X111476190Y-86214286D01*
X111952381Y-84690476D02*
X111952381Y-85261905D01*
X111952381Y-84976191D02*
X110952381Y-84976191D01*
X111095238Y-85071429D01*
X111190476Y-85166667D01*
X111238095Y-85261905D01*
X110952381Y-83785714D02*
X110952381Y-84261905D01*
X111428571Y-84309524D01*
X111380952Y-84261905D01*
X111333333Y-84166667D01*
X111333333Y-83928571D01*
X111380952Y-83833333D01*
X111428571Y-83785714D01*
X111523810Y-83738095D01*
X111761905Y-83738095D01*
X111857143Y-83785714D01*
X111904762Y-83833333D01*
X111952381Y-83928571D01*
X111952381Y-84166667D01*
X111904762Y-84261905D01*
X111857143Y-84309524D01*
X97667143Y-51952381D02*
X97333809Y-51476190D01*
X97095714Y-51952381D02*
X97095714Y-50952381D01*
X97476667Y-50952381D01*
X97571905Y-51000000D01*
X97619524Y-51047619D01*
X97667143Y-51142857D01*
X97667143Y-51285714D01*
X97619524Y-51380952D01*
X97571905Y-51428571D01*
X97476667Y-51476190D01*
X97095714Y-51476190D01*
X98619524Y-51952381D02*
X98048095Y-51952381D01*
X98333809Y-51952381D02*
X98333809Y-50952381D01*
X98238571Y-51095238D01*
X98143333Y-51190476D01*
X98048095Y-51238095D01*
X99476667Y-50952381D02*
X99286190Y-50952381D01*
X99190952Y-51000000D01*
X99143333Y-51047619D01*
X99048095Y-51190476D01*
X99000476Y-51380952D01*
X99000476Y-51761905D01*
X99048095Y-51857143D01*
X99095714Y-51904762D01*
X99190952Y-51952381D01*
X99381429Y-51952381D01*
X99476667Y-51904762D01*
X99524286Y-51857143D01*
X99571905Y-51761905D01*
X99571905Y-51523810D01*
X99524286Y-51428571D01*
X99476667Y-51380952D01*
X99381429Y-51333333D01*
X99190952Y-51333333D01*
X99095714Y-51380952D01*
X99048095Y-51428571D01*
X99000476Y-51523810D01*
X115452381Y-85832857D02*
X114976190Y-86166191D01*
X115452381Y-86404286D02*
X114452381Y-86404286D01*
X114452381Y-86023333D01*
X114500000Y-85928095D01*
X114547619Y-85880476D01*
X114642857Y-85832857D01*
X114785714Y-85832857D01*
X114880952Y-85880476D01*
X114928571Y-85928095D01*
X114976190Y-86023333D01*
X114976190Y-86404286D01*
X115452381Y-84880476D02*
X115452381Y-85451905D01*
X115452381Y-85166191D02*
X114452381Y-85166191D01*
X114595238Y-85261429D01*
X114690476Y-85356667D01*
X114738095Y-85451905D01*
X114452381Y-84547143D02*
X114452381Y-83880476D01*
X115452381Y-84309048D01*
X95452381Y-83142857D02*
X94976190Y-83476191D01*
X95452381Y-83714286D02*
X94452381Y-83714286D01*
X94452381Y-83333333D01*
X94500000Y-83238095D01*
X94547619Y-83190476D01*
X94642857Y-83142857D01*
X94785714Y-83142857D01*
X94880952Y-83190476D01*
X94928571Y-83238095D01*
X94976190Y-83333333D01*
X94976190Y-83714286D01*
X95452381Y-82190476D02*
X95452381Y-82761905D01*
X95452381Y-82476191D02*
X94452381Y-82476191D01*
X94595238Y-82571429D01*
X94690476Y-82666667D01*
X94738095Y-82761905D01*
X94880952Y-81619048D02*
X94833333Y-81714286D01*
X94785714Y-81761905D01*
X94690476Y-81809524D01*
X94642857Y-81809524D01*
X94547619Y-81761905D01*
X94500000Y-81714286D01*
X94452381Y-81619048D01*
X94452381Y-81428571D01*
X94500000Y-81333333D01*
X94547619Y-81285714D01*
X94642857Y-81238095D01*
X94690476Y-81238095D01*
X94785714Y-81285714D01*
X94833333Y-81333333D01*
X94880952Y-81428571D01*
X94880952Y-81619048D01*
X94928571Y-81714286D01*
X94976190Y-81761905D01*
X95071429Y-81809524D01*
X95261905Y-81809524D01*
X95357143Y-81761905D01*
X95404762Y-81714286D01*
X95452381Y-81619048D01*
X95452381Y-81428571D01*
X95404762Y-81333333D01*
X95357143Y-81285714D01*
X95261905Y-81238095D01*
X95071429Y-81238095D01*
X94976190Y-81285714D01*
X94928571Y-81333333D01*
X94880952Y-81428571D01*
X106944762Y-53452381D02*
X106611428Y-52976190D01*
X106373333Y-53452381D02*
X106373333Y-52452381D01*
X106754286Y-52452381D01*
X106849524Y-52500000D01*
X106897143Y-52547619D01*
X106944762Y-52642857D01*
X106944762Y-52785714D01*
X106897143Y-52880952D01*
X106849524Y-52928571D01*
X106754286Y-52976190D01*
X106373333Y-52976190D01*
X107230476Y-52452381D02*
X107563809Y-53452381D01*
X107897143Y-52452381D01*
X108754286Y-53452381D02*
X108182857Y-53452381D01*
X108468571Y-53452381D02*
X108468571Y-52452381D01*
X108373333Y-52595238D01*
X108278095Y-52690476D01*
X108182857Y-52738095D01*
X106904762Y-94952381D02*
X106571428Y-94476190D01*
X106333333Y-94952381D02*
X106333333Y-93952381D01*
X106714286Y-93952381D01*
X106809524Y-94000000D01*
X106857143Y-94047619D01*
X106904762Y-94142857D01*
X106904762Y-94285714D01*
X106857143Y-94380952D01*
X106809524Y-94428571D01*
X106714286Y-94476190D01*
X106333333Y-94476190D01*
X107190476Y-93952381D02*
X107523809Y-94952381D01*
X107857143Y-93952381D01*
X108142857Y-94047619D02*
X108190476Y-94000000D01*
X108285714Y-93952381D01*
X108523810Y-93952381D01*
X108619048Y-94000000D01*
X108666667Y-94047619D01*
X108714286Y-94142857D01*
X108714286Y-94238095D01*
X108666667Y-94380952D01*
X108095238Y-94952381D01*
X108714286Y-94952381D01*
X95952381Y-65261905D02*
X96761905Y-65261905D01*
X96857143Y-65214286D01*
X96904762Y-65166667D01*
X96952381Y-65071429D01*
X96952381Y-64880952D01*
X96904762Y-64785714D01*
X96857143Y-64738095D01*
X96761905Y-64690476D01*
X95952381Y-64690476D01*
X96952381Y-63690476D02*
X96952381Y-64261905D01*
X96952381Y-63976191D02*
X95952381Y-63976191D01*
X96095238Y-64071429D01*
X96190476Y-64166667D01*
X96238095Y-64261905D01*
X106738095Y-74952381D02*
X106738095Y-75761905D01*
X106785714Y-75857143D01*
X106833333Y-75904762D01*
X106928571Y-75952381D01*
X107119048Y-75952381D01*
X107214286Y-75904762D01*
X107261905Y-75857143D01*
X107309524Y-75761905D01*
X107309524Y-74952381D01*
X107738095Y-75047619D02*
X107785714Y-75000000D01*
X107880952Y-74952381D01*
X108119048Y-74952381D01*
X108214286Y-75000000D01*
X108261905Y-75047619D01*
X108309524Y-75142857D01*
X108309524Y-75238095D01*
X108261905Y-75380952D01*
X107690476Y-75952381D01*
X108309524Y-75952381D01*
X95452381Y-58761905D02*
X96261905Y-58761905D01*
X96357143Y-58714286D01*
X96404762Y-58666667D01*
X96452381Y-58571429D01*
X96452381Y-58380952D01*
X96404762Y-58285714D01*
X96357143Y-58238095D01*
X96261905Y-58190476D01*
X95452381Y-58190476D01*
X95452381Y-57809524D02*
X95452381Y-57190476D01*
X95833333Y-57523810D01*
X95833333Y-57380952D01*
X95880952Y-57285714D01*
X95928571Y-57238095D01*
X96023810Y-57190476D01*
X96261905Y-57190476D01*
X96357143Y-57238095D01*
X96404762Y-57285714D01*
X96452381Y-57380952D01*
X96452381Y-57666667D01*
X96404762Y-57761905D01*
X96357143Y-57809524D01*
X98952381Y-85761905D02*
X99761905Y-85761905D01*
X99857143Y-85714286D01*
X99904762Y-85666667D01*
X99952381Y-85571429D01*
X99952381Y-85380952D01*
X99904762Y-85285714D01*
X99857143Y-85238095D01*
X99761905Y-85190476D01*
X98952381Y-85190476D01*
X99285714Y-84285714D02*
X99952381Y-84285714D01*
X98904762Y-84523810D02*
X99619048Y-84761905D01*
X99619048Y-84142857D01*
X97452381Y-102642857D02*
X96976190Y-102976191D01*
X97452381Y-103214286D02*
X96452381Y-103214286D01*
X96452381Y-102833333D01*
X96500000Y-102738095D01*
X96547619Y-102690476D01*
X96642857Y-102642857D01*
X96785714Y-102642857D01*
X96880952Y-102690476D01*
X96928571Y-102738095D01*
X96976190Y-102833333D01*
X96976190Y-103214286D01*
X97452381Y-101690476D02*
X97452381Y-102261905D01*
X97452381Y-101976191D02*
X96452381Y-101976191D01*
X96595238Y-102071429D01*
X96690476Y-102166667D01*
X96738095Y-102261905D01*
X97452381Y-101214286D02*
X97452381Y-101023810D01*
X97404762Y-100928571D01*
X97357143Y-100880952D01*
X97214286Y-100785714D01*
X97023810Y-100738095D01*
X96642857Y-100738095D01*
X96547619Y-100785714D01*
X96500000Y-100833333D01*
X96452381Y-100928571D01*
X96452381Y-101119048D01*
X96500000Y-101214286D01*
X96547619Y-101261905D01*
X96642857Y-101309524D01*
X96880952Y-101309524D01*
X96976190Y-101261905D01*
X97023810Y-101214286D01*
X97071429Y-101119048D01*
X97071429Y-100928571D01*
X97023810Y-100833333D01*
X96976190Y-100785714D01*
X96880952Y-100738095D01*
X101952381Y-102832857D02*
X101476190Y-103166191D01*
X101952381Y-103404286D02*
X100952381Y-103404286D01*
X100952381Y-103023333D01*
X101000000Y-102928095D01*
X101047619Y-102880476D01*
X101142857Y-102832857D01*
X101285714Y-102832857D01*
X101380952Y-102880476D01*
X101428571Y-102928095D01*
X101476190Y-103023333D01*
X101476190Y-103404286D01*
X101047619Y-102451905D02*
X101000000Y-102404286D01*
X100952381Y-102309048D01*
X100952381Y-102070952D01*
X101000000Y-101975714D01*
X101047619Y-101928095D01*
X101142857Y-101880476D01*
X101238095Y-101880476D01*
X101380952Y-101928095D01*
X101952381Y-102499524D01*
X101952381Y-101880476D01*
X100952381Y-101261429D02*
X100952381Y-101166190D01*
X101000000Y-101070952D01*
X101047619Y-101023333D01*
X101142857Y-100975714D01*
X101333333Y-100928095D01*
X101571429Y-100928095D01*
X101761905Y-100975714D01*
X101857143Y-101023333D01*
X101904762Y-101070952D01*
X101952381Y-101166190D01*
X101952381Y-101261429D01*
X101904762Y-101356667D01*
X101857143Y-101404286D01*
X101761905Y-101451905D01*
X101571429Y-101499524D01*
X101333333Y-101499524D01*
X101142857Y-101451905D01*
X101047619Y-101404286D01*
X101000000Y-101356667D01*
X100952381Y-101261429D01*
X82666667Y-68452381D02*
X82666667Y-69166667D01*
X82619047Y-69309524D01*
X82523809Y-69404762D01*
X82380952Y-69452381D01*
X82285714Y-69452381D01*
X83666667Y-69452381D02*
X83095238Y-69452381D01*
X83380952Y-69452381D02*
X83380952Y-68452381D01*
X83285714Y-68595238D01*
X83190476Y-68690476D01*
X83095238Y-68738095D01*
M02*
