G04 #@! TF.FileFunction,Copper,L2,Bot,Signal*
%FSLAX46Y46*%
G04 Gerber Fmt 4.6, Leading zero omitted, Abs format (unit mm)*
G04 Created by KiCad (PCBNEW 4.0.6) date 03/19/18 00:54:58*
%MOMM*%
%LPD*%
G01*
G04 APERTURE LIST*
%ADD10C,0.100000*%
%ADD11C,2.540000*%
%ADD12C,1.270000*%
%ADD13C,1.600000*%
%ADD14R,1.600000X1.600000*%
%ADD15C,1.524000*%
%ADD16R,2.000000X3.000000*%
%ADD17R,3.000000X1.500000*%
%ADD18O,1.600000X1.600000*%
%ADD19C,1.440000*%
%ADD20R,1.800000X1.800000*%
%ADD21O,1.800000X1.800000*%
%ADD22R,3.200000X1.500000*%
%ADD23R,1.500000X3.200000*%
%ADD24R,1.500000X3.500000*%
%ADD25C,0.600000*%
%ADD26C,0.250000*%
%ADD27C,0.254000*%
G04 APERTURE END LIST*
D10*
D11*
X87509000Y-90722000D03*
X87509000Y-106978000D03*
D12*
X86112000Y-102406000D03*
X87890000Y-101390000D03*
X86112000Y-100374000D03*
X87890000Y-99358000D03*
X86112000Y-98342000D03*
X87890000Y-97326000D03*
X86112000Y-96310000D03*
X87890000Y-95294000D03*
D13*
X101500000Y-68500000D03*
X101500000Y-71000000D03*
D14*
X111500000Y-76500000D03*
D13*
X114000000Y-76500000D03*
X104000000Y-64000000D03*
X101500000Y-64000000D03*
D14*
X109000000Y-68000000D03*
D13*
X106500000Y-68000000D03*
X105500000Y-57000000D03*
X105500000Y-59500000D03*
X101000000Y-75000000D03*
X103500000Y-75000000D03*
X102500000Y-91500000D03*
X100000000Y-91500000D03*
D14*
X114000000Y-69500000D03*
D13*
X114000000Y-72000000D03*
D15*
X83000000Y-60250000D03*
X83000000Y-52750000D03*
D16*
X83000000Y-56500000D03*
D17*
X91000000Y-51200000D03*
D15*
X83000000Y-86250000D03*
X83000000Y-78750000D03*
D16*
X83000000Y-82500000D03*
D17*
X91000000Y-77200000D03*
D11*
X119991000Y-107278000D03*
X119991000Y-91022000D03*
D12*
X121388000Y-95594000D03*
X119610000Y-96610000D03*
X121388000Y-97626000D03*
X119610000Y-98642000D03*
X121388000Y-99658000D03*
X119610000Y-100674000D03*
X121388000Y-101690000D03*
X119610000Y-102706000D03*
D13*
X109500000Y-56000000D03*
D18*
X109500000Y-63620000D03*
D13*
X125000000Y-65500000D03*
D18*
X125000000Y-73120000D03*
D13*
X116000000Y-54500000D03*
D18*
X123620000Y-54500000D03*
D13*
X116000000Y-58000000D03*
D18*
X123620000Y-58000000D03*
D13*
X121000000Y-65500000D03*
D18*
X121000000Y-73120000D03*
D13*
X113000000Y-56000000D03*
D18*
X113000000Y-63620000D03*
D13*
X116000000Y-51000000D03*
D18*
X123620000Y-51000000D03*
D13*
X108000000Y-81000000D03*
D18*
X108000000Y-88620000D03*
D13*
X126500000Y-77000000D03*
D18*
X118880000Y-77000000D03*
D13*
X104500000Y-81500000D03*
D18*
X104500000Y-89120000D03*
D13*
X119000000Y-84000000D03*
D18*
X126620000Y-84000000D03*
D13*
X119000000Y-80500000D03*
D18*
X126620000Y-80500000D03*
D13*
X116000000Y-62000000D03*
D18*
X123620000Y-62000000D03*
D13*
X119000000Y-87500000D03*
D18*
X126620000Y-87500000D03*
D13*
X111500000Y-89000000D03*
D18*
X111500000Y-81380000D03*
D13*
X94500000Y-51500000D03*
D18*
X102120000Y-51500000D03*
D13*
X115000000Y-89000000D03*
D18*
X115000000Y-81380000D03*
D13*
X95000000Y-78500000D03*
D18*
X95000000Y-86120000D03*
D19*
X105000000Y-53000000D03*
X107540000Y-50460000D03*
X110080000Y-53000000D03*
X105000000Y-94500000D03*
X107540000Y-91960000D03*
X110080000Y-94500000D03*
D20*
X96500000Y-68500000D03*
D21*
X96500000Y-71040000D03*
X96500000Y-73580000D03*
D13*
X97000000Y-106000000D03*
D18*
X97000000Y-98380000D03*
D13*
X101500000Y-106000000D03*
D18*
X101500000Y-98380000D03*
D22*
X89700000Y-73700000D03*
D23*
X86700000Y-69000000D03*
D24*
X92900000Y-69000000D03*
D25*
X107469900Y-72910400D03*
X100888500Y-83618300D03*
X101216500Y-54019700D03*
X122831900Y-80242500D03*
D26*
X86150000Y-98380000D02*
X86112000Y-98342000D01*
X123089400Y-80500000D02*
X122831900Y-80242500D01*
X126620000Y-80500000D02*
X123089400Y-80500000D01*
X107500000Y-81500000D02*
X108000000Y-81000000D01*
X104500000Y-81500000D02*
X107500000Y-81500000D01*
D27*
G36*
X106185236Y-50189291D02*
X106184765Y-50728344D01*
X106390617Y-51226543D01*
X106771452Y-51608043D01*
X107269291Y-51814764D01*
X107808344Y-51815235D01*
X108306543Y-51609383D01*
X108688043Y-51228548D01*
X108894764Y-50730709D01*
X108895235Y-50191656D01*
X108696218Y-49710000D01*
X115364286Y-49710000D01*
X115188200Y-49782757D01*
X114784176Y-50186077D01*
X114565250Y-50713309D01*
X114564752Y-51284187D01*
X114782757Y-51811800D01*
X115186077Y-52215824D01*
X115713309Y-52434750D01*
X116284187Y-52435248D01*
X116811800Y-52217243D01*
X117215824Y-51813923D01*
X117434750Y-51286691D01*
X117435248Y-50715813D01*
X117217243Y-50188200D01*
X116813923Y-49784176D01*
X116635287Y-49710000D01*
X122989207Y-49710000D01*
X122577189Y-49985302D01*
X122266120Y-50450849D01*
X122156887Y-51000000D01*
X122266120Y-51549151D01*
X122577189Y-52014698D01*
X123042736Y-52325767D01*
X123591887Y-52435000D01*
X123648113Y-52435000D01*
X124197264Y-52325767D01*
X124662811Y-52014698D01*
X124973880Y-51549151D01*
X125083113Y-51000000D01*
X124973880Y-50450849D01*
X124662811Y-49985302D01*
X124250793Y-49710000D01*
X127290000Y-49710000D01*
X127290000Y-75774242D01*
X126786691Y-75565250D01*
X126215813Y-75564752D01*
X125688200Y-75782757D01*
X125284176Y-76186077D01*
X125065250Y-76713309D01*
X125064752Y-77284187D01*
X125282757Y-77811800D01*
X125686077Y-78215824D01*
X126213309Y-78434750D01*
X126784187Y-78435248D01*
X127290000Y-78226251D01*
X127290000Y-79236197D01*
X127197264Y-79174233D01*
X126648113Y-79065000D01*
X126591887Y-79065000D01*
X126042736Y-79174233D01*
X125577189Y-79485302D01*
X125407005Y-79740000D01*
X123635943Y-79740000D01*
X123625017Y-79713557D01*
X123362227Y-79450308D01*
X123018699Y-79307662D01*
X122646733Y-79307338D01*
X122302957Y-79449383D01*
X122039708Y-79712173D01*
X121897062Y-80055701D01*
X121896738Y-80427667D01*
X122038783Y-80771443D01*
X122301573Y-81034692D01*
X122645101Y-81177338D01*
X122761582Y-81177439D01*
X122798561Y-81202148D01*
X123089400Y-81260000D01*
X125407005Y-81260000D01*
X125577189Y-81514698D01*
X126042736Y-81825767D01*
X126591887Y-81935000D01*
X126648113Y-81935000D01*
X127197264Y-81825767D01*
X127290000Y-81763803D01*
X127290000Y-82736197D01*
X127197264Y-82674233D01*
X126648113Y-82565000D01*
X126591887Y-82565000D01*
X126042736Y-82674233D01*
X125577189Y-82985302D01*
X125266120Y-83450849D01*
X125156887Y-84000000D01*
X125266120Y-84549151D01*
X125577189Y-85014698D01*
X126042736Y-85325767D01*
X126591887Y-85435000D01*
X126648113Y-85435000D01*
X127197264Y-85325767D01*
X127290000Y-85263803D01*
X127290000Y-86259990D01*
X126969041Y-86108086D01*
X126747000Y-86229371D01*
X126747000Y-87373000D01*
X126767000Y-87373000D01*
X126767000Y-87627000D01*
X126747000Y-87627000D01*
X126747000Y-88770629D01*
X126969041Y-88891914D01*
X127290000Y-88740010D01*
X127290000Y-107790000D01*
X121834996Y-107790000D01*
X121905261Y-107606964D01*
X121893851Y-107170950D01*
X122137801Y-107415326D01*
X122968366Y-107760207D01*
X123867688Y-107760992D01*
X124698854Y-107417561D01*
X125335326Y-106782199D01*
X125680207Y-105951634D01*
X125680992Y-105052312D01*
X125337561Y-104221146D01*
X124702199Y-103584674D01*
X123871634Y-103239793D01*
X122972312Y-103239008D01*
X122141146Y-103582439D01*
X121504674Y-104217801D01*
X121159793Y-105048366D01*
X121159024Y-105929891D01*
X121027480Y-105635343D01*
X120319964Y-105363739D01*
X119562368Y-105383564D01*
X118954520Y-105635343D01*
X118822828Y-105930223D01*
X119991000Y-107098395D01*
X120005143Y-107084253D01*
X120184748Y-107263858D01*
X120170605Y-107278000D01*
X120184748Y-107292143D01*
X120005143Y-107471748D01*
X119991000Y-107457605D01*
X119976858Y-107471748D01*
X119797253Y-107292143D01*
X119811395Y-107278000D01*
X118643223Y-106109828D01*
X118348343Y-106241520D01*
X118076739Y-106949036D01*
X118096564Y-107706632D01*
X118131096Y-107790000D01*
X89237831Y-107790000D01*
X89423261Y-107306964D01*
X89403436Y-106549368D01*
X89293595Y-106284187D01*
X95564752Y-106284187D01*
X95782757Y-106811800D01*
X96186077Y-107215824D01*
X96713309Y-107434750D01*
X97284187Y-107435248D01*
X97811800Y-107217243D01*
X98215824Y-106813923D01*
X98434750Y-106286691D01*
X98434752Y-106284187D01*
X100064752Y-106284187D01*
X100282757Y-106811800D01*
X100686077Y-107215824D01*
X101213309Y-107434750D01*
X101784187Y-107435248D01*
X102311800Y-107217243D01*
X102715824Y-106813923D01*
X102934750Y-106286691D01*
X102935248Y-105715813D01*
X102717243Y-105188200D01*
X102313923Y-104784176D01*
X101786691Y-104565250D01*
X101215813Y-104564752D01*
X100688200Y-104782757D01*
X100284176Y-105186077D01*
X100065250Y-105713309D01*
X100064752Y-106284187D01*
X98434752Y-106284187D01*
X98435248Y-105715813D01*
X98217243Y-105188200D01*
X97813923Y-104784176D01*
X97286691Y-104565250D01*
X96715813Y-104564752D01*
X96188200Y-104782757D01*
X95784176Y-105186077D01*
X95565250Y-105713309D01*
X95564752Y-106284187D01*
X89293595Y-106284187D01*
X89151657Y-105941520D01*
X88856777Y-105809828D01*
X87688605Y-106978000D01*
X87702748Y-106992143D01*
X87523143Y-107171748D01*
X87509000Y-107157605D01*
X87494858Y-107171748D01*
X87315253Y-106992143D01*
X87329395Y-106978000D01*
X87315253Y-106963858D01*
X87494858Y-106784253D01*
X87509000Y-106798395D01*
X88677172Y-105630223D01*
X88545480Y-105335343D01*
X87837964Y-105063739D01*
X87080368Y-105083564D01*
X86472520Y-105335343D01*
X86340829Y-105630221D01*
X86340226Y-105629618D01*
X86340992Y-104752312D01*
X85997561Y-103921146D01*
X85677824Y-103600850D01*
X85858273Y-103675779D01*
X86363510Y-103676220D01*
X86830458Y-103483282D01*
X87188026Y-103126337D01*
X87381779Y-102659727D01*
X87381871Y-102554142D01*
X87636273Y-102659779D01*
X88141510Y-102660220D01*
X88608458Y-102467282D01*
X88966026Y-102110337D01*
X89159779Y-101643727D01*
X89160220Y-101138490D01*
X88967282Y-100671542D01*
X88670053Y-100373794D01*
X88966026Y-100078337D01*
X89159779Y-99611727D01*
X89160220Y-99106490D01*
X88967282Y-98639542D01*
X88680129Y-98351887D01*
X95565000Y-98351887D01*
X95565000Y-98408113D01*
X95674233Y-98957264D01*
X95985302Y-99422811D01*
X96450849Y-99733880D01*
X97000000Y-99843113D01*
X97549151Y-99733880D01*
X98014698Y-99422811D01*
X98325767Y-98957264D01*
X98435000Y-98408113D01*
X98435000Y-98351887D01*
X100065000Y-98351887D01*
X100065000Y-98408113D01*
X100174233Y-98957264D01*
X100485302Y-99422811D01*
X100950849Y-99733880D01*
X101500000Y-99843113D01*
X102049151Y-99733880D01*
X102514698Y-99422811D01*
X102825767Y-98957264D01*
X102935000Y-98408113D01*
X102935000Y-98351887D01*
X102825767Y-97802736D01*
X102514698Y-97337189D01*
X102049151Y-97026120D01*
X101500000Y-96916887D01*
X100950849Y-97026120D01*
X100485302Y-97337189D01*
X100174233Y-97802736D01*
X100065000Y-98351887D01*
X98435000Y-98351887D01*
X98325767Y-97802736D01*
X98014698Y-97337189D01*
X97549151Y-97026120D01*
X97000000Y-96916887D01*
X96450849Y-97026120D01*
X95985302Y-97337189D01*
X95674233Y-97802736D01*
X95565000Y-98351887D01*
X88680129Y-98351887D01*
X88670053Y-98341794D01*
X88966026Y-98046337D01*
X89159779Y-97579727D01*
X89160220Y-97074490D01*
X89072219Y-96861510D01*
X118339780Y-96861510D01*
X118532718Y-97328458D01*
X118829947Y-97626206D01*
X118533974Y-97921663D01*
X118340221Y-98388273D01*
X118339780Y-98893510D01*
X118532718Y-99360458D01*
X118829947Y-99658206D01*
X118533974Y-99953663D01*
X118340221Y-100420273D01*
X118339780Y-100925510D01*
X118532718Y-101392458D01*
X118829947Y-101690206D01*
X118533974Y-101985663D01*
X118340221Y-102452273D01*
X118339780Y-102957510D01*
X118532718Y-103424458D01*
X118889663Y-103782026D01*
X119356273Y-103975779D01*
X119861510Y-103976220D01*
X120328458Y-103783282D01*
X120686026Y-103426337D01*
X120879779Y-102959727D01*
X120879871Y-102854142D01*
X121134273Y-102959779D01*
X121639510Y-102960220D01*
X122106458Y-102767282D01*
X122464026Y-102410337D01*
X122657779Y-101943727D01*
X122658220Y-101438490D01*
X122465282Y-100971542D01*
X122168053Y-100673794D01*
X122464026Y-100378337D01*
X122657779Y-99911727D01*
X122658220Y-99406490D01*
X122465282Y-98939542D01*
X122168053Y-98641794D01*
X122464026Y-98346337D01*
X122657779Y-97879727D01*
X122658220Y-97374490D01*
X122465282Y-96907542D01*
X122168053Y-96609794D01*
X122464026Y-96314337D01*
X122657779Y-95847727D01*
X122658220Y-95342490D01*
X122465282Y-94875542D01*
X122423963Y-94834151D01*
X122968366Y-95060207D01*
X123867688Y-95060992D01*
X124698854Y-94717561D01*
X125335326Y-94082199D01*
X125680207Y-93251634D01*
X125680992Y-92352312D01*
X125337561Y-91521146D01*
X124702199Y-90884674D01*
X123871634Y-90539793D01*
X122972312Y-90539008D01*
X122141146Y-90882439D01*
X121899318Y-91123846D01*
X121885436Y-90593368D01*
X121633657Y-89985520D01*
X121338777Y-89853828D01*
X120170605Y-91022000D01*
X120184748Y-91036143D01*
X120005143Y-91215748D01*
X119991000Y-91201605D01*
X118822828Y-92369777D01*
X118954520Y-92664657D01*
X119662036Y-92936261D01*
X120419632Y-92916436D01*
X121027480Y-92664657D01*
X121159171Y-92369779D01*
X121159774Y-92370382D01*
X121159008Y-93247688D01*
X121502439Y-94078854D01*
X121822176Y-94399150D01*
X121641727Y-94324221D01*
X121136490Y-94323780D01*
X120669542Y-94516718D01*
X120311974Y-94873663D01*
X120118221Y-95340273D01*
X120118129Y-95445858D01*
X119863727Y-95340221D01*
X119358490Y-95339780D01*
X118891542Y-95532718D01*
X118533974Y-95889663D01*
X118340221Y-96356273D01*
X118339780Y-96861510D01*
X89072219Y-96861510D01*
X88967282Y-96607542D01*
X88670053Y-96309794D01*
X88966026Y-96014337D01*
X89159779Y-95547727D01*
X89160220Y-95042490D01*
X89046946Y-94768344D01*
X103644765Y-94768344D01*
X103850617Y-95266543D01*
X104231452Y-95648043D01*
X104729291Y-95854764D01*
X105268344Y-95855235D01*
X105766543Y-95649383D01*
X106148043Y-95268548D01*
X106354764Y-94770709D01*
X106354766Y-94768344D01*
X108724765Y-94768344D01*
X108930617Y-95266543D01*
X109311452Y-95648043D01*
X109809291Y-95854764D01*
X110348344Y-95855235D01*
X110846543Y-95649383D01*
X111228043Y-95268548D01*
X111434764Y-94770709D01*
X111435235Y-94231656D01*
X111229383Y-93733457D01*
X110848548Y-93351957D01*
X110350709Y-93145236D01*
X109811656Y-93144765D01*
X109313457Y-93350617D01*
X108931957Y-93731452D01*
X108725236Y-94229291D01*
X108724765Y-94768344D01*
X106354766Y-94768344D01*
X106355235Y-94231656D01*
X106149383Y-93733457D01*
X105768548Y-93351957D01*
X105270709Y-93145236D01*
X104731656Y-93144765D01*
X104233457Y-93350617D01*
X103851957Y-93731452D01*
X103645236Y-94229291D01*
X103644765Y-94768344D01*
X89046946Y-94768344D01*
X88967282Y-94575542D01*
X88610337Y-94217974D01*
X88143727Y-94024221D01*
X87638490Y-94023780D01*
X87171542Y-94216718D01*
X86813974Y-94573663D01*
X86620221Y-95040273D01*
X86620129Y-95145858D01*
X86365727Y-95040221D01*
X85860490Y-95039780D01*
X85393542Y-95232718D01*
X85035974Y-95589663D01*
X84842221Y-96056273D01*
X84841780Y-96561510D01*
X85034718Y-97028458D01*
X85331947Y-97326206D01*
X85035974Y-97621663D01*
X84842221Y-98088273D01*
X84841780Y-98593510D01*
X85034718Y-99060458D01*
X85331947Y-99358206D01*
X85035974Y-99653663D01*
X84842221Y-100120273D01*
X84841780Y-100625510D01*
X85034718Y-101092458D01*
X85331947Y-101390206D01*
X85035974Y-101685663D01*
X84842221Y-102152273D01*
X84841780Y-102657510D01*
X85034718Y-103124458D01*
X85076037Y-103165849D01*
X84531634Y-102939793D01*
X83632312Y-102939008D01*
X82801146Y-103282439D01*
X82164674Y-103917801D01*
X81819793Y-104748366D01*
X81819008Y-105647688D01*
X82162439Y-106478854D01*
X82797801Y-107115326D01*
X83628366Y-107460207D01*
X84527688Y-107460992D01*
X85358854Y-107117561D01*
X85600682Y-106876154D01*
X85614564Y-107406632D01*
X85773360Y-107790000D01*
X79710000Y-107790000D01*
X79710000Y-92947688D01*
X81819008Y-92947688D01*
X82162439Y-93778854D01*
X82797801Y-94415326D01*
X83628366Y-94760207D01*
X84527688Y-94760992D01*
X85358854Y-94417561D01*
X85995326Y-93782199D01*
X86340207Y-92951634D01*
X86340976Y-92070109D01*
X86472520Y-92364657D01*
X87180036Y-92636261D01*
X87937632Y-92616436D01*
X88545480Y-92364657D01*
X88677172Y-92069777D01*
X87509000Y-90901605D01*
X87494858Y-90915748D01*
X87315253Y-90736143D01*
X87329395Y-90722000D01*
X87688605Y-90722000D01*
X88856777Y-91890172D01*
X89094094Y-91784187D01*
X98564752Y-91784187D01*
X98782757Y-92311800D01*
X99186077Y-92715824D01*
X99713309Y-92934750D01*
X100284187Y-92935248D01*
X100811800Y-92717243D01*
X101215824Y-92313923D01*
X101249813Y-92232069D01*
X101282757Y-92311800D01*
X101686077Y-92715824D01*
X102213309Y-92934750D01*
X102784187Y-92935248D01*
X103311800Y-92717243D01*
X103715824Y-92313923D01*
X103751359Y-92228344D01*
X106184765Y-92228344D01*
X106390617Y-92726543D01*
X106771452Y-93108043D01*
X107269291Y-93314764D01*
X107808344Y-93315235D01*
X108306543Y-93109383D01*
X108688043Y-92728548D01*
X108894764Y-92230709D01*
X108895235Y-91691656D01*
X108689383Y-91193457D01*
X108308548Y-90811957D01*
X108022155Y-90693036D01*
X118076739Y-90693036D01*
X118096564Y-91450632D01*
X118348343Y-92058480D01*
X118643223Y-92190172D01*
X119811395Y-91022000D01*
X118643223Y-89853828D01*
X118348343Y-89985520D01*
X118076739Y-90693036D01*
X108022155Y-90693036D01*
X107810709Y-90605236D01*
X107271656Y-90604765D01*
X106773457Y-90810617D01*
X106391957Y-91191452D01*
X106185236Y-91689291D01*
X106184765Y-92228344D01*
X103751359Y-92228344D01*
X103934750Y-91786691D01*
X103935248Y-91215813D01*
X103717243Y-90688200D01*
X103313923Y-90284176D01*
X102786691Y-90065250D01*
X102215813Y-90064752D01*
X101688200Y-90282757D01*
X101284176Y-90686077D01*
X101250187Y-90767931D01*
X101217243Y-90688200D01*
X100813923Y-90284176D01*
X100286691Y-90065250D01*
X99715813Y-90064752D01*
X99188200Y-90282757D01*
X98784176Y-90686077D01*
X98565250Y-91213309D01*
X98564752Y-91784187D01*
X89094094Y-91784187D01*
X89151657Y-91758480D01*
X89423261Y-91050964D01*
X89403436Y-90293368D01*
X89151657Y-89685520D01*
X88856777Y-89553828D01*
X87688605Y-90722000D01*
X87329395Y-90722000D01*
X86161223Y-89553828D01*
X85866343Y-89685520D01*
X85594739Y-90393036D01*
X85606149Y-90829050D01*
X85362199Y-90584674D01*
X84531634Y-90239793D01*
X83632312Y-90239008D01*
X82801146Y-90582439D01*
X82164674Y-91217801D01*
X81819793Y-92048366D01*
X81819008Y-92947688D01*
X79710000Y-92947688D01*
X79710000Y-89374223D01*
X86340828Y-89374223D01*
X87509000Y-90542395D01*
X88677172Y-89374223D01*
X88551083Y-89091887D01*
X103065000Y-89091887D01*
X103065000Y-89148113D01*
X103174233Y-89697264D01*
X103485302Y-90162811D01*
X103950849Y-90473880D01*
X104500000Y-90583113D01*
X105049151Y-90473880D01*
X105514698Y-90162811D01*
X105825767Y-89697264D01*
X105935000Y-89148113D01*
X105935000Y-89091887D01*
X105835544Y-88591887D01*
X106565000Y-88591887D01*
X106565000Y-88648113D01*
X106674233Y-89197264D01*
X106985302Y-89662811D01*
X107450849Y-89973880D01*
X108000000Y-90083113D01*
X108549151Y-89973880D01*
X109014698Y-89662811D01*
X109267686Y-89284187D01*
X110064752Y-89284187D01*
X110282757Y-89811800D01*
X110686077Y-90215824D01*
X111213309Y-90434750D01*
X111784187Y-90435248D01*
X112311800Y-90217243D01*
X112715824Y-89813923D01*
X112934750Y-89286691D01*
X112934752Y-89284187D01*
X113564752Y-89284187D01*
X113782757Y-89811800D01*
X114186077Y-90215824D01*
X114713309Y-90434750D01*
X115284187Y-90435248D01*
X115811800Y-90217243D01*
X116215824Y-89813923D01*
X116273832Y-89674223D01*
X118822828Y-89674223D01*
X119991000Y-90842395D01*
X121159172Y-89674223D01*
X121027480Y-89379343D01*
X120319964Y-89107739D01*
X119562368Y-89127564D01*
X118954520Y-89379343D01*
X118822828Y-89674223D01*
X116273832Y-89674223D01*
X116434750Y-89286691D01*
X116435248Y-88715813D01*
X116217243Y-88188200D01*
X115813934Y-87784187D01*
X117564752Y-87784187D01*
X117782757Y-88311800D01*
X118186077Y-88715824D01*
X118713309Y-88934750D01*
X119284187Y-88935248D01*
X119811800Y-88717243D01*
X120215824Y-88313923D01*
X120408860Y-87849039D01*
X125228096Y-87849039D01*
X125388959Y-88237423D01*
X125764866Y-88652389D01*
X126270959Y-88891914D01*
X126493000Y-88770629D01*
X126493000Y-87627000D01*
X125350085Y-87627000D01*
X125228096Y-87849039D01*
X120408860Y-87849039D01*
X120434750Y-87786691D01*
X120435248Y-87215813D01*
X120408452Y-87150961D01*
X125228096Y-87150961D01*
X125350085Y-87373000D01*
X126493000Y-87373000D01*
X126493000Y-86229371D01*
X126270959Y-86108086D01*
X125764866Y-86347611D01*
X125388959Y-86762577D01*
X125228096Y-87150961D01*
X120408452Y-87150961D01*
X120217243Y-86688200D01*
X119813923Y-86284176D01*
X119286691Y-86065250D01*
X118715813Y-86064752D01*
X118188200Y-86282757D01*
X117784176Y-86686077D01*
X117565250Y-87213309D01*
X117564752Y-87784187D01*
X115813934Y-87784187D01*
X115813923Y-87784176D01*
X115286691Y-87565250D01*
X114715813Y-87564752D01*
X114188200Y-87782757D01*
X113784176Y-88186077D01*
X113565250Y-88713309D01*
X113564752Y-89284187D01*
X112934752Y-89284187D01*
X112935248Y-88715813D01*
X112717243Y-88188200D01*
X112313923Y-87784176D01*
X111786691Y-87565250D01*
X111215813Y-87564752D01*
X110688200Y-87782757D01*
X110284176Y-88186077D01*
X110065250Y-88713309D01*
X110064752Y-89284187D01*
X109267686Y-89284187D01*
X109325767Y-89197264D01*
X109435000Y-88648113D01*
X109435000Y-88591887D01*
X109325767Y-88042736D01*
X109014698Y-87577189D01*
X108549151Y-87266120D01*
X108000000Y-87156887D01*
X107450849Y-87266120D01*
X106985302Y-87577189D01*
X106674233Y-88042736D01*
X106565000Y-88591887D01*
X105835544Y-88591887D01*
X105825767Y-88542736D01*
X105514698Y-88077189D01*
X105049151Y-87766120D01*
X104500000Y-87656887D01*
X103950849Y-87766120D01*
X103485302Y-88077189D01*
X103174233Y-88542736D01*
X103065000Y-89091887D01*
X88551083Y-89091887D01*
X88545480Y-89079343D01*
X87837964Y-88807739D01*
X87080368Y-88827564D01*
X86472520Y-89079343D01*
X86340828Y-89374223D01*
X79710000Y-89374223D01*
X79710000Y-86526661D01*
X81602758Y-86526661D01*
X81814990Y-87040303D01*
X82207630Y-87433629D01*
X82720900Y-87646757D01*
X83276661Y-87647242D01*
X83790303Y-87435010D01*
X84183629Y-87042370D01*
X84396757Y-86529100D01*
X84397138Y-86091887D01*
X93565000Y-86091887D01*
X93565000Y-86148113D01*
X93674233Y-86697264D01*
X93985302Y-87162811D01*
X94450849Y-87473880D01*
X95000000Y-87583113D01*
X95549151Y-87473880D01*
X96014698Y-87162811D01*
X96325767Y-86697264D01*
X96435000Y-86148113D01*
X96435000Y-86091887D01*
X96325767Y-85542736D01*
X96014698Y-85077189D01*
X95549151Y-84766120D01*
X95000000Y-84656887D01*
X94450849Y-84766120D01*
X93985302Y-85077189D01*
X93674233Y-85542736D01*
X93565000Y-86091887D01*
X84397138Y-86091887D01*
X84397242Y-85973339D01*
X84185010Y-85459697D01*
X83792370Y-85066371D01*
X83279100Y-84853243D01*
X82723339Y-84852758D01*
X82209697Y-85064990D01*
X81816371Y-85457630D01*
X81603243Y-85970900D01*
X81602758Y-86526661D01*
X79710000Y-86526661D01*
X79710000Y-82785750D01*
X81365000Y-82785750D01*
X81365000Y-84126309D01*
X81461673Y-84359698D01*
X81640301Y-84538327D01*
X81873690Y-84635000D01*
X82714250Y-84635000D01*
X82873000Y-84476250D01*
X82873000Y-82627000D01*
X83127000Y-82627000D01*
X83127000Y-84476250D01*
X83285750Y-84635000D01*
X84126310Y-84635000D01*
X84359699Y-84538327D01*
X84538327Y-84359698D01*
X84569604Y-84284187D01*
X117564752Y-84284187D01*
X117782757Y-84811800D01*
X118186077Y-85215824D01*
X118713309Y-85434750D01*
X119284187Y-85435248D01*
X119811800Y-85217243D01*
X120215824Y-84813923D01*
X120434750Y-84286691D01*
X120435248Y-83715813D01*
X120217243Y-83188200D01*
X119813923Y-82784176D01*
X119286691Y-82565250D01*
X118715813Y-82564752D01*
X118188200Y-82782757D01*
X117784176Y-83186077D01*
X117565250Y-83713309D01*
X117564752Y-84284187D01*
X84569604Y-84284187D01*
X84635000Y-84126309D01*
X84635000Y-82785750D01*
X84633437Y-82784187D01*
X88064752Y-82784187D01*
X88282757Y-83311800D01*
X88686077Y-83715824D01*
X89213309Y-83934750D01*
X89784187Y-83935248D01*
X90311800Y-83717243D01*
X90715824Y-83313923D01*
X90934750Y-82786691D01*
X90935248Y-82215813D01*
X90756904Y-81784187D01*
X103064752Y-81784187D01*
X103282757Y-82311800D01*
X103686077Y-82715824D01*
X104213309Y-82934750D01*
X104784187Y-82935248D01*
X105311800Y-82717243D01*
X105715824Y-82313923D01*
X105738215Y-82260000D01*
X107292465Y-82260000D01*
X107713309Y-82434750D01*
X108284187Y-82435248D01*
X108811800Y-82217243D01*
X109215824Y-81813923D01*
X109407678Y-81351887D01*
X110065000Y-81351887D01*
X110065000Y-81408113D01*
X110174233Y-81957264D01*
X110485302Y-82422811D01*
X110950849Y-82733880D01*
X111500000Y-82843113D01*
X112049151Y-82733880D01*
X112514698Y-82422811D01*
X112825767Y-81957264D01*
X112935000Y-81408113D01*
X112935000Y-81351887D01*
X113565000Y-81351887D01*
X113565000Y-81408113D01*
X113674233Y-81957264D01*
X113985302Y-82422811D01*
X114450849Y-82733880D01*
X115000000Y-82843113D01*
X115549151Y-82733880D01*
X116014698Y-82422811D01*
X116325767Y-81957264D01*
X116435000Y-81408113D01*
X116435000Y-81351887D01*
X116325767Y-80802736D01*
X116313373Y-80784187D01*
X117564752Y-80784187D01*
X117782757Y-81311800D01*
X118186077Y-81715824D01*
X118713309Y-81934750D01*
X119284187Y-81935248D01*
X119811800Y-81717243D01*
X120215824Y-81313923D01*
X120434750Y-80786691D01*
X120435248Y-80215813D01*
X120217243Y-79688200D01*
X119813923Y-79284176D01*
X119286691Y-79065250D01*
X118715813Y-79064752D01*
X118188200Y-79282757D01*
X117784176Y-79686077D01*
X117565250Y-80213309D01*
X117564752Y-80784187D01*
X116313373Y-80784187D01*
X116014698Y-80337189D01*
X115549151Y-80026120D01*
X115000000Y-79916887D01*
X114450849Y-80026120D01*
X113985302Y-80337189D01*
X113674233Y-80802736D01*
X113565000Y-81351887D01*
X112935000Y-81351887D01*
X112825767Y-80802736D01*
X112514698Y-80337189D01*
X112049151Y-80026120D01*
X111500000Y-79916887D01*
X110950849Y-80026120D01*
X110485302Y-80337189D01*
X110174233Y-80802736D01*
X110065000Y-81351887D01*
X109407678Y-81351887D01*
X109434750Y-81286691D01*
X109435248Y-80715813D01*
X109217243Y-80188200D01*
X108813923Y-79784176D01*
X108286691Y-79565250D01*
X107715813Y-79564752D01*
X107188200Y-79782757D01*
X106784176Y-80186077D01*
X106565250Y-80713309D01*
X106565227Y-80740000D01*
X105738646Y-80740000D01*
X105717243Y-80688200D01*
X105313923Y-80284176D01*
X104786691Y-80065250D01*
X104215813Y-80064752D01*
X103688200Y-80282757D01*
X103284176Y-80686077D01*
X103065250Y-81213309D01*
X103064752Y-81784187D01*
X90756904Y-81784187D01*
X90717243Y-81688200D01*
X90313923Y-81284176D01*
X89786691Y-81065250D01*
X89215813Y-81064752D01*
X88688200Y-81282757D01*
X88284176Y-81686077D01*
X88065250Y-82213309D01*
X88064752Y-82784187D01*
X84633437Y-82784187D01*
X84476250Y-82627000D01*
X83127000Y-82627000D01*
X82873000Y-82627000D01*
X81523750Y-82627000D01*
X81365000Y-82785750D01*
X79710000Y-82785750D01*
X79710000Y-80873691D01*
X81365000Y-80873691D01*
X81365000Y-82214250D01*
X81523750Y-82373000D01*
X82873000Y-82373000D01*
X82873000Y-80523750D01*
X83127000Y-80523750D01*
X83127000Y-82373000D01*
X84476250Y-82373000D01*
X84635000Y-82214250D01*
X84635000Y-80873691D01*
X84538327Y-80640302D01*
X84359699Y-80461673D01*
X84126310Y-80365000D01*
X83285750Y-80365000D01*
X83127000Y-80523750D01*
X82873000Y-80523750D01*
X82714250Y-80365000D01*
X81873690Y-80365000D01*
X81640301Y-80461673D01*
X81461673Y-80640302D01*
X81365000Y-80873691D01*
X79710000Y-80873691D01*
X79710000Y-79026661D01*
X81602758Y-79026661D01*
X81814990Y-79540303D01*
X82207630Y-79933629D01*
X82720900Y-80146757D01*
X83276661Y-80147242D01*
X83790303Y-79935010D01*
X84183629Y-79542370D01*
X84396757Y-79029100D01*
X84396970Y-78784187D01*
X93564752Y-78784187D01*
X93782757Y-79311800D01*
X94186077Y-79715824D01*
X94713309Y-79934750D01*
X95284187Y-79935248D01*
X95811800Y-79717243D01*
X96215824Y-79313923D01*
X96434750Y-78786691D01*
X96435248Y-78215813D01*
X96217243Y-77688200D01*
X95813923Y-77284176D01*
X95286691Y-77065250D01*
X94715813Y-77064752D01*
X94188200Y-77282757D01*
X93784176Y-77686077D01*
X93565250Y-78213309D01*
X93564752Y-78784187D01*
X84396970Y-78784187D01*
X84397242Y-78473339D01*
X84185010Y-77959697D01*
X83792370Y-77566371D01*
X83279100Y-77353243D01*
X82723339Y-77352758D01*
X82209697Y-77564990D01*
X81816371Y-77957630D01*
X81603243Y-78470900D01*
X81602758Y-79026661D01*
X79710000Y-79026661D01*
X79710000Y-76450000D01*
X88852560Y-76450000D01*
X88852560Y-77950000D01*
X88896838Y-78185317D01*
X89035910Y-78401441D01*
X89248110Y-78546431D01*
X89500000Y-78597440D01*
X92500000Y-78597440D01*
X92735317Y-78553162D01*
X92951441Y-78414090D01*
X93096431Y-78201890D01*
X93147440Y-77950000D01*
X93147440Y-76450000D01*
X93103162Y-76214683D01*
X92964090Y-75998559D01*
X92751890Y-75853569D01*
X92500000Y-75802560D01*
X89500000Y-75802560D01*
X89264683Y-75846838D01*
X89048559Y-75985910D01*
X88903569Y-76198110D01*
X88852560Y-76450000D01*
X79710000Y-76450000D01*
X79710000Y-75284187D01*
X99564752Y-75284187D01*
X99782757Y-75811800D01*
X100186077Y-76215824D01*
X100713309Y-76434750D01*
X101284187Y-76435248D01*
X101811800Y-76217243D01*
X102021663Y-76007745D01*
X102671861Y-76007745D01*
X102745995Y-76253864D01*
X103283223Y-76446965D01*
X103853454Y-76419778D01*
X104254005Y-76253864D01*
X104328139Y-76007745D01*
X103500000Y-75179605D01*
X102671861Y-76007745D01*
X102021663Y-76007745D01*
X102215824Y-75813923D01*
X102243423Y-75747456D01*
X102246136Y-75754005D01*
X102492255Y-75828139D01*
X103320395Y-75000000D01*
X103679605Y-75000000D01*
X104507745Y-75828139D01*
X104753864Y-75754005D01*
X104773275Y-75700000D01*
X110052560Y-75700000D01*
X110052560Y-77300000D01*
X110096838Y-77535317D01*
X110235910Y-77751441D01*
X110448110Y-77896431D01*
X110700000Y-77947440D01*
X112300000Y-77947440D01*
X112535317Y-77903162D01*
X112751441Y-77764090D01*
X112896431Y-77551890D01*
X112905370Y-77507745D01*
X113171861Y-77507745D01*
X113245995Y-77753864D01*
X113783223Y-77946965D01*
X114353454Y-77919778D01*
X114754005Y-77753864D01*
X114828139Y-77507745D01*
X114000000Y-76679605D01*
X113171861Y-77507745D01*
X112905370Y-77507745D01*
X112944646Y-77313799D01*
X112992255Y-77328139D01*
X113820395Y-76500000D01*
X114179605Y-76500000D01*
X115007745Y-77328139D01*
X115253864Y-77254005D01*
X115345163Y-77000000D01*
X117416887Y-77000000D01*
X117526120Y-77549151D01*
X117837189Y-78014698D01*
X118302736Y-78325767D01*
X118851887Y-78435000D01*
X118908113Y-78435000D01*
X119457264Y-78325767D01*
X119922811Y-78014698D01*
X120233880Y-77549151D01*
X120343113Y-77000000D01*
X120233880Y-76450849D01*
X119922811Y-75985302D01*
X119457264Y-75674233D01*
X118908113Y-75565000D01*
X118851887Y-75565000D01*
X118302736Y-75674233D01*
X117837189Y-75985302D01*
X117526120Y-76450849D01*
X117416887Y-77000000D01*
X115345163Y-77000000D01*
X115446965Y-76716777D01*
X115419778Y-76146546D01*
X115253864Y-75745995D01*
X115007745Y-75671861D01*
X114179605Y-76500000D01*
X113820395Y-76500000D01*
X112992255Y-75671861D01*
X112944833Y-75686145D01*
X112908351Y-75492255D01*
X113171861Y-75492255D01*
X114000000Y-76320395D01*
X114828139Y-75492255D01*
X114754005Y-75246136D01*
X114216777Y-75053035D01*
X113646546Y-75080222D01*
X113245995Y-75246136D01*
X113171861Y-75492255D01*
X112908351Y-75492255D01*
X112903162Y-75464683D01*
X112764090Y-75248559D01*
X112551890Y-75103569D01*
X112300000Y-75052560D01*
X110700000Y-75052560D01*
X110464683Y-75096838D01*
X110248559Y-75235910D01*
X110103569Y-75448110D01*
X110052560Y-75700000D01*
X104773275Y-75700000D01*
X104946965Y-75216777D01*
X104919778Y-74646546D01*
X104753864Y-74245995D01*
X104507745Y-74171861D01*
X103679605Y-75000000D01*
X103320395Y-75000000D01*
X102492255Y-74171861D01*
X102246136Y-74245995D01*
X102243804Y-74252483D01*
X102217243Y-74188200D01*
X102021640Y-73992255D01*
X102671861Y-73992255D01*
X103500000Y-74820395D01*
X104328139Y-73992255D01*
X104254005Y-73746136D01*
X103716777Y-73553035D01*
X103146546Y-73580222D01*
X102745995Y-73746136D01*
X102671861Y-73992255D01*
X102021640Y-73992255D01*
X101813923Y-73784176D01*
X101286691Y-73565250D01*
X100715813Y-73564752D01*
X100188200Y-73782757D01*
X99784176Y-74186077D01*
X99565250Y-74713309D01*
X99564752Y-75284187D01*
X79710000Y-75284187D01*
X79710000Y-73985750D01*
X87465000Y-73985750D01*
X87465000Y-74576310D01*
X87561673Y-74809699D01*
X87740302Y-74988327D01*
X87973691Y-75085000D01*
X89414250Y-75085000D01*
X89573000Y-74926250D01*
X89573000Y-73827000D01*
X89827000Y-73827000D01*
X89827000Y-74926250D01*
X89985750Y-75085000D01*
X91426309Y-75085000D01*
X91659698Y-74988327D01*
X91838327Y-74809699D01*
X91935000Y-74576310D01*
X91935000Y-73985750D01*
X91776250Y-73827000D01*
X89827000Y-73827000D01*
X89573000Y-73827000D01*
X87623750Y-73827000D01*
X87465000Y-73985750D01*
X79710000Y-73985750D01*
X79710000Y-72823690D01*
X87465000Y-72823690D01*
X87465000Y-73414250D01*
X87623750Y-73573000D01*
X89573000Y-73573000D01*
X89573000Y-72473750D01*
X89827000Y-72473750D01*
X89827000Y-73573000D01*
X91776250Y-73573000D01*
X91799322Y-73549928D01*
X94965000Y-73549928D01*
X94965000Y-73610072D01*
X95081845Y-74197491D01*
X95414591Y-74695481D01*
X95912581Y-75028227D01*
X96500000Y-75145072D01*
X97087419Y-75028227D01*
X97585409Y-74695481D01*
X97918155Y-74197491D01*
X98035000Y-73610072D01*
X98035000Y-73549928D01*
X97918155Y-72962509D01*
X97585409Y-72464519D01*
X97347418Y-72305499D01*
X97672312Y-72007745D01*
X100671861Y-72007745D01*
X100745995Y-72253864D01*
X101283223Y-72446965D01*
X101853454Y-72419778D01*
X102254005Y-72253864D01*
X102328139Y-72007745D01*
X101500000Y-71179605D01*
X100671861Y-72007745D01*
X97672312Y-72007745D01*
X97737966Y-71947576D01*
X97991046Y-71404742D01*
X97870997Y-71167000D01*
X96627000Y-71167000D01*
X96627000Y-71187000D01*
X96373000Y-71187000D01*
X96373000Y-71167000D01*
X95129003Y-71167000D01*
X95008954Y-71404742D01*
X95262034Y-71947576D01*
X95652582Y-72305499D01*
X95414591Y-72464519D01*
X95081845Y-72962509D01*
X94965000Y-73549928D01*
X91799322Y-73549928D01*
X91935000Y-73414250D01*
X91935000Y-72823690D01*
X91838327Y-72590301D01*
X91659698Y-72411673D01*
X91426309Y-72315000D01*
X89985750Y-72315000D01*
X89827000Y-72473750D01*
X89573000Y-72473750D01*
X89414250Y-72315000D01*
X87973691Y-72315000D01*
X87740302Y-72411673D01*
X87561673Y-72590301D01*
X87465000Y-72823690D01*
X79710000Y-72823690D01*
X79710000Y-69285750D01*
X85315000Y-69285750D01*
X85315000Y-70726310D01*
X85411673Y-70959699D01*
X85590302Y-71138327D01*
X85823691Y-71235000D01*
X86414250Y-71235000D01*
X86573000Y-71076250D01*
X86573000Y-69127000D01*
X86827000Y-69127000D01*
X86827000Y-71076250D01*
X86985750Y-71235000D01*
X87576309Y-71235000D01*
X87809698Y-71138327D01*
X87988327Y-70959699D01*
X88085000Y-70726310D01*
X88085000Y-69285750D01*
X87926250Y-69127000D01*
X86827000Y-69127000D01*
X86573000Y-69127000D01*
X85473750Y-69127000D01*
X85315000Y-69285750D01*
X79710000Y-69285750D01*
X79710000Y-67273690D01*
X85315000Y-67273690D01*
X85315000Y-68714250D01*
X85473750Y-68873000D01*
X86573000Y-68873000D01*
X86573000Y-66923750D01*
X86827000Y-66923750D01*
X86827000Y-68873000D01*
X87926250Y-68873000D01*
X88085000Y-68714250D01*
X88085000Y-67273690D01*
X88075188Y-67250000D01*
X91502560Y-67250000D01*
X91502560Y-70750000D01*
X91546838Y-70985317D01*
X91685910Y-71201441D01*
X91898110Y-71346431D01*
X92150000Y-71397440D01*
X93650000Y-71397440D01*
X93885317Y-71353162D01*
X94101441Y-71214090D01*
X94246431Y-71001890D01*
X94297440Y-70750000D01*
X94297440Y-67600000D01*
X94952560Y-67600000D01*
X94952560Y-69400000D01*
X94996838Y-69635317D01*
X95135910Y-69851441D01*
X95348110Y-69996431D01*
X95399146Y-70006766D01*
X95262034Y-70132424D01*
X95008954Y-70675258D01*
X95129003Y-70913000D01*
X96373000Y-70913000D01*
X96373000Y-70893000D01*
X96627000Y-70893000D01*
X96627000Y-70913000D01*
X97870997Y-70913000D01*
X97936528Y-70783223D01*
X100053035Y-70783223D01*
X100080222Y-71353454D01*
X100246136Y-71754005D01*
X100492255Y-71828139D01*
X101320395Y-71000000D01*
X101679605Y-71000000D01*
X102507745Y-71828139D01*
X102753864Y-71754005D01*
X102946965Y-71216777D01*
X102919778Y-70646546D01*
X102753864Y-70245995D01*
X102507745Y-70171861D01*
X101679605Y-71000000D01*
X101320395Y-71000000D01*
X100492255Y-70171861D01*
X100246136Y-70245995D01*
X100053035Y-70783223D01*
X97936528Y-70783223D01*
X97991046Y-70675258D01*
X97737966Y-70132424D01*
X97603462Y-70009156D01*
X97635317Y-70003162D01*
X97851441Y-69864090D01*
X97996431Y-69651890D01*
X98047440Y-69400000D01*
X98047440Y-68784187D01*
X100064752Y-68784187D01*
X100282757Y-69311800D01*
X100686077Y-69715824D01*
X100752544Y-69743423D01*
X100745995Y-69746136D01*
X100671861Y-69992255D01*
X101500000Y-70820395D01*
X102328139Y-69992255D01*
X102254005Y-69746136D01*
X102247517Y-69743804D01*
X102311800Y-69717243D01*
X102715824Y-69313923D01*
X102934750Y-68786691D01*
X102935188Y-68284187D01*
X105064752Y-68284187D01*
X105282757Y-68811800D01*
X105686077Y-69215824D01*
X106213309Y-69434750D01*
X106784187Y-69435248D01*
X107311800Y-69217243D01*
X107576187Y-68953317D01*
X107661673Y-69159699D01*
X107840302Y-69338327D01*
X108073691Y-69435000D01*
X108714250Y-69435000D01*
X108873000Y-69276250D01*
X108873000Y-68127000D01*
X109127000Y-68127000D01*
X109127000Y-69276250D01*
X109285750Y-69435000D01*
X109926309Y-69435000D01*
X110159698Y-69338327D01*
X110338327Y-69159699D01*
X110435000Y-68926310D01*
X110435000Y-68700000D01*
X112552560Y-68700000D01*
X112552560Y-70300000D01*
X112596838Y-70535317D01*
X112735910Y-70751441D01*
X112948110Y-70896431D01*
X113053041Y-70917680D01*
X112784176Y-71186077D01*
X112565250Y-71713309D01*
X112564752Y-72284187D01*
X112782757Y-72811800D01*
X113186077Y-73215824D01*
X113713309Y-73434750D01*
X114284187Y-73435248D01*
X114811800Y-73217243D01*
X114937374Y-73091887D01*
X119565000Y-73091887D01*
X119565000Y-73148113D01*
X119674233Y-73697264D01*
X119985302Y-74162811D01*
X120450849Y-74473880D01*
X121000000Y-74583113D01*
X121549151Y-74473880D01*
X122014698Y-74162811D01*
X122325767Y-73697264D01*
X122435000Y-73148113D01*
X122435000Y-73091887D01*
X123565000Y-73091887D01*
X123565000Y-73148113D01*
X123674233Y-73697264D01*
X123985302Y-74162811D01*
X124450849Y-74473880D01*
X125000000Y-74583113D01*
X125549151Y-74473880D01*
X126014698Y-74162811D01*
X126325767Y-73697264D01*
X126435000Y-73148113D01*
X126435000Y-73091887D01*
X126325767Y-72542736D01*
X126014698Y-72077189D01*
X125549151Y-71766120D01*
X125000000Y-71656887D01*
X124450849Y-71766120D01*
X123985302Y-72077189D01*
X123674233Y-72542736D01*
X123565000Y-73091887D01*
X122435000Y-73091887D01*
X122325767Y-72542736D01*
X122014698Y-72077189D01*
X121549151Y-71766120D01*
X121000000Y-71656887D01*
X120450849Y-71766120D01*
X119985302Y-72077189D01*
X119674233Y-72542736D01*
X119565000Y-73091887D01*
X114937374Y-73091887D01*
X115215824Y-72813923D01*
X115434750Y-72286691D01*
X115435248Y-71715813D01*
X115217243Y-71188200D01*
X114948928Y-70919417D01*
X115035317Y-70903162D01*
X115251441Y-70764090D01*
X115396431Y-70551890D01*
X115447440Y-70300000D01*
X115447440Y-68700000D01*
X115403162Y-68464683D01*
X115264090Y-68248559D01*
X115051890Y-68103569D01*
X114800000Y-68052560D01*
X113200000Y-68052560D01*
X112964683Y-68096838D01*
X112748559Y-68235910D01*
X112603569Y-68448110D01*
X112552560Y-68700000D01*
X110435000Y-68700000D01*
X110435000Y-68285750D01*
X110276250Y-68127000D01*
X109127000Y-68127000D01*
X108873000Y-68127000D01*
X108853000Y-68127000D01*
X108853000Y-67873000D01*
X108873000Y-67873000D01*
X108873000Y-66723750D01*
X109127000Y-66723750D01*
X109127000Y-67873000D01*
X110276250Y-67873000D01*
X110435000Y-67714250D01*
X110435000Y-67073690D01*
X110338327Y-66840301D01*
X110159698Y-66661673D01*
X109926309Y-66565000D01*
X109285750Y-66565000D01*
X109127000Y-66723750D01*
X108873000Y-66723750D01*
X108714250Y-66565000D01*
X108073691Y-66565000D01*
X107840302Y-66661673D01*
X107661673Y-66840301D01*
X107576124Y-67046835D01*
X107313923Y-66784176D01*
X106786691Y-66565250D01*
X106215813Y-66564752D01*
X105688200Y-66782757D01*
X105284176Y-67186077D01*
X105065250Y-67713309D01*
X105064752Y-68284187D01*
X102935188Y-68284187D01*
X102935248Y-68215813D01*
X102717243Y-67688200D01*
X102313923Y-67284176D01*
X101786691Y-67065250D01*
X101215813Y-67064752D01*
X100688200Y-67282757D01*
X100284176Y-67686077D01*
X100065250Y-68213309D01*
X100064752Y-68784187D01*
X98047440Y-68784187D01*
X98047440Y-67600000D01*
X98003162Y-67364683D01*
X97864090Y-67148559D01*
X97651890Y-67003569D01*
X97400000Y-66952560D01*
X95600000Y-66952560D01*
X95364683Y-66996838D01*
X95148559Y-67135910D01*
X95003569Y-67348110D01*
X94952560Y-67600000D01*
X94297440Y-67600000D01*
X94297440Y-67250000D01*
X94253162Y-67014683D01*
X94114090Y-66798559D01*
X93901890Y-66653569D01*
X93650000Y-66602560D01*
X92150000Y-66602560D01*
X91914683Y-66646838D01*
X91698559Y-66785910D01*
X91553569Y-66998110D01*
X91502560Y-67250000D01*
X88075188Y-67250000D01*
X87988327Y-67040301D01*
X87809698Y-66861673D01*
X87576309Y-66765000D01*
X86985750Y-66765000D01*
X86827000Y-66923750D01*
X86573000Y-66923750D01*
X86414250Y-66765000D01*
X85823691Y-66765000D01*
X85590302Y-66861673D01*
X85411673Y-67040301D01*
X85315000Y-67273690D01*
X79710000Y-67273690D01*
X79710000Y-65784187D01*
X119564752Y-65784187D01*
X119782757Y-66311800D01*
X120186077Y-66715824D01*
X120713309Y-66934750D01*
X121284187Y-66935248D01*
X121811800Y-66717243D01*
X122215824Y-66313923D01*
X122434750Y-65786691D01*
X122434752Y-65784187D01*
X123564752Y-65784187D01*
X123782757Y-66311800D01*
X124186077Y-66715824D01*
X124713309Y-66934750D01*
X125284187Y-66935248D01*
X125811800Y-66717243D01*
X126215824Y-66313923D01*
X126434750Y-65786691D01*
X126435248Y-65215813D01*
X126217243Y-64688200D01*
X125813923Y-64284176D01*
X125286691Y-64065250D01*
X124715813Y-64064752D01*
X124188200Y-64282757D01*
X123784176Y-64686077D01*
X123565250Y-65213309D01*
X123564752Y-65784187D01*
X122434752Y-65784187D01*
X122435248Y-65215813D01*
X122217243Y-64688200D01*
X121813923Y-64284176D01*
X121286691Y-64065250D01*
X120715813Y-64064752D01*
X120188200Y-64282757D01*
X119784176Y-64686077D01*
X119565250Y-65213309D01*
X119564752Y-65784187D01*
X79710000Y-65784187D01*
X79710000Y-64284187D01*
X100064752Y-64284187D01*
X100282757Y-64811800D01*
X100686077Y-65215824D01*
X101213309Y-65434750D01*
X101784187Y-65435248D01*
X102311800Y-65217243D01*
X102715824Y-64813923D01*
X102749813Y-64732069D01*
X102782757Y-64811800D01*
X103186077Y-65215824D01*
X103713309Y-65434750D01*
X104284187Y-65435248D01*
X104811800Y-65217243D01*
X105215824Y-64813923D01*
X105434750Y-64286691D01*
X105435248Y-63715813D01*
X105384043Y-63591887D01*
X108065000Y-63591887D01*
X108065000Y-63648113D01*
X108174233Y-64197264D01*
X108485302Y-64662811D01*
X108950849Y-64973880D01*
X109500000Y-65083113D01*
X110049151Y-64973880D01*
X110514698Y-64662811D01*
X110825767Y-64197264D01*
X110871163Y-63969041D01*
X111608086Y-63969041D01*
X111847611Y-64475134D01*
X112262577Y-64851041D01*
X112650961Y-65011904D01*
X112873000Y-64889915D01*
X112873000Y-63747000D01*
X113127000Y-63747000D01*
X113127000Y-64889915D01*
X113349039Y-65011904D01*
X113737423Y-64851041D01*
X114152389Y-64475134D01*
X114391914Y-63969041D01*
X114270629Y-63747000D01*
X113127000Y-63747000D01*
X112873000Y-63747000D01*
X111729371Y-63747000D01*
X111608086Y-63969041D01*
X110871163Y-63969041D01*
X110935000Y-63648113D01*
X110935000Y-63591887D01*
X110871164Y-63270959D01*
X111608086Y-63270959D01*
X111729371Y-63493000D01*
X112873000Y-63493000D01*
X112873000Y-62350085D01*
X113127000Y-62350085D01*
X113127000Y-63493000D01*
X114270629Y-63493000D01*
X114391914Y-63270959D01*
X114152389Y-62764866D01*
X113737423Y-62388959D01*
X113484464Y-62284187D01*
X114564752Y-62284187D01*
X114782757Y-62811800D01*
X115186077Y-63215824D01*
X115713309Y-63434750D01*
X116284187Y-63435248D01*
X116811800Y-63217243D01*
X117215824Y-62813923D01*
X117434750Y-62286691D01*
X117435000Y-62000000D01*
X122156887Y-62000000D01*
X122266120Y-62549151D01*
X122577189Y-63014698D01*
X123042736Y-63325767D01*
X123591887Y-63435000D01*
X123648113Y-63435000D01*
X124197264Y-63325767D01*
X124662811Y-63014698D01*
X124973880Y-62549151D01*
X125083113Y-62000000D01*
X124973880Y-61450849D01*
X124662811Y-60985302D01*
X124197264Y-60674233D01*
X123648113Y-60565000D01*
X123591887Y-60565000D01*
X123042736Y-60674233D01*
X122577189Y-60985302D01*
X122266120Y-61450849D01*
X122156887Y-62000000D01*
X117435000Y-62000000D01*
X117435248Y-61715813D01*
X117217243Y-61188200D01*
X116813923Y-60784176D01*
X116286691Y-60565250D01*
X115715813Y-60564752D01*
X115188200Y-60782757D01*
X114784176Y-61186077D01*
X114565250Y-61713309D01*
X114564752Y-62284187D01*
X113484464Y-62284187D01*
X113349039Y-62228096D01*
X113127000Y-62350085D01*
X112873000Y-62350085D01*
X112650961Y-62228096D01*
X112262577Y-62388959D01*
X111847611Y-62764866D01*
X111608086Y-63270959D01*
X110871164Y-63270959D01*
X110825767Y-63042736D01*
X110514698Y-62577189D01*
X110049151Y-62266120D01*
X109500000Y-62156887D01*
X108950849Y-62266120D01*
X108485302Y-62577189D01*
X108174233Y-63042736D01*
X108065000Y-63591887D01*
X105384043Y-63591887D01*
X105217243Y-63188200D01*
X104813923Y-62784176D01*
X104286691Y-62565250D01*
X103715813Y-62564752D01*
X103188200Y-62782757D01*
X102784176Y-63186077D01*
X102750187Y-63267931D01*
X102717243Y-63188200D01*
X102313923Y-62784176D01*
X101786691Y-62565250D01*
X101215813Y-62564752D01*
X100688200Y-62782757D01*
X100284176Y-63186077D01*
X100065250Y-63713309D01*
X100064752Y-64284187D01*
X79710000Y-64284187D01*
X79710000Y-60526661D01*
X81602758Y-60526661D01*
X81814990Y-61040303D01*
X82207630Y-61433629D01*
X82720900Y-61646757D01*
X83276661Y-61647242D01*
X83790303Y-61435010D01*
X84183629Y-61042370D01*
X84396757Y-60529100D01*
X84397242Y-59973339D01*
X84319087Y-59784187D01*
X104064752Y-59784187D01*
X104282757Y-60311800D01*
X104686077Y-60715824D01*
X105213309Y-60934750D01*
X105784187Y-60935248D01*
X106311800Y-60717243D01*
X106715824Y-60313923D01*
X106934750Y-59786691D01*
X106935248Y-59215813D01*
X106717243Y-58688200D01*
X106313934Y-58284187D01*
X114564752Y-58284187D01*
X114782757Y-58811800D01*
X115186077Y-59215824D01*
X115713309Y-59434750D01*
X116284187Y-59435248D01*
X116811800Y-59217243D01*
X117215824Y-58813923D01*
X117434750Y-58286691D01*
X117435000Y-58000000D01*
X122156887Y-58000000D01*
X122266120Y-58549151D01*
X122577189Y-59014698D01*
X123042736Y-59325767D01*
X123591887Y-59435000D01*
X123648113Y-59435000D01*
X124197264Y-59325767D01*
X124662811Y-59014698D01*
X124973880Y-58549151D01*
X125083113Y-58000000D01*
X124973880Y-57450849D01*
X124662811Y-56985302D01*
X124197264Y-56674233D01*
X123648113Y-56565000D01*
X123591887Y-56565000D01*
X123042736Y-56674233D01*
X122577189Y-56985302D01*
X122266120Y-57450849D01*
X122156887Y-58000000D01*
X117435000Y-58000000D01*
X117435248Y-57715813D01*
X117217243Y-57188200D01*
X116813923Y-56784176D01*
X116286691Y-56565250D01*
X115715813Y-56564752D01*
X115188200Y-56782757D01*
X114784176Y-57186077D01*
X114565250Y-57713309D01*
X114564752Y-58284187D01*
X106313934Y-58284187D01*
X106313923Y-58284176D01*
X106247456Y-58256577D01*
X106254005Y-58253864D01*
X106328139Y-58007745D01*
X105500000Y-57179605D01*
X104671861Y-58007745D01*
X104745995Y-58253864D01*
X104752483Y-58256196D01*
X104688200Y-58282757D01*
X104284176Y-58686077D01*
X104065250Y-59213309D01*
X104064752Y-59784187D01*
X84319087Y-59784187D01*
X84185010Y-59459697D01*
X83792370Y-59066371D01*
X83279100Y-58853243D01*
X82723339Y-58852758D01*
X82209697Y-59064990D01*
X81816371Y-59457630D01*
X81603243Y-59970900D01*
X81602758Y-60526661D01*
X79710000Y-60526661D01*
X79710000Y-56785750D01*
X81365000Y-56785750D01*
X81365000Y-58126309D01*
X81461673Y-58359698D01*
X81640301Y-58538327D01*
X81873690Y-58635000D01*
X82714250Y-58635000D01*
X82873000Y-58476250D01*
X82873000Y-56627000D01*
X83127000Y-56627000D01*
X83127000Y-58476250D01*
X83285750Y-58635000D01*
X84126310Y-58635000D01*
X84359699Y-58538327D01*
X84538327Y-58359698D01*
X84635000Y-58126309D01*
X84635000Y-56785750D01*
X84633437Y-56784187D01*
X88064752Y-56784187D01*
X88282757Y-57311800D01*
X88686077Y-57715824D01*
X89213309Y-57934750D01*
X89784187Y-57935248D01*
X90311800Y-57717243D01*
X90715824Y-57313923D01*
X90934750Y-56786691D01*
X90934753Y-56783223D01*
X104053035Y-56783223D01*
X104080222Y-57353454D01*
X104246136Y-57754005D01*
X104492255Y-57828139D01*
X105320395Y-57000000D01*
X105679605Y-57000000D01*
X106507745Y-57828139D01*
X106753864Y-57754005D01*
X106946965Y-57216777D01*
X106919778Y-56646546D01*
X106769684Y-56284187D01*
X108064752Y-56284187D01*
X108282757Y-56811800D01*
X108686077Y-57215824D01*
X109213309Y-57434750D01*
X109784187Y-57435248D01*
X110311800Y-57217243D01*
X110715824Y-56813923D01*
X110934750Y-56286691D01*
X110934752Y-56284187D01*
X111564752Y-56284187D01*
X111782757Y-56811800D01*
X112186077Y-57215824D01*
X112713309Y-57434750D01*
X113284187Y-57435248D01*
X113811800Y-57217243D01*
X114215824Y-56813923D01*
X114434750Y-56286691D01*
X114435248Y-55715813D01*
X114217243Y-55188200D01*
X113813934Y-54784187D01*
X114564752Y-54784187D01*
X114782757Y-55311800D01*
X115186077Y-55715824D01*
X115713309Y-55934750D01*
X116284187Y-55935248D01*
X116811800Y-55717243D01*
X117215824Y-55313923D01*
X117434750Y-54786691D01*
X117435000Y-54500000D01*
X122156887Y-54500000D01*
X122266120Y-55049151D01*
X122577189Y-55514698D01*
X123042736Y-55825767D01*
X123591887Y-55935000D01*
X123648113Y-55935000D01*
X124197264Y-55825767D01*
X124662811Y-55514698D01*
X124973880Y-55049151D01*
X125083113Y-54500000D01*
X124973880Y-53950849D01*
X124662811Y-53485302D01*
X124197264Y-53174233D01*
X123648113Y-53065000D01*
X123591887Y-53065000D01*
X123042736Y-53174233D01*
X122577189Y-53485302D01*
X122266120Y-53950849D01*
X122156887Y-54500000D01*
X117435000Y-54500000D01*
X117435248Y-54215813D01*
X117217243Y-53688200D01*
X116813923Y-53284176D01*
X116286691Y-53065250D01*
X115715813Y-53064752D01*
X115188200Y-53282757D01*
X114784176Y-53686077D01*
X114565250Y-54213309D01*
X114564752Y-54784187D01*
X113813934Y-54784187D01*
X113813923Y-54784176D01*
X113286691Y-54565250D01*
X112715813Y-54564752D01*
X112188200Y-54782757D01*
X111784176Y-55186077D01*
X111565250Y-55713309D01*
X111564752Y-56284187D01*
X110934752Y-56284187D01*
X110935248Y-55715813D01*
X110717243Y-55188200D01*
X110313923Y-54784176D01*
X109786691Y-54565250D01*
X109215813Y-54564752D01*
X108688200Y-54782757D01*
X108284176Y-55186077D01*
X108065250Y-55713309D01*
X108064752Y-56284187D01*
X106769684Y-56284187D01*
X106753864Y-56245995D01*
X106507745Y-56171861D01*
X105679605Y-57000000D01*
X105320395Y-57000000D01*
X104492255Y-56171861D01*
X104246136Y-56245995D01*
X104053035Y-56783223D01*
X90934753Y-56783223D01*
X90935248Y-56215813D01*
X90842876Y-55992255D01*
X104671861Y-55992255D01*
X105500000Y-56820395D01*
X106328139Y-55992255D01*
X106254005Y-55746136D01*
X105716777Y-55553035D01*
X105146546Y-55580222D01*
X104745995Y-55746136D01*
X104671861Y-55992255D01*
X90842876Y-55992255D01*
X90717243Y-55688200D01*
X90313923Y-55284176D01*
X89786691Y-55065250D01*
X89215813Y-55064752D01*
X88688200Y-55282757D01*
X88284176Y-55686077D01*
X88065250Y-56213309D01*
X88064752Y-56784187D01*
X84633437Y-56784187D01*
X84476250Y-56627000D01*
X83127000Y-56627000D01*
X82873000Y-56627000D01*
X81523750Y-56627000D01*
X81365000Y-56785750D01*
X79710000Y-56785750D01*
X79710000Y-54873691D01*
X81365000Y-54873691D01*
X81365000Y-56214250D01*
X81523750Y-56373000D01*
X82873000Y-56373000D01*
X82873000Y-54523750D01*
X83127000Y-54523750D01*
X83127000Y-56373000D01*
X84476250Y-56373000D01*
X84635000Y-56214250D01*
X84635000Y-54873691D01*
X84538327Y-54640302D01*
X84359699Y-54461673D01*
X84126310Y-54365000D01*
X83285750Y-54365000D01*
X83127000Y-54523750D01*
X82873000Y-54523750D01*
X82714250Y-54365000D01*
X81873690Y-54365000D01*
X81640301Y-54461673D01*
X81461673Y-54640302D01*
X81365000Y-54873691D01*
X79710000Y-54873691D01*
X79710000Y-53026661D01*
X81602758Y-53026661D01*
X81814990Y-53540303D01*
X82207630Y-53933629D01*
X82720900Y-54146757D01*
X83276661Y-54147242D01*
X83790303Y-53935010D01*
X84183629Y-53542370D01*
X84297414Y-53268344D01*
X103644765Y-53268344D01*
X103850617Y-53766543D01*
X104231452Y-54148043D01*
X104729291Y-54354764D01*
X105268344Y-54355235D01*
X105766543Y-54149383D01*
X106148043Y-53768548D01*
X106354764Y-53270709D01*
X106354766Y-53268344D01*
X108724765Y-53268344D01*
X108930617Y-53766543D01*
X109311452Y-54148043D01*
X109809291Y-54354764D01*
X110348344Y-54355235D01*
X110846543Y-54149383D01*
X111228043Y-53768548D01*
X111434764Y-53270709D01*
X111435235Y-52731656D01*
X111229383Y-52233457D01*
X110848548Y-51851957D01*
X110350709Y-51645236D01*
X109811656Y-51644765D01*
X109313457Y-51850617D01*
X108931957Y-52231452D01*
X108725236Y-52729291D01*
X108724765Y-53268344D01*
X106354766Y-53268344D01*
X106355235Y-52731656D01*
X106149383Y-52233457D01*
X105768548Y-51851957D01*
X105270709Y-51645236D01*
X104731656Y-51644765D01*
X104233457Y-51850617D01*
X103851957Y-52231452D01*
X103645236Y-52729291D01*
X103644765Y-53268344D01*
X84297414Y-53268344D01*
X84396757Y-53029100D01*
X84397242Y-52473339D01*
X84185010Y-51959697D01*
X83792370Y-51566371D01*
X83279100Y-51353243D01*
X82723339Y-51352758D01*
X82209697Y-51564990D01*
X81816371Y-51957630D01*
X81603243Y-52470900D01*
X81602758Y-53026661D01*
X79710000Y-53026661D01*
X79710000Y-50450000D01*
X88852560Y-50450000D01*
X88852560Y-51950000D01*
X88896838Y-52185317D01*
X89035910Y-52401441D01*
X89248110Y-52546431D01*
X89500000Y-52597440D01*
X92500000Y-52597440D01*
X92735317Y-52553162D01*
X92951441Y-52414090D01*
X93096431Y-52201890D01*
X93142778Y-51973024D01*
X93282757Y-52311800D01*
X93686077Y-52715824D01*
X94213309Y-52934750D01*
X94784187Y-52935248D01*
X95311800Y-52717243D01*
X95715824Y-52313923D01*
X95934750Y-51786691D01*
X95935000Y-51500000D01*
X100656887Y-51500000D01*
X100766120Y-52049151D01*
X101077189Y-52514698D01*
X101542736Y-52825767D01*
X102091887Y-52935000D01*
X102148113Y-52935000D01*
X102697264Y-52825767D01*
X103162811Y-52514698D01*
X103473880Y-52049151D01*
X103583113Y-51500000D01*
X103473880Y-50950849D01*
X103162811Y-50485302D01*
X102697264Y-50174233D01*
X102148113Y-50065000D01*
X102091887Y-50065000D01*
X101542736Y-50174233D01*
X101077189Y-50485302D01*
X100766120Y-50950849D01*
X100656887Y-51500000D01*
X95935000Y-51500000D01*
X95935248Y-51215813D01*
X95717243Y-50688200D01*
X95313923Y-50284176D01*
X94786691Y-50065250D01*
X94215813Y-50064752D01*
X93688200Y-50282757D01*
X93284176Y-50686077D01*
X93147440Y-51015374D01*
X93147440Y-50450000D01*
X93103162Y-50214683D01*
X92964090Y-49998559D01*
X92751890Y-49853569D01*
X92500000Y-49802560D01*
X89500000Y-49802560D01*
X89264683Y-49846838D01*
X89048559Y-49985910D01*
X88903569Y-50198110D01*
X88852560Y-50450000D01*
X79710000Y-50450000D01*
X79710000Y-49710000D01*
X106384255Y-49710000D01*
X106185236Y-50189291D01*
X106185236Y-50189291D01*
G37*
X106185236Y-50189291D02*
X106184765Y-50728344D01*
X106390617Y-51226543D01*
X106771452Y-51608043D01*
X107269291Y-51814764D01*
X107808344Y-51815235D01*
X108306543Y-51609383D01*
X108688043Y-51228548D01*
X108894764Y-50730709D01*
X108895235Y-50191656D01*
X108696218Y-49710000D01*
X115364286Y-49710000D01*
X115188200Y-49782757D01*
X114784176Y-50186077D01*
X114565250Y-50713309D01*
X114564752Y-51284187D01*
X114782757Y-51811800D01*
X115186077Y-52215824D01*
X115713309Y-52434750D01*
X116284187Y-52435248D01*
X116811800Y-52217243D01*
X117215824Y-51813923D01*
X117434750Y-51286691D01*
X117435248Y-50715813D01*
X117217243Y-50188200D01*
X116813923Y-49784176D01*
X116635287Y-49710000D01*
X122989207Y-49710000D01*
X122577189Y-49985302D01*
X122266120Y-50450849D01*
X122156887Y-51000000D01*
X122266120Y-51549151D01*
X122577189Y-52014698D01*
X123042736Y-52325767D01*
X123591887Y-52435000D01*
X123648113Y-52435000D01*
X124197264Y-52325767D01*
X124662811Y-52014698D01*
X124973880Y-51549151D01*
X125083113Y-51000000D01*
X124973880Y-50450849D01*
X124662811Y-49985302D01*
X124250793Y-49710000D01*
X127290000Y-49710000D01*
X127290000Y-75774242D01*
X126786691Y-75565250D01*
X126215813Y-75564752D01*
X125688200Y-75782757D01*
X125284176Y-76186077D01*
X125065250Y-76713309D01*
X125064752Y-77284187D01*
X125282757Y-77811800D01*
X125686077Y-78215824D01*
X126213309Y-78434750D01*
X126784187Y-78435248D01*
X127290000Y-78226251D01*
X127290000Y-79236197D01*
X127197264Y-79174233D01*
X126648113Y-79065000D01*
X126591887Y-79065000D01*
X126042736Y-79174233D01*
X125577189Y-79485302D01*
X125407005Y-79740000D01*
X123635943Y-79740000D01*
X123625017Y-79713557D01*
X123362227Y-79450308D01*
X123018699Y-79307662D01*
X122646733Y-79307338D01*
X122302957Y-79449383D01*
X122039708Y-79712173D01*
X121897062Y-80055701D01*
X121896738Y-80427667D01*
X122038783Y-80771443D01*
X122301573Y-81034692D01*
X122645101Y-81177338D01*
X122761582Y-81177439D01*
X122798561Y-81202148D01*
X123089400Y-81260000D01*
X125407005Y-81260000D01*
X125577189Y-81514698D01*
X126042736Y-81825767D01*
X126591887Y-81935000D01*
X126648113Y-81935000D01*
X127197264Y-81825767D01*
X127290000Y-81763803D01*
X127290000Y-82736197D01*
X127197264Y-82674233D01*
X126648113Y-82565000D01*
X126591887Y-82565000D01*
X126042736Y-82674233D01*
X125577189Y-82985302D01*
X125266120Y-83450849D01*
X125156887Y-84000000D01*
X125266120Y-84549151D01*
X125577189Y-85014698D01*
X126042736Y-85325767D01*
X126591887Y-85435000D01*
X126648113Y-85435000D01*
X127197264Y-85325767D01*
X127290000Y-85263803D01*
X127290000Y-86259990D01*
X126969041Y-86108086D01*
X126747000Y-86229371D01*
X126747000Y-87373000D01*
X126767000Y-87373000D01*
X126767000Y-87627000D01*
X126747000Y-87627000D01*
X126747000Y-88770629D01*
X126969041Y-88891914D01*
X127290000Y-88740010D01*
X127290000Y-107790000D01*
X121834996Y-107790000D01*
X121905261Y-107606964D01*
X121893851Y-107170950D01*
X122137801Y-107415326D01*
X122968366Y-107760207D01*
X123867688Y-107760992D01*
X124698854Y-107417561D01*
X125335326Y-106782199D01*
X125680207Y-105951634D01*
X125680992Y-105052312D01*
X125337561Y-104221146D01*
X124702199Y-103584674D01*
X123871634Y-103239793D01*
X122972312Y-103239008D01*
X122141146Y-103582439D01*
X121504674Y-104217801D01*
X121159793Y-105048366D01*
X121159024Y-105929891D01*
X121027480Y-105635343D01*
X120319964Y-105363739D01*
X119562368Y-105383564D01*
X118954520Y-105635343D01*
X118822828Y-105930223D01*
X119991000Y-107098395D01*
X120005143Y-107084253D01*
X120184748Y-107263858D01*
X120170605Y-107278000D01*
X120184748Y-107292143D01*
X120005143Y-107471748D01*
X119991000Y-107457605D01*
X119976858Y-107471748D01*
X119797253Y-107292143D01*
X119811395Y-107278000D01*
X118643223Y-106109828D01*
X118348343Y-106241520D01*
X118076739Y-106949036D01*
X118096564Y-107706632D01*
X118131096Y-107790000D01*
X89237831Y-107790000D01*
X89423261Y-107306964D01*
X89403436Y-106549368D01*
X89293595Y-106284187D01*
X95564752Y-106284187D01*
X95782757Y-106811800D01*
X96186077Y-107215824D01*
X96713309Y-107434750D01*
X97284187Y-107435248D01*
X97811800Y-107217243D01*
X98215824Y-106813923D01*
X98434750Y-106286691D01*
X98434752Y-106284187D01*
X100064752Y-106284187D01*
X100282757Y-106811800D01*
X100686077Y-107215824D01*
X101213309Y-107434750D01*
X101784187Y-107435248D01*
X102311800Y-107217243D01*
X102715824Y-106813923D01*
X102934750Y-106286691D01*
X102935248Y-105715813D01*
X102717243Y-105188200D01*
X102313923Y-104784176D01*
X101786691Y-104565250D01*
X101215813Y-104564752D01*
X100688200Y-104782757D01*
X100284176Y-105186077D01*
X100065250Y-105713309D01*
X100064752Y-106284187D01*
X98434752Y-106284187D01*
X98435248Y-105715813D01*
X98217243Y-105188200D01*
X97813923Y-104784176D01*
X97286691Y-104565250D01*
X96715813Y-104564752D01*
X96188200Y-104782757D01*
X95784176Y-105186077D01*
X95565250Y-105713309D01*
X95564752Y-106284187D01*
X89293595Y-106284187D01*
X89151657Y-105941520D01*
X88856777Y-105809828D01*
X87688605Y-106978000D01*
X87702748Y-106992143D01*
X87523143Y-107171748D01*
X87509000Y-107157605D01*
X87494858Y-107171748D01*
X87315253Y-106992143D01*
X87329395Y-106978000D01*
X87315253Y-106963858D01*
X87494858Y-106784253D01*
X87509000Y-106798395D01*
X88677172Y-105630223D01*
X88545480Y-105335343D01*
X87837964Y-105063739D01*
X87080368Y-105083564D01*
X86472520Y-105335343D01*
X86340829Y-105630221D01*
X86340226Y-105629618D01*
X86340992Y-104752312D01*
X85997561Y-103921146D01*
X85677824Y-103600850D01*
X85858273Y-103675779D01*
X86363510Y-103676220D01*
X86830458Y-103483282D01*
X87188026Y-103126337D01*
X87381779Y-102659727D01*
X87381871Y-102554142D01*
X87636273Y-102659779D01*
X88141510Y-102660220D01*
X88608458Y-102467282D01*
X88966026Y-102110337D01*
X89159779Y-101643727D01*
X89160220Y-101138490D01*
X88967282Y-100671542D01*
X88670053Y-100373794D01*
X88966026Y-100078337D01*
X89159779Y-99611727D01*
X89160220Y-99106490D01*
X88967282Y-98639542D01*
X88680129Y-98351887D01*
X95565000Y-98351887D01*
X95565000Y-98408113D01*
X95674233Y-98957264D01*
X95985302Y-99422811D01*
X96450849Y-99733880D01*
X97000000Y-99843113D01*
X97549151Y-99733880D01*
X98014698Y-99422811D01*
X98325767Y-98957264D01*
X98435000Y-98408113D01*
X98435000Y-98351887D01*
X100065000Y-98351887D01*
X100065000Y-98408113D01*
X100174233Y-98957264D01*
X100485302Y-99422811D01*
X100950849Y-99733880D01*
X101500000Y-99843113D01*
X102049151Y-99733880D01*
X102514698Y-99422811D01*
X102825767Y-98957264D01*
X102935000Y-98408113D01*
X102935000Y-98351887D01*
X102825767Y-97802736D01*
X102514698Y-97337189D01*
X102049151Y-97026120D01*
X101500000Y-96916887D01*
X100950849Y-97026120D01*
X100485302Y-97337189D01*
X100174233Y-97802736D01*
X100065000Y-98351887D01*
X98435000Y-98351887D01*
X98325767Y-97802736D01*
X98014698Y-97337189D01*
X97549151Y-97026120D01*
X97000000Y-96916887D01*
X96450849Y-97026120D01*
X95985302Y-97337189D01*
X95674233Y-97802736D01*
X95565000Y-98351887D01*
X88680129Y-98351887D01*
X88670053Y-98341794D01*
X88966026Y-98046337D01*
X89159779Y-97579727D01*
X89160220Y-97074490D01*
X89072219Y-96861510D01*
X118339780Y-96861510D01*
X118532718Y-97328458D01*
X118829947Y-97626206D01*
X118533974Y-97921663D01*
X118340221Y-98388273D01*
X118339780Y-98893510D01*
X118532718Y-99360458D01*
X118829947Y-99658206D01*
X118533974Y-99953663D01*
X118340221Y-100420273D01*
X118339780Y-100925510D01*
X118532718Y-101392458D01*
X118829947Y-101690206D01*
X118533974Y-101985663D01*
X118340221Y-102452273D01*
X118339780Y-102957510D01*
X118532718Y-103424458D01*
X118889663Y-103782026D01*
X119356273Y-103975779D01*
X119861510Y-103976220D01*
X120328458Y-103783282D01*
X120686026Y-103426337D01*
X120879779Y-102959727D01*
X120879871Y-102854142D01*
X121134273Y-102959779D01*
X121639510Y-102960220D01*
X122106458Y-102767282D01*
X122464026Y-102410337D01*
X122657779Y-101943727D01*
X122658220Y-101438490D01*
X122465282Y-100971542D01*
X122168053Y-100673794D01*
X122464026Y-100378337D01*
X122657779Y-99911727D01*
X122658220Y-99406490D01*
X122465282Y-98939542D01*
X122168053Y-98641794D01*
X122464026Y-98346337D01*
X122657779Y-97879727D01*
X122658220Y-97374490D01*
X122465282Y-96907542D01*
X122168053Y-96609794D01*
X122464026Y-96314337D01*
X122657779Y-95847727D01*
X122658220Y-95342490D01*
X122465282Y-94875542D01*
X122423963Y-94834151D01*
X122968366Y-95060207D01*
X123867688Y-95060992D01*
X124698854Y-94717561D01*
X125335326Y-94082199D01*
X125680207Y-93251634D01*
X125680992Y-92352312D01*
X125337561Y-91521146D01*
X124702199Y-90884674D01*
X123871634Y-90539793D01*
X122972312Y-90539008D01*
X122141146Y-90882439D01*
X121899318Y-91123846D01*
X121885436Y-90593368D01*
X121633657Y-89985520D01*
X121338777Y-89853828D01*
X120170605Y-91022000D01*
X120184748Y-91036143D01*
X120005143Y-91215748D01*
X119991000Y-91201605D01*
X118822828Y-92369777D01*
X118954520Y-92664657D01*
X119662036Y-92936261D01*
X120419632Y-92916436D01*
X121027480Y-92664657D01*
X121159171Y-92369779D01*
X121159774Y-92370382D01*
X121159008Y-93247688D01*
X121502439Y-94078854D01*
X121822176Y-94399150D01*
X121641727Y-94324221D01*
X121136490Y-94323780D01*
X120669542Y-94516718D01*
X120311974Y-94873663D01*
X120118221Y-95340273D01*
X120118129Y-95445858D01*
X119863727Y-95340221D01*
X119358490Y-95339780D01*
X118891542Y-95532718D01*
X118533974Y-95889663D01*
X118340221Y-96356273D01*
X118339780Y-96861510D01*
X89072219Y-96861510D01*
X88967282Y-96607542D01*
X88670053Y-96309794D01*
X88966026Y-96014337D01*
X89159779Y-95547727D01*
X89160220Y-95042490D01*
X89046946Y-94768344D01*
X103644765Y-94768344D01*
X103850617Y-95266543D01*
X104231452Y-95648043D01*
X104729291Y-95854764D01*
X105268344Y-95855235D01*
X105766543Y-95649383D01*
X106148043Y-95268548D01*
X106354764Y-94770709D01*
X106354766Y-94768344D01*
X108724765Y-94768344D01*
X108930617Y-95266543D01*
X109311452Y-95648043D01*
X109809291Y-95854764D01*
X110348344Y-95855235D01*
X110846543Y-95649383D01*
X111228043Y-95268548D01*
X111434764Y-94770709D01*
X111435235Y-94231656D01*
X111229383Y-93733457D01*
X110848548Y-93351957D01*
X110350709Y-93145236D01*
X109811656Y-93144765D01*
X109313457Y-93350617D01*
X108931957Y-93731452D01*
X108725236Y-94229291D01*
X108724765Y-94768344D01*
X106354766Y-94768344D01*
X106355235Y-94231656D01*
X106149383Y-93733457D01*
X105768548Y-93351957D01*
X105270709Y-93145236D01*
X104731656Y-93144765D01*
X104233457Y-93350617D01*
X103851957Y-93731452D01*
X103645236Y-94229291D01*
X103644765Y-94768344D01*
X89046946Y-94768344D01*
X88967282Y-94575542D01*
X88610337Y-94217974D01*
X88143727Y-94024221D01*
X87638490Y-94023780D01*
X87171542Y-94216718D01*
X86813974Y-94573663D01*
X86620221Y-95040273D01*
X86620129Y-95145858D01*
X86365727Y-95040221D01*
X85860490Y-95039780D01*
X85393542Y-95232718D01*
X85035974Y-95589663D01*
X84842221Y-96056273D01*
X84841780Y-96561510D01*
X85034718Y-97028458D01*
X85331947Y-97326206D01*
X85035974Y-97621663D01*
X84842221Y-98088273D01*
X84841780Y-98593510D01*
X85034718Y-99060458D01*
X85331947Y-99358206D01*
X85035974Y-99653663D01*
X84842221Y-100120273D01*
X84841780Y-100625510D01*
X85034718Y-101092458D01*
X85331947Y-101390206D01*
X85035974Y-101685663D01*
X84842221Y-102152273D01*
X84841780Y-102657510D01*
X85034718Y-103124458D01*
X85076037Y-103165849D01*
X84531634Y-102939793D01*
X83632312Y-102939008D01*
X82801146Y-103282439D01*
X82164674Y-103917801D01*
X81819793Y-104748366D01*
X81819008Y-105647688D01*
X82162439Y-106478854D01*
X82797801Y-107115326D01*
X83628366Y-107460207D01*
X84527688Y-107460992D01*
X85358854Y-107117561D01*
X85600682Y-106876154D01*
X85614564Y-107406632D01*
X85773360Y-107790000D01*
X79710000Y-107790000D01*
X79710000Y-92947688D01*
X81819008Y-92947688D01*
X82162439Y-93778854D01*
X82797801Y-94415326D01*
X83628366Y-94760207D01*
X84527688Y-94760992D01*
X85358854Y-94417561D01*
X85995326Y-93782199D01*
X86340207Y-92951634D01*
X86340976Y-92070109D01*
X86472520Y-92364657D01*
X87180036Y-92636261D01*
X87937632Y-92616436D01*
X88545480Y-92364657D01*
X88677172Y-92069777D01*
X87509000Y-90901605D01*
X87494858Y-90915748D01*
X87315253Y-90736143D01*
X87329395Y-90722000D01*
X87688605Y-90722000D01*
X88856777Y-91890172D01*
X89094094Y-91784187D01*
X98564752Y-91784187D01*
X98782757Y-92311800D01*
X99186077Y-92715824D01*
X99713309Y-92934750D01*
X100284187Y-92935248D01*
X100811800Y-92717243D01*
X101215824Y-92313923D01*
X101249813Y-92232069D01*
X101282757Y-92311800D01*
X101686077Y-92715824D01*
X102213309Y-92934750D01*
X102784187Y-92935248D01*
X103311800Y-92717243D01*
X103715824Y-92313923D01*
X103751359Y-92228344D01*
X106184765Y-92228344D01*
X106390617Y-92726543D01*
X106771452Y-93108043D01*
X107269291Y-93314764D01*
X107808344Y-93315235D01*
X108306543Y-93109383D01*
X108688043Y-92728548D01*
X108894764Y-92230709D01*
X108895235Y-91691656D01*
X108689383Y-91193457D01*
X108308548Y-90811957D01*
X108022155Y-90693036D01*
X118076739Y-90693036D01*
X118096564Y-91450632D01*
X118348343Y-92058480D01*
X118643223Y-92190172D01*
X119811395Y-91022000D01*
X118643223Y-89853828D01*
X118348343Y-89985520D01*
X118076739Y-90693036D01*
X108022155Y-90693036D01*
X107810709Y-90605236D01*
X107271656Y-90604765D01*
X106773457Y-90810617D01*
X106391957Y-91191452D01*
X106185236Y-91689291D01*
X106184765Y-92228344D01*
X103751359Y-92228344D01*
X103934750Y-91786691D01*
X103935248Y-91215813D01*
X103717243Y-90688200D01*
X103313923Y-90284176D01*
X102786691Y-90065250D01*
X102215813Y-90064752D01*
X101688200Y-90282757D01*
X101284176Y-90686077D01*
X101250187Y-90767931D01*
X101217243Y-90688200D01*
X100813923Y-90284176D01*
X100286691Y-90065250D01*
X99715813Y-90064752D01*
X99188200Y-90282757D01*
X98784176Y-90686077D01*
X98565250Y-91213309D01*
X98564752Y-91784187D01*
X89094094Y-91784187D01*
X89151657Y-91758480D01*
X89423261Y-91050964D01*
X89403436Y-90293368D01*
X89151657Y-89685520D01*
X88856777Y-89553828D01*
X87688605Y-90722000D01*
X87329395Y-90722000D01*
X86161223Y-89553828D01*
X85866343Y-89685520D01*
X85594739Y-90393036D01*
X85606149Y-90829050D01*
X85362199Y-90584674D01*
X84531634Y-90239793D01*
X83632312Y-90239008D01*
X82801146Y-90582439D01*
X82164674Y-91217801D01*
X81819793Y-92048366D01*
X81819008Y-92947688D01*
X79710000Y-92947688D01*
X79710000Y-89374223D01*
X86340828Y-89374223D01*
X87509000Y-90542395D01*
X88677172Y-89374223D01*
X88551083Y-89091887D01*
X103065000Y-89091887D01*
X103065000Y-89148113D01*
X103174233Y-89697264D01*
X103485302Y-90162811D01*
X103950849Y-90473880D01*
X104500000Y-90583113D01*
X105049151Y-90473880D01*
X105514698Y-90162811D01*
X105825767Y-89697264D01*
X105935000Y-89148113D01*
X105935000Y-89091887D01*
X105835544Y-88591887D01*
X106565000Y-88591887D01*
X106565000Y-88648113D01*
X106674233Y-89197264D01*
X106985302Y-89662811D01*
X107450849Y-89973880D01*
X108000000Y-90083113D01*
X108549151Y-89973880D01*
X109014698Y-89662811D01*
X109267686Y-89284187D01*
X110064752Y-89284187D01*
X110282757Y-89811800D01*
X110686077Y-90215824D01*
X111213309Y-90434750D01*
X111784187Y-90435248D01*
X112311800Y-90217243D01*
X112715824Y-89813923D01*
X112934750Y-89286691D01*
X112934752Y-89284187D01*
X113564752Y-89284187D01*
X113782757Y-89811800D01*
X114186077Y-90215824D01*
X114713309Y-90434750D01*
X115284187Y-90435248D01*
X115811800Y-90217243D01*
X116215824Y-89813923D01*
X116273832Y-89674223D01*
X118822828Y-89674223D01*
X119991000Y-90842395D01*
X121159172Y-89674223D01*
X121027480Y-89379343D01*
X120319964Y-89107739D01*
X119562368Y-89127564D01*
X118954520Y-89379343D01*
X118822828Y-89674223D01*
X116273832Y-89674223D01*
X116434750Y-89286691D01*
X116435248Y-88715813D01*
X116217243Y-88188200D01*
X115813934Y-87784187D01*
X117564752Y-87784187D01*
X117782757Y-88311800D01*
X118186077Y-88715824D01*
X118713309Y-88934750D01*
X119284187Y-88935248D01*
X119811800Y-88717243D01*
X120215824Y-88313923D01*
X120408860Y-87849039D01*
X125228096Y-87849039D01*
X125388959Y-88237423D01*
X125764866Y-88652389D01*
X126270959Y-88891914D01*
X126493000Y-88770629D01*
X126493000Y-87627000D01*
X125350085Y-87627000D01*
X125228096Y-87849039D01*
X120408860Y-87849039D01*
X120434750Y-87786691D01*
X120435248Y-87215813D01*
X120408452Y-87150961D01*
X125228096Y-87150961D01*
X125350085Y-87373000D01*
X126493000Y-87373000D01*
X126493000Y-86229371D01*
X126270959Y-86108086D01*
X125764866Y-86347611D01*
X125388959Y-86762577D01*
X125228096Y-87150961D01*
X120408452Y-87150961D01*
X120217243Y-86688200D01*
X119813923Y-86284176D01*
X119286691Y-86065250D01*
X118715813Y-86064752D01*
X118188200Y-86282757D01*
X117784176Y-86686077D01*
X117565250Y-87213309D01*
X117564752Y-87784187D01*
X115813934Y-87784187D01*
X115813923Y-87784176D01*
X115286691Y-87565250D01*
X114715813Y-87564752D01*
X114188200Y-87782757D01*
X113784176Y-88186077D01*
X113565250Y-88713309D01*
X113564752Y-89284187D01*
X112934752Y-89284187D01*
X112935248Y-88715813D01*
X112717243Y-88188200D01*
X112313923Y-87784176D01*
X111786691Y-87565250D01*
X111215813Y-87564752D01*
X110688200Y-87782757D01*
X110284176Y-88186077D01*
X110065250Y-88713309D01*
X110064752Y-89284187D01*
X109267686Y-89284187D01*
X109325767Y-89197264D01*
X109435000Y-88648113D01*
X109435000Y-88591887D01*
X109325767Y-88042736D01*
X109014698Y-87577189D01*
X108549151Y-87266120D01*
X108000000Y-87156887D01*
X107450849Y-87266120D01*
X106985302Y-87577189D01*
X106674233Y-88042736D01*
X106565000Y-88591887D01*
X105835544Y-88591887D01*
X105825767Y-88542736D01*
X105514698Y-88077189D01*
X105049151Y-87766120D01*
X104500000Y-87656887D01*
X103950849Y-87766120D01*
X103485302Y-88077189D01*
X103174233Y-88542736D01*
X103065000Y-89091887D01*
X88551083Y-89091887D01*
X88545480Y-89079343D01*
X87837964Y-88807739D01*
X87080368Y-88827564D01*
X86472520Y-89079343D01*
X86340828Y-89374223D01*
X79710000Y-89374223D01*
X79710000Y-86526661D01*
X81602758Y-86526661D01*
X81814990Y-87040303D01*
X82207630Y-87433629D01*
X82720900Y-87646757D01*
X83276661Y-87647242D01*
X83790303Y-87435010D01*
X84183629Y-87042370D01*
X84396757Y-86529100D01*
X84397138Y-86091887D01*
X93565000Y-86091887D01*
X93565000Y-86148113D01*
X93674233Y-86697264D01*
X93985302Y-87162811D01*
X94450849Y-87473880D01*
X95000000Y-87583113D01*
X95549151Y-87473880D01*
X96014698Y-87162811D01*
X96325767Y-86697264D01*
X96435000Y-86148113D01*
X96435000Y-86091887D01*
X96325767Y-85542736D01*
X96014698Y-85077189D01*
X95549151Y-84766120D01*
X95000000Y-84656887D01*
X94450849Y-84766120D01*
X93985302Y-85077189D01*
X93674233Y-85542736D01*
X93565000Y-86091887D01*
X84397138Y-86091887D01*
X84397242Y-85973339D01*
X84185010Y-85459697D01*
X83792370Y-85066371D01*
X83279100Y-84853243D01*
X82723339Y-84852758D01*
X82209697Y-85064990D01*
X81816371Y-85457630D01*
X81603243Y-85970900D01*
X81602758Y-86526661D01*
X79710000Y-86526661D01*
X79710000Y-82785750D01*
X81365000Y-82785750D01*
X81365000Y-84126309D01*
X81461673Y-84359698D01*
X81640301Y-84538327D01*
X81873690Y-84635000D01*
X82714250Y-84635000D01*
X82873000Y-84476250D01*
X82873000Y-82627000D01*
X83127000Y-82627000D01*
X83127000Y-84476250D01*
X83285750Y-84635000D01*
X84126310Y-84635000D01*
X84359699Y-84538327D01*
X84538327Y-84359698D01*
X84569604Y-84284187D01*
X117564752Y-84284187D01*
X117782757Y-84811800D01*
X118186077Y-85215824D01*
X118713309Y-85434750D01*
X119284187Y-85435248D01*
X119811800Y-85217243D01*
X120215824Y-84813923D01*
X120434750Y-84286691D01*
X120435248Y-83715813D01*
X120217243Y-83188200D01*
X119813923Y-82784176D01*
X119286691Y-82565250D01*
X118715813Y-82564752D01*
X118188200Y-82782757D01*
X117784176Y-83186077D01*
X117565250Y-83713309D01*
X117564752Y-84284187D01*
X84569604Y-84284187D01*
X84635000Y-84126309D01*
X84635000Y-82785750D01*
X84633437Y-82784187D01*
X88064752Y-82784187D01*
X88282757Y-83311800D01*
X88686077Y-83715824D01*
X89213309Y-83934750D01*
X89784187Y-83935248D01*
X90311800Y-83717243D01*
X90715824Y-83313923D01*
X90934750Y-82786691D01*
X90935248Y-82215813D01*
X90756904Y-81784187D01*
X103064752Y-81784187D01*
X103282757Y-82311800D01*
X103686077Y-82715824D01*
X104213309Y-82934750D01*
X104784187Y-82935248D01*
X105311800Y-82717243D01*
X105715824Y-82313923D01*
X105738215Y-82260000D01*
X107292465Y-82260000D01*
X107713309Y-82434750D01*
X108284187Y-82435248D01*
X108811800Y-82217243D01*
X109215824Y-81813923D01*
X109407678Y-81351887D01*
X110065000Y-81351887D01*
X110065000Y-81408113D01*
X110174233Y-81957264D01*
X110485302Y-82422811D01*
X110950849Y-82733880D01*
X111500000Y-82843113D01*
X112049151Y-82733880D01*
X112514698Y-82422811D01*
X112825767Y-81957264D01*
X112935000Y-81408113D01*
X112935000Y-81351887D01*
X113565000Y-81351887D01*
X113565000Y-81408113D01*
X113674233Y-81957264D01*
X113985302Y-82422811D01*
X114450849Y-82733880D01*
X115000000Y-82843113D01*
X115549151Y-82733880D01*
X116014698Y-82422811D01*
X116325767Y-81957264D01*
X116435000Y-81408113D01*
X116435000Y-81351887D01*
X116325767Y-80802736D01*
X116313373Y-80784187D01*
X117564752Y-80784187D01*
X117782757Y-81311800D01*
X118186077Y-81715824D01*
X118713309Y-81934750D01*
X119284187Y-81935248D01*
X119811800Y-81717243D01*
X120215824Y-81313923D01*
X120434750Y-80786691D01*
X120435248Y-80215813D01*
X120217243Y-79688200D01*
X119813923Y-79284176D01*
X119286691Y-79065250D01*
X118715813Y-79064752D01*
X118188200Y-79282757D01*
X117784176Y-79686077D01*
X117565250Y-80213309D01*
X117564752Y-80784187D01*
X116313373Y-80784187D01*
X116014698Y-80337189D01*
X115549151Y-80026120D01*
X115000000Y-79916887D01*
X114450849Y-80026120D01*
X113985302Y-80337189D01*
X113674233Y-80802736D01*
X113565000Y-81351887D01*
X112935000Y-81351887D01*
X112825767Y-80802736D01*
X112514698Y-80337189D01*
X112049151Y-80026120D01*
X111500000Y-79916887D01*
X110950849Y-80026120D01*
X110485302Y-80337189D01*
X110174233Y-80802736D01*
X110065000Y-81351887D01*
X109407678Y-81351887D01*
X109434750Y-81286691D01*
X109435248Y-80715813D01*
X109217243Y-80188200D01*
X108813923Y-79784176D01*
X108286691Y-79565250D01*
X107715813Y-79564752D01*
X107188200Y-79782757D01*
X106784176Y-80186077D01*
X106565250Y-80713309D01*
X106565227Y-80740000D01*
X105738646Y-80740000D01*
X105717243Y-80688200D01*
X105313923Y-80284176D01*
X104786691Y-80065250D01*
X104215813Y-80064752D01*
X103688200Y-80282757D01*
X103284176Y-80686077D01*
X103065250Y-81213309D01*
X103064752Y-81784187D01*
X90756904Y-81784187D01*
X90717243Y-81688200D01*
X90313923Y-81284176D01*
X89786691Y-81065250D01*
X89215813Y-81064752D01*
X88688200Y-81282757D01*
X88284176Y-81686077D01*
X88065250Y-82213309D01*
X88064752Y-82784187D01*
X84633437Y-82784187D01*
X84476250Y-82627000D01*
X83127000Y-82627000D01*
X82873000Y-82627000D01*
X81523750Y-82627000D01*
X81365000Y-82785750D01*
X79710000Y-82785750D01*
X79710000Y-80873691D01*
X81365000Y-80873691D01*
X81365000Y-82214250D01*
X81523750Y-82373000D01*
X82873000Y-82373000D01*
X82873000Y-80523750D01*
X83127000Y-80523750D01*
X83127000Y-82373000D01*
X84476250Y-82373000D01*
X84635000Y-82214250D01*
X84635000Y-80873691D01*
X84538327Y-80640302D01*
X84359699Y-80461673D01*
X84126310Y-80365000D01*
X83285750Y-80365000D01*
X83127000Y-80523750D01*
X82873000Y-80523750D01*
X82714250Y-80365000D01*
X81873690Y-80365000D01*
X81640301Y-80461673D01*
X81461673Y-80640302D01*
X81365000Y-80873691D01*
X79710000Y-80873691D01*
X79710000Y-79026661D01*
X81602758Y-79026661D01*
X81814990Y-79540303D01*
X82207630Y-79933629D01*
X82720900Y-80146757D01*
X83276661Y-80147242D01*
X83790303Y-79935010D01*
X84183629Y-79542370D01*
X84396757Y-79029100D01*
X84396970Y-78784187D01*
X93564752Y-78784187D01*
X93782757Y-79311800D01*
X94186077Y-79715824D01*
X94713309Y-79934750D01*
X95284187Y-79935248D01*
X95811800Y-79717243D01*
X96215824Y-79313923D01*
X96434750Y-78786691D01*
X96435248Y-78215813D01*
X96217243Y-77688200D01*
X95813923Y-77284176D01*
X95286691Y-77065250D01*
X94715813Y-77064752D01*
X94188200Y-77282757D01*
X93784176Y-77686077D01*
X93565250Y-78213309D01*
X93564752Y-78784187D01*
X84396970Y-78784187D01*
X84397242Y-78473339D01*
X84185010Y-77959697D01*
X83792370Y-77566371D01*
X83279100Y-77353243D01*
X82723339Y-77352758D01*
X82209697Y-77564990D01*
X81816371Y-77957630D01*
X81603243Y-78470900D01*
X81602758Y-79026661D01*
X79710000Y-79026661D01*
X79710000Y-76450000D01*
X88852560Y-76450000D01*
X88852560Y-77950000D01*
X88896838Y-78185317D01*
X89035910Y-78401441D01*
X89248110Y-78546431D01*
X89500000Y-78597440D01*
X92500000Y-78597440D01*
X92735317Y-78553162D01*
X92951441Y-78414090D01*
X93096431Y-78201890D01*
X93147440Y-77950000D01*
X93147440Y-76450000D01*
X93103162Y-76214683D01*
X92964090Y-75998559D01*
X92751890Y-75853569D01*
X92500000Y-75802560D01*
X89500000Y-75802560D01*
X89264683Y-75846838D01*
X89048559Y-75985910D01*
X88903569Y-76198110D01*
X88852560Y-76450000D01*
X79710000Y-76450000D01*
X79710000Y-75284187D01*
X99564752Y-75284187D01*
X99782757Y-75811800D01*
X100186077Y-76215824D01*
X100713309Y-76434750D01*
X101284187Y-76435248D01*
X101811800Y-76217243D01*
X102021663Y-76007745D01*
X102671861Y-76007745D01*
X102745995Y-76253864D01*
X103283223Y-76446965D01*
X103853454Y-76419778D01*
X104254005Y-76253864D01*
X104328139Y-76007745D01*
X103500000Y-75179605D01*
X102671861Y-76007745D01*
X102021663Y-76007745D01*
X102215824Y-75813923D01*
X102243423Y-75747456D01*
X102246136Y-75754005D01*
X102492255Y-75828139D01*
X103320395Y-75000000D01*
X103679605Y-75000000D01*
X104507745Y-75828139D01*
X104753864Y-75754005D01*
X104773275Y-75700000D01*
X110052560Y-75700000D01*
X110052560Y-77300000D01*
X110096838Y-77535317D01*
X110235910Y-77751441D01*
X110448110Y-77896431D01*
X110700000Y-77947440D01*
X112300000Y-77947440D01*
X112535317Y-77903162D01*
X112751441Y-77764090D01*
X112896431Y-77551890D01*
X112905370Y-77507745D01*
X113171861Y-77507745D01*
X113245995Y-77753864D01*
X113783223Y-77946965D01*
X114353454Y-77919778D01*
X114754005Y-77753864D01*
X114828139Y-77507745D01*
X114000000Y-76679605D01*
X113171861Y-77507745D01*
X112905370Y-77507745D01*
X112944646Y-77313799D01*
X112992255Y-77328139D01*
X113820395Y-76500000D01*
X114179605Y-76500000D01*
X115007745Y-77328139D01*
X115253864Y-77254005D01*
X115345163Y-77000000D01*
X117416887Y-77000000D01*
X117526120Y-77549151D01*
X117837189Y-78014698D01*
X118302736Y-78325767D01*
X118851887Y-78435000D01*
X118908113Y-78435000D01*
X119457264Y-78325767D01*
X119922811Y-78014698D01*
X120233880Y-77549151D01*
X120343113Y-77000000D01*
X120233880Y-76450849D01*
X119922811Y-75985302D01*
X119457264Y-75674233D01*
X118908113Y-75565000D01*
X118851887Y-75565000D01*
X118302736Y-75674233D01*
X117837189Y-75985302D01*
X117526120Y-76450849D01*
X117416887Y-77000000D01*
X115345163Y-77000000D01*
X115446965Y-76716777D01*
X115419778Y-76146546D01*
X115253864Y-75745995D01*
X115007745Y-75671861D01*
X114179605Y-76500000D01*
X113820395Y-76500000D01*
X112992255Y-75671861D01*
X112944833Y-75686145D01*
X112908351Y-75492255D01*
X113171861Y-75492255D01*
X114000000Y-76320395D01*
X114828139Y-75492255D01*
X114754005Y-75246136D01*
X114216777Y-75053035D01*
X113646546Y-75080222D01*
X113245995Y-75246136D01*
X113171861Y-75492255D01*
X112908351Y-75492255D01*
X112903162Y-75464683D01*
X112764090Y-75248559D01*
X112551890Y-75103569D01*
X112300000Y-75052560D01*
X110700000Y-75052560D01*
X110464683Y-75096838D01*
X110248559Y-75235910D01*
X110103569Y-75448110D01*
X110052560Y-75700000D01*
X104773275Y-75700000D01*
X104946965Y-75216777D01*
X104919778Y-74646546D01*
X104753864Y-74245995D01*
X104507745Y-74171861D01*
X103679605Y-75000000D01*
X103320395Y-75000000D01*
X102492255Y-74171861D01*
X102246136Y-74245995D01*
X102243804Y-74252483D01*
X102217243Y-74188200D01*
X102021640Y-73992255D01*
X102671861Y-73992255D01*
X103500000Y-74820395D01*
X104328139Y-73992255D01*
X104254005Y-73746136D01*
X103716777Y-73553035D01*
X103146546Y-73580222D01*
X102745995Y-73746136D01*
X102671861Y-73992255D01*
X102021640Y-73992255D01*
X101813923Y-73784176D01*
X101286691Y-73565250D01*
X100715813Y-73564752D01*
X100188200Y-73782757D01*
X99784176Y-74186077D01*
X99565250Y-74713309D01*
X99564752Y-75284187D01*
X79710000Y-75284187D01*
X79710000Y-73985750D01*
X87465000Y-73985750D01*
X87465000Y-74576310D01*
X87561673Y-74809699D01*
X87740302Y-74988327D01*
X87973691Y-75085000D01*
X89414250Y-75085000D01*
X89573000Y-74926250D01*
X89573000Y-73827000D01*
X89827000Y-73827000D01*
X89827000Y-74926250D01*
X89985750Y-75085000D01*
X91426309Y-75085000D01*
X91659698Y-74988327D01*
X91838327Y-74809699D01*
X91935000Y-74576310D01*
X91935000Y-73985750D01*
X91776250Y-73827000D01*
X89827000Y-73827000D01*
X89573000Y-73827000D01*
X87623750Y-73827000D01*
X87465000Y-73985750D01*
X79710000Y-73985750D01*
X79710000Y-72823690D01*
X87465000Y-72823690D01*
X87465000Y-73414250D01*
X87623750Y-73573000D01*
X89573000Y-73573000D01*
X89573000Y-72473750D01*
X89827000Y-72473750D01*
X89827000Y-73573000D01*
X91776250Y-73573000D01*
X91799322Y-73549928D01*
X94965000Y-73549928D01*
X94965000Y-73610072D01*
X95081845Y-74197491D01*
X95414591Y-74695481D01*
X95912581Y-75028227D01*
X96500000Y-75145072D01*
X97087419Y-75028227D01*
X97585409Y-74695481D01*
X97918155Y-74197491D01*
X98035000Y-73610072D01*
X98035000Y-73549928D01*
X97918155Y-72962509D01*
X97585409Y-72464519D01*
X97347418Y-72305499D01*
X97672312Y-72007745D01*
X100671861Y-72007745D01*
X100745995Y-72253864D01*
X101283223Y-72446965D01*
X101853454Y-72419778D01*
X102254005Y-72253864D01*
X102328139Y-72007745D01*
X101500000Y-71179605D01*
X100671861Y-72007745D01*
X97672312Y-72007745D01*
X97737966Y-71947576D01*
X97991046Y-71404742D01*
X97870997Y-71167000D01*
X96627000Y-71167000D01*
X96627000Y-71187000D01*
X96373000Y-71187000D01*
X96373000Y-71167000D01*
X95129003Y-71167000D01*
X95008954Y-71404742D01*
X95262034Y-71947576D01*
X95652582Y-72305499D01*
X95414591Y-72464519D01*
X95081845Y-72962509D01*
X94965000Y-73549928D01*
X91799322Y-73549928D01*
X91935000Y-73414250D01*
X91935000Y-72823690D01*
X91838327Y-72590301D01*
X91659698Y-72411673D01*
X91426309Y-72315000D01*
X89985750Y-72315000D01*
X89827000Y-72473750D01*
X89573000Y-72473750D01*
X89414250Y-72315000D01*
X87973691Y-72315000D01*
X87740302Y-72411673D01*
X87561673Y-72590301D01*
X87465000Y-72823690D01*
X79710000Y-72823690D01*
X79710000Y-69285750D01*
X85315000Y-69285750D01*
X85315000Y-70726310D01*
X85411673Y-70959699D01*
X85590302Y-71138327D01*
X85823691Y-71235000D01*
X86414250Y-71235000D01*
X86573000Y-71076250D01*
X86573000Y-69127000D01*
X86827000Y-69127000D01*
X86827000Y-71076250D01*
X86985750Y-71235000D01*
X87576309Y-71235000D01*
X87809698Y-71138327D01*
X87988327Y-70959699D01*
X88085000Y-70726310D01*
X88085000Y-69285750D01*
X87926250Y-69127000D01*
X86827000Y-69127000D01*
X86573000Y-69127000D01*
X85473750Y-69127000D01*
X85315000Y-69285750D01*
X79710000Y-69285750D01*
X79710000Y-67273690D01*
X85315000Y-67273690D01*
X85315000Y-68714250D01*
X85473750Y-68873000D01*
X86573000Y-68873000D01*
X86573000Y-66923750D01*
X86827000Y-66923750D01*
X86827000Y-68873000D01*
X87926250Y-68873000D01*
X88085000Y-68714250D01*
X88085000Y-67273690D01*
X88075188Y-67250000D01*
X91502560Y-67250000D01*
X91502560Y-70750000D01*
X91546838Y-70985317D01*
X91685910Y-71201441D01*
X91898110Y-71346431D01*
X92150000Y-71397440D01*
X93650000Y-71397440D01*
X93885317Y-71353162D01*
X94101441Y-71214090D01*
X94246431Y-71001890D01*
X94297440Y-70750000D01*
X94297440Y-67600000D01*
X94952560Y-67600000D01*
X94952560Y-69400000D01*
X94996838Y-69635317D01*
X95135910Y-69851441D01*
X95348110Y-69996431D01*
X95399146Y-70006766D01*
X95262034Y-70132424D01*
X95008954Y-70675258D01*
X95129003Y-70913000D01*
X96373000Y-70913000D01*
X96373000Y-70893000D01*
X96627000Y-70893000D01*
X96627000Y-70913000D01*
X97870997Y-70913000D01*
X97936528Y-70783223D01*
X100053035Y-70783223D01*
X100080222Y-71353454D01*
X100246136Y-71754005D01*
X100492255Y-71828139D01*
X101320395Y-71000000D01*
X101679605Y-71000000D01*
X102507745Y-71828139D01*
X102753864Y-71754005D01*
X102946965Y-71216777D01*
X102919778Y-70646546D01*
X102753864Y-70245995D01*
X102507745Y-70171861D01*
X101679605Y-71000000D01*
X101320395Y-71000000D01*
X100492255Y-70171861D01*
X100246136Y-70245995D01*
X100053035Y-70783223D01*
X97936528Y-70783223D01*
X97991046Y-70675258D01*
X97737966Y-70132424D01*
X97603462Y-70009156D01*
X97635317Y-70003162D01*
X97851441Y-69864090D01*
X97996431Y-69651890D01*
X98047440Y-69400000D01*
X98047440Y-68784187D01*
X100064752Y-68784187D01*
X100282757Y-69311800D01*
X100686077Y-69715824D01*
X100752544Y-69743423D01*
X100745995Y-69746136D01*
X100671861Y-69992255D01*
X101500000Y-70820395D01*
X102328139Y-69992255D01*
X102254005Y-69746136D01*
X102247517Y-69743804D01*
X102311800Y-69717243D01*
X102715824Y-69313923D01*
X102934750Y-68786691D01*
X102935188Y-68284187D01*
X105064752Y-68284187D01*
X105282757Y-68811800D01*
X105686077Y-69215824D01*
X106213309Y-69434750D01*
X106784187Y-69435248D01*
X107311800Y-69217243D01*
X107576187Y-68953317D01*
X107661673Y-69159699D01*
X107840302Y-69338327D01*
X108073691Y-69435000D01*
X108714250Y-69435000D01*
X108873000Y-69276250D01*
X108873000Y-68127000D01*
X109127000Y-68127000D01*
X109127000Y-69276250D01*
X109285750Y-69435000D01*
X109926309Y-69435000D01*
X110159698Y-69338327D01*
X110338327Y-69159699D01*
X110435000Y-68926310D01*
X110435000Y-68700000D01*
X112552560Y-68700000D01*
X112552560Y-70300000D01*
X112596838Y-70535317D01*
X112735910Y-70751441D01*
X112948110Y-70896431D01*
X113053041Y-70917680D01*
X112784176Y-71186077D01*
X112565250Y-71713309D01*
X112564752Y-72284187D01*
X112782757Y-72811800D01*
X113186077Y-73215824D01*
X113713309Y-73434750D01*
X114284187Y-73435248D01*
X114811800Y-73217243D01*
X114937374Y-73091887D01*
X119565000Y-73091887D01*
X119565000Y-73148113D01*
X119674233Y-73697264D01*
X119985302Y-74162811D01*
X120450849Y-74473880D01*
X121000000Y-74583113D01*
X121549151Y-74473880D01*
X122014698Y-74162811D01*
X122325767Y-73697264D01*
X122435000Y-73148113D01*
X122435000Y-73091887D01*
X123565000Y-73091887D01*
X123565000Y-73148113D01*
X123674233Y-73697264D01*
X123985302Y-74162811D01*
X124450849Y-74473880D01*
X125000000Y-74583113D01*
X125549151Y-74473880D01*
X126014698Y-74162811D01*
X126325767Y-73697264D01*
X126435000Y-73148113D01*
X126435000Y-73091887D01*
X126325767Y-72542736D01*
X126014698Y-72077189D01*
X125549151Y-71766120D01*
X125000000Y-71656887D01*
X124450849Y-71766120D01*
X123985302Y-72077189D01*
X123674233Y-72542736D01*
X123565000Y-73091887D01*
X122435000Y-73091887D01*
X122325767Y-72542736D01*
X122014698Y-72077189D01*
X121549151Y-71766120D01*
X121000000Y-71656887D01*
X120450849Y-71766120D01*
X119985302Y-72077189D01*
X119674233Y-72542736D01*
X119565000Y-73091887D01*
X114937374Y-73091887D01*
X115215824Y-72813923D01*
X115434750Y-72286691D01*
X115435248Y-71715813D01*
X115217243Y-71188200D01*
X114948928Y-70919417D01*
X115035317Y-70903162D01*
X115251441Y-70764090D01*
X115396431Y-70551890D01*
X115447440Y-70300000D01*
X115447440Y-68700000D01*
X115403162Y-68464683D01*
X115264090Y-68248559D01*
X115051890Y-68103569D01*
X114800000Y-68052560D01*
X113200000Y-68052560D01*
X112964683Y-68096838D01*
X112748559Y-68235910D01*
X112603569Y-68448110D01*
X112552560Y-68700000D01*
X110435000Y-68700000D01*
X110435000Y-68285750D01*
X110276250Y-68127000D01*
X109127000Y-68127000D01*
X108873000Y-68127000D01*
X108853000Y-68127000D01*
X108853000Y-67873000D01*
X108873000Y-67873000D01*
X108873000Y-66723750D01*
X109127000Y-66723750D01*
X109127000Y-67873000D01*
X110276250Y-67873000D01*
X110435000Y-67714250D01*
X110435000Y-67073690D01*
X110338327Y-66840301D01*
X110159698Y-66661673D01*
X109926309Y-66565000D01*
X109285750Y-66565000D01*
X109127000Y-66723750D01*
X108873000Y-66723750D01*
X108714250Y-66565000D01*
X108073691Y-66565000D01*
X107840302Y-66661673D01*
X107661673Y-66840301D01*
X107576124Y-67046835D01*
X107313923Y-66784176D01*
X106786691Y-66565250D01*
X106215813Y-66564752D01*
X105688200Y-66782757D01*
X105284176Y-67186077D01*
X105065250Y-67713309D01*
X105064752Y-68284187D01*
X102935188Y-68284187D01*
X102935248Y-68215813D01*
X102717243Y-67688200D01*
X102313923Y-67284176D01*
X101786691Y-67065250D01*
X101215813Y-67064752D01*
X100688200Y-67282757D01*
X100284176Y-67686077D01*
X100065250Y-68213309D01*
X100064752Y-68784187D01*
X98047440Y-68784187D01*
X98047440Y-67600000D01*
X98003162Y-67364683D01*
X97864090Y-67148559D01*
X97651890Y-67003569D01*
X97400000Y-66952560D01*
X95600000Y-66952560D01*
X95364683Y-66996838D01*
X95148559Y-67135910D01*
X95003569Y-67348110D01*
X94952560Y-67600000D01*
X94297440Y-67600000D01*
X94297440Y-67250000D01*
X94253162Y-67014683D01*
X94114090Y-66798559D01*
X93901890Y-66653569D01*
X93650000Y-66602560D01*
X92150000Y-66602560D01*
X91914683Y-66646838D01*
X91698559Y-66785910D01*
X91553569Y-66998110D01*
X91502560Y-67250000D01*
X88075188Y-67250000D01*
X87988327Y-67040301D01*
X87809698Y-66861673D01*
X87576309Y-66765000D01*
X86985750Y-66765000D01*
X86827000Y-66923750D01*
X86573000Y-66923750D01*
X86414250Y-66765000D01*
X85823691Y-66765000D01*
X85590302Y-66861673D01*
X85411673Y-67040301D01*
X85315000Y-67273690D01*
X79710000Y-67273690D01*
X79710000Y-65784187D01*
X119564752Y-65784187D01*
X119782757Y-66311800D01*
X120186077Y-66715824D01*
X120713309Y-66934750D01*
X121284187Y-66935248D01*
X121811800Y-66717243D01*
X122215824Y-66313923D01*
X122434750Y-65786691D01*
X122434752Y-65784187D01*
X123564752Y-65784187D01*
X123782757Y-66311800D01*
X124186077Y-66715824D01*
X124713309Y-66934750D01*
X125284187Y-66935248D01*
X125811800Y-66717243D01*
X126215824Y-66313923D01*
X126434750Y-65786691D01*
X126435248Y-65215813D01*
X126217243Y-64688200D01*
X125813923Y-64284176D01*
X125286691Y-64065250D01*
X124715813Y-64064752D01*
X124188200Y-64282757D01*
X123784176Y-64686077D01*
X123565250Y-65213309D01*
X123564752Y-65784187D01*
X122434752Y-65784187D01*
X122435248Y-65215813D01*
X122217243Y-64688200D01*
X121813923Y-64284176D01*
X121286691Y-64065250D01*
X120715813Y-64064752D01*
X120188200Y-64282757D01*
X119784176Y-64686077D01*
X119565250Y-65213309D01*
X119564752Y-65784187D01*
X79710000Y-65784187D01*
X79710000Y-64284187D01*
X100064752Y-64284187D01*
X100282757Y-64811800D01*
X100686077Y-65215824D01*
X101213309Y-65434750D01*
X101784187Y-65435248D01*
X102311800Y-65217243D01*
X102715824Y-64813923D01*
X102749813Y-64732069D01*
X102782757Y-64811800D01*
X103186077Y-65215824D01*
X103713309Y-65434750D01*
X104284187Y-65435248D01*
X104811800Y-65217243D01*
X105215824Y-64813923D01*
X105434750Y-64286691D01*
X105435248Y-63715813D01*
X105384043Y-63591887D01*
X108065000Y-63591887D01*
X108065000Y-63648113D01*
X108174233Y-64197264D01*
X108485302Y-64662811D01*
X108950849Y-64973880D01*
X109500000Y-65083113D01*
X110049151Y-64973880D01*
X110514698Y-64662811D01*
X110825767Y-64197264D01*
X110871163Y-63969041D01*
X111608086Y-63969041D01*
X111847611Y-64475134D01*
X112262577Y-64851041D01*
X112650961Y-65011904D01*
X112873000Y-64889915D01*
X112873000Y-63747000D01*
X113127000Y-63747000D01*
X113127000Y-64889915D01*
X113349039Y-65011904D01*
X113737423Y-64851041D01*
X114152389Y-64475134D01*
X114391914Y-63969041D01*
X114270629Y-63747000D01*
X113127000Y-63747000D01*
X112873000Y-63747000D01*
X111729371Y-63747000D01*
X111608086Y-63969041D01*
X110871163Y-63969041D01*
X110935000Y-63648113D01*
X110935000Y-63591887D01*
X110871164Y-63270959D01*
X111608086Y-63270959D01*
X111729371Y-63493000D01*
X112873000Y-63493000D01*
X112873000Y-62350085D01*
X113127000Y-62350085D01*
X113127000Y-63493000D01*
X114270629Y-63493000D01*
X114391914Y-63270959D01*
X114152389Y-62764866D01*
X113737423Y-62388959D01*
X113484464Y-62284187D01*
X114564752Y-62284187D01*
X114782757Y-62811800D01*
X115186077Y-63215824D01*
X115713309Y-63434750D01*
X116284187Y-63435248D01*
X116811800Y-63217243D01*
X117215824Y-62813923D01*
X117434750Y-62286691D01*
X117435000Y-62000000D01*
X122156887Y-62000000D01*
X122266120Y-62549151D01*
X122577189Y-63014698D01*
X123042736Y-63325767D01*
X123591887Y-63435000D01*
X123648113Y-63435000D01*
X124197264Y-63325767D01*
X124662811Y-63014698D01*
X124973880Y-62549151D01*
X125083113Y-62000000D01*
X124973880Y-61450849D01*
X124662811Y-60985302D01*
X124197264Y-60674233D01*
X123648113Y-60565000D01*
X123591887Y-60565000D01*
X123042736Y-60674233D01*
X122577189Y-60985302D01*
X122266120Y-61450849D01*
X122156887Y-62000000D01*
X117435000Y-62000000D01*
X117435248Y-61715813D01*
X117217243Y-61188200D01*
X116813923Y-60784176D01*
X116286691Y-60565250D01*
X115715813Y-60564752D01*
X115188200Y-60782757D01*
X114784176Y-61186077D01*
X114565250Y-61713309D01*
X114564752Y-62284187D01*
X113484464Y-62284187D01*
X113349039Y-62228096D01*
X113127000Y-62350085D01*
X112873000Y-62350085D01*
X112650961Y-62228096D01*
X112262577Y-62388959D01*
X111847611Y-62764866D01*
X111608086Y-63270959D01*
X110871164Y-63270959D01*
X110825767Y-63042736D01*
X110514698Y-62577189D01*
X110049151Y-62266120D01*
X109500000Y-62156887D01*
X108950849Y-62266120D01*
X108485302Y-62577189D01*
X108174233Y-63042736D01*
X108065000Y-63591887D01*
X105384043Y-63591887D01*
X105217243Y-63188200D01*
X104813923Y-62784176D01*
X104286691Y-62565250D01*
X103715813Y-62564752D01*
X103188200Y-62782757D01*
X102784176Y-63186077D01*
X102750187Y-63267931D01*
X102717243Y-63188200D01*
X102313923Y-62784176D01*
X101786691Y-62565250D01*
X101215813Y-62564752D01*
X100688200Y-62782757D01*
X100284176Y-63186077D01*
X100065250Y-63713309D01*
X100064752Y-64284187D01*
X79710000Y-64284187D01*
X79710000Y-60526661D01*
X81602758Y-60526661D01*
X81814990Y-61040303D01*
X82207630Y-61433629D01*
X82720900Y-61646757D01*
X83276661Y-61647242D01*
X83790303Y-61435010D01*
X84183629Y-61042370D01*
X84396757Y-60529100D01*
X84397242Y-59973339D01*
X84319087Y-59784187D01*
X104064752Y-59784187D01*
X104282757Y-60311800D01*
X104686077Y-60715824D01*
X105213309Y-60934750D01*
X105784187Y-60935248D01*
X106311800Y-60717243D01*
X106715824Y-60313923D01*
X106934750Y-59786691D01*
X106935248Y-59215813D01*
X106717243Y-58688200D01*
X106313934Y-58284187D01*
X114564752Y-58284187D01*
X114782757Y-58811800D01*
X115186077Y-59215824D01*
X115713309Y-59434750D01*
X116284187Y-59435248D01*
X116811800Y-59217243D01*
X117215824Y-58813923D01*
X117434750Y-58286691D01*
X117435000Y-58000000D01*
X122156887Y-58000000D01*
X122266120Y-58549151D01*
X122577189Y-59014698D01*
X123042736Y-59325767D01*
X123591887Y-59435000D01*
X123648113Y-59435000D01*
X124197264Y-59325767D01*
X124662811Y-59014698D01*
X124973880Y-58549151D01*
X125083113Y-58000000D01*
X124973880Y-57450849D01*
X124662811Y-56985302D01*
X124197264Y-56674233D01*
X123648113Y-56565000D01*
X123591887Y-56565000D01*
X123042736Y-56674233D01*
X122577189Y-56985302D01*
X122266120Y-57450849D01*
X122156887Y-58000000D01*
X117435000Y-58000000D01*
X117435248Y-57715813D01*
X117217243Y-57188200D01*
X116813923Y-56784176D01*
X116286691Y-56565250D01*
X115715813Y-56564752D01*
X115188200Y-56782757D01*
X114784176Y-57186077D01*
X114565250Y-57713309D01*
X114564752Y-58284187D01*
X106313934Y-58284187D01*
X106313923Y-58284176D01*
X106247456Y-58256577D01*
X106254005Y-58253864D01*
X106328139Y-58007745D01*
X105500000Y-57179605D01*
X104671861Y-58007745D01*
X104745995Y-58253864D01*
X104752483Y-58256196D01*
X104688200Y-58282757D01*
X104284176Y-58686077D01*
X104065250Y-59213309D01*
X104064752Y-59784187D01*
X84319087Y-59784187D01*
X84185010Y-59459697D01*
X83792370Y-59066371D01*
X83279100Y-58853243D01*
X82723339Y-58852758D01*
X82209697Y-59064990D01*
X81816371Y-59457630D01*
X81603243Y-59970900D01*
X81602758Y-60526661D01*
X79710000Y-60526661D01*
X79710000Y-56785750D01*
X81365000Y-56785750D01*
X81365000Y-58126309D01*
X81461673Y-58359698D01*
X81640301Y-58538327D01*
X81873690Y-58635000D01*
X82714250Y-58635000D01*
X82873000Y-58476250D01*
X82873000Y-56627000D01*
X83127000Y-56627000D01*
X83127000Y-58476250D01*
X83285750Y-58635000D01*
X84126310Y-58635000D01*
X84359699Y-58538327D01*
X84538327Y-58359698D01*
X84635000Y-58126309D01*
X84635000Y-56785750D01*
X84633437Y-56784187D01*
X88064752Y-56784187D01*
X88282757Y-57311800D01*
X88686077Y-57715824D01*
X89213309Y-57934750D01*
X89784187Y-57935248D01*
X90311800Y-57717243D01*
X90715824Y-57313923D01*
X90934750Y-56786691D01*
X90934753Y-56783223D01*
X104053035Y-56783223D01*
X104080222Y-57353454D01*
X104246136Y-57754005D01*
X104492255Y-57828139D01*
X105320395Y-57000000D01*
X105679605Y-57000000D01*
X106507745Y-57828139D01*
X106753864Y-57754005D01*
X106946965Y-57216777D01*
X106919778Y-56646546D01*
X106769684Y-56284187D01*
X108064752Y-56284187D01*
X108282757Y-56811800D01*
X108686077Y-57215824D01*
X109213309Y-57434750D01*
X109784187Y-57435248D01*
X110311800Y-57217243D01*
X110715824Y-56813923D01*
X110934750Y-56286691D01*
X110934752Y-56284187D01*
X111564752Y-56284187D01*
X111782757Y-56811800D01*
X112186077Y-57215824D01*
X112713309Y-57434750D01*
X113284187Y-57435248D01*
X113811800Y-57217243D01*
X114215824Y-56813923D01*
X114434750Y-56286691D01*
X114435248Y-55715813D01*
X114217243Y-55188200D01*
X113813934Y-54784187D01*
X114564752Y-54784187D01*
X114782757Y-55311800D01*
X115186077Y-55715824D01*
X115713309Y-55934750D01*
X116284187Y-55935248D01*
X116811800Y-55717243D01*
X117215824Y-55313923D01*
X117434750Y-54786691D01*
X117435000Y-54500000D01*
X122156887Y-54500000D01*
X122266120Y-55049151D01*
X122577189Y-55514698D01*
X123042736Y-55825767D01*
X123591887Y-55935000D01*
X123648113Y-55935000D01*
X124197264Y-55825767D01*
X124662811Y-55514698D01*
X124973880Y-55049151D01*
X125083113Y-54500000D01*
X124973880Y-53950849D01*
X124662811Y-53485302D01*
X124197264Y-53174233D01*
X123648113Y-53065000D01*
X123591887Y-53065000D01*
X123042736Y-53174233D01*
X122577189Y-53485302D01*
X122266120Y-53950849D01*
X122156887Y-54500000D01*
X117435000Y-54500000D01*
X117435248Y-54215813D01*
X117217243Y-53688200D01*
X116813923Y-53284176D01*
X116286691Y-53065250D01*
X115715813Y-53064752D01*
X115188200Y-53282757D01*
X114784176Y-53686077D01*
X114565250Y-54213309D01*
X114564752Y-54784187D01*
X113813934Y-54784187D01*
X113813923Y-54784176D01*
X113286691Y-54565250D01*
X112715813Y-54564752D01*
X112188200Y-54782757D01*
X111784176Y-55186077D01*
X111565250Y-55713309D01*
X111564752Y-56284187D01*
X110934752Y-56284187D01*
X110935248Y-55715813D01*
X110717243Y-55188200D01*
X110313923Y-54784176D01*
X109786691Y-54565250D01*
X109215813Y-54564752D01*
X108688200Y-54782757D01*
X108284176Y-55186077D01*
X108065250Y-55713309D01*
X108064752Y-56284187D01*
X106769684Y-56284187D01*
X106753864Y-56245995D01*
X106507745Y-56171861D01*
X105679605Y-57000000D01*
X105320395Y-57000000D01*
X104492255Y-56171861D01*
X104246136Y-56245995D01*
X104053035Y-56783223D01*
X90934753Y-56783223D01*
X90935248Y-56215813D01*
X90842876Y-55992255D01*
X104671861Y-55992255D01*
X105500000Y-56820395D01*
X106328139Y-55992255D01*
X106254005Y-55746136D01*
X105716777Y-55553035D01*
X105146546Y-55580222D01*
X104745995Y-55746136D01*
X104671861Y-55992255D01*
X90842876Y-55992255D01*
X90717243Y-55688200D01*
X90313923Y-55284176D01*
X89786691Y-55065250D01*
X89215813Y-55064752D01*
X88688200Y-55282757D01*
X88284176Y-55686077D01*
X88065250Y-56213309D01*
X88064752Y-56784187D01*
X84633437Y-56784187D01*
X84476250Y-56627000D01*
X83127000Y-56627000D01*
X82873000Y-56627000D01*
X81523750Y-56627000D01*
X81365000Y-56785750D01*
X79710000Y-56785750D01*
X79710000Y-54873691D01*
X81365000Y-54873691D01*
X81365000Y-56214250D01*
X81523750Y-56373000D01*
X82873000Y-56373000D01*
X82873000Y-54523750D01*
X83127000Y-54523750D01*
X83127000Y-56373000D01*
X84476250Y-56373000D01*
X84635000Y-56214250D01*
X84635000Y-54873691D01*
X84538327Y-54640302D01*
X84359699Y-54461673D01*
X84126310Y-54365000D01*
X83285750Y-54365000D01*
X83127000Y-54523750D01*
X82873000Y-54523750D01*
X82714250Y-54365000D01*
X81873690Y-54365000D01*
X81640301Y-54461673D01*
X81461673Y-54640302D01*
X81365000Y-54873691D01*
X79710000Y-54873691D01*
X79710000Y-53026661D01*
X81602758Y-53026661D01*
X81814990Y-53540303D01*
X82207630Y-53933629D01*
X82720900Y-54146757D01*
X83276661Y-54147242D01*
X83790303Y-53935010D01*
X84183629Y-53542370D01*
X84297414Y-53268344D01*
X103644765Y-53268344D01*
X103850617Y-53766543D01*
X104231452Y-54148043D01*
X104729291Y-54354764D01*
X105268344Y-54355235D01*
X105766543Y-54149383D01*
X106148043Y-53768548D01*
X106354764Y-53270709D01*
X106354766Y-53268344D01*
X108724765Y-53268344D01*
X108930617Y-53766543D01*
X109311452Y-54148043D01*
X109809291Y-54354764D01*
X110348344Y-54355235D01*
X110846543Y-54149383D01*
X111228043Y-53768548D01*
X111434764Y-53270709D01*
X111435235Y-52731656D01*
X111229383Y-52233457D01*
X110848548Y-51851957D01*
X110350709Y-51645236D01*
X109811656Y-51644765D01*
X109313457Y-51850617D01*
X108931957Y-52231452D01*
X108725236Y-52729291D01*
X108724765Y-53268344D01*
X106354766Y-53268344D01*
X106355235Y-52731656D01*
X106149383Y-52233457D01*
X105768548Y-51851957D01*
X105270709Y-51645236D01*
X104731656Y-51644765D01*
X104233457Y-51850617D01*
X103851957Y-52231452D01*
X103645236Y-52729291D01*
X103644765Y-53268344D01*
X84297414Y-53268344D01*
X84396757Y-53029100D01*
X84397242Y-52473339D01*
X84185010Y-51959697D01*
X83792370Y-51566371D01*
X83279100Y-51353243D01*
X82723339Y-51352758D01*
X82209697Y-51564990D01*
X81816371Y-51957630D01*
X81603243Y-52470900D01*
X81602758Y-53026661D01*
X79710000Y-53026661D01*
X79710000Y-50450000D01*
X88852560Y-50450000D01*
X88852560Y-51950000D01*
X88896838Y-52185317D01*
X89035910Y-52401441D01*
X89248110Y-52546431D01*
X89500000Y-52597440D01*
X92500000Y-52597440D01*
X92735317Y-52553162D01*
X92951441Y-52414090D01*
X93096431Y-52201890D01*
X93142778Y-51973024D01*
X93282757Y-52311800D01*
X93686077Y-52715824D01*
X94213309Y-52934750D01*
X94784187Y-52935248D01*
X95311800Y-52717243D01*
X95715824Y-52313923D01*
X95934750Y-51786691D01*
X95935000Y-51500000D01*
X100656887Y-51500000D01*
X100766120Y-52049151D01*
X101077189Y-52514698D01*
X101542736Y-52825767D01*
X102091887Y-52935000D01*
X102148113Y-52935000D01*
X102697264Y-52825767D01*
X103162811Y-52514698D01*
X103473880Y-52049151D01*
X103583113Y-51500000D01*
X103473880Y-50950849D01*
X103162811Y-50485302D01*
X102697264Y-50174233D01*
X102148113Y-50065000D01*
X102091887Y-50065000D01*
X101542736Y-50174233D01*
X101077189Y-50485302D01*
X100766120Y-50950849D01*
X100656887Y-51500000D01*
X95935000Y-51500000D01*
X95935248Y-51215813D01*
X95717243Y-50688200D01*
X95313923Y-50284176D01*
X94786691Y-50065250D01*
X94215813Y-50064752D01*
X93688200Y-50282757D01*
X93284176Y-50686077D01*
X93147440Y-51015374D01*
X93147440Y-50450000D01*
X93103162Y-50214683D01*
X92964090Y-49998559D01*
X92751890Y-49853569D01*
X92500000Y-49802560D01*
X89500000Y-49802560D01*
X89264683Y-49846838D01*
X89048559Y-49985910D01*
X88903569Y-50198110D01*
X88852560Y-50450000D01*
X79710000Y-50450000D01*
X79710000Y-49710000D01*
X106384255Y-49710000D01*
X106185236Y-50189291D01*
M02*
