M48
;DRILL file {KiCad 4.0.6} date 03/19/18 00:55:22
;FORMAT={-:-/ absolute / metric / decimal}
FMAT,2
METRIC,TZ
T1C0.400
T2C0.800
T3C0.889
T4C1.000
T5C1.400
T6C1.575
%
G90
G05
M71
T1
X100.888Y-83.618
X101.216Y-54.02
X107.47Y-72.91
X122.832Y-80.242
T2
X94.5Y-51.5
X95.Y-78.5
X95.Y-86.12
X97.Y-98.38
X97.Y-106.
X100.Y-91.5
X101.Y-75.
X101.5Y-64.
X101.5Y-68.5
X101.5Y-71.
X101.5Y-98.38
X101.5Y-106.
X102.12Y-51.5
X102.5Y-91.5
X103.5Y-75.
X104.Y-64.
X104.5Y-81.5
X104.5Y-89.12
X105.Y-53.
X105.Y-94.5
X105.5Y-57.
X105.5Y-59.5
X106.5Y-68.
X107.54Y-50.46
X107.54Y-91.96
X108.Y-81.
X108.Y-88.62
X109.Y-68.
X109.5Y-56.
X109.5Y-63.62
X110.08Y-53.
X110.08Y-94.5
X111.5Y-76.5
X111.5Y-81.38
X111.5Y-89.
X113.Y-56.
X113.Y-63.62
X114.Y-69.5
X114.Y-72.
X114.Y-76.5
X115.Y-81.38
X115.Y-89.
X116.Y-51.
X116.Y-54.5
X116.Y-58.
X116.Y-62.
X118.88Y-77.
X119.Y-80.5
X119.Y-84.
X119.Y-87.5
X121.Y-65.5
X121.Y-73.12
X123.62Y-51.
X123.62Y-54.5
X123.62Y-58.
X123.62Y-62.
X125.Y-65.5
X125.Y-73.12
X126.5Y-77.
X126.62Y-80.5
X126.62Y-84.
X126.62Y-87.5
T3
X86.112Y-96.31
X86.112Y-98.342
X86.112Y-100.374
X86.112Y-102.406
X87.89Y-95.294
X87.89Y-97.326
X87.89Y-99.358
X87.89Y-101.39
X119.61Y-96.61
X119.61Y-98.642
X119.61Y-100.674
X119.61Y-102.706
X121.388Y-95.594
X121.388Y-97.626
X121.388Y-99.658
X121.388Y-101.69
T4
X96.5Y-68.5
X96.5Y-71.04
X96.5Y-73.58
T6
X87.509Y-90.722
X87.509Y-106.978
X119.991Y-91.022
X119.991Y-107.278
T4
X86.7Y-68.15G85X86.7Y-69.85
G05
X88.85Y-73.7G85X90.55Y-73.7
G05
X90.35Y-51.2G85X91.65Y-51.2
G05
X90.35Y-77.2G85X91.65Y-77.2
G05
X92.9Y-68.05G85X92.9Y-69.95
G05
T5
X83.Y-56.95G85X83.Y-56.05
G05
X83.Y-82.95G85X83.Y-82.05
G05
T0
M30
