G04 #@! TF.FileFunction,Legend,Top*
%FSLAX46Y46*%
G04 Gerber Fmt 4.6, Leading zero omitted, Abs format (unit mm)*
G04 Created by KiCad (PCBNEW 4.0.5) date 03/12/18 21:03:07*
%MOMM*%
%LPD*%
G01*
G04 APERTURE LIST*
%ADD10C,0.100000*%
%ADD11C,0.150000*%
%ADD12C,0.120000*%
%ADD13C,0.152400*%
%ADD14C,0.099060*%
G04 APERTURE END LIST*
D10*
D11*
X131770381Y-116300285D02*
X131770381Y-116871714D01*
X131770381Y-116586000D02*
X130770381Y-116586000D01*
X130913238Y-116681238D01*
X131008476Y-116776476D01*
X131056095Y-116871714D01*
D12*
X112400000Y-94740000D02*
X112400000Y-93320000D01*
X119000000Y-95500000D02*
X119000000Y-93320000D01*
X119000000Y-88900000D02*
X119000000Y-91080000D01*
X112400000Y-89660000D02*
X112400000Y-91080000D01*
X119000000Y-95500000D02*
X113160000Y-95500000D01*
X113160000Y-95500000D02*
X112400000Y-94740000D01*
X112400000Y-89660000D02*
X113160000Y-88900000D01*
X113160000Y-88900000D02*
X119000000Y-88900000D01*
X148220000Y-93300000D02*
X148220000Y-91300000D01*
X146180000Y-91300000D02*
X146180000Y-93300000D01*
X150620000Y-93300000D02*
X150620000Y-91300000D01*
X148580000Y-91300000D02*
X148580000Y-93300000D01*
X154020000Y-79000000D02*
X154020000Y-77000000D01*
X151980000Y-77000000D02*
X151980000Y-79000000D01*
X169275000Y-87155000D02*
X167275000Y-87155000D01*
X167275000Y-89195000D02*
X169275000Y-89195000D01*
X175520000Y-85500000D02*
X175520000Y-83500000D01*
X173480000Y-83500000D02*
X173480000Y-85500000D01*
X170700000Y-77420000D02*
X172700000Y-77420000D01*
X172700000Y-75380000D02*
X170700000Y-75380000D01*
X177820000Y-77200000D02*
X177820000Y-75200000D01*
X175780000Y-75200000D02*
X175780000Y-77200000D01*
X166770000Y-84500000D02*
X166770000Y-82500000D01*
X164730000Y-82500000D02*
X164730000Y-84500000D01*
X150770000Y-79000000D02*
X150770000Y-77000000D01*
X148730000Y-77000000D02*
X148730000Y-79000000D01*
X160500000Y-91480000D02*
X158500000Y-91480000D01*
X158500000Y-93520000D02*
X160500000Y-93520000D01*
X128220000Y-78400000D02*
X128220000Y-76400000D01*
X126180000Y-76400000D02*
X126180000Y-78400000D01*
X122200000Y-94740000D02*
X122200000Y-93320000D01*
X128800000Y-95500000D02*
X128800000Y-93320000D01*
X128800000Y-88900000D02*
X128800000Y-91080000D01*
X122200000Y-89660000D02*
X122200000Y-91080000D01*
X128800000Y-95500000D02*
X122960000Y-95500000D01*
X122960000Y-95500000D02*
X122200000Y-94740000D01*
X122200000Y-89660000D02*
X122960000Y-88900000D01*
X122960000Y-88900000D02*
X128800000Y-88900000D01*
X120700000Y-87140000D02*
X120700000Y-85720000D01*
X127300000Y-87900000D02*
X127300000Y-85720000D01*
X127300000Y-81300000D02*
X127300000Y-83480000D01*
X120700000Y-82060000D02*
X120700000Y-83480000D01*
X127300000Y-87900000D02*
X121460000Y-87900000D01*
X121460000Y-87900000D02*
X120700000Y-87140000D01*
X120700000Y-82060000D02*
X121460000Y-81300000D01*
X121460000Y-81300000D02*
X127300000Y-81300000D01*
X170020000Y-114300000D02*
X170020000Y-112300000D01*
X167980000Y-112300000D02*
X167980000Y-114300000D01*
X144250000Y-114270000D02*
X146250000Y-114270000D01*
X146250000Y-112230000D02*
X144250000Y-112230000D01*
X144250000Y-105270000D02*
X146250000Y-105270000D01*
X146250000Y-103230000D02*
X144250000Y-103230000D01*
X146250000Y-107730000D02*
X144250000Y-107730000D01*
X144250000Y-109770000D02*
X146250000Y-109770000D01*
X146250000Y-109980000D02*
X144250000Y-109980000D01*
X144250000Y-112020000D02*
X146250000Y-112020000D01*
X144250000Y-116520000D02*
X146250000Y-116520000D01*
X146250000Y-114480000D02*
X144250000Y-114480000D01*
X144250000Y-107520000D02*
X146250000Y-107520000D01*
X146250000Y-105480000D02*
X144250000Y-105480000D01*
X176620000Y-114600000D02*
X176620000Y-112600000D01*
X174580000Y-112600000D02*
X174580000Y-114600000D01*
X149730000Y-112500000D02*
X149730000Y-114500000D01*
X151770000Y-114500000D02*
X151770000Y-112500000D01*
X161020000Y-114300000D02*
X161020000Y-112300000D01*
X158980000Y-112300000D02*
X158980000Y-114300000D01*
X162450000Y-128040000D02*
X162450000Y-126620000D01*
X169050000Y-128800000D02*
X169050000Y-126620000D01*
X169050000Y-122200000D02*
X169050000Y-124380000D01*
X162450000Y-122960000D02*
X162450000Y-124380000D01*
X169050000Y-128800000D02*
X163210000Y-128800000D01*
X163210000Y-128800000D02*
X162450000Y-128040000D01*
X162450000Y-122960000D02*
X163210000Y-122200000D01*
X163210000Y-122200000D02*
X169050000Y-122200000D01*
X165520000Y-114300000D02*
X165520000Y-112300000D01*
X163480000Y-112300000D02*
X163480000Y-114300000D01*
X151450000Y-128040000D02*
X151450000Y-126620000D01*
X158050000Y-128800000D02*
X158050000Y-126620000D01*
X158050000Y-122200000D02*
X158050000Y-124380000D01*
X151450000Y-122960000D02*
X151450000Y-124380000D01*
X158050000Y-128800000D02*
X152210000Y-128800000D01*
X152210000Y-128800000D02*
X151450000Y-128040000D01*
X151450000Y-122960000D02*
X152210000Y-122200000D01*
X152210000Y-122200000D02*
X158050000Y-122200000D01*
X167770000Y-114300000D02*
X167770000Y-112300000D01*
X165730000Y-112300000D02*
X165730000Y-114300000D01*
X163270000Y-114300000D02*
X163270000Y-112300000D01*
X161230000Y-112300000D02*
X161230000Y-114300000D01*
X131600000Y-81750000D02*
X129600000Y-81750000D01*
X129600000Y-81750000D02*
X129600000Y-85650000D01*
X131600000Y-81750000D02*
X131600000Y-85650000D01*
D11*
X162117000Y-73287000D02*
X162117000Y-90940000D01*
X156783000Y-90940000D02*
X156783000Y-73160000D01*
X162117000Y-73160000D02*
X156783000Y-73160000D01*
X156783000Y-90940000D02*
X162117000Y-90940000D01*
X158815000Y-90940000D02*
X158815000Y-89670000D01*
X158815000Y-89670000D02*
X160085000Y-89670000D01*
X160085000Y-89670000D02*
X160085000Y-90940000D01*
X193005000Y-69190000D02*
X208245000Y-69190000D01*
X193005000Y-88240000D02*
X208245000Y-88240000D01*
X193005000Y-88240000D02*
X193005000Y-69190000D01*
X208245000Y-88240000D02*
X208245000Y-69190000D01*
D12*
X165550000Y-99300000D02*
X165550000Y-101300000D01*
X164650000Y-99300000D02*
X164650000Y-101300000D01*
X165550000Y-101300000D02*
X164650000Y-101300000D01*
X165550000Y-99300000D02*
X164650000Y-99300000D01*
X170700000Y-73030000D02*
X172700000Y-73030000D01*
X172700000Y-75170000D02*
X170700000Y-75170000D01*
D11*
X144200000Y-83600000D02*
X132200000Y-83600000D01*
X144200000Y-95600000D02*
X144200000Y-83600000D01*
X132200000Y-95600000D02*
X144200000Y-95600000D01*
X132200000Y-95600000D02*
X132200000Y-83600000D01*
D12*
X175330000Y-125480000D02*
X175330000Y-122880000D01*
X175330000Y-122880000D02*
X172670000Y-122880000D01*
X172670000Y-122880000D02*
X172670000Y-125480000D01*
X172670000Y-125480000D02*
X175330000Y-125480000D01*
X175330000Y-126750000D02*
X175330000Y-128080000D01*
X175330000Y-128080000D02*
X174000000Y-128080000D01*
X141530000Y-79170000D02*
X133850000Y-79170000D01*
X133850000Y-79170000D02*
X133850000Y-81830000D01*
X133850000Y-81830000D02*
X141530000Y-81830000D01*
X141530000Y-81830000D02*
X141530000Y-79170000D01*
X142800000Y-79170000D02*
X144130000Y-79170000D01*
X144130000Y-79170000D02*
X144130000Y-80500000D01*
X107270000Y-103570000D02*
X107270000Y-111250000D01*
X107270000Y-111250000D02*
X109930000Y-111250000D01*
X109930000Y-111250000D02*
X109930000Y-103570000D01*
X109930000Y-103570000D02*
X107270000Y-103570000D01*
X107270000Y-102300000D02*
X107270000Y-100970000D01*
X107270000Y-100970000D02*
X108600000Y-100970000D01*
X107270000Y-91670000D02*
X107270000Y-99350000D01*
X107270000Y-99350000D02*
X109930000Y-99350000D01*
X109930000Y-99350000D02*
X109930000Y-91670000D01*
X109930000Y-91670000D02*
X107270000Y-91670000D01*
X107270000Y-90400000D02*
X107270000Y-89070000D01*
X107270000Y-89070000D02*
X108600000Y-89070000D01*
X136470000Y-76930000D02*
X144150000Y-76930000D01*
X144150000Y-76930000D02*
X144150000Y-74270000D01*
X144150000Y-74270000D02*
X136470000Y-74270000D01*
X136470000Y-74270000D02*
X136470000Y-76930000D01*
X135200000Y-76930000D02*
X133870000Y-76930000D01*
X133870000Y-76930000D02*
X133870000Y-75600000D01*
X180930000Y-123730000D02*
X180930000Y-110970000D01*
X180930000Y-110970000D02*
X178270000Y-110970000D01*
X178270000Y-110970000D02*
X178270000Y-123730000D01*
X178270000Y-123730000D02*
X180930000Y-123730000D01*
X180930000Y-125000000D02*
X180930000Y-126330000D01*
X180930000Y-126330000D02*
X179600000Y-126330000D01*
X123490000Y-72210000D02*
X146410000Y-72210000D01*
X146410000Y-72210000D02*
X146410000Y-69550000D01*
X146410000Y-69550000D02*
X123490000Y-69550000D01*
X123490000Y-69550000D02*
X123490000Y-72210000D01*
X122220000Y-72210000D02*
X120890000Y-72210000D01*
X120890000Y-72210000D02*
X120890000Y-70880000D01*
X150420000Y-72190000D02*
X168260000Y-72190000D01*
X168260000Y-72190000D02*
X168260000Y-69530000D01*
X168260000Y-69530000D02*
X150420000Y-69530000D01*
X150420000Y-69530000D02*
X150420000Y-72190000D01*
X149150000Y-72190000D02*
X147820000Y-72190000D01*
X147820000Y-72190000D02*
X147820000Y-70860000D01*
X173230000Y-72170000D02*
X191070000Y-72170000D01*
X191070000Y-72170000D02*
X191070000Y-69510000D01*
X191070000Y-69510000D02*
X173230000Y-69510000D01*
X173230000Y-69510000D02*
X173230000Y-72170000D01*
X171960000Y-72170000D02*
X170630000Y-72170000D01*
X170630000Y-72170000D02*
X170630000Y-70840000D01*
X132570000Y-120460000D02*
X150410000Y-120460000D01*
X150410000Y-120460000D02*
X150410000Y-117800000D01*
X150410000Y-117800000D02*
X132570000Y-117800000D01*
X132570000Y-117800000D02*
X132570000Y-120460000D01*
X131300000Y-120460000D02*
X129970000Y-120460000D01*
X129970000Y-120460000D02*
X129970000Y-119130000D01*
X155440000Y-120480000D02*
X173280000Y-120480000D01*
X173280000Y-120480000D02*
X173280000Y-117820000D01*
X173280000Y-117820000D02*
X155440000Y-117820000D01*
X155440000Y-117820000D02*
X155440000Y-120480000D01*
X154170000Y-120480000D02*
X152840000Y-120480000D01*
X152840000Y-120480000D02*
X152840000Y-119150000D01*
X170870000Y-92460000D02*
X170870000Y-97600000D01*
X170870000Y-97600000D02*
X165670000Y-97600000D01*
X165670000Y-97600000D02*
X165670000Y-89860000D01*
X165670000Y-89860000D02*
X168270000Y-89860000D01*
X168270000Y-89860000D02*
X168270000Y-92460000D01*
X168270000Y-92460000D02*
X170870000Y-92460000D01*
X170870000Y-91190000D02*
X170870000Y-89860000D01*
X170870000Y-89860000D02*
X169600000Y-89860000D01*
X136330000Y-104270000D02*
X131190000Y-104270000D01*
X131190000Y-104270000D02*
X131190000Y-106930000D01*
X131190000Y-106930000D02*
X136330000Y-106930000D01*
X136330000Y-106930000D02*
X136330000Y-104270000D01*
X137600000Y-104270000D02*
X138930000Y-104270000D01*
X138930000Y-104270000D02*
X138930000Y-105600000D01*
X136330000Y-108770000D02*
X131190000Y-108770000D01*
X131190000Y-108770000D02*
X131190000Y-111430000D01*
X131190000Y-111430000D02*
X136330000Y-111430000D01*
X136330000Y-111430000D02*
X136330000Y-108770000D01*
X137600000Y-108770000D02*
X138930000Y-108770000D01*
X138930000Y-108770000D02*
X138930000Y-110100000D01*
X136330000Y-113370000D02*
X131190000Y-113370000D01*
X131190000Y-113370000D02*
X131190000Y-116030000D01*
X131190000Y-116030000D02*
X136330000Y-116030000D01*
X136330000Y-116030000D02*
X136330000Y-113370000D01*
X137600000Y-113370000D02*
X138930000Y-113370000D01*
X138930000Y-113370000D02*
X138930000Y-114700000D01*
X131670000Y-124270000D02*
X131670000Y-129410000D01*
X131670000Y-129410000D02*
X134330000Y-129410000D01*
X134330000Y-129410000D02*
X134330000Y-124270000D01*
X134330000Y-124270000D02*
X131670000Y-124270000D01*
X131670000Y-123000000D02*
X131670000Y-121670000D01*
X131670000Y-121670000D02*
X133000000Y-121670000D01*
X137420000Y-124270000D02*
X137420000Y-129410000D01*
X137420000Y-129410000D02*
X140080000Y-129410000D01*
X140080000Y-129410000D02*
X140080000Y-124270000D01*
X140080000Y-124270000D02*
X137420000Y-124270000D01*
X137420000Y-123000000D02*
X137420000Y-121670000D01*
X137420000Y-121670000D02*
X138750000Y-121670000D01*
X143170000Y-124270000D02*
X143170000Y-129410000D01*
X143170000Y-129410000D02*
X145830000Y-129410000D01*
X145830000Y-129410000D02*
X145830000Y-124270000D01*
X145830000Y-124270000D02*
X143170000Y-124270000D01*
X143170000Y-123000000D02*
X143170000Y-121670000D01*
X143170000Y-121670000D02*
X144500000Y-121670000D01*
X111200000Y-96550000D02*
X111200000Y-102500000D01*
X111200000Y-102500000D02*
X163800000Y-102500000D01*
X163800000Y-102500000D02*
X163800000Y-96550000D01*
X163800000Y-96550000D02*
X111200000Y-96550000D01*
X114500000Y-96550000D02*
X114500000Y-97300000D01*
X114500000Y-97300000D02*
X160500000Y-97300000D01*
X160500000Y-97300000D02*
X160500000Y-96550000D01*
X160500000Y-96550000D02*
X114500000Y-96550000D01*
X111200000Y-96550000D02*
X111200000Y-97300000D01*
X111200000Y-97300000D02*
X113000000Y-97300000D01*
X113000000Y-97300000D02*
X113000000Y-96550000D01*
X113000000Y-96550000D02*
X111200000Y-96550000D01*
X162000000Y-96550000D02*
X162000000Y-97300000D01*
X162000000Y-97300000D02*
X163800000Y-97300000D01*
X163800000Y-97300000D02*
X163800000Y-96550000D01*
X163800000Y-96550000D02*
X162000000Y-96550000D01*
X111200000Y-98800000D02*
X111950000Y-98800000D01*
X111950000Y-98800000D02*
X111950000Y-101750000D01*
X111950000Y-101750000D02*
X137500000Y-101750000D01*
X163800000Y-98800000D02*
X163050000Y-98800000D01*
X163050000Y-98800000D02*
X163050000Y-101750000D01*
X163050000Y-101750000D02*
X137500000Y-101750000D01*
X113400000Y-96250000D02*
X110900000Y-96250000D01*
X110900000Y-96250000D02*
X110900000Y-98750000D01*
X166750000Y-77680000D02*
X168750000Y-77680000D01*
X168750000Y-79820000D02*
X166750000Y-79820000D01*
X167180000Y-84500000D02*
X167180000Y-82500000D01*
X169320000Y-82500000D02*
X169320000Y-84500000D01*
X173180000Y-82750000D02*
X173180000Y-83750000D01*
X171820000Y-83750000D02*
X171820000Y-82750000D01*
X170070000Y-83750000D02*
X170070000Y-82750000D01*
X171430000Y-82750000D02*
X171430000Y-83750000D01*
X166850000Y-74430000D02*
X165850000Y-74430000D01*
X165850000Y-73070000D02*
X166850000Y-73070000D01*
X165850000Y-74620000D02*
X166850000Y-74620000D01*
X166850000Y-75980000D02*
X165850000Y-75980000D01*
X192430000Y-94250000D02*
X192430000Y-92250000D01*
X194570000Y-92250000D02*
X194570000Y-94250000D01*
X197700000Y-89630000D02*
X199700000Y-89630000D01*
X199700000Y-91770000D02*
X197700000Y-91770000D01*
X145830000Y-86100000D02*
X145830000Y-84100000D01*
X147970000Y-84100000D02*
X147970000Y-86100000D01*
X148330000Y-86100000D02*
X148330000Y-84100000D01*
X150470000Y-84100000D02*
X150470000Y-86100000D01*
X170250000Y-102570000D02*
X168250000Y-102570000D01*
X168250000Y-100430000D02*
X170250000Y-100430000D01*
X170250000Y-107320000D02*
X168250000Y-107320000D01*
X168250000Y-105180000D02*
X170250000Y-105180000D01*
X168250000Y-107430000D02*
X170250000Y-107430000D01*
X170250000Y-109570000D02*
X168250000Y-109570000D01*
X168250000Y-102680000D02*
X170250000Y-102680000D01*
X170250000Y-104820000D02*
X168250000Y-104820000D01*
X171930000Y-114750000D02*
X171930000Y-112750000D01*
X174070000Y-112750000D02*
X174070000Y-114750000D01*
X175820000Y-91500000D02*
X175820000Y-93500000D01*
X173680000Y-93500000D02*
X173680000Y-91500000D01*
X188930000Y-106000000D02*
X188930000Y-104000000D01*
X191070000Y-104000000D02*
X191070000Y-106000000D01*
X186680000Y-106000000D02*
X186680000Y-104000000D01*
X188820000Y-104000000D02*
X188820000Y-106000000D01*
X186680000Y-99250000D02*
X186680000Y-97250000D01*
X188820000Y-97250000D02*
X188820000Y-99250000D01*
X188930000Y-99250000D02*
X188930000Y-97250000D01*
X191070000Y-97250000D02*
X191070000Y-99250000D01*
X182180000Y-99250000D02*
X182180000Y-97250000D01*
X184320000Y-97250000D02*
X184320000Y-99250000D01*
X184430000Y-99250000D02*
X184430000Y-97250000D01*
X186570000Y-97250000D02*
X186570000Y-99250000D01*
X189430000Y-91250000D02*
X189430000Y-89250000D01*
X191570000Y-89250000D02*
X191570000Y-91250000D01*
X186680000Y-91250000D02*
X186680000Y-89250000D01*
X188820000Y-89250000D02*
X188820000Y-91250000D01*
X183930000Y-91250000D02*
X183930000Y-89250000D01*
X186070000Y-89250000D02*
X186070000Y-91250000D01*
X181180000Y-91250000D02*
X181180000Y-89250000D01*
X183320000Y-89250000D02*
X183320000Y-91250000D01*
D13*
X194500000Y-105750000D02*
X194750000Y-105750000D01*
X194750000Y-105750000D02*
X194750000Y-108750000D01*
X194750000Y-108750000D02*
X194500000Y-108750000D01*
X192500000Y-105750000D02*
X192250000Y-105750000D01*
X192250000Y-105750000D02*
X192250000Y-108750000D01*
X192250000Y-108750000D02*
X192500000Y-108750000D01*
D11*
X189310000Y-86250000D02*
X189310000Y-73550000D01*
X189310000Y-73550000D02*
X181690000Y-73550000D01*
X181690000Y-73550000D02*
X181690000Y-86250000D01*
X181690000Y-86250000D02*
X189310000Y-86250000D01*
D12*
X107500000Y-81150000D02*
X107500000Y-82650000D01*
X107500000Y-82650000D02*
X108450000Y-82650000D01*
X108450000Y-82650000D02*
X108450000Y-87775000D01*
X117900000Y-81150000D02*
X117900000Y-82650000D01*
X117900000Y-82650000D02*
X116950000Y-82650000D01*
X116950000Y-82650000D02*
X116950000Y-83750000D01*
D11*
X182500000Y-111750000D02*
X206500000Y-111750000D01*
X206500000Y-127750000D02*
X206500000Y-111750000D01*
X182500000Y-127750000D02*
X206500000Y-127750000D01*
X182500000Y-111750000D02*
X182500000Y-127750000D01*
D12*
X155900000Y-111890000D02*
X154100000Y-111890000D01*
X154100000Y-115110000D02*
X157050000Y-115110000D01*
D11*
X153575000Y-106825000D02*
X153575000Y-107000000D01*
X156925000Y-106825000D02*
X156925000Y-107075000D01*
X156925000Y-110175000D02*
X156925000Y-109925000D01*
X153575000Y-110175000D02*
X153575000Y-109925000D01*
X153575000Y-106825000D02*
X156925000Y-106825000D01*
X153575000Y-110175000D02*
X156925000Y-110175000D01*
X153575000Y-107000000D02*
X152325000Y-107000000D01*
X153575000Y-103075000D02*
X153575000Y-103250000D01*
X156925000Y-103075000D02*
X156925000Y-103325000D01*
X156925000Y-106425000D02*
X156925000Y-106175000D01*
X153575000Y-106425000D02*
X153575000Y-106175000D01*
X153575000Y-103075000D02*
X156925000Y-103075000D01*
X153575000Y-106425000D02*
X156925000Y-106425000D01*
X153575000Y-103250000D02*
X152325000Y-103250000D01*
X178675000Y-103925000D02*
X178675000Y-103975000D01*
X182825000Y-103925000D02*
X182825000Y-104070000D01*
X182825000Y-109075000D02*
X182825000Y-108930000D01*
X178675000Y-109075000D02*
X178675000Y-108930000D01*
X178675000Y-103925000D02*
X182825000Y-103925000D01*
X178675000Y-109075000D02*
X182825000Y-109075000D01*
X178675000Y-103975000D02*
X177275000Y-103975000D01*
X175425000Y-96675000D02*
X175425000Y-96725000D01*
X179575000Y-96675000D02*
X179575000Y-96820000D01*
X179575000Y-101825000D02*
X179575000Y-101680000D01*
X175425000Y-101825000D02*
X175425000Y-101680000D01*
X175425000Y-96675000D02*
X179575000Y-96675000D01*
X175425000Y-101825000D02*
X179575000Y-101825000D01*
X175425000Y-96725000D02*
X174025000Y-96725000D01*
D12*
X118550000Y-104050000D02*
X117050000Y-104050000D01*
X117050000Y-104050000D02*
X117050000Y-105000000D01*
X117050000Y-105000000D02*
X111925000Y-105000000D01*
X118550000Y-114450000D02*
X117050000Y-114450000D01*
X117050000Y-114450000D02*
X117050000Y-113500000D01*
X117050000Y-113500000D02*
X115950000Y-113500000D01*
X154600000Y-93600000D02*
X154600000Y-86350000D01*
X154600000Y-86350000D02*
X151000000Y-86350000D01*
X151000000Y-86350000D02*
X151000000Y-93600000D01*
X107310000Y-128690000D02*
X109990000Y-128690000D01*
X115690000Y-128690000D02*
X113010000Y-128690000D01*
X114930000Y-120310000D02*
X113010000Y-120310000D01*
X108070000Y-120310000D02*
X109990000Y-120310000D01*
X107310000Y-128690000D02*
X107310000Y-121070000D01*
X107310000Y-121070000D02*
X108070000Y-120310000D01*
X114930000Y-120310000D02*
X115690000Y-121070000D01*
X115690000Y-121070000D02*
X115690000Y-128690000D01*
X114050000Y-118200000D02*
X115750000Y-118200000D01*
X115750000Y-118200000D02*
X115750000Y-115650000D01*
X114050000Y-118200000D02*
X114050000Y-115650000D01*
D11*
X116750000Y-116250000D02*
X116750000Y-128250000D01*
X128750000Y-116250000D02*
X116750000Y-116250000D01*
X128750000Y-128250000D02*
X128750000Y-116250000D01*
X128750000Y-128250000D02*
X116750000Y-128250000D01*
D12*
X112960000Y-114000000D02*
X110840000Y-114000000D01*
X112960000Y-117200000D02*
X112960000Y-114000000D01*
X110840000Y-114000000D02*
X110840000Y-117200000D01*
X123700000Y-77860000D02*
X123700000Y-75740000D01*
X120500000Y-77860000D02*
X123700000Y-77860000D01*
X123700000Y-75740000D02*
X120500000Y-75740000D01*
X109820000Y-114250000D02*
X109820000Y-116250000D01*
X107680000Y-116250000D02*
X107680000Y-114250000D01*
X121400000Y-73030000D02*
X123400000Y-73030000D01*
X123400000Y-75170000D02*
X121400000Y-75170000D01*
X163500000Y-105780000D02*
X161500000Y-105780000D01*
X161500000Y-107820000D02*
X163500000Y-107820000D01*
X163500000Y-103380000D02*
X161500000Y-103380000D01*
X161500000Y-105420000D02*
X163500000Y-105420000D01*
D11*
X115533334Y-96987143D02*
X115485715Y-97034762D01*
X115342858Y-97082381D01*
X115247620Y-97082381D01*
X115104762Y-97034762D01*
X115009524Y-96939524D01*
X114961905Y-96844286D01*
X114914286Y-96653810D01*
X114914286Y-96510952D01*
X114961905Y-96320476D01*
X115009524Y-96225238D01*
X115104762Y-96130000D01*
X115247620Y-96082381D01*
X115342858Y-96082381D01*
X115485715Y-96130000D01*
X115533334Y-96177619D01*
X116485715Y-97082381D02*
X115914286Y-97082381D01*
X116200000Y-97082381D02*
X116200000Y-96082381D01*
X116104762Y-96225238D01*
X116009524Y-96320476D01*
X115914286Y-96368095D01*
X111039048Y-95181429D02*
X111800953Y-95181429D01*
X111420001Y-95562381D02*
X111420001Y-94800476D01*
X149307143Y-92466666D02*
X149354762Y-92514285D01*
X149402381Y-92657142D01*
X149402381Y-92752380D01*
X149354762Y-92895238D01*
X149259524Y-92990476D01*
X149164286Y-93038095D01*
X148973810Y-93085714D01*
X148830952Y-93085714D01*
X148640476Y-93038095D01*
X148545238Y-92990476D01*
X148450000Y-92895238D01*
X148402381Y-92752380D01*
X148402381Y-92657142D01*
X148450000Y-92514285D01*
X148497619Y-92466666D01*
X148402381Y-92133333D02*
X148402381Y-91514285D01*
X148783333Y-91847619D01*
X148783333Y-91704761D01*
X148830952Y-91609523D01*
X148878571Y-91561904D01*
X148973810Y-91514285D01*
X149211905Y-91514285D01*
X149307143Y-91561904D01*
X149354762Y-91609523D01*
X149402381Y-91704761D01*
X149402381Y-91990476D01*
X149354762Y-92085714D01*
X149307143Y-92133333D01*
X151707143Y-92466666D02*
X151754762Y-92514285D01*
X151802381Y-92657142D01*
X151802381Y-92752380D01*
X151754762Y-92895238D01*
X151659524Y-92990476D01*
X151564286Y-93038095D01*
X151373810Y-93085714D01*
X151230952Y-93085714D01*
X151040476Y-93038095D01*
X150945238Y-92990476D01*
X150850000Y-92895238D01*
X150802381Y-92752380D01*
X150802381Y-92657142D01*
X150850000Y-92514285D01*
X150897619Y-92466666D01*
X151135714Y-91609523D02*
X151802381Y-91609523D01*
X150754762Y-91847619D02*
X151469048Y-92085714D01*
X151469048Y-91466666D01*
X155107143Y-78166666D02*
X155154762Y-78214285D01*
X155202381Y-78357142D01*
X155202381Y-78452380D01*
X155154762Y-78595238D01*
X155059524Y-78690476D01*
X154964286Y-78738095D01*
X154773810Y-78785714D01*
X154630952Y-78785714D01*
X154440476Y-78738095D01*
X154345238Y-78690476D01*
X154250000Y-78595238D01*
X154202381Y-78452380D01*
X154202381Y-78357142D01*
X154250000Y-78214285D01*
X154297619Y-78166666D01*
X154202381Y-77261904D02*
X154202381Y-77738095D01*
X154678571Y-77785714D01*
X154630952Y-77738095D01*
X154583333Y-77642857D01*
X154583333Y-77404761D01*
X154630952Y-77309523D01*
X154678571Y-77261904D01*
X154773810Y-77214285D01*
X155011905Y-77214285D01*
X155107143Y-77261904D01*
X155154762Y-77309523D01*
X155202381Y-77404761D01*
X155202381Y-77642857D01*
X155154762Y-77738095D01*
X155107143Y-77785714D01*
X168108334Y-86782143D02*
X168060715Y-86829762D01*
X167917858Y-86877381D01*
X167822620Y-86877381D01*
X167679762Y-86829762D01*
X167584524Y-86734524D01*
X167536905Y-86639286D01*
X167489286Y-86448810D01*
X167489286Y-86305952D01*
X167536905Y-86115476D01*
X167584524Y-86020238D01*
X167679762Y-85925000D01*
X167822620Y-85877381D01*
X167917858Y-85877381D01*
X168060715Y-85925000D01*
X168108334Y-85972619D01*
X168965477Y-85877381D02*
X168775000Y-85877381D01*
X168679762Y-85925000D01*
X168632143Y-85972619D01*
X168536905Y-86115476D01*
X168489286Y-86305952D01*
X168489286Y-86686905D01*
X168536905Y-86782143D01*
X168584524Y-86829762D01*
X168679762Y-86877381D01*
X168870239Y-86877381D01*
X168965477Y-86829762D01*
X169013096Y-86782143D01*
X169060715Y-86686905D01*
X169060715Y-86448810D01*
X169013096Y-86353571D01*
X168965477Y-86305952D01*
X168870239Y-86258333D01*
X168679762Y-86258333D01*
X168584524Y-86305952D01*
X168536905Y-86353571D01*
X168489286Y-86448810D01*
X176607143Y-84666666D02*
X176654762Y-84714285D01*
X176702381Y-84857142D01*
X176702381Y-84952380D01*
X176654762Y-85095238D01*
X176559524Y-85190476D01*
X176464286Y-85238095D01*
X176273810Y-85285714D01*
X176130952Y-85285714D01*
X175940476Y-85238095D01*
X175845238Y-85190476D01*
X175750000Y-85095238D01*
X175702381Y-84952380D01*
X175702381Y-84857142D01*
X175750000Y-84714285D01*
X175797619Y-84666666D01*
X175702381Y-84333333D02*
X175702381Y-83666666D01*
X176702381Y-84095238D01*
X171533334Y-78507143D02*
X171485715Y-78554762D01*
X171342858Y-78602381D01*
X171247620Y-78602381D01*
X171104762Y-78554762D01*
X171009524Y-78459524D01*
X170961905Y-78364286D01*
X170914286Y-78173810D01*
X170914286Y-78030952D01*
X170961905Y-77840476D01*
X171009524Y-77745238D01*
X171104762Y-77650000D01*
X171247620Y-77602381D01*
X171342858Y-77602381D01*
X171485715Y-77650000D01*
X171533334Y-77697619D01*
X172104762Y-78030952D02*
X172009524Y-77983333D01*
X171961905Y-77935714D01*
X171914286Y-77840476D01*
X171914286Y-77792857D01*
X171961905Y-77697619D01*
X172009524Y-77650000D01*
X172104762Y-77602381D01*
X172295239Y-77602381D01*
X172390477Y-77650000D01*
X172438096Y-77697619D01*
X172485715Y-77792857D01*
X172485715Y-77840476D01*
X172438096Y-77935714D01*
X172390477Y-77983333D01*
X172295239Y-78030952D01*
X172104762Y-78030952D01*
X172009524Y-78078571D01*
X171961905Y-78126190D01*
X171914286Y-78221429D01*
X171914286Y-78411905D01*
X171961905Y-78507143D01*
X172009524Y-78554762D01*
X172104762Y-78602381D01*
X172295239Y-78602381D01*
X172390477Y-78554762D01*
X172438096Y-78507143D01*
X172485715Y-78411905D01*
X172485715Y-78221429D01*
X172438096Y-78126190D01*
X172390477Y-78078571D01*
X172295239Y-78030952D01*
X178907143Y-76366666D02*
X178954762Y-76414285D01*
X179002381Y-76557142D01*
X179002381Y-76652380D01*
X178954762Y-76795238D01*
X178859524Y-76890476D01*
X178764286Y-76938095D01*
X178573810Y-76985714D01*
X178430952Y-76985714D01*
X178240476Y-76938095D01*
X178145238Y-76890476D01*
X178050000Y-76795238D01*
X178002381Y-76652380D01*
X178002381Y-76557142D01*
X178050000Y-76414285D01*
X178097619Y-76366666D01*
X179002381Y-75890476D02*
X179002381Y-75700000D01*
X178954762Y-75604761D01*
X178907143Y-75557142D01*
X178764286Y-75461904D01*
X178573810Y-75414285D01*
X178192857Y-75414285D01*
X178097619Y-75461904D01*
X178050000Y-75509523D01*
X178002381Y-75604761D01*
X178002381Y-75795238D01*
X178050000Y-75890476D01*
X178097619Y-75938095D01*
X178192857Y-75985714D01*
X178430952Y-75985714D01*
X178526190Y-75938095D01*
X178573810Y-75890476D01*
X178621429Y-75795238D01*
X178621429Y-75604761D01*
X178573810Y-75509523D01*
X178526190Y-75461904D01*
X178430952Y-75414285D01*
X167857143Y-84142857D02*
X167904762Y-84190476D01*
X167952381Y-84333333D01*
X167952381Y-84428571D01*
X167904762Y-84571429D01*
X167809524Y-84666667D01*
X167714286Y-84714286D01*
X167523810Y-84761905D01*
X167380952Y-84761905D01*
X167190476Y-84714286D01*
X167095238Y-84666667D01*
X167000000Y-84571429D01*
X166952381Y-84428571D01*
X166952381Y-84333333D01*
X167000000Y-84190476D01*
X167047619Y-84142857D01*
X167952381Y-83190476D02*
X167952381Y-83761905D01*
X167952381Y-83476191D02*
X166952381Y-83476191D01*
X167095238Y-83571429D01*
X167190476Y-83666667D01*
X167238095Y-83761905D01*
X166952381Y-82571429D02*
X166952381Y-82476190D01*
X167000000Y-82380952D01*
X167047619Y-82333333D01*
X167142857Y-82285714D01*
X167333333Y-82238095D01*
X167571429Y-82238095D01*
X167761905Y-82285714D01*
X167857143Y-82333333D01*
X167904762Y-82380952D01*
X167952381Y-82476190D01*
X167952381Y-82571429D01*
X167904762Y-82666667D01*
X167857143Y-82714286D01*
X167761905Y-82761905D01*
X167571429Y-82809524D01*
X167333333Y-82809524D01*
X167142857Y-82761905D01*
X167047619Y-82714286D01*
X167000000Y-82666667D01*
X166952381Y-82571429D01*
X151857143Y-78642857D02*
X151904762Y-78690476D01*
X151952381Y-78833333D01*
X151952381Y-78928571D01*
X151904762Y-79071429D01*
X151809524Y-79166667D01*
X151714286Y-79214286D01*
X151523810Y-79261905D01*
X151380952Y-79261905D01*
X151190476Y-79214286D01*
X151095238Y-79166667D01*
X151000000Y-79071429D01*
X150952381Y-78928571D01*
X150952381Y-78833333D01*
X151000000Y-78690476D01*
X151047619Y-78642857D01*
X151952381Y-77690476D02*
X151952381Y-78261905D01*
X151952381Y-77976191D02*
X150952381Y-77976191D01*
X151095238Y-78071429D01*
X151190476Y-78166667D01*
X151238095Y-78261905D01*
X151952381Y-76738095D02*
X151952381Y-77309524D01*
X151952381Y-77023810D02*
X150952381Y-77023810D01*
X151095238Y-77119048D01*
X151190476Y-77214286D01*
X151238095Y-77309524D01*
X158857143Y-91107143D02*
X158809524Y-91154762D01*
X158666667Y-91202381D01*
X158571429Y-91202381D01*
X158428571Y-91154762D01*
X158333333Y-91059524D01*
X158285714Y-90964286D01*
X158238095Y-90773810D01*
X158238095Y-90630952D01*
X158285714Y-90440476D01*
X158333333Y-90345238D01*
X158428571Y-90250000D01*
X158571429Y-90202381D01*
X158666667Y-90202381D01*
X158809524Y-90250000D01*
X158857143Y-90297619D01*
X159809524Y-91202381D02*
X159238095Y-91202381D01*
X159523809Y-91202381D02*
X159523809Y-90202381D01*
X159428571Y-90345238D01*
X159333333Y-90440476D01*
X159238095Y-90488095D01*
X160190476Y-90297619D02*
X160238095Y-90250000D01*
X160333333Y-90202381D01*
X160571429Y-90202381D01*
X160666667Y-90250000D01*
X160714286Y-90297619D01*
X160761905Y-90392857D01*
X160761905Y-90488095D01*
X160714286Y-90630952D01*
X160142857Y-91202381D01*
X160761905Y-91202381D01*
X129307143Y-78042857D02*
X129354762Y-78090476D01*
X129402381Y-78233333D01*
X129402381Y-78328571D01*
X129354762Y-78471429D01*
X129259524Y-78566667D01*
X129164286Y-78614286D01*
X128973810Y-78661905D01*
X128830952Y-78661905D01*
X128640476Y-78614286D01*
X128545238Y-78566667D01*
X128450000Y-78471429D01*
X128402381Y-78328571D01*
X128402381Y-78233333D01*
X128450000Y-78090476D01*
X128497619Y-78042857D01*
X129402381Y-77090476D02*
X129402381Y-77661905D01*
X129402381Y-77376191D02*
X128402381Y-77376191D01*
X128545238Y-77471429D01*
X128640476Y-77566667D01*
X128688095Y-77661905D01*
X128402381Y-76757143D02*
X128402381Y-76138095D01*
X128783333Y-76471429D01*
X128783333Y-76328571D01*
X128830952Y-76233333D01*
X128878571Y-76185714D01*
X128973810Y-76138095D01*
X129211905Y-76138095D01*
X129307143Y-76185714D01*
X129354762Y-76233333D01*
X129402381Y-76328571D01*
X129402381Y-76614286D01*
X129354762Y-76709524D01*
X129307143Y-76757143D01*
X124857143Y-96987143D02*
X124809524Y-97034762D01*
X124666667Y-97082381D01*
X124571429Y-97082381D01*
X124428571Y-97034762D01*
X124333333Y-96939524D01*
X124285714Y-96844286D01*
X124238095Y-96653810D01*
X124238095Y-96510952D01*
X124285714Y-96320476D01*
X124333333Y-96225238D01*
X124428571Y-96130000D01*
X124571429Y-96082381D01*
X124666667Y-96082381D01*
X124809524Y-96130000D01*
X124857143Y-96177619D01*
X125809524Y-97082381D02*
X125238095Y-97082381D01*
X125523809Y-97082381D02*
X125523809Y-96082381D01*
X125428571Y-96225238D01*
X125333333Y-96320476D01*
X125238095Y-96368095D01*
X126666667Y-96415714D02*
X126666667Y-97082381D01*
X126428571Y-96034762D02*
X126190476Y-96749048D01*
X126809524Y-96749048D01*
X120839048Y-95181429D02*
X121600953Y-95181429D01*
X121220001Y-95562381D02*
X121220001Y-94800476D01*
X123357143Y-89387143D02*
X123309524Y-89434762D01*
X123166667Y-89482381D01*
X123071429Y-89482381D01*
X122928571Y-89434762D01*
X122833333Y-89339524D01*
X122785714Y-89244286D01*
X122738095Y-89053810D01*
X122738095Y-88910952D01*
X122785714Y-88720476D01*
X122833333Y-88625238D01*
X122928571Y-88530000D01*
X123071429Y-88482381D01*
X123166667Y-88482381D01*
X123309524Y-88530000D01*
X123357143Y-88577619D01*
X124309524Y-89482381D02*
X123738095Y-89482381D01*
X124023809Y-89482381D02*
X124023809Y-88482381D01*
X123928571Y-88625238D01*
X123833333Y-88720476D01*
X123738095Y-88768095D01*
X125214286Y-88482381D02*
X124738095Y-88482381D01*
X124690476Y-88958571D01*
X124738095Y-88910952D01*
X124833333Y-88863333D01*
X125071429Y-88863333D01*
X125166667Y-88910952D01*
X125214286Y-88958571D01*
X125261905Y-89053810D01*
X125261905Y-89291905D01*
X125214286Y-89387143D01*
X125166667Y-89434762D01*
X125071429Y-89482381D01*
X124833333Y-89482381D01*
X124738095Y-89434762D01*
X124690476Y-89387143D01*
X119339048Y-87581429D02*
X120100953Y-87581429D01*
X119720001Y-87962381D02*
X119720001Y-87200476D01*
X171107143Y-113942857D02*
X171154762Y-113990476D01*
X171202381Y-114133333D01*
X171202381Y-114228571D01*
X171154762Y-114371429D01*
X171059524Y-114466667D01*
X170964286Y-114514286D01*
X170773810Y-114561905D01*
X170630952Y-114561905D01*
X170440476Y-114514286D01*
X170345238Y-114466667D01*
X170250000Y-114371429D01*
X170202381Y-114228571D01*
X170202381Y-114133333D01*
X170250000Y-113990476D01*
X170297619Y-113942857D01*
X171202381Y-112990476D02*
X171202381Y-113561905D01*
X171202381Y-113276191D02*
X170202381Y-113276191D01*
X170345238Y-113371429D01*
X170440476Y-113466667D01*
X170488095Y-113561905D01*
X170202381Y-112133333D02*
X170202381Y-112323810D01*
X170250000Y-112419048D01*
X170297619Y-112466667D01*
X170440476Y-112561905D01*
X170630952Y-112609524D01*
X171011905Y-112609524D01*
X171107143Y-112561905D01*
X171154762Y-112514286D01*
X171202381Y-112419048D01*
X171202381Y-112228571D01*
X171154762Y-112133333D01*
X171107143Y-112085714D01*
X171011905Y-112038095D01*
X170773810Y-112038095D01*
X170678571Y-112085714D01*
X170630952Y-112133333D01*
X170583333Y-112228571D01*
X170583333Y-112419048D01*
X170630952Y-112514286D01*
X170678571Y-112561905D01*
X170773810Y-112609524D01*
X144607143Y-115357143D02*
X144559524Y-115404762D01*
X144416667Y-115452381D01*
X144321429Y-115452381D01*
X144178571Y-115404762D01*
X144083333Y-115309524D01*
X144035714Y-115214286D01*
X143988095Y-115023810D01*
X143988095Y-114880952D01*
X144035714Y-114690476D01*
X144083333Y-114595238D01*
X144178571Y-114500000D01*
X144321429Y-114452381D01*
X144416667Y-114452381D01*
X144559524Y-114500000D01*
X144607143Y-114547619D01*
X145559524Y-115452381D02*
X144988095Y-115452381D01*
X145273809Y-115452381D02*
X145273809Y-114452381D01*
X145178571Y-114595238D01*
X145083333Y-114690476D01*
X144988095Y-114738095D01*
X145892857Y-114452381D02*
X146559524Y-114452381D01*
X146130952Y-115452381D01*
X144607143Y-106357143D02*
X144559524Y-106404762D01*
X144416667Y-106452381D01*
X144321429Y-106452381D01*
X144178571Y-106404762D01*
X144083333Y-106309524D01*
X144035714Y-106214286D01*
X143988095Y-106023810D01*
X143988095Y-105880952D01*
X144035714Y-105690476D01*
X144083333Y-105595238D01*
X144178571Y-105500000D01*
X144321429Y-105452381D01*
X144416667Y-105452381D01*
X144559524Y-105500000D01*
X144607143Y-105547619D01*
X145559524Y-106452381D02*
X144988095Y-106452381D01*
X145273809Y-106452381D02*
X145273809Y-105452381D01*
X145178571Y-105595238D01*
X145083333Y-105690476D01*
X144988095Y-105738095D01*
X146130952Y-105880952D02*
X146035714Y-105833333D01*
X145988095Y-105785714D01*
X145940476Y-105690476D01*
X145940476Y-105642857D01*
X145988095Y-105547619D01*
X146035714Y-105500000D01*
X146130952Y-105452381D01*
X146321429Y-105452381D01*
X146416667Y-105500000D01*
X146464286Y-105547619D01*
X146511905Y-105642857D01*
X146511905Y-105690476D01*
X146464286Y-105785714D01*
X146416667Y-105833333D01*
X146321429Y-105880952D01*
X146130952Y-105880952D01*
X146035714Y-105928571D01*
X145988095Y-105976190D01*
X145940476Y-106071429D01*
X145940476Y-106261905D01*
X145988095Y-106357143D01*
X146035714Y-106404762D01*
X146130952Y-106452381D01*
X146321429Y-106452381D01*
X146416667Y-106404762D01*
X146464286Y-106357143D01*
X146511905Y-106261905D01*
X146511905Y-106071429D01*
X146464286Y-105976190D01*
X146416667Y-105928571D01*
X146321429Y-105880952D01*
X144607143Y-107357143D02*
X144559524Y-107404762D01*
X144416667Y-107452381D01*
X144321429Y-107452381D01*
X144178571Y-107404762D01*
X144083333Y-107309524D01*
X144035714Y-107214286D01*
X143988095Y-107023810D01*
X143988095Y-106880952D01*
X144035714Y-106690476D01*
X144083333Y-106595238D01*
X144178571Y-106500000D01*
X144321429Y-106452381D01*
X144416667Y-106452381D01*
X144559524Y-106500000D01*
X144607143Y-106547619D01*
X145559524Y-107452381D02*
X144988095Y-107452381D01*
X145273809Y-107452381D02*
X145273809Y-106452381D01*
X145178571Y-106595238D01*
X145083333Y-106690476D01*
X144988095Y-106738095D01*
X146035714Y-107452381D02*
X146226190Y-107452381D01*
X146321429Y-107404762D01*
X146369048Y-107357143D01*
X146464286Y-107214286D01*
X146511905Y-107023810D01*
X146511905Y-106642857D01*
X146464286Y-106547619D01*
X146416667Y-106500000D01*
X146321429Y-106452381D01*
X146130952Y-106452381D01*
X146035714Y-106500000D01*
X145988095Y-106547619D01*
X145940476Y-106642857D01*
X145940476Y-106880952D01*
X145988095Y-106976190D01*
X146035714Y-107023810D01*
X146130952Y-107071429D01*
X146321429Y-107071429D01*
X146416667Y-107023810D01*
X146464286Y-106976190D01*
X146511905Y-106880952D01*
X144607143Y-109607143D02*
X144559524Y-109654762D01*
X144416667Y-109702381D01*
X144321429Y-109702381D01*
X144178571Y-109654762D01*
X144083333Y-109559524D01*
X144035714Y-109464286D01*
X143988095Y-109273810D01*
X143988095Y-109130952D01*
X144035714Y-108940476D01*
X144083333Y-108845238D01*
X144178571Y-108750000D01*
X144321429Y-108702381D01*
X144416667Y-108702381D01*
X144559524Y-108750000D01*
X144607143Y-108797619D01*
X144988095Y-108797619D02*
X145035714Y-108750000D01*
X145130952Y-108702381D01*
X145369048Y-108702381D01*
X145464286Y-108750000D01*
X145511905Y-108797619D01*
X145559524Y-108892857D01*
X145559524Y-108988095D01*
X145511905Y-109130952D01*
X144940476Y-109702381D01*
X145559524Y-109702381D01*
X146178571Y-108702381D02*
X146273810Y-108702381D01*
X146369048Y-108750000D01*
X146416667Y-108797619D01*
X146464286Y-108892857D01*
X146511905Y-109083333D01*
X146511905Y-109321429D01*
X146464286Y-109511905D01*
X146416667Y-109607143D01*
X146369048Y-109654762D01*
X146273810Y-109702381D01*
X146178571Y-109702381D01*
X146083333Y-109654762D01*
X146035714Y-109607143D01*
X145988095Y-109511905D01*
X145940476Y-109321429D01*
X145940476Y-109083333D01*
X145988095Y-108892857D01*
X146035714Y-108797619D01*
X146083333Y-108750000D01*
X146178571Y-108702381D01*
X144607143Y-117607143D02*
X144559524Y-117654762D01*
X144416667Y-117702381D01*
X144321429Y-117702381D01*
X144178571Y-117654762D01*
X144083333Y-117559524D01*
X144035714Y-117464286D01*
X143988095Y-117273810D01*
X143988095Y-117130952D01*
X144035714Y-116940476D01*
X144083333Y-116845238D01*
X144178571Y-116750000D01*
X144321429Y-116702381D01*
X144416667Y-116702381D01*
X144559524Y-116750000D01*
X144607143Y-116797619D01*
X144988095Y-116797619D02*
X145035714Y-116750000D01*
X145130952Y-116702381D01*
X145369048Y-116702381D01*
X145464286Y-116750000D01*
X145511905Y-116797619D01*
X145559524Y-116892857D01*
X145559524Y-116988095D01*
X145511905Y-117130952D01*
X144940476Y-117702381D01*
X145559524Y-117702381D01*
X146511905Y-117702381D02*
X145940476Y-117702381D01*
X146226190Y-117702381D02*
X146226190Y-116702381D01*
X146130952Y-116845238D01*
X146035714Y-116940476D01*
X145940476Y-116988095D01*
X144607143Y-108607143D02*
X144559524Y-108654762D01*
X144416667Y-108702381D01*
X144321429Y-108702381D01*
X144178571Y-108654762D01*
X144083333Y-108559524D01*
X144035714Y-108464286D01*
X143988095Y-108273810D01*
X143988095Y-108130952D01*
X144035714Y-107940476D01*
X144083333Y-107845238D01*
X144178571Y-107750000D01*
X144321429Y-107702381D01*
X144416667Y-107702381D01*
X144559524Y-107750000D01*
X144607143Y-107797619D01*
X144988095Y-107797619D02*
X145035714Y-107750000D01*
X145130952Y-107702381D01*
X145369048Y-107702381D01*
X145464286Y-107750000D01*
X145511905Y-107797619D01*
X145559524Y-107892857D01*
X145559524Y-107988095D01*
X145511905Y-108130952D01*
X144940476Y-108702381D01*
X145559524Y-108702381D01*
X145940476Y-107797619D02*
X145988095Y-107750000D01*
X146083333Y-107702381D01*
X146321429Y-107702381D01*
X146416667Y-107750000D01*
X146464286Y-107797619D01*
X146511905Y-107892857D01*
X146511905Y-107988095D01*
X146464286Y-108130952D01*
X145892857Y-108702381D01*
X146511905Y-108702381D01*
X177707143Y-114242857D02*
X177754762Y-114290476D01*
X177802381Y-114433333D01*
X177802381Y-114528571D01*
X177754762Y-114671429D01*
X177659524Y-114766667D01*
X177564286Y-114814286D01*
X177373810Y-114861905D01*
X177230952Y-114861905D01*
X177040476Y-114814286D01*
X176945238Y-114766667D01*
X176850000Y-114671429D01*
X176802381Y-114528571D01*
X176802381Y-114433333D01*
X176850000Y-114290476D01*
X176897619Y-114242857D01*
X176897619Y-113861905D02*
X176850000Y-113814286D01*
X176802381Y-113719048D01*
X176802381Y-113480952D01*
X176850000Y-113385714D01*
X176897619Y-113338095D01*
X176992857Y-113290476D01*
X177088095Y-113290476D01*
X177230952Y-113338095D01*
X177802381Y-113909524D01*
X177802381Y-113290476D01*
X176802381Y-112957143D02*
X176802381Y-112338095D01*
X177183333Y-112671429D01*
X177183333Y-112528571D01*
X177230952Y-112433333D01*
X177278571Y-112385714D01*
X177373810Y-112338095D01*
X177611905Y-112338095D01*
X177707143Y-112385714D01*
X177754762Y-112433333D01*
X177802381Y-112528571D01*
X177802381Y-112814286D01*
X177754762Y-112909524D01*
X177707143Y-112957143D01*
X149357143Y-114142857D02*
X149404762Y-114190476D01*
X149452381Y-114333333D01*
X149452381Y-114428571D01*
X149404762Y-114571429D01*
X149309524Y-114666667D01*
X149214286Y-114714286D01*
X149023810Y-114761905D01*
X148880952Y-114761905D01*
X148690476Y-114714286D01*
X148595238Y-114666667D01*
X148500000Y-114571429D01*
X148452381Y-114428571D01*
X148452381Y-114333333D01*
X148500000Y-114190476D01*
X148547619Y-114142857D01*
X148547619Y-113761905D02*
X148500000Y-113714286D01*
X148452381Y-113619048D01*
X148452381Y-113380952D01*
X148500000Y-113285714D01*
X148547619Y-113238095D01*
X148642857Y-113190476D01*
X148738095Y-113190476D01*
X148880952Y-113238095D01*
X149452381Y-113809524D01*
X149452381Y-113190476D01*
X148785714Y-112333333D02*
X149452381Y-112333333D01*
X148404762Y-112571429D02*
X149119048Y-112809524D01*
X149119048Y-112190476D01*
X162107143Y-113942857D02*
X162154762Y-113990476D01*
X162202381Y-114133333D01*
X162202381Y-114228571D01*
X162154762Y-114371429D01*
X162059524Y-114466667D01*
X161964286Y-114514286D01*
X161773810Y-114561905D01*
X161630952Y-114561905D01*
X161440476Y-114514286D01*
X161345238Y-114466667D01*
X161250000Y-114371429D01*
X161202381Y-114228571D01*
X161202381Y-114133333D01*
X161250000Y-113990476D01*
X161297619Y-113942857D01*
X161297619Y-113561905D02*
X161250000Y-113514286D01*
X161202381Y-113419048D01*
X161202381Y-113180952D01*
X161250000Y-113085714D01*
X161297619Y-113038095D01*
X161392857Y-112990476D01*
X161488095Y-112990476D01*
X161630952Y-113038095D01*
X162202381Y-113609524D01*
X162202381Y-112990476D01*
X161202381Y-112085714D02*
X161202381Y-112561905D01*
X161678571Y-112609524D01*
X161630952Y-112561905D01*
X161583333Y-112466667D01*
X161583333Y-112228571D01*
X161630952Y-112133333D01*
X161678571Y-112085714D01*
X161773810Y-112038095D01*
X162011905Y-112038095D01*
X162107143Y-112085714D01*
X162154762Y-112133333D01*
X162202381Y-112228571D01*
X162202381Y-112466667D01*
X162154762Y-112561905D01*
X162107143Y-112609524D01*
X165107143Y-130287143D02*
X165059524Y-130334762D01*
X164916667Y-130382381D01*
X164821429Y-130382381D01*
X164678571Y-130334762D01*
X164583333Y-130239524D01*
X164535714Y-130144286D01*
X164488095Y-129953810D01*
X164488095Y-129810952D01*
X164535714Y-129620476D01*
X164583333Y-129525238D01*
X164678571Y-129430000D01*
X164821429Y-129382381D01*
X164916667Y-129382381D01*
X165059524Y-129430000D01*
X165107143Y-129477619D01*
X165488095Y-129477619D02*
X165535714Y-129430000D01*
X165630952Y-129382381D01*
X165869048Y-129382381D01*
X165964286Y-129430000D01*
X166011905Y-129477619D01*
X166059524Y-129572857D01*
X166059524Y-129668095D01*
X166011905Y-129810952D01*
X165440476Y-130382381D01*
X166059524Y-130382381D01*
X166630952Y-129810952D02*
X166535714Y-129763333D01*
X166488095Y-129715714D01*
X166440476Y-129620476D01*
X166440476Y-129572857D01*
X166488095Y-129477619D01*
X166535714Y-129430000D01*
X166630952Y-129382381D01*
X166821429Y-129382381D01*
X166916667Y-129430000D01*
X166964286Y-129477619D01*
X167011905Y-129572857D01*
X167011905Y-129620476D01*
X166964286Y-129715714D01*
X166916667Y-129763333D01*
X166821429Y-129810952D01*
X166630952Y-129810952D01*
X166535714Y-129858571D01*
X166488095Y-129906190D01*
X166440476Y-130001429D01*
X166440476Y-130191905D01*
X166488095Y-130287143D01*
X166535714Y-130334762D01*
X166630952Y-130382381D01*
X166821429Y-130382381D01*
X166916667Y-130334762D01*
X166964286Y-130287143D01*
X167011905Y-130191905D01*
X167011905Y-130001429D01*
X166964286Y-129906190D01*
X166916667Y-129858571D01*
X166821429Y-129810952D01*
X161089048Y-128481429D02*
X161850953Y-128481429D01*
X161470001Y-128862381D02*
X161470001Y-128100476D01*
X166607143Y-113942857D02*
X166654762Y-113990476D01*
X166702381Y-114133333D01*
X166702381Y-114228571D01*
X166654762Y-114371429D01*
X166559524Y-114466667D01*
X166464286Y-114514286D01*
X166273810Y-114561905D01*
X166130952Y-114561905D01*
X165940476Y-114514286D01*
X165845238Y-114466667D01*
X165750000Y-114371429D01*
X165702381Y-114228571D01*
X165702381Y-114133333D01*
X165750000Y-113990476D01*
X165797619Y-113942857D01*
X165797619Y-113561905D02*
X165750000Y-113514286D01*
X165702381Y-113419048D01*
X165702381Y-113180952D01*
X165750000Y-113085714D01*
X165797619Y-113038095D01*
X165892857Y-112990476D01*
X165988095Y-112990476D01*
X166130952Y-113038095D01*
X166702381Y-113609524D01*
X166702381Y-112990476D01*
X166702381Y-112514286D02*
X166702381Y-112323810D01*
X166654762Y-112228571D01*
X166607143Y-112180952D01*
X166464286Y-112085714D01*
X166273810Y-112038095D01*
X165892857Y-112038095D01*
X165797619Y-112085714D01*
X165750000Y-112133333D01*
X165702381Y-112228571D01*
X165702381Y-112419048D01*
X165750000Y-112514286D01*
X165797619Y-112561905D01*
X165892857Y-112609524D01*
X166130952Y-112609524D01*
X166226190Y-112561905D01*
X166273810Y-112514286D01*
X166321429Y-112419048D01*
X166321429Y-112228571D01*
X166273810Y-112133333D01*
X166226190Y-112085714D01*
X166130952Y-112038095D01*
X154107143Y-130287143D02*
X154059524Y-130334762D01*
X153916667Y-130382381D01*
X153821429Y-130382381D01*
X153678571Y-130334762D01*
X153583333Y-130239524D01*
X153535714Y-130144286D01*
X153488095Y-129953810D01*
X153488095Y-129810952D01*
X153535714Y-129620476D01*
X153583333Y-129525238D01*
X153678571Y-129430000D01*
X153821429Y-129382381D01*
X153916667Y-129382381D01*
X154059524Y-129430000D01*
X154107143Y-129477619D01*
X154440476Y-129382381D02*
X155059524Y-129382381D01*
X154726190Y-129763333D01*
X154869048Y-129763333D01*
X154964286Y-129810952D01*
X155011905Y-129858571D01*
X155059524Y-129953810D01*
X155059524Y-130191905D01*
X155011905Y-130287143D01*
X154964286Y-130334762D01*
X154869048Y-130382381D01*
X154583333Y-130382381D01*
X154488095Y-130334762D01*
X154440476Y-130287143D01*
X155678571Y-129382381D02*
X155773810Y-129382381D01*
X155869048Y-129430000D01*
X155916667Y-129477619D01*
X155964286Y-129572857D01*
X156011905Y-129763333D01*
X156011905Y-130001429D01*
X155964286Y-130191905D01*
X155916667Y-130287143D01*
X155869048Y-130334762D01*
X155773810Y-130382381D01*
X155678571Y-130382381D01*
X155583333Y-130334762D01*
X155535714Y-130287143D01*
X155488095Y-130191905D01*
X155440476Y-130001429D01*
X155440476Y-129763333D01*
X155488095Y-129572857D01*
X155535714Y-129477619D01*
X155583333Y-129430000D01*
X155678571Y-129382381D01*
X150089048Y-128481429D02*
X150850953Y-128481429D01*
X150470001Y-128862381D02*
X150470001Y-128100476D01*
X168857143Y-113942857D02*
X168904762Y-113990476D01*
X168952381Y-114133333D01*
X168952381Y-114228571D01*
X168904762Y-114371429D01*
X168809524Y-114466667D01*
X168714286Y-114514286D01*
X168523810Y-114561905D01*
X168380952Y-114561905D01*
X168190476Y-114514286D01*
X168095238Y-114466667D01*
X168000000Y-114371429D01*
X167952381Y-114228571D01*
X167952381Y-114133333D01*
X168000000Y-113990476D01*
X168047619Y-113942857D01*
X167952381Y-113609524D02*
X167952381Y-112990476D01*
X168333333Y-113323810D01*
X168333333Y-113180952D01*
X168380952Y-113085714D01*
X168428571Y-113038095D01*
X168523810Y-112990476D01*
X168761905Y-112990476D01*
X168857143Y-113038095D01*
X168904762Y-113085714D01*
X168952381Y-113180952D01*
X168952381Y-113466667D01*
X168904762Y-113561905D01*
X168857143Y-113609524D01*
X168952381Y-112038095D02*
X168952381Y-112609524D01*
X168952381Y-112323810D02*
X167952381Y-112323810D01*
X168095238Y-112419048D01*
X168190476Y-112514286D01*
X168238095Y-112609524D01*
X164357143Y-113942857D02*
X164404762Y-113990476D01*
X164452381Y-114133333D01*
X164452381Y-114228571D01*
X164404762Y-114371429D01*
X164309524Y-114466667D01*
X164214286Y-114514286D01*
X164023810Y-114561905D01*
X163880952Y-114561905D01*
X163690476Y-114514286D01*
X163595238Y-114466667D01*
X163500000Y-114371429D01*
X163452381Y-114228571D01*
X163452381Y-114133333D01*
X163500000Y-113990476D01*
X163547619Y-113942857D01*
X163452381Y-113609524D02*
X163452381Y-112990476D01*
X163833333Y-113323810D01*
X163833333Y-113180952D01*
X163880952Y-113085714D01*
X163928571Y-113038095D01*
X164023810Y-112990476D01*
X164261905Y-112990476D01*
X164357143Y-113038095D01*
X164404762Y-113085714D01*
X164452381Y-113180952D01*
X164452381Y-113466667D01*
X164404762Y-113561905D01*
X164357143Y-113609524D01*
X163547619Y-112609524D02*
X163500000Y-112561905D01*
X163452381Y-112466667D01*
X163452381Y-112228571D01*
X163500000Y-112133333D01*
X163547619Y-112085714D01*
X163642857Y-112038095D01*
X163738095Y-112038095D01*
X163880952Y-112085714D01*
X164452381Y-112657143D01*
X164452381Y-112038095D01*
X133052381Y-84738095D02*
X132052381Y-84738095D01*
X132052381Y-84500000D01*
X132100000Y-84357142D01*
X132195238Y-84261904D01*
X132290476Y-84214285D01*
X132480952Y-84166666D01*
X132623810Y-84166666D01*
X132814286Y-84214285D01*
X132909524Y-84261904D01*
X133004762Y-84357142D01*
X133052381Y-84500000D01*
X133052381Y-84738095D01*
X132147619Y-83785714D02*
X132100000Y-83738095D01*
X132052381Y-83642857D01*
X132052381Y-83404761D01*
X132100000Y-83309523D01*
X132147619Y-83261904D01*
X132242857Y-83214285D01*
X132338095Y-83214285D01*
X132480952Y-83261904D01*
X133052381Y-83833333D01*
X133052381Y-83214285D01*
X158640001Y-83026190D02*
X157640001Y-83026190D01*
X158544763Y-81978571D02*
X158592382Y-82026190D01*
X158640001Y-82169047D01*
X158640001Y-82264285D01*
X158592382Y-82407143D01*
X158497144Y-82502381D01*
X158401906Y-82550000D01*
X158211430Y-82597619D01*
X158068572Y-82597619D01*
X157878096Y-82550000D01*
X157782858Y-82502381D01*
X157687620Y-82407143D01*
X157640001Y-82264285D01*
X157640001Y-82169047D01*
X157687620Y-82026190D01*
X157735239Y-81978571D01*
X158640001Y-81026190D02*
X158640001Y-81597619D01*
X158640001Y-81311905D02*
X157640001Y-81311905D01*
X157782858Y-81407143D01*
X157878096Y-81502381D01*
X157925715Y-81597619D01*
X191187381Y-78413333D02*
X191901667Y-78413333D01*
X192044524Y-78460953D01*
X192139762Y-78556191D01*
X192187381Y-78699048D01*
X192187381Y-78794286D01*
X192187381Y-77413333D02*
X192187381Y-77984762D01*
X192187381Y-77699048D02*
X191187381Y-77699048D01*
X191330238Y-77794286D01*
X191425476Y-77889524D01*
X191473095Y-77984762D01*
D14*
X163936190Y-100726666D02*
X164293333Y-100726666D01*
X164364762Y-100750476D01*
X164412381Y-100798095D01*
X164436190Y-100869523D01*
X164436190Y-100917142D01*
X164436190Y-100488571D02*
X163936190Y-100488571D01*
X163936190Y-100298095D01*
X163960000Y-100250476D01*
X163983810Y-100226667D01*
X164031429Y-100202857D01*
X164102857Y-100202857D01*
X164150476Y-100226667D01*
X164174286Y-100250476D01*
X164198095Y-100298095D01*
X164198095Y-100488571D01*
X164436190Y-99726667D02*
X164436190Y-100012381D01*
X164436190Y-99869524D02*
X163936190Y-99869524D01*
X164007619Y-99917143D01*
X164055238Y-99964762D01*
X164079048Y-100012381D01*
D10*
X166140952Y-101156666D02*
X166426667Y-101156666D01*
X166483810Y-101175714D01*
X166521905Y-101213809D01*
X166540952Y-101270952D01*
X166540952Y-101309047D01*
X166274286Y-100794761D02*
X166540952Y-100794761D01*
X166274286Y-100966190D02*
X166483810Y-100966190D01*
X166521905Y-100947142D01*
X166540952Y-100909047D01*
X166540952Y-100851904D01*
X166521905Y-100813809D01*
X166502857Y-100794761D01*
X166540952Y-100604285D02*
X166274286Y-100604285D01*
X166312381Y-100604285D02*
X166293333Y-100585237D01*
X166274286Y-100547142D01*
X166274286Y-100489999D01*
X166293333Y-100451904D01*
X166331429Y-100432856D01*
X166540952Y-100432856D01*
X166331429Y-100432856D02*
X166293333Y-100413809D01*
X166274286Y-100375713D01*
X166274286Y-100318571D01*
X166293333Y-100280475D01*
X166331429Y-100261428D01*
X166540952Y-100261428D01*
X166274286Y-100070952D02*
X166674286Y-100070952D01*
X166293333Y-100070952D02*
X166274286Y-100032857D01*
X166274286Y-99956666D01*
X166293333Y-99918571D01*
X166312381Y-99899523D01*
X166350476Y-99880476D01*
X166464762Y-99880476D01*
X166502857Y-99899523D01*
X166521905Y-99918571D01*
X166540952Y-99956666D01*
X166540952Y-100032857D01*
X166521905Y-100070952D01*
X166521905Y-99556666D02*
X166540952Y-99594761D01*
X166540952Y-99670952D01*
X166521905Y-99709047D01*
X166483810Y-99728095D01*
X166331429Y-99728095D01*
X166293333Y-99709047D01*
X166274286Y-99670952D01*
X166274286Y-99594761D01*
X166293333Y-99556666D01*
X166331429Y-99537618D01*
X166369524Y-99537618D01*
X166407619Y-99728095D01*
X166540952Y-99366190D02*
X166274286Y-99366190D01*
X166350476Y-99366190D02*
X166312381Y-99347142D01*
X166293333Y-99328095D01*
X166274286Y-99289999D01*
X166274286Y-99251904D01*
D11*
X171533334Y-76402381D02*
X171057143Y-76402381D01*
X171057143Y-75402381D01*
X171819048Y-75497619D02*
X171866667Y-75450000D01*
X171961905Y-75402381D01*
X172200001Y-75402381D01*
X172295239Y-75450000D01*
X172342858Y-75497619D01*
X172390477Y-75592857D01*
X172390477Y-75688095D01*
X172342858Y-75830952D01*
X171771429Y-76402381D01*
X172390477Y-76402381D01*
X128492381Y-89766666D02*
X128492381Y-90242857D01*
X127492381Y-90242857D01*
X127492381Y-89528571D02*
X127492381Y-88909523D01*
X127873333Y-89242857D01*
X127873333Y-89099999D01*
X127920952Y-89004761D01*
X127968571Y-88957142D01*
X128063810Y-88909523D01*
X128301905Y-88909523D01*
X128397143Y-88957142D01*
X128444762Y-89004761D01*
X128492381Y-89099999D01*
X128492381Y-89385714D01*
X128444762Y-89480952D01*
X128397143Y-89528571D01*
X173261905Y-129532381D02*
X173261905Y-128532381D01*
X173642858Y-128532381D01*
X173738096Y-128580000D01*
X173785715Y-128627619D01*
X173833334Y-128722857D01*
X173833334Y-128865714D01*
X173785715Y-128960952D01*
X173738096Y-129008571D01*
X173642858Y-129056190D01*
X173261905Y-129056190D01*
X174785715Y-129532381D02*
X174214286Y-129532381D01*
X174500000Y-129532381D02*
X174500000Y-128532381D01*
X174404762Y-128675238D01*
X174309524Y-128770476D01*
X174214286Y-128818095D01*
X145582381Y-81238095D02*
X144582381Y-81238095D01*
X144582381Y-80857142D01*
X144630000Y-80761904D01*
X144677619Y-80714285D01*
X144772857Y-80666666D01*
X144915714Y-80666666D01*
X145010952Y-80714285D01*
X145058571Y-80761904D01*
X145106190Y-80857142D01*
X145106190Y-81238095D01*
X144677619Y-80285714D02*
X144630000Y-80238095D01*
X144582381Y-80142857D01*
X144582381Y-79904761D01*
X144630000Y-79809523D01*
X144677619Y-79761904D01*
X144772857Y-79714285D01*
X144868095Y-79714285D01*
X145010952Y-79761904D01*
X145582381Y-80333333D01*
X145582381Y-79714285D01*
X107861905Y-100422381D02*
X107861905Y-99422381D01*
X108242858Y-99422381D01*
X108338096Y-99470000D01*
X108385715Y-99517619D01*
X108433334Y-99612857D01*
X108433334Y-99755714D01*
X108385715Y-99850952D01*
X108338096Y-99898571D01*
X108242858Y-99946190D01*
X107861905Y-99946190D01*
X108766667Y-99422381D02*
X109385715Y-99422381D01*
X109052381Y-99803333D01*
X109195239Y-99803333D01*
X109290477Y-99850952D01*
X109338096Y-99898571D01*
X109385715Y-99993810D01*
X109385715Y-100231905D01*
X109338096Y-100327143D01*
X109290477Y-100374762D01*
X109195239Y-100422381D01*
X108909524Y-100422381D01*
X108814286Y-100374762D01*
X108766667Y-100327143D01*
X107861905Y-88522381D02*
X107861905Y-87522381D01*
X108242858Y-87522381D01*
X108338096Y-87570000D01*
X108385715Y-87617619D01*
X108433334Y-87712857D01*
X108433334Y-87855714D01*
X108385715Y-87950952D01*
X108338096Y-87998571D01*
X108242858Y-88046190D01*
X107861905Y-88046190D01*
X109290477Y-87855714D02*
X109290477Y-88522381D01*
X109052381Y-87474762D02*
X108814286Y-88189048D01*
X109433334Y-88189048D01*
X133322381Y-76338095D02*
X132322381Y-76338095D01*
X132322381Y-75957142D01*
X132370000Y-75861904D01*
X132417619Y-75814285D01*
X132512857Y-75766666D01*
X132655714Y-75766666D01*
X132750952Y-75814285D01*
X132798571Y-75861904D01*
X132846190Y-75957142D01*
X132846190Y-76338095D01*
X132322381Y-74861904D02*
X132322381Y-75338095D01*
X132798571Y-75385714D01*
X132750952Y-75338095D01*
X132703333Y-75242857D01*
X132703333Y-75004761D01*
X132750952Y-74909523D01*
X132798571Y-74861904D01*
X132893810Y-74814285D01*
X133131905Y-74814285D01*
X133227143Y-74861904D01*
X133274762Y-74909523D01*
X133322381Y-75004761D01*
X133322381Y-75242857D01*
X133274762Y-75338095D01*
X133227143Y-75385714D01*
X178861905Y-127782381D02*
X178861905Y-126782381D01*
X179242858Y-126782381D01*
X179338096Y-126830000D01*
X179385715Y-126877619D01*
X179433334Y-126972857D01*
X179433334Y-127115714D01*
X179385715Y-127210952D01*
X179338096Y-127258571D01*
X179242858Y-127306190D01*
X178861905Y-127306190D01*
X180290477Y-126782381D02*
X180100000Y-126782381D01*
X180004762Y-126830000D01*
X179957143Y-126877619D01*
X179861905Y-127020476D01*
X179814286Y-127210952D01*
X179814286Y-127591905D01*
X179861905Y-127687143D01*
X179909524Y-127734762D01*
X180004762Y-127782381D01*
X180195239Y-127782381D01*
X180290477Y-127734762D01*
X180338096Y-127687143D01*
X180385715Y-127591905D01*
X180385715Y-127353810D01*
X180338096Y-127258571D01*
X180290477Y-127210952D01*
X180195239Y-127163333D01*
X180004762Y-127163333D01*
X179909524Y-127210952D01*
X179861905Y-127258571D01*
X179814286Y-127353810D01*
X120342381Y-71618095D02*
X119342381Y-71618095D01*
X119342381Y-71237142D01*
X119390000Y-71141904D01*
X119437619Y-71094285D01*
X119532857Y-71046666D01*
X119675714Y-71046666D01*
X119770952Y-71094285D01*
X119818571Y-71141904D01*
X119866190Y-71237142D01*
X119866190Y-71618095D01*
X119342381Y-70713333D02*
X119342381Y-70046666D01*
X120342381Y-70475238D01*
X147272381Y-71598095D02*
X146272381Y-71598095D01*
X146272381Y-71217142D01*
X146320000Y-71121904D01*
X146367619Y-71074285D01*
X146462857Y-71026666D01*
X146605714Y-71026666D01*
X146700952Y-71074285D01*
X146748571Y-71121904D01*
X146796190Y-71217142D01*
X146796190Y-71598095D01*
X146700952Y-70455238D02*
X146653333Y-70550476D01*
X146605714Y-70598095D01*
X146510476Y-70645714D01*
X146462857Y-70645714D01*
X146367619Y-70598095D01*
X146320000Y-70550476D01*
X146272381Y-70455238D01*
X146272381Y-70264761D01*
X146320000Y-70169523D01*
X146367619Y-70121904D01*
X146462857Y-70074285D01*
X146510476Y-70074285D01*
X146605714Y-70121904D01*
X146653333Y-70169523D01*
X146700952Y-70264761D01*
X146700952Y-70455238D01*
X146748571Y-70550476D01*
X146796190Y-70598095D01*
X146891429Y-70645714D01*
X147081905Y-70645714D01*
X147177143Y-70598095D01*
X147224762Y-70550476D01*
X147272381Y-70455238D01*
X147272381Y-70264761D01*
X147224762Y-70169523D01*
X147177143Y-70121904D01*
X147081905Y-70074285D01*
X146891429Y-70074285D01*
X146796190Y-70121904D01*
X146748571Y-70169523D01*
X146700952Y-70264761D01*
X170082381Y-71578095D02*
X169082381Y-71578095D01*
X169082381Y-71197142D01*
X169130000Y-71101904D01*
X169177619Y-71054285D01*
X169272857Y-71006666D01*
X169415714Y-71006666D01*
X169510952Y-71054285D01*
X169558571Y-71101904D01*
X169606190Y-71197142D01*
X169606190Y-71578095D01*
X170082381Y-70530476D02*
X170082381Y-70340000D01*
X170034762Y-70244761D01*
X169987143Y-70197142D01*
X169844286Y-70101904D01*
X169653810Y-70054285D01*
X169272857Y-70054285D01*
X169177619Y-70101904D01*
X169130000Y-70149523D01*
X169082381Y-70244761D01*
X169082381Y-70435238D01*
X169130000Y-70530476D01*
X169177619Y-70578095D01*
X169272857Y-70625714D01*
X169510952Y-70625714D01*
X169606190Y-70578095D01*
X169653810Y-70530476D01*
X169701429Y-70435238D01*
X169701429Y-70244761D01*
X169653810Y-70149523D01*
X169606190Y-70101904D01*
X169510952Y-70054285D01*
X129422381Y-120344286D02*
X128422381Y-120344286D01*
X128422381Y-119963333D01*
X128470000Y-119868095D01*
X128517619Y-119820476D01*
X128612857Y-119772857D01*
X128755714Y-119772857D01*
X128850952Y-119820476D01*
X128898571Y-119868095D01*
X128946190Y-119963333D01*
X128946190Y-120344286D01*
X129422381Y-118820476D02*
X129422381Y-119391905D01*
X129422381Y-119106191D02*
X128422381Y-119106191D01*
X128565238Y-119201429D01*
X128660476Y-119296667D01*
X128708095Y-119391905D01*
X128422381Y-118201429D02*
X128422381Y-118106190D01*
X128470000Y-118010952D01*
X128517619Y-117963333D01*
X128612857Y-117915714D01*
X128803333Y-117868095D01*
X129041429Y-117868095D01*
X129231905Y-117915714D01*
X129327143Y-117963333D01*
X129374762Y-118010952D01*
X129422381Y-118106190D01*
X129422381Y-118201429D01*
X129374762Y-118296667D01*
X129327143Y-118344286D01*
X129231905Y-118391905D01*
X129041429Y-118439524D01*
X128803333Y-118439524D01*
X128612857Y-118391905D01*
X128517619Y-118344286D01*
X128470000Y-118296667D01*
X128422381Y-118201429D01*
X152292381Y-120364286D02*
X151292381Y-120364286D01*
X151292381Y-119983333D01*
X151340000Y-119888095D01*
X151387619Y-119840476D01*
X151482857Y-119792857D01*
X151625714Y-119792857D01*
X151720952Y-119840476D01*
X151768571Y-119888095D01*
X151816190Y-119983333D01*
X151816190Y-120364286D01*
X152292381Y-118840476D02*
X152292381Y-119411905D01*
X152292381Y-119126191D02*
X151292381Y-119126191D01*
X151435238Y-119221429D01*
X151530476Y-119316667D01*
X151578095Y-119411905D01*
X152292381Y-117888095D02*
X152292381Y-118459524D01*
X152292381Y-118173810D02*
X151292381Y-118173810D01*
X151435238Y-118269048D01*
X151530476Y-118364286D01*
X151578095Y-118459524D01*
X167055714Y-89312381D02*
X167055714Y-88312381D01*
X167436667Y-88312381D01*
X167531905Y-88360000D01*
X167579524Y-88407619D01*
X167627143Y-88502857D01*
X167627143Y-88645714D01*
X167579524Y-88740952D01*
X167531905Y-88788571D01*
X167436667Y-88836190D01*
X167055714Y-88836190D01*
X168579524Y-89312381D02*
X168008095Y-89312381D01*
X168293809Y-89312381D02*
X168293809Y-88312381D01*
X168198571Y-88455238D01*
X168103333Y-88550476D01*
X168008095Y-88598095D01*
X168960476Y-88407619D02*
X169008095Y-88360000D01*
X169103333Y-88312381D01*
X169341429Y-88312381D01*
X169436667Y-88360000D01*
X169484286Y-88407619D01*
X169531905Y-88502857D01*
X169531905Y-88598095D01*
X169484286Y-88740952D01*
X168912857Y-89312381D01*
X169531905Y-89312381D01*
X140382381Y-106814286D02*
X139382381Y-106814286D01*
X139382381Y-106433333D01*
X139430000Y-106338095D01*
X139477619Y-106290476D01*
X139572857Y-106242857D01*
X139715714Y-106242857D01*
X139810952Y-106290476D01*
X139858571Y-106338095D01*
X139906190Y-106433333D01*
X139906190Y-106814286D01*
X140382381Y-105290476D02*
X140382381Y-105861905D01*
X140382381Y-105576191D02*
X139382381Y-105576191D01*
X139525238Y-105671429D01*
X139620476Y-105766667D01*
X139668095Y-105861905D01*
X139382381Y-104957143D02*
X139382381Y-104338095D01*
X139763333Y-104671429D01*
X139763333Y-104528571D01*
X139810952Y-104433333D01*
X139858571Y-104385714D01*
X139953810Y-104338095D01*
X140191905Y-104338095D01*
X140287143Y-104385714D01*
X140334762Y-104433333D01*
X140382381Y-104528571D01*
X140382381Y-104814286D01*
X140334762Y-104909524D01*
X140287143Y-104957143D01*
X140382381Y-111314286D02*
X139382381Y-111314286D01*
X139382381Y-110933333D01*
X139430000Y-110838095D01*
X139477619Y-110790476D01*
X139572857Y-110742857D01*
X139715714Y-110742857D01*
X139810952Y-110790476D01*
X139858571Y-110838095D01*
X139906190Y-110933333D01*
X139906190Y-111314286D01*
X140382381Y-109790476D02*
X140382381Y-110361905D01*
X140382381Y-110076191D02*
X139382381Y-110076191D01*
X139525238Y-110171429D01*
X139620476Y-110266667D01*
X139668095Y-110361905D01*
X139715714Y-108933333D02*
X140382381Y-108933333D01*
X139334762Y-109171429D02*
X140049048Y-109409524D01*
X140049048Y-108790476D01*
X140382381Y-115914286D02*
X139382381Y-115914286D01*
X139382381Y-115533333D01*
X139430000Y-115438095D01*
X139477619Y-115390476D01*
X139572857Y-115342857D01*
X139715714Y-115342857D01*
X139810952Y-115390476D01*
X139858571Y-115438095D01*
X139906190Y-115533333D01*
X139906190Y-115914286D01*
X140382381Y-114390476D02*
X140382381Y-114961905D01*
X140382381Y-114676191D02*
X139382381Y-114676191D01*
X139525238Y-114771429D01*
X139620476Y-114866667D01*
X139668095Y-114961905D01*
X139382381Y-113485714D02*
X139382381Y-113961905D01*
X139858571Y-114009524D01*
X139810952Y-113961905D01*
X139763333Y-113866667D01*
X139763333Y-113628571D01*
X139810952Y-113533333D01*
X139858571Y-113485714D01*
X139953810Y-113438095D01*
X140191905Y-113438095D01*
X140287143Y-113485714D01*
X140334762Y-113533333D01*
X140382381Y-113628571D01*
X140382381Y-113866667D01*
X140334762Y-113961905D01*
X140287143Y-114009524D01*
X131785714Y-121122381D02*
X131785714Y-120122381D01*
X132166667Y-120122381D01*
X132261905Y-120170000D01*
X132309524Y-120217619D01*
X132357143Y-120312857D01*
X132357143Y-120455714D01*
X132309524Y-120550952D01*
X132261905Y-120598571D01*
X132166667Y-120646190D01*
X131785714Y-120646190D01*
X133309524Y-121122381D02*
X132738095Y-121122381D01*
X133023809Y-121122381D02*
X133023809Y-120122381D01*
X132928571Y-120265238D01*
X132833333Y-120360476D01*
X132738095Y-120408095D01*
X134166667Y-120122381D02*
X133976190Y-120122381D01*
X133880952Y-120170000D01*
X133833333Y-120217619D01*
X133738095Y-120360476D01*
X133690476Y-120550952D01*
X133690476Y-120931905D01*
X133738095Y-121027143D01*
X133785714Y-121074762D01*
X133880952Y-121122381D01*
X134071429Y-121122381D01*
X134166667Y-121074762D01*
X134214286Y-121027143D01*
X134261905Y-120931905D01*
X134261905Y-120693810D01*
X134214286Y-120598571D01*
X134166667Y-120550952D01*
X134071429Y-120503333D01*
X133880952Y-120503333D01*
X133785714Y-120550952D01*
X133738095Y-120598571D01*
X133690476Y-120693810D01*
X137535714Y-121122381D02*
X137535714Y-120122381D01*
X137916667Y-120122381D01*
X138011905Y-120170000D01*
X138059524Y-120217619D01*
X138107143Y-120312857D01*
X138107143Y-120455714D01*
X138059524Y-120550952D01*
X138011905Y-120598571D01*
X137916667Y-120646190D01*
X137535714Y-120646190D01*
X139059524Y-121122381D02*
X138488095Y-121122381D01*
X138773809Y-121122381D02*
X138773809Y-120122381D01*
X138678571Y-120265238D01*
X138583333Y-120360476D01*
X138488095Y-120408095D01*
X139392857Y-120122381D02*
X140059524Y-120122381D01*
X139630952Y-121122381D01*
X143285714Y-121122381D02*
X143285714Y-120122381D01*
X143666667Y-120122381D01*
X143761905Y-120170000D01*
X143809524Y-120217619D01*
X143857143Y-120312857D01*
X143857143Y-120455714D01*
X143809524Y-120550952D01*
X143761905Y-120598571D01*
X143666667Y-120646190D01*
X143285714Y-120646190D01*
X144809524Y-121122381D02*
X144238095Y-121122381D01*
X144523809Y-121122381D02*
X144523809Y-120122381D01*
X144428571Y-120265238D01*
X144333333Y-120360476D01*
X144238095Y-120408095D01*
X145380952Y-120550952D02*
X145285714Y-120503333D01*
X145238095Y-120455714D01*
X145190476Y-120360476D01*
X145190476Y-120312857D01*
X145238095Y-120217619D01*
X145285714Y-120170000D01*
X145380952Y-120122381D01*
X145571429Y-120122381D01*
X145666667Y-120170000D01*
X145714286Y-120217619D01*
X145761905Y-120312857D01*
X145761905Y-120360476D01*
X145714286Y-120455714D01*
X145666667Y-120503333D01*
X145571429Y-120550952D01*
X145380952Y-120550952D01*
X145285714Y-120598571D01*
X145238095Y-120646190D01*
X145190476Y-120741429D01*
X145190476Y-120931905D01*
X145238095Y-121027143D01*
X145285714Y-121074762D01*
X145380952Y-121122381D01*
X145571429Y-121122381D01*
X145666667Y-121074762D01*
X145714286Y-121027143D01*
X145761905Y-120931905D01*
X145761905Y-120741429D01*
X145714286Y-120646190D01*
X145666667Y-120598571D01*
X145571429Y-120550952D01*
X136285714Y-95952381D02*
X136285714Y-94952381D01*
X136666667Y-94952381D01*
X136761905Y-95000000D01*
X136809524Y-95047619D01*
X136857143Y-95142857D01*
X136857143Y-95285714D01*
X136809524Y-95380952D01*
X136761905Y-95428571D01*
X136666667Y-95476190D01*
X136285714Y-95476190D01*
X137809524Y-95952381D02*
X137238095Y-95952381D01*
X137523809Y-95952381D02*
X137523809Y-94952381D01*
X137428571Y-95095238D01*
X137333333Y-95190476D01*
X137238095Y-95238095D01*
X138285714Y-95952381D02*
X138476190Y-95952381D01*
X138571429Y-95904762D01*
X138619048Y-95857143D01*
X138714286Y-95714286D01*
X138761905Y-95523810D01*
X138761905Y-95142857D01*
X138714286Y-95047619D01*
X138666667Y-95000000D01*
X138571429Y-94952381D01*
X138380952Y-94952381D01*
X138285714Y-95000000D01*
X138238095Y-95047619D01*
X138190476Y-95142857D01*
X138190476Y-95380952D01*
X138238095Y-95476190D01*
X138285714Y-95523810D01*
X138380952Y-95571429D01*
X138571429Y-95571429D01*
X138666667Y-95523810D01*
X138714286Y-95476190D01*
X138761905Y-95380952D01*
X167583334Y-81052381D02*
X167250000Y-80576190D01*
X167011905Y-81052381D02*
X167011905Y-80052381D01*
X167392858Y-80052381D01*
X167488096Y-80100000D01*
X167535715Y-80147619D01*
X167583334Y-80242857D01*
X167583334Y-80385714D01*
X167535715Y-80480952D01*
X167488096Y-80528571D01*
X167392858Y-80576190D01*
X167011905Y-80576190D01*
X167916667Y-80052381D02*
X168583334Y-80052381D01*
X168154762Y-81052381D01*
X170552381Y-83666666D02*
X170076190Y-84000000D01*
X170552381Y-84238095D02*
X169552381Y-84238095D01*
X169552381Y-83857142D01*
X169600000Y-83761904D01*
X169647619Y-83714285D01*
X169742857Y-83666666D01*
X169885714Y-83666666D01*
X169980952Y-83714285D01*
X170028571Y-83761904D01*
X170076190Y-83857142D01*
X170076190Y-84238095D01*
X169980952Y-83095238D02*
X169933333Y-83190476D01*
X169885714Y-83238095D01*
X169790476Y-83285714D01*
X169742857Y-83285714D01*
X169647619Y-83238095D01*
X169600000Y-83190476D01*
X169552381Y-83095238D01*
X169552381Y-82904761D01*
X169600000Y-82809523D01*
X169647619Y-82761904D01*
X169742857Y-82714285D01*
X169790476Y-82714285D01*
X169885714Y-82761904D01*
X169933333Y-82809523D01*
X169980952Y-82904761D01*
X169980952Y-83095238D01*
X170028571Y-83190476D01*
X170076190Y-83238095D01*
X170171429Y-83285714D01*
X170361905Y-83285714D01*
X170457143Y-83238095D01*
X170504762Y-83190476D01*
X170552381Y-83095238D01*
X170552381Y-82904761D01*
X170504762Y-82809523D01*
X170457143Y-82761904D01*
X170361905Y-82714285D01*
X170171429Y-82714285D01*
X170076190Y-82761904D01*
X170028571Y-82809523D01*
X169980952Y-82904761D01*
X171502381Y-83416666D02*
X171026190Y-83750000D01*
X171502381Y-83988095D02*
X170502381Y-83988095D01*
X170502381Y-83607142D01*
X170550000Y-83511904D01*
X170597619Y-83464285D01*
X170692857Y-83416666D01*
X170835714Y-83416666D01*
X170930952Y-83464285D01*
X170978571Y-83511904D01*
X171026190Y-83607142D01*
X171026190Y-83988095D01*
X171502381Y-82940476D02*
X171502381Y-82750000D01*
X171454762Y-82654761D01*
X171407143Y-82607142D01*
X171264286Y-82511904D01*
X171073810Y-82464285D01*
X170692857Y-82464285D01*
X170597619Y-82511904D01*
X170550000Y-82559523D01*
X170502381Y-82654761D01*
X170502381Y-82845238D01*
X170550000Y-82940476D01*
X170597619Y-82988095D01*
X170692857Y-83035714D01*
X170930952Y-83035714D01*
X171026190Y-82988095D01*
X171073810Y-82940476D01*
X171121429Y-82845238D01*
X171121429Y-82654761D01*
X171073810Y-82559523D01*
X171026190Y-82511904D01*
X170930952Y-82464285D01*
X172652381Y-83892857D02*
X172176190Y-84226191D01*
X172652381Y-84464286D02*
X171652381Y-84464286D01*
X171652381Y-84083333D01*
X171700000Y-83988095D01*
X171747619Y-83940476D01*
X171842857Y-83892857D01*
X171985714Y-83892857D01*
X172080952Y-83940476D01*
X172128571Y-83988095D01*
X172176190Y-84083333D01*
X172176190Y-84464286D01*
X172652381Y-82940476D02*
X172652381Y-83511905D01*
X172652381Y-83226191D02*
X171652381Y-83226191D01*
X171795238Y-83321429D01*
X171890476Y-83416667D01*
X171938095Y-83511905D01*
X171652381Y-82321429D02*
X171652381Y-82226190D01*
X171700000Y-82130952D01*
X171747619Y-82083333D01*
X171842857Y-82035714D01*
X172033333Y-81988095D01*
X172271429Y-81988095D01*
X172461905Y-82035714D01*
X172557143Y-82083333D01*
X172604762Y-82130952D01*
X172652381Y-82226190D01*
X172652381Y-82321429D01*
X172604762Y-82416667D01*
X172557143Y-82464286D01*
X172461905Y-82511905D01*
X172271429Y-82559524D01*
X172033333Y-82559524D01*
X171842857Y-82511905D01*
X171747619Y-82464286D01*
X171700000Y-82416667D01*
X171652381Y-82321429D01*
X165707143Y-72752381D02*
X165373809Y-72276190D01*
X165135714Y-72752381D02*
X165135714Y-71752381D01*
X165516667Y-71752381D01*
X165611905Y-71800000D01*
X165659524Y-71847619D01*
X165707143Y-71942857D01*
X165707143Y-72085714D01*
X165659524Y-72180952D01*
X165611905Y-72228571D01*
X165516667Y-72276190D01*
X165135714Y-72276190D01*
X166659524Y-72752381D02*
X166088095Y-72752381D01*
X166373809Y-72752381D02*
X166373809Y-71752381D01*
X166278571Y-71895238D01*
X166183333Y-71990476D01*
X166088095Y-72038095D01*
X167611905Y-72752381D02*
X167040476Y-72752381D01*
X167326190Y-72752381D02*
X167326190Y-71752381D01*
X167230952Y-71895238D01*
X167135714Y-71990476D01*
X167040476Y-72038095D01*
X165707143Y-77202381D02*
X165373809Y-76726190D01*
X165135714Y-77202381D02*
X165135714Y-76202381D01*
X165516667Y-76202381D01*
X165611905Y-76250000D01*
X165659524Y-76297619D01*
X165707143Y-76392857D01*
X165707143Y-76535714D01*
X165659524Y-76630952D01*
X165611905Y-76678571D01*
X165516667Y-76726190D01*
X165135714Y-76726190D01*
X166659524Y-77202381D02*
X166088095Y-77202381D01*
X166373809Y-77202381D02*
X166373809Y-76202381D01*
X166278571Y-76345238D01*
X166183333Y-76440476D01*
X166088095Y-76488095D01*
X167040476Y-76297619D02*
X167088095Y-76250000D01*
X167183333Y-76202381D01*
X167421429Y-76202381D01*
X167516667Y-76250000D01*
X167564286Y-76297619D01*
X167611905Y-76392857D01*
X167611905Y-76488095D01*
X167564286Y-76630952D01*
X166992857Y-77202381D01*
X167611905Y-77202381D01*
X195802381Y-93892857D02*
X195326190Y-94226191D01*
X195802381Y-94464286D02*
X194802381Y-94464286D01*
X194802381Y-94083333D01*
X194850000Y-93988095D01*
X194897619Y-93940476D01*
X194992857Y-93892857D01*
X195135714Y-93892857D01*
X195230952Y-93940476D01*
X195278571Y-93988095D01*
X195326190Y-94083333D01*
X195326190Y-94464286D01*
X195802381Y-92940476D02*
X195802381Y-93511905D01*
X195802381Y-93226191D02*
X194802381Y-93226191D01*
X194945238Y-93321429D01*
X195040476Y-93416667D01*
X195088095Y-93511905D01*
X194802381Y-92607143D02*
X194802381Y-91988095D01*
X195183333Y-92321429D01*
X195183333Y-92178571D01*
X195230952Y-92083333D01*
X195278571Y-92035714D01*
X195373810Y-91988095D01*
X195611905Y-91988095D01*
X195707143Y-92035714D01*
X195754762Y-92083333D01*
X195802381Y-92178571D01*
X195802381Y-92464286D01*
X195754762Y-92559524D01*
X195707143Y-92607143D01*
X198057143Y-93002381D02*
X197723809Y-92526190D01*
X197485714Y-93002381D02*
X197485714Y-92002381D01*
X197866667Y-92002381D01*
X197961905Y-92050000D01*
X198009524Y-92097619D01*
X198057143Y-92192857D01*
X198057143Y-92335714D01*
X198009524Y-92430952D01*
X197961905Y-92478571D01*
X197866667Y-92526190D01*
X197485714Y-92526190D01*
X199009524Y-93002381D02*
X198438095Y-93002381D01*
X198723809Y-93002381D02*
X198723809Y-92002381D01*
X198628571Y-92145238D01*
X198533333Y-92240476D01*
X198438095Y-92288095D01*
X199866667Y-92335714D02*
X199866667Y-93002381D01*
X199628571Y-91954762D02*
X199390476Y-92669048D01*
X200009524Y-92669048D01*
X149202381Y-85742857D02*
X148726190Y-86076191D01*
X149202381Y-86314286D02*
X148202381Y-86314286D01*
X148202381Y-85933333D01*
X148250000Y-85838095D01*
X148297619Y-85790476D01*
X148392857Y-85742857D01*
X148535714Y-85742857D01*
X148630952Y-85790476D01*
X148678571Y-85838095D01*
X148726190Y-85933333D01*
X148726190Y-86314286D01*
X149202381Y-84790476D02*
X149202381Y-85361905D01*
X149202381Y-85076191D02*
X148202381Y-85076191D01*
X148345238Y-85171429D01*
X148440476Y-85266667D01*
X148488095Y-85361905D01*
X148202381Y-83885714D02*
X148202381Y-84361905D01*
X148678571Y-84409524D01*
X148630952Y-84361905D01*
X148583333Y-84266667D01*
X148583333Y-84028571D01*
X148630952Y-83933333D01*
X148678571Y-83885714D01*
X148773810Y-83838095D01*
X149011905Y-83838095D01*
X149107143Y-83885714D01*
X149154762Y-83933333D01*
X149202381Y-84028571D01*
X149202381Y-84266667D01*
X149154762Y-84361905D01*
X149107143Y-84409524D01*
X151702381Y-85742857D02*
X151226190Y-86076191D01*
X151702381Y-86314286D02*
X150702381Y-86314286D01*
X150702381Y-85933333D01*
X150750000Y-85838095D01*
X150797619Y-85790476D01*
X150892857Y-85742857D01*
X151035714Y-85742857D01*
X151130952Y-85790476D01*
X151178571Y-85838095D01*
X151226190Y-85933333D01*
X151226190Y-86314286D01*
X151702381Y-84790476D02*
X151702381Y-85361905D01*
X151702381Y-85076191D02*
X150702381Y-85076191D01*
X150845238Y-85171429D01*
X150940476Y-85266667D01*
X150988095Y-85361905D01*
X150702381Y-83933333D02*
X150702381Y-84123810D01*
X150750000Y-84219048D01*
X150797619Y-84266667D01*
X150940476Y-84361905D01*
X151130952Y-84409524D01*
X151511905Y-84409524D01*
X151607143Y-84361905D01*
X151654762Y-84314286D01*
X151702381Y-84219048D01*
X151702381Y-84028571D01*
X151654762Y-83933333D01*
X151607143Y-83885714D01*
X151511905Y-83838095D01*
X151273810Y-83838095D01*
X151178571Y-83885714D01*
X151130952Y-83933333D01*
X151083333Y-84028571D01*
X151083333Y-84219048D01*
X151130952Y-84314286D01*
X151178571Y-84361905D01*
X151273810Y-84409524D01*
X168607143Y-100102381D02*
X168273809Y-99626190D01*
X168035714Y-100102381D02*
X168035714Y-99102381D01*
X168416667Y-99102381D01*
X168511905Y-99150000D01*
X168559524Y-99197619D01*
X168607143Y-99292857D01*
X168607143Y-99435714D01*
X168559524Y-99530952D01*
X168511905Y-99578571D01*
X168416667Y-99626190D01*
X168035714Y-99626190D01*
X169559524Y-100102381D02*
X168988095Y-100102381D01*
X169273809Y-100102381D02*
X169273809Y-99102381D01*
X169178571Y-99245238D01*
X169083333Y-99340476D01*
X168988095Y-99388095D01*
X170130952Y-99530952D02*
X170035714Y-99483333D01*
X169988095Y-99435714D01*
X169940476Y-99340476D01*
X169940476Y-99292857D01*
X169988095Y-99197619D01*
X170035714Y-99150000D01*
X170130952Y-99102381D01*
X170321429Y-99102381D01*
X170416667Y-99150000D01*
X170464286Y-99197619D01*
X170511905Y-99292857D01*
X170511905Y-99340476D01*
X170464286Y-99435714D01*
X170416667Y-99483333D01*
X170321429Y-99530952D01*
X170130952Y-99530952D01*
X170035714Y-99578571D01*
X169988095Y-99626190D01*
X169940476Y-99721429D01*
X169940476Y-99911905D01*
X169988095Y-100007143D01*
X170035714Y-100054762D01*
X170130952Y-100102381D01*
X170321429Y-100102381D01*
X170416667Y-100054762D01*
X170464286Y-100007143D01*
X170511905Y-99911905D01*
X170511905Y-99721429D01*
X170464286Y-99626190D01*
X170416667Y-99578571D01*
X170321429Y-99530952D01*
X168607143Y-104852381D02*
X168273809Y-104376190D01*
X168035714Y-104852381D02*
X168035714Y-103852381D01*
X168416667Y-103852381D01*
X168511905Y-103900000D01*
X168559524Y-103947619D01*
X168607143Y-104042857D01*
X168607143Y-104185714D01*
X168559524Y-104280952D01*
X168511905Y-104328571D01*
X168416667Y-104376190D01*
X168035714Y-104376190D01*
X169559524Y-104852381D02*
X168988095Y-104852381D01*
X169273809Y-104852381D02*
X169273809Y-103852381D01*
X169178571Y-103995238D01*
X169083333Y-104090476D01*
X168988095Y-104138095D01*
X170035714Y-104852381D02*
X170226190Y-104852381D01*
X170321429Y-104804762D01*
X170369048Y-104757143D01*
X170464286Y-104614286D01*
X170511905Y-104423810D01*
X170511905Y-104042857D01*
X170464286Y-103947619D01*
X170416667Y-103900000D01*
X170321429Y-103852381D01*
X170130952Y-103852381D01*
X170035714Y-103900000D01*
X169988095Y-103947619D01*
X169940476Y-104042857D01*
X169940476Y-104280952D01*
X169988095Y-104376190D01*
X170035714Y-104423810D01*
X170130952Y-104471429D01*
X170321429Y-104471429D01*
X170416667Y-104423810D01*
X170464286Y-104376190D01*
X170511905Y-104280952D01*
X168607143Y-110802381D02*
X168273809Y-110326190D01*
X168035714Y-110802381D02*
X168035714Y-109802381D01*
X168416667Y-109802381D01*
X168511905Y-109850000D01*
X168559524Y-109897619D01*
X168607143Y-109992857D01*
X168607143Y-110135714D01*
X168559524Y-110230952D01*
X168511905Y-110278571D01*
X168416667Y-110326190D01*
X168035714Y-110326190D01*
X168988095Y-109897619D02*
X169035714Y-109850000D01*
X169130952Y-109802381D01*
X169369048Y-109802381D01*
X169464286Y-109850000D01*
X169511905Y-109897619D01*
X169559524Y-109992857D01*
X169559524Y-110088095D01*
X169511905Y-110230952D01*
X168940476Y-110802381D01*
X169559524Y-110802381D01*
X170178571Y-109802381D02*
X170273810Y-109802381D01*
X170369048Y-109850000D01*
X170416667Y-109897619D01*
X170464286Y-109992857D01*
X170511905Y-110183333D01*
X170511905Y-110421429D01*
X170464286Y-110611905D01*
X170416667Y-110707143D01*
X170369048Y-110754762D01*
X170273810Y-110802381D01*
X170178571Y-110802381D01*
X170083333Y-110754762D01*
X170035714Y-110707143D01*
X169988095Y-110611905D01*
X169940476Y-110421429D01*
X169940476Y-110183333D01*
X169988095Y-109992857D01*
X170035714Y-109897619D01*
X170083333Y-109850000D01*
X170178571Y-109802381D01*
X168607143Y-106052381D02*
X168273809Y-105576190D01*
X168035714Y-106052381D02*
X168035714Y-105052381D01*
X168416667Y-105052381D01*
X168511905Y-105100000D01*
X168559524Y-105147619D01*
X168607143Y-105242857D01*
X168607143Y-105385714D01*
X168559524Y-105480952D01*
X168511905Y-105528571D01*
X168416667Y-105576190D01*
X168035714Y-105576190D01*
X168988095Y-105147619D02*
X169035714Y-105100000D01*
X169130952Y-105052381D01*
X169369048Y-105052381D01*
X169464286Y-105100000D01*
X169511905Y-105147619D01*
X169559524Y-105242857D01*
X169559524Y-105338095D01*
X169511905Y-105480952D01*
X168940476Y-106052381D01*
X169559524Y-106052381D01*
X170511905Y-106052381D02*
X169940476Y-106052381D01*
X170226190Y-106052381D02*
X170226190Y-105052381D01*
X170130952Y-105195238D01*
X170035714Y-105290476D01*
X169940476Y-105338095D01*
X175452381Y-114392857D02*
X174976190Y-114726191D01*
X175452381Y-114964286D02*
X174452381Y-114964286D01*
X174452381Y-114583333D01*
X174500000Y-114488095D01*
X174547619Y-114440476D01*
X174642857Y-114392857D01*
X174785714Y-114392857D01*
X174880952Y-114440476D01*
X174928571Y-114488095D01*
X174976190Y-114583333D01*
X174976190Y-114964286D01*
X174547619Y-114011905D02*
X174500000Y-113964286D01*
X174452381Y-113869048D01*
X174452381Y-113630952D01*
X174500000Y-113535714D01*
X174547619Y-113488095D01*
X174642857Y-113440476D01*
X174738095Y-113440476D01*
X174880952Y-113488095D01*
X175452381Y-114059524D01*
X175452381Y-113440476D01*
X174547619Y-113059524D02*
X174500000Y-113011905D01*
X174452381Y-112916667D01*
X174452381Y-112678571D01*
X174500000Y-112583333D01*
X174547619Y-112535714D01*
X174642857Y-112488095D01*
X174738095Y-112488095D01*
X174880952Y-112535714D01*
X175452381Y-113107143D01*
X175452381Y-112488095D01*
X173352381Y-93142857D02*
X172876190Y-93476191D01*
X173352381Y-93714286D02*
X172352381Y-93714286D01*
X172352381Y-93333333D01*
X172400000Y-93238095D01*
X172447619Y-93190476D01*
X172542857Y-93142857D01*
X172685714Y-93142857D01*
X172780952Y-93190476D01*
X172828571Y-93238095D01*
X172876190Y-93333333D01*
X172876190Y-93714286D01*
X172447619Y-92761905D02*
X172400000Y-92714286D01*
X172352381Y-92619048D01*
X172352381Y-92380952D01*
X172400000Y-92285714D01*
X172447619Y-92238095D01*
X172542857Y-92190476D01*
X172638095Y-92190476D01*
X172780952Y-92238095D01*
X173352381Y-92809524D01*
X173352381Y-92190476D01*
X172352381Y-91857143D02*
X172352381Y-91238095D01*
X172733333Y-91571429D01*
X172733333Y-91428571D01*
X172780952Y-91333333D01*
X172828571Y-91285714D01*
X172923810Y-91238095D01*
X173161905Y-91238095D01*
X173257143Y-91285714D01*
X173304762Y-91333333D01*
X173352381Y-91428571D01*
X173352381Y-91714286D01*
X173304762Y-91809524D01*
X173257143Y-91857143D01*
X192302381Y-105642857D02*
X191826190Y-105976191D01*
X192302381Y-106214286D02*
X191302381Y-106214286D01*
X191302381Y-105833333D01*
X191350000Y-105738095D01*
X191397619Y-105690476D01*
X191492857Y-105642857D01*
X191635714Y-105642857D01*
X191730952Y-105690476D01*
X191778571Y-105738095D01*
X191826190Y-105833333D01*
X191826190Y-106214286D01*
X191397619Y-105261905D02*
X191350000Y-105214286D01*
X191302381Y-105119048D01*
X191302381Y-104880952D01*
X191350000Y-104785714D01*
X191397619Y-104738095D01*
X191492857Y-104690476D01*
X191588095Y-104690476D01*
X191730952Y-104738095D01*
X192302381Y-105309524D01*
X192302381Y-104690476D01*
X191635714Y-103833333D02*
X192302381Y-103833333D01*
X191254762Y-104071429D02*
X191969048Y-104309524D01*
X191969048Y-103690476D01*
X190052381Y-105642857D02*
X189576190Y-105976191D01*
X190052381Y-106214286D02*
X189052381Y-106214286D01*
X189052381Y-105833333D01*
X189100000Y-105738095D01*
X189147619Y-105690476D01*
X189242857Y-105642857D01*
X189385714Y-105642857D01*
X189480952Y-105690476D01*
X189528571Y-105738095D01*
X189576190Y-105833333D01*
X189576190Y-106214286D01*
X189147619Y-105261905D02*
X189100000Y-105214286D01*
X189052381Y-105119048D01*
X189052381Y-104880952D01*
X189100000Y-104785714D01*
X189147619Y-104738095D01*
X189242857Y-104690476D01*
X189338095Y-104690476D01*
X189480952Y-104738095D01*
X190052381Y-105309524D01*
X190052381Y-104690476D01*
X189052381Y-103785714D02*
X189052381Y-104261905D01*
X189528571Y-104309524D01*
X189480952Y-104261905D01*
X189433333Y-104166667D01*
X189433333Y-103928571D01*
X189480952Y-103833333D01*
X189528571Y-103785714D01*
X189623810Y-103738095D01*
X189861905Y-103738095D01*
X189957143Y-103785714D01*
X190004762Y-103833333D01*
X190052381Y-103928571D01*
X190052381Y-104166667D01*
X190004762Y-104261905D01*
X189957143Y-104309524D01*
X190052381Y-98892857D02*
X189576190Y-99226191D01*
X190052381Y-99464286D02*
X189052381Y-99464286D01*
X189052381Y-99083333D01*
X189100000Y-98988095D01*
X189147619Y-98940476D01*
X189242857Y-98892857D01*
X189385714Y-98892857D01*
X189480952Y-98940476D01*
X189528571Y-98988095D01*
X189576190Y-99083333D01*
X189576190Y-99464286D01*
X189147619Y-98511905D02*
X189100000Y-98464286D01*
X189052381Y-98369048D01*
X189052381Y-98130952D01*
X189100000Y-98035714D01*
X189147619Y-97988095D01*
X189242857Y-97940476D01*
X189338095Y-97940476D01*
X189480952Y-97988095D01*
X190052381Y-98559524D01*
X190052381Y-97940476D01*
X189052381Y-97083333D02*
X189052381Y-97273810D01*
X189100000Y-97369048D01*
X189147619Y-97416667D01*
X189290476Y-97511905D01*
X189480952Y-97559524D01*
X189861905Y-97559524D01*
X189957143Y-97511905D01*
X190004762Y-97464286D01*
X190052381Y-97369048D01*
X190052381Y-97178571D01*
X190004762Y-97083333D01*
X189957143Y-97035714D01*
X189861905Y-96988095D01*
X189623810Y-96988095D01*
X189528571Y-97035714D01*
X189480952Y-97083333D01*
X189433333Y-97178571D01*
X189433333Y-97369048D01*
X189480952Y-97464286D01*
X189528571Y-97511905D01*
X189623810Y-97559524D01*
X192302381Y-98892857D02*
X191826190Y-99226191D01*
X192302381Y-99464286D02*
X191302381Y-99464286D01*
X191302381Y-99083333D01*
X191350000Y-98988095D01*
X191397619Y-98940476D01*
X191492857Y-98892857D01*
X191635714Y-98892857D01*
X191730952Y-98940476D01*
X191778571Y-98988095D01*
X191826190Y-99083333D01*
X191826190Y-99464286D01*
X191397619Y-98511905D02*
X191350000Y-98464286D01*
X191302381Y-98369048D01*
X191302381Y-98130952D01*
X191350000Y-98035714D01*
X191397619Y-97988095D01*
X191492857Y-97940476D01*
X191588095Y-97940476D01*
X191730952Y-97988095D01*
X192302381Y-98559524D01*
X192302381Y-97940476D01*
X191302381Y-97607143D02*
X191302381Y-96940476D01*
X192302381Y-97369048D01*
X185552381Y-98892857D02*
X185076190Y-99226191D01*
X185552381Y-99464286D02*
X184552381Y-99464286D01*
X184552381Y-99083333D01*
X184600000Y-98988095D01*
X184647619Y-98940476D01*
X184742857Y-98892857D01*
X184885714Y-98892857D01*
X184980952Y-98940476D01*
X185028571Y-98988095D01*
X185076190Y-99083333D01*
X185076190Y-99464286D01*
X184647619Y-98511905D02*
X184600000Y-98464286D01*
X184552381Y-98369048D01*
X184552381Y-98130952D01*
X184600000Y-98035714D01*
X184647619Y-97988095D01*
X184742857Y-97940476D01*
X184838095Y-97940476D01*
X184980952Y-97988095D01*
X185552381Y-98559524D01*
X185552381Y-97940476D01*
X184980952Y-97369048D02*
X184933333Y-97464286D01*
X184885714Y-97511905D01*
X184790476Y-97559524D01*
X184742857Y-97559524D01*
X184647619Y-97511905D01*
X184600000Y-97464286D01*
X184552381Y-97369048D01*
X184552381Y-97178571D01*
X184600000Y-97083333D01*
X184647619Y-97035714D01*
X184742857Y-96988095D01*
X184790476Y-96988095D01*
X184885714Y-97035714D01*
X184933333Y-97083333D01*
X184980952Y-97178571D01*
X184980952Y-97369048D01*
X185028571Y-97464286D01*
X185076190Y-97511905D01*
X185171429Y-97559524D01*
X185361905Y-97559524D01*
X185457143Y-97511905D01*
X185504762Y-97464286D01*
X185552381Y-97369048D01*
X185552381Y-97178571D01*
X185504762Y-97083333D01*
X185457143Y-97035714D01*
X185361905Y-96988095D01*
X185171429Y-96988095D01*
X185076190Y-97035714D01*
X185028571Y-97083333D01*
X184980952Y-97178571D01*
X187802381Y-98892857D02*
X187326190Y-99226191D01*
X187802381Y-99464286D02*
X186802381Y-99464286D01*
X186802381Y-99083333D01*
X186850000Y-98988095D01*
X186897619Y-98940476D01*
X186992857Y-98892857D01*
X187135714Y-98892857D01*
X187230952Y-98940476D01*
X187278571Y-98988095D01*
X187326190Y-99083333D01*
X187326190Y-99464286D01*
X186897619Y-98511905D02*
X186850000Y-98464286D01*
X186802381Y-98369048D01*
X186802381Y-98130952D01*
X186850000Y-98035714D01*
X186897619Y-97988095D01*
X186992857Y-97940476D01*
X187088095Y-97940476D01*
X187230952Y-97988095D01*
X187802381Y-98559524D01*
X187802381Y-97940476D01*
X187802381Y-97464286D02*
X187802381Y-97273810D01*
X187754762Y-97178571D01*
X187707143Y-97130952D01*
X187564286Y-97035714D01*
X187373810Y-96988095D01*
X186992857Y-96988095D01*
X186897619Y-97035714D01*
X186850000Y-97083333D01*
X186802381Y-97178571D01*
X186802381Y-97369048D01*
X186850000Y-97464286D01*
X186897619Y-97511905D01*
X186992857Y-97559524D01*
X187230952Y-97559524D01*
X187326190Y-97511905D01*
X187373810Y-97464286D01*
X187421429Y-97369048D01*
X187421429Y-97178571D01*
X187373810Y-97083333D01*
X187326190Y-97035714D01*
X187230952Y-96988095D01*
X192802381Y-90892857D02*
X192326190Y-91226191D01*
X192802381Y-91464286D02*
X191802381Y-91464286D01*
X191802381Y-91083333D01*
X191850000Y-90988095D01*
X191897619Y-90940476D01*
X191992857Y-90892857D01*
X192135714Y-90892857D01*
X192230952Y-90940476D01*
X192278571Y-90988095D01*
X192326190Y-91083333D01*
X192326190Y-91464286D01*
X191802381Y-90559524D02*
X191802381Y-89940476D01*
X192183333Y-90273810D01*
X192183333Y-90130952D01*
X192230952Y-90035714D01*
X192278571Y-89988095D01*
X192373810Y-89940476D01*
X192611905Y-89940476D01*
X192707143Y-89988095D01*
X192754762Y-90035714D01*
X192802381Y-90130952D01*
X192802381Y-90416667D01*
X192754762Y-90511905D01*
X192707143Y-90559524D01*
X191802381Y-89321429D02*
X191802381Y-89226190D01*
X191850000Y-89130952D01*
X191897619Y-89083333D01*
X191992857Y-89035714D01*
X192183333Y-88988095D01*
X192421429Y-88988095D01*
X192611905Y-89035714D01*
X192707143Y-89083333D01*
X192754762Y-89130952D01*
X192802381Y-89226190D01*
X192802381Y-89321429D01*
X192754762Y-89416667D01*
X192707143Y-89464286D01*
X192611905Y-89511905D01*
X192421429Y-89559524D01*
X192183333Y-89559524D01*
X191992857Y-89511905D01*
X191897619Y-89464286D01*
X191850000Y-89416667D01*
X191802381Y-89321429D01*
X190052381Y-90892857D02*
X189576190Y-91226191D01*
X190052381Y-91464286D02*
X189052381Y-91464286D01*
X189052381Y-91083333D01*
X189100000Y-90988095D01*
X189147619Y-90940476D01*
X189242857Y-90892857D01*
X189385714Y-90892857D01*
X189480952Y-90940476D01*
X189528571Y-90988095D01*
X189576190Y-91083333D01*
X189576190Y-91464286D01*
X189052381Y-90559524D02*
X189052381Y-89940476D01*
X189433333Y-90273810D01*
X189433333Y-90130952D01*
X189480952Y-90035714D01*
X189528571Y-89988095D01*
X189623810Y-89940476D01*
X189861905Y-89940476D01*
X189957143Y-89988095D01*
X190004762Y-90035714D01*
X190052381Y-90130952D01*
X190052381Y-90416667D01*
X190004762Y-90511905D01*
X189957143Y-90559524D01*
X190052381Y-88988095D02*
X190052381Y-89559524D01*
X190052381Y-89273810D02*
X189052381Y-89273810D01*
X189195238Y-89369048D01*
X189290476Y-89464286D01*
X189338095Y-89559524D01*
X187302381Y-90892857D02*
X186826190Y-91226191D01*
X187302381Y-91464286D02*
X186302381Y-91464286D01*
X186302381Y-91083333D01*
X186350000Y-90988095D01*
X186397619Y-90940476D01*
X186492857Y-90892857D01*
X186635714Y-90892857D01*
X186730952Y-90940476D01*
X186778571Y-90988095D01*
X186826190Y-91083333D01*
X186826190Y-91464286D01*
X186302381Y-90559524D02*
X186302381Y-89940476D01*
X186683333Y-90273810D01*
X186683333Y-90130952D01*
X186730952Y-90035714D01*
X186778571Y-89988095D01*
X186873810Y-89940476D01*
X187111905Y-89940476D01*
X187207143Y-89988095D01*
X187254762Y-90035714D01*
X187302381Y-90130952D01*
X187302381Y-90416667D01*
X187254762Y-90511905D01*
X187207143Y-90559524D01*
X186397619Y-89559524D02*
X186350000Y-89511905D01*
X186302381Y-89416667D01*
X186302381Y-89178571D01*
X186350000Y-89083333D01*
X186397619Y-89035714D01*
X186492857Y-88988095D01*
X186588095Y-88988095D01*
X186730952Y-89035714D01*
X187302381Y-89607143D01*
X187302381Y-88988095D01*
X184552381Y-90892857D02*
X184076190Y-91226191D01*
X184552381Y-91464286D02*
X183552381Y-91464286D01*
X183552381Y-91083333D01*
X183600000Y-90988095D01*
X183647619Y-90940476D01*
X183742857Y-90892857D01*
X183885714Y-90892857D01*
X183980952Y-90940476D01*
X184028571Y-90988095D01*
X184076190Y-91083333D01*
X184076190Y-91464286D01*
X183552381Y-90559524D02*
X183552381Y-89940476D01*
X183933333Y-90273810D01*
X183933333Y-90130952D01*
X183980952Y-90035714D01*
X184028571Y-89988095D01*
X184123810Y-89940476D01*
X184361905Y-89940476D01*
X184457143Y-89988095D01*
X184504762Y-90035714D01*
X184552381Y-90130952D01*
X184552381Y-90416667D01*
X184504762Y-90511905D01*
X184457143Y-90559524D01*
X183552381Y-89607143D02*
X183552381Y-88988095D01*
X183933333Y-89321429D01*
X183933333Y-89178571D01*
X183980952Y-89083333D01*
X184028571Y-89035714D01*
X184123810Y-88988095D01*
X184361905Y-88988095D01*
X184457143Y-89035714D01*
X184504762Y-89083333D01*
X184552381Y-89178571D01*
X184552381Y-89464286D01*
X184504762Y-89559524D01*
X184457143Y-89607143D01*
D13*
X195703333Y-108183334D02*
X195736667Y-108083334D01*
X195736667Y-107916667D01*
X195703333Y-107850000D01*
X195670000Y-107816667D01*
X195603333Y-107783334D01*
X195536667Y-107783334D01*
X195470000Y-107816667D01*
X195436667Y-107850000D01*
X195403333Y-107916667D01*
X195370000Y-108050000D01*
X195336667Y-108116667D01*
X195303333Y-108150000D01*
X195236667Y-108183334D01*
X195170000Y-108183334D01*
X195103333Y-108150000D01*
X195070000Y-108116667D01*
X195036667Y-108050000D01*
X195036667Y-107883334D01*
X195070000Y-107783334D01*
X195036667Y-107550000D02*
X195736667Y-107383333D01*
X195236667Y-107250000D01*
X195736667Y-107116667D01*
X195036667Y-106950000D01*
X195736667Y-106316667D02*
X195736667Y-106716667D01*
X195736667Y-106516667D02*
X195036667Y-106516667D01*
X195136667Y-106583333D01*
X195203333Y-106650000D01*
X195236667Y-106716667D01*
X191330000Y-110016667D02*
X191363333Y-109916667D01*
X191396667Y-109883334D01*
X191463333Y-109850000D01*
X191563333Y-109850000D01*
X191630000Y-109883334D01*
X191663333Y-109916667D01*
X191696667Y-109983334D01*
X191696667Y-110250000D01*
X190996667Y-110250000D01*
X190996667Y-110016667D01*
X191030000Y-109950000D01*
X191063333Y-109916667D01*
X191130000Y-109883334D01*
X191196667Y-109883334D01*
X191263333Y-109916667D01*
X191296667Y-109950000D01*
X191330000Y-110016667D01*
X191330000Y-110250000D01*
X190996667Y-109616667D02*
X190996667Y-109183334D01*
X191263333Y-109416667D01*
X191263333Y-109316667D01*
X191296667Y-109250000D01*
X191330000Y-109216667D01*
X191396667Y-109183334D01*
X191563333Y-109183334D01*
X191630000Y-109216667D01*
X191663333Y-109250000D01*
X191696667Y-109316667D01*
X191696667Y-109516667D01*
X191663333Y-109583334D01*
X191630000Y-109616667D01*
X190996667Y-108883333D02*
X191563333Y-108883333D01*
X191630000Y-108850000D01*
X191663333Y-108816667D01*
X191696667Y-108750000D01*
X191696667Y-108616667D01*
X191663333Y-108550000D01*
X191630000Y-108516667D01*
X191563333Y-108483333D01*
X190996667Y-108483333D01*
X191430000Y-108150000D02*
X191430000Y-107616667D01*
X191696667Y-106916667D02*
X191696667Y-107316667D01*
X191696667Y-107116667D02*
X190996667Y-107116667D01*
X191096667Y-107183333D01*
X191163333Y-107250000D01*
X191196667Y-107316667D01*
X190996667Y-106483333D02*
X190996667Y-106416666D01*
X191030000Y-106350000D01*
X191063333Y-106316666D01*
X191130000Y-106283333D01*
X191263333Y-106250000D01*
X191430000Y-106250000D01*
X191563333Y-106283333D01*
X191630000Y-106316666D01*
X191663333Y-106350000D01*
X191696667Y-106416666D01*
X191696667Y-106483333D01*
X191663333Y-106550000D01*
X191630000Y-106583333D01*
X191563333Y-106616666D01*
X191430000Y-106650000D01*
X191263333Y-106650000D01*
X191130000Y-106616666D01*
X191063333Y-106583333D01*
X191030000Y-106550000D01*
X190996667Y-106483333D01*
X190996667Y-105816666D02*
X190996667Y-105749999D01*
X191030000Y-105683333D01*
X191063333Y-105649999D01*
X191130000Y-105616666D01*
X191263333Y-105583333D01*
X191430000Y-105583333D01*
X191563333Y-105616666D01*
X191630000Y-105649999D01*
X191663333Y-105683333D01*
X191696667Y-105749999D01*
X191696667Y-105816666D01*
X191663333Y-105883333D01*
X191630000Y-105916666D01*
X191563333Y-105949999D01*
X191430000Y-105983333D01*
X191263333Y-105983333D01*
X191130000Y-105949999D01*
X191063333Y-105916666D01*
X191030000Y-105883333D01*
X190996667Y-105816666D01*
X190996667Y-105149999D02*
X190996667Y-105083332D01*
X191030000Y-105016666D01*
X191063333Y-104983332D01*
X191130000Y-104949999D01*
X191263333Y-104916666D01*
X191430000Y-104916666D01*
X191563333Y-104949999D01*
X191630000Y-104983332D01*
X191663333Y-105016666D01*
X191696667Y-105083332D01*
X191696667Y-105149999D01*
X191663333Y-105216666D01*
X191630000Y-105249999D01*
X191563333Y-105283332D01*
X191430000Y-105316666D01*
X191263333Y-105316666D01*
X191130000Y-105283332D01*
X191063333Y-105249999D01*
X191030000Y-105216666D01*
X190996667Y-105149999D01*
X191696667Y-104616665D02*
X190996667Y-104616665D01*
X190996667Y-104349999D01*
X191030000Y-104283332D01*
X191063333Y-104249999D01*
X191130000Y-104216665D01*
X191230000Y-104216665D01*
X191296667Y-104249999D01*
X191330000Y-104283332D01*
X191363333Y-104349999D01*
X191363333Y-104616665D01*
D11*
X192572381Y-80661905D02*
X193381905Y-80661905D01*
X193477143Y-80614286D01*
X193524762Y-80566667D01*
X193572381Y-80471429D01*
X193572381Y-80280952D01*
X193524762Y-80185714D01*
X193477143Y-80138095D01*
X193381905Y-80090476D01*
X192572381Y-80090476D01*
X193572381Y-79090476D02*
X193572381Y-79661905D01*
X193572381Y-79376191D02*
X192572381Y-79376191D01*
X192715238Y-79471429D01*
X192810476Y-79566667D01*
X192858095Y-79661905D01*
X105502381Y-80461905D02*
X106311905Y-80461905D01*
X106407143Y-80414286D01*
X106454762Y-80366667D01*
X106502381Y-80271429D01*
X106502381Y-80080952D01*
X106454762Y-79985714D01*
X106407143Y-79938095D01*
X106311905Y-79890476D01*
X105502381Y-79890476D01*
X105502381Y-79509524D02*
X105502381Y-78890476D01*
X105883333Y-79223810D01*
X105883333Y-79080952D01*
X105930952Y-78985714D01*
X105978571Y-78938095D01*
X106073810Y-78890476D01*
X106311905Y-78890476D01*
X106407143Y-78938095D01*
X106454762Y-78985714D01*
X106502381Y-79080952D01*
X106502381Y-79366667D01*
X106454762Y-79461905D01*
X106407143Y-79509524D01*
X180952381Y-120511905D02*
X181761905Y-120511905D01*
X181857143Y-120464286D01*
X181904762Y-120416667D01*
X181952381Y-120321429D01*
X181952381Y-120130952D01*
X181904762Y-120035714D01*
X181857143Y-119988095D01*
X181761905Y-119940476D01*
X180952381Y-119940476D01*
X181285714Y-119035714D02*
X181952381Y-119035714D01*
X180904762Y-119273810D02*
X181619048Y-119511905D01*
X181619048Y-118892857D01*
X154238095Y-115852381D02*
X154238095Y-116661905D01*
X154285714Y-116757143D01*
X154333333Y-116804762D01*
X154428571Y-116852381D01*
X154619048Y-116852381D01*
X154714286Y-116804762D01*
X154761905Y-116757143D01*
X154809524Y-116661905D01*
X154809524Y-115852381D01*
X155761905Y-115852381D02*
X155285714Y-115852381D01*
X155238095Y-116328571D01*
X155285714Y-116280952D01*
X155380952Y-116233333D01*
X155619048Y-116233333D01*
X155714286Y-116280952D01*
X155761905Y-116328571D01*
X155809524Y-116423810D01*
X155809524Y-116661905D01*
X155761905Y-116757143D01*
X155714286Y-116804762D01*
X155619048Y-116852381D01*
X155380952Y-116852381D01*
X155285714Y-116804762D01*
X155238095Y-116757143D01*
X154488095Y-105352381D02*
X154488095Y-106161905D01*
X154535714Y-106257143D01*
X154583333Y-106304762D01*
X154678571Y-106352381D01*
X154869048Y-106352381D01*
X154964286Y-106304762D01*
X155011905Y-106257143D01*
X155059524Y-106161905D01*
X155059524Y-105352381D01*
X155964286Y-105352381D02*
X155773809Y-105352381D01*
X155678571Y-105400000D01*
X155630952Y-105447619D01*
X155535714Y-105590476D01*
X155488095Y-105780952D01*
X155488095Y-106161905D01*
X155535714Y-106257143D01*
X155583333Y-106304762D01*
X155678571Y-106352381D01*
X155869048Y-106352381D01*
X155964286Y-106304762D01*
X156011905Y-106257143D01*
X156059524Y-106161905D01*
X156059524Y-105923810D01*
X156011905Y-105828571D01*
X155964286Y-105780952D01*
X155869048Y-105733333D01*
X155678571Y-105733333D01*
X155583333Y-105780952D01*
X155535714Y-105828571D01*
X155488095Y-105923810D01*
X154488095Y-101602381D02*
X154488095Y-102411905D01*
X154535714Y-102507143D01*
X154583333Y-102554762D01*
X154678571Y-102602381D01*
X154869048Y-102602381D01*
X154964286Y-102554762D01*
X155011905Y-102507143D01*
X155059524Y-102411905D01*
X155059524Y-101602381D01*
X155440476Y-101602381D02*
X156107143Y-101602381D01*
X155678571Y-102602381D01*
X179988095Y-102452381D02*
X179988095Y-103261905D01*
X180035714Y-103357143D01*
X180083333Y-103404762D01*
X180178571Y-103452381D01*
X180369048Y-103452381D01*
X180464286Y-103404762D01*
X180511905Y-103357143D01*
X180559524Y-103261905D01*
X180559524Y-102452381D01*
X181178571Y-102880952D02*
X181083333Y-102833333D01*
X181035714Y-102785714D01*
X180988095Y-102690476D01*
X180988095Y-102642857D01*
X181035714Y-102547619D01*
X181083333Y-102500000D01*
X181178571Y-102452381D01*
X181369048Y-102452381D01*
X181464286Y-102500000D01*
X181511905Y-102547619D01*
X181559524Y-102642857D01*
X181559524Y-102690476D01*
X181511905Y-102785714D01*
X181464286Y-102833333D01*
X181369048Y-102880952D01*
X181178571Y-102880952D01*
X181083333Y-102928571D01*
X181035714Y-102976190D01*
X180988095Y-103071429D01*
X180988095Y-103261905D01*
X181035714Y-103357143D01*
X181083333Y-103404762D01*
X181178571Y-103452381D01*
X181369048Y-103452381D01*
X181464286Y-103404762D01*
X181511905Y-103357143D01*
X181559524Y-103261905D01*
X181559524Y-103071429D01*
X181511905Y-102976190D01*
X181464286Y-102928571D01*
X181369048Y-102880952D01*
X176738095Y-95202381D02*
X176738095Y-96011905D01*
X176785714Y-96107143D01*
X176833333Y-96154762D01*
X176928571Y-96202381D01*
X177119048Y-96202381D01*
X177214286Y-96154762D01*
X177261905Y-96107143D01*
X177309524Y-96011905D01*
X177309524Y-95202381D01*
X177833333Y-96202381D02*
X178023809Y-96202381D01*
X178119048Y-96154762D01*
X178166667Y-96107143D01*
X178261905Y-95964286D01*
X178309524Y-95773810D01*
X178309524Y-95392857D01*
X178261905Y-95297619D01*
X178214286Y-95250000D01*
X178119048Y-95202381D01*
X177928571Y-95202381D01*
X177833333Y-95250000D01*
X177785714Y-95297619D01*
X177738095Y-95392857D01*
X177738095Y-95630952D01*
X177785714Y-95726190D01*
X177833333Y-95773810D01*
X177928571Y-95821429D01*
X178119048Y-95821429D01*
X178214286Y-95773810D01*
X178261905Y-95726190D01*
X178309524Y-95630952D01*
X119190476Y-102052381D02*
X119523809Y-103052381D01*
X119857143Y-102052381D01*
X120714286Y-103052381D02*
X120142857Y-103052381D01*
X120428571Y-103052381D02*
X120428571Y-102052381D01*
X120333333Y-102195238D01*
X120238095Y-102290476D01*
X120142857Y-102338095D01*
X155576190Y-91376191D02*
X156052381Y-91376191D01*
X155052381Y-91709524D02*
X155576190Y-91376191D01*
X155052381Y-91042857D01*
X156052381Y-90185714D02*
X156052381Y-90757143D01*
X156052381Y-90471429D02*
X155052381Y-90471429D01*
X155195238Y-90566667D01*
X155290476Y-90661905D01*
X155338095Y-90757143D01*
X106407143Y-124666666D02*
X106454762Y-124714285D01*
X106502381Y-124857142D01*
X106502381Y-124952380D01*
X106454762Y-125095238D01*
X106359524Y-125190476D01*
X106264286Y-125238095D01*
X106073810Y-125285714D01*
X105930952Y-125285714D01*
X105740476Y-125238095D01*
X105645238Y-125190476D01*
X105550000Y-125095238D01*
X105502381Y-124952380D01*
X105502381Y-124857142D01*
X105550000Y-124714285D01*
X105597619Y-124666666D01*
X105597619Y-124285714D02*
X105550000Y-124238095D01*
X105502381Y-124142857D01*
X105502381Y-123904761D01*
X105550000Y-123809523D01*
X105597619Y-123761904D01*
X105692857Y-123714285D01*
X105788095Y-123714285D01*
X105930952Y-123761904D01*
X106502381Y-124333333D01*
X106502381Y-123714285D01*
X107671429Y-120100952D02*
X107671429Y-119339047D01*
X108052381Y-119719999D02*
X107290476Y-119719999D01*
X113502381Y-117438095D02*
X112502381Y-117438095D01*
X112502381Y-117200000D01*
X112550000Y-117057142D01*
X112645238Y-116961904D01*
X112740476Y-116914285D01*
X112930952Y-116866666D01*
X113073810Y-116866666D01*
X113264286Y-116914285D01*
X113359524Y-116961904D01*
X113454762Y-117057142D01*
X113502381Y-117200000D01*
X113502381Y-117438095D01*
X113502381Y-115914285D02*
X113502381Y-116485714D01*
X113502381Y-116200000D02*
X112502381Y-116200000D01*
X112645238Y-116295238D01*
X112740476Y-116390476D01*
X112788095Y-116485714D01*
X122583334Y-132862381D02*
X122107143Y-132862381D01*
X122107143Y-131862381D01*
X123440477Y-132862381D02*
X122869048Y-132862381D01*
X123154762Y-132862381D02*
X123154762Y-131862381D01*
X123059524Y-132005238D01*
X122964286Y-132100476D01*
X122869048Y-132148095D01*
X114152381Y-116938095D02*
X113152381Y-116938095D01*
X113152381Y-116700000D01*
X113200000Y-116557142D01*
X113295238Y-116461904D01*
X113390476Y-116414285D01*
X113580952Y-116366666D01*
X113723810Y-116366666D01*
X113914286Y-116414285D01*
X114009524Y-116461904D01*
X114104762Y-116557142D01*
X114152381Y-116700000D01*
X114152381Y-116938095D01*
X113152381Y-116033333D02*
X113152381Y-115414285D01*
X113533333Y-115747619D01*
X113533333Y-115604761D01*
X113580952Y-115509523D01*
X113628571Y-115461904D01*
X113723810Y-115414285D01*
X113961905Y-115414285D01*
X114057143Y-115461904D01*
X114104762Y-115509523D01*
X114152381Y-115604761D01*
X114152381Y-115890476D01*
X114104762Y-115985714D01*
X114057143Y-116033333D01*
X120761905Y-79052381D02*
X120761905Y-78052381D01*
X121000000Y-78052381D01*
X121142858Y-78100000D01*
X121238096Y-78195238D01*
X121285715Y-78290476D01*
X121333334Y-78480952D01*
X121333334Y-78623810D01*
X121285715Y-78814286D01*
X121238096Y-78909524D01*
X121142858Y-79004762D01*
X121000000Y-79052381D01*
X120761905Y-79052381D01*
X122190477Y-78385714D02*
X122190477Y-79052381D01*
X121952381Y-78004762D02*
X121714286Y-78719048D01*
X122333334Y-78719048D01*
X107352381Y-115892857D02*
X106876190Y-116226191D01*
X107352381Y-116464286D02*
X106352381Y-116464286D01*
X106352381Y-116083333D01*
X106400000Y-115988095D01*
X106447619Y-115940476D01*
X106542857Y-115892857D01*
X106685714Y-115892857D01*
X106780952Y-115940476D01*
X106828571Y-115988095D01*
X106876190Y-116083333D01*
X106876190Y-116464286D01*
X106352381Y-115559524D02*
X106352381Y-114940476D01*
X106733333Y-115273810D01*
X106733333Y-115130952D01*
X106780952Y-115035714D01*
X106828571Y-114988095D01*
X106923810Y-114940476D01*
X107161905Y-114940476D01*
X107257143Y-114988095D01*
X107304762Y-115035714D01*
X107352381Y-115130952D01*
X107352381Y-115416667D01*
X107304762Y-115511905D01*
X107257143Y-115559524D01*
X106685714Y-114083333D02*
X107352381Y-114083333D01*
X106304762Y-114321429D02*
X107019048Y-114559524D01*
X107019048Y-113940476D01*
X121757143Y-76402381D02*
X121423809Y-75926190D01*
X121185714Y-76402381D02*
X121185714Y-75402381D01*
X121566667Y-75402381D01*
X121661905Y-75450000D01*
X121709524Y-75497619D01*
X121757143Y-75592857D01*
X121757143Y-75735714D01*
X121709524Y-75830952D01*
X121661905Y-75878571D01*
X121566667Y-75926190D01*
X121185714Y-75926190D01*
X122090476Y-75402381D02*
X122709524Y-75402381D01*
X122376190Y-75783333D01*
X122519048Y-75783333D01*
X122614286Y-75830952D01*
X122661905Y-75878571D01*
X122709524Y-75973810D01*
X122709524Y-76211905D01*
X122661905Y-76307143D01*
X122614286Y-76354762D01*
X122519048Y-76402381D01*
X122233333Y-76402381D01*
X122138095Y-76354762D01*
X122090476Y-76307143D01*
X123614286Y-75402381D02*
X123138095Y-75402381D01*
X123090476Y-75878571D01*
X123138095Y-75830952D01*
X123233333Y-75783333D01*
X123471429Y-75783333D01*
X123566667Y-75830952D01*
X123614286Y-75878571D01*
X123661905Y-75973810D01*
X123661905Y-76211905D01*
X123614286Y-76307143D01*
X123566667Y-76354762D01*
X123471429Y-76402381D01*
X123233333Y-76402381D01*
X123138095Y-76354762D01*
X123090476Y-76307143D01*
X161857143Y-105407143D02*
X161809524Y-105454762D01*
X161666667Y-105502381D01*
X161571429Y-105502381D01*
X161428571Y-105454762D01*
X161333333Y-105359524D01*
X161285714Y-105264286D01*
X161238095Y-105073810D01*
X161238095Y-104930952D01*
X161285714Y-104740476D01*
X161333333Y-104645238D01*
X161428571Y-104550000D01*
X161571429Y-104502381D01*
X161666667Y-104502381D01*
X161809524Y-104550000D01*
X161857143Y-104597619D01*
X162238095Y-104597619D02*
X162285714Y-104550000D01*
X162380952Y-104502381D01*
X162619048Y-104502381D01*
X162714286Y-104550000D01*
X162761905Y-104597619D01*
X162809524Y-104692857D01*
X162809524Y-104788095D01*
X162761905Y-104930952D01*
X162190476Y-105502381D01*
X162809524Y-105502381D01*
X163666667Y-104502381D02*
X163476190Y-104502381D01*
X163380952Y-104550000D01*
X163333333Y-104597619D01*
X163238095Y-104740476D01*
X163190476Y-104930952D01*
X163190476Y-105311905D01*
X163238095Y-105407143D01*
X163285714Y-105454762D01*
X163380952Y-105502381D01*
X163571429Y-105502381D01*
X163666667Y-105454762D01*
X163714286Y-105407143D01*
X163761905Y-105311905D01*
X163761905Y-105073810D01*
X163714286Y-104978571D01*
X163666667Y-104930952D01*
X163571429Y-104883333D01*
X163380952Y-104883333D01*
X163285714Y-104930952D01*
X163238095Y-104978571D01*
X163190476Y-105073810D01*
X161857143Y-103007143D02*
X161809524Y-103054762D01*
X161666667Y-103102381D01*
X161571429Y-103102381D01*
X161428571Y-103054762D01*
X161333333Y-102959524D01*
X161285714Y-102864286D01*
X161238095Y-102673810D01*
X161238095Y-102530952D01*
X161285714Y-102340476D01*
X161333333Y-102245238D01*
X161428571Y-102150000D01*
X161571429Y-102102381D01*
X161666667Y-102102381D01*
X161809524Y-102150000D01*
X161857143Y-102197619D01*
X162238095Y-102197619D02*
X162285714Y-102150000D01*
X162380952Y-102102381D01*
X162619048Y-102102381D01*
X162714286Y-102150000D01*
X162761905Y-102197619D01*
X162809524Y-102292857D01*
X162809524Y-102388095D01*
X162761905Y-102530952D01*
X162190476Y-103102381D01*
X162809524Y-103102381D01*
X163142857Y-102102381D02*
X163809524Y-102102381D01*
X163380952Y-103102381D01*
X201912381Y-101641905D02*
X202721905Y-101641905D01*
X202817143Y-101594286D01*
X202864762Y-101546667D01*
X202912381Y-101451429D01*
X202912381Y-101260952D01*
X202864762Y-101165714D01*
X202817143Y-101118095D01*
X202721905Y-101070476D01*
X201912381Y-101070476D01*
X202007619Y-100641905D02*
X201960000Y-100594286D01*
X201912381Y-100499048D01*
X201912381Y-100260952D01*
X201960000Y-100165714D01*
X202007619Y-100118095D01*
X202102857Y-100070476D01*
X202198095Y-100070476D01*
X202340952Y-100118095D01*
X202912381Y-100689524D01*
X202912381Y-100070476D01*
M02*
