M48
;DRILL file {KiCad 4.0.5} date 03/17/18 11:36:12
;FORMAT={-:-/ absolute / metric / decimal}
FMAT,2
METRIC,TZ
T1C0.400
T2C0.762
T3C1.000
%
G90
G05
M71
T1
X107.364Y-114.075
X109.706Y-126.493
X110.4Y-70.4
X112.899Y-88.286
X115.643Y-115.406
X115.74Y-88.286
X117.025Y-112.55
X117.042Y-109.367
X118.617Y-78.867
X118.794Y-90.833
X118.875Y-73.966
X124.416Y-84.466
X128.2Y-90.889
X128.514Y-79.224
X128.58Y-111.83
X128.622Y-105.855
X130.873Y-79.029
X131.535Y-126.685
X131.724Y-85.774
X131.944Y-80.692
X133.129Y-77.82
X133.321Y-82.093
X136.416Y-120.845
X136.9Y-123.412
X138.945Y-87.741
X139.272Y-79.274
X140.828Y-103.634
X141.279Y-92.903
X141.921Y-83.025
X141.941Y-79.15
X142.516Y-98.249
X143.718Y-101.725
X145.874Y-94.152
X147.4Y-79.1
X149.6Y-92.766
X150.341Y-109.511
X150.573Y-103.14
X151.074Y-87.658
X151.074Y-91.261
X151.375Y-76.731
X151.49Y-108.173
X152.7Y-82.8
X154.466Y-106.306
X154.82Y-81.398
X155.Y-111.7
X155.Y-114.7
X155.Y-116.2
X155.1Y-108.6
X155.74Y-105.486
X156.9Y-78.2
X157.499Y-82.877
X157.76Y-126.838
X157.797Y-77.26
X157.892Y-113.824
X157.989Y-121.4
X158.201Y-81.534
X158.207Y-74.641
X158.248Y-78.242
X158.7Y-116.3
X158.8Y-101.3
X159.8Y-106.2
X160.Y-113.4
X160.355Y-82.877
X161.5Y-93.805
X161.758Y-113.678
X161.913Y-89.156
X162.7Y-110.2
X163.1Y-101.3
X163.109Y-116.821
X164.089Y-77.328
X164.093Y-81.534
X164.136Y-73.639
X164.427Y-85.377
X165.4Y-109.3
X167.2Y-83.6
X168.154Y-76.422
X168.208Y-79.799
X169.435Y-83.441
X169.631Y-81.849
X170.6Y-107.5
X170.737Y-125.637
X170.8Y-103.9
X171.3Y-111.9
X171.782Y-88.069
X172.Y-110.1
X172.125Y-75.548
X172.125Y-78.492
X173.155Y-114.233
X175.495Y-78.305
X175.6Y-117.159
X175.7Y-89.9
X175.814Y-86.934
X177.7Y-98.3
X177.8Y-94.7
X178.212Y-71.885
X179.2Y-92.8
X181.514Y-101.294
X181.6Y-107.9
X183.635Y-111.646
X183.953Y-110.682
X184.25Y-117.819
X184.883Y-106.503
X184.9Y-107.4
X185.279Y-124.612
X185.28Y-119.69
X186.195Y-123.707
X189.768Y-111.647
X191.518Y-125.732
X191.8Y-105.1
X193.5Y-96.782
X196.7Y-100.7
X199.009Y-125.741
X199.172Y-90.749
X199.339Y-113.879
X201.824Y-117.517
X203.359Y-113.872
X205.5Y-113.792
T2
X194.66Y-72.49
X194.66Y-74.78
X194.66Y-83.92
X194.66Y-86.21
X197.38Y-93.5
X197.38Y-108.5
X199.48Y-76.82
X199.48Y-78.85
X199.48Y-80.88
X199.48Y-82.91
X199.92Y-93.5
X199.92Y-108.5
X201.26Y-75.8
X201.26Y-77.83
X201.26Y-79.86
X201.26Y-81.89
X202.46Y-93.5
X202.46Y-108.5
X205.Y-93.5
X205.Y-108.5
T3
X108.6Y-90.4
X108.6Y-92.94
X108.6Y-95.48
X108.6Y-98.02
X108.6Y-102.3
X108.6Y-104.84
X108.6Y-107.38
X108.6Y-109.92
X113.75Y-99.
X116.25Y-99.
X118.75Y-99.
X121.25Y-99.
X122.22Y-70.88
X123.75Y-99.
X124.76Y-70.88
X126.25Y-99.
X127.3Y-70.88
X128.75Y-99.
X129.84Y-70.88
X131.25Y-99.
X131.3Y-119.13
X132.38Y-70.88
X132.52Y-105.6
X132.52Y-110.1
X132.52Y-114.7
X133.Y-123.
X133.Y-125.54
X133.Y-128.08
X133.75Y-99.
X133.84Y-119.13
X134.92Y-70.88
X135.06Y-105.6
X135.06Y-110.1
X135.06Y-114.7
X135.18Y-80.5
X135.2Y-75.6
X136.25Y-99.
X136.38Y-119.13
X137.46Y-70.88
X137.6Y-105.6
X137.6Y-110.1
X137.6Y-114.7
X137.72Y-80.5
X137.74Y-75.6
X138.75Y-99.
X138.75Y-123.
X138.75Y-125.54
X138.75Y-128.08
X138.92Y-119.13
X140.Y-70.88
X140.26Y-80.5
X140.28Y-75.6
X141.25Y-99.
X141.46Y-119.13
X142.54Y-70.88
X142.8Y-80.5
X142.82Y-75.6
X143.75Y-99.
X144.Y-119.13
X144.5Y-123.
X144.5Y-125.54
X144.5Y-128.08
X145.08Y-70.88
X146.25Y-99.
X146.54Y-119.13
X148.75Y-99.
X149.08Y-119.13
X149.15Y-70.86
X151.25Y-99.
X151.69Y-70.86
X153.75Y-99.
X154.17Y-119.15
X154.23Y-70.86
X156.25Y-99.
X156.71Y-119.15
X156.77Y-70.86
X158.75Y-99.
X159.25Y-119.15
X159.31Y-70.86
X161.25Y-99.
X161.79Y-119.15
X161.85Y-70.86
X164.33Y-119.15
X164.39Y-70.86
X166.87Y-119.15
X166.93Y-70.86
X167.Y-91.19
X167.Y-93.73
X167.Y-96.27
X169.41Y-119.15
X169.54Y-91.19
X169.54Y-93.73
X169.54Y-96.27
X171.95Y-119.15
X171.96Y-70.84
X174.Y-124.21
X174.Y-126.75
X174.5Y-70.84
X177.04Y-70.84
X179.58Y-70.84
X179.6Y-112.3
X179.6Y-114.84
X179.6Y-117.38
X179.6Y-119.92
X179.6Y-122.46
X179.6Y-125.
X182.12Y-70.84
X184.66Y-70.84
X187.2Y-70.84
X189.74Y-70.84
T0
M30
