G04 #@! TF.FileFunction,Legend,Top*
%FSLAX46Y46*%
G04 Gerber Fmt 4.6, Leading zero omitted, Abs format (unit mm)*
G04 Created by KiCad (PCBNEW 4.0.5) date 03/17/18 11:36:00*
%MOMM*%
%LPD*%
G01*
G04 APERTURE LIST*
%ADD10C,0.100000*%
%ADD11C,0.150000*%
%ADD12C,0.300000*%
%ADD13C,0.400000*%
%ADD14C,0.120000*%
%ADD15C,0.152400*%
G04 APERTURE END LIST*
D10*
D11*
X177002200Y-166007200D02*
X177002200Y-198007200D01*
X285002200Y-198007200D01*
X285002200Y-166007200D01*
X177002200Y-166007200D01*
D10*
D11*
X10000000Y-10000000D02*
X10000000Y-200007200D01*
X287002200Y-200007200D01*
X287002200Y-10000000D01*
X10000000Y-10000000D01*
D10*
D11*
X12000000Y-12000000D02*
X12000000Y-198007200D01*
X285002200Y-198007200D01*
X285002200Y-12000000D01*
X12000000Y-12000000D01*
D10*
D11*
X60000000Y-12000000D02*
X60000000Y-10000000D01*
D10*
D11*
X110000000Y-12000000D02*
X110000000Y-10000000D01*
D10*
D11*
X160000000Y-12000000D02*
X160000000Y-10000000D01*
D10*
D11*
X210000000Y-12000000D02*
X210000000Y-10000000D01*
D10*
D11*
X260000000Y-12000000D02*
X260000000Y-10000000D01*
D10*
D11*
X35990476Y-11588095D02*
X35247619Y-11588095D01*
X35619048Y-11588095D02*
X35619048Y-10288095D01*
X35495238Y-10473810D01*
X35371429Y-10597619D01*
X35247619Y-10659524D01*
D10*
D11*
X85247619Y-10411905D02*
X85309524Y-10350000D01*
X85433333Y-10288095D01*
X85742857Y-10288095D01*
X85866667Y-10350000D01*
X85928571Y-10411905D01*
X85990476Y-10535714D01*
X85990476Y-10659524D01*
X85928571Y-10845238D01*
X85185714Y-11588095D01*
X85990476Y-11588095D01*
D10*
D11*
X135185714Y-10288095D02*
X135990476Y-10288095D01*
X135557143Y-10783333D01*
X135742857Y-10783333D01*
X135866667Y-10845238D01*
X135928571Y-10907143D01*
X135990476Y-11030952D01*
X135990476Y-11340476D01*
X135928571Y-11464286D01*
X135866667Y-11526190D01*
X135742857Y-11588095D01*
X135371429Y-11588095D01*
X135247619Y-11526190D01*
X135185714Y-11464286D01*
D10*
D11*
X185866667Y-10721429D02*
X185866667Y-11588095D01*
X185557143Y-10226190D02*
X185247619Y-11154762D01*
X186052381Y-11154762D01*
D10*
D11*
X235928571Y-10288095D02*
X235309524Y-10288095D01*
X235247619Y-10907143D01*
X235309524Y-10845238D01*
X235433333Y-10783333D01*
X235742857Y-10783333D01*
X235866667Y-10845238D01*
X235928571Y-10907143D01*
X235990476Y-11030952D01*
X235990476Y-11340476D01*
X235928571Y-11464286D01*
X235866667Y-11526190D01*
X235742857Y-11588095D01*
X235433333Y-11588095D01*
X235309524Y-11526190D01*
X235247619Y-11464286D01*
D10*
D11*
X285866667Y-10288095D02*
X285619048Y-10288095D01*
X285495238Y-10350000D01*
X285433333Y-10411905D01*
X285309524Y-10597619D01*
X285247619Y-10845238D01*
X285247619Y-11340476D01*
X285309524Y-11464286D01*
X285371429Y-11526190D01*
X285495238Y-11588095D01*
X285742857Y-11588095D01*
X285866667Y-11526190D01*
X285928571Y-11464286D01*
X285990476Y-11340476D01*
X285990476Y-11030952D01*
X285928571Y-10907143D01*
X285866667Y-10845238D01*
X285742857Y-10783333D01*
X285495238Y-10783333D01*
X285371429Y-10845238D01*
X285309524Y-10907143D01*
X285247619Y-11030952D01*
D10*
D11*
X60000000Y-198007200D02*
X60000000Y-200007200D01*
D10*
D11*
X110000000Y-198007200D02*
X110000000Y-200007200D01*
D10*
D11*
X160000000Y-198007200D02*
X160000000Y-200007200D01*
D10*
D11*
X210000000Y-198007200D02*
X210000000Y-200007200D01*
D10*
D11*
X260000000Y-198007200D02*
X260000000Y-200007200D01*
D10*
D11*
X35990476Y-199595295D02*
X35247619Y-199595295D01*
X35619048Y-199595295D02*
X35619048Y-198295295D01*
X35495238Y-198481010D01*
X35371429Y-198604819D01*
X35247619Y-198666724D01*
D10*
D11*
X85247619Y-198419105D02*
X85309524Y-198357200D01*
X85433333Y-198295295D01*
X85742857Y-198295295D01*
X85866667Y-198357200D01*
X85928571Y-198419105D01*
X85990476Y-198542914D01*
X85990476Y-198666724D01*
X85928571Y-198852438D01*
X85185714Y-199595295D01*
X85990476Y-199595295D01*
D10*
D11*
X135185714Y-198295295D02*
X135990476Y-198295295D01*
X135557143Y-198790533D01*
X135742857Y-198790533D01*
X135866667Y-198852438D01*
X135928571Y-198914343D01*
X135990476Y-199038152D01*
X135990476Y-199347676D01*
X135928571Y-199471486D01*
X135866667Y-199533390D01*
X135742857Y-199595295D01*
X135371429Y-199595295D01*
X135247619Y-199533390D01*
X135185714Y-199471486D01*
D10*
D11*
X185866667Y-198728629D02*
X185866667Y-199595295D01*
X185557143Y-198233390D02*
X185247619Y-199161962D01*
X186052381Y-199161962D01*
D10*
D11*
X235928571Y-198295295D02*
X235309524Y-198295295D01*
X235247619Y-198914343D01*
X235309524Y-198852438D01*
X235433333Y-198790533D01*
X235742857Y-198790533D01*
X235866667Y-198852438D01*
X235928571Y-198914343D01*
X235990476Y-199038152D01*
X235990476Y-199347676D01*
X235928571Y-199471486D01*
X235866667Y-199533390D01*
X235742857Y-199595295D01*
X235433333Y-199595295D01*
X235309524Y-199533390D01*
X235247619Y-199471486D01*
D10*
D11*
X285866667Y-198295295D02*
X285619048Y-198295295D01*
X285495238Y-198357200D01*
X285433333Y-198419105D01*
X285309524Y-198604819D01*
X285247619Y-198852438D01*
X285247619Y-199347676D01*
X285309524Y-199471486D01*
X285371429Y-199533390D01*
X285495238Y-199595295D01*
X285742857Y-199595295D01*
X285866667Y-199533390D01*
X285928571Y-199471486D01*
X285990476Y-199347676D01*
X285990476Y-199038152D01*
X285928571Y-198914343D01*
X285866667Y-198852438D01*
X285742857Y-198790533D01*
X285495238Y-198790533D01*
X285371429Y-198852438D01*
X285309524Y-198914343D01*
X285247619Y-199038152D01*
D10*
D11*
X10000000Y-60000000D02*
X12000000Y-60000000D01*
D10*
D11*
X10000000Y-110000000D02*
X12000000Y-110000000D01*
D10*
D11*
X10000000Y-160000000D02*
X12000000Y-160000000D01*
D10*
D11*
X10690476Y-35216667D02*
X11309524Y-35216667D01*
X10566667Y-35588095D02*
X11000000Y-34288095D01*
X11433333Y-35588095D01*
D10*
D11*
X11092857Y-84907143D02*
X11278571Y-84969048D01*
X11340476Y-85030952D01*
X11402381Y-85154762D01*
X11402381Y-85340476D01*
X11340476Y-85464286D01*
X11278571Y-85526190D01*
X11154762Y-85588095D01*
X10659524Y-85588095D01*
X10659524Y-84288095D01*
X11092857Y-84288095D01*
X11216667Y-84350000D01*
X11278571Y-84411905D01*
X11340476Y-84535714D01*
X11340476Y-84659524D01*
X11278571Y-84783333D01*
X11216667Y-84845238D01*
X11092857Y-84907143D01*
X10659524Y-84907143D01*
D10*
D11*
X11402381Y-135464286D02*
X11340476Y-135526190D01*
X11154762Y-135588095D01*
X11030952Y-135588095D01*
X10845238Y-135526190D01*
X10721429Y-135402381D01*
X10659524Y-135278571D01*
X10597619Y-135030952D01*
X10597619Y-134845238D01*
X10659524Y-134597619D01*
X10721429Y-134473810D01*
X10845238Y-134350000D01*
X11030952Y-134288095D01*
X11154762Y-134288095D01*
X11340476Y-134350000D01*
X11402381Y-134411905D01*
D10*
D11*
X10659524Y-185588095D02*
X10659524Y-184288095D01*
X10969048Y-184288095D01*
X11154762Y-184350000D01*
X11278571Y-184473810D01*
X11340476Y-184597619D01*
X11402381Y-184845238D01*
X11402381Y-185030952D01*
X11340476Y-185278571D01*
X11278571Y-185402381D01*
X11154762Y-185526190D01*
X10969048Y-185588095D01*
X10659524Y-185588095D01*
D10*
D11*
X287002200Y-60000000D02*
X285002200Y-60000000D01*
D10*
D11*
X287002200Y-110000000D02*
X285002200Y-110000000D01*
D10*
D11*
X287002200Y-160000000D02*
X285002200Y-160000000D01*
D10*
D11*
X285692676Y-35216667D02*
X286311724Y-35216667D01*
X285568867Y-35588095D02*
X286002200Y-34288095D01*
X286435533Y-35588095D01*
D10*
D11*
X286095057Y-84907143D02*
X286280771Y-84969048D01*
X286342676Y-85030952D01*
X286404581Y-85154762D01*
X286404581Y-85340476D01*
X286342676Y-85464286D01*
X286280771Y-85526190D01*
X286156962Y-85588095D01*
X285661724Y-85588095D01*
X285661724Y-84288095D01*
X286095057Y-84288095D01*
X286218867Y-84350000D01*
X286280771Y-84411905D01*
X286342676Y-84535714D01*
X286342676Y-84659524D01*
X286280771Y-84783333D01*
X286218867Y-84845238D01*
X286095057Y-84907143D01*
X285661724Y-84907143D01*
D10*
D11*
X286404581Y-135464286D02*
X286342676Y-135526190D01*
X286156962Y-135588095D01*
X286033152Y-135588095D01*
X285847438Y-135526190D01*
X285723629Y-135402381D01*
X285661724Y-135278571D01*
X285599819Y-135030952D01*
X285599819Y-134845238D01*
X285661724Y-134597619D01*
X285723629Y-134473810D01*
X285847438Y-134350000D01*
X286033152Y-134288095D01*
X286156962Y-134288095D01*
X286342676Y-134350000D01*
X286404581Y-134411905D01*
D10*
D11*
X285661724Y-185588095D02*
X285661724Y-184288095D01*
X285971248Y-184288095D01*
X286156962Y-184350000D01*
X286280771Y-184473810D01*
X286342676Y-184597619D01*
X286404581Y-184845238D01*
X286404581Y-185030952D01*
X286342676Y-185278571D01*
X286280771Y-185402381D01*
X286156962Y-185526190D01*
X285971248Y-185588095D01*
X285661724Y-185588095D01*
D10*
D11*
X200359343Y-193785771D02*
X200359343Y-192285771D01*
X200716486Y-192285771D01*
X200930771Y-192357200D01*
X201073629Y-192500057D01*
X201145057Y-192642914D01*
X201216486Y-192928629D01*
X201216486Y-193142914D01*
X201145057Y-193428629D01*
X201073629Y-193571486D01*
X200930771Y-193714343D01*
X200716486Y-193785771D01*
X200359343Y-193785771D01*
X202502200Y-193785771D02*
X202502200Y-193000057D01*
X202430771Y-192857200D01*
X202287914Y-192785771D01*
X202002200Y-192785771D01*
X201859343Y-192857200D01*
X202502200Y-193714343D02*
X202359343Y-193785771D01*
X202002200Y-193785771D01*
X201859343Y-193714343D01*
X201787914Y-193571486D01*
X201787914Y-193428629D01*
X201859343Y-193285771D01*
X202002200Y-193214343D01*
X202359343Y-193214343D01*
X202502200Y-193142914D01*
X203002200Y-192785771D02*
X203573629Y-192785771D01*
X203216486Y-192285771D02*
X203216486Y-193571486D01*
X203287914Y-193714343D01*
X203430772Y-193785771D01*
X203573629Y-193785771D01*
X204645057Y-193714343D02*
X204502200Y-193785771D01*
X204216486Y-193785771D01*
X204073629Y-193714343D01*
X204002200Y-193571486D01*
X204002200Y-193000057D01*
X204073629Y-192857200D01*
X204216486Y-192785771D01*
X204502200Y-192785771D01*
X204645057Y-192857200D01*
X204716486Y-193000057D01*
X204716486Y-193142914D01*
X204002200Y-193285771D01*
X205359343Y-193642914D02*
X205430771Y-193714343D01*
X205359343Y-193785771D01*
X205287914Y-193714343D01*
X205359343Y-193642914D01*
X205359343Y-193785771D01*
X205359343Y-192857200D02*
X205430771Y-192928629D01*
X205359343Y-193000057D01*
X205287914Y-192928629D01*
X205359343Y-192857200D01*
X205359343Y-193000057D01*
X207216486Y-193785771D02*
X207216486Y-192785771D01*
X207216486Y-192928629D02*
X207287914Y-192857200D01*
X207430772Y-192785771D01*
X207645057Y-192785771D01*
X207787914Y-192857200D01*
X207859343Y-193000057D01*
X207859343Y-193785771D01*
X207859343Y-193000057D02*
X207930772Y-192857200D01*
X208073629Y-192785771D01*
X208287914Y-192785771D01*
X208430772Y-192857200D01*
X208502200Y-193000057D01*
X208502200Y-193785771D01*
X209859343Y-193785771D02*
X209859343Y-193000057D01*
X209787914Y-192857200D01*
X209645057Y-192785771D01*
X209359343Y-192785771D01*
X209216486Y-192857200D01*
X209859343Y-193714343D02*
X209716486Y-193785771D01*
X209359343Y-193785771D01*
X209216486Y-193714343D01*
X209145057Y-193571486D01*
X209145057Y-193428629D01*
X209216486Y-193285771D01*
X209359343Y-193214343D01*
X209716486Y-193214343D01*
X209859343Y-193142914D01*
X210573629Y-193785771D02*
X210573629Y-192785771D01*
X210573629Y-193071486D02*
X210645057Y-192928629D01*
X210716486Y-192857200D01*
X210859343Y-192785771D01*
X211002200Y-192785771D01*
X211502200Y-193642914D02*
X211573628Y-193714343D01*
X211502200Y-193785771D01*
X211430771Y-193714343D01*
X211502200Y-193642914D01*
X211502200Y-193785771D01*
X213216486Y-192285771D02*
X214145057Y-192285771D01*
X213645057Y-192857200D01*
X213859343Y-192857200D01*
X214002200Y-192928629D01*
X214073629Y-193000057D01*
X214145057Y-193142914D01*
X214145057Y-193500057D01*
X214073629Y-193642914D01*
X214002200Y-193714343D01*
X213859343Y-193785771D01*
X213430771Y-193785771D01*
X213287914Y-193714343D01*
X213216486Y-193642914D01*
X215573628Y-193785771D02*
X214716485Y-193785771D01*
X215145057Y-193785771D02*
X215145057Y-192285771D01*
X215002200Y-192500057D01*
X214859342Y-192642914D01*
X214716485Y-192714343D01*
X217359342Y-193785771D02*
X217359342Y-192785771D01*
X217359342Y-192928629D02*
X217430770Y-192857200D01*
X217573628Y-192785771D01*
X217787913Y-192785771D01*
X217930770Y-192857200D01*
X218002199Y-193000057D01*
X218002199Y-193785771D01*
X218002199Y-193000057D02*
X218073628Y-192857200D01*
X218216485Y-192785771D01*
X218430770Y-192785771D01*
X218573628Y-192857200D01*
X218645056Y-193000057D01*
X218645056Y-193785771D01*
X220002199Y-193785771D02*
X220002199Y-193000057D01*
X219930770Y-192857200D01*
X219787913Y-192785771D01*
X219502199Y-192785771D01*
X219359342Y-192857200D01*
X220002199Y-193714343D02*
X219859342Y-193785771D01*
X219502199Y-193785771D01*
X219359342Y-193714343D01*
X219287913Y-193571486D01*
X219287913Y-193428629D01*
X219359342Y-193285771D01*
X219502199Y-193214343D01*
X219859342Y-193214343D01*
X220002199Y-193142914D01*
X220716485Y-193785771D02*
X220716485Y-192785771D01*
X220716485Y-193071486D02*
X220787913Y-192928629D01*
X220859342Y-192857200D01*
X221002199Y-192785771D01*
X221145056Y-192785771D01*
X221573627Y-193714343D02*
X221716484Y-193785771D01*
X222002199Y-193785771D01*
X222145056Y-193714343D01*
X222216484Y-193571486D01*
X222216484Y-193500057D01*
X222145056Y-193357200D01*
X222002199Y-193285771D01*
X221787913Y-193285771D01*
X221645056Y-193214343D01*
X221573627Y-193071486D01*
X221573627Y-193000057D01*
X221645056Y-192857200D01*
X221787913Y-192785771D01*
X222002199Y-192785771D01*
X222145056Y-192857200D01*
X223930770Y-192428629D02*
X224002199Y-192357200D01*
X224145056Y-192285771D01*
X224502199Y-192285771D01*
X224645056Y-192357200D01*
X224716485Y-192428629D01*
X224787913Y-192571486D01*
X224787913Y-192714343D01*
X224716485Y-192928629D01*
X223859342Y-193785771D01*
X224787913Y-193785771D01*
X225716484Y-192285771D02*
X225859341Y-192285771D01*
X226002198Y-192357200D01*
X226073627Y-192428629D01*
X226145056Y-192571486D01*
X226216484Y-192857200D01*
X226216484Y-193214343D01*
X226145056Y-193500057D01*
X226073627Y-193642914D01*
X226002198Y-193714343D01*
X225859341Y-193785771D01*
X225716484Y-193785771D01*
X225573627Y-193714343D01*
X225502198Y-193642914D01*
X225430770Y-193500057D01*
X225359341Y-193214343D01*
X225359341Y-192857200D01*
X225430770Y-192571486D01*
X225502198Y-192428629D01*
X225573627Y-192357200D01*
X225716484Y-192285771D01*
X227645055Y-193785771D02*
X226787912Y-193785771D01*
X227216484Y-193785771D02*
X227216484Y-192285771D01*
X227073627Y-192500057D01*
X226930769Y-192642914D01*
X226787912Y-192714343D01*
X229002198Y-192285771D02*
X228287912Y-192285771D01*
X228216483Y-193000057D01*
X228287912Y-192928629D01*
X228430769Y-192857200D01*
X228787912Y-192857200D01*
X228930769Y-192928629D01*
X229002198Y-193000057D01*
X229073626Y-193142914D01*
X229073626Y-193500057D01*
X229002198Y-193642914D01*
X228930769Y-193714343D01*
X228787912Y-193785771D01*
X228430769Y-193785771D01*
X228287912Y-193714343D01*
X228216483Y-193642914D01*
D10*
D11*
X177002200Y-194507200D02*
X285002200Y-194507200D01*
D10*
D11*
X178359343Y-196585771D02*
X178359343Y-195085771D01*
X179216486Y-196585771D02*
X178573629Y-195728629D01*
X179216486Y-195085771D02*
X178359343Y-195942914D01*
X179859343Y-196585771D02*
X179859343Y-195585771D01*
X179859343Y-195085771D02*
X179787914Y-195157200D01*
X179859343Y-195228629D01*
X179930771Y-195157200D01*
X179859343Y-195085771D01*
X179859343Y-195228629D01*
X181430772Y-196442914D02*
X181359343Y-196514343D01*
X181145057Y-196585771D01*
X181002200Y-196585771D01*
X180787915Y-196514343D01*
X180645057Y-196371486D01*
X180573629Y-196228629D01*
X180502200Y-195942914D01*
X180502200Y-195728629D01*
X180573629Y-195442914D01*
X180645057Y-195300057D01*
X180787915Y-195157200D01*
X181002200Y-195085771D01*
X181145057Y-195085771D01*
X181359343Y-195157200D01*
X181430772Y-195228629D01*
X182716486Y-196585771D02*
X182716486Y-195800057D01*
X182645057Y-195657200D01*
X182502200Y-195585771D01*
X182216486Y-195585771D01*
X182073629Y-195657200D01*
X182716486Y-196514343D02*
X182573629Y-196585771D01*
X182216486Y-196585771D01*
X182073629Y-196514343D01*
X182002200Y-196371486D01*
X182002200Y-196228629D01*
X182073629Y-196085771D01*
X182216486Y-196014343D01*
X182573629Y-196014343D01*
X182716486Y-195942914D01*
X184073629Y-196585771D02*
X184073629Y-195085771D01*
X184073629Y-196514343D02*
X183930772Y-196585771D01*
X183645058Y-196585771D01*
X183502200Y-196514343D01*
X183430772Y-196442914D01*
X183359343Y-196300057D01*
X183359343Y-195871486D01*
X183430772Y-195728629D01*
X183502200Y-195657200D01*
X183645058Y-195585771D01*
X183930772Y-195585771D01*
X184073629Y-195657200D01*
X185930772Y-195800057D02*
X186430772Y-195800057D01*
X186645058Y-196585771D02*
X185930772Y-196585771D01*
X185930772Y-195085771D01*
X186645058Y-195085771D01*
X187287915Y-196442914D02*
X187359343Y-196514343D01*
X187287915Y-196585771D01*
X187216486Y-196514343D01*
X187287915Y-196442914D01*
X187287915Y-196585771D01*
X188002201Y-196585771D02*
X188002201Y-195085771D01*
X188359344Y-195085771D01*
X188573629Y-195157200D01*
X188716487Y-195300057D01*
X188787915Y-195442914D01*
X188859344Y-195728629D01*
X188859344Y-195942914D01*
X188787915Y-196228629D01*
X188716487Y-196371486D01*
X188573629Y-196514343D01*
X188359344Y-196585771D01*
X188002201Y-196585771D01*
X189502201Y-196442914D02*
X189573629Y-196514343D01*
X189502201Y-196585771D01*
X189430772Y-196514343D01*
X189502201Y-196442914D01*
X189502201Y-196585771D01*
X190145058Y-196157200D02*
X190859344Y-196157200D01*
X190002201Y-196585771D02*
X190502201Y-195085771D01*
X191002201Y-196585771D01*
X191502201Y-196442914D02*
X191573629Y-196514343D01*
X191502201Y-196585771D01*
X191430772Y-196514343D01*
X191502201Y-196442914D01*
X191502201Y-196585771D01*
X194502201Y-196585771D02*
X194502201Y-195085771D01*
X194645058Y-196014343D02*
X195073629Y-196585771D01*
X195073629Y-195585771D02*
X194502201Y-196157200D01*
X195716487Y-196585771D02*
X195716487Y-195585771D01*
X195716487Y-195085771D02*
X195645058Y-195157200D01*
X195716487Y-195228629D01*
X195787915Y-195157200D01*
X195716487Y-195085771D01*
X195716487Y-195228629D01*
X197073630Y-196514343D02*
X196930773Y-196585771D01*
X196645059Y-196585771D01*
X196502201Y-196514343D01*
X196430773Y-196442914D01*
X196359344Y-196300057D01*
X196359344Y-195871486D01*
X196430773Y-195728629D01*
X196502201Y-195657200D01*
X196645059Y-195585771D01*
X196930773Y-195585771D01*
X197073630Y-195657200D01*
X198359344Y-196585771D02*
X198359344Y-195800057D01*
X198287915Y-195657200D01*
X198145058Y-195585771D01*
X197859344Y-195585771D01*
X197716487Y-195657200D01*
X198359344Y-196514343D02*
X198216487Y-196585771D01*
X197859344Y-196585771D01*
X197716487Y-196514343D01*
X197645058Y-196371486D01*
X197645058Y-196228629D01*
X197716487Y-196085771D01*
X197859344Y-196014343D01*
X198216487Y-196014343D01*
X198359344Y-195942914D01*
X199716487Y-196585771D02*
X199716487Y-195085771D01*
X199716487Y-196514343D02*
X199573630Y-196585771D01*
X199287916Y-196585771D01*
X199145058Y-196514343D01*
X199073630Y-196442914D01*
X199002201Y-196300057D01*
X199002201Y-195871486D01*
X199073630Y-195728629D01*
X199145058Y-195657200D01*
X199287916Y-195585771D01*
X199573630Y-195585771D01*
X199716487Y-195657200D01*
X202216487Y-195585771D02*
X202216487Y-196585771D01*
X201859344Y-195014343D02*
X201502201Y-196085771D01*
X202430773Y-196085771D01*
X203002201Y-196442914D02*
X203073629Y-196514343D01*
X203002201Y-196585771D01*
X202930772Y-196514343D01*
X203002201Y-196442914D01*
X203002201Y-196585771D01*
X204002201Y-195085771D02*
X204145058Y-195085771D01*
X204287915Y-195157200D01*
X204359344Y-195228629D01*
X204430773Y-195371486D01*
X204502201Y-195657200D01*
X204502201Y-196014343D01*
X204430773Y-196300057D01*
X204359344Y-196442914D01*
X204287915Y-196514343D01*
X204145058Y-196585771D01*
X204002201Y-196585771D01*
X203859344Y-196514343D01*
X203787915Y-196442914D01*
X203716487Y-196300057D01*
X203645058Y-196014343D01*
X203645058Y-195657200D01*
X203716487Y-195371486D01*
X203787915Y-195228629D01*
X203859344Y-195157200D01*
X204002201Y-195085771D01*
X205145058Y-196442914D02*
X205216486Y-196514343D01*
X205145058Y-196585771D01*
X205073629Y-196514343D01*
X205145058Y-196442914D01*
X205145058Y-196585771D01*
X206573630Y-195085771D02*
X205859344Y-195085771D01*
X205787915Y-195800057D01*
X205859344Y-195728629D01*
X206002201Y-195657200D01*
X206359344Y-195657200D01*
X206502201Y-195728629D01*
X206573630Y-195800057D01*
X206645058Y-195942914D01*
X206645058Y-196300057D01*
X206573630Y-196442914D01*
X206502201Y-196514343D01*
X206359344Y-196585771D01*
X206002201Y-196585771D01*
X205859344Y-196514343D01*
X205787915Y-196442914D01*
D10*
D11*
X177002200Y-191507200D02*
X285002200Y-191507200D01*
D10*
D12*
X264216486Y-193785771D02*
X263716486Y-193071486D01*
X263359343Y-193785771D02*
X263359343Y-192285771D01*
X263930771Y-192285771D01*
X264073629Y-192357200D01*
X264145057Y-192428629D01*
X264216486Y-192571486D01*
X264216486Y-192785771D01*
X264145057Y-192928629D01*
X264073629Y-193000057D01*
X263930771Y-193071486D01*
X263359343Y-193071486D01*
X265430771Y-193714343D02*
X265287914Y-193785771D01*
X265002200Y-193785771D01*
X264859343Y-193714343D01*
X264787914Y-193571486D01*
X264787914Y-193000057D01*
X264859343Y-192857200D01*
X265002200Y-192785771D01*
X265287914Y-192785771D01*
X265430771Y-192857200D01*
X265502200Y-193000057D01*
X265502200Y-193142914D01*
X264787914Y-193285771D01*
X266002200Y-192785771D02*
X266359343Y-193785771D01*
X266716485Y-192785771D01*
X267287914Y-193642914D02*
X267359342Y-193714343D01*
X267287914Y-193785771D01*
X267216485Y-193714343D01*
X267287914Y-193642914D01*
X267287914Y-193785771D01*
X267287914Y-192857200D02*
X267359342Y-192928629D01*
X267287914Y-193000057D01*
X267216485Y-192928629D01*
X267287914Y-192857200D01*
X267287914Y-193000057D01*
D10*
D11*
X178287914Y-193714343D02*
X178502200Y-193785771D01*
X178859343Y-193785771D01*
X179002200Y-193714343D01*
X179073629Y-193642914D01*
X179145057Y-193500057D01*
X179145057Y-193357200D01*
X179073629Y-193214343D01*
X179002200Y-193142914D01*
X178859343Y-193071486D01*
X178573629Y-193000057D01*
X178430771Y-192928629D01*
X178359343Y-192857200D01*
X178287914Y-192714343D01*
X178287914Y-192571486D01*
X178359343Y-192428629D01*
X178430771Y-192357200D01*
X178573629Y-192285771D01*
X178930771Y-192285771D01*
X179145057Y-192357200D01*
X179787914Y-193785771D02*
X179787914Y-192785771D01*
X179787914Y-192285771D02*
X179716485Y-192357200D01*
X179787914Y-192428629D01*
X179859342Y-192357200D01*
X179787914Y-192285771D01*
X179787914Y-192428629D01*
X180359343Y-192785771D02*
X181145057Y-192785771D01*
X180359343Y-193785771D01*
X181145057Y-193785771D01*
X182287914Y-193714343D02*
X182145057Y-193785771D01*
X181859343Y-193785771D01*
X181716486Y-193714343D01*
X181645057Y-193571486D01*
X181645057Y-193000057D01*
X181716486Y-192857200D01*
X181859343Y-192785771D01*
X182145057Y-192785771D01*
X182287914Y-192857200D01*
X182359343Y-193000057D01*
X182359343Y-193142914D01*
X181645057Y-193285771D01*
X183002200Y-193642914D02*
X183073628Y-193714343D01*
X183002200Y-193785771D01*
X182930771Y-193714343D01*
X183002200Y-193642914D01*
X183002200Y-193785771D01*
X183002200Y-192857200D02*
X183073628Y-192928629D01*
X183002200Y-193000057D01*
X182930771Y-192928629D01*
X183002200Y-192857200D01*
X183002200Y-193000057D01*
X184787914Y-193357200D02*
X185502200Y-193357200D01*
X184645057Y-193785771D02*
X185145057Y-192285771D01*
X185645057Y-193785771D01*
X186787914Y-192785771D02*
X186787914Y-193785771D01*
X186430771Y-192214343D02*
X186073628Y-193285771D01*
X187002200Y-193285771D01*
D10*
D11*
X263359343Y-196585771D02*
X263359343Y-195085771D01*
X264716486Y-196585771D02*
X264716486Y-195085771D01*
X264716486Y-196514343D02*
X264573629Y-196585771D01*
X264287915Y-196585771D01*
X264145057Y-196514343D01*
X264073629Y-196442914D01*
X264002200Y-196300057D01*
X264002200Y-195871486D01*
X264073629Y-195728629D01*
X264145057Y-195657200D01*
X264287915Y-195585771D01*
X264573629Y-195585771D01*
X264716486Y-195657200D01*
X265430772Y-196442914D02*
X265502200Y-196514343D01*
X265430772Y-196585771D01*
X265359343Y-196514343D01*
X265430772Y-196442914D01*
X265430772Y-196585771D01*
X265430772Y-195657200D02*
X265502200Y-195728629D01*
X265430772Y-195800057D01*
X265359343Y-195728629D01*
X265430772Y-195657200D01*
X265430772Y-195800057D01*
X268073629Y-196585771D02*
X267216486Y-196585771D01*
X267645058Y-196585771D02*
X267645058Y-195085771D01*
X267502201Y-195300057D01*
X267359343Y-195442914D01*
X267216486Y-195514343D01*
X269787914Y-195014343D02*
X268502200Y-196942914D01*
X271073629Y-196585771D02*
X270216486Y-196585771D01*
X270645058Y-196585771D02*
X270645058Y-195085771D01*
X270502201Y-195300057D01*
X270359343Y-195442914D01*
X270216486Y-195514343D01*
D10*
D11*
X177002200Y-187507200D02*
X285002200Y-187507200D01*
D10*
D13*
X178454581Y-188211962D02*
X179597438Y-188211962D01*
X178776010Y-190211962D02*
X179026010Y-188211962D01*
X180014105Y-190211962D02*
X180180771Y-188878629D01*
X180264105Y-188211962D02*
X180156962Y-188307200D01*
X180240295Y-188402438D01*
X180347439Y-188307200D01*
X180264105Y-188211962D01*
X180240295Y-188402438D01*
X180847438Y-188878629D02*
X181609343Y-188878629D01*
X181216486Y-188211962D02*
X181002200Y-189926248D01*
X181073630Y-190116724D01*
X181252201Y-190211962D01*
X181442677Y-190211962D01*
X182395058Y-190211962D02*
X182216487Y-190116724D01*
X182145057Y-189926248D01*
X182359343Y-188211962D01*
X183930772Y-190116724D02*
X183728391Y-190211962D01*
X183347439Y-190211962D01*
X183168867Y-190116724D01*
X183097438Y-189926248D01*
X183192676Y-189164343D01*
X183311724Y-188973867D01*
X183514105Y-188878629D01*
X183895057Y-188878629D01*
X184073629Y-188973867D01*
X184145057Y-189164343D01*
X184121248Y-189354819D01*
X183145057Y-189545295D01*
X184895057Y-190021486D02*
X184978392Y-190116724D01*
X184871248Y-190211962D01*
X184787915Y-190116724D01*
X184895057Y-190021486D01*
X184871248Y-190211962D01*
X185026010Y-188973867D02*
X185109344Y-189069105D01*
X185002200Y-189164343D01*
X184918867Y-189069105D01*
X185026010Y-188973867D01*
X185002200Y-189164343D01*
D10*
D11*
X178859343Y-185600057D02*
X178359343Y-185600057D01*
X178359343Y-186385771D02*
X178359343Y-184885771D01*
X179073629Y-184885771D01*
X179645057Y-186385771D02*
X179645057Y-185385771D01*
X179645057Y-184885771D02*
X179573628Y-184957200D01*
X179645057Y-185028629D01*
X179716485Y-184957200D01*
X179645057Y-184885771D01*
X179645057Y-185028629D01*
X180573629Y-186385771D02*
X180430771Y-186314343D01*
X180359343Y-186171486D01*
X180359343Y-184885771D01*
X181716485Y-186314343D02*
X181573628Y-186385771D01*
X181287914Y-186385771D01*
X181145057Y-186314343D01*
X181073628Y-186171486D01*
X181073628Y-185600057D01*
X181145057Y-185457200D01*
X181287914Y-185385771D01*
X181573628Y-185385771D01*
X181716485Y-185457200D01*
X181787914Y-185600057D01*
X181787914Y-185742914D01*
X181073628Y-185885771D01*
X182430771Y-186242914D02*
X182502199Y-186314343D01*
X182430771Y-186385771D01*
X182359342Y-186314343D01*
X182430771Y-186242914D01*
X182430771Y-186385771D01*
X182430771Y-185457200D02*
X182502199Y-185528629D01*
X182430771Y-185600057D01*
X182359342Y-185528629D01*
X182430771Y-185457200D01*
X182430771Y-185600057D01*
X184930771Y-186385771D02*
X184930771Y-185600057D01*
X184859342Y-185457200D01*
X184716485Y-185385771D01*
X184430771Y-185385771D01*
X184287914Y-185457200D01*
X184930771Y-186314343D02*
X184787914Y-186385771D01*
X184430771Y-186385771D01*
X184287914Y-186314343D01*
X184216485Y-186171486D01*
X184216485Y-186028629D01*
X184287914Y-185885771D01*
X184430771Y-185814343D01*
X184787914Y-185814343D01*
X184930771Y-185742914D01*
X185502200Y-185385771D02*
X185859343Y-186385771D01*
X186216485Y-185385771D01*
X187430771Y-186385771D02*
X187430771Y-185600057D01*
X187359342Y-185457200D01*
X187216485Y-185385771D01*
X186930771Y-185385771D01*
X186787914Y-185457200D01*
X187430771Y-186314343D02*
X187287914Y-186385771D01*
X186930771Y-186385771D01*
X186787914Y-186314343D01*
X186716485Y-186171486D01*
X186716485Y-186028629D01*
X186787914Y-185885771D01*
X186930771Y-185814343D01*
X187287914Y-185814343D01*
X187430771Y-185742914D01*
X188359343Y-186385771D02*
X188216485Y-186314343D01*
X188145057Y-186171486D01*
X188145057Y-184885771D01*
X189145057Y-186385771D02*
X189002199Y-186314343D01*
X188930771Y-186242914D01*
X188859342Y-186100057D01*
X188859342Y-185671486D01*
X188930771Y-185528629D01*
X189002199Y-185457200D01*
X189145057Y-185385771D01*
X189359342Y-185385771D01*
X189502199Y-185457200D01*
X189573628Y-185528629D01*
X189645057Y-185671486D01*
X189645057Y-186100057D01*
X189573628Y-186242914D01*
X189502199Y-186314343D01*
X189359342Y-186385771D01*
X189145057Y-186385771D01*
X190287914Y-185385771D02*
X190287914Y-186385771D01*
X190287914Y-185528629D02*
X190359342Y-185457200D01*
X190502200Y-185385771D01*
X190716485Y-185385771D01*
X190859342Y-185457200D01*
X190930771Y-185600057D01*
X190930771Y-186385771D01*
X191287914Y-186528629D02*
X192430771Y-186528629D01*
X193430771Y-186314343D02*
X193287914Y-186385771D01*
X193002200Y-186385771D01*
X192859342Y-186314343D01*
X192787914Y-186242914D01*
X192716485Y-186100057D01*
X192716485Y-185671486D01*
X192787914Y-185528629D01*
X192859342Y-185457200D01*
X193002200Y-185385771D01*
X193287914Y-185385771D01*
X193430771Y-185457200D01*
X194287914Y-186385771D02*
X194145056Y-186314343D01*
X194073628Y-186242914D01*
X194002199Y-186100057D01*
X194002199Y-185671486D01*
X194073628Y-185528629D01*
X194145056Y-185457200D01*
X194287914Y-185385771D01*
X194502199Y-185385771D01*
X194645056Y-185457200D01*
X194716485Y-185528629D01*
X194787914Y-185671486D01*
X194787914Y-186100057D01*
X194716485Y-186242914D01*
X194645056Y-186314343D01*
X194502199Y-186385771D01*
X194287914Y-186385771D01*
X195430771Y-186385771D02*
X195430771Y-185385771D01*
X195430771Y-185528629D02*
X195502199Y-185457200D01*
X195645057Y-185385771D01*
X195859342Y-185385771D01*
X196002199Y-185457200D01*
X196073628Y-185600057D01*
X196073628Y-186385771D01*
X196073628Y-185600057D02*
X196145057Y-185457200D01*
X196287914Y-185385771D01*
X196502199Y-185385771D01*
X196645057Y-185457200D01*
X196716485Y-185600057D01*
X196716485Y-186385771D01*
X197430771Y-186385771D02*
X197430771Y-185385771D01*
X197430771Y-185528629D02*
X197502199Y-185457200D01*
X197645057Y-185385771D01*
X197859342Y-185385771D01*
X198002199Y-185457200D01*
X198073628Y-185600057D01*
X198073628Y-186385771D01*
X198073628Y-185600057D02*
X198145057Y-185457200D01*
X198287914Y-185385771D01*
X198502199Y-185385771D01*
X198645057Y-185457200D01*
X198716485Y-185600057D01*
X198716485Y-186385771D01*
X200073628Y-185385771D02*
X200073628Y-186385771D01*
X199430771Y-185385771D02*
X199430771Y-186171486D01*
X199502199Y-186314343D01*
X199645057Y-186385771D01*
X199859342Y-186385771D01*
X200002199Y-186314343D01*
X200073628Y-186242914D01*
X200787914Y-185385771D02*
X200787914Y-186385771D01*
X200787914Y-185528629D02*
X200859342Y-185457200D01*
X201002200Y-185385771D01*
X201216485Y-185385771D01*
X201359342Y-185457200D01*
X201430771Y-185600057D01*
X201430771Y-186385771D01*
X202145057Y-186385771D02*
X202145057Y-185385771D01*
X202145057Y-184885771D02*
X202073628Y-184957200D01*
X202145057Y-185028629D01*
X202216485Y-184957200D01*
X202145057Y-184885771D01*
X202145057Y-185028629D01*
X203502200Y-186314343D02*
X203359343Y-186385771D01*
X203073629Y-186385771D01*
X202930771Y-186314343D01*
X202859343Y-186242914D01*
X202787914Y-186100057D01*
X202787914Y-185671486D01*
X202859343Y-185528629D01*
X202930771Y-185457200D01*
X203073629Y-185385771D01*
X203359343Y-185385771D01*
X203502200Y-185457200D01*
X204787914Y-186385771D02*
X204787914Y-185600057D01*
X204716485Y-185457200D01*
X204573628Y-185385771D01*
X204287914Y-185385771D01*
X204145057Y-185457200D01*
X204787914Y-186314343D02*
X204645057Y-186385771D01*
X204287914Y-186385771D01*
X204145057Y-186314343D01*
X204073628Y-186171486D01*
X204073628Y-186028629D01*
X204145057Y-185885771D01*
X204287914Y-185814343D01*
X204645057Y-185814343D01*
X204787914Y-185742914D01*
X205287914Y-185385771D02*
X205859343Y-185385771D01*
X205502200Y-184885771D02*
X205502200Y-186171486D01*
X205573628Y-186314343D01*
X205716486Y-186385771D01*
X205859343Y-186385771D01*
X206359343Y-186385771D02*
X206359343Y-185385771D01*
X206359343Y-184885771D02*
X206287914Y-184957200D01*
X206359343Y-185028629D01*
X206430771Y-184957200D01*
X206359343Y-184885771D01*
X206359343Y-185028629D01*
X207287915Y-186385771D02*
X207145057Y-186314343D01*
X207073629Y-186242914D01*
X207002200Y-186100057D01*
X207002200Y-185671486D01*
X207073629Y-185528629D01*
X207145057Y-185457200D01*
X207287915Y-185385771D01*
X207502200Y-185385771D01*
X207645057Y-185457200D01*
X207716486Y-185528629D01*
X207787915Y-185671486D01*
X207787915Y-186100057D01*
X207716486Y-186242914D01*
X207645057Y-186314343D01*
X207502200Y-186385771D01*
X207287915Y-186385771D01*
X208430772Y-185385771D02*
X208430772Y-186385771D01*
X208430772Y-185528629D02*
X208502200Y-185457200D01*
X208645058Y-185385771D01*
X208859343Y-185385771D01*
X209002200Y-185457200D01*
X209073629Y-185600057D01*
X209073629Y-186385771D01*
X209430772Y-186528629D02*
X210573629Y-186528629D01*
X210930772Y-186385771D02*
X210930772Y-184885771D01*
X210930772Y-185457200D02*
X211073629Y-185385771D01*
X211359343Y-185385771D01*
X211502200Y-185457200D01*
X211573629Y-185528629D01*
X211645058Y-185671486D01*
X211645058Y-186100057D01*
X211573629Y-186242914D01*
X211502200Y-186314343D01*
X211359343Y-186385771D01*
X211073629Y-186385771D01*
X210930772Y-186314343D01*
X212502201Y-186385771D02*
X212359343Y-186314343D01*
X212287915Y-186242914D01*
X212216486Y-186100057D01*
X212216486Y-185671486D01*
X212287915Y-185528629D01*
X212359343Y-185457200D01*
X212502201Y-185385771D01*
X212716486Y-185385771D01*
X212859343Y-185457200D01*
X212930772Y-185528629D01*
X213002201Y-185671486D01*
X213002201Y-186100057D01*
X212930772Y-186242914D01*
X212859343Y-186314343D01*
X212716486Y-186385771D01*
X212502201Y-186385771D01*
X214287915Y-186385771D02*
X214287915Y-185600057D01*
X214216486Y-185457200D01*
X214073629Y-185385771D01*
X213787915Y-185385771D01*
X213645058Y-185457200D01*
X214287915Y-186314343D02*
X214145058Y-186385771D01*
X213787915Y-186385771D01*
X213645058Y-186314343D01*
X213573629Y-186171486D01*
X213573629Y-186028629D01*
X213645058Y-185885771D01*
X213787915Y-185814343D01*
X214145058Y-185814343D01*
X214287915Y-185742914D01*
X215002201Y-186385771D02*
X215002201Y-185385771D01*
X215002201Y-185671486D02*
X215073629Y-185528629D01*
X215145058Y-185457200D01*
X215287915Y-185385771D01*
X215430772Y-185385771D01*
X216573629Y-186385771D02*
X216573629Y-184885771D01*
X216573629Y-186314343D02*
X216430772Y-186385771D01*
X216145058Y-186385771D01*
X216002200Y-186314343D01*
X215930772Y-186242914D01*
X215859343Y-186100057D01*
X215859343Y-185671486D01*
X215930772Y-185528629D01*
X216002200Y-185457200D01*
X216145058Y-185385771D01*
X216430772Y-185385771D01*
X216573629Y-185457200D01*
X217287915Y-186242914D02*
X217359343Y-186314343D01*
X217287915Y-186385771D01*
X217216486Y-186314343D01*
X217287915Y-186242914D01*
X217287915Y-186385771D01*
X218002201Y-186385771D02*
X218002201Y-184885771D01*
X218145058Y-185814343D02*
X218573629Y-186385771D01*
X218573629Y-185385771D02*
X218002201Y-185957200D01*
X219216487Y-186385771D02*
X219216487Y-185385771D01*
X219216487Y-184885771D02*
X219145058Y-184957200D01*
X219216487Y-185028629D01*
X219287915Y-184957200D01*
X219216487Y-184885771D01*
X219216487Y-185028629D01*
X220573630Y-186314343D02*
X220430773Y-186385771D01*
X220145059Y-186385771D01*
X220002201Y-186314343D01*
X219930773Y-186242914D01*
X219859344Y-186100057D01*
X219859344Y-185671486D01*
X219930773Y-185528629D01*
X220002201Y-185457200D01*
X220145059Y-185385771D01*
X220430773Y-185385771D01*
X220573630Y-185457200D01*
X221859344Y-186385771D02*
X221859344Y-185600057D01*
X221787915Y-185457200D01*
X221645058Y-185385771D01*
X221359344Y-185385771D01*
X221216487Y-185457200D01*
X221859344Y-186314343D02*
X221716487Y-186385771D01*
X221359344Y-186385771D01*
X221216487Y-186314343D01*
X221145058Y-186171486D01*
X221145058Y-186028629D01*
X221216487Y-185885771D01*
X221359344Y-185814343D01*
X221716487Y-185814343D01*
X221859344Y-185742914D01*
X223216487Y-186385771D02*
X223216487Y-184885771D01*
X223216487Y-186314343D02*
X223073630Y-186385771D01*
X222787916Y-186385771D01*
X222645058Y-186314343D01*
X222573630Y-186242914D01*
X222502201Y-186100057D01*
X222502201Y-185671486D01*
X222573630Y-185528629D01*
X222645058Y-185457200D01*
X222787916Y-185385771D01*
X223073630Y-185385771D01*
X223216487Y-185457200D01*
X223573630Y-186528629D02*
X224716487Y-186528629D01*
X225073630Y-185385771D02*
X225073630Y-186885771D01*
X225073630Y-185457200D02*
X225216487Y-185385771D01*
X225502201Y-185385771D01*
X225645058Y-185457200D01*
X225716487Y-185528629D01*
X225787916Y-185671486D01*
X225787916Y-186100057D01*
X225716487Y-186242914D01*
X225645058Y-186314343D01*
X225502201Y-186385771D01*
X225216487Y-186385771D01*
X225073630Y-186314343D01*
X227073630Y-186314343D02*
X226930773Y-186385771D01*
X226645059Y-186385771D01*
X226502201Y-186314343D01*
X226430773Y-186242914D01*
X226359344Y-186100057D01*
X226359344Y-185671486D01*
X226430773Y-185528629D01*
X226502201Y-185457200D01*
X226645059Y-185385771D01*
X226930773Y-185385771D01*
X227073630Y-185457200D01*
X227716487Y-186385771D02*
X227716487Y-184885771D01*
X227716487Y-185457200D02*
X227859344Y-185385771D01*
X228145058Y-185385771D01*
X228287915Y-185457200D01*
X228359344Y-185528629D01*
X228430773Y-185671486D01*
X228430773Y-186100057D01*
X228359344Y-186242914D01*
X228287915Y-186314343D01*
X228145058Y-186385771D01*
X227859344Y-186385771D01*
X227716487Y-186314343D01*
D10*
D11*
X177002200Y-181507200D02*
X285002200Y-181507200D01*
D10*
D11*
X178287914Y-183614343D02*
X178502200Y-183685771D01*
X178859343Y-183685771D01*
X179002200Y-183614343D01*
X179073629Y-183542914D01*
X179145057Y-183400057D01*
X179145057Y-183257200D01*
X179073629Y-183114343D01*
X179002200Y-183042914D01*
X178859343Y-182971486D01*
X178573629Y-182900057D01*
X178430771Y-182828629D01*
X178359343Y-182757200D01*
X178287914Y-182614343D01*
X178287914Y-182471486D01*
X178359343Y-182328629D01*
X178430771Y-182257200D01*
X178573629Y-182185771D01*
X178930771Y-182185771D01*
X179145057Y-182257200D01*
X179787914Y-183685771D02*
X179787914Y-182185771D01*
X180430771Y-183685771D02*
X180430771Y-182900057D01*
X180359342Y-182757200D01*
X180216485Y-182685771D01*
X180002200Y-182685771D01*
X179859342Y-182757200D01*
X179787914Y-182828629D01*
X181716485Y-183614343D02*
X181573628Y-183685771D01*
X181287914Y-183685771D01*
X181145057Y-183614343D01*
X181073628Y-183471486D01*
X181073628Y-182900057D01*
X181145057Y-182757200D01*
X181287914Y-182685771D01*
X181573628Y-182685771D01*
X181716485Y-182757200D01*
X181787914Y-182900057D01*
X181787914Y-183042914D01*
X181073628Y-183185771D01*
X183002199Y-183614343D02*
X182859342Y-183685771D01*
X182573628Y-183685771D01*
X182430771Y-183614343D01*
X182359342Y-183471486D01*
X182359342Y-182900057D01*
X182430771Y-182757200D01*
X182573628Y-182685771D01*
X182859342Y-182685771D01*
X183002199Y-182757200D01*
X183073628Y-182900057D01*
X183073628Y-183042914D01*
X182359342Y-183185771D01*
X183502199Y-182685771D02*
X184073628Y-182685771D01*
X183716485Y-182185771D02*
X183716485Y-183471486D01*
X183787913Y-183614343D01*
X183930771Y-183685771D01*
X184073628Y-183685771D01*
X184573628Y-183542914D02*
X184645056Y-183614343D01*
X184573628Y-183685771D01*
X184502199Y-183614343D01*
X184573628Y-183542914D01*
X184573628Y-183685771D01*
X184573628Y-182757200D02*
X184645056Y-182828629D01*
X184573628Y-182900057D01*
X184502199Y-182828629D01*
X184573628Y-182757200D01*
X184573628Y-182900057D01*
D10*
D11*
X197002200Y-191507200D02*
X197002200Y-194507200D01*
D10*
D11*
X261002200Y-191507200D02*
X261002200Y-198007200D01*
D14*
X112400000Y-94740000D02*
X112400000Y-93320000D01*
X119000000Y-95500000D02*
X119000000Y-93320000D01*
X119000000Y-88900000D02*
X119000000Y-91080000D01*
X112400000Y-89660000D02*
X112400000Y-91080000D01*
X119000000Y-95500000D02*
X113160000Y-95500000D01*
X113160000Y-95500000D02*
X112400000Y-94740000D01*
X112400000Y-89660000D02*
X113160000Y-88900000D01*
X113160000Y-88900000D02*
X119000000Y-88900000D01*
X148220000Y-93300000D02*
X148220000Y-91300000D01*
X146180000Y-91300000D02*
X146180000Y-93300000D01*
X150620000Y-93300000D02*
X150620000Y-91300000D01*
X148580000Y-91300000D02*
X148580000Y-93300000D01*
X154020000Y-79000000D02*
X154020000Y-77000000D01*
X151980000Y-77000000D02*
X151980000Y-79000000D01*
X169275000Y-87155000D02*
X167275000Y-87155000D01*
X167275000Y-89195000D02*
X169275000Y-89195000D01*
X175520000Y-85500000D02*
X175520000Y-83500000D01*
X173480000Y-83500000D02*
X173480000Y-85500000D01*
X170700000Y-77420000D02*
X172700000Y-77420000D01*
X172700000Y-75380000D02*
X170700000Y-75380000D01*
X177820000Y-77200000D02*
X177820000Y-75200000D01*
X175780000Y-75200000D02*
X175780000Y-77200000D01*
X166770000Y-84500000D02*
X166770000Y-82500000D01*
X164730000Y-82500000D02*
X164730000Y-84500000D01*
X150770000Y-79000000D02*
X150770000Y-77000000D01*
X148730000Y-77000000D02*
X148730000Y-79000000D01*
X160500000Y-91480000D02*
X158500000Y-91480000D01*
X158500000Y-93520000D02*
X160500000Y-93520000D01*
X128220000Y-78400000D02*
X128220000Y-76400000D01*
X126180000Y-76400000D02*
X126180000Y-78400000D01*
X122200000Y-94740000D02*
X122200000Y-93320000D01*
X128800000Y-95500000D02*
X128800000Y-93320000D01*
X128800000Y-88900000D02*
X128800000Y-91080000D01*
X122200000Y-89660000D02*
X122200000Y-91080000D01*
X128800000Y-95500000D02*
X122960000Y-95500000D01*
X122960000Y-95500000D02*
X122200000Y-94740000D01*
X122200000Y-89660000D02*
X122960000Y-88900000D01*
X122960000Y-88900000D02*
X128800000Y-88900000D01*
X120700000Y-87140000D02*
X120700000Y-85720000D01*
X127300000Y-87900000D02*
X127300000Y-85720000D01*
X127300000Y-81300000D02*
X127300000Y-83480000D01*
X120700000Y-82060000D02*
X120700000Y-83480000D01*
X127300000Y-87900000D02*
X121460000Y-87900000D01*
X121460000Y-87900000D02*
X120700000Y-87140000D01*
X120700000Y-82060000D02*
X121460000Y-81300000D01*
X121460000Y-81300000D02*
X127300000Y-81300000D01*
X187420000Y-106500000D02*
X187420000Y-104500000D01*
X185380000Y-104500000D02*
X185380000Y-106500000D01*
X144250000Y-114270000D02*
X146250000Y-114270000D01*
X146250000Y-112230000D02*
X144250000Y-112230000D01*
X144250000Y-105270000D02*
X146250000Y-105270000D01*
X146250000Y-103230000D02*
X144250000Y-103230000D01*
X146250000Y-107730000D02*
X144250000Y-107730000D01*
X144250000Y-109770000D02*
X146250000Y-109770000D01*
X146250000Y-109980000D02*
X144250000Y-109980000D01*
X144250000Y-112020000D02*
X146250000Y-112020000D01*
X144250000Y-116520000D02*
X146250000Y-116520000D01*
X146250000Y-114480000D02*
X144250000Y-114480000D01*
X144250000Y-107520000D02*
X146250000Y-107520000D01*
X146250000Y-105480000D02*
X144250000Y-105480000D01*
X176620000Y-114600000D02*
X176620000Y-112600000D01*
X174580000Y-112600000D02*
X174580000Y-114600000D01*
X149730000Y-112500000D02*
X149730000Y-114500000D01*
X151770000Y-114500000D02*
X151770000Y-112500000D01*
X158980000Y-112000000D02*
X158980000Y-114000000D01*
X161020000Y-114000000D02*
X161020000Y-112000000D01*
X162450000Y-128040000D02*
X162450000Y-126620000D01*
X169050000Y-128800000D02*
X169050000Y-126620000D01*
X169050000Y-122200000D02*
X169050000Y-124380000D01*
X162450000Y-122960000D02*
X162450000Y-124380000D01*
X169050000Y-128800000D02*
X163210000Y-128800000D01*
X163210000Y-128800000D02*
X162450000Y-128040000D01*
X162450000Y-122960000D02*
X163210000Y-122200000D01*
X163210000Y-122200000D02*
X169050000Y-122200000D01*
X155900000Y-110380000D02*
X153900000Y-110380000D01*
X153900000Y-112420000D02*
X155900000Y-112420000D01*
X151450000Y-128040000D02*
X151450000Y-126620000D01*
X158050000Y-128800000D02*
X158050000Y-126620000D01*
X158050000Y-122200000D02*
X158050000Y-124380000D01*
X151450000Y-122960000D02*
X151450000Y-124380000D01*
X158050000Y-128800000D02*
X152210000Y-128800000D01*
X152210000Y-128800000D02*
X151450000Y-128040000D01*
X151450000Y-122960000D02*
X152210000Y-122200000D01*
X152210000Y-122200000D02*
X158050000Y-122200000D01*
X178900000Y-93680000D02*
X176900000Y-93680000D01*
X176900000Y-95720000D02*
X178900000Y-95720000D01*
X158780000Y-105400000D02*
X158780000Y-107400000D01*
X160820000Y-107400000D02*
X160820000Y-105400000D01*
X131600000Y-81750000D02*
X129600000Y-81750000D01*
X129600000Y-81750000D02*
X129600000Y-85650000D01*
X131600000Y-81750000D02*
X131600000Y-85650000D01*
D11*
X162117000Y-73287000D02*
X162117000Y-90940000D01*
X156783000Y-90940000D02*
X156783000Y-73160000D01*
X162117000Y-73160000D02*
X156783000Y-73160000D01*
X156783000Y-90940000D02*
X162117000Y-90940000D01*
X158815000Y-90940000D02*
X158815000Y-89670000D01*
X158815000Y-89670000D02*
X160085000Y-89670000D01*
X160085000Y-89670000D02*
X160085000Y-90940000D01*
X193005000Y-69190000D02*
X208245000Y-69190000D01*
X193005000Y-88240000D02*
X208245000Y-88240000D01*
X193005000Y-88240000D02*
X193005000Y-69190000D01*
X208245000Y-88240000D02*
X208245000Y-69190000D01*
D14*
X165550000Y-99300000D02*
X165550000Y-101300000D01*
X164650000Y-99300000D02*
X164650000Y-101300000D01*
X165550000Y-101300000D02*
X164650000Y-101300000D01*
X165550000Y-99300000D02*
X164650000Y-99300000D01*
X170700000Y-73030000D02*
X172700000Y-73030000D01*
X172700000Y-75170000D02*
X170700000Y-75170000D01*
D11*
X144200000Y-83600000D02*
X132200000Y-83600000D01*
X144200000Y-95600000D02*
X144200000Y-83600000D01*
X132200000Y-95600000D02*
X144200000Y-95600000D01*
X132200000Y-95600000D02*
X132200000Y-83600000D01*
D14*
X175330000Y-125480000D02*
X175330000Y-122880000D01*
X175330000Y-122880000D02*
X172670000Y-122880000D01*
X172670000Y-122880000D02*
X172670000Y-125480000D01*
X172670000Y-125480000D02*
X175330000Y-125480000D01*
X175330000Y-126750000D02*
X175330000Y-128080000D01*
X175330000Y-128080000D02*
X174000000Y-128080000D01*
X141530000Y-79170000D02*
X133850000Y-79170000D01*
X133850000Y-79170000D02*
X133850000Y-81830000D01*
X133850000Y-81830000D02*
X141530000Y-81830000D01*
X141530000Y-81830000D02*
X141530000Y-79170000D01*
X142800000Y-79170000D02*
X144130000Y-79170000D01*
X144130000Y-79170000D02*
X144130000Y-80500000D01*
X107270000Y-103570000D02*
X107270000Y-111250000D01*
X107270000Y-111250000D02*
X109930000Y-111250000D01*
X109930000Y-111250000D02*
X109930000Y-103570000D01*
X109930000Y-103570000D02*
X107270000Y-103570000D01*
X107270000Y-102300000D02*
X107270000Y-100970000D01*
X107270000Y-100970000D02*
X108600000Y-100970000D01*
X107270000Y-91670000D02*
X107270000Y-99350000D01*
X107270000Y-99350000D02*
X109930000Y-99350000D01*
X109930000Y-99350000D02*
X109930000Y-91670000D01*
X109930000Y-91670000D02*
X107270000Y-91670000D01*
X107270000Y-90400000D02*
X107270000Y-89070000D01*
X107270000Y-89070000D02*
X108600000Y-89070000D01*
X136470000Y-76930000D02*
X144150000Y-76930000D01*
X144150000Y-76930000D02*
X144150000Y-74270000D01*
X144150000Y-74270000D02*
X136470000Y-74270000D01*
X136470000Y-74270000D02*
X136470000Y-76930000D01*
X135200000Y-76930000D02*
X133870000Y-76930000D01*
X133870000Y-76930000D02*
X133870000Y-75600000D01*
X180930000Y-123730000D02*
X180930000Y-110970000D01*
X180930000Y-110970000D02*
X178270000Y-110970000D01*
X178270000Y-110970000D02*
X178270000Y-123730000D01*
X178270000Y-123730000D02*
X180930000Y-123730000D01*
X180930000Y-125000000D02*
X180930000Y-126330000D01*
X180930000Y-126330000D02*
X179600000Y-126330000D01*
X123490000Y-72210000D02*
X146410000Y-72210000D01*
X146410000Y-72210000D02*
X146410000Y-69550000D01*
X146410000Y-69550000D02*
X123490000Y-69550000D01*
X123490000Y-69550000D02*
X123490000Y-72210000D01*
X122220000Y-72210000D02*
X120890000Y-72210000D01*
X120890000Y-72210000D02*
X120890000Y-70880000D01*
X150420000Y-72190000D02*
X168260000Y-72190000D01*
X168260000Y-72190000D02*
X168260000Y-69530000D01*
X168260000Y-69530000D02*
X150420000Y-69530000D01*
X150420000Y-69530000D02*
X150420000Y-72190000D01*
X149150000Y-72190000D02*
X147820000Y-72190000D01*
X147820000Y-72190000D02*
X147820000Y-70860000D01*
X173230000Y-72170000D02*
X191070000Y-72170000D01*
X191070000Y-72170000D02*
X191070000Y-69510000D01*
X191070000Y-69510000D02*
X173230000Y-69510000D01*
X173230000Y-69510000D02*
X173230000Y-72170000D01*
X171960000Y-72170000D02*
X170630000Y-72170000D01*
X170630000Y-72170000D02*
X170630000Y-70840000D01*
X132570000Y-120460000D02*
X150410000Y-120460000D01*
X150410000Y-120460000D02*
X150410000Y-117800000D01*
X150410000Y-117800000D02*
X132570000Y-117800000D01*
X132570000Y-117800000D02*
X132570000Y-120460000D01*
X131300000Y-120460000D02*
X129970000Y-120460000D01*
X129970000Y-120460000D02*
X129970000Y-119130000D01*
X155440000Y-120480000D02*
X173280000Y-120480000D01*
X173280000Y-120480000D02*
X173280000Y-117820000D01*
X173280000Y-117820000D02*
X155440000Y-117820000D01*
X155440000Y-117820000D02*
X155440000Y-120480000D01*
X154170000Y-120480000D02*
X152840000Y-120480000D01*
X152840000Y-120480000D02*
X152840000Y-119150000D01*
X170870000Y-92460000D02*
X170870000Y-97600000D01*
X170870000Y-97600000D02*
X165670000Y-97600000D01*
X165670000Y-97600000D02*
X165670000Y-89860000D01*
X165670000Y-89860000D02*
X168270000Y-89860000D01*
X168270000Y-89860000D02*
X168270000Y-92460000D01*
X168270000Y-92460000D02*
X170870000Y-92460000D01*
X170870000Y-91190000D02*
X170870000Y-89860000D01*
X170870000Y-89860000D02*
X169600000Y-89860000D01*
X136330000Y-104270000D02*
X131190000Y-104270000D01*
X131190000Y-104270000D02*
X131190000Y-106930000D01*
X131190000Y-106930000D02*
X136330000Y-106930000D01*
X136330000Y-106930000D02*
X136330000Y-104270000D01*
X137600000Y-104270000D02*
X138930000Y-104270000D01*
X138930000Y-104270000D02*
X138930000Y-105600000D01*
X136330000Y-108770000D02*
X131190000Y-108770000D01*
X131190000Y-108770000D02*
X131190000Y-111430000D01*
X131190000Y-111430000D02*
X136330000Y-111430000D01*
X136330000Y-111430000D02*
X136330000Y-108770000D01*
X137600000Y-108770000D02*
X138930000Y-108770000D01*
X138930000Y-108770000D02*
X138930000Y-110100000D01*
X136330000Y-113370000D02*
X131190000Y-113370000D01*
X131190000Y-113370000D02*
X131190000Y-116030000D01*
X131190000Y-116030000D02*
X136330000Y-116030000D01*
X136330000Y-116030000D02*
X136330000Y-113370000D01*
X137600000Y-113370000D02*
X138930000Y-113370000D01*
X138930000Y-113370000D02*
X138930000Y-114700000D01*
X131670000Y-124270000D02*
X131670000Y-129410000D01*
X131670000Y-129410000D02*
X134330000Y-129410000D01*
X134330000Y-129410000D02*
X134330000Y-124270000D01*
X134330000Y-124270000D02*
X131670000Y-124270000D01*
X131670000Y-123000000D02*
X131670000Y-121670000D01*
X131670000Y-121670000D02*
X133000000Y-121670000D01*
X137420000Y-124270000D02*
X137420000Y-129410000D01*
X137420000Y-129410000D02*
X140080000Y-129410000D01*
X140080000Y-129410000D02*
X140080000Y-124270000D01*
X140080000Y-124270000D02*
X137420000Y-124270000D01*
X137420000Y-123000000D02*
X137420000Y-121670000D01*
X137420000Y-121670000D02*
X138750000Y-121670000D01*
X143170000Y-124270000D02*
X143170000Y-129410000D01*
X143170000Y-129410000D02*
X145830000Y-129410000D01*
X145830000Y-129410000D02*
X145830000Y-124270000D01*
X145830000Y-124270000D02*
X143170000Y-124270000D01*
X143170000Y-123000000D02*
X143170000Y-121670000D01*
X143170000Y-121670000D02*
X144500000Y-121670000D01*
X111200000Y-96550000D02*
X111200000Y-102500000D01*
X111200000Y-102500000D02*
X163800000Y-102500000D01*
X163800000Y-102500000D02*
X163800000Y-96550000D01*
X163800000Y-96550000D02*
X111200000Y-96550000D01*
X114500000Y-96550000D02*
X114500000Y-97300000D01*
X114500000Y-97300000D02*
X160500000Y-97300000D01*
X160500000Y-97300000D02*
X160500000Y-96550000D01*
X160500000Y-96550000D02*
X114500000Y-96550000D01*
X111200000Y-96550000D02*
X111200000Y-97300000D01*
X111200000Y-97300000D02*
X113000000Y-97300000D01*
X113000000Y-97300000D02*
X113000000Y-96550000D01*
X113000000Y-96550000D02*
X111200000Y-96550000D01*
X162000000Y-96550000D02*
X162000000Y-97300000D01*
X162000000Y-97300000D02*
X163800000Y-97300000D01*
X163800000Y-97300000D02*
X163800000Y-96550000D01*
X163800000Y-96550000D02*
X162000000Y-96550000D01*
X111200000Y-98800000D02*
X111950000Y-98800000D01*
X111950000Y-98800000D02*
X111950000Y-101750000D01*
X111950000Y-101750000D02*
X137500000Y-101750000D01*
X163800000Y-98800000D02*
X163050000Y-98800000D01*
X163050000Y-98800000D02*
X163050000Y-101750000D01*
X163050000Y-101750000D02*
X137500000Y-101750000D01*
X113400000Y-96250000D02*
X110900000Y-96250000D01*
X110900000Y-96250000D02*
X110900000Y-98750000D01*
X166750000Y-77680000D02*
X168750000Y-77680000D01*
X168750000Y-79820000D02*
X166750000Y-79820000D01*
X167180000Y-84500000D02*
X167180000Y-82500000D01*
X169320000Y-82500000D02*
X169320000Y-84500000D01*
X173180000Y-82750000D02*
X173180000Y-83750000D01*
X171820000Y-83750000D02*
X171820000Y-82750000D01*
X170070000Y-83750000D02*
X170070000Y-82750000D01*
X171430000Y-82750000D02*
X171430000Y-83750000D01*
X166850000Y-74430000D02*
X165850000Y-74430000D01*
X165850000Y-73070000D02*
X166850000Y-73070000D01*
X165850000Y-74620000D02*
X166850000Y-74620000D01*
X166850000Y-75980000D02*
X165850000Y-75980000D01*
X192430000Y-94250000D02*
X192430000Y-92250000D01*
X194570000Y-92250000D02*
X194570000Y-94250000D01*
X197700000Y-89630000D02*
X199700000Y-89630000D01*
X199700000Y-91770000D02*
X197700000Y-91770000D01*
X145830000Y-86100000D02*
X145830000Y-84100000D01*
X147970000Y-84100000D02*
X147970000Y-86100000D01*
X148330000Y-86100000D02*
X148330000Y-84100000D01*
X150470000Y-84100000D02*
X150470000Y-86100000D01*
X171400000Y-102670000D02*
X169400000Y-102670000D01*
X169400000Y-100530000D02*
X171400000Y-100530000D01*
X171800000Y-107270000D02*
X169800000Y-107270000D01*
X169800000Y-105130000D02*
X171800000Y-105130000D01*
X169800000Y-107730000D02*
X171800000Y-107730000D01*
X171800000Y-109870000D02*
X169800000Y-109870000D01*
X169800000Y-102830000D02*
X171800000Y-102830000D01*
X171800000Y-104970000D02*
X169800000Y-104970000D01*
X171930000Y-114750000D02*
X171930000Y-112750000D01*
X174070000Y-112750000D02*
X174070000Y-114750000D01*
X174170000Y-91400000D02*
X174170000Y-93400000D01*
X172030000Y-93400000D02*
X172030000Y-91400000D01*
X190730000Y-106000000D02*
X190730000Y-104000000D01*
X192870000Y-104000000D02*
X192870000Y-106000000D01*
X188030000Y-106000000D02*
X188030000Y-104000000D01*
X190170000Y-104000000D02*
X190170000Y-106000000D01*
X186680000Y-99250000D02*
X186680000Y-97250000D01*
X188820000Y-97250000D02*
X188820000Y-99250000D01*
X188930000Y-99250000D02*
X188930000Y-97250000D01*
X191070000Y-97250000D02*
X191070000Y-99250000D01*
X182180000Y-99250000D02*
X182180000Y-97250000D01*
X184320000Y-97250000D02*
X184320000Y-99250000D01*
X184430000Y-99250000D02*
X184430000Y-97250000D01*
X186570000Y-97250000D02*
X186570000Y-99250000D01*
X189430000Y-91250000D02*
X189430000Y-89250000D01*
X191570000Y-89250000D02*
X191570000Y-91250000D01*
X186680000Y-91250000D02*
X186680000Y-89250000D01*
X188820000Y-89250000D02*
X188820000Y-91250000D01*
X183930000Y-91250000D02*
X183930000Y-89250000D01*
X186070000Y-89250000D02*
X186070000Y-91250000D01*
X181180000Y-91250000D02*
X181180000Y-89250000D01*
X183320000Y-89250000D02*
X183320000Y-91250000D01*
D15*
X197700000Y-102400000D02*
X197950000Y-102400000D01*
X197950000Y-102400000D02*
X197950000Y-105400000D01*
X197950000Y-105400000D02*
X197700000Y-105400000D01*
X195700000Y-102400000D02*
X195450000Y-102400000D01*
X195450000Y-102400000D02*
X195450000Y-105400000D01*
X195450000Y-105400000D02*
X195700000Y-105400000D01*
D11*
X189310000Y-86250000D02*
X189310000Y-73550000D01*
X189310000Y-73550000D02*
X181690000Y-73550000D01*
X181690000Y-73550000D02*
X181690000Y-86250000D01*
X181690000Y-86250000D02*
X189310000Y-86250000D01*
D14*
X107500000Y-81150000D02*
X107500000Y-82650000D01*
X107500000Y-82650000D02*
X108450000Y-82650000D01*
X108450000Y-82650000D02*
X108450000Y-87775000D01*
X117900000Y-81150000D02*
X117900000Y-82650000D01*
X117900000Y-82650000D02*
X116950000Y-82650000D01*
X116950000Y-82650000D02*
X116950000Y-83750000D01*
D11*
X182500000Y-111750000D02*
X206500000Y-111750000D01*
X206500000Y-127750000D02*
X206500000Y-111750000D01*
X182500000Y-127750000D02*
X206500000Y-127750000D01*
X182500000Y-111750000D02*
X182500000Y-127750000D01*
D14*
X155900000Y-113090000D02*
X154100000Y-113090000D01*
X154100000Y-116310000D02*
X157050000Y-116310000D01*
D11*
X153575000Y-106825000D02*
X153575000Y-107000000D01*
X156925000Y-106825000D02*
X156925000Y-107075000D01*
X156925000Y-110175000D02*
X156925000Y-109925000D01*
X153575000Y-110175000D02*
X153575000Y-109925000D01*
X153575000Y-106825000D02*
X156925000Y-106825000D01*
X153575000Y-110175000D02*
X156925000Y-110175000D01*
X153575000Y-107000000D02*
X152325000Y-107000000D01*
X153575000Y-103075000D02*
X153575000Y-103250000D01*
X156925000Y-103075000D02*
X156925000Y-103325000D01*
X156925000Y-106425000D02*
X156925000Y-106175000D01*
X153575000Y-106425000D02*
X153575000Y-106175000D01*
X153575000Y-103075000D02*
X156925000Y-103075000D01*
X153575000Y-106425000D02*
X156925000Y-106425000D01*
X153575000Y-103250000D02*
X152325000Y-103250000D01*
X178675000Y-103925000D02*
X178675000Y-103975000D01*
X182825000Y-103925000D02*
X182825000Y-104070000D01*
X182825000Y-109075000D02*
X182825000Y-108930000D01*
X178675000Y-109075000D02*
X178675000Y-108930000D01*
X178675000Y-103925000D02*
X182825000Y-103925000D01*
X178675000Y-109075000D02*
X182825000Y-109075000D01*
X178675000Y-103975000D02*
X177275000Y-103975000D01*
X175425000Y-96675000D02*
X175425000Y-96725000D01*
X179575000Y-96675000D02*
X179575000Y-96820000D01*
X179575000Y-101825000D02*
X179575000Y-101680000D01*
X175425000Y-101825000D02*
X175425000Y-101680000D01*
X175425000Y-96675000D02*
X179575000Y-96675000D01*
X175425000Y-101825000D02*
X179575000Y-101825000D01*
X175425000Y-96725000D02*
X174025000Y-96725000D01*
D14*
X118550000Y-104050000D02*
X117050000Y-104050000D01*
X117050000Y-104050000D02*
X117050000Y-105000000D01*
X117050000Y-105000000D02*
X111925000Y-105000000D01*
X118550000Y-114450000D02*
X117050000Y-114450000D01*
X117050000Y-114450000D02*
X117050000Y-113500000D01*
X117050000Y-113500000D02*
X115950000Y-113500000D01*
X154600000Y-93600000D02*
X154600000Y-86350000D01*
X154600000Y-86350000D02*
X151000000Y-86350000D01*
X151000000Y-86350000D02*
X151000000Y-93600000D01*
X107310000Y-128690000D02*
X109990000Y-128690000D01*
X115690000Y-128690000D02*
X113010000Y-128690000D01*
X114930000Y-120310000D02*
X113010000Y-120310000D01*
X108070000Y-120310000D02*
X109990000Y-120310000D01*
X107310000Y-128690000D02*
X107310000Y-121070000D01*
X107310000Y-121070000D02*
X108070000Y-120310000D01*
X114930000Y-120310000D02*
X115690000Y-121070000D01*
X115690000Y-121070000D02*
X115690000Y-128690000D01*
X114050000Y-118200000D02*
X115750000Y-118200000D01*
X115750000Y-118200000D02*
X115750000Y-115650000D01*
X114050000Y-118200000D02*
X114050000Y-115650000D01*
D11*
X116750000Y-116250000D02*
X116750000Y-128250000D01*
X128750000Y-116250000D02*
X116750000Y-116250000D01*
X128750000Y-128250000D02*
X128750000Y-116250000D01*
X128750000Y-128250000D02*
X116750000Y-128250000D01*
D14*
X112960000Y-114000000D02*
X110840000Y-114000000D01*
X112960000Y-117200000D02*
X112960000Y-114000000D01*
X110840000Y-114000000D02*
X110840000Y-117200000D01*
X123700000Y-77860000D02*
X123700000Y-75740000D01*
X120500000Y-77860000D02*
X123700000Y-77860000D01*
X123700000Y-75740000D02*
X120500000Y-75740000D01*
X109820000Y-114250000D02*
X109820000Y-116250000D01*
X107680000Y-116250000D02*
X107680000Y-114250000D01*
X121400000Y-73030000D02*
X123400000Y-73030000D01*
X123400000Y-75170000D02*
X121400000Y-75170000D01*
X165200000Y-105380000D02*
X163200000Y-105380000D01*
X163200000Y-107420000D02*
X165200000Y-107420000D01*
X165200000Y-103180000D02*
X163200000Y-103180000D01*
X163200000Y-105220000D02*
X165200000Y-105220000D01*
D10*
X115583334Y-92450000D02*
X115550000Y-92483333D01*
X115450000Y-92516667D01*
X115383334Y-92516667D01*
X115283334Y-92483333D01*
X115216667Y-92416667D01*
X115183334Y-92350000D01*
X115150000Y-92216667D01*
X115150000Y-92116667D01*
X115183334Y-91983333D01*
X115216667Y-91916667D01*
X115283334Y-91850000D01*
X115383334Y-91816667D01*
X115450000Y-91816667D01*
X115550000Y-91850000D01*
X115583334Y-91883333D01*
X116250000Y-92516667D02*
X115850000Y-92516667D01*
X116050000Y-92516667D02*
X116050000Y-91816667D01*
X115983334Y-91916667D01*
X115916667Y-91983333D01*
X115850000Y-92016667D01*
D11*
X111039048Y-95181429D02*
X111800953Y-95181429D01*
X111420001Y-95562381D02*
X111420001Y-94800476D01*
D10*
X147083334Y-92550000D02*
X147050000Y-92583333D01*
X146950000Y-92616667D01*
X146883334Y-92616667D01*
X146783334Y-92583333D01*
X146716667Y-92516667D01*
X146683334Y-92450000D01*
X146650000Y-92316667D01*
X146650000Y-92216667D01*
X146683334Y-92083333D01*
X146716667Y-92016667D01*
X146783334Y-91950000D01*
X146883334Y-91916667D01*
X146950000Y-91916667D01*
X147050000Y-91950000D01*
X147083334Y-91983333D01*
X147316667Y-91916667D02*
X147750000Y-91916667D01*
X147516667Y-92183333D01*
X147616667Y-92183333D01*
X147683334Y-92216667D01*
X147716667Y-92250000D01*
X147750000Y-92316667D01*
X147750000Y-92483333D01*
X147716667Y-92550000D01*
X147683334Y-92583333D01*
X147616667Y-92616667D01*
X147416667Y-92616667D01*
X147350000Y-92583333D01*
X147316667Y-92550000D01*
X149483334Y-92150000D02*
X149450000Y-92183333D01*
X149350000Y-92216667D01*
X149283334Y-92216667D01*
X149183334Y-92183333D01*
X149116667Y-92116667D01*
X149083334Y-92050000D01*
X149050000Y-91916667D01*
X149050000Y-91816667D01*
X149083334Y-91683333D01*
X149116667Y-91616667D01*
X149183334Y-91550000D01*
X149283334Y-91516667D01*
X149350000Y-91516667D01*
X149450000Y-91550000D01*
X149483334Y-91583333D01*
X150083334Y-91750000D02*
X150083334Y-92216667D01*
X149916667Y-91483333D02*
X149750000Y-91983333D01*
X150183334Y-91983333D01*
X152883334Y-78250000D02*
X152850000Y-78283333D01*
X152750000Y-78316667D01*
X152683334Y-78316667D01*
X152583334Y-78283333D01*
X152516667Y-78216667D01*
X152483334Y-78150000D01*
X152450000Y-78016667D01*
X152450000Y-77916667D01*
X152483334Y-77783333D01*
X152516667Y-77716667D01*
X152583334Y-77650000D01*
X152683334Y-77616667D01*
X152750000Y-77616667D01*
X152850000Y-77650000D01*
X152883334Y-77683333D01*
X153516667Y-77616667D02*
X153183334Y-77616667D01*
X153150000Y-77950000D01*
X153183334Y-77916667D01*
X153250000Y-77883333D01*
X153416667Y-77883333D01*
X153483334Y-77916667D01*
X153516667Y-77950000D01*
X153550000Y-78016667D01*
X153550000Y-78183333D01*
X153516667Y-78250000D01*
X153483334Y-78283333D01*
X153416667Y-78316667D01*
X153250000Y-78316667D01*
X153183334Y-78283333D01*
X153150000Y-78250000D01*
X168183334Y-88450000D02*
X168150000Y-88483333D01*
X168050000Y-88516667D01*
X167983334Y-88516667D01*
X167883334Y-88483333D01*
X167816667Y-88416667D01*
X167783334Y-88350000D01*
X167750000Y-88216667D01*
X167750000Y-88116667D01*
X167783334Y-87983333D01*
X167816667Y-87916667D01*
X167883334Y-87850000D01*
X167983334Y-87816667D01*
X168050000Y-87816667D01*
X168150000Y-87850000D01*
X168183334Y-87883333D01*
X168783334Y-87816667D02*
X168650000Y-87816667D01*
X168583334Y-87850000D01*
X168550000Y-87883333D01*
X168483334Y-87983333D01*
X168450000Y-88116667D01*
X168450000Y-88383333D01*
X168483334Y-88450000D01*
X168516667Y-88483333D01*
X168583334Y-88516667D01*
X168716667Y-88516667D01*
X168783334Y-88483333D01*
X168816667Y-88450000D01*
X168850000Y-88383333D01*
X168850000Y-88216667D01*
X168816667Y-88150000D01*
X168783334Y-88116667D01*
X168716667Y-88083333D01*
X168583334Y-88083333D01*
X168516667Y-88116667D01*
X168483334Y-88150000D01*
X168450000Y-88216667D01*
X174383334Y-84850000D02*
X174350000Y-84883333D01*
X174250000Y-84916667D01*
X174183334Y-84916667D01*
X174083334Y-84883333D01*
X174016667Y-84816667D01*
X173983334Y-84750000D01*
X173950000Y-84616667D01*
X173950000Y-84516667D01*
X173983334Y-84383333D01*
X174016667Y-84316667D01*
X174083334Y-84250000D01*
X174183334Y-84216667D01*
X174250000Y-84216667D01*
X174350000Y-84250000D01*
X174383334Y-84283333D01*
X174616667Y-84216667D02*
X175083334Y-84216667D01*
X174783334Y-84916667D01*
X171583334Y-76650000D02*
X171550000Y-76683333D01*
X171450000Y-76716667D01*
X171383334Y-76716667D01*
X171283334Y-76683333D01*
X171216667Y-76616667D01*
X171183334Y-76550000D01*
X171150000Y-76416667D01*
X171150000Y-76316667D01*
X171183334Y-76183333D01*
X171216667Y-76116667D01*
X171283334Y-76050000D01*
X171383334Y-76016667D01*
X171450000Y-76016667D01*
X171550000Y-76050000D01*
X171583334Y-76083333D01*
X171983334Y-76316667D02*
X171916667Y-76283333D01*
X171883334Y-76250000D01*
X171850000Y-76183333D01*
X171850000Y-76150000D01*
X171883334Y-76083333D01*
X171916667Y-76050000D01*
X171983334Y-76016667D01*
X172116667Y-76016667D01*
X172183334Y-76050000D01*
X172216667Y-76083333D01*
X172250000Y-76150000D01*
X172250000Y-76183333D01*
X172216667Y-76250000D01*
X172183334Y-76283333D01*
X172116667Y-76316667D01*
X171983334Y-76316667D01*
X171916667Y-76350000D01*
X171883334Y-76383333D01*
X171850000Y-76450000D01*
X171850000Y-76583333D01*
X171883334Y-76650000D01*
X171916667Y-76683333D01*
X171983334Y-76716667D01*
X172116667Y-76716667D01*
X172183334Y-76683333D01*
X172216667Y-76650000D01*
X172250000Y-76583333D01*
X172250000Y-76450000D01*
X172216667Y-76383333D01*
X172183334Y-76350000D01*
X172116667Y-76316667D01*
X176683334Y-76350000D02*
X176650000Y-76383333D01*
X176550000Y-76416667D01*
X176483334Y-76416667D01*
X176383334Y-76383333D01*
X176316667Y-76316667D01*
X176283334Y-76250000D01*
X176250000Y-76116667D01*
X176250000Y-76016667D01*
X176283334Y-75883333D01*
X176316667Y-75816667D01*
X176383334Y-75750000D01*
X176483334Y-75716667D01*
X176550000Y-75716667D01*
X176650000Y-75750000D01*
X176683334Y-75783333D01*
X177016667Y-76416667D02*
X177150000Y-76416667D01*
X177216667Y-76383333D01*
X177250000Y-76350000D01*
X177316667Y-76250000D01*
X177350000Y-76116667D01*
X177350000Y-75850000D01*
X177316667Y-75783333D01*
X177283334Y-75750000D01*
X177216667Y-75716667D01*
X177083334Y-75716667D01*
X177016667Y-75750000D01*
X176983334Y-75783333D01*
X176950000Y-75850000D01*
X176950000Y-76016667D01*
X176983334Y-76083333D01*
X177016667Y-76116667D01*
X177083334Y-76150000D01*
X177216667Y-76150000D01*
X177283334Y-76116667D01*
X177316667Y-76083333D01*
X177350000Y-76016667D01*
X165350000Y-83750000D02*
X165316666Y-83783333D01*
X165216666Y-83816667D01*
X165150000Y-83816667D01*
X165050000Y-83783333D01*
X164983333Y-83716667D01*
X164950000Y-83650000D01*
X164916666Y-83516667D01*
X164916666Y-83416667D01*
X164950000Y-83283333D01*
X164983333Y-83216667D01*
X165050000Y-83150000D01*
X165150000Y-83116667D01*
X165216666Y-83116667D01*
X165316666Y-83150000D01*
X165350000Y-83183333D01*
X166016666Y-83816667D02*
X165616666Y-83816667D01*
X165816666Y-83816667D02*
X165816666Y-83116667D01*
X165750000Y-83216667D01*
X165683333Y-83283333D01*
X165616666Y-83316667D01*
X166450000Y-83116667D02*
X166516667Y-83116667D01*
X166583333Y-83150000D01*
X166616667Y-83183333D01*
X166650000Y-83250000D01*
X166683333Y-83383333D01*
X166683333Y-83550000D01*
X166650000Y-83683333D01*
X166616667Y-83750000D01*
X166583333Y-83783333D01*
X166516667Y-83816667D01*
X166450000Y-83816667D01*
X166383333Y-83783333D01*
X166350000Y-83750000D01*
X166316667Y-83683333D01*
X166283333Y-83550000D01*
X166283333Y-83383333D01*
X166316667Y-83250000D01*
X166350000Y-83183333D01*
X166383333Y-83150000D01*
X166450000Y-83116667D01*
X149350000Y-78250000D02*
X149316666Y-78283333D01*
X149216666Y-78316667D01*
X149150000Y-78316667D01*
X149050000Y-78283333D01*
X148983333Y-78216667D01*
X148950000Y-78150000D01*
X148916666Y-78016667D01*
X148916666Y-77916667D01*
X148950000Y-77783333D01*
X148983333Y-77716667D01*
X149050000Y-77650000D01*
X149150000Y-77616667D01*
X149216666Y-77616667D01*
X149316666Y-77650000D01*
X149350000Y-77683333D01*
X150016666Y-78316667D02*
X149616666Y-78316667D01*
X149816666Y-78316667D02*
X149816666Y-77616667D01*
X149750000Y-77716667D01*
X149683333Y-77783333D01*
X149616666Y-77816667D01*
X150683333Y-78316667D02*
X150283333Y-78316667D01*
X150483333Y-78316667D02*
X150483333Y-77616667D01*
X150416667Y-77716667D01*
X150350000Y-77783333D01*
X150283333Y-77816667D01*
X159050000Y-92750000D02*
X159016666Y-92783333D01*
X158916666Y-92816667D01*
X158850000Y-92816667D01*
X158750000Y-92783333D01*
X158683333Y-92716667D01*
X158650000Y-92650000D01*
X158616666Y-92516667D01*
X158616666Y-92416667D01*
X158650000Y-92283333D01*
X158683333Y-92216667D01*
X158750000Y-92150000D01*
X158850000Y-92116667D01*
X158916666Y-92116667D01*
X159016666Y-92150000D01*
X159050000Y-92183333D01*
X159716666Y-92816667D02*
X159316666Y-92816667D01*
X159516666Y-92816667D02*
X159516666Y-92116667D01*
X159450000Y-92216667D01*
X159383333Y-92283333D01*
X159316666Y-92316667D01*
X159983333Y-92183333D02*
X160016667Y-92150000D01*
X160083333Y-92116667D01*
X160250000Y-92116667D01*
X160316667Y-92150000D01*
X160350000Y-92183333D01*
X160383333Y-92250000D01*
X160383333Y-92316667D01*
X160350000Y-92416667D01*
X159950000Y-92816667D01*
X160383333Y-92816667D01*
X126750000Y-77650000D02*
X126716666Y-77683333D01*
X126616666Y-77716667D01*
X126550000Y-77716667D01*
X126450000Y-77683333D01*
X126383333Y-77616667D01*
X126350000Y-77550000D01*
X126316666Y-77416667D01*
X126316666Y-77316667D01*
X126350000Y-77183333D01*
X126383333Y-77116667D01*
X126450000Y-77050000D01*
X126550000Y-77016667D01*
X126616666Y-77016667D01*
X126716666Y-77050000D01*
X126750000Y-77083333D01*
X127416666Y-77716667D02*
X127016666Y-77716667D01*
X127216666Y-77716667D02*
X127216666Y-77016667D01*
X127150000Y-77116667D01*
X127083333Y-77183333D01*
X127016666Y-77216667D01*
X127650000Y-77016667D02*
X128083333Y-77016667D01*
X127850000Y-77283333D01*
X127950000Y-77283333D01*
X128016667Y-77316667D01*
X128050000Y-77350000D01*
X128083333Y-77416667D01*
X128083333Y-77583333D01*
X128050000Y-77650000D01*
X128016667Y-77683333D01*
X127950000Y-77716667D01*
X127750000Y-77716667D01*
X127683333Y-77683333D01*
X127650000Y-77650000D01*
X125750000Y-92650000D02*
X125783333Y-92683334D01*
X125816667Y-92783334D01*
X125816667Y-92850000D01*
X125783333Y-92950000D01*
X125716667Y-93016667D01*
X125650000Y-93050000D01*
X125516667Y-93083334D01*
X125416667Y-93083334D01*
X125283333Y-93050000D01*
X125216667Y-93016667D01*
X125150000Y-92950000D01*
X125116667Y-92850000D01*
X125116667Y-92783334D01*
X125150000Y-92683334D01*
X125183333Y-92650000D01*
X125816667Y-91983334D02*
X125816667Y-92383334D01*
X125816667Y-92183334D02*
X125116667Y-92183334D01*
X125216667Y-92250000D01*
X125283333Y-92316667D01*
X125316667Y-92383334D01*
X125350000Y-91383333D02*
X125816667Y-91383333D01*
X125083333Y-91550000D02*
X125583333Y-91716667D01*
X125583333Y-91283333D01*
D11*
X120839048Y-95181429D02*
X121600953Y-95181429D01*
X121220001Y-95562381D02*
X121220001Y-94800476D01*
D10*
X123550000Y-86250000D02*
X123516666Y-86283333D01*
X123416666Y-86316667D01*
X123350000Y-86316667D01*
X123250000Y-86283333D01*
X123183333Y-86216667D01*
X123150000Y-86150000D01*
X123116666Y-86016667D01*
X123116666Y-85916667D01*
X123150000Y-85783333D01*
X123183333Y-85716667D01*
X123250000Y-85650000D01*
X123350000Y-85616667D01*
X123416666Y-85616667D01*
X123516666Y-85650000D01*
X123550000Y-85683333D01*
X124216666Y-86316667D02*
X123816666Y-86316667D01*
X124016666Y-86316667D02*
X124016666Y-85616667D01*
X123950000Y-85716667D01*
X123883333Y-85783333D01*
X123816666Y-85816667D01*
X124850000Y-85616667D02*
X124516667Y-85616667D01*
X124483333Y-85950000D01*
X124516667Y-85916667D01*
X124583333Y-85883333D01*
X124750000Y-85883333D01*
X124816667Y-85916667D01*
X124850000Y-85950000D01*
X124883333Y-86016667D01*
X124883333Y-86183333D01*
X124850000Y-86250000D01*
X124816667Y-86283333D01*
X124750000Y-86316667D01*
X124583333Y-86316667D01*
X124516667Y-86283333D01*
X124483333Y-86250000D01*
D11*
X119339048Y-87581429D02*
X120100953Y-87581429D01*
X119720001Y-87962381D02*
X119720001Y-87200476D01*
D10*
X186650000Y-105950000D02*
X186683333Y-105983334D01*
X186716667Y-106083334D01*
X186716667Y-106150000D01*
X186683333Y-106250000D01*
X186616667Y-106316667D01*
X186550000Y-106350000D01*
X186416667Y-106383334D01*
X186316667Y-106383334D01*
X186183333Y-106350000D01*
X186116667Y-106316667D01*
X186050000Y-106250000D01*
X186016667Y-106150000D01*
X186016667Y-106083334D01*
X186050000Y-105983334D01*
X186083333Y-105950000D01*
X186716667Y-105283334D02*
X186716667Y-105683334D01*
X186716667Y-105483334D02*
X186016667Y-105483334D01*
X186116667Y-105550000D01*
X186183333Y-105616667D01*
X186216667Y-105683334D01*
X186016667Y-104683333D02*
X186016667Y-104816667D01*
X186050000Y-104883333D01*
X186083333Y-104916667D01*
X186183333Y-104983333D01*
X186316667Y-105016667D01*
X186583333Y-105016667D01*
X186650000Y-104983333D01*
X186683333Y-104950000D01*
X186716667Y-104883333D01*
X186716667Y-104750000D01*
X186683333Y-104683333D01*
X186650000Y-104650000D01*
X186583333Y-104616667D01*
X186416667Y-104616667D01*
X186350000Y-104650000D01*
X186316667Y-104683333D01*
X186283333Y-104750000D01*
X186283333Y-104883333D01*
X186316667Y-104950000D01*
X186350000Y-104983333D01*
X186416667Y-105016667D01*
X145450000Y-113750000D02*
X145483333Y-113783334D01*
X145516667Y-113883334D01*
X145516667Y-113950000D01*
X145483333Y-114050000D01*
X145416667Y-114116667D01*
X145350000Y-114150000D01*
X145216667Y-114183334D01*
X145116667Y-114183334D01*
X144983333Y-114150000D01*
X144916667Y-114116667D01*
X144850000Y-114050000D01*
X144816667Y-113950000D01*
X144816667Y-113883334D01*
X144850000Y-113783334D01*
X144883333Y-113750000D01*
X145516667Y-113083334D02*
X145516667Y-113483334D01*
X145516667Y-113283334D02*
X144816667Y-113283334D01*
X144916667Y-113350000D01*
X144983333Y-113416667D01*
X145016667Y-113483334D01*
X144816667Y-112850000D02*
X144816667Y-112383333D01*
X145516667Y-112683333D01*
X145550000Y-104750000D02*
X145583333Y-104783334D01*
X145616667Y-104883334D01*
X145616667Y-104950000D01*
X145583333Y-105050000D01*
X145516667Y-105116667D01*
X145450000Y-105150000D01*
X145316667Y-105183334D01*
X145216667Y-105183334D01*
X145083333Y-105150000D01*
X145016667Y-105116667D01*
X144950000Y-105050000D01*
X144916667Y-104950000D01*
X144916667Y-104883334D01*
X144950000Y-104783334D01*
X144983333Y-104750000D01*
X145616667Y-104083334D02*
X145616667Y-104483334D01*
X145616667Y-104283334D02*
X144916667Y-104283334D01*
X145016667Y-104350000D01*
X145083333Y-104416667D01*
X145116667Y-104483334D01*
X145216667Y-103683333D02*
X145183333Y-103750000D01*
X145150000Y-103783333D01*
X145083333Y-103816667D01*
X145050000Y-103816667D01*
X144983333Y-103783333D01*
X144950000Y-103750000D01*
X144916667Y-103683333D01*
X144916667Y-103550000D01*
X144950000Y-103483333D01*
X144983333Y-103450000D01*
X145050000Y-103416667D01*
X145083333Y-103416667D01*
X145150000Y-103450000D01*
X145183333Y-103483333D01*
X145216667Y-103550000D01*
X145216667Y-103683333D01*
X145250000Y-103750000D01*
X145283333Y-103783333D01*
X145350000Y-103816667D01*
X145483333Y-103816667D01*
X145550000Y-103783333D01*
X145583333Y-103750000D01*
X145616667Y-103683333D01*
X145616667Y-103550000D01*
X145583333Y-103483333D01*
X145550000Y-103450000D01*
X145483333Y-103416667D01*
X145350000Y-103416667D01*
X145283333Y-103450000D01*
X145250000Y-103483333D01*
X145216667Y-103550000D01*
X145550000Y-106950000D02*
X145583333Y-106983334D01*
X145616667Y-107083334D01*
X145616667Y-107150000D01*
X145583333Y-107250000D01*
X145516667Y-107316667D01*
X145450000Y-107350000D01*
X145316667Y-107383334D01*
X145216667Y-107383334D01*
X145083333Y-107350000D01*
X145016667Y-107316667D01*
X144950000Y-107250000D01*
X144916667Y-107150000D01*
X144916667Y-107083334D01*
X144950000Y-106983334D01*
X144983333Y-106950000D01*
X145616667Y-106283334D02*
X145616667Y-106683334D01*
X145616667Y-106483334D02*
X144916667Y-106483334D01*
X145016667Y-106550000D01*
X145083333Y-106616667D01*
X145116667Y-106683334D01*
X145616667Y-105950000D02*
X145616667Y-105816667D01*
X145583333Y-105750000D01*
X145550000Y-105716667D01*
X145450000Y-105650000D01*
X145316667Y-105616667D01*
X145050000Y-105616667D01*
X144983333Y-105650000D01*
X144950000Y-105683333D01*
X144916667Y-105750000D01*
X144916667Y-105883333D01*
X144950000Y-105950000D01*
X144983333Y-105983333D01*
X145050000Y-106016667D01*
X145216667Y-106016667D01*
X145283333Y-105983333D01*
X145316667Y-105950000D01*
X145350000Y-105883333D01*
X145350000Y-105750000D01*
X145316667Y-105683333D01*
X145283333Y-105650000D01*
X145216667Y-105616667D01*
X145550000Y-111450000D02*
X145583333Y-111483334D01*
X145616667Y-111583334D01*
X145616667Y-111650000D01*
X145583333Y-111750000D01*
X145516667Y-111816667D01*
X145450000Y-111850000D01*
X145316667Y-111883334D01*
X145216667Y-111883334D01*
X145083333Y-111850000D01*
X145016667Y-111816667D01*
X144950000Y-111750000D01*
X144916667Y-111650000D01*
X144916667Y-111583334D01*
X144950000Y-111483334D01*
X144983333Y-111450000D01*
X144983333Y-111183334D02*
X144950000Y-111150000D01*
X144916667Y-111083334D01*
X144916667Y-110916667D01*
X144950000Y-110850000D01*
X144983333Y-110816667D01*
X145050000Y-110783334D01*
X145116667Y-110783334D01*
X145216667Y-110816667D01*
X145616667Y-111216667D01*
X145616667Y-110783334D01*
X144916667Y-110350000D02*
X144916667Y-110283333D01*
X144950000Y-110216667D01*
X144983333Y-110183333D01*
X145050000Y-110150000D01*
X145183333Y-110116667D01*
X145350000Y-110116667D01*
X145483333Y-110150000D01*
X145550000Y-110183333D01*
X145583333Y-110216667D01*
X145616667Y-110283333D01*
X145616667Y-110350000D01*
X145583333Y-110416667D01*
X145550000Y-110450000D01*
X145483333Y-110483333D01*
X145350000Y-110516667D01*
X145183333Y-110516667D01*
X145050000Y-110483333D01*
X144983333Y-110450000D01*
X144950000Y-110416667D01*
X144916667Y-110350000D01*
X145450000Y-115950000D02*
X145483333Y-115983334D01*
X145516667Y-116083334D01*
X145516667Y-116150000D01*
X145483333Y-116250000D01*
X145416667Y-116316667D01*
X145350000Y-116350000D01*
X145216667Y-116383334D01*
X145116667Y-116383334D01*
X144983333Y-116350000D01*
X144916667Y-116316667D01*
X144850000Y-116250000D01*
X144816667Y-116150000D01*
X144816667Y-116083334D01*
X144850000Y-115983334D01*
X144883333Y-115950000D01*
X144883333Y-115683334D02*
X144850000Y-115650000D01*
X144816667Y-115583334D01*
X144816667Y-115416667D01*
X144850000Y-115350000D01*
X144883333Y-115316667D01*
X144950000Y-115283334D01*
X145016667Y-115283334D01*
X145116667Y-115316667D01*
X145516667Y-115716667D01*
X145516667Y-115283334D01*
X145516667Y-114616667D02*
X145516667Y-115016667D01*
X145516667Y-114816667D02*
X144816667Y-114816667D01*
X144916667Y-114883333D01*
X144983333Y-114950000D01*
X145016667Y-115016667D01*
X145550000Y-109250000D02*
X145583333Y-109283334D01*
X145616667Y-109383334D01*
X145616667Y-109450000D01*
X145583333Y-109550000D01*
X145516667Y-109616667D01*
X145450000Y-109650000D01*
X145316667Y-109683334D01*
X145216667Y-109683334D01*
X145083333Y-109650000D01*
X145016667Y-109616667D01*
X144950000Y-109550000D01*
X144916667Y-109450000D01*
X144916667Y-109383334D01*
X144950000Y-109283334D01*
X144983333Y-109250000D01*
X144983333Y-108983334D02*
X144950000Y-108950000D01*
X144916667Y-108883334D01*
X144916667Y-108716667D01*
X144950000Y-108650000D01*
X144983333Y-108616667D01*
X145050000Y-108583334D01*
X145116667Y-108583334D01*
X145216667Y-108616667D01*
X145616667Y-109016667D01*
X145616667Y-108583334D01*
X144983333Y-108316667D02*
X144950000Y-108283333D01*
X144916667Y-108216667D01*
X144916667Y-108050000D01*
X144950000Y-107983333D01*
X144983333Y-107950000D01*
X145050000Y-107916667D01*
X145116667Y-107916667D01*
X145216667Y-107950000D01*
X145616667Y-108350000D01*
X145616667Y-107916667D01*
X175150000Y-113850000D02*
X175116666Y-113883333D01*
X175016666Y-113916667D01*
X174950000Y-113916667D01*
X174850000Y-113883333D01*
X174783333Y-113816667D01*
X174750000Y-113750000D01*
X174716666Y-113616667D01*
X174716666Y-113516667D01*
X174750000Y-113383333D01*
X174783333Y-113316667D01*
X174850000Y-113250000D01*
X174950000Y-113216667D01*
X175016666Y-113216667D01*
X175116666Y-113250000D01*
X175150000Y-113283333D01*
X175416666Y-113283333D02*
X175450000Y-113250000D01*
X175516666Y-113216667D01*
X175683333Y-113216667D01*
X175750000Y-113250000D01*
X175783333Y-113283333D01*
X175816666Y-113350000D01*
X175816666Y-113416667D01*
X175783333Y-113516667D01*
X175383333Y-113916667D01*
X175816666Y-113916667D01*
X176050000Y-113216667D02*
X176483333Y-113216667D01*
X176250000Y-113483333D01*
X176350000Y-113483333D01*
X176416667Y-113516667D01*
X176450000Y-113550000D01*
X176483333Y-113616667D01*
X176483333Y-113783333D01*
X176450000Y-113850000D01*
X176416667Y-113883333D01*
X176350000Y-113916667D01*
X176150000Y-113916667D01*
X176083333Y-113883333D01*
X176050000Y-113850000D01*
X150350000Y-113750000D02*
X150316666Y-113783333D01*
X150216666Y-113816667D01*
X150150000Y-113816667D01*
X150050000Y-113783333D01*
X149983333Y-113716667D01*
X149950000Y-113650000D01*
X149916666Y-113516667D01*
X149916666Y-113416667D01*
X149950000Y-113283333D01*
X149983333Y-113216667D01*
X150050000Y-113150000D01*
X150150000Y-113116667D01*
X150216666Y-113116667D01*
X150316666Y-113150000D01*
X150350000Y-113183333D01*
X150616666Y-113183333D02*
X150650000Y-113150000D01*
X150716666Y-113116667D01*
X150883333Y-113116667D01*
X150950000Y-113150000D01*
X150983333Y-113183333D01*
X151016666Y-113250000D01*
X151016666Y-113316667D01*
X150983333Y-113416667D01*
X150583333Y-113816667D01*
X151016666Y-113816667D01*
X151616667Y-113350000D02*
X151616667Y-113816667D01*
X151450000Y-113083333D02*
X151283333Y-113583333D01*
X151716667Y-113583333D01*
X159550000Y-112750000D02*
X159516666Y-112783333D01*
X159416666Y-112816667D01*
X159350000Y-112816667D01*
X159250000Y-112783333D01*
X159183333Y-112716667D01*
X159150000Y-112650000D01*
X159116666Y-112516667D01*
X159116666Y-112416667D01*
X159150000Y-112283333D01*
X159183333Y-112216667D01*
X159250000Y-112150000D01*
X159350000Y-112116667D01*
X159416666Y-112116667D01*
X159516666Y-112150000D01*
X159550000Y-112183333D01*
X159816666Y-112183333D02*
X159850000Y-112150000D01*
X159916666Y-112116667D01*
X160083333Y-112116667D01*
X160150000Y-112150000D01*
X160183333Y-112183333D01*
X160216666Y-112250000D01*
X160216666Y-112316667D01*
X160183333Y-112416667D01*
X159783333Y-112816667D01*
X160216666Y-112816667D01*
X160850000Y-112116667D02*
X160516667Y-112116667D01*
X160483333Y-112450000D01*
X160516667Y-112416667D01*
X160583333Y-112383333D01*
X160750000Y-112383333D01*
X160816667Y-112416667D01*
X160850000Y-112450000D01*
X160883333Y-112516667D01*
X160883333Y-112683333D01*
X160850000Y-112750000D01*
X160816667Y-112783333D01*
X160750000Y-112816667D01*
X160583333Y-112816667D01*
X160516667Y-112783333D01*
X160483333Y-112750000D01*
X165250000Y-127350000D02*
X165216666Y-127383333D01*
X165116666Y-127416667D01*
X165050000Y-127416667D01*
X164950000Y-127383333D01*
X164883333Y-127316667D01*
X164850000Y-127250000D01*
X164816666Y-127116667D01*
X164816666Y-127016667D01*
X164850000Y-126883333D01*
X164883333Y-126816667D01*
X164950000Y-126750000D01*
X165050000Y-126716667D01*
X165116666Y-126716667D01*
X165216666Y-126750000D01*
X165250000Y-126783333D01*
X165516666Y-126783333D02*
X165550000Y-126750000D01*
X165616666Y-126716667D01*
X165783333Y-126716667D01*
X165850000Y-126750000D01*
X165883333Y-126783333D01*
X165916666Y-126850000D01*
X165916666Y-126916667D01*
X165883333Y-127016667D01*
X165483333Y-127416667D01*
X165916666Y-127416667D01*
X166316667Y-127016667D02*
X166250000Y-126983333D01*
X166216667Y-126950000D01*
X166183333Y-126883333D01*
X166183333Y-126850000D01*
X166216667Y-126783333D01*
X166250000Y-126750000D01*
X166316667Y-126716667D01*
X166450000Y-126716667D01*
X166516667Y-126750000D01*
X166550000Y-126783333D01*
X166583333Y-126850000D01*
X166583333Y-126883333D01*
X166550000Y-126950000D01*
X166516667Y-126983333D01*
X166450000Y-127016667D01*
X166316667Y-127016667D01*
X166250000Y-127050000D01*
X166216667Y-127083333D01*
X166183333Y-127150000D01*
X166183333Y-127283333D01*
X166216667Y-127350000D01*
X166250000Y-127383333D01*
X166316667Y-127416667D01*
X166450000Y-127416667D01*
X166516667Y-127383333D01*
X166550000Y-127350000D01*
X166583333Y-127283333D01*
X166583333Y-127150000D01*
X166550000Y-127083333D01*
X166516667Y-127050000D01*
X166450000Y-127016667D01*
D11*
X161089048Y-128481429D02*
X161850953Y-128481429D01*
X161470001Y-128862381D02*
X161470001Y-128100476D01*
D10*
X155250000Y-110550000D02*
X155283333Y-110583334D01*
X155316667Y-110683334D01*
X155316667Y-110750000D01*
X155283333Y-110850000D01*
X155216667Y-110916667D01*
X155150000Y-110950000D01*
X155016667Y-110983334D01*
X154916667Y-110983334D01*
X154783333Y-110950000D01*
X154716667Y-110916667D01*
X154650000Y-110850000D01*
X154616667Y-110750000D01*
X154616667Y-110683334D01*
X154650000Y-110583334D01*
X154683333Y-110550000D01*
X154683333Y-110283334D02*
X154650000Y-110250000D01*
X154616667Y-110183334D01*
X154616667Y-110016667D01*
X154650000Y-109950000D01*
X154683333Y-109916667D01*
X154750000Y-109883334D01*
X154816667Y-109883334D01*
X154916667Y-109916667D01*
X155316667Y-110316667D01*
X155316667Y-109883334D01*
X155316667Y-109550000D02*
X155316667Y-109416667D01*
X155283333Y-109350000D01*
X155250000Y-109316667D01*
X155150000Y-109250000D01*
X155016667Y-109216667D01*
X154750000Y-109216667D01*
X154683333Y-109250000D01*
X154650000Y-109283333D01*
X154616667Y-109350000D01*
X154616667Y-109483333D01*
X154650000Y-109550000D01*
X154683333Y-109583333D01*
X154750000Y-109616667D01*
X154916667Y-109616667D01*
X154983333Y-109583333D01*
X155016667Y-109550000D01*
X155050000Y-109483333D01*
X155050000Y-109350000D01*
X155016667Y-109283333D01*
X154983333Y-109250000D01*
X154916667Y-109216667D01*
X154250000Y-127350000D02*
X154216666Y-127383333D01*
X154116666Y-127416667D01*
X154050000Y-127416667D01*
X153950000Y-127383333D01*
X153883333Y-127316667D01*
X153850000Y-127250000D01*
X153816666Y-127116667D01*
X153816666Y-127016667D01*
X153850000Y-126883333D01*
X153883333Y-126816667D01*
X153950000Y-126750000D01*
X154050000Y-126716667D01*
X154116666Y-126716667D01*
X154216666Y-126750000D01*
X154250000Y-126783333D01*
X154483333Y-126716667D02*
X154916666Y-126716667D01*
X154683333Y-126983333D01*
X154783333Y-126983333D01*
X154850000Y-127016667D01*
X154883333Y-127050000D01*
X154916666Y-127116667D01*
X154916666Y-127283333D01*
X154883333Y-127350000D01*
X154850000Y-127383333D01*
X154783333Y-127416667D01*
X154583333Y-127416667D01*
X154516666Y-127383333D01*
X154483333Y-127350000D01*
X155350000Y-126716667D02*
X155416667Y-126716667D01*
X155483333Y-126750000D01*
X155516667Y-126783333D01*
X155550000Y-126850000D01*
X155583333Y-126983333D01*
X155583333Y-127150000D01*
X155550000Y-127283333D01*
X155516667Y-127350000D01*
X155483333Y-127383333D01*
X155416667Y-127416667D01*
X155350000Y-127416667D01*
X155283333Y-127383333D01*
X155250000Y-127350000D01*
X155216667Y-127283333D01*
X155183333Y-127150000D01*
X155183333Y-126983333D01*
X155216667Y-126850000D01*
X155250000Y-126783333D01*
X155283333Y-126750000D01*
X155350000Y-126716667D01*
D11*
X150089048Y-128481429D02*
X150850953Y-128481429D01*
X150470001Y-128862381D02*
X150470001Y-128100476D01*
D10*
X177450000Y-93200000D02*
X177416666Y-93233333D01*
X177316666Y-93266667D01*
X177250000Y-93266667D01*
X177150000Y-93233333D01*
X177083333Y-93166667D01*
X177050000Y-93100000D01*
X177016666Y-92966667D01*
X177016666Y-92866667D01*
X177050000Y-92733333D01*
X177083333Y-92666667D01*
X177150000Y-92600000D01*
X177250000Y-92566667D01*
X177316666Y-92566667D01*
X177416666Y-92600000D01*
X177450000Y-92633333D01*
X177683333Y-92566667D02*
X178116666Y-92566667D01*
X177883333Y-92833333D01*
X177983333Y-92833333D01*
X178050000Y-92866667D01*
X178083333Y-92900000D01*
X178116666Y-92966667D01*
X178116666Y-93133333D01*
X178083333Y-93200000D01*
X178050000Y-93233333D01*
X177983333Y-93266667D01*
X177783333Y-93266667D01*
X177716666Y-93233333D01*
X177683333Y-93200000D01*
X178783333Y-93266667D02*
X178383333Y-93266667D01*
X178583333Y-93266667D02*
X178583333Y-92566667D01*
X178516667Y-92666667D01*
X178450000Y-92733333D01*
X178383333Y-92766667D01*
X159350000Y-103150000D02*
X159316666Y-103183333D01*
X159216666Y-103216667D01*
X159150000Y-103216667D01*
X159050000Y-103183333D01*
X158983333Y-103116667D01*
X158950000Y-103050000D01*
X158916666Y-102916667D01*
X158916666Y-102816667D01*
X158950000Y-102683333D01*
X158983333Y-102616667D01*
X159050000Y-102550000D01*
X159150000Y-102516667D01*
X159216666Y-102516667D01*
X159316666Y-102550000D01*
X159350000Y-102583333D01*
X159583333Y-102516667D02*
X160016666Y-102516667D01*
X159783333Y-102783333D01*
X159883333Y-102783333D01*
X159950000Y-102816667D01*
X159983333Y-102850000D01*
X160016666Y-102916667D01*
X160016666Y-103083333D01*
X159983333Y-103150000D01*
X159950000Y-103183333D01*
X159883333Y-103216667D01*
X159683333Y-103216667D01*
X159616666Y-103183333D01*
X159583333Y-103150000D01*
X160283333Y-102583333D02*
X160316667Y-102550000D01*
X160383333Y-102516667D01*
X160550000Y-102516667D01*
X160616667Y-102550000D01*
X160650000Y-102583333D01*
X160683333Y-102650000D01*
X160683333Y-102716667D01*
X160650000Y-102816667D01*
X160250000Y-103216667D01*
X160683333Y-103216667D01*
X130916667Y-84516666D02*
X130216667Y-84516666D01*
X130216667Y-84350000D01*
X130250000Y-84250000D01*
X130316667Y-84183333D01*
X130383333Y-84150000D01*
X130516667Y-84116666D01*
X130616667Y-84116666D01*
X130750000Y-84150000D01*
X130816667Y-84183333D01*
X130883333Y-84250000D01*
X130916667Y-84350000D01*
X130916667Y-84516666D01*
X130283333Y-83850000D02*
X130250000Y-83816666D01*
X130216667Y-83750000D01*
X130216667Y-83583333D01*
X130250000Y-83516666D01*
X130283333Y-83483333D01*
X130350000Y-83450000D01*
X130416667Y-83450000D01*
X130516667Y-83483333D01*
X130916667Y-83883333D01*
X130916667Y-83450000D01*
X159816667Y-82383333D02*
X159116667Y-82383333D01*
X159750000Y-81650000D02*
X159783333Y-81683334D01*
X159816667Y-81783334D01*
X159816667Y-81850000D01*
X159783333Y-81950000D01*
X159716667Y-82016667D01*
X159650000Y-82050000D01*
X159516667Y-82083334D01*
X159416667Y-82083334D01*
X159283333Y-82050000D01*
X159216667Y-82016667D01*
X159150000Y-81950000D01*
X159116667Y-81850000D01*
X159116667Y-81783334D01*
X159150000Y-81683334D01*
X159183333Y-81650000D01*
X159816667Y-80983334D02*
X159816667Y-81383334D01*
X159816667Y-81183334D02*
X159116667Y-81183334D01*
X159216667Y-81250000D01*
X159283333Y-81316667D01*
X159316667Y-81383334D01*
X196916667Y-79733333D02*
X197416667Y-79733333D01*
X197516667Y-79766667D01*
X197583333Y-79833333D01*
X197616667Y-79933333D01*
X197616667Y-80000000D01*
X197616667Y-79033334D02*
X197616667Y-79433334D01*
X197616667Y-79233334D02*
X196916667Y-79233334D01*
X197016667Y-79300000D01*
X197083333Y-79366667D01*
X197116667Y-79433334D01*
X163826667Y-100893333D02*
X164326667Y-100893333D01*
X164426667Y-100926667D01*
X164493333Y-100993333D01*
X164526667Y-101093333D01*
X164526667Y-101160000D01*
X164526667Y-100560000D02*
X163826667Y-100560000D01*
X163826667Y-100293334D01*
X163860000Y-100226667D01*
X163893333Y-100193334D01*
X163960000Y-100160000D01*
X164060000Y-100160000D01*
X164126667Y-100193334D01*
X164160000Y-100226667D01*
X164193333Y-100293334D01*
X164193333Y-100560000D01*
X164526667Y-99493334D02*
X164526667Y-99893334D01*
X164526667Y-99693334D02*
X163826667Y-99693334D01*
X163926667Y-99760000D01*
X163993333Y-99826667D01*
X164026667Y-99893334D01*
X166140952Y-101156666D02*
X166426667Y-101156666D01*
X166483810Y-101175714D01*
X166521905Y-101213809D01*
X166540952Y-101270952D01*
X166540952Y-101309047D01*
X166274286Y-100794761D02*
X166540952Y-100794761D01*
X166274286Y-100966190D02*
X166483810Y-100966190D01*
X166521905Y-100947142D01*
X166540952Y-100909047D01*
X166540952Y-100851904D01*
X166521905Y-100813809D01*
X166502857Y-100794761D01*
X166540952Y-100604285D02*
X166274286Y-100604285D01*
X166312381Y-100604285D02*
X166293333Y-100585237D01*
X166274286Y-100547142D01*
X166274286Y-100489999D01*
X166293333Y-100451904D01*
X166331429Y-100432856D01*
X166540952Y-100432856D01*
X166331429Y-100432856D02*
X166293333Y-100413809D01*
X166274286Y-100375713D01*
X166274286Y-100318571D01*
X166293333Y-100280475D01*
X166331429Y-100261428D01*
X166540952Y-100261428D01*
X166274286Y-100070952D02*
X166674286Y-100070952D01*
X166293333Y-100070952D02*
X166274286Y-100032857D01*
X166274286Y-99956666D01*
X166293333Y-99918571D01*
X166312381Y-99899523D01*
X166350476Y-99880476D01*
X166464762Y-99880476D01*
X166502857Y-99899523D01*
X166521905Y-99918571D01*
X166540952Y-99956666D01*
X166540952Y-100032857D01*
X166521905Y-100070952D01*
X166521905Y-99556666D02*
X166540952Y-99594761D01*
X166540952Y-99670952D01*
X166521905Y-99709047D01*
X166483810Y-99728095D01*
X166331429Y-99728095D01*
X166293333Y-99709047D01*
X166274286Y-99670952D01*
X166274286Y-99594761D01*
X166293333Y-99556666D01*
X166331429Y-99537618D01*
X166369524Y-99537618D01*
X166407619Y-99728095D01*
X166540952Y-99366190D02*
X166274286Y-99366190D01*
X166350476Y-99366190D02*
X166312381Y-99347142D01*
X166293333Y-99328095D01*
X166274286Y-99289999D01*
X166274286Y-99251904D01*
X171583333Y-74416667D02*
X171250000Y-74416667D01*
X171250000Y-73716667D01*
X171783333Y-73783333D02*
X171816667Y-73750000D01*
X171883333Y-73716667D01*
X172050000Y-73716667D01*
X172116667Y-73750000D01*
X172150000Y-73783333D01*
X172183333Y-73850000D01*
X172183333Y-73916667D01*
X172150000Y-74016667D01*
X171750000Y-74416667D01*
X172183333Y-74416667D01*
X138516667Y-89616667D02*
X138516667Y-89950000D01*
X137816667Y-89950000D01*
X137816667Y-89450000D02*
X137816667Y-89016667D01*
X138083333Y-89250000D01*
X138083333Y-89150000D01*
X138116667Y-89083333D01*
X138150000Y-89050000D01*
X138216667Y-89016667D01*
X138383333Y-89016667D01*
X138450000Y-89050000D01*
X138483333Y-89083333D01*
X138516667Y-89150000D01*
X138516667Y-89350000D01*
X138483333Y-89416667D01*
X138450000Y-89450000D01*
X173483334Y-129396667D02*
X173483334Y-128696667D01*
X173750000Y-128696667D01*
X173816667Y-128730000D01*
X173850000Y-128763333D01*
X173883334Y-128830000D01*
X173883334Y-128930000D01*
X173850000Y-128996667D01*
X173816667Y-129030000D01*
X173750000Y-129063333D01*
X173483334Y-129063333D01*
X174550000Y-129396667D02*
X174150000Y-129396667D01*
X174350000Y-129396667D02*
X174350000Y-128696667D01*
X174283334Y-128796667D01*
X174216667Y-128863333D01*
X174150000Y-128896667D01*
X145446667Y-81016666D02*
X144746667Y-81016666D01*
X144746667Y-80750000D01*
X144780000Y-80683333D01*
X144813333Y-80650000D01*
X144880000Y-80616666D01*
X144980000Y-80616666D01*
X145046667Y-80650000D01*
X145080000Y-80683333D01*
X145113333Y-80750000D01*
X145113333Y-81016666D01*
X144813333Y-80350000D02*
X144780000Y-80316666D01*
X144746667Y-80250000D01*
X144746667Y-80083333D01*
X144780000Y-80016666D01*
X144813333Y-79983333D01*
X144880000Y-79950000D01*
X144946667Y-79950000D01*
X145046667Y-79983333D01*
X145446667Y-80383333D01*
X145446667Y-79950000D01*
X108083334Y-100286667D02*
X108083334Y-99586667D01*
X108350000Y-99586667D01*
X108416667Y-99620000D01*
X108450000Y-99653333D01*
X108483334Y-99720000D01*
X108483334Y-99820000D01*
X108450000Y-99886667D01*
X108416667Y-99920000D01*
X108350000Y-99953333D01*
X108083334Y-99953333D01*
X108716667Y-99586667D02*
X109150000Y-99586667D01*
X108916667Y-99853333D01*
X109016667Y-99853333D01*
X109083334Y-99886667D01*
X109116667Y-99920000D01*
X109150000Y-99986667D01*
X109150000Y-100153333D01*
X109116667Y-100220000D01*
X109083334Y-100253333D01*
X109016667Y-100286667D01*
X108816667Y-100286667D01*
X108750000Y-100253333D01*
X108716667Y-100220000D01*
X108083334Y-89116667D02*
X108083334Y-88416667D01*
X108350000Y-88416667D01*
X108416667Y-88450000D01*
X108450000Y-88483333D01*
X108483334Y-88550000D01*
X108483334Y-88650000D01*
X108450000Y-88716667D01*
X108416667Y-88750000D01*
X108350000Y-88783333D01*
X108083334Y-88783333D01*
X109083334Y-88650000D02*
X109083334Y-89116667D01*
X108916667Y-88383333D02*
X108750000Y-88883333D01*
X109183334Y-88883333D01*
X133186667Y-76116666D02*
X132486667Y-76116666D01*
X132486667Y-75850000D01*
X132520000Y-75783333D01*
X132553333Y-75750000D01*
X132620000Y-75716666D01*
X132720000Y-75716666D01*
X132786667Y-75750000D01*
X132820000Y-75783333D01*
X132853333Y-75850000D01*
X132853333Y-76116666D01*
X132486667Y-75083333D02*
X132486667Y-75416666D01*
X132820000Y-75450000D01*
X132786667Y-75416666D01*
X132753333Y-75350000D01*
X132753333Y-75183333D01*
X132786667Y-75116666D01*
X132820000Y-75083333D01*
X132886667Y-75050000D01*
X133053333Y-75050000D01*
X133120000Y-75083333D01*
X133153333Y-75116666D01*
X133186667Y-75183333D01*
X133186667Y-75350000D01*
X133153333Y-75416666D01*
X133120000Y-75450000D01*
X179083334Y-127646667D02*
X179083334Y-126946667D01*
X179350000Y-126946667D01*
X179416667Y-126980000D01*
X179450000Y-127013333D01*
X179483334Y-127080000D01*
X179483334Y-127180000D01*
X179450000Y-127246667D01*
X179416667Y-127280000D01*
X179350000Y-127313333D01*
X179083334Y-127313333D01*
X180083334Y-126946667D02*
X179950000Y-126946667D01*
X179883334Y-126980000D01*
X179850000Y-127013333D01*
X179783334Y-127113333D01*
X179750000Y-127246667D01*
X179750000Y-127513333D01*
X179783334Y-127580000D01*
X179816667Y-127613333D01*
X179883334Y-127646667D01*
X180016667Y-127646667D01*
X180083334Y-127613333D01*
X180116667Y-127580000D01*
X180150000Y-127513333D01*
X180150000Y-127346667D01*
X180116667Y-127280000D01*
X180083334Y-127246667D01*
X180016667Y-127213333D01*
X179883334Y-127213333D01*
X179816667Y-127246667D01*
X179783334Y-127280000D01*
X179750000Y-127346667D01*
X120206667Y-71396666D02*
X119506667Y-71396666D01*
X119506667Y-71130000D01*
X119540000Y-71063333D01*
X119573333Y-71030000D01*
X119640000Y-70996666D01*
X119740000Y-70996666D01*
X119806667Y-71030000D01*
X119840000Y-71063333D01*
X119873333Y-71130000D01*
X119873333Y-71396666D01*
X119506667Y-70763333D02*
X119506667Y-70296666D01*
X120206667Y-70596666D01*
X147516667Y-71316666D02*
X146816667Y-71316666D01*
X146816667Y-71050000D01*
X146850000Y-70983333D01*
X146883333Y-70950000D01*
X146950000Y-70916666D01*
X147050000Y-70916666D01*
X147116667Y-70950000D01*
X147150000Y-70983333D01*
X147183333Y-71050000D01*
X147183333Y-71316666D01*
X147116667Y-70516666D02*
X147083333Y-70583333D01*
X147050000Y-70616666D01*
X146983333Y-70650000D01*
X146950000Y-70650000D01*
X146883333Y-70616666D01*
X146850000Y-70583333D01*
X146816667Y-70516666D01*
X146816667Y-70383333D01*
X146850000Y-70316666D01*
X146883333Y-70283333D01*
X146950000Y-70250000D01*
X146983333Y-70250000D01*
X147050000Y-70283333D01*
X147083333Y-70316666D01*
X147116667Y-70383333D01*
X147116667Y-70516666D01*
X147150000Y-70583333D01*
X147183333Y-70616666D01*
X147250000Y-70650000D01*
X147383333Y-70650000D01*
X147450000Y-70616666D01*
X147483333Y-70583333D01*
X147516667Y-70516666D01*
X147516667Y-70383333D01*
X147483333Y-70316666D01*
X147450000Y-70283333D01*
X147383333Y-70250000D01*
X147250000Y-70250000D01*
X147183333Y-70283333D01*
X147150000Y-70316666D01*
X147116667Y-70383333D01*
X169946667Y-71356666D02*
X169246667Y-71356666D01*
X169246667Y-71090000D01*
X169280000Y-71023333D01*
X169313333Y-70990000D01*
X169380000Y-70956666D01*
X169480000Y-70956666D01*
X169546667Y-70990000D01*
X169580000Y-71023333D01*
X169613333Y-71090000D01*
X169613333Y-71356666D01*
X169946667Y-70623333D02*
X169946667Y-70490000D01*
X169913333Y-70423333D01*
X169880000Y-70390000D01*
X169780000Y-70323333D01*
X169646667Y-70290000D01*
X169380000Y-70290000D01*
X169313333Y-70323333D01*
X169280000Y-70356666D01*
X169246667Y-70423333D01*
X169246667Y-70556666D01*
X169280000Y-70623333D01*
X169313333Y-70656666D01*
X169380000Y-70690000D01*
X169546667Y-70690000D01*
X169613333Y-70656666D01*
X169646667Y-70623333D01*
X169680000Y-70556666D01*
X169680000Y-70423333D01*
X169646667Y-70356666D01*
X169613333Y-70323333D01*
X169546667Y-70290000D01*
X129286667Y-119980000D02*
X128586667Y-119980000D01*
X128586667Y-119713334D01*
X128620000Y-119646667D01*
X128653333Y-119613334D01*
X128720000Y-119580000D01*
X128820000Y-119580000D01*
X128886667Y-119613334D01*
X128920000Y-119646667D01*
X128953333Y-119713334D01*
X128953333Y-119980000D01*
X129286667Y-118913334D02*
X129286667Y-119313334D01*
X129286667Y-119113334D02*
X128586667Y-119113334D01*
X128686667Y-119180000D01*
X128753333Y-119246667D01*
X128786667Y-119313334D01*
X128586667Y-118480000D02*
X128586667Y-118413333D01*
X128620000Y-118346667D01*
X128653333Y-118313333D01*
X128720000Y-118280000D01*
X128853333Y-118246667D01*
X129020000Y-118246667D01*
X129153333Y-118280000D01*
X129220000Y-118313333D01*
X129253333Y-118346667D01*
X129286667Y-118413333D01*
X129286667Y-118480000D01*
X129253333Y-118546667D01*
X129220000Y-118580000D01*
X129153333Y-118613333D01*
X129020000Y-118646667D01*
X128853333Y-118646667D01*
X128720000Y-118613333D01*
X128653333Y-118580000D01*
X128620000Y-118546667D01*
X128586667Y-118480000D01*
X152156667Y-120000000D02*
X151456667Y-120000000D01*
X151456667Y-119733334D01*
X151490000Y-119666667D01*
X151523333Y-119633334D01*
X151590000Y-119600000D01*
X151690000Y-119600000D01*
X151756667Y-119633334D01*
X151790000Y-119666667D01*
X151823333Y-119733334D01*
X151823333Y-120000000D01*
X152156667Y-118933334D02*
X152156667Y-119333334D01*
X152156667Y-119133334D02*
X151456667Y-119133334D01*
X151556667Y-119200000D01*
X151623333Y-119266667D01*
X151656667Y-119333334D01*
X152156667Y-118266667D02*
X152156667Y-118666667D01*
X152156667Y-118466667D02*
X151456667Y-118466667D01*
X151556667Y-118533333D01*
X151623333Y-118600000D01*
X151656667Y-118666667D01*
X167450000Y-98516667D02*
X167450000Y-97816667D01*
X167716666Y-97816667D01*
X167783333Y-97850000D01*
X167816666Y-97883333D01*
X167850000Y-97950000D01*
X167850000Y-98050000D01*
X167816666Y-98116667D01*
X167783333Y-98150000D01*
X167716666Y-98183333D01*
X167450000Y-98183333D01*
X168516666Y-98516667D02*
X168116666Y-98516667D01*
X168316666Y-98516667D02*
X168316666Y-97816667D01*
X168250000Y-97916667D01*
X168183333Y-97983333D01*
X168116666Y-98016667D01*
X168783333Y-97883333D02*
X168816667Y-97850000D01*
X168883333Y-97816667D01*
X169050000Y-97816667D01*
X169116667Y-97850000D01*
X169150000Y-97883333D01*
X169183333Y-97950000D01*
X169183333Y-98016667D01*
X169150000Y-98116667D01*
X168750000Y-98516667D01*
X169183333Y-98516667D01*
X140246667Y-106450000D02*
X139546667Y-106450000D01*
X139546667Y-106183334D01*
X139580000Y-106116667D01*
X139613333Y-106083334D01*
X139680000Y-106050000D01*
X139780000Y-106050000D01*
X139846667Y-106083334D01*
X139880000Y-106116667D01*
X139913333Y-106183334D01*
X139913333Y-106450000D01*
X140246667Y-105383334D02*
X140246667Y-105783334D01*
X140246667Y-105583334D02*
X139546667Y-105583334D01*
X139646667Y-105650000D01*
X139713333Y-105716667D01*
X139746667Y-105783334D01*
X139546667Y-105150000D02*
X139546667Y-104716667D01*
X139813333Y-104950000D01*
X139813333Y-104850000D01*
X139846667Y-104783333D01*
X139880000Y-104750000D01*
X139946667Y-104716667D01*
X140113333Y-104716667D01*
X140180000Y-104750000D01*
X140213333Y-104783333D01*
X140246667Y-104850000D01*
X140246667Y-105050000D01*
X140213333Y-105116667D01*
X140180000Y-105150000D01*
X140246667Y-110950000D02*
X139546667Y-110950000D01*
X139546667Y-110683334D01*
X139580000Y-110616667D01*
X139613333Y-110583334D01*
X139680000Y-110550000D01*
X139780000Y-110550000D01*
X139846667Y-110583334D01*
X139880000Y-110616667D01*
X139913333Y-110683334D01*
X139913333Y-110950000D01*
X140246667Y-109883334D02*
X140246667Y-110283334D01*
X140246667Y-110083334D02*
X139546667Y-110083334D01*
X139646667Y-110150000D01*
X139713333Y-110216667D01*
X139746667Y-110283334D01*
X139780000Y-109283333D02*
X140246667Y-109283333D01*
X139513333Y-109450000D02*
X140013333Y-109616667D01*
X140013333Y-109183333D01*
X140246667Y-115550000D02*
X139546667Y-115550000D01*
X139546667Y-115283334D01*
X139580000Y-115216667D01*
X139613333Y-115183334D01*
X139680000Y-115150000D01*
X139780000Y-115150000D01*
X139846667Y-115183334D01*
X139880000Y-115216667D01*
X139913333Y-115283334D01*
X139913333Y-115550000D01*
X140246667Y-114483334D02*
X140246667Y-114883334D01*
X140246667Y-114683334D02*
X139546667Y-114683334D01*
X139646667Y-114750000D01*
X139713333Y-114816667D01*
X139746667Y-114883334D01*
X139546667Y-113850000D02*
X139546667Y-114183333D01*
X139880000Y-114216667D01*
X139846667Y-114183333D01*
X139813333Y-114116667D01*
X139813333Y-113950000D01*
X139846667Y-113883333D01*
X139880000Y-113850000D01*
X139946667Y-113816667D01*
X140113333Y-113816667D01*
X140180000Y-113850000D01*
X140213333Y-113883333D01*
X140246667Y-113950000D01*
X140246667Y-114116667D01*
X140213333Y-114183333D01*
X140180000Y-114216667D01*
X132150000Y-120986667D02*
X132150000Y-120286667D01*
X132416666Y-120286667D01*
X132483333Y-120320000D01*
X132516666Y-120353333D01*
X132550000Y-120420000D01*
X132550000Y-120520000D01*
X132516666Y-120586667D01*
X132483333Y-120620000D01*
X132416666Y-120653333D01*
X132150000Y-120653333D01*
X133216666Y-120986667D02*
X132816666Y-120986667D01*
X133016666Y-120986667D02*
X133016666Y-120286667D01*
X132950000Y-120386667D01*
X132883333Y-120453333D01*
X132816666Y-120486667D01*
X133816667Y-120286667D02*
X133683333Y-120286667D01*
X133616667Y-120320000D01*
X133583333Y-120353333D01*
X133516667Y-120453333D01*
X133483333Y-120586667D01*
X133483333Y-120853333D01*
X133516667Y-120920000D01*
X133550000Y-120953333D01*
X133616667Y-120986667D01*
X133750000Y-120986667D01*
X133816667Y-120953333D01*
X133850000Y-120920000D01*
X133883333Y-120853333D01*
X133883333Y-120686667D01*
X133850000Y-120620000D01*
X133816667Y-120586667D01*
X133750000Y-120553333D01*
X133616667Y-120553333D01*
X133550000Y-120586667D01*
X133516667Y-120620000D01*
X133483333Y-120686667D01*
X137900000Y-120986667D02*
X137900000Y-120286667D01*
X138166666Y-120286667D01*
X138233333Y-120320000D01*
X138266666Y-120353333D01*
X138300000Y-120420000D01*
X138300000Y-120520000D01*
X138266666Y-120586667D01*
X138233333Y-120620000D01*
X138166666Y-120653333D01*
X137900000Y-120653333D01*
X138966666Y-120986667D02*
X138566666Y-120986667D01*
X138766666Y-120986667D02*
X138766666Y-120286667D01*
X138700000Y-120386667D01*
X138633333Y-120453333D01*
X138566666Y-120486667D01*
X139200000Y-120286667D02*
X139666667Y-120286667D01*
X139366667Y-120986667D01*
X143650000Y-120986667D02*
X143650000Y-120286667D01*
X143916666Y-120286667D01*
X143983333Y-120320000D01*
X144016666Y-120353333D01*
X144050000Y-120420000D01*
X144050000Y-120520000D01*
X144016666Y-120586667D01*
X143983333Y-120620000D01*
X143916666Y-120653333D01*
X143650000Y-120653333D01*
X144716666Y-120986667D02*
X144316666Y-120986667D01*
X144516666Y-120986667D02*
X144516666Y-120286667D01*
X144450000Y-120386667D01*
X144383333Y-120453333D01*
X144316666Y-120486667D01*
X145116667Y-120586667D02*
X145050000Y-120553333D01*
X145016667Y-120520000D01*
X144983333Y-120453333D01*
X144983333Y-120420000D01*
X145016667Y-120353333D01*
X145050000Y-120320000D01*
X145116667Y-120286667D01*
X145250000Y-120286667D01*
X145316667Y-120320000D01*
X145350000Y-120353333D01*
X145383333Y-120420000D01*
X145383333Y-120453333D01*
X145350000Y-120520000D01*
X145316667Y-120553333D01*
X145250000Y-120586667D01*
X145116667Y-120586667D01*
X145050000Y-120620000D01*
X145016667Y-120653333D01*
X144983333Y-120720000D01*
X144983333Y-120853333D01*
X145016667Y-120920000D01*
X145050000Y-120953333D01*
X145116667Y-120986667D01*
X145250000Y-120986667D01*
X145316667Y-120953333D01*
X145350000Y-120920000D01*
X145383333Y-120853333D01*
X145383333Y-120720000D01*
X145350000Y-120653333D01*
X145316667Y-120620000D01*
X145250000Y-120586667D01*
X136650000Y-97916667D02*
X136650000Y-97216667D01*
X136916666Y-97216667D01*
X136983333Y-97250000D01*
X137016666Y-97283333D01*
X137050000Y-97350000D01*
X137050000Y-97450000D01*
X137016666Y-97516667D01*
X136983333Y-97550000D01*
X136916666Y-97583333D01*
X136650000Y-97583333D01*
X137716666Y-97916667D02*
X137316666Y-97916667D01*
X137516666Y-97916667D02*
X137516666Y-97216667D01*
X137450000Y-97316667D01*
X137383333Y-97383333D01*
X137316666Y-97416667D01*
X138050000Y-97916667D02*
X138183333Y-97916667D01*
X138250000Y-97883333D01*
X138283333Y-97850000D01*
X138350000Y-97750000D01*
X138383333Y-97616667D01*
X138383333Y-97350000D01*
X138350000Y-97283333D01*
X138316667Y-97250000D01*
X138250000Y-97216667D01*
X138116667Y-97216667D01*
X138050000Y-97250000D01*
X138016667Y-97283333D01*
X137983333Y-97350000D01*
X137983333Y-97516667D01*
X138016667Y-97583333D01*
X138050000Y-97616667D01*
X138116667Y-97650000D01*
X138250000Y-97650000D01*
X138316667Y-97616667D01*
X138350000Y-97583333D01*
X138383333Y-97516667D01*
X167683334Y-79116667D02*
X167450000Y-78783333D01*
X167283334Y-79116667D02*
X167283334Y-78416667D01*
X167550000Y-78416667D01*
X167616667Y-78450000D01*
X167650000Y-78483333D01*
X167683334Y-78550000D01*
X167683334Y-78650000D01*
X167650000Y-78716667D01*
X167616667Y-78750000D01*
X167550000Y-78783333D01*
X167283334Y-78783333D01*
X167916667Y-78416667D02*
X168383334Y-78416667D01*
X168083334Y-79116667D01*
X168616667Y-83616666D02*
X168283333Y-83850000D01*
X168616667Y-84016666D02*
X167916667Y-84016666D01*
X167916667Y-83750000D01*
X167950000Y-83683333D01*
X167983333Y-83650000D01*
X168050000Y-83616666D01*
X168150000Y-83616666D01*
X168216667Y-83650000D01*
X168250000Y-83683333D01*
X168283333Y-83750000D01*
X168283333Y-84016666D01*
X168216667Y-83216666D02*
X168183333Y-83283333D01*
X168150000Y-83316666D01*
X168083333Y-83350000D01*
X168050000Y-83350000D01*
X167983333Y-83316666D01*
X167950000Y-83283333D01*
X167916667Y-83216666D01*
X167916667Y-83083333D01*
X167950000Y-83016666D01*
X167983333Y-82983333D01*
X168050000Y-82950000D01*
X168083333Y-82950000D01*
X168150000Y-82983333D01*
X168183333Y-83016666D01*
X168216667Y-83083333D01*
X168216667Y-83216666D01*
X168250000Y-83283333D01*
X168283333Y-83316666D01*
X168350000Y-83350000D01*
X168483333Y-83350000D01*
X168550000Y-83316666D01*
X168583333Y-83283333D01*
X168616667Y-83216666D01*
X168616667Y-83083333D01*
X168583333Y-83016666D01*
X168550000Y-82983333D01*
X168483333Y-82950000D01*
X168350000Y-82950000D01*
X168283333Y-82983333D01*
X168250000Y-83016666D01*
X168216667Y-83083333D01*
X172383334Y-85916667D02*
X172150000Y-85583333D01*
X171983334Y-85916667D02*
X171983334Y-85216667D01*
X172250000Y-85216667D01*
X172316667Y-85250000D01*
X172350000Y-85283333D01*
X172383334Y-85350000D01*
X172383334Y-85450000D01*
X172350000Y-85516667D01*
X172316667Y-85550000D01*
X172250000Y-85583333D01*
X171983334Y-85583333D01*
X172716667Y-85916667D02*
X172850000Y-85916667D01*
X172916667Y-85883333D01*
X172950000Y-85850000D01*
X173016667Y-85750000D01*
X173050000Y-85616667D01*
X173050000Y-85350000D01*
X173016667Y-85283333D01*
X172983334Y-85250000D01*
X172916667Y-85216667D01*
X172783334Y-85216667D01*
X172716667Y-85250000D01*
X172683334Y-85283333D01*
X172650000Y-85350000D01*
X172650000Y-85516667D01*
X172683334Y-85583333D01*
X172716667Y-85616667D01*
X172783334Y-85650000D01*
X172916667Y-85650000D01*
X172983334Y-85616667D01*
X173016667Y-85583333D01*
X173050000Y-85516667D01*
X170350000Y-81116667D02*
X170116666Y-80783333D01*
X169950000Y-81116667D02*
X169950000Y-80416667D01*
X170216666Y-80416667D01*
X170283333Y-80450000D01*
X170316666Y-80483333D01*
X170350000Y-80550000D01*
X170350000Y-80650000D01*
X170316666Y-80716667D01*
X170283333Y-80750000D01*
X170216666Y-80783333D01*
X169950000Y-80783333D01*
X171016666Y-81116667D02*
X170616666Y-81116667D01*
X170816666Y-81116667D02*
X170816666Y-80416667D01*
X170750000Y-80516667D01*
X170683333Y-80583333D01*
X170616666Y-80616667D01*
X171450000Y-80416667D02*
X171516667Y-80416667D01*
X171583333Y-80450000D01*
X171616667Y-80483333D01*
X171650000Y-80550000D01*
X171683333Y-80683333D01*
X171683333Y-80850000D01*
X171650000Y-80983333D01*
X171616667Y-81050000D01*
X171583333Y-81083333D01*
X171516667Y-81116667D01*
X171450000Y-81116667D01*
X171383333Y-81083333D01*
X171350000Y-81050000D01*
X171316667Y-80983333D01*
X171283333Y-80850000D01*
X171283333Y-80683333D01*
X171316667Y-80550000D01*
X171350000Y-80483333D01*
X171383333Y-80450000D01*
X171450000Y-80416667D01*
X165950000Y-73116667D02*
X165716666Y-72783333D01*
X165550000Y-73116667D02*
X165550000Y-72416667D01*
X165816666Y-72416667D01*
X165883333Y-72450000D01*
X165916666Y-72483333D01*
X165950000Y-72550000D01*
X165950000Y-72650000D01*
X165916666Y-72716667D01*
X165883333Y-72750000D01*
X165816666Y-72783333D01*
X165550000Y-72783333D01*
X166616666Y-73116667D02*
X166216666Y-73116667D01*
X166416666Y-73116667D02*
X166416666Y-72416667D01*
X166350000Y-72516667D01*
X166283333Y-72583333D01*
X166216666Y-72616667D01*
X167283333Y-73116667D02*
X166883333Y-73116667D01*
X167083333Y-73116667D02*
X167083333Y-72416667D01*
X167016667Y-72516667D01*
X166950000Y-72583333D01*
X166883333Y-72616667D01*
X165950000Y-76616667D02*
X165716666Y-76283333D01*
X165550000Y-76616667D02*
X165550000Y-75916667D01*
X165816666Y-75916667D01*
X165883333Y-75950000D01*
X165916666Y-75983333D01*
X165950000Y-76050000D01*
X165950000Y-76150000D01*
X165916666Y-76216667D01*
X165883333Y-76250000D01*
X165816666Y-76283333D01*
X165550000Y-76283333D01*
X166616666Y-76616667D02*
X166216666Y-76616667D01*
X166416666Y-76616667D02*
X166416666Y-75916667D01*
X166350000Y-76016667D01*
X166283333Y-76083333D01*
X166216666Y-76116667D01*
X166883333Y-75983333D02*
X166916667Y-75950000D01*
X166983333Y-75916667D01*
X167150000Y-75916667D01*
X167216667Y-75950000D01*
X167250000Y-75983333D01*
X167283333Y-76050000D01*
X167283333Y-76116667D01*
X167250000Y-76216667D01*
X166850000Y-76616667D01*
X167283333Y-76616667D01*
X193050000Y-93516667D02*
X192816666Y-93183333D01*
X192650000Y-93516667D02*
X192650000Y-92816667D01*
X192916666Y-92816667D01*
X192983333Y-92850000D01*
X193016666Y-92883333D01*
X193050000Y-92950000D01*
X193050000Y-93050000D01*
X193016666Y-93116667D01*
X192983333Y-93150000D01*
X192916666Y-93183333D01*
X192650000Y-93183333D01*
X193716666Y-93516667D02*
X193316666Y-93516667D01*
X193516666Y-93516667D02*
X193516666Y-92816667D01*
X193450000Y-92916667D01*
X193383333Y-92983333D01*
X193316666Y-93016667D01*
X193950000Y-92816667D02*
X194383333Y-92816667D01*
X194150000Y-93083333D01*
X194250000Y-93083333D01*
X194316667Y-93116667D01*
X194350000Y-93150000D01*
X194383333Y-93216667D01*
X194383333Y-93383333D01*
X194350000Y-93450000D01*
X194316667Y-93483333D01*
X194250000Y-93516667D01*
X194050000Y-93516667D01*
X193983333Y-93483333D01*
X193950000Y-93450000D01*
X198250000Y-89716667D02*
X198016666Y-89383333D01*
X197850000Y-89716667D02*
X197850000Y-89016667D01*
X198116666Y-89016667D01*
X198183333Y-89050000D01*
X198216666Y-89083333D01*
X198250000Y-89150000D01*
X198250000Y-89250000D01*
X198216666Y-89316667D01*
X198183333Y-89350000D01*
X198116666Y-89383333D01*
X197850000Y-89383333D01*
X198916666Y-89716667D02*
X198516666Y-89716667D01*
X198716666Y-89716667D02*
X198716666Y-89016667D01*
X198650000Y-89116667D01*
X198583333Y-89183333D01*
X198516666Y-89216667D01*
X199516667Y-89250000D02*
X199516667Y-89716667D01*
X199350000Y-88983333D02*
X199183333Y-89483333D01*
X199616667Y-89483333D01*
X146450000Y-85416667D02*
X146216666Y-85083333D01*
X146050000Y-85416667D02*
X146050000Y-84716667D01*
X146316666Y-84716667D01*
X146383333Y-84750000D01*
X146416666Y-84783333D01*
X146450000Y-84850000D01*
X146450000Y-84950000D01*
X146416666Y-85016667D01*
X146383333Y-85050000D01*
X146316666Y-85083333D01*
X146050000Y-85083333D01*
X147116666Y-85416667D02*
X146716666Y-85416667D01*
X146916666Y-85416667D02*
X146916666Y-84716667D01*
X146850000Y-84816667D01*
X146783333Y-84883333D01*
X146716666Y-84916667D01*
X147750000Y-84716667D02*
X147416667Y-84716667D01*
X147383333Y-85050000D01*
X147416667Y-85016667D01*
X147483333Y-84983333D01*
X147650000Y-84983333D01*
X147716667Y-85016667D01*
X147750000Y-85050000D01*
X147783333Y-85116667D01*
X147783333Y-85283333D01*
X147750000Y-85350000D01*
X147716667Y-85383333D01*
X147650000Y-85416667D01*
X147483333Y-85416667D01*
X147416667Y-85383333D01*
X147383333Y-85350000D01*
X148950000Y-85416667D02*
X148716666Y-85083333D01*
X148550000Y-85416667D02*
X148550000Y-84716667D01*
X148816666Y-84716667D01*
X148883333Y-84750000D01*
X148916666Y-84783333D01*
X148950000Y-84850000D01*
X148950000Y-84950000D01*
X148916666Y-85016667D01*
X148883333Y-85050000D01*
X148816666Y-85083333D01*
X148550000Y-85083333D01*
X149616666Y-85416667D02*
X149216666Y-85416667D01*
X149416666Y-85416667D02*
X149416666Y-84716667D01*
X149350000Y-84816667D01*
X149283333Y-84883333D01*
X149216666Y-84916667D01*
X150216667Y-84716667D02*
X150083333Y-84716667D01*
X150016667Y-84750000D01*
X149983333Y-84783333D01*
X149916667Y-84883333D01*
X149883333Y-85016667D01*
X149883333Y-85283333D01*
X149916667Y-85350000D01*
X149950000Y-85383333D01*
X150016667Y-85416667D01*
X150150000Y-85416667D01*
X150216667Y-85383333D01*
X150250000Y-85350000D01*
X150283333Y-85283333D01*
X150283333Y-85116667D01*
X150250000Y-85050000D01*
X150216667Y-85016667D01*
X150150000Y-84983333D01*
X150016667Y-84983333D01*
X149950000Y-85016667D01*
X149916667Y-85050000D01*
X149883333Y-85116667D01*
X170716667Y-102050000D02*
X170383333Y-102283334D01*
X170716667Y-102450000D02*
X170016667Y-102450000D01*
X170016667Y-102183334D01*
X170050000Y-102116667D01*
X170083333Y-102083334D01*
X170150000Y-102050000D01*
X170250000Y-102050000D01*
X170316667Y-102083334D01*
X170350000Y-102116667D01*
X170383333Y-102183334D01*
X170383333Y-102450000D01*
X170716667Y-101383334D02*
X170716667Y-101783334D01*
X170716667Y-101583334D02*
X170016667Y-101583334D01*
X170116667Y-101650000D01*
X170183333Y-101716667D01*
X170216667Y-101783334D01*
X170316667Y-100983333D02*
X170283333Y-101050000D01*
X170250000Y-101083333D01*
X170183333Y-101116667D01*
X170150000Y-101116667D01*
X170083333Y-101083333D01*
X170050000Y-101050000D01*
X170016667Y-100983333D01*
X170016667Y-100850000D01*
X170050000Y-100783333D01*
X170083333Y-100750000D01*
X170150000Y-100716667D01*
X170183333Y-100716667D01*
X170250000Y-100750000D01*
X170283333Y-100783333D01*
X170316667Y-100850000D01*
X170316667Y-100983333D01*
X170350000Y-101050000D01*
X170383333Y-101083333D01*
X170450000Y-101116667D01*
X170583333Y-101116667D01*
X170650000Y-101083333D01*
X170683333Y-101050000D01*
X170716667Y-100983333D01*
X170716667Y-100850000D01*
X170683333Y-100783333D01*
X170650000Y-100750000D01*
X170583333Y-100716667D01*
X170450000Y-100716667D01*
X170383333Y-100750000D01*
X170350000Y-100783333D01*
X170316667Y-100850000D01*
X171216667Y-106550000D02*
X170883333Y-106783334D01*
X171216667Y-106950000D02*
X170516667Y-106950000D01*
X170516667Y-106683334D01*
X170550000Y-106616667D01*
X170583333Y-106583334D01*
X170650000Y-106550000D01*
X170750000Y-106550000D01*
X170816667Y-106583334D01*
X170850000Y-106616667D01*
X170883333Y-106683334D01*
X170883333Y-106950000D01*
X171216667Y-105883334D02*
X171216667Y-106283334D01*
X171216667Y-106083334D02*
X170516667Y-106083334D01*
X170616667Y-106150000D01*
X170683333Y-106216667D01*
X170716667Y-106283334D01*
X171216667Y-105550000D02*
X171216667Y-105416667D01*
X171183333Y-105350000D01*
X171150000Y-105316667D01*
X171050000Y-105250000D01*
X170916667Y-105216667D01*
X170650000Y-105216667D01*
X170583333Y-105250000D01*
X170550000Y-105283333D01*
X170516667Y-105350000D01*
X170516667Y-105483333D01*
X170550000Y-105550000D01*
X170583333Y-105583333D01*
X170650000Y-105616667D01*
X170816667Y-105616667D01*
X170883333Y-105583333D01*
X170916667Y-105550000D01*
X170950000Y-105483333D01*
X170950000Y-105350000D01*
X170916667Y-105283333D01*
X170883333Y-105250000D01*
X170816667Y-105216667D01*
X171116667Y-109250000D02*
X170783333Y-109483334D01*
X171116667Y-109650000D02*
X170416667Y-109650000D01*
X170416667Y-109383334D01*
X170450000Y-109316667D01*
X170483333Y-109283334D01*
X170550000Y-109250000D01*
X170650000Y-109250000D01*
X170716667Y-109283334D01*
X170750000Y-109316667D01*
X170783333Y-109383334D01*
X170783333Y-109650000D01*
X170483333Y-108983334D02*
X170450000Y-108950000D01*
X170416667Y-108883334D01*
X170416667Y-108716667D01*
X170450000Y-108650000D01*
X170483333Y-108616667D01*
X170550000Y-108583334D01*
X170616667Y-108583334D01*
X170716667Y-108616667D01*
X171116667Y-109016667D01*
X171116667Y-108583334D01*
X170416667Y-108150000D02*
X170416667Y-108083333D01*
X170450000Y-108016667D01*
X170483333Y-107983333D01*
X170550000Y-107950000D01*
X170683333Y-107916667D01*
X170850000Y-107916667D01*
X170983333Y-107950000D01*
X171050000Y-107983333D01*
X171083333Y-108016667D01*
X171116667Y-108083333D01*
X171116667Y-108150000D01*
X171083333Y-108216667D01*
X171050000Y-108250000D01*
X170983333Y-108283333D01*
X170850000Y-108316667D01*
X170683333Y-108316667D01*
X170550000Y-108283333D01*
X170483333Y-108250000D01*
X170450000Y-108216667D01*
X170416667Y-108150000D01*
X175016667Y-104250000D02*
X174683333Y-104483334D01*
X175016667Y-104650000D02*
X174316667Y-104650000D01*
X174316667Y-104383334D01*
X174350000Y-104316667D01*
X174383333Y-104283334D01*
X174450000Y-104250000D01*
X174550000Y-104250000D01*
X174616667Y-104283334D01*
X174650000Y-104316667D01*
X174683333Y-104383334D01*
X174683333Y-104650000D01*
X174383333Y-103983334D02*
X174350000Y-103950000D01*
X174316667Y-103883334D01*
X174316667Y-103716667D01*
X174350000Y-103650000D01*
X174383333Y-103616667D01*
X174450000Y-103583334D01*
X174516667Y-103583334D01*
X174616667Y-103616667D01*
X175016667Y-104016667D01*
X175016667Y-103583334D01*
X175016667Y-102916667D02*
X175016667Y-103316667D01*
X175016667Y-103116667D02*
X174316667Y-103116667D01*
X174416667Y-103183333D01*
X174483333Y-103250000D01*
X174516667Y-103316667D01*
X172550000Y-113616667D02*
X172316666Y-113283333D01*
X172150000Y-113616667D02*
X172150000Y-112916667D01*
X172416666Y-112916667D01*
X172483333Y-112950000D01*
X172516666Y-112983333D01*
X172550000Y-113050000D01*
X172550000Y-113150000D01*
X172516666Y-113216667D01*
X172483333Y-113250000D01*
X172416666Y-113283333D01*
X172150000Y-113283333D01*
X172816666Y-112983333D02*
X172850000Y-112950000D01*
X172916666Y-112916667D01*
X173083333Y-112916667D01*
X173150000Y-112950000D01*
X173183333Y-112983333D01*
X173216666Y-113050000D01*
X173216666Y-113116667D01*
X173183333Y-113216667D01*
X172783333Y-113616667D01*
X173216666Y-113616667D01*
X173483333Y-112983333D02*
X173516667Y-112950000D01*
X173583333Y-112916667D01*
X173750000Y-112916667D01*
X173816667Y-112950000D01*
X173850000Y-112983333D01*
X173883333Y-113050000D01*
X173883333Y-113116667D01*
X173850000Y-113216667D01*
X173450000Y-113616667D01*
X173883333Y-113616667D01*
X172650000Y-92716667D02*
X172416666Y-92383333D01*
X172250000Y-92716667D02*
X172250000Y-92016667D01*
X172516666Y-92016667D01*
X172583333Y-92050000D01*
X172616666Y-92083333D01*
X172650000Y-92150000D01*
X172650000Y-92250000D01*
X172616666Y-92316667D01*
X172583333Y-92350000D01*
X172516666Y-92383333D01*
X172250000Y-92383333D01*
X172916666Y-92083333D02*
X172950000Y-92050000D01*
X173016666Y-92016667D01*
X173183333Y-92016667D01*
X173250000Y-92050000D01*
X173283333Y-92083333D01*
X173316666Y-92150000D01*
X173316666Y-92216667D01*
X173283333Y-92316667D01*
X172883333Y-92716667D01*
X173316666Y-92716667D01*
X173550000Y-92016667D02*
X173983333Y-92016667D01*
X173750000Y-92283333D01*
X173850000Y-92283333D01*
X173916667Y-92316667D01*
X173950000Y-92350000D01*
X173983333Y-92416667D01*
X173983333Y-92583333D01*
X173950000Y-92650000D01*
X173916667Y-92683333D01*
X173850000Y-92716667D01*
X173650000Y-92716667D01*
X173583333Y-92683333D01*
X173550000Y-92650000D01*
X193816667Y-105450000D02*
X193483333Y-105683334D01*
X193816667Y-105850000D02*
X193116667Y-105850000D01*
X193116667Y-105583334D01*
X193150000Y-105516667D01*
X193183333Y-105483334D01*
X193250000Y-105450000D01*
X193350000Y-105450000D01*
X193416667Y-105483334D01*
X193450000Y-105516667D01*
X193483333Y-105583334D01*
X193483333Y-105850000D01*
X193183333Y-105183334D02*
X193150000Y-105150000D01*
X193116667Y-105083334D01*
X193116667Y-104916667D01*
X193150000Y-104850000D01*
X193183333Y-104816667D01*
X193250000Y-104783334D01*
X193316667Y-104783334D01*
X193416667Y-104816667D01*
X193816667Y-105216667D01*
X193816667Y-104783334D01*
X193350000Y-104183333D02*
X193816667Y-104183333D01*
X193083333Y-104350000D02*
X193583333Y-104516667D01*
X193583333Y-104083333D01*
X188650000Y-105316667D02*
X188416666Y-104983333D01*
X188250000Y-105316667D02*
X188250000Y-104616667D01*
X188516666Y-104616667D01*
X188583333Y-104650000D01*
X188616666Y-104683333D01*
X188650000Y-104750000D01*
X188650000Y-104850000D01*
X188616666Y-104916667D01*
X188583333Y-104950000D01*
X188516666Y-104983333D01*
X188250000Y-104983333D01*
X188916666Y-104683333D02*
X188950000Y-104650000D01*
X189016666Y-104616667D01*
X189183333Y-104616667D01*
X189250000Y-104650000D01*
X189283333Y-104683333D01*
X189316666Y-104750000D01*
X189316666Y-104816667D01*
X189283333Y-104916667D01*
X188883333Y-105316667D01*
X189316666Y-105316667D01*
X189950000Y-104616667D02*
X189616667Y-104616667D01*
X189583333Y-104950000D01*
X189616667Y-104916667D01*
X189683333Y-104883333D01*
X189850000Y-104883333D01*
X189916667Y-104916667D01*
X189950000Y-104950000D01*
X189983333Y-105016667D01*
X189983333Y-105183333D01*
X189950000Y-105250000D01*
X189916667Y-105283333D01*
X189850000Y-105316667D01*
X189683333Y-105316667D01*
X189616667Y-105283333D01*
X189583333Y-105250000D01*
X187350000Y-98516667D02*
X187116666Y-98183333D01*
X186950000Y-98516667D02*
X186950000Y-97816667D01*
X187216666Y-97816667D01*
X187283333Y-97850000D01*
X187316666Y-97883333D01*
X187350000Y-97950000D01*
X187350000Y-98050000D01*
X187316666Y-98116667D01*
X187283333Y-98150000D01*
X187216666Y-98183333D01*
X186950000Y-98183333D01*
X187616666Y-97883333D02*
X187650000Y-97850000D01*
X187716666Y-97816667D01*
X187883333Y-97816667D01*
X187950000Y-97850000D01*
X187983333Y-97883333D01*
X188016666Y-97950000D01*
X188016666Y-98016667D01*
X187983333Y-98116667D01*
X187583333Y-98516667D01*
X188016666Y-98516667D01*
X188616667Y-97816667D02*
X188483333Y-97816667D01*
X188416667Y-97850000D01*
X188383333Y-97883333D01*
X188316667Y-97983333D01*
X188283333Y-98116667D01*
X188283333Y-98383333D01*
X188316667Y-98450000D01*
X188350000Y-98483333D01*
X188416667Y-98516667D01*
X188550000Y-98516667D01*
X188616667Y-98483333D01*
X188650000Y-98450000D01*
X188683333Y-98383333D01*
X188683333Y-98216667D01*
X188650000Y-98150000D01*
X188616667Y-98116667D01*
X188550000Y-98083333D01*
X188416667Y-98083333D01*
X188350000Y-98116667D01*
X188316667Y-98150000D01*
X188283333Y-98216667D01*
X189550000Y-98516667D02*
X189316666Y-98183333D01*
X189150000Y-98516667D02*
X189150000Y-97816667D01*
X189416666Y-97816667D01*
X189483333Y-97850000D01*
X189516666Y-97883333D01*
X189550000Y-97950000D01*
X189550000Y-98050000D01*
X189516666Y-98116667D01*
X189483333Y-98150000D01*
X189416666Y-98183333D01*
X189150000Y-98183333D01*
X189816666Y-97883333D02*
X189850000Y-97850000D01*
X189916666Y-97816667D01*
X190083333Y-97816667D01*
X190150000Y-97850000D01*
X190183333Y-97883333D01*
X190216666Y-97950000D01*
X190216666Y-98016667D01*
X190183333Y-98116667D01*
X189783333Y-98516667D01*
X190216666Y-98516667D01*
X190450000Y-97816667D02*
X190916667Y-97816667D01*
X190616667Y-98516667D01*
X182850000Y-98516667D02*
X182616666Y-98183333D01*
X182450000Y-98516667D02*
X182450000Y-97816667D01*
X182716666Y-97816667D01*
X182783333Y-97850000D01*
X182816666Y-97883333D01*
X182850000Y-97950000D01*
X182850000Y-98050000D01*
X182816666Y-98116667D01*
X182783333Y-98150000D01*
X182716666Y-98183333D01*
X182450000Y-98183333D01*
X183116666Y-97883333D02*
X183150000Y-97850000D01*
X183216666Y-97816667D01*
X183383333Y-97816667D01*
X183450000Y-97850000D01*
X183483333Y-97883333D01*
X183516666Y-97950000D01*
X183516666Y-98016667D01*
X183483333Y-98116667D01*
X183083333Y-98516667D01*
X183516666Y-98516667D01*
X183916667Y-98116667D02*
X183850000Y-98083333D01*
X183816667Y-98050000D01*
X183783333Y-97983333D01*
X183783333Y-97950000D01*
X183816667Y-97883333D01*
X183850000Y-97850000D01*
X183916667Y-97816667D01*
X184050000Y-97816667D01*
X184116667Y-97850000D01*
X184150000Y-97883333D01*
X184183333Y-97950000D01*
X184183333Y-97983333D01*
X184150000Y-98050000D01*
X184116667Y-98083333D01*
X184050000Y-98116667D01*
X183916667Y-98116667D01*
X183850000Y-98150000D01*
X183816667Y-98183333D01*
X183783333Y-98250000D01*
X183783333Y-98383333D01*
X183816667Y-98450000D01*
X183850000Y-98483333D01*
X183916667Y-98516667D01*
X184050000Y-98516667D01*
X184116667Y-98483333D01*
X184150000Y-98450000D01*
X184183333Y-98383333D01*
X184183333Y-98250000D01*
X184150000Y-98183333D01*
X184116667Y-98150000D01*
X184050000Y-98116667D01*
X185050000Y-98516667D02*
X184816666Y-98183333D01*
X184650000Y-98516667D02*
X184650000Y-97816667D01*
X184916666Y-97816667D01*
X184983333Y-97850000D01*
X185016666Y-97883333D01*
X185050000Y-97950000D01*
X185050000Y-98050000D01*
X185016666Y-98116667D01*
X184983333Y-98150000D01*
X184916666Y-98183333D01*
X184650000Y-98183333D01*
X185316666Y-97883333D02*
X185350000Y-97850000D01*
X185416666Y-97816667D01*
X185583333Y-97816667D01*
X185650000Y-97850000D01*
X185683333Y-97883333D01*
X185716666Y-97950000D01*
X185716666Y-98016667D01*
X185683333Y-98116667D01*
X185283333Y-98516667D01*
X185716666Y-98516667D01*
X186050000Y-98516667D02*
X186183333Y-98516667D01*
X186250000Y-98483333D01*
X186283333Y-98450000D01*
X186350000Y-98350000D01*
X186383333Y-98216667D01*
X186383333Y-97950000D01*
X186350000Y-97883333D01*
X186316667Y-97850000D01*
X186250000Y-97816667D01*
X186116667Y-97816667D01*
X186050000Y-97850000D01*
X186016667Y-97883333D01*
X185983333Y-97950000D01*
X185983333Y-98116667D01*
X186016667Y-98183333D01*
X186050000Y-98216667D01*
X186116667Y-98250000D01*
X186250000Y-98250000D01*
X186316667Y-98216667D01*
X186350000Y-98183333D01*
X186383333Y-98116667D01*
X190050000Y-90616667D02*
X189816666Y-90283333D01*
X189650000Y-90616667D02*
X189650000Y-89916667D01*
X189916666Y-89916667D01*
X189983333Y-89950000D01*
X190016666Y-89983333D01*
X190050000Y-90050000D01*
X190050000Y-90150000D01*
X190016666Y-90216667D01*
X189983333Y-90250000D01*
X189916666Y-90283333D01*
X189650000Y-90283333D01*
X190283333Y-89916667D02*
X190716666Y-89916667D01*
X190483333Y-90183333D01*
X190583333Y-90183333D01*
X190650000Y-90216667D01*
X190683333Y-90250000D01*
X190716666Y-90316667D01*
X190716666Y-90483333D01*
X190683333Y-90550000D01*
X190650000Y-90583333D01*
X190583333Y-90616667D01*
X190383333Y-90616667D01*
X190316666Y-90583333D01*
X190283333Y-90550000D01*
X191150000Y-89916667D02*
X191216667Y-89916667D01*
X191283333Y-89950000D01*
X191316667Y-89983333D01*
X191350000Y-90050000D01*
X191383333Y-90183333D01*
X191383333Y-90350000D01*
X191350000Y-90483333D01*
X191316667Y-90550000D01*
X191283333Y-90583333D01*
X191216667Y-90616667D01*
X191150000Y-90616667D01*
X191083333Y-90583333D01*
X191050000Y-90550000D01*
X191016667Y-90483333D01*
X190983333Y-90350000D01*
X190983333Y-90183333D01*
X191016667Y-90050000D01*
X191050000Y-89983333D01*
X191083333Y-89950000D01*
X191150000Y-89916667D01*
X187350000Y-90616667D02*
X187116666Y-90283333D01*
X186950000Y-90616667D02*
X186950000Y-89916667D01*
X187216666Y-89916667D01*
X187283333Y-89950000D01*
X187316666Y-89983333D01*
X187350000Y-90050000D01*
X187350000Y-90150000D01*
X187316666Y-90216667D01*
X187283333Y-90250000D01*
X187216666Y-90283333D01*
X186950000Y-90283333D01*
X187583333Y-89916667D02*
X188016666Y-89916667D01*
X187783333Y-90183333D01*
X187883333Y-90183333D01*
X187950000Y-90216667D01*
X187983333Y-90250000D01*
X188016666Y-90316667D01*
X188016666Y-90483333D01*
X187983333Y-90550000D01*
X187950000Y-90583333D01*
X187883333Y-90616667D01*
X187683333Y-90616667D01*
X187616666Y-90583333D01*
X187583333Y-90550000D01*
X188683333Y-90616667D02*
X188283333Y-90616667D01*
X188483333Y-90616667D02*
X188483333Y-89916667D01*
X188416667Y-90016667D01*
X188350000Y-90083333D01*
X188283333Y-90116667D01*
X184550000Y-90616667D02*
X184316666Y-90283333D01*
X184150000Y-90616667D02*
X184150000Y-89916667D01*
X184416666Y-89916667D01*
X184483333Y-89950000D01*
X184516666Y-89983333D01*
X184550000Y-90050000D01*
X184550000Y-90150000D01*
X184516666Y-90216667D01*
X184483333Y-90250000D01*
X184416666Y-90283333D01*
X184150000Y-90283333D01*
X184783333Y-89916667D02*
X185216666Y-89916667D01*
X184983333Y-90183333D01*
X185083333Y-90183333D01*
X185150000Y-90216667D01*
X185183333Y-90250000D01*
X185216666Y-90316667D01*
X185216666Y-90483333D01*
X185183333Y-90550000D01*
X185150000Y-90583333D01*
X185083333Y-90616667D01*
X184883333Y-90616667D01*
X184816666Y-90583333D01*
X184783333Y-90550000D01*
X185483333Y-89983333D02*
X185516667Y-89950000D01*
X185583333Y-89916667D01*
X185750000Y-89916667D01*
X185816667Y-89950000D01*
X185850000Y-89983333D01*
X185883333Y-90050000D01*
X185883333Y-90116667D01*
X185850000Y-90216667D01*
X185450000Y-90616667D01*
X185883333Y-90616667D01*
X181850000Y-90616667D02*
X181616666Y-90283333D01*
X181450000Y-90616667D02*
X181450000Y-89916667D01*
X181716666Y-89916667D01*
X181783333Y-89950000D01*
X181816666Y-89983333D01*
X181850000Y-90050000D01*
X181850000Y-90150000D01*
X181816666Y-90216667D01*
X181783333Y-90250000D01*
X181716666Y-90283333D01*
X181450000Y-90283333D01*
X182083333Y-89916667D02*
X182516666Y-89916667D01*
X182283333Y-90183333D01*
X182383333Y-90183333D01*
X182450000Y-90216667D01*
X182483333Y-90250000D01*
X182516666Y-90316667D01*
X182516666Y-90483333D01*
X182483333Y-90550000D01*
X182450000Y-90583333D01*
X182383333Y-90616667D01*
X182183333Y-90616667D01*
X182116666Y-90583333D01*
X182083333Y-90550000D01*
X182750000Y-89916667D02*
X183183333Y-89916667D01*
X182950000Y-90183333D01*
X183050000Y-90183333D01*
X183116667Y-90216667D01*
X183150000Y-90250000D01*
X183183333Y-90316667D01*
X183183333Y-90483333D01*
X183150000Y-90550000D01*
X183116667Y-90583333D01*
X183050000Y-90616667D01*
X182850000Y-90616667D01*
X182783333Y-90583333D01*
X182750000Y-90550000D01*
X196983333Y-104833334D02*
X197016667Y-104733334D01*
X197016667Y-104566667D01*
X196983333Y-104500000D01*
X196950000Y-104466667D01*
X196883333Y-104433334D01*
X196816667Y-104433334D01*
X196750000Y-104466667D01*
X196716667Y-104500000D01*
X196683333Y-104566667D01*
X196650000Y-104700000D01*
X196616667Y-104766667D01*
X196583333Y-104800000D01*
X196516667Y-104833334D01*
X196450000Y-104833334D01*
X196383333Y-104800000D01*
X196350000Y-104766667D01*
X196316667Y-104700000D01*
X196316667Y-104533334D01*
X196350000Y-104433334D01*
X196316667Y-104200000D02*
X197016667Y-104033333D01*
X196516667Y-103900000D01*
X197016667Y-103766667D01*
X196316667Y-103600000D01*
X197016667Y-102966667D02*
X197016667Y-103366667D01*
X197016667Y-103166667D02*
X196316667Y-103166667D01*
X196416667Y-103233333D01*
X196483333Y-103300000D01*
X196516667Y-103366667D01*
D15*
X194530000Y-106666667D02*
X194563333Y-106566667D01*
X194596667Y-106533334D01*
X194663333Y-106500000D01*
X194763333Y-106500000D01*
X194830000Y-106533334D01*
X194863333Y-106566667D01*
X194896667Y-106633334D01*
X194896667Y-106900000D01*
X194196667Y-106900000D01*
X194196667Y-106666667D01*
X194230000Y-106600000D01*
X194263333Y-106566667D01*
X194330000Y-106533334D01*
X194396667Y-106533334D01*
X194463333Y-106566667D01*
X194496667Y-106600000D01*
X194530000Y-106666667D01*
X194530000Y-106900000D01*
X194196667Y-106266667D02*
X194196667Y-105833334D01*
X194463333Y-106066667D01*
X194463333Y-105966667D01*
X194496667Y-105900000D01*
X194530000Y-105866667D01*
X194596667Y-105833334D01*
X194763333Y-105833334D01*
X194830000Y-105866667D01*
X194863333Y-105900000D01*
X194896667Y-105966667D01*
X194896667Y-106166667D01*
X194863333Y-106233334D01*
X194830000Y-106266667D01*
X194196667Y-105533333D02*
X194763333Y-105533333D01*
X194830000Y-105500000D01*
X194863333Y-105466667D01*
X194896667Y-105400000D01*
X194896667Y-105266667D01*
X194863333Y-105200000D01*
X194830000Y-105166667D01*
X194763333Y-105133333D01*
X194196667Y-105133333D01*
X194630000Y-104800000D02*
X194630000Y-104266667D01*
X194896667Y-103566667D02*
X194896667Y-103966667D01*
X194896667Y-103766667D02*
X194196667Y-103766667D01*
X194296667Y-103833333D01*
X194363333Y-103900000D01*
X194396667Y-103966667D01*
X194196667Y-103133333D02*
X194196667Y-103066666D01*
X194230000Y-103000000D01*
X194263333Y-102966666D01*
X194330000Y-102933333D01*
X194463333Y-102900000D01*
X194630000Y-102900000D01*
X194763333Y-102933333D01*
X194830000Y-102966666D01*
X194863333Y-103000000D01*
X194896667Y-103066666D01*
X194896667Y-103133333D01*
X194863333Y-103200000D01*
X194830000Y-103233333D01*
X194763333Y-103266666D01*
X194630000Y-103300000D01*
X194463333Y-103300000D01*
X194330000Y-103266666D01*
X194263333Y-103233333D01*
X194230000Y-103200000D01*
X194196667Y-103133333D01*
X194196667Y-102466666D02*
X194196667Y-102399999D01*
X194230000Y-102333333D01*
X194263333Y-102299999D01*
X194330000Y-102266666D01*
X194463333Y-102233333D01*
X194630000Y-102233333D01*
X194763333Y-102266666D01*
X194830000Y-102299999D01*
X194863333Y-102333333D01*
X194896667Y-102399999D01*
X194896667Y-102466666D01*
X194863333Y-102533333D01*
X194830000Y-102566666D01*
X194763333Y-102599999D01*
X194630000Y-102633333D01*
X194463333Y-102633333D01*
X194330000Y-102599999D01*
X194263333Y-102566666D01*
X194230000Y-102533333D01*
X194196667Y-102466666D01*
X194196667Y-101799999D02*
X194196667Y-101733332D01*
X194230000Y-101666666D01*
X194263333Y-101633332D01*
X194330000Y-101599999D01*
X194463333Y-101566666D01*
X194630000Y-101566666D01*
X194763333Y-101599999D01*
X194830000Y-101633332D01*
X194863333Y-101666666D01*
X194896667Y-101733332D01*
X194896667Y-101799999D01*
X194863333Y-101866666D01*
X194830000Y-101899999D01*
X194763333Y-101933332D01*
X194630000Y-101966666D01*
X194463333Y-101966666D01*
X194330000Y-101933332D01*
X194263333Y-101899999D01*
X194230000Y-101866666D01*
X194196667Y-101799999D01*
X194896667Y-101266665D02*
X194196667Y-101266665D01*
X194196667Y-100999999D01*
X194230000Y-100933332D01*
X194263333Y-100899999D01*
X194330000Y-100866665D01*
X194430000Y-100866665D01*
X194496667Y-100899999D01*
X194530000Y-100933332D01*
X194563333Y-100999999D01*
X194563333Y-101266665D01*
D10*
X185216667Y-80433333D02*
X185783333Y-80433333D01*
X185850000Y-80400000D01*
X185883333Y-80366667D01*
X185916667Y-80300000D01*
X185916667Y-80166667D01*
X185883333Y-80100000D01*
X185850000Y-80066667D01*
X185783333Y-80033333D01*
X185216667Y-80033333D01*
X185916667Y-79333334D02*
X185916667Y-79733334D01*
X185916667Y-79533334D02*
X185216667Y-79533334D01*
X185316667Y-79600000D01*
X185383333Y-79666667D01*
X185416667Y-79733334D01*
X112166667Y-81216667D02*
X112166667Y-81783333D01*
X112200000Y-81850000D01*
X112233333Y-81883333D01*
X112300000Y-81916667D01*
X112433333Y-81916667D01*
X112500000Y-81883333D01*
X112533333Y-81850000D01*
X112566667Y-81783333D01*
X112566667Y-81216667D01*
X112833333Y-81216667D02*
X113266666Y-81216667D01*
X113033333Y-81483333D01*
X113133333Y-81483333D01*
X113200000Y-81516667D01*
X113233333Y-81550000D01*
X113266666Y-81616667D01*
X113266666Y-81783333D01*
X113233333Y-81850000D01*
X113200000Y-81883333D01*
X113133333Y-81916667D01*
X112933333Y-81916667D01*
X112866666Y-81883333D01*
X112833333Y-81850000D01*
X203816667Y-121833333D02*
X204383333Y-121833333D01*
X204450000Y-121800000D01*
X204483333Y-121766667D01*
X204516667Y-121700000D01*
X204516667Y-121566667D01*
X204483333Y-121500000D01*
X204450000Y-121466667D01*
X204383333Y-121433333D01*
X203816667Y-121433333D01*
X204050000Y-120800000D02*
X204516667Y-120800000D01*
X203783333Y-120966667D02*
X204283333Y-121133334D01*
X204283333Y-120700000D01*
X154466667Y-112516667D02*
X154466667Y-113083333D01*
X154500000Y-113150000D01*
X154533333Y-113183333D01*
X154600000Y-113216667D01*
X154733333Y-113216667D01*
X154800000Y-113183333D01*
X154833333Y-113150000D01*
X154866667Y-113083333D01*
X154866667Y-112516667D01*
X155533333Y-112516667D02*
X155200000Y-112516667D01*
X155166666Y-112850000D01*
X155200000Y-112816667D01*
X155266666Y-112783333D01*
X155433333Y-112783333D01*
X155500000Y-112816667D01*
X155533333Y-112850000D01*
X155566666Y-112916667D01*
X155566666Y-113083333D01*
X155533333Y-113150000D01*
X155500000Y-113183333D01*
X155433333Y-113216667D01*
X155266666Y-113216667D01*
X155200000Y-113183333D01*
X155166666Y-113150000D01*
X154666667Y-107316667D02*
X154666667Y-107883333D01*
X154700000Y-107950000D01*
X154733333Y-107983333D01*
X154800000Y-108016667D01*
X154933333Y-108016667D01*
X155000000Y-107983333D01*
X155033333Y-107950000D01*
X155066667Y-107883333D01*
X155066667Y-107316667D01*
X155700000Y-107316667D02*
X155566666Y-107316667D01*
X155500000Y-107350000D01*
X155466666Y-107383333D01*
X155400000Y-107483333D01*
X155366666Y-107616667D01*
X155366666Y-107883333D01*
X155400000Y-107950000D01*
X155433333Y-107983333D01*
X155500000Y-108016667D01*
X155633333Y-108016667D01*
X155700000Y-107983333D01*
X155733333Y-107950000D01*
X155766666Y-107883333D01*
X155766666Y-107716667D01*
X155733333Y-107650000D01*
X155700000Y-107616667D01*
X155633333Y-107583333D01*
X155500000Y-107583333D01*
X155433333Y-107616667D01*
X155400000Y-107650000D01*
X155366666Y-107716667D01*
X154666667Y-104216667D02*
X154666667Y-104783333D01*
X154700000Y-104850000D01*
X154733333Y-104883333D01*
X154800000Y-104916667D01*
X154933333Y-104916667D01*
X155000000Y-104883333D01*
X155033333Y-104850000D01*
X155066667Y-104783333D01*
X155066667Y-104216667D01*
X155333333Y-104216667D02*
X155800000Y-104216667D01*
X155500000Y-104916667D01*
X180266667Y-106116667D02*
X180266667Y-106683333D01*
X180300000Y-106750000D01*
X180333333Y-106783333D01*
X180400000Y-106816667D01*
X180533333Y-106816667D01*
X180600000Y-106783333D01*
X180633333Y-106750000D01*
X180666667Y-106683333D01*
X180666667Y-106116667D01*
X181100000Y-106416667D02*
X181033333Y-106383333D01*
X181000000Y-106350000D01*
X180966666Y-106283333D01*
X180966666Y-106250000D01*
X181000000Y-106183333D01*
X181033333Y-106150000D01*
X181100000Y-106116667D01*
X181233333Y-106116667D01*
X181300000Y-106150000D01*
X181333333Y-106183333D01*
X181366666Y-106250000D01*
X181366666Y-106283333D01*
X181333333Y-106350000D01*
X181300000Y-106383333D01*
X181233333Y-106416667D01*
X181100000Y-106416667D01*
X181033333Y-106450000D01*
X181000000Y-106483333D01*
X180966666Y-106550000D01*
X180966666Y-106683333D01*
X181000000Y-106750000D01*
X181033333Y-106783333D01*
X181100000Y-106816667D01*
X181233333Y-106816667D01*
X181300000Y-106783333D01*
X181333333Y-106750000D01*
X181366666Y-106683333D01*
X181366666Y-106550000D01*
X181333333Y-106483333D01*
X181300000Y-106450000D01*
X181233333Y-106416667D01*
X176966667Y-98916667D02*
X176966667Y-99483333D01*
X177000000Y-99550000D01*
X177033333Y-99583333D01*
X177100000Y-99616667D01*
X177233333Y-99616667D01*
X177300000Y-99583333D01*
X177333333Y-99550000D01*
X177366667Y-99483333D01*
X177366667Y-98916667D01*
X177733333Y-99616667D02*
X177866666Y-99616667D01*
X177933333Y-99583333D01*
X177966666Y-99550000D01*
X178033333Y-99450000D01*
X178066666Y-99316667D01*
X178066666Y-99050000D01*
X178033333Y-98983333D01*
X178000000Y-98950000D01*
X177933333Y-98916667D01*
X177800000Y-98916667D01*
X177733333Y-98950000D01*
X177700000Y-98983333D01*
X177666666Y-99050000D01*
X177666666Y-99216667D01*
X177700000Y-99283333D01*
X177733333Y-99316667D01*
X177800000Y-99350000D01*
X177933333Y-99350000D01*
X178000000Y-99316667D01*
X178033333Y-99283333D01*
X178066666Y-99216667D01*
X128816667Y-109866666D02*
X129516667Y-109633333D01*
X128816667Y-109400000D01*
X129516667Y-108800000D02*
X129516667Y-109200000D01*
X129516667Y-109000000D02*
X128816667Y-109000000D01*
X128916667Y-109066666D01*
X128983333Y-109133333D01*
X129016667Y-109200000D01*
X152466667Y-90883333D02*
X152466667Y-91216667D01*
X152233334Y-90516667D02*
X152466667Y-90883333D01*
X152700000Y-90516667D01*
X153300000Y-91216667D02*
X152900000Y-91216667D01*
X153100000Y-91216667D02*
X153100000Y-90516667D01*
X153033334Y-90616667D01*
X152966667Y-90683333D01*
X152900000Y-90716667D01*
X111383334Y-124750000D02*
X111350000Y-124783333D01*
X111250000Y-124816667D01*
X111183334Y-124816667D01*
X111083334Y-124783333D01*
X111016667Y-124716667D01*
X110983334Y-124650000D01*
X110950000Y-124516667D01*
X110950000Y-124416667D01*
X110983334Y-124283333D01*
X111016667Y-124216667D01*
X111083334Y-124150000D01*
X111183334Y-124116667D01*
X111250000Y-124116667D01*
X111350000Y-124150000D01*
X111383334Y-124183333D01*
X111650000Y-124183333D02*
X111683334Y-124150000D01*
X111750000Y-124116667D01*
X111916667Y-124116667D01*
X111983334Y-124150000D01*
X112016667Y-124183333D01*
X112050000Y-124250000D01*
X112050000Y-124316667D01*
X112016667Y-124416667D01*
X111616667Y-124816667D01*
X112050000Y-124816667D01*
D11*
X107671429Y-120100952D02*
X107671429Y-119339047D01*
X108052381Y-119719999D02*
X107290476Y-119719999D01*
D10*
X111383334Y-116516667D02*
X111383334Y-115816667D01*
X111550000Y-115816667D01*
X111650000Y-115850000D01*
X111716667Y-115916667D01*
X111750000Y-115983333D01*
X111783334Y-116116667D01*
X111783334Y-116216667D01*
X111750000Y-116350000D01*
X111716667Y-116416667D01*
X111650000Y-116483333D01*
X111550000Y-116516667D01*
X111383334Y-116516667D01*
X112450000Y-116516667D02*
X112050000Y-116516667D01*
X112250000Y-116516667D02*
X112250000Y-115816667D01*
X112183334Y-115916667D01*
X112116667Y-115983333D01*
X112050000Y-116016667D01*
X122583333Y-122516667D02*
X122250000Y-122516667D01*
X122250000Y-121816667D01*
X123183333Y-122516667D02*
X122783333Y-122516667D01*
X122983333Y-122516667D02*
X122983333Y-121816667D01*
X122916667Y-121916667D01*
X122850000Y-121983333D01*
X122783333Y-122016667D01*
X114383334Y-117016667D02*
X114383334Y-116316667D01*
X114550000Y-116316667D01*
X114650000Y-116350000D01*
X114716667Y-116416667D01*
X114750000Y-116483333D01*
X114783334Y-116616667D01*
X114783334Y-116716667D01*
X114750000Y-116850000D01*
X114716667Y-116916667D01*
X114650000Y-116983333D01*
X114550000Y-117016667D01*
X114383334Y-117016667D01*
X115016667Y-116316667D02*
X115450000Y-116316667D01*
X115216667Y-116583333D01*
X115316667Y-116583333D01*
X115383334Y-116616667D01*
X115416667Y-116650000D01*
X115450000Y-116716667D01*
X115450000Y-116883333D01*
X115416667Y-116950000D01*
X115383334Y-116983333D01*
X115316667Y-117016667D01*
X115116667Y-117016667D01*
X115050000Y-116983333D01*
X115016667Y-116950000D01*
X120983334Y-77116667D02*
X120983334Y-76416667D01*
X121150000Y-76416667D01*
X121250000Y-76450000D01*
X121316667Y-76516667D01*
X121350000Y-76583333D01*
X121383334Y-76716667D01*
X121383334Y-76816667D01*
X121350000Y-76950000D01*
X121316667Y-77016667D01*
X121250000Y-77083333D01*
X121150000Y-77116667D01*
X120983334Y-77116667D01*
X121983334Y-76650000D02*
X121983334Y-77116667D01*
X121816667Y-76383333D02*
X121650000Y-76883333D01*
X122083334Y-76883333D01*
X108250000Y-115616667D02*
X108016666Y-115283333D01*
X107850000Y-115616667D02*
X107850000Y-114916667D01*
X108116666Y-114916667D01*
X108183333Y-114950000D01*
X108216666Y-114983333D01*
X108250000Y-115050000D01*
X108250000Y-115150000D01*
X108216666Y-115216667D01*
X108183333Y-115250000D01*
X108116666Y-115283333D01*
X107850000Y-115283333D01*
X108483333Y-114916667D02*
X108916666Y-114916667D01*
X108683333Y-115183333D01*
X108783333Y-115183333D01*
X108850000Y-115216667D01*
X108883333Y-115250000D01*
X108916666Y-115316667D01*
X108916666Y-115483333D01*
X108883333Y-115550000D01*
X108850000Y-115583333D01*
X108783333Y-115616667D01*
X108583333Y-115616667D01*
X108516666Y-115583333D01*
X108483333Y-115550000D01*
X109516667Y-115150000D02*
X109516667Y-115616667D01*
X109350000Y-114883333D02*
X109183333Y-115383333D01*
X109616667Y-115383333D01*
X122716667Y-74550000D02*
X122383333Y-74783334D01*
X122716667Y-74950000D02*
X122016667Y-74950000D01*
X122016667Y-74683334D01*
X122050000Y-74616667D01*
X122083333Y-74583334D01*
X122150000Y-74550000D01*
X122250000Y-74550000D01*
X122316667Y-74583334D01*
X122350000Y-74616667D01*
X122383333Y-74683334D01*
X122383333Y-74950000D01*
X122016667Y-74316667D02*
X122016667Y-73883334D01*
X122283333Y-74116667D01*
X122283333Y-74016667D01*
X122316667Y-73950000D01*
X122350000Y-73916667D01*
X122416667Y-73883334D01*
X122583333Y-73883334D01*
X122650000Y-73916667D01*
X122683333Y-73950000D01*
X122716667Y-74016667D01*
X122716667Y-74216667D01*
X122683333Y-74283334D01*
X122650000Y-74316667D01*
X122016667Y-73250000D02*
X122016667Y-73583333D01*
X122350000Y-73616667D01*
X122316667Y-73583333D01*
X122283333Y-73516667D01*
X122283333Y-73350000D01*
X122316667Y-73283333D01*
X122350000Y-73250000D01*
X122416667Y-73216667D01*
X122583333Y-73216667D01*
X122650000Y-73250000D01*
X122683333Y-73283333D01*
X122716667Y-73350000D01*
X122716667Y-73516667D01*
X122683333Y-73583333D01*
X122650000Y-73616667D01*
X164450000Y-106850000D02*
X164483333Y-106883334D01*
X164516667Y-106983334D01*
X164516667Y-107050000D01*
X164483333Y-107150000D01*
X164416667Y-107216667D01*
X164350000Y-107250000D01*
X164216667Y-107283334D01*
X164116667Y-107283334D01*
X163983333Y-107250000D01*
X163916667Y-107216667D01*
X163850000Y-107150000D01*
X163816667Y-107050000D01*
X163816667Y-106983334D01*
X163850000Y-106883334D01*
X163883333Y-106850000D01*
X163883333Y-106583334D02*
X163850000Y-106550000D01*
X163816667Y-106483334D01*
X163816667Y-106316667D01*
X163850000Y-106250000D01*
X163883333Y-106216667D01*
X163950000Y-106183334D01*
X164016667Y-106183334D01*
X164116667Y-106216667D01*
X164516667Y-106616667D01*
X164516667Y-106183334D01*
X163816667Y-105583333D02*
X163816667Y-105716667D01*
X163850000Y-105783333D01*
X163883333Y-105816667D01*
X163983333Y-105883333D01*
X164116667Y-105916667D01*
X164383333Y-105916667D01*
X164450000Y-105883333D01*
X164483333Y-105850000D01*
X164516667Y-105783333D01*
X164516667Y-105650000D01*
X164483333Y-105583333D01*
X164450000Y-105550000D01*
X164383333Y-105516667D01*
X164216667Y-105516667D01*
X164150000Y-105550000D01*
X164116667Y-105583333D01*
X164083333Y-105650000D01*
X164083333Y-105783333D01*
X164116667Y-105850000D01*
X164150000Y-105883333D01*
X164216667Y-105916667D01*
X164450000Y-104650000D02*
X164483333Y-104683334D01*
X164516667Y-104783334D01*
X164516667Y-104850000D01*
X164483333Y-104950000D01*
X164416667Y-105016667D01*
X164350000Y-105050000D01*
X164216667Y-105083334D01*
X164116667Y-105083334D01*
X163983333Y-105050000D01*
X163916667Y-105016667D01*
X163850000Y-104950000D01*
X163816667Y-104850000D01*
X163816667Y-104783334D01*
X163850000Y-104683334D01*
X163883333Y-104650000D01*
X163883333Y-104383334D02*
X163850000Y-104350000D01*
X163816667Y-104283334D01*
X163816667Y-104116667D01*
X163850000Y-104050000D01*
X163883333Y-104016667D01*
X163950000Y-103983334D01*
X164016667Y-103983334D01*
X164116667Y-104016667D01*
X164516667Y-104416667D01*
X164516667Y-103983334D01*
X163816667Y-103750000D02*
X163816667Y-103283333D01*
X164516667Y-103583333D01*
X202076667Y-101413333D02*
X202643333Y-101413333D01*
X202710000Y-101380000D01*
X202743333Y-101346667D01*
X202776667Y-101280000D01*
X202776667Y-101146667D01*
X202743333Y-101080000D01*
X202710000Y-101046667D01*
X202643333Y-101013333D01*
X202076667Y-101013333D01*
X202143333Y-100713334D02*
X202110000Y-100680000D01*
X202076667Y-100613334D01*
X202076667Y-100446667D01*
X202110000Y-100380000D01*
X202143333Y-100346667D01*
X202210000Y-100313334D01*
X202276667Y-100313334D01*
X202376667Y-100346667D01*
X202776667Y-100746667D01*
X202776667Y-100313334D01*
M02*
