G04 #@! TF.FileFunction,Legend,Bot*
%FSLAX46Y46*%
G04 Gerber Fmt 4.6, Leading zero omitted, Abs format (unit mm)*
G04 Created by KiCad (PCBNEW 4.0.5) date 03/17/18 13:35:14*
%MOMM*%
%LPD*%
G01*
G04 APERTURE LIST*
%ADD10C,0.100000*%
%ADD11C,0.150000*%
%ADD12C,0.300000*%
%ADD13C,0.400000*%
%ADD14C,0.120000*%
G04 APERTURE END LIST*
D10*
D11*
X177002200Y-166007200D02*
X177002200Y-198007200D01*
X285002200Y-198007200D01*
X285002200Y-166007200D01*
X177002200Y-166007200D01*
D10*
D11*
X10000000Y-10000000D02*
X10000000Y-200007200D01*
X287002200Y-200007200D01*
X287002200Y-10000000D01*
X10000000Y-10000000D01*
D10*
D11*
X12000000Y-12000000D02*
X12000000Y-198007200D01*
X285002200Y-198007200D01*
X285002200Y-12000000D01*
X12000000Y-12000000D01*
D10*
D11*
X60000000Y-12000000D02*
X60000000Y-10000000D01*
D10*
D11*
X110000000Y-12000000D02*
X110000000Y-10000000D01*
D10*
D11*
X160000000Y-12000000D02*
X160000000Y-10000000D01*
D10*
D11*
X210000000Y-12000000D02*
X210000000Y-10000000D01*
D10*
D11*
X260000000Y-12000000D02*
X260000000Y-10000000D01*
D10*
D11*
X35990476Y-11588095D02*
X35247619Y-11588095D01*
X35619048Y-11588095D02*
X35619048Y-10288095D01*
X35495238Y-10473810D01*
X35371429Y-10597619D01*
X35247619Y-10659524D01*
D10*
D11*
X85247619Y-10411905D02*
X85309524Y-10350000D01*
X85433333Y-10288095D01*
X85742857Y-10288095D01*
X85866667Y-10350000D01*
X85928571Y-10411905D01*
X85990476Y-10535714D01*
X85990476Y-10659524D01*
X85928571Y-10845238D01*
X85185714Y-11588095D01*
X85990476Y-11588095D01*
D10*
D11*
X135185714Y-10288095D02*
X135990476Y-10288095D01*
X135557143Y-10783333D01*
X135742857Y-10783333D01*
X135866667Y-10845238D01*
X135928571Y-10907143D01*
X135990476Y-11030952D01*
X135990476Y-11340476D01*
X135928571Y-11464286D01*
X135866667Y-11526190D01*
X135742857Y-11588095D01*
X135371429Y-11588095D01*
X135247619Y-11526190D01*
X135185714Y-11464286D01*
D10*
D11*
X185866667Y-10721429D02*
X185866667Y-11588095D01*
X185557143Y-10226190D02*
X185247619Y-11154762D01*
X186052381Y-11154762D01*
D10*
D11*
X235928571Y-10288095D02*
X235309524Y-10288095D01*
X235247619Y-10907143D01*
X235309524Y-10845238D01*
X235433333Y-10783333D01*
X235742857Y-10783333D01*
X235866667Y-10845238D01*
X235928571Y-10907143D01*
X235990476Y-11030952D01*
X235990476Y-11340476D01*
X235928571Y-11464286D01*
X235866667Y-11526190D01*
X235742857Y-11588095D01*
X235433333Y-11588095D01*
X235309524Y-11526190D01*
X235247619Y-11464286D01*
D10*
D11*
X285866667Y-10288095D02*
X285619048Y-10288095D01*
X285495238Y-10350000D01*
X285433333Y-10411905D01*
X285309524Y-10597619D01*
X285247619Y-10845238D01*
X285247619Y-11340476D01*
X285309524Y-11464286D01*
X285371429Y-11526190D01*
X285495238Y-11588095D01*
X285742857Y-11588095D01*
X285866667Y-11526190D01*
X285928571Y-11464286D01*
X285990476Y-11340476D01*
X285990476Y-11030952D01*
X285928571Y-10907143D01*
X285866667Y-10845238D01*
X285742857Y-10783333D01*
X285495238Y-10783333D01*
X285371429Y-10845238D01*
X285309524Y-10907143D01*
X285247619Y-11030952D01*
D10*
D11*
X60000000Y-198007200D02*
X60000000Y-200007200D01*
D10*
D11*
X110000000Y-198007200D02*
X110000000Y-200007200D01*
D10*
D11*
X160000000Y-198007200D02*
X160000000Y-200007200D01*
D10*
D11*
X210000000Y-198007200D02*
X210000000Y-200007200D01*
D10*
D11*
X260000000Y-198007200D02*
X260000000Y-200007200D01*
D10*
D11*
X35990476Y-199595295D02*
X35247619Y-199595295D01*
X35619048Y-199595295D02*
X35619048Y-198295295D01*
X35495238Y-198481010D01*
X35371429Y-198604819D01*
X35247619Y-198666724D01*
D10*
D11*
X85247619Y-198419105D02*
X85309524Y-198357200D01*
X85433333Y-198295295D01*
X85742857Y-198295295D01*
X85866667Y-198357200D01*
X85928571Y-198419105D01*
X85990476Y-198542914D01*
X85990476Y-198666724D01*
X85928571Y-198852438D01*
X85185714Y-199595295D01*
X85990476Y-199595295D01*
D10*
D11*
X135185714Y-198295295D02*
X135990476Y-198295295D01*
X135557143Y-198790533D01*
X135742857Y-198790533D01*
X135866667Y-198852438D01*
X135928571Y-198914343D01*
X135990476Y-199038152D01*
X135990476Y-199347676D01*
X135928571Y-199471486D01*
X135866667Y-199533390D01*
X135742857Y-199595295D01*
X135371429Y-199595295D01*
X135247619Y-199533390D01*
X135185714Y-199471486D01*
D10*
D11*
X185866667Y-198728629D02*
X185866667Y-199595295D01*
X185557143Y-198233390D02*
X185247619Y-199161962D01*
X186052381Y-199161962D01*
D10*
D11*
X235928571Y-198295295D02*
X235309524Y-198295295D01*
X235247619Y-198914343D01*
X235309524Y-198852438D01*
X235433333Y-198790533D01*
X235742857Y-198790533D01*
X235866667Y-198852438D01*
X235928571Y-198914343D01*
X235990476Y-199038152D01*
X235990476Y-199347676D01*
X235928571Y-199471486D01*
X235866667Y-199533390D01*
X235742857Y-199595295D01*
X235433333Y-199595295D01*
X235309524Y-199533390D01*
X235247619Y-199471486D01*
D10*
D11*
X285866667Y-198295295D02*
X285619048Y-198295295D01*
X285495238Y-198357200D01*
X285433333Y-198419105D01*
X285309524Y-198604819D01*
X285247619Y-198852438D01*
X285247619Y-199347676D01*
X285309524Y-199471486D01*
X285371429Y-199533390D01*
X285495238Y-199595295D01*
X285742857Y-199595295D01*
X285866667Y-199533390D01*
X285928571Y-199471486D01*
X285990476Y-199347676D01*
X285990476Y-199038152D01*
X285928571Y-198914343D01*
X285866667Y-198852438D01*
X285742857Y-198790533D01*
X285495238Y-198790533D01*
X285371429Y-198852438D01*
X285309524Y-198914343D01*
X285247619Y-199038152D01*
D10*
D11*
X10000000Y-60000000D02*
X12000000Y-60000000D01*
D10*
D11*
X10000000Y-110000000D02*
X12000000Y-110000000D01*
D10*
D11*
X10000000Y-160000000D02*
X12000000Y-160000000D01*
D10*
D11*
X10690476Y-35216667D02*
X11309524Y-35216667D01*
X10566667Y-35588095D02*
X11000000Y-34288095D01*
X11433333Y-35588095D01*
D10*
D11*
X11092857Y-84907143D02*
X11278571Y-84969048D01*
X11340476Y-85030952D01*
X11402381Y-85154762D01*
X11402381Y-85340476D01*
X11340476Y-85464286D01*
X11278571Y-85526190D01*
X11154762Y-85588095D01*
X10659524Y-85588095D01*
X10659524Y-84288095D01*
X11092857Y-84288095D01*
X11216667Y-84350000D01*
X11278571Y-84411905D01*
X11340476Y-84535714D01*
X11340476Y-84659524D01*
X11278571Y-84783333D01*
X11216667Y-84845238D01*
X11092857Y-84907143D01*
X10659524Y-84907143D01*
D10*
D11*
X11402381Y-135464286D02*
X11340476Y-135526190D01*
X11154762Y-135588095D01*
X11030952Y-135588095D01*
X10845238Y-135526190D01*
X10721429Y-135402381D01*
X10659524Y-135278571D01*
X10597619Y-135030952D01*
X10597619Y-134845238D01*
X10659524Y-134597619D01*
X10721429Y-134473810D01*
X10845238Y-134350000D01*
X11030952Y-134288095D01*
X11154762Y-134288095D01*
X11340476Y-134350000D01*
X11402381Y-134411905D01*
D10*
D11*
X10659524Y-185588095D02*
X10659524Y-184288095D01*
X10969048Y-184288095D01*
X11154762Y-184350000D01*
X11278571Y-184473810D01*
X11340476Y-184597619D01*
X11402381Y-184845238D01*
X11402381Y-185030952D01*
X11340476Y-185278571D01*
X11278571Y-185402381D01*
X11154762Y-185526190D01*
X10969048Y-185588095D01*
X10659524Y-185588095D01*
D10*
D11*
X287002200Y-60000000D02*
X285002200Y-60000000D01*
D10*
D11*
X287002200Y-110000000D02*
X285002200Y-110000000D01*
D10*
D11*
X287002200Y-160000000D02*
X285002200Y-160000000D01*
D10*
D11*
X285692676Y-35216667D02*
X286311724Y-35216667D01*
X285568867Y-35588095D02*
X286002200Y-34288095D01*
X286435533Y-35588095D01*
D10*
D11*
X286095057Y-84907143D02*
X286280771Y-84969048D01*
X286342676Y-85030952D01*
X286404581Y-85154762D01*
X286404581Y-85340476D01*
X286342676Y-85464286D01*
X286280771Y-85526190D01*
X286156962Y-85588095D01*
X285661724Y-85588095D01*
X285661724Y-84288095D01*
X286095057Y-84288095D01*
X286218867Y-84350000D01*
X286280771Y-84411905D01*
X286342676Y-84535714D01*
X286342676Y-84659524D01*
X286280771Y-84783333D01*
X286218867Y-84845238D01*
X286095057Y-84907143D01*
X285661724Y-84907143D01*
D10*
D11*
X286404581Y-135464286D02*
X286342676Y-135526190D01*
X286156962Y-135588095D01*
X286033152Y-135588095D01*
X285847438Y-135526190D01*
X285723629Y-135402381D01*
X285661724Y-135278571D01*
X285599819Y-135030952D01*
X285599819Y-134845238D01*
X285661724Y-134597619D01*
X285723629Y-134473810D01*
X285847438Y-134350000D01*
X286033152Y-134288095D01*
X286156962Y-134288095D01*
X286342676Y-134350000D01*
X286404581Y-134411905D01*
D10*
D11*
X285661724Y-185588095D02*
X285661724Y-184288095D01*
X285971248Y-184288095D01*
X286156962Y-184350000D01*
X286280771Y-184473810D01*
X286342676Y-184597619D01*
X286404581Y-184845238D01*
X286404581Y-185030952D01*
X286342676Y-185278571D01*
X286280771Y-185402381D01*
X286156962Y-185526190D01*
X285971248Y-185588095D01*
X285661724Y-185588095D01*
D10*
D11*
X200359343Y-193785771D02*
X200359343Y-192285771D01*
X200716486Y-192285771D01*
X200930771Y-192357200D01*
X201073629Y-192500057D01*
X201145057Y-192642914D01*
X201216486Y-192928629D01*
X201216486Y-193142914D01*
X201145057Y-193428629D01*
X201073629Y-193571486D01*
X200930771Y-193714343D01*
X200716486Y-193785771D01*
X200359343Y-193785771D01*
X202502200Y-193785771D02*
X202502200Y-193000057D01*
X202430771Y-192857200D01*
X202287914Y-192785771D01*
X202002200Y-192785771D01*
X201859343Y-192857200D01*
X202502200Y-193714343D02*
X202359343Y-193785771D01*
X202002200Y-193785771D01*
X201859343Y-193714343D01*
X201787914Y-193571486D01*
X201787914Y-193428629D01*
X201859343Y-193285771D01*
X202002200Y-193214343D01*
X202359343Y-193214343D01*
X202502200Y-193142914D01*
X203002200Y-192785771D02*
X203573629Y-192785771D01*
X203216486Y-192285771D02*
X203216486Y-193571486D01*
X203287914Y-193714343D01*
X203430772Y-193785771D01*
X203573629Y-193785771D01*
X204645057Y-193714343D02*
X204502200Y-193785771D01*
X204216486Y-193785771D01*
X204073629Y-193714343D01*
X204002200Y-193571486D01*
X204002200Y-193000057D01*
X204073629Y-192857200D01*
X204216486Y-192785771D01*
X204502200Y-192785771D01*
X204645057Y-192857200D01*
X204716486Y-193000057D01*
X204716486Y-193142914D01*
X204002200Y-193285771D01*
X205359343Y-193642914D02*
X205430771Y-193714343D01*
X205359343Y-193785771D01*
X205287914Y-193714343D01*
X205359343Y-193642914D01*
X205359343Y-193785771D01*
X205359343Y-192857200D02*
X205430771Y-192928629D01*
X205359343Y-193000057D01*
X205287914Y-192928629D01*
X205359343Y-192857200D01*
X205359343Y-193000057D01*
X207216486Y-193785771D02*
X207216486Y-192785771D01*
X207216486Y-192928629D02*
X207287914Y-192857200D01*
X207430772Y-192785771D01*
X207645057Y-192785771D01*
X207787914Y-192857200D01*
X207859343Y-193000057D01*
X207859343Y-193785771D01*
X207859343Y-193000057D02*
X207930772Y-192857200D01*
X208073629Y-192785771D01*
X208287914Y-192785771D01*
X208430772Y-192857200D01*
X208502200Y-193000057D01*
X208502200Y-193785771D01*
X209859343Y-193785771D02*
X209859343Y-193000057D01*
X209787914Y-192857200D01*
X209645057Y-192785771D01*
X209359343Y-192785771D01*
X209216486Y-192857200D01*
X209859343Y-193714343D02*
X209716486Y-193785771D01*
X209359343Y-193785771D01*
X209216486Y-193714343D01*
X209145057Y-193571486D01*
X209145057Y-193428629D01*
X209216486Y-193285771D01*
X209359343Y-193214343D01*
X209716486Y-193214343D01*
X209859343Y-193142914D01*
X210573629Y-193785771D02*
X210573629Y-192785771D01*
X210573629Y-193071486D02*
X210645057Y-192928629D01*
X210716486Y-192857200D01*
X210859343Y-192785771D01*
X211002200Y-192785771D01*
X211502200Y-193642914D02*
X211573628Y-193714343D01*
X211502200Y-193785771D01*
X211430771Y-193714343D01*
X211502200Y-193642914D01*
X211502200Y-193785771D01*
X213216486Y-192285771D02*
X214145057Y-192285771D01*
X213645057Y-192857200D01*
X213859343Y-192857200D01*
X214002200Y-192928629D01*
X214073629Y-193000057D01*
X214145057Y-193142914D01*
X214145057Y-193500057D01*
X214073629Y-193642914D01*
X214002200Y-193714343D01*
X213859343Y-193785771D01*
X213430771Y-193785771D01*
X213287914Y-193714343D01*
X213216486Y-193642914D01*
X215573628Y-193785771D02*
X214716485Y-193785771D01*
X215145057Y-193785771D02*
X215145057Y-192285771D01*
X215002200Y-192500057D01*
X214859342Y-192642914D01*
X214716485Y-192714343D01*
X217359342Y-193785771D02*
X217359342Y-192785771D01*
X217359342Y-192928629D02*
X217430770Y-192857200D01*
X217573628Y-192785771D01*
X217787913Y-192785771D01*
X217930770Y-192857200D01*
X218002199Y-193000057D01*
X218002199Y-193785771D01*
X218002199Y-193000057D02*
X218073628Y-192857200D01*
X218216485Y-192785771D01*
X218430770Y-192785771D01*
X218573628Y-192857200D01*
X218645056Y-193000057D01*
X218645056Y-193785771D01*
X220002199Y-193785771D02*
X220002199Y-193000057D01*
X219930770Y-192857200D01*
X219787913Y-192785771D01*
X219502199Y-192785771D01*
X219359342Y-192857200D01*
X220002199Y-193714343D02*
X219859342Y-193785771D01*
X219502199Y-193785771D01*
X219359342Y-193714343D01*
X219287913Y-193571486D01*
X219287913Y-193428629D01*
X219359342Y-193285771D01*
X219502199Y-193214343D01*
X219859342Y-193214343D01*
X220002199Y-193142914D01*
X220716485Y-193785771D02*
X220716485Y-192785771D01*
X220716485Y-193071486D02*
X220787913Y-192928629D01*
X220859342Y-192857200D01*
X221002199Y-192785771D01*
X221145056Y-192785771D01*
X221573627Y-193714343D02*
X221716484Y-193785771D01*
X222002199Y-193785771D01*
X222145056Y-193714343D01*
X222216484Y-193571486D01*
X222216484Y-193500057D01*
X222145056Y-193357200D01*
X222002199Y-193285771D01*
X221787913Y-193285771D01*
X221645056Y-193214343D01*
X221573627Y-193071486D01*
X221573627Y-193000057D01*
X221645056Y-192857200D01*
X221787913Y-192785771D01*
X222002199Y-192785771D01*
X222145056Y-192857200D01*
X223930770Y-192428629D02*
X224002199Y-192357200D01*
X224145056Y-192285771D01*
X224502199Y-192285771D01*
X224645056Y-192357200D01*
X224716485Y-192428629D01*
X224787913Y-192571486D01*
X224787913Y-192714343D01*
X224716485Y-192928629D01*
X223859342Y-193785771D01*
X224787913Y-193785771D01*
X225716484Y-192285771D02*
X225859341Y-192285771D01*
X226002198Y-192357200D01*
X226073627Y-192428629D01*
X226145056Y-192571486D01*
X226216484Y-192857200D01*
X226216484Y-193214343D01*
X226145056Y-193500057D01*
X226073627Y-193642914D01*
X226002198Y-193714343D01*
X225859341Y-193785771D01*
X225716484Y-193785771D01*
X225573627Y-193714343D01*
X225502198Y-193642914D01*
X225430770Y-193500057D01*
X225359341Y-193214343D01*
X225359341Y-192857200D01*
X225430770Y-192571486D01*
X225502198Y-192428629D01*
X225573627Y-192357200D01*
X225716484Y-192285771D01*
X227645055Y-193785771D02*
X226787912Y-193785771D01*
X227216484Y-193785771D02*
X227216484Y-192285771D01*
X227073627Y-192500057D01*
X226930769Y-192642914D01*
X226787912Y-192714343D01*
X229002198Y-192285771D02*
X228287912Y-192285771D01*
X228216483Y-193000057D01*
X228287912Y-192928629D01*
X228430769Y-192857200D01*
X228787912Y-192857200D01*
X228930769Y-192928629D01*
X229002198Y-193000057D01*
X229073626Y-193142914D01*
X229073626Y-193500057D01*
X229002198Y-193642914D01*
X228930769Y-193714343D01*
X228787912Y-193785771D01*
X228430769Y-193785771D01*
X228287912Y-193714343D01*
X228216483Y-193642914D01*
D10*
D11*
X177002200Y-194507200D02*
X285002200Y-194507200D01*
D10*
D11*
X178359343Y-196585771D02*
X178359343Y-195085771D01*
X179216486Y-196585771D02*
X178573629Y-195728629D01*
X179216486Y-195085771D02*
X178359343Y-195942914D01*
X179859343Y-196585771D02*
X179859343Y-195585771D01*
X179859343Y-195085771D02*
X179787914Y-195157200D01*
X179859343Y-195228629D01*
X179930771Y-195157200D01*
X179859343Y-195085771D01*
X179859343Y-195228629D01*
X181430772Y-196442914D02*
X181359343Y-196514343D01*
X181145057Y-196585771D01*
X181002200Y-196585771D01*
X180787915Y-196514343D01*
X180645057Y-196371486D01*
X180573629Y-196228629D01*
X180502200Y-195942914D01*
X180502200Y-195728629D01*
X180573629Y-195442914D01*
X180645057Y-195300057D01*
X180787915Y-195157200D01*
X181002200Y-195085771D01*
X181145057Y-195085771D01*
X181359343Y-195157200D01*
X181430772Y-195228629D01*
X182716486Y-196585771D02*
X182716486Y-195800057D01*
X182645057Y-195657200D01*
X182502200Y-195585771D01*
X182216486Y-195585771D01*
X182073629Y-195657200D01*
X182716486Y-196514343D02*
X182573629Y-196585771D01*
X182216486Y-196585771D01*
X182073629Y-196514343D01*
X182002200Y-196371486D01*
X182002200Y-196228629D01*
X182073629Y-196085771D01*
X182216486Y-196014343D01*
X182573629Y-196014343D01*
X182716486Y-195942914D01*
X184073629Y-196585771D02*
X184073629Y-195085771D01*
X184073629Y-196514343D02*
X183930772Y-196585771D01*
X183645058Y-196585771D01*
X183502200Y-196514343D01*
X183430772Y-196442914D01*
X183359343Y-196300057D01*
X183359343Y-195871486D01*
X183430772Y-195728629D01*
X183502200Y-195657200D01*
X183645058Y-195585771D01*
X183930772Y-195585771D01*
X184073629Y-195657200D01*
X185930772Y-195800057D02*
X186430772Y-195800057D01*
X186645058Y-196585771D02*
X185930772Y-196585771D01*
X185930772Y-195085771D01*
X186645058Y-195085771D01*
X187287915Y-196442914D02*
X187359343Y-196514343D01*
X187287915Y-196585771D01*
X187216486Y-196514343D01*
X187287915Y-196442914D01*
X187287915Y-196585771D01*
X188002201Y-196585771D02*
X188002201Y-195085771D01*
X188359344Y-195085771D01*
X188573629Y-195157200D01*
X188716487Y-195300057D01*
X188787915Y-195442914D01*
X188859344Y-195728629D01*
X188859344Y-195942914D01*
X188787915Y-196228629D01*
X188716487Y-196371486D01*
X188573629Y-196514343D01*
X188359344Y-196585771D01*
X188002201Y-196585771D01*
X189502201Y-196442914D02*
X189573629Y-196514343D01*
X189502201Y-196585771D01*
X189430772Y-196514343D01*
X189502201Y-196442914D01*
X189502201Y-196585771D01*
X190145058Y-196157200D02*
X190859344Y-196157200D01*
X190002201Y-196585771D02*
X190502201Y-195085771D01*
X191002201Y-196585771D01*
X191502201Y-196442914D02*
X191573629Y-196514343D01*
X191502201Y-196585771D01*
X191430772Y-196514343D01*
X191502201Y-196442914D01*
X191502201Y-196585771D01*
X194502201Y-196585771D02*
X194502201Y-195085771D01*
X194645058Y-196014343D02*
X195073629Y-196585771D01*
X195073629Y-195585771D02*
X194502201Y-196157200D01*
X195716487Y-196585771D02*
X195716487Y-195585771D01*
X195716487Y-195085771D02*
X195645058Y-195157200D01*
X195716487Y-195228629D01*
X195787915Y-195157200D01*
X195716487Y-195085771D01*
X195716487Y-195228629D01*
X197073630Y-196514343D02*
X196930773Y-196585771D01*
X196645059Y-196585771D01*
X196502201Y-196514343D01*
X196430773Y-196442914D01*
X196359344Y-196300057D01*
X196359344Y-195871486D01*
X196430773Y-195728629D01*
X196502201Y-195657200D01*
X196645059Y-195585771D01*
X196930773Y-195585771D01*
X197073630Y-195657200D01*
X198359344Y-196585771D02*
X198359344Y-195800057D01*
X198287915Y-195657200D01*
X198145058Y-195585771D01*
X197859344Y-195585771D01*
X197716487Y-195657200D01*
X198359344Y-196514343D02*
X198216487Y-196585771D01*
X197859344Y-196585771D01*
X197716487Y-196514343D01*
X197645058Y-196371486D01*
X197645058Y-196228629D01*
X197716487Y-196085771D01*
X197859344Y-196014343D01*
X198216487Y-196014343D01*
X198359344Y-195942914D01*
X199716487Y-196585771D02*
X199716487Y-195085771D01*
X199716487Y-196514343D02*
X199573630Y-196585771D01*
X199287916Y-196585771D01*
X199145058Y-196514343D01*
X199073630Y-196442914D01*
X199002201Y-196300057D01*
X199002201Y-195871486D01*
X199073630Y-195728629D01*
X199145058Y-195657200D01*
X199287916Y-195585771D01*
X199573630Y-195585771D01*
X199716487Y-195657200D01*
X202216487Y-195585771D02*
X202216487Y-196585771D01*
X201859344Y-195014343D02*
X201502201Y-196085771D01*
X202430773Y-196085771D01*
X203002201Y-196442914D02*
X203073629Y-196514343D01*
X203002201Y-196585771D01*
X202930772Y-196514343D01*
X203002201Y-196442914D01*
X203002201Y-196585771D01*
X204002201Y-195085771D02*
X204145058Y-195085771D01*
X204287915Y-195157200D01*
X204359344Y-195228629D01*
X204430773Y-195371486D01*
X204502201Y-195657200D01*
X204502201Y-196014343D01*
X204430773Y-196300057D01*
X204359344Y-196442914D01*
X204287915Y-196514343D01*
X204145058Y-196585771D01*
X204002201Y-196585771D01*
X203859344Y-196514343D01*
X203787915Y-196442914D01*
X203716487Y-196300057D01*
X203645058Y-196014343D01*
X203645058Y-195657200D01*
X203716487Y-195371486D01*
X203787915Y-195228629D01*
X203859344Y-195157200D01*
X204002201Y-195085771D01*
X205145058Y-196442914D02*
X205216486Y-196514343D01*
X205145058Y-196585771D01*
X205073629Y-196514343D01*
X205145058Y-196442914D01*
X205145058Y-196585771D01*
X206573630Y-195085771D02*
X205859344Y-195085771D01*
X205787915Y-195800057D01*
X205859344Y-195728629D01*
X206002201Y-195657200D01*
X206359344Y-195657200D01*
X206502201Y-195728629D01*
X206573630Y-195800057D01*
X206645058Y-195942914D01*
X206645058Y-196300057D01*
X206573630Y-196442914D01*
X206502201Y-196514343D01*
X206359344Y-196585771D01*
X206002201Y-196585771D01*
X205859344Y-196514343D01*
X205787915Y-196442914D01*
D10*
D11*
X177002200Y-191507200D02*
X285002200Y-191507200D01*
D10*
D12*
X264216486Y-193785771D02*
X263716486Y-193071486D01*
X263359343Y-193785771D02*
X263359343Y-192285771D01*
X263930771Y-192285771D01*
X264073629Y-192357200D01*
X264145057Y-192428629D01*
X264216486Y-192571486D01*
X264216486Y-192785771D01*
X264145057Y-192928629D01*
X264073629Y-193000057D01*
X263930771Y-193071486D01*
X263359343Y-193071486D01*
X265430771Y-193714343D02*
X265287914Y-193785771D01*
X265002200Y-193785771D01*
X264859343Y-193714343D01*
X264787914Y-193571486D01*
X264787914Y-193000057D01*
X264859343Y-192857200D01*
X265002200Y-192785771D01*
X265287914Y-192785771D01*
X265430771Y-192857200D01*
X265502200Y-193000057D01*
X265502200Y-193142914D01*
X264787914Y-193285771D01*
X266002200Y-192785771D02*
X266359343Y-193785771D01*
X266716485Y-192785771D01*
X267287914Y-193642914D02*
X267359342Y-193714343D01*
X267287914Y-193785771D01*
X267216485Y-193714343D01*
X267287914Y-193642914D01*
X267287914Y-193785771D01*
X267287914Y-192857200D02*
X267359342Y-192928629D01*
X267287914Y-193000057D01*
X267216485Y-192928629D01*
X267287914Y-192857200D01*
X267287914Y-193000057D01*
D10*
D11*
X178287914Y-193714343D02*
X178502200Y-193785771D01*
X178859343Y-193785771D01*
X179002200Y-193714343D01*
X179073629Y-193642914D01*
X179145057Y-193500057D01*
X179145057Y-193357200D01*
X179073629Y-193214343D01*
X179002200Y-193142914D01*
X178859343Y-193071486D01*
X178573629Y-193000057D01*
X178430771Y-192928629D01*
X178359343Y-192857200D01*
X178287914Y-192714343D01*
X178287914Y-192571486D01*
X178359343Y-192428629D01*
X178430771Y-192357200D01*
X178573629Y-192285771D01*
X178930771Y-192285771D01*
X179145057Y-192357200D01*
X179787914Y-193785771D02*
X179787914Y-192785771D01*
X179787914Y-192285771D02*
X179716485Y-192357200D01*
X179787914Y-192428629D01*
X179859342Y-192357200D01*
X179787914Y-192285771D01*
X179787914Y-192428629D01*
X180359343Y-192785771D02*
X181145057Y-192785771D01*
X180359343Y-193785771D01*
X181145057Y-193785771D01*
X182287914Y-193714343D02*
X182145057Y-193785771D01*
X181859343Y-193785771D01*
X181716486Y-193714343D01*
X181645057Y-193571486D01*
X181645057Y-193000057D01*
X181716486Y-192857200D01*
X181859343Y-192785771D01*
X182145057Y-192785771D01*
X182287914Y-192857200D01*
X182359343Y-193000057D01*
X182359343Y-193142914D01*
X181645057Y-193285771D01*
X183002200Y-193642914D02*
X183073628Y-193714343D01*
X183002200Y-193785771D01*
X182930771Y-193714343D01*
X183002200Y-193642914D01*
X183002200Y-193785771D01*
X183002200Y-192857200D02*
X183073628Y-192928629D01*
X183002200Y-193000057D01*
X182930771Y-192928629D01*
X183002200Y-192857200D01*
X183002200Y-193000057D01*
X184787914Y-193357200D02*
X185502200Y-193357200D01*
X184645057Y-193785771D02*
X185145057Y-192285771D01*
X185645057Y-193785771D01*
X186787914Y-192785771D02*
X186787914Y-193785771D01*
X186430771Y-192214343D02*
X186073628Y-193285771D01*
X187002200Y-193285771D01*
D10*
D11*
X263359343Y-196585771D02*
X263359343Y-195085771D01*
X264716486Y-196585771D02*
X264716486Y-195085771D01*
X264716486Y-196514343D02*
X264573629Y-196585771D01*
X264287915Y-196585771D01*
X264145057Y-196514343D01*
X264073629Y-196442914D01*
X264002200Y-196300057D01*
X264002200Y-195871486D01*
X264073629Y-195728629D01*
X264145057Y-195657200D01*
X264287915Y-195585771D01*
X264573629Y-195585771D01*
X264716486Y-195657200D01*
X265430772Y-196442914D02*
X265502200Y-196514343D01*
X265430772Y-196585771D01*
X265359343Y-196514343D01*
X265430772Y-196442914D01*
X265430772Y-196585771D01*
X265430772Y-195657200D02*
X265502200Y-195728629D01*
X265430772Y-195800057D01*
X265359343Y-195728629D01*
X265430772Y-195657200D01*
X265430772Y-195800057D01*
X268073629Y-196585771D02*
X267216486Y-196585771D01*
X267645058Y-196585771D02*
X267645058Y-195085771D01*
X267502201Y-195300057D01*
X267359343Y-195442914D01*
X267216486Y-195514343D01*
X269787914Y-195014343D02*
X268502200Y-196942914D01*
X271073629Y-196585771D02*
X270216486Y-196585771D01*
X270645058Y-196585771D02*
X270645058Y-195085771D01*
X270502201Y-195300057D01*
X270359343Y-195442914D01*
X270216486Y-195514343D01*
D10*
D11*
X177002200Y-187507200D02*
X285002200Y-187507200D01*
D10*
D13*
X178454581Y-188211962D02*
X179597438Y-188211962D01*
X178776010Y-190211962D02*
X179026010Y-188211962D01*
X180014105Y-190211962D02*
X180180771Y-188878629D01*
X180264105Y-188211962D02*
X180156962Y-188307200D01*
X180240295Y-188402438D01*
X180347439Y-188307200D01*
X180264105Y-188211962D01*
X180240295Y-188402438D01*
X180847438Y-188878629D02*
X181609343Y-188878629D01*
X181216486Y-188211962D02*
X181002200Y-189926248D01*
X181073630Y-190116724D01*
X181252201Y-190211962D01*
X181442677Y-190211962D01*
X182395058Y-190211962D02*
X182216487Y-190116724D01*
X182145057Y-189926248D01*
X182359343Y-188211962D01*
X183930772Y-190116724D02*
X183728391Y-190211962D01*
X183347439Y-190211962D01*
X183168867Y-190116724D01*
X183097438Y-189926248D01*
X183192676Y-189164343D01*
X183311724Y-188973867D01*
X183514105Y-188878629D01*
X183895057Y-188878629D01*
X184073629Y-188973867D01*
X184145057Y-189164343D01*
X184121248Y-189354819D01*
X183145057Y-189545295D01*
X184895057Y-190021486D02*
X184978392Y-190116724D01*
X184871248Y-190211962D01*
X184787915Y-190116724D01*
X184895057Y-190021486D01*
X184871248Y-190211962D01*
X185026010Y-188973867D02*
X185109344Y-189069105D01*
X185002200Y-189164343D01*
X184918867Y-189069105D01*
X185026010Y-188973867D01*
X185002200Y-189164343D01*
D10*
D11*
X178859343Y-185600057D02*
X178359343Y-185600057D01*
X178359343Y-186385771D02*
X178359343Y-184885771D01*
X179073629Y-184885771D01*
X179645057Y-186385771D02*
X179645057Y-185385771D01*
X179645057Y-184885771D02*
X179573628Y-184957200D01*
X179645057Y-185028629D01*
X179716485Y-184957200D01*
X179645057Y-184885771D01*
X179645057Y-185028629D01*
X180573629Y-186385771D02*
X180430771Y-186314343D01*
X180359343Y-186171486D01*
X180359343Y-184885771D01*
X181716485Y-186314343D02*
X181573628Y-186385771D01*
X181287914Y-186385771D01*
X181145057Y-186314343D01*
X181073628Y-186171486D01*
X181073628Y-185600057D01*
X181145057Y-185457200D01*
X181287914Y-185385771D01*
X181573628Y-185385771D01*
X181716485Y-185457200D01*
X181787914Y-185600057D01*
X181787914Y-185742914D01*
X181073628Y-185885771D01*
X182430771Y-186242914D02*
X182502199Y-186314343D01*
X182430771Y-186385771D01*
X182359342Y-186314343D01*
X182430771Y-186242914D01*
X182430771Y-186385771D01*
X182430771Y-185457200D02*
X182502199Y-185528629D01*
X182430771Y-185600057D01*
X182359342Y-185528629D01*
X182430771Y-185457200D01*
X182430771Y-185600057D01*
X184930771Y-186385771D02*
X184930771Y-185600057D01*
X184859342Y-185457200D01*
X184716485Y-185385771D01*
X184430771Y-185385771D01*
X184287914Y-185457200D01*
X184930771Y-186314343D02*
X184787914Y-186385771D01*
X184430771Y-186385771D01*
X184287914Y-186314343D01*
X184216485Y-186171486D01*
X184216485Y-186028629D01*
X184287914Y-185885771D01*
X184430771Y-185814343D01*
X184787914Y-185814343D01*
X184930771Y-185742914D01*
X185502200Y-185385771D02*
X185859343Y-186385771D01*
X186216485Y-185385771D01*
X187430771Y-186385771D02*
X187430771Y-185600057D01*
X187359342Y-185457200D01*
X187216485Y-185385771D01*
X186930771Y-185385771D01*
X186787914Y-185457200D01*
X187430771Y-186314343D02*
X187287914Y-186385771D01*
X186930771Y-186385771D01*
X186787914Y-186314343D01*
X186716485Y-186171486D01*
X186716485Y-186028629D01*
X186787914Y-185885771D01*
X186930771Y-185814343D01*
X187287914Y-185814343D01*
X187430771Y-185742914D01*
X188359343Y-186385771D02*
X188216485Y-186314343D01*
X188145057Y-186171486D01*
X188145057Y-184885771D01*
X189145057Y-186385771D02*
X189002199Y-186314343D01*
X188930771Y-186242914D01*
X188859342Y-186100057D01*
X188859342Y-185671486D01*
X188930771Y-185528629D01*
X189002199Y-185457200D01*
X189145057Y-185385771D01*
X189359342Y-185385771D01*
X189502199Y-185457200D01*
X189573628Y-185528629D01*
X189645057Y-185671486D01*
X189645057Y-186100057D01*
X189573628Y-186242914D01*
X189502199Y-186314343D01*
X189359342Y-186385771D01*
X189145057Y-186385771D01*
X190287914Y-185385771D02*
X190287914Y-186385771D01*
X190287914Y-185528629D02*
X190359342Y-185457200D01*
X190502200Y-185385771D01*
X190716485Y-185385771D01*
X190859342Y-185457200D01*
X190930771Y-185600057D01*
X190930771Y-186385771D01*
X191287914Y-186528629D02*
X192430771Y-186528629D01*
X193430771Y-186314343D02*
X193287914Y-186385771D01*
X193002200Y-186385771D01*
X192859342Y-186314343D01*
X192787914Y-186242914D01*
X192716485Y-186100057D01*
X192716485Y-185671486D01*
X192787914Y-185528629D01*
X192859342Y-185457200D01*
X193002200Y-185385771D01*
X193287914Y-185385771D01*
X193430771Y-185457200D01*
X194287914Y-186385771D02*
X194145056Y-186314343D01*
X194073628Y-186242914D01*
X194002199Y-186100057D01*
X194002199Y-185671486D01*
X194073628Y-185528629D01*
X194145056Y-185457200D01*
X194287914Y-185385771D01*
X194502199Y-185385771D01*
X194645056Y-185457200D01*
X194716485Y-185528629D01*
X194787914Y-185671486D01*
X194787914Y-186100057D01*
X194716485Y-186242914D01*
X194645056Y-186314343D01*
X194502199Y-186385771D01*
X194287914Y-186385771D01*
X195430771Y-186385771D02*
X195430771Y-185385771D01*
X195430771Y-185528629D02*
X195502199Y-185457200D01*
X195645057Y-185385771D01*
X195859342Y-185385771D01*
X196002199Y-185457200D01*
X196073628Y-185600057D01*
X196073628Y-186385771D01*
X196073628Y-185600057D02*
X196145057Y-185457200D01*
X196287914Y-185385771D01*
X196502199Y-185385771D01*
X196645057Y-185457200D01*
X196716485Y-185600057D01*
X196716485Y-186385771D01*
X197430771Y-186385771D02*
X197430771Y-185385771D01*
X197430771Y-185528629D02*
X197502199Y-185457200D01*
X197645057Y-185385771D01*
X197859342Y-185385771D01*
X198002199Y-185457200D01*
X198073628Y-185600057D01*
X198073628Y-186385771D01*
X198073628Y-185600057D02*
X198145057Y-185457200D01*
X198287914Y-185385771D01*
X198502199Y-185385771D01*
X198645057Y-185457200D01*
X198716485Y-185600057D01*
X198716485Y-186385771D01*
X200073628Y-185385771D02*
X200073628Y-186385771D01*
X199430771Y-185385771D02*
X199430771Y-186171486D01*
X199502199Y-186314343D01*
X199645057Y-186385771D01*
X199859342Y-186385771D01*
X200002199Y-186314343D01*
X200073628Y-186242914D01*
X200787914Y-185385771D02*
X200787914Y-186385771D01*
X200787914Y-185528629D02*
X200859342Y-185457200D01*
X201002200Y-185385771D01*
X201216485Y-185385771D01*
X201359342Y-185457200D01*
X201430771Y-185600057D01*
X201430771Y-186385771D01*
X202145057Y-186385771D02*
X202145057Y-185385771D01*
X202145057Y-184885771D02*
X202073628Y-184957200D01*
X202145057Y-185028629D01*
X202216485Y-184957200D01*
X202145057Y-184885771D01*
X202145057Y-185028629D01*
X203502200Y-186314343D02*
X203359343Y-186385771D01*
X203073629Y-186385771D01*
X202930771Y-186314343D01*
X202859343Y-186242914D01*
X202787914Y-186100057D01*
X202787914Y-185671486D01*
X202859343Y-185528629D01*
X202930771Y-185457200D01*
X203073629Y-185385771D01*
X203359343Y-185385771D01*
X203502200Y-185457200D01*
X204787914Y-186385771D02*
X204787914Y-185600057D01*
X204716485Y-185457200D01*
X204573628Y-185385771D01*
X204287914Y-185385771D01*
X204145057Y-185457200D01*
X204787914Y-186314343D02*
X204645057Y-186385771D01*
X204287914Y-186385771D01*
X204145057Y-186314343D01*
X204073628Y-186171486D01*
X204073628Y-186028629D01*
X204145057Y-185885771D01*
X204287914Y-185814343D01*
X204645057Y-185814343D01*
X204787914Y-185742914D01*
X205287914Y-185385771D02*
X205859343Y-185385771D01*
X205502200Y-184885771D02*
X205502200Y-186171486D01*
X205573628Y-186314343D01*
X205716486Y-186385771D01*
X205859343Y-186385771D01*
X206359343Y-186385771D02*
X206359343Y-185385771D01*
X206359343Y-184885771D02*
X206287914Y-184957200D01*
X206359343Y-185028629D01*
X206430771Y-184957200D01*
X206359343Y-184885771D01*
X206359343Y-185028629D01*
X207287915Y-186385771D02*
X207145057Y-186314343D01*
X207073629Y-186242914D01*
X207002200Y-186100057D01*
X207002200Y-185671486D01*
X207073629Y-185528629D01*
X207145057Y-185457200D01*
X207287915Y-185385771D01*
X207502200Y-185385771D01*
X207645057Y-185457200D01*
X207716486Y-185528629D01*
X207787915Y-185671486D01*
X207787915Y-186100057D01*
X207716486Y-186242914D01*
X207645057Y-186314343D01*
X207502200Y-186385771D01*
X207287915Y-186385771D01*
X208430772Y-185385771D02*
X208430772Y-186385771D01*
X208430772Y-185528629D02*
X208502200Y-185457200D01*
X208645058Y-185385771D01*
X208859343Y-185385771D01*
X209002200Y-185457200D01*
X209073629Y-185600057D01*
X209073629Y-186385771D01*
X209430772Y-186528629D02*
X210573629Y-186528629D01*
X210930772Y-186385771D02*
X210930772Y-184885771D01*
X210930772Y-185457200D02*
X211073629Y-185385771D01*
X211359343Y-185385771D01*
X211502200Y-185457200D01*
X211573629Y-185528629D01*
X211645058Y-185671486D01*
X211645058Y-186100057D01*
X211573629Y-186242914D01*
X211502200Y-186314343D01*
X211359343Y-186385771D01*
X211073629Y-186385771D01*
X210930772Y-186314343D01*
X212502201Y-186385771D02*
X212359343Y-186314343D01*
X212287915Y-186242914D01*
X212216486Y-186100057D01*
X212216486Y-185671486D01*
X212287915Y-185528629D01*
X212359343Y-185457200D01*
X212502201Y-185385771D01*
X212716486Y-185385771D01*
X212859343Y-185457200D01*
X212930772Y-185528629D01*
X213002201Y-185671486D01*
X213002201Y-186100057D01*
X212930772Y-186242914D01*
X212859343Y-186314343D01*
X212716486Y-186385771D01*
X212502201Y-186385771D01*
X214287915Y-186385771D02*
X214287915Y-185600057D01*
X214216486Y-185457200D01*
X214073629Y-185385771D01*
X213787915Y-185385771D01*
X213645058Y-185457200D01*
X214287915Y-186314343D02*
X214145058Y-186385771D01*
X213787915Y-186385771D01*
X213645058Y-186314343D01*
X213573629Y-186171486D01*
X213573629Y-186028629D01*
X213645058Y-185885771D01*
X213787915Y-185814343D01*
X214145058Y-185814343D01*
X214287915Y-185742914D01*
X215002201Y-186385771D02*
X215002201Y-185385771D01*
X215002201Y-185671486D02*
X215073629Y-185528629D01*
X215145058Y-185457200D01*
X215287915Y-185385771D01*
X215430772Y-185385771D01*
X216573629Y-186385771D02*
X216573629Y-184885771D01*
X216573629Y-186314343D02*
X216430772Y-186385771D01*
X216145058Y-186385771D01*
X216002200Y-186314343D01*
X215930772Y-186242914D01*
X215859343Y-186100057D01*
X215859343Y-185671486D01*
X215930772Y-185528629D01*
X216002200Y-185457200D01*
X216145058Y-185385771D01*
X216430772Y-185385771D01*
X216573629Y-185457200D01*
X217287915Y-186242914D02*
X217359343Y-186314343D01*
X217287915Y-186385771D01*
X217216486Y-186314343D01*
X217287915Y-186242914D01*
X217287915Y-186385771D01*
X218002201Y-186385771D02*
X218002201Y-184885771D01*
X218145058Y-185814343D02*
X218573629Y-186385771D01*
X218573629Y-185385771D02*
X218002201Y-185957200D01*
X219216487Y-186385771D02*
X219216487Y-185385771D01*
X219216487Y-184885771D02*
X219145058Y-184957200D01*
X219216487Y-185028629D01*
X219287915Y-184957200D01*
X219216487Y-184885771D01*
X219216487Y-185028629D01*
X220573630Y-186314343D02*
X220430773Y-186385771D01*
X220145059Y-186385771D01*
X220002201Y-186314343D01*
X219930773Y-186242914D01*
X219859344Y-186100057D01*
X219859344Y-185671486D01*
X219930773Y-185528629D01*
X220002201Y-185457200D01*
X220145059Y-185385771D01*
X220430773Y-185385771D01*
X220573630Y-185457200D01*
X221859344Y-186385771D02*
X221859344Y-185600057D01*
X221787915Y-185457200D01*
X221645058Y-185385771D01*
X221359344Y-185385771D01*
X221216487Y-185457200D01*
X221859344Y-186314343D02*
X221716487Y-186385771D01*
X221359344Y-186385771D01*
X221216487Y-186314343D01*
X221145058Y-186171486D01*
X221145058Y-186028629D01*
X221216487Y-185885771D01*
X221359344Y-185814343D01*
X221716487Y-185814343D01*
X221859344Y-185742914D01*
X223216487Y-186385771D02*
X223216487Y-184885771D01*
X223216487Y-186314343D02*
X223073630Y-186385771D01*
X222787916Y-186385771D01*
X222645058Y-186314343D01*
X222573630Y-186242914D01*
X222502201Y-186100057D01*
X222502201Y-185671486D01*
X222573630Y-185528629D01*
X222645058Y-185457200D01*
X222787916Y-185385771D01*
X223073630Y-185385771D01*
X223216487Y-185457200D01*
X223573630Y-186528629D02*
X224716487Y-186528629D01*
X225073630Y-185385771D02*
X225073630Y-186885771D01*
X225073630Y-185457200D02*
X225216487Y-185385771D01*
X225502201Y-185385771D01*
X225645058Y-185457200D01*
X225716487Y-185528629D01*
X225787916Y-185671486D01*
X225787916Y-186100057D01*
X225716487Y-186242914D01*
X225645058Y-186314343D01*
X225502201Y-186385771D01*
X225216487Y-186385771D01*
X225073630Y-186314343D01*
X227073630Y-186314343D02*
X226930773Y-186385771D01*
X226645059Y-186385771D01*
X226502201Y-186314343D01*
X226430773Y-186242914D01*
X226359344Y-186100057D01*
X226359344Y-185671486D01*
X226430773Y-185528629D01*
X226502201Y-185457200D01*
X226645059Y-185385771D01*
X226930773Y-185385771D01*
X227073630Y-185457200D01*
X227716487Y-186385771D02*
X227716487Y-184885771D01*
X227716487Y-185457200D02*
X227859344Y-185385771D01*
X228145058Y-185385771D01*
X228287915Y-185457200D01*
X228359344Y-185528629D01*
X228430773Y-185671486D01*
X228430773Y-186100057D01*
X228359344Y-186242914D01*
X228287915Y-186314343D01*
X228145058Y-186385771D01*
X227859344Y-186385771D01*
X227716487Y-186314343D01*
D10*
D11*
X177002200Y-181507200D02*
X285002200Y-181507200D01*
D10*
D11*
X178287914Y-183614343D02*
X178502200Y-183685771D01*
X178859343Y-183685771D01*
X179002200Y-183614343D01*
X179073629Y-183542914D01*
X179145057Y-183400057D01*
X179145057Y-183257200D01*
X179073629Y-183114343D01*
X179002200Y-183042914D01*
X178859343Y-182971486D01*
X178573629Y-182900057D01*
X178430771Y-182828629D01*
X178359343Y-182757200D01*
X178287914Y-182614343D01*
X178287914Y-182471486D01*
X178359343Y-182328629D01*
X178430771Y-182257200D01*
X178573629Y-182185771D01*
X178930771Y-182185771D01*
X179145057Y-182257200D01*
X179787914Y-183685771D02*
X179787914Y-182185771D01*
X180430771Y-183685771D02*
X180430771Y-182900057D01*
X180359342Y-182757200D01*
X180216485Y-182685771D01*
X180002200Y-182685771D01*
X179859342Y-182757200D01*
X179787914Y-182828629D01*
X181716485Y-183614343D02*
X181573628Y-183685771D01*
X181287914Y-183685771D01*
X181145057Y-183614343D01*
X181073628Y-183471486D01*
X181073628Y-182900057D01*
X181145057Y-182757200D01*
X181287914Y-182685771D01*
X181573628Y-182685771D01*
X181716485Y-182757200D01*
X181787914Y-182900057D01*
X181787914Y-183042914D01*
X181073628Y-183185771D01*
X183002199Y-183614343D02*
X182859342Y-183685771D01*
X182573628Y-183685771D01*
X182430771Y-183614343D01*
X182359342Y-183471486D01*
X182359342Y-182900057D01*
X182430771Y-182757200D01*
X182573628Y-182685771D01*
X182859342Y-182685771D01*
X183002199Y-182757200D01*
X183073628Y-182900057D01*
X183073628Y-183042914D01*
X182359342Y-183185771D01*
X183502199Y-182685771D02*
X184073628Y-182685771D01*
X183716485Y-182185771D02*
X183716485Y-183471486D01*
X183787913Y-183614343D01*
X183930771Y-183685771D01*
X184073628Y-183685771D01*
X184573628Y-183542914D02*
X184645056Y-183614343D01*
X184573628Y-183685771D01*
X184502199Y-183614343D01*
X184573628Y-183542914D01*
X184573628Y-183685771D01*
X184573628Y-182757200D02*
X184645056Y-182828629D01*
X184573628Y-182900057D01*
X184502199Y-182828629D01*
X184573628Y-182757200D01*
X184573628Y-182900057D01*
D10*
D11*
X197002200Y-191507200D02*
X197002200Y-194507200D01*
D10*
D11*
X261002200Y-191507200D02*
X261002200Y-198007200D01*
D14*
X184490000Y-120330000D02*
X184490000Y-119400000D01*
X184490000Y-117170000D02*
X184490000Y-118100000D01*
X184490000Y-117170000D02*
X186650000Y-117170000D01*
X184490000Y-120330000D02*
X185950000Y-120330000D01*
X190510000Y-117170000D02*
X190510000Y-118100000D01*
X190510000Y-120330000D02*
X190510000Y-119400000D01*
X190510000Y-120330000D02*
X188350000Y-120330000D01*
X190510000Y-117170000D02*
X189050000Y-117170000D01*
X190510000Y-122170000D02*
X190510000Y-123100000D01*
X190510000Y-125330000D02*
X190510000Y-124400000D01*
X190510000Y-125330000D02*
X188350000Y-125330000D01*
X190510000Y-122170000D02*
X189050000Y-122170000D01*
X184490000Y-125330000D02*
X184490000Y-124400000D01*
X184490000Y-122170000D02*
X184490000Y-123100000D01*
X184490000Y-122170000D02*
X186650000Y-122170000D01*
X184490000Y-125330000D02*
X185950000Y-125330000D01*
X194510000Y-119670000D02*
X194510000Y-120600000D01*
X194510000Y-122830000D02*
X194510000Y-121900000D01*
X194510000Y-122830000D02*
X192350000Y-122830000D01*
X194510000Y-119670000D02*
X193050000Y-119670000D01*
X196250000Y-126430000D02*
X194250000Y-126430000D01*
X194250000Y-128570000D02*
X196250000Y-128570000D01*
X194250000Y-125570000D02*
X196250000Y-125570000D01*
X196250000Y-123430000D02*
X194250000Y-123430000D01*
X186500000Y-111930000D02*
X184500000Y-111930000D01*
X184500000Y-114070000D02*
X186500000Y-114070000D01*
X186500000Y-114430000D02*
X184500000Y-114430000D01*
X184500000Y-116570000D02*
X186500000Y-116570000D01*
X191500000Y-116570000D02*
X193500000Y-116570000D01*
X193500000Y-114430000D02*
X191500000Y-114430000D01*
X193500000Y-111930000D02*
X191500000Y-111930000D01*
X191500000Y-114070000D02*
X193500000Y-114070000D01*
X200500000Y-119070000D02*
X202500000Y-119070000D01*
X202500000Y-116930000D02*
X200500000Y-116930000D01*
X200500000Y-116320000D02*
X202500000Y-116320000D01*
X202500000Y-114180000D02*
X200500000Y-114180000D01*
X198200000Y-122470000D02*
X200200000Y-122470000D01*
X200200000Y-120330000D02*
X198200000Y-120330000D01*
D10*
X185566667Y-119183333D02*
X185633333Y-119150000D01*
X185700000Y-119083333D01*
X185800000Y-118983333D01*
X185866667Y-118950000D01*
X185933333Y-118950000D01*
X185900000Y-119116667D02*
X185966667Y-119083333D01*
X186033333Y-119016667D01*
X186066667Y-118883333D01*
X186066667Y-118650000D01*
X186033333Y-118516667D01*
X185966667Y-118450000D01*
X185900000Y-118416667D01*
X185766667Y-118416667D01*
X185700000Y-118450000D01*
X185633333Y-118516667D01*
X185600000Y-118650000D01*
X185600000Y-118883333D01*
X185633333Y-119016667D01*
X185700000Y-119083333D01*
X185766667Y-119116667D01*
X185900000Y-119116667D01*
X184933334Y-119116667D02*
X185333334Y-119116667D01*
X185133334Y-119116667D02*
X185133334Y-118416667D01*
X185200000Y-118516667D01*
X185266667Y-118583333D01*
X185333334Y-118616667D01*
X189566667Y-119083333D02*
X189633333Y-119050000D01*
X189700000Y-118983333D01*
X189800000Y-118883333D01*
X189866667Y-118850000D01*
X189933333Y-118850000D01*
X189900000Y-119016667D02*
X189966667Y-118983333D01*
X190033333Y-118916667D01*
X190066667Y-118783333D01*
X190066667Y-118550000D01*
X190033333Y-118416667D01*
X189966667Y-118350000D01*
X189900000Y-118316667D01*
X189766667Y-118316667D01*
X189700000Y-118350000D01*
X189633333Y-118416667D01*
X189600000Y-118550000D01*
X189600000Y-118783333D01*
X189633333Y-118916667D01*
X189700000Y-118983333D01*
X189766667Y-119016667D01*
X189900000Y-119016667D01*
X189333334Y-118383333D02*
X189300000Y-118350000D01*
X189233334Y-118316667D01*
X189066667Y-118316667D01*
X189000000Y-118350000D01*
X188966667Y-118383333D01*
X188933334Y-118450000D01*
X188933334Y-118516667D01*
X188966667Y-118616667D01*
X189366667Y-119016667D01*
X188933334Y-119016667D01*
X189666667Y-124183333D02*
X189733333Y-124150000D01*
X189800000Y-124083333D01*
X189900000Y-123983333D01*
X189966667Y-123950000D01*
X190033333Y-123950000D01*
X190000000Y-124116667D02*
X190066667Y-124083333D01*
X190133333Y-124016667D01*
X190166667Y-123883333D01*
X190166667Y-123650000D01*
X190133333Y-123516667D01*
X190066667Y-123450000D01*
X190000000Y-123416667D01*
X189866667Y-123416667D01*
X189800000Y-123450000D01*
X189733333Y-123516667D01*
X189700000Y-123650000D01*
X189700000Y-123883333D01*
X189733333Y-124016667D01*
X189800000Y-124083333D01*
X189866667Y-124116667D01*
X190000000Y-124116667D01*
X189466667Y-123416667D02*
X189033334Y-123416667D01*
X189266667Y-123683333D01*
X189166667Y-123683333D01*
X189100000Y-123716667D01*
X189066667Y-123750000D01*
X189033334Y-123816667D01*
X189033334Y-123983333D01*
X189066667Y-124050000D01*
X189100000Y-124083333D01*
X189166667Y-124116667D01*
X189366667Y-124116667D01*
X189433334Y-124083333D01*
X189466667Y-124050000D01*
X182866667Y-124183333D02*
X182933333Y-124150000D01*
X183000000Y-124083333D01*
X183100000Y-123983333D01*
X183166667Y-123950000D01*
X183233333Y-123950000D01*
X183200000Y-124116667D02*
X183266667Y-124083333D01*
X183333333Y-124016667D01*
X183366667Y-123883333D01*
X183366667Y-123650000D01*
X183333333Y-123516667D01*
X183266667Y-123450000D01*
X183200000Y-123416667D01*
X183066667Y-123416667D01*
X183000000Y-123450000D01*
X182933333Y-123516667D01*
X182900000Y-123650000D01*
X182900000Y-123883333D01*
X182933333Y-124016667D01*
X183000000Y-124083333D01*
X183066667Y-124116667D01*
X183200000Y-124116667D01*
X182300000Y-123650000D02*
X182300000Y-124116667D01*
X182466667Y-123383333D02*
X182633334Y-123883333D01*
X182200000Y-123883333D01*
X193666667Y-121683333D02*
X193733333Y-121650000D01*
X193800000Y-121583333D01*
X193900000Y-121483333D01*
X193966667Y-121450000D01*
X194033333Y-121450000D01*
X194000000Y-121616667D02*
X194066667Y-121583333D01*
X194133333Y-121516667D01*
X194166667Y-121383333D01*
X194166667Y-121150000D01*
X194133333Y-121016667D01*
X194066667Y-120950000D01*
X194000000Y-120916667D01*
X193866667Y-120916667D01*
X193800000Y-120950000D01*
X193733333Y-121016667D01*
X193700000Y-121150000D01*
X193700000Y-121383333D01*
X193733333Y-121516667D01*
X193800000Y-121583333D01*
X193866667Y-121616667D01*
X194000000Y-121616667D01*
X193066667Y-120916667D02*
X193400000Y-120916667D01*
X193433334Y-121250000D01*
X193400000Y-121216667D01*
X193333334Y-121183333D01*
X193166667Y-121183333D01*
X193100000Y-121216667D01*
X193066667Y-121250000D01*
X193033334Y-121316667D01*
X193033334Y-121483333D01*
X193066667Y-121550000D01*
X193100000Y-121583333D01*
X193166667Y-121616667D01*
X193333334Y-121616667D01*
X193400000Y-121583333D01*
X193433334Y-121550000D01*
X195316666Y-127916667D02*
X195550000Y-127583333D01*
X195716666Y-127916667D02*
X195716666Y-127216667D01*
X195450000Y-127216667D01*
X195383333Y-127250000D01*
X195350000Y-127283333D01*
X195316666Y-127350000D01*
X195316666Y-127450000D01*
X195350000Y-127516667D01*
X195383333Y-127550000D01*
X195450000Y-127583333D01*
X195716666Y-127583333D01*
X194650000Y-127916667D02*
X195050000Y-127916667D01*
X194850000Y-127916667D02*
X194850000Y-127216667D01*
X194916666Y-127316667D01*
X194983333Y-127383333D01*
X195050000Y-127416667D01*
X195316666Y-124816667D02*
X195550000Y-124483333D01*
X195716666Y-124816667D02*
X195716666Y-124116667D01*
X195450000Y-124116667D01*
X195383333Y-124150000D01*
X195350000Y-124183333D01*
X195316666Y-124250000D01*
X195316666Y-124350000D01*
X195350000Y-124416667D01*
X195383333Y-124450000D01*
X195450000Y-124483333D01*
X195716666Y-124483333D01*
X195050000Y-124183333D02*
X195016666Y-124150000D01*
X194950000Y-124116667D01*
X194783333Y-124116667D01*
X194716666Y-124150000D01*
X194683333Y-124183333D01*
X194650000Y-124250000D01*
X194650000Y-124316667D01*
X194683333Y-124416667D01*
X195083333Y-124816667D01*
X194650000Y-124816667D01*
X185616666Y-113316667D02*
X185850000Y-112983333D01*
X186016666Y-113316667D02*
X186016666Y-112616667D01*
X185750000Y-112616667D01*
X185683333Y-112650000D01*
X185650000Y-112683333D01*
X185616666Y-112750000D01*
X185616666Y-112850000D01*
X185650000Y-112916667D01*
X185683333Y-112950000D01*
X185750000Y-112983333D01*
X186016666Y-112983333D01*
X185383333Y-112616667D02*
X184950000Y-112616667D01*
X185183333Y-112883333D01*
X185083333Y-112883333D01*
X185016666Y-112916667D01*
X184983333Y-112950000D01*
X184950000Y-113016667D01*
X184950000Y-113183333D01*
X184983333Y-113250000D01*
X185016666Y-113283333D01*
X185083333Y-113316667D01*
X185283333Y-113316667D01*
X185350000Y-113283333D01*
X185383333Y-113250000D01*
X185616666Y-115816667D02*
X185850000Y-115483333D01*
X186016666Y-115816667D02*
X186016666Y-115116667D01*
X185750000Y-115116667D01*
X185683333Y-115150000D01*
X185650000Y-115183333D01*
X185616666Y-115250000D01*
X185616666Y-115350000D01*
X185650000Y-115416667D01*
X185683333Y-115450000D01*
X185750000Y-115483333D01*
X186016666Y-115483333D01*
X185016666Y-115350000D02*
X185016666Y-115816667D01*
X185183333Y-115083333D02*
X185350000Y-115583333D01*
X184916666Y-115583333D01*
X192616666Y-113416667D02*
X192850000Y-113083333D01*
X193016666Y-113416667D02*
X193016666Y-112716667D01*
X192750000Y-112716667D01*
X192683333Y-112750000D01*
X192650000Y-112783333D01*
X192616666Y-112850000D01*
X192616666Y-112950000D01*
X192650000Y-113016667D01*
X192683333Y-113050000D01*
X192750000Y-113083333D01*
X193016666Y-113083333D01*
X191983333Y-112716667D02*
X192316666Y-112716667D01*
X192350000Y-113050000D01*
X192316666Y-113016667D01*
X192250000Y-112983333D01*
X192083333Y-112983333D01*
X192016666Y-113016667D01*
X191983333Y-113050000D01*
X191950000Y-113116667D01*
X191950000Y-113283333D01*
X191983333Y-113350000D01*
X192016666Y-113383333D01*
X192083333Y-113416667D01*
X192250000Y-113416667D01*
X192316666Y-113383333D01*
X192350000Y-113350000D01*
X192616666Y-115816667D02*
X192850000Y-115483333D01*
X193016666Y-115816667D02*
X193016666Y-115116667D01*
X192750000Y-115116667D01*
X192683333Y-115150000D01*
X192650000Y-115183333D01*
X192616666Y-115250000D01*
X192616666Y-115350000D01*
X192650000Y-115416667D01*
X192683333Y-115450000D01*
X192750000Y-115483333D01*
X193016666Y-115483333D01*
X192016666Y-115116667D02*
X192150000Y-115116667D01*
X192216666Y-115150000D01*
X192250000Y-115183333D01*
X192316666Y-115283333D01*
X192350000Y-115416667D01*
X192350000Y-115683333D01*
X192316666Y-115750000D01*
X192283333Y-115783333D01*
X192216666Y-115816667D01*
X192083333Y-115816667D01*
X192016666Y-115783333D01*
X191983333Y-115750000D01*
X191950000Y-115683333D01*
X191950000Y-115516667D01*
X191983333Y-115450000D01*
X192016666Y-115416667D01*
X192083333Y-115383333D01*
X192216666Y-115383333D01*
X192283333Y-115416667D01*
X192316666Y-115450000D01*
X192350000Y-115516667D01*
X201816667Y-118550000D02*
X201483333Y-118316666D01*
X201816667Y-118150000D02*
X201116667Y-118150000D01*
X201116667Y-118416666D01*
X201150000Y-118483333D01*
X201183333Y-118516666D01*
X201250000Y-118550000D01*
X201350000Y-118550000D01*
X201416667Y-118516666D01*
X201450000Y-118483333D01*
X201483333Y-118416666D01*
X201483333Y-118150000D01*
X201816667Y-119216666D02*
X201816667Y-118816666D01*
X201816667Y-119016666D02*
X201116667Y-119016666D01*
X201216667Y-118950000D01*
X201283333Y-118883333D01*
X201316667Y-118816666D01*
X201116667Y-119450000D02*
X201116667Y-119916667D01*
X201816667Y-119616667D01*
X201916667Y-114850000D02*
X201583333Y-114616666D01*
X201916667Y-114450000D02*
X201216667Y-114450000D01*
X201216667Y-114716666D01*
X201250000Y-114783333D01*
X201283333Y-114816666D01*
X201350000Y-114850000D01*
X201450000Y-114850000D01*
X201516667Y-114816666D01*
X201550000Y-114783333D01*
X201583333Y-114716666D01*
X201583333Y-114450000D01*
X201216667Y-115083333D02*
X201216667Y-115516666D01*
X201483333Y-115283333D01*
X201483333Y-115383333D01*
X201516667Y-115450000D01*
X201550000Y-115483333D01*
X201616667Y-115516666D01*
X201783333Y-115516666D01*
X201850000Y-115483333D01*
X201883333Y-115450000D01*
X201916667Y-115383333D01*
X201916667Y-115183333D01*
X201883333Y-115116666D01*
X201850000Y-115083333D01*
X201216667Y-116116667D02*
X201216667Y-115983333D01*
X201250000Y-115916667D01*
X201283333Y-115883333D01*
X201383333Y-115816667D01*
X201516667Y-115783333D01*
X201783333Y-115783333D01*
X201850000Y-115816667D01*
X201883333Y-115850000D01*
X201916667Y-115916667D01*
X201916667Y-116050000D01*
X201883333Y-116116667D01*
X201850000Y-116150000D01*
X201783333Y-116183333D01*
X201616667Y-116183333D01*
X201550000Y-116150000D01*
X201516667Y-116116667D01*
X201483333Y-116050000D01*
X201483333Y-115916667D01*
X201516667Y-115850000D01*
X201550000Y-115816667D01*
X201616667Y-115783333D01*
X199516667Y-120950000D02*
X199183333Y-120716666D01*
X199516667Y-120550000D02*
X198816667Y-120550000D01*
X198816667Y-120816666D01*
X198850000Y-120883333D01*
X198883333Y-120916666D01*
X198950000Y-120950000D01*
X199050000Y-120950000D01*
X199116667Y-120916666D01*
X199150000Y-120883333D01*
X199183333Y-120816666D01*
X199183333Y-120550000D01*
X198816667Y-121183333D02*
X198816667Y-121616666D01*
X199083333Y-121383333D01*
X199083333Y-121483333D01*
X199116667Y-121550000D01*
X199150000Y-121583333D01*
X199216667Y-121616666D01*
X199383333Y-121616666D01*
X199450000Y-121583333D01*
X199483333Y-121550000D01*
X199516667Y-121483333D01*
X199516667Y-121283333D01*
X199483333Y-121216666D01*
X199450000Y-121183333D01*
X198816667Y-121850000D02*
X198816667Y-122316667D01*
X199516667Y-122016667D01*
M02*
