G04 #@! TF.FileFunction,Soldermask,Top*
%FSLAX46Y46*%
G04 Gerber Fmt 4.6, Leading zero omitted, Abs format (unit mm)*
G04 Created by KiCad (PCBNEW 4.0.5) date 03/17/18 11:36:00*
%MOMM*%
%LPD*%
G01*
G04 APERTURE LIST*
%ADD10C,0.100000*%
%ADD11C,0.150000*%
%ADD12C,0.300000*%
%ADD13C,0.400000*%
%ADD14R,3.500000X1.600000*%
%ADD15R,1.600000X2.000000*%
%ADD16R,2.000000X1.600000*%
%ADD17R,1.200000X0.900000*%
%ADD18R,1.143000X0.508000*%
%ADD19C,3.250000*%
%ADD20C,1.000000*%
%ADD21C,1.600000*%
%ADD22R,0.720000X0.720000*%
%ADD23R,2.000000X1.700000*%
%ADD24R,6.000000X5.500000*%
%ADD25R,1.700000X1.700000*%
%ADD26O,1.700000X1.700000*%
%ADD27R,1.750000X1.750000*%
%ADD28C,1.750000*%
%ADD29R,1.700000X2.000000*%
%ADD30R,0.900000X1.200000*%
%ADD31R,1.700000X0.800000*%
%ADD32R,4.000000X0.640000*%
%ADD33R,1.100000X4.600000*%
%ADD34R,10.800000X9.400000*%
%ADD35R,1.000000X3.000000*%
%ADD36R,1.560000X0.650000*%
%ADD37R,1.450000X0.450000*%
%ADD38R,1.550000X0.600000*%
%ADD39R,4.600000X1.100000*%
%ADD40R,9.400000X10.800000*%
%ADD41R,2.400000X3.500000*%
%ADD42R,2.500000X4.000000*%
%ADD43R,0.450000X0.600000*%
%ADD44R,5.500000X6.000000*%
%ADD45R,1.600000X1.000000*%
%ADD46R,1.000000X1.600000*%
%ADD47C,1.524000*%
G04 APERTURE END LIST*
D10*
D11*
X177002200Y-166007200D02*
X177002200Y-198007200D01*
X285002200Y-198007200D01*
X285002200Y-166007200D01*
X177002200Y-166007200D01*
D10*
D11*
X10000000Y-10000000D02*
X10000000Y-200007200D01*
X287002200Y-200007200D01*
X287002200Y-10000000D01*
X10000000Y-10000000D01*
D10*
D11*
X12000000Y-12000000D02*
X12000000Y-198007200D01*
X285002200Y-198007200D01*
X285002200Y-12000000D01*
X12000000Y-12000000D01*
D10*
D11*
X60000000Y-12000000D02*
X60000000Y-10000000D01*
D10*
D11*
X110000000Y-12000000D02*
X110000000Y-10000000D01*
D10*
D11*
X160000000Y-12000000D02*
X160000000Y-10000000D01*
D10*
D11*
X210000000Y-12000000D02*
X210000000Y-10000000D01*
D10*
D11*
X260000000Y-12000000D02*
X260000000Y-10000000D01*
D10*
D11*
X35990476Y-11588095D02*
X35247619Y-11588095D01*
X35619048Y-11588095D02*
X35619048Y-10288095D01*
X35495238Y-10473810D01*
X35371429Y-10597619D01*
X35247619Y-10659524D01*
D10*
D11*
X85247619Y-10411905D02*
X85309524Y-10350000D01*
X85433333Y-10288095D01*
X85742857Y-10288095D01*
X85866667Y-10350000D01*
X85928571Y-10411905D01*
X85990476Y-10535714D01*
X85990476Y-10659524D01*
X85928571Y-10845238D01*
X85185714Y-11588095D01*
X85990476Y-11588095D01*
D10*
D11*
X135185714Y-10288095D02*
X135990476Y-10288095D01*
X135557143Y-10783333D01*
X135742857Y-10783333D01*
X135866667Y-10845238D01*
X135928571Y-10907143D01*
X135990476Y-11030952D01*
X135990476Y-11340476D01*
X135928571Y-11464286D01*
X135866667Y-11526190D01*
X135742857Y-11588095D01*
X135371429Y-11588095D01*
X135247619Y-11526190D01*
X135185714Y-11464286D01*
D10*
D11*
X185866667Y-10721429D02*
X185866667Y-11588095D01*
X185557143Y-10226190D02*
X185247619Y-11154762D01*
X186052381Y-11154762D01*
D10*
D11*
X235928571Y-10288095D02*
X235309524Y-10288095D01*
X235247619Y-10907143D01*
X235309524Y-10845238D01*
X235433333Y-10783333D01*
X235742857Y-10783333D01*
X235866667Y-10845238D01*
X235928571Y-10907143D01*
X235990476Y-11030952D01*
X235990476Y-11340476D01*
X235928571Y-11464286D01*
X235866667Y-11526190D01*
X235742857Y-11588095D01*
X235433333Y-11588095D01*
X235309524Y-11526190D01*
X235247619Y-11464286D01*
D10*
D11*
X285866667Y-10288095D02*
X285619048Y-10288095D01*
X285495238Y-10350000D01*
X285433333Y-10411905D01*
X285309524Y-10597619D01*
X285247619Y-10845238D01*
X285247619Y-11340476D01*
X285309524Y-11464286D01*
X285371429Y-11526190D01*
X285495238Y-11588095D01*
X285742857Y-11588095D01*
X285866667Y-11526190D01*
X285928571Y-11464286D01*
X285990476Y-11340476D01*
X285990476Y-11030952D01*
X285928571Y-10907143D01*
X285866667Y-10845238D01*
X285742857Y-10783333D01*
X285495238Y-10783333D01*
X285371429Y-10845238D01*
X285309524Y-10907143D01*
X285247619Y-11030952D01*
D10*
D11*
X60000000Y-198007200D02*
X60000000Y-200007200D01*
D10*
D11*
X110000000Y-198007200D02*
X110000000Y-200007200D01*
D10*
D11*
X160000000Y-198007200D02*
X160000000Y-200007200D01*
D10*
D11*
X210000000Y-198007200D02*
X210000000Y-200007200D01*
D10*
D11*
X260000000Y-198007200D02*
X260000000Y-200007200D01*
D10*
D11*
X35990476Y-199595295D02*
X35247619Y-199595295D01*
X35619048Y-199595295D02*
X35619048Y-198295295D01*
X35495238Y-198481010D01*
X35371429Y-198604819D01*
X35247619Y-198666724D01*
D10*
D11*
X85247619Y-198419105D02*
X85309524Y-198357200D01*
X85433333Y-198295295D01*
X85742857Y-198295295D01*
X85866667Y-198357200D01*
X85928571Y-198419105D01*
X85990476Y-198542914D01*
X85990476Y-198666724D01*
X85928571Y-198852438D01*
X85185714Y-199595295D01*
X85990476Y-199595295D01*
D10*
D11*
X135185714Y-198295295D02*
X135990476Y-198295295D01*
X135557143Y-198790533D01*
X135742857Y-198790533D01*
X135866667Y-198852438D01*
X135928571Y-198914343D01*
X135990476Y-199038152D01*
X135990476Y-199347676D01*
X135928571Y-199471486D01*
X135866667Y-199533390D01*
X135742857Y-199595295D01*
X135371429Y-199595295D01*
X135247619Y-199533390D01*
X135185714Y-199471486D01*
D10*
D11*
X185866667Y-198728629D02*
X185866667Y-199595295D01*
X185557143Y-198233390D02*
X185247619Y-199161962D01*
X186052381Y-199161962D01*
D10*
D11*
X235928571Y-198295295D02*
X235309524Y-198295295D01*
X235247619Y-198914343D01*
X235309524Y-198852438D01*
X235433333Y-198790533D01*
X235742857Y-198790533D01*
X235866667Y-198852438D01*
X235928571Y-198914343D01*
X235990476Y-199038152D01*
X235990476Y-199347676D01*
X235928571Y-199471486D01*
X235866667Y-199533390D01*
X235742857Y-199595295D01*
X235433333Y-199595295D01*
X235309524Y-199533390D01*
X235247619Y-199471486D01*
D10*
D11*
X285866667Y-198295295D02*
X285619048Y-198295295D01*
X285495238Y-198357200D01*
X285433333Y-198419105D01*
X285309524Y-198604819D01*
X285247619Y-198852438D01*
X285247619Y-199347676D01*
X285309524Y-199471486D01*
X285371429Y-199533390D01*
X285495238Y-199595295D01*
X285742857Y-199595295D01*
X285866667Y-199533390D01*
X285928571Y-199471486D01*
X285990476Y-199347676D01*
X285990476Y-199038152D01*
X285928571Y-198914343D01*
X285866667Y-198852438D01*
X285742857Y-198790533D01*
X285495238Y-198790533D01*
X285371429Y-198852438D01*
X285309524Y-198914343D01*
X285247619Y-199038152D01*
D10*
D11*
X10000000Y-60000000D02*
X12000000Y-60000000D01*
D10*
D11*
X10000000Y-110000000D02*
X12000000Y-110000000D01*
D10*
D11*
X10000000Y-160000000D02*
X12000000Y-160000000D01*
D10*
D11*
X10690476Y-35216667D02*
X11309524Y-35216667D01*
X10566667Y-35588095D02*
X11000000Y-34288095D01*
X11433333Y-35588095D01*
D10*
D11*
X11092857Y-84907143D02*
X11278571Y-84969048D01*
X11340476Y-85030952D01*
X11402381Y-85154762D01*
X11402381Y-85340476D01*
X11340476Y-85464286D01*
X11278571Y-85526190D01*
X11154762Y-85588095D01*
X10659524Y-85588095D01*
X10659524Y-84288095D01*
X11092857Y-84288095D01*
X11216667Y-84350000D01*
X11278571Y-84411905D01*
X11340476Y-84535714D01*
X11340476Y-84659524D01*
X11278571Y-84783333D01*
X11216667Y-84845238D01*
X11092857Y-84907143D01*
X10659524Y-84907143D01*
D10*
D11*
X11402381Y-135464286D02*
X11340476Y-135526190D01*
X11154762Y-135588095D01*
X11030952Y-135588095D01*
X10845238Y-135526190D01*
X10721429Y-135402381D01*
X10659524Y-135278571D01*
X10597619Y-135030952D01*
X10597619Y-134845238D01*
X10659524Y-134597619D01*
X10721429Y-134473810D01*
X10845238Y-134350000D01*
X11030952Y-134288095D01*
X11154762Y-134288095D01*
X11340476Y-134350000D01*
X11402381Y-134411905D01*
D10*
D11*
X10659524Y-185588095D02*
X10659524Y-184288095D01*
X10969048Y-184288095D01*
X11154762Y-184350000D01*
X11278571Y-184473810D01*
X11340476Y-184597619D01*
X11402381Y-184845238D01*
X11402381Y-185030952D01*
X11340476Y-185278571D01*
X11278571Y-185402381D01*
X11154762Y-185526190D01*
X10969048Y-185588095D01*
X10659524Y-185588095D01*
D10*
D11*
X287002200Y-60000000D02*
X285002200Y-60000000D01*
D10*
D11*
X287002200Y-110000000D02*
X285002200Y-110000000D01*
D10*
D11*
X287002200Y-160000000D02*
X285002200Y-160000000D01*
D10*
D11*
X285692676Y-35216667D02*
X286311724Y-35216667D01*
X285568867Y-35588095D02*
X286002200Y-34288095D01*
X286435533Y-35588095D01*
D10*
D11*
X286095057Y-84907143D02*
X286280771Y-84969048D01*
X286342676Y-85030952D01*
X286404581Y-85154762D01*
X286404581Y-85340476D01*
X286342676Y-85464286D01*
X286280771Y-85526190D01*
X286156962Y-85588095D01*
X285661724Y-85588095D01*
X285661724Y-84288095D01*
X286095057Y-84288095D01*
X286218867Y-84350000D01*
X286280771Y-84411905D01*
X286342676Y-84535714D01*
X286342676Y-84659524D01*
X286280771Y-84783333D01*
X286218867Y-84845238D01*
X286095057Y-84907143D01*
X285661724Y-84907143D01*
D10*
D11*
X286404581Y-135464286D02*
X286342676Y-135526190D01*
X286156962Y-135588095D01*
X286033152Y-135588095D01*
X285847438Y-135526190D01*
X285723629Y-135402381D01*
X285661724Y-135278571D01*
X285599819Y-135030952D01*
X285599819Y-134845238D01*
X285661724Y-134597619D01*
X285723629Y-134473810D01*
X285847438Y-134350000D01*
X286033152Y-134288095D01*
X286156962Y-134288095D01*
X286342676Y-134350000D01*
X286404581Y-134411905D01*
D10*
D11*
X285661724Y-185588095D02*
X285661724Y-184288095D01*
X285971248Y-184288095D01*
X286156962Y-184350000D01*
X286280771Y-184473810D01*
X286342676Y-184597619D01*
X286404581Y-184845238D01*
X286404581Y-185030952D01*
X286342676Y-185278571D01*
X286280771Y-185402381D01*
X286156962Y-185526190D01*
X285971248Y-185588095D01*
X285661724Y-185588095D01*
D10*
D11*
X200359343Y-193785771D02*
X200359343Y-192285771D01*
X200716486Y-192285771D01*
X200930771Y-192357200D01*
X201073629Y-192500057D01*
X201145057Y-192642914D01*
X201216486Y-192928629D01*
X201216486Y-193142914D01*
X201145057Y-193428629D01*
X201073629Y-193571486D01*
X200930771Y-193714343D01*
X200716486Y-193785771D01*
X200359343Y-193785771D01*
X202502200Y-193785771D02*
X202502200Y-193000057D01*
X202430771Y-192857200D01*
X202287914Y-192785771D01*
X202002200Y-192785771D01*
X201859343Y-192857200D01*
X202502200Y-193714343D02*
X202359343Y-193785771D01*
X202002200Y-193785771D01*
X201859343Y-193714343D01*
X201787914Y-193571486D01*
X201787914Y-193428629D01*
X201859343Y-193285771D01*
X202002200Y-193214343D01*
X202359343Y-193214343D01*
X202502200Y-193142914D01*
X203002200Y-192785771D02*
X203573629Y-192785771D01*
X203216486Y-192285771D02*
X203216486Y-193571486D01*
X203287914Y-193714343D01*
X203430772Y-193785771D01*
X203573629Y-193785771D01*
X204645057Y-193714343D02*
X204502200Y-193785771D01*
X204216486Y-193785771D01*
X204073629Y-193714343D01*
X204002200Y-193571486D01*
X204002200Y-193000057D01*
X204073629Y-192857200D01*
X204216486Y-192785771D01*
X204502200Y-192785771D01*
X204645057Y-192857200D01*
X204716486Y-193000057D01*
X204716486Y-193142914D01*
X204002200Y-193285771D01*
X205359343Y-193642914D02*
X205430771Y-193714343D01*
X205359343Y-193785771D01*
X205287914Y-193714343D01*
X205359343Y-193642914D01*
X205359343Y-193785771D01*
X205359343Y-192857200D02*
X205430771Y-192928629D01*
X205359343Y-193000057D01*
X205287914Y-192928629D01*
X205359343Y-192857200D01*
X205359343Y-193000057D01*
X207216486Y-193785771D02*
X207216486Y-192785771D01*
X207216486Y-192928629D02*
X207287914Y-192857200D01*
X207430772Y-192785771D01*
X207645057Y-192785771D01*
X207787914Y-192857200D01*
X207859343Y-193000057D01*
X207859343Y-193785771D01*
X207859343Y-193000057D02*
X207930772Y-192857200D01*
X208073629Y-192785771D01*
X208287914Y-192785771D01*
X208430772Y-192857200D01*
X208502200Y-193000057D01*
X208502200Y-193785771D01*
X209859343Y-193785771D02*
X209859343Y-193000057D01*
X209787914Y-192857200D01*
X209645057Y-192785771D01*
X209359343Y-192785771D01*
X209216486Y-192857200D01*
X209859343Y-193714343D02*
X209716486Y-193785771D01*
X209359343Y-193785771D01*
X209216486Y-193714343D01*
X209145057Y-193571486D01*
X209145057Y-193428629D01*
X209216486Y-193285771D01*
X209359343Y-193214343D01*
X209716486Y-193214343D01*
X209859343Y-193142914D01*
X210573629Y-193785771D02*
X210573629Y-192785771D01*
X210573629Y-193071486D02*
X210645057Y-192928629D01*
X210716486Y-192857200D01*
X210859343Y-192785771D01*
X211002200Y-192785771D01*
X211502200Y-193642914D02*
X211573628Y-193714343D01*
X211502200Y-193785771D01*
X211430771Y-193714343D01*
X211502200Y-193642914D01*
X211502200Y-193785771D01*
X213216486Y-192285771D02*
X214145057Y-192285771D01*
X213645057Y-192857200D01*
X213859343Y-192857200D01*
X214002200Y-192928629D01*
X214073629Y-193000057D01*
X214145057Y-193142914D01*
X214145057Y-193500057D01*
X214073629Y-193642914D01*
X214002200Y-193714343D01*
X213859343Y-193785771D01*
X213430771Y-193785771D01*
X213287914Y-193714343D01*
X213216486Y-193642914D01*
X215573628Y-193785771D02*
X214716485Y-193785771D01*
X215145057Y-193785771D02*
X215145057Y-192285771D01*
X215002200Y-192500057D01*
X214859342Y-192642914D01*
X214716485Y-192714343D01*
X217359342Y-193785771D02*
X217359342Y-192785771D01*
X217359342Y-192928629D02*
X217430770Y-192857200D01*
X217573628Y-192785771D01*
X217787913Y-192785771D01*
X217930770Y-192857200D01*
X218002199Y-193000057D01*
X218002199Y-193785771D01*
X218002199Y-193000057D02*
X218073628Y-192857200D01*
X218216485Y-192785771D01*
X218430770Y-192785771D01*
X218573628Y-192857200D01*
X218645056Y-193000057D01*
X218645056Y-193785771D01*
X220002199Y-193785771D02*
X220002199Y-193000057D01*
X219930770Y-192857200D01*
X219787913Y-192785771D01*
X219502199Y-192785771D01*
X219359342Y-192857200D01*
X220002199Y-193714343D02*
X219859342Y-193785771D01*
X219502199Y-193785771D01*
X219359342Y-193714343D01*
X219287913Y-193571486D01*
X219287913Y-193428629D01*
X219359342Y-193285771D01*
X219502199Y-193214343D01*
X219859342Y-193214343D01*
X220002199Y-193142914D01*
X220716485Y-193785771D02*
X220716485Y-192785771D01*
X220716485Y-193071486D02*
X220787913Y-192928629D01*
X220859342Y-192857200D01*
X221002199Y-192785771D01*
X221145056Y-192785771D01*
X221573627Y-193714343D02*
X221716484Y-193785771D01*
X222002199Y-193785771D01*
X222145056Y-193714343D01*
X222216484Y-193571486D01*
X222216484Y-193500057D01*
X222145056Y-193357200D01*
X222002199Y-193285771D01*
X221787913Y-193285771D01*
X221645056Y-193214343D01*
X221573627Y-193071486D01*
X221573627Y-193000057D01*
X221645056Y-192857200D01*
X221787913Y-192785771D01*
X222002199Y-192785771D01*
X222145056Y-192857200D01*
X223930770Y-192428629D02*
X224002199Y-192357200D01*
X224145056Y-192285771D01*
X224502199Y-192285771D01*
X224645056Y-192357200D01*
X224716485Y-192428629D01*
X224787913Y-192571486D01*
X224787913Y-192714343D01*
X224716485Y-192928629D01*
X223859342Y-193785771D01*
X224787913Y-193785771D01*
X225716484Y-192285771D02*
X225859341Y-192285771D01*
X226002198Y-192357200D01*
X226073627Y-192428629D01*
X226145056Y-192571486D01*
X226216484Y-192857200D01*
X226216484Y-193214343D01*
X226145056Y-193500057D01*
X226073627Y-193642914D01*
X226002198Y-193714343D01*
X225859341Y-193785771D01*
X225716484Y-193785771D01*
X225573627Y-193714343D01*
X225502198Y-193642914D01*
X225430770Y-193500057D01*
X225359341Y-193214343D01*
X225359341Y-192857200D01*
X225430770Y-192571486D01*
X225502198Y-192428629D01*
X225573627Y-192357200D01*
X225716484Y-192285771D01*
X227645055Y-193785771D02*
X226787912Y-193785771D01*
X227216484Y-193785771D02*
X227216484Y-192285771D01*
X227073627Y-192500057D01*
X226930769Y-192642914D01*
X226787912Y-192714343D01*
X229002198Y-192285771D02*
X228287912Y-192285771D01*
X228216483Y-193000057D01*
X228287912Y-192928629D01*
X228430769Y-192857200D01*
X228787912Y-192857200D01*
X228930769Y-192928629D01*
X229002198Y-193000057D01*
X229073626Y-193142914D01*
X229073626Y-193500057D01*
X229002198Y-193642914D01*
X228930769Y-193714343D01*
X228787912Y-193785771D01*
X228430769Y-193785771D01*
X228287912Y-193714343D01*
X228216483Y-193642914D01*
D10*
D11*
X177002200Y-194507200D02*
X285002200Y-194507200D01*
D10*
D11*
X178359343Y-196585771D02*
X178359343Y-195085771D01*
X179216486Y-196585771D02*
X178573629Y-195728629D01*
X179216486Y-195085771D02*
X178359343Y-195942914D01*
X179859343Y-196585771D02*
X179859343Y-195585771D01*
X179859343Y-195085771D02*
X179787914Y-195157200D01*
X179859343Y-195228629D01*
X179930771Y-195157200D01*
X179859343Y-195085771D01*
X179859343Y-195228629D01*
X181430772Y-196442914D02*
X181359343Y-196514343D01*
X181145057Y-196585771D01*
X181002200Y-196585771D01*
X180787915Y-196514343D01*
X180645057Y-196371486D01*
X180573629Y-196228629D01*
X180502200Y-195942914D01*
X180502200Y-195728629D01*
X180573629Y-195442914D01*
X180645057Y-195300057D01*
X180787915Y-195157200D01*
X181002200Y-195085771D01*
X181145057Y-195085771D01*
X181359343Y-195157200D01*
X181430772Y-195228629D01*
X182716486Y-196585771D02*
X182716486Y-195800057D01*
X182645057Y-195657200D01*
X182502200Y-195585771D01*
X182216486Y-195585771D01*
X182073629Y-195657200D01*
X182716486Y-196514343D02*
X182573629Y-196585771D01*
X182216486Y-196585771D01*
X182073629Y-196514343D01*
X182002200Y-196371486D01*
X182002200Y-196228629D01*
X182073629Y-196085771D01*
X182216486Y-196014343D01*
X182573629Y-196014343D01*
X182716486Y-195942914D01*
X184073629Y-196585771D02*
X184073629Y-195085771D01*
X184073629Y-196514343D02*
X183930772Y-196585771D01*
X183645058Y-196585771D01*
X183502200Y-196514343D01*
X183430772Y-196442914D01*
X183359343Y-196300057D01*
X183359343Y-195871486D01*
X183430772Y-195728629D01*
X183502200Y-195657200D01*
X183645058Y-195585771D01*
X183930772Y-195585771D01*
X184073629Y-195657200D01*
X185930772Y-195800057D02*
X186430772Y-195800057D01*
X186645058Y-196585771D02*
X185930772Y-196585771D01*
X185930772Y-195085771D01*
X186645058Y-195085771D01*
X187287915Y-196442914D02*
X187359343Y-196514343D01*
X187287915Y-196585771D01*
X187216486Y-196514343D01*
X187287915Y-196442914D01*
X187287915Y-196585771D01*
X188002201Y-196585771D02*
X188002201Y-195085771D01*
X188359344Y-195085771D01*
X188573629Y-195157200D01*
X188716487Y-195300057D01*
X188787915Y-195442914D01*
X188859344Y-195728629D01*
X188859344Y-195942914D01*
X188787915Y-196228629D01*
X188716487Y-196371486D01*
X188573629Y-196514343D01*
X188359344Y-196585771D01*
X188002201Y-196585771D01*
X189502201Y-196442914D02*
X189573629Y-196514343D01*
X189502201Y-196585771D01*
X189430772Y-196514343D01*
X189502201Y-196442914D01*
X189502201Y-196585771D01*
X190145058Y-196157200D02*
X190859344Y-196157200D01*
X190002201Y-196585771D02*
X190502201Y-195085771D01*
X191002201Y-196585771D01*
X191502201Y-196442914D02*
X191573629Y-196514343D01*
X191502201Y-196585771D01*
X191430772Y-196514343D01*
X191502201Y-196442914D01*
X191502201Y-196585771D01*
X194502201Y-196585771D02*
X194502201Y-195085771D01*
X194645058Y-196014343D02*
X195073629Y-196585771D01*
X195073629Y-195585771D02*
X194502201Y-196157200D01*
X195716487Y-196585771D02*
X195716487Y-195585771D01*
X195716487Y-195085771D02*
X195645058Y-195157200D01*
X195716487Y-195228629D01*
X195787915Y-195157200D01*
X195716487Y-195085771D01*
X195716487Y-195228629D01*
X197073630Y-196514343D02*
X196930773Y-196585771D01*
X196645059Y-196585771D01*
X196502201Y-196514343D01*
X196430773Y-196442914D01*
X196359344Y-196300057D01*
X196359344Y-195871486D01*
X196430773Y-195728629D01*
X196502201Y-195657200D01*
X196645059Y-195585771D01*
X196930773Y-195585771D01*
X197073630Y-195657200D01*
X198359344Y-196585771D02*
X198359344Y-195800057D01*
X198287915Y-195657200D01*
X198145058Y-195585771D01*
X197859344Y-195585771D01*
X197716487Y-195657200D01*
X198359344Y-196514343D02*
X198216487Y-196585771D01*
X197859344Y-196585771D01*
X197716487Y-196514343D01*
X197645058Y-196371486D01*
X197645058Y-196228629D01*
X197716487Y-196085771D01*
X197859344Y-196014343D01*
X198216487Y-196014343D01*
X198359344Y-195942914D01*
X199716487Y-196585771D02*
X199716487Y-195085771D01*
X199716487Y-196514343D02*
X199573630Y-196585771D01*
X199287916Y-196585771D01*
X199145058Y-196514343D01*
X199073630Y-196442914D01*
X199002201Y-196300057D01*
X199002201Y-195871486D01*
X199073630Y-195728629D01*
X199145058Y-195657200D01*
X199287916Y-195585771D01*
X199573630Y-195585771D01*
X199716487Y-195657200D01*
X202216487Y-195585771D02*
X202216487Y-196585771D01*
X201859344Y-195014343D02*
X201502201Y-196085771D01*
X202430773Y-196085771D01*
X203002201Y-196442914D02*
X203073629Y-196514343D01*
X203002201Y-196585771D01*
X202930772Y-196514343D01*
X203002201Y-196442914D01*
X203002201Y-196585771D01*
X204002201Y-195085771D02*
X204145058Y-195085771D01*
X204287915Y-195157200D01*
X204359344Y-195228629D01*
X204430773Y-195371486D01*
X204502201Y-195657200D01*
X204502201Y-196014343D01*
X204430773Y-196300057D01*
X204359344Y-196442914D01*
X204287915Y-196514343D01*
X204145058Y-196585771D01*
X204002201Y-196585771D01*
X203859344Y-196514343D01*
X203787915Y-196442914D01*
X203716487Y-196300057D01*
X203645058Y-196014343D01*
X203645058Y-195657200D01*
X203716487Y-195371486D01*
X203787915Y-195228629D01*
X203859344Y-195157200D01*
X204002201Y-195085771D01*
X205145058Y-196442914D02*
X205216486Y-196514343D01*
X205145058Y-196585771D01*
X205073629Y-196514343D01*
X205145058Y-196442914D01*
X205145058Y-196585771D01*
X206573630Y-195085771D02*
X205859344Y-195085771D01*
X205787915Y-195800057D01*
X205859344Y-195728629D01*
X206002201Y-195657200D01*
X206359344Y-195657200D01*
X206502201Y-195728629D01*
X206573630Y-195800057D01*
X206645058Y-195942914D01*
X206645058Y-196300057D01*
X206573630Y-196442914D01*
X206502201Y-196514343D01*
X206359344Y-196585771D01*
X206002201Y-196585771D01*
X205859344Y-196514343D01*
X205787915Y-196442914D01*
D10*
D11*
X177002200Y-191507200D02*
X285002200Y-191507200D01*
D10*
D12*
X264216486Y-193785771D02*
X263716486Y-193071486D01*
X263359343Y-193785771D02*
X263359343Y-192285771D01*
X263930771Y-192285771D01*
X264073629Y-192357200D01*
X264145057Y-192428629D01*
X264216486Y-192571486D01*
X264216486Y-192785771D01*
X264145057Y-192928629D01*
X264073629Y-193000057D01*
X263930771Y-193071486D01*
X263359343Y-193071486D01*
X265430771Y-193714343D02*
X265287914Y-193785771D01*
X265002200Y-193785771D01*
X264859343Y-193714343D01*
X264787914Y-193571486D01*
X264787914Y-193000057D01*
X264859343Y-192857200D01*
X265002200Y-192785771D01*
X265287914Y-192785771D01*
X265430771Y-192857200D01*
X265502200Y-193000057D01*
X265502200Y-193142914D01*
X264787914Y-193285771D01*
X266002200Y-192785771D02*
X266359343Y-193785771D01*
X266716485Y-192785771D01*
X267287914Y-193642914D02*
X267359342Y-193714343D01*
X267287914Y-193785771D01*
X267216485Y-193714343D01*
X267287914Y-193642914D01*
X267287914Y-193785771D01*
X267287914Y-192857200D02*
X267359342Y-192928629D01*
X267287914Y-193000057D01*
X267216485Y-192928629D01*
X267287914Y-192857200D01*
X267287914Y-193000057D01*
D10*
D11*
X178287914Y-193714343D02*
X178502200Y-193785771D01*
X178859343Y-193785771D01*
X179002200Y-193714343D01*
X179073629Y-193642914D01*
X179145057Y-193500057D01*
X179145057Y-193357200D01*
X179073629Y-193214343D01*
X179002200Y-193142914D01*
X178859343Y-193071486D01*
X178573629Y-193000057D01*
X178430771Y-192928629D01*
X178359343Y-192857200D01*
X178287914Y-192714343D01*
X178287914Y-192571486D01*
X178359343Y-192428629D01*
X178430771Y-192357200D01*
X178573629Y-192285771D01*
X178930771Y-192285771D01*
X179145057Y-192357200D01*
X179787914Y-193785771D02*
X179787914Y-192785771D01*
X179787914Y-192285771D02*
X179716485Y-192357200D01*
X179787914Y-192428629D01*
X179859342Y-192357200D01*
X179787914Y-192285771D01*
X179787914Y-192428629D01*
X180359343Y-192785771D02*
X181145057Y-192785771D01*
X180359343Y-193785771D01*
X181145057Y-193785771D01*
X182287914Y-193714343D02*
X182145057Y-193785771D01*
X181859343Y-193785771D01*
X181716486Y-193714343D01*
X181645057Y-193571486D01*
X181645057Y-193000057D01*
X181716486Y-192857200D01*
X181859343Y-192785771D01*
X182145057Y-192785771D01*
X182287914Y-192857200D01*
X182359343Y-193000057D01*
X182359343Y-193142914D01*
X181645057Y-193285771D01*
X183002200Y-193642914D02*
X183073628Y-193714343D01*
X183002200Y-193785771D01*
X182930771Y-193714343D01*
X183002200Y-193642914D01*
X183002200Y-193785771D01*
X183002200Y-192857200D02*
X183073628Y-192928629D01*
X183002200Y-193000057D01*
X182930771Y-192928629D01*
X183002200Y-192857200D01*
X183002200Y-193000057D01*
X184787914Y-193357200D02*
X185502200Y-193357200D01*
X184645057Y-193785771D02*
X185145057Y-192285771D01*
X185645057Y-193785771D01*
X186787914Y-192785771D02*
X186787914Y-193785771D01*
X186430771Y-192214343D02*
X186073628Y-193285771D01*
X187002200Y-193285771D01*
D10*
D11*
X263359343Y-196585771D02*
X263359343Y-195085771D01*
X264716486Y-196585771D02*
X264716486Y-195085771D01*
X264716486Y-196514343D02*
X264573629Y-196585771D01*
X264287915Y-196585771D01*
X264145057Y-196514343D01*
X264073629Y-196442914D01*
X264002200Y-196300057D01*
X264002200Y-195871486D01*
X264073629Y-195728629D01*
X264145057Y-195657200D01*
X264287915Y-195585771D01*
X264573629Y-195585771D01*
X264716486Y-195657200D01*
X265430772Y-196442914D02*
X265502200Y-196514343D01*
X265430772Y-196585771D01*
X265359343Y-196514343D01*
X265430772Y-196442914D01*
X265430772Y-196585771D01*
X265430772Y-195657200D02*
X265502200Y-195728629D01*
X265430772Y-195800057D01*
X265359343Y-195728629D01*
X265430772Y-195657200D01*
X265430772Y-195800057D01*
X268073629Y-196585771D02*
X267216486Y-196585771D01*
X267645058Y-196585771D02*
X267645058Y-195085771D01*
X267502201Y-195300057D01*
X267359343Y-195442914D01*
X267216486Y-195514343D01*
X269787914Y-195014343D02*
X268502200Y-196942914D01*
X271073629Y-196585771D02*
X270216486Y-196585771D01*
X270645058Y-196585771D02*
X270645058Y-195085771D01*
X270502201Y-195300057D01*
X270359343Y-195442914D01*
X270216486Y-195514343D01*
D10*
D11*
X177002200Y-187507200D02*
X285002200Y-187507200D01*
D10*
D13*
X178454581Y-188211962D02*
X179597438Y-188211962D01*
X178776010Y-190211962D02*
X179026010Y-188211962D01*
X180014105Y-190211962D02*
X180180771Y-188878629D01*
X180264105Y-188211962D02*
X180156962Y-188307200D01*
X180240295Y-188402438D01*
X180347439Y-188307200D01*
X180264105Y-188211962D01*
X180240295Y-188402438D01*
X180847438Y-188878629D02*
X181609343Y-188878629D01*
X181216486Y-188211962D02*
X181002200Y-189926248D01*
X181073630Y-190116724D01*
X181252201Y-190211962D01*
X181442677Y-190211962D01*
X182395058Y-190211962D02*
X182216487Y-190116724D01*
X182145057Y-189926248D01*
X182359343Y-188211962D01*
X183930772Y-190116724D02*
X183728391Y-190211962D01*
X183347439Y-190211962D01*
X183168867Y-190116724D01*
X183097438Y-189926248D01*
X183192676Y-189164343D01*
X183311724Y-188973867D01*
X183514105Y-188878629D01*
X183895057Y-188878629D01*
X184073629Y-188973867D01*
X184145057Y-189164343D01*
X184121248Y-189354819D01*
X183145057Y-189545295D01*
X184895057Y-190021486D02*
X184978392Y-190116724D01*
X184871248Y-190211962D01*
X184787915Y-190116724D01*
X184895057Y-190021486D01*
X184871248Y-190211962D01*
X185026010Y-188973867D02*
X185109344Y-189069105D01*
X185002200Y-189164343D01*
X184918867Y-189069105D01*
X185026010Y-188973867D01*
X185002200Y-189164343D01*
D10*
D11*
X178859343Y-185600057D02*
X178359343Y-185600057D01*
X178359343Y-186385771D02*
X178359343Y-184885771D01*
X179073629Y-184885771D01*
X179645057Y-186385771D02*
X179645057Y-185385771D01*
X179645057Y-184885771D02*
X179573628Y-184957200D01*
X179645057Y-185028629D01*
X179716485Y-184957200D01*
X179645057Y-184885771D01*
X179645057Y-185028629D01*
X180573629Y-186385771D02*
X180430771Y-186314343D01*
X180359343Y-186171486D01*
X180359343Y-184885771D01*
X181716485Y-186314343D02*
X181573628Y-186385771D01*
X181287914Y-186385771D01*
X181145057Y-186314343D01*
X181073628Y-186171486D01*
X181073628Y-185600057D01*
X181145057Y-185457200D01*
X181287914Y-185385771D01*
X181573628Y-185385771D01*
X181716485Y-185457200D01*
X181787914Y-185600057D01*
X181787914Y-185742914D01*
X181073628Y-185885771D01*
X182430771Y-186242914D02*
X182502199Y-186314343D01*
X182430771Y-186385771D01*
X182359342Y-186314343D01*
X182430771Y-186242914D01*
X182430771Y-186385771D01*
X182430771Y-185457200D02*
X182502199Y-185528629D01*
X182430771Y-185600057D01*
X182359342Y-185528629D01*
X182430771Y-185457200D01*
X182430771Y-185600057D01*
X184930771Y-186385771D02*
X184930771Y-185600057D01*
X184859342Y-185457200D01*
X184716485Y-185385771D01*
X184430771Y-185385771D01*
X184287914Y-185457200D01*
X184930771Y-186314343D02*
X184787914Y-186385771D01*
X184430771Y-186385771D01*
X184287914Y-186314343D01*
X184216485Y-186171486D01*
X184216485Y-186028629D01*
X184287914Y-185885771D01*
X184430771Y-185814343D01*
X184787914Y-185814343D01*
X184930771Y-185742914D01*
X185502200Y-185385771D02*
X185859343Y-186385771D01*
X186216485Y-185385771D01*
X187430771Y-186385771D02*
X187430771Y-185600057D01*
X187359342Y-185457200D01*
X187216485Y-185385771D01*
X186930771Y-185385771D01*
X186787914Y-185457200D01*
X187430771Y-186314343D02*
X187287914Y-186385771D01*
X186930771Y-186385771D01*
X186787914Y-186314343D01*
X186716485Y-186171486D01*
X186716485Y-186028629D01*
X186787914Y-185885771D01*
X186930771Y-185814343D01*
X187287914Y-185814343D01*
X187430771Y-185742914D01*
X188359343Y-186385771D02*
X188216485Y-186314343D01*
X188145057Y-186171486D01*
X188145057Y-184885771D01*
X189145057Y-186385771D02*
X189002199Y-186314343D01*
X188930771Y-186242914D01*
X188859342Y-186100057D01*
X188859342Y-185671486D01*
X188930771Y-185528629D01*
X189002199Y-185457200D01*
X189145057Y-185385771D01*
X189359342Y-185385771D01*
X189502199Y-185457200D01*
X189573628Y-185528629D01*
X189645057Y-185671486D01*
X189645057Y-186100057D01*
X189573628Y-186242914D01*
X189502199Y-186314343D01*
X189359342Y-186385771D01*
X189145057Y-186385771D01*
X190287914Y-185385771D02*
X190287914Y-186385771D01*
X190287914Y-185528629D02*
X190359342Y-185457200D01*
X190502200Y-185385771D01*
X190716485Y-185385771D01*
X190859342Y-185457200D01*
X190930771Y-185600057D01*
X190930771Y-186385771D01*
X191287914Y-186528629D02*
X192430771Y-186528629D01*
X193430771Y-186314343D02*
X193287914Y-186385771D01*
X193002200Y-186385771D01*
X192859342Y-186314343D01*
X192787914Y-186242914D01*
X192716485Y-186100057D01*
X192716485Y-185671486D01*
X192787914Y-185528629D01*
X192859342Y-185457200D01*
X193002200Y-185385771D01*
X193287914Y-185385771D01*
X193430771Y-185457200D01*
X194287914Y-186385771D02*
X194145056Y-186314343D01*
X194073628Y-186242914D01*
X194002199Y-186100057D01*
X194002199Y-185671486D01*
X194073628Y-185528629D01*
X194145056Y-185457200D01*
X194287914Y-185385771D01*
X194502199Y-185385771D01*
X194645056Y-185457200D01*
X194716485Y-185528629D01*
X194787914Y-185671486D01*
X194787914Y-186100057D01*
X194716485Y-186242914D01*
X194645056Y-186314343D01*
X194502199Y-186385771D01*
X194287914Y-186385771D01*
X195430771Y-186385771D02*
X195430771Y-185385771D01*
X195430771Y-185528629D02*
X195502199Y-185457200D01*
X195645057Y-185385771D01*
X195859342Y-185385771D01*
X196002199Y-185457200D01*
X196073628Y-185600057D01*
X196073628Y-186385771D01*
X196073628Y-185600057D02*
X196145057Y-185457200D01*
X196287914Y-185385771D01*
X196502199Y-185385771D01*
X196645057Y-185457200D01*
X196716485Y-185600057D01*
X196716485Y-186385771D01*
X197430771Y-186385771D02*
X197430771Y-185385771D01*
X197430771Y-185528629D02*
X197502199Y-185457200D01*
X197645057Y-185385771D01*
X197859342Y-185385771D01*
X198002199Y-185457200D01*
X198073628Y-185600057D01*
X198073628Y-186385771D01*
X198073628Y-185600057D02*
X198145057Y-185457200D01*
X198287914Y-185385771D01*
X198502199Y-185385771D01*
X198645057Y-185457200D01*
X198716485Y-185600057D01*
X198716485Y-186385771D01*
X200073628Y-185385771D02*
X200073628Y-186385771D01*
X199430771Y-185385771D02*
X199430771Y-186171486D01*
X199502199Y-186314343D01*
X199645057Y-186385771D01*
X199859342Y-186385771D01*
X200002199Y-186314343D01*
X200073628Y-186242914D01*
X200787914Y-185385771D02*
X200787914Y-186385771D01*
X200787914Y-185528629D02*
X200859342Y-185457200D01*
X201002200Y-185385771D01*
X201216485Y-185385771D01*
X201359342Y-185457200D01*
X201430771Y-185600057D01*
X201430771Y-186385771D01*
X202145057Y-186385771D02*
X202145057Y-185385771D01*
X202145057Y-184885771D02*
X202073628Y-184957200D01*
X202145057Y-185028629D01*
X202216485Y-184957200D01*
X202145057Y-184885771D01*
X202145057Y-185028629D01*
X203502200Y-186314343D02*
X203359343Y-186385771D01*
X203073629Y-186385771D01*
X202930771Y-186314343D01*
X202859343Y-186242914D01*
X202787914Y-186100057D01*
X202787914Y-185671486D01*
X202859343Y-185528629D01*
X202930771Y-185457200D01*
X203073629Y-185385771D01*
X203359343Y-185385771D01*
X203502200Y-185457200D01*
X204787914Y-186385771D02*
X204787914Y-185600057D01*
X204716485Y-185457200D01*
X204573628Y-185385771D01*
X204287914Y-185385771D01*
X204145057Y-185457200D01*
X204787914Y-186314343D02*
X204645057Y-186385771D01*
X204287914Y-186385771D01*
X204145057Y-186314343D01*
X204073628Y-186171486D01*
X204073628Y-186028629D01*
X204145057Y-185885771D01*
X204287914Y-185814343D01*
X204645057Y-185814343D01*
X204787914Y-185742914D01*
X205287914Y-185385771D02*
X205859343Y-185385771D01*
X205502200Y-184885771D02*
X205502200Y-186171486D01*
X205573628Y-186314343D01*
X205716486Y-186385771D01*
X205859343Y-186385771D01*
X206359343Y-186385771D02*
X206359343Y-185385771D01*
X206359343Y-184885771D02*
X206287914Y-184957200D01*
X206359343Y-185028629D01*
X206430771Y-184957200D01*
X206359343Y-184885771D01*
X206359343Y-185028629D01*
X207287915Y-186385771D02*
X207145057Y-186314343D01*
X207073629Y-186242914D01*
X207002200Y-186100057D01*
X207002200Y-185671486D01*
X207073629Y-185528629D01*
X207145057Y-185457200D01*
X207287915Y-185385771D01*
X207502200Y-185385771D01*
X207645057Y-185457200D01*
X207716486Y-185528629D01*
X207787915Y-185671486D01*
X207787915Y-186100057D01*
X207716486Y-186242914D01*
X207645057Y-186314343D01*
X207502200Y-186385771D01*
X207287915Y-186385771D01*
X208430772Y-185385771D02*
X208430772Y-186385771D01*
X208430772Y-185528629D02*
X208502200Y-185457200D01*
X208645058Y-185385771D01*
X208859343Y-185385771D01*
X209002200Y-185457200D01*
X209073629Y-185600057D01*
X209073629Y-186385771D01*
X209430772Y-186528629D02*
X210573629Y-186528629D01*
X210930772Y-186385771D02*
X210930772Y-184885771D01*
X210930772Y-185457200D02*
X211073629Y-185385771D01*
X211359343Y-185385771D01*
X211502200Y-185457200D01*
X211573629Y-185528629D01*
X211645058Y-185671486D01*
X211645058Y-186100057D01*
X211573629Y-186242914D01*
X211502200Y-186314343D01*
X211359343Y-186385771D01*
X211073629Y-186385771D01*
X210930772Y-186314343D01*
X212502201Y-186385771D02*
X212359343Y-186314343D01*
X212287915Y-186242914D01*
X212216486Y-186100057D01*
X212216486Y-185671486D01*
X212287915Y-185528629D01*
X212359343Y-185457200D01*
X212502201Y-185385771D01*
X212716486Y-185385771D01*
X212859343Y-185457200D01*
X212930772Y-185528629D01*
X213002201Y-185671486D01*
X213002201Y-186100057D01*
X212930772Y-186242914D01*
X212859343Y-186314343D01*
X212716486Y-186385771D01*
X212502201Y-186385771D01*
X214287915Y-186385771D02*
X214287915Y-185600057D01*
X214216486Y-185457200D01*
X214073629Y-185385771D01*
X213787915Y-185385771D01*
X213645058Y-185457200D01*
X214287915Y-186314343D02*
X214145058Y-186385771D01*
X213787915Y-186385771D01*
X213645058Y-186314343D01*
X213573629Y-186171486D01*
X213573629Y-186028629D01*
X213645058Y-185885771D01*
X213787915Y-185814343D01*
X214145058Y-185814343D01*
X214287915Y-185742914D01*
X215002201Y-186385771D02*
X215002201Y-185385771D01*
X215002201Y-185671486D02*
X215073629Y-185528629D01*
X215145058Y-185457200D01*
X215287915Y-185385771D01*
X215430772Y-185385771D01*
X216573629Y-186385771D02*
X216573629Y-184885771D01*
X216573629Y-186314343D02*
X216430772Y-186385771D01*
X216145058Y-186385771D01*
X216002200Y-186314343D01*
X215930772Y-186242914D01*
X215859343Y-186100057D01*
X215859343Y-185671486D01*
X215930772Y-185528629D01*
X216002200Y-185457200D01*
X216145058Y-185385771D01*
X216430772Y-185385771D01*
X216573629Y-185457200D01*
X217287915Y-186242914D02*
X217359343Y-186314343D01*
X217287915Y-186385771D01*
X217216486Y-186314343D01*
X217287915Y-186242914D01*
X217287915Y-186385771D01*
X218002201Y-186385771D02*
X218002201Y-184885771D01*
X218145058Y-185814343D02*
X218573629Y-186385771D01*
X218573629Y-185385771D02*
X218002201Y-185957200D01*
X219216487Y-186385771D02*
X219216487Y-185385771D01*
X219216487Y-184885771D02*
X219145058Y-184957200D01*
X219216487Y-185028629D01*
X219287915Y-184957200D01*
X219216487Y-184885771D01*
X219216487Y-185028629D01*
X220573630Y-186314343D02*
X220430773Y-186385771D01*
X220145059Y-186385771D01*
X220002201Y-186314343D01*
X219930773Y-186242914D01*
X219859344Y-186100057D01*
X219859344Y-185671486D01*
X219930773Y-185528629D01*
X220002201Y-185457200D01*
X220145059Y-185385771D01*
X220430773Y-185385771D01*
X220573630Y-185457200D01*
X221859344Y-186385771D02*
X221859344Y-185600057D01*
X221787915Y-185457200D01*
X221645058Y-185385771D01*
X221359344Y-185385771D01*
X221216487Y-185457200D01*
X221859344Y-186314343D02*
X221716487Y-186385771D01*
X221359344Y-186385771D01*
X221216487Y-186314343D01*
X221145058Y-186171486D01*
X221145058Y-186028629D01*
X221216487Y-185885771D01*
X221359344Y-185814343D01*
X221716487Y-185814343D01*
X221859344Y-185742914D01*
X223216487Y-186385771D02*
X223216487Y-184885771D01*
X223216487Y-186314343D02*
X223073630Y-186385771D01*
X222787916Y-186385771D01*
X222645058Y-186314343D01*
X222573630Y-186242914D01*
X222502201Y-186100057D01*
X222502201Y-185671486D01*
X222573630Y-185528629D01*
X222645058Y-185457200D01*
X222787916Y-185385771D01*
X223073630Y-185385771D01*
X223216487Y-185457200D01*
X223573630Y-186528629D02*
X224716487Y-186528629D01*
X225073630Y-185385771D02*
X225073630Y-186885771D01*
X225073630Y-185457200D02*
X225216487Y-185385771D01*
X225502201Y-185385771D01*
X225645058Y-185457200D01*
X225716487Y-185528629D01*
X225787916Y-185671486D01*
X225787916Y-186100057D01*
X225716487Y-186242914D01*
X225645058Y-186314343D01*
X225502201Y-186385771D01*
X225216487Y-186385771D01*
X225073630Y-186314343D01*
X227073630Y-186314343D02*
X226930773Y-186385771D01*
X226645059Y-186385771D01*
X226502201Y-186314343D01*
X226430773Y-186242914D01*
X226359344Y-186100057D01*
X226359344Y-185671486D01*
X226430773Y-185528629D01*
X226502201Y-185457200D01*
X226645059Y-185385771D01*
X226930773Y-185385771D01*
X227073630Y-185457200D01*
X227716487Y-186385771D02*
X227716487Y-184885771D01*
X227716487Y-185457200D02*
X227859344Y-185385771D01*
X228145058Y-185385771D01*
X228287915Y-185457200D01*
X228359344Y-185528629D01*
X228430773Y-185671486D01*
X228430773Y-186100057D01*
X228359344Y-186242914D01*
X228287915Y-186314343D01*
X228145058Y-186385771D01*
X227859344Y-186385771D01*
X227716487Y-186314343D01*
D10*
D11*
X177002200Y-181507200D02*
X285002200Y-181507200D01*
D10*
D11*
X178287914Y-183614343D02*
X178502200Y-183685771D01*
X178859343Y-183685771D01*
X179002200Y-183614343D01*
X179073629Y-183542914D01*
X179145057Y-183400057D01*
X179145057Y-183257200D01*
X179073629Y-183114343D01*
X179002200Y-183042914D01*
X178859343Y-182971486D01*
X178573629Y-182900057D01*
X178430771Y-182828629D01*
X178359343Y-182757200D01*
X178287914Y-182614343D01*
X178287914Y-182471486D01*
X178359343Y-182328629D01*
X178430771Y-182257200D01*
X178573629Y-182185771D01*
X178930771Y-182185771D01*
X179145057Y-182257200D01*
X179787914Y-183685771D02*
X179787914Y-182185771D01*
X180430771Y-183685771D02*
X180430771Y-182900057D01*
X180359342Y-182757200D01*
X180216485Y-182685771D01*
X180002200Y-182685771D01*
X179859342Y-182757200D01*
X179787914Y-182828629D01*
X181716485Y-183614343D02*
X181573628Y-183685771D01*
X181287914Y-183685771D01*
X181145057Y-183614343D01*
X181073628Y-183471486D01*
X181073628Y-182900057D01*
X181145057Y-182757200D01*
X181287914Y-182685771D01*
X181573628Y-182685771D01*
X181716485Y-182757200D01*
X181787914Y-182900057D01*
X181787914Y-183042914D01*
X181073628Y-183185771D01*
X183002199Y-183614343D02*
X182859342Y-183685771D01*
X182573628Y-183685771D01*
X182430771Y-183614343D01*
X182359342Y-183471486D01*
X182359342Y-182900057D01*
X182430771Y-182757200D01*
X182573628Y-182685771D01*
X182859342Y-182685771D01*
X183002199Y-182757200D01*
X183073628Y-182900057D01*
X183073628Y-183042914D01*
X182359342Y-183185771D01*
X183502199Y-182685771D02*
X184073628Y-182685771D01*
X183716485Y-182185771D02*
X183716485Y-183471486D01*
X183787913Y-183614343D01*
X183930771Y-183685771D01*
X184073628Y-183685771D01*
X184573628Y-183542914D02*
X184645056Y-183614343D01*
X184573628Y-183685771D01*
X184502199Y-183614343D01*
X184573628Y-183542914D01*
X184573628Y-183685771D01*
X184573628Y-182757200D02*
X184645056Y-182828629D01*
X184573628Y-182900057D01*
X184502199Y-182828629D01*
X184573628Y-182757200D01*
X184573628Y-182900057D01*
D10*
D11*
X197002200Y-191507200D02*
X197002200Y-194507200D01*
D10*
D11*
X261002200Y-191507200D02*
X261002200Y-198007200D01*
D14*
X113000000Y-92200000D03*
X118400000Y-92200000D03*
D15*
X147200000Y-90300000D03*
X147200000Y-94300000D03*
X149600000Y-90300000D03*
X149600000Y-94300000D03*
X153000000Y-76000000D03*
X153000000Y-80000000D03*
D16*
X166275000Y-88175000D03*
X170275000Y-88175000D03*
D15*
X174500000Y-82500000D03*
X174500000Y-86500000D03*
D16*
X173700000Y-76400000D03*
X169700000Y-76400000D03*
D15*
X176800000Y-74200000D03*
X176800000Y-78200000D03*
X165750000Y-81500000D03*
X165750000Y-85500000D03*
X149750000Y-76000000D03*
X149750000Y-80000000D03*
D16*
X157500000Y-92500000D03*
X161500000Y-92500000D03*
D15*
X127200000Y-75400000D03*
X127200000Y-79400000D03*
D14*
X122800000Y-92200000D03*
X128200000Y-92200000D03*
X121300000Y-84600000D03*
X126700000Y-84600000D03*
D15*
X186400000Y-103500000D03*
X186400000Y-107500000D03*
D16*
X147250000Y-113250000D03*
X143250000Y-113250000D03*
X147250000Y-104250000D03*
X143250000Y-104250000D03*
X143250000Y-108750000D03*
X147250000Y-108750000D03*
X143250000Y-111000000D03*
X147250000Y-111000000D03*
X147250000Y-115500000D03*
X143250000Y-115500000D03*
X147250000Y-106500000D03*
X143250000Y-106500000D03*
D15*
X175600000Y-111600000D03*
X175600000Y-115600000D03*
X150750000Y-115500000D03*
X150750000Y-111500000D03*
X160000000Y-115000000D03*
X160000000Y-111000000D03*
D14*
X163050000Y-125500000D03*
X168450000Y-125500000D03*
D16*
X152900000Y-111400000D03*
X156900000Y-111400000D03*
D14*
X152050000Y-125500000D03*
X157450000Y-125500000D03*
D16*
X175900000Y-94700000D03*
X179900000Y-94700000D03*
D15*
X159800000Y-108400000D03*
X159800000Y-104400000D03*
D17*
X130600000Y-82350000D03*
X130600000Y-85650000D03*
D18*
X163006000Y-90305000D03*
X163006000Y-89035000D03*
X163006000Y-87765000D03*
X163006000Y-86495000D03*
X163006000Y-85225000D03*
X163006000Y-83955000D03*
X163006000Y-82685000D03*
X163006000Y-81415000D03*
X163006000Y-80145000D03*
X163006000Y-78875000D03*
X163006000Y-77605000D03*
X163006000Y-76335000D03*
X163006000Y-75065000D03*
X163006000Y-73795000D03*
X155894000Y-73795000D03*
X155894000Y-75065000D03*
X155894000Y-76335000D03*
X155894000Y-77605000D03*
X155894000Y-78875000D03*
X155894000Y-80145000D03*
X155894000Y-81415000D03*
X155894000Y-82685000D03*
X155894000Y-83955000D03*
X155894000Y-85225000D03*
X155894000Y-86495000D03*
X155894000Y-87765000D03*
X155894000Y-89035000D03*
X155894000Y-90305000D03*
D19*
X203800000Y-85700000D03*
X203800000Y-71980000D03*
D20*
X194660000Y-86210000D03*
X194660000Y-83920000D03*
X194660000Y-72490000D03*
X194660000Y-74780000D03*
X199480000Y-82910000D03*
X199480000Y-80880000D03*
X199480000Y-78850000D03*
X199480000Y-76820000D03*
X201260000Y-81890000D03*
X201260000Y-79860000D03*
X201260000Y-77830000D03*
X201260000Y-75800000D03*
D21*
X200370000Y-71220000D03*
X200370000Y-87480000D03*
D22*
X165100000Y-100850000D03*
X165100000Y-99750000D03*
D23*
X173700000Y-74100000D03*
X169700000Y-74100000D03*
D24*
X142450000Y-89600000D03*
X133950000Y-89600000D03*
D25*
X174000000Y-126750000D03*
D26*
X174000000Y-124210000D03*
D25*
X142800000Y-80500000D03*
D26*
X140260000Y-80500000D03*
X137720000Y-80500000D03*
X135180000Y-80500000D03*
D25*
X108600000Y-102300000D03*
D26*
X108600000Y-104840000D03*
X108600000Y-107380000D03*
X108600000Y-109920000D03*
D25*
X108600000Y-90400000D03*
D26*
X108600000Y-92940000D03*
X108600000Y-95480000D03*
X108600000Y-98020000D03*
D25*
X135200000Y-75600000D03*
D26*
X137740000Y-75600000D03*
X140280000Y-75600000D03*
X142820000Y-75600000D03*
D25*
X179600000Y-125000000D03*
D26*
X179600000Y-122460000D03*
X179600000Y-119920000D03*
X179600000Y-117380000D03*
X179600000Y-114840000D03*
X179600000Y-112300000D03*
D25*
X122220000Y-70880000D03*
D26*
X124760000Y-70880000D03*
X127300000Y-70880000D03*
X129840000Y-70880000D03*
X132380000Y-70880000D03*
X134920000Y-70880000D03*
X137460000Y-70880000D03*
X140000000Y-70880000D03*
X142540000Y-70880000D03*
X145080000Y-70880000D03*
D25*
X149150000Y-70860000D03*
D26*
X151690000Y-70860000D03*
X154230000Y-70860000D03*
X156770000Y-70860000D03*
X159310000Y-70860000D03*
X161850000Y-70860000D03*
X164390000Y-70860000D03*
X166930000Y-70860000D03*
D25*
X171960000Y-70840000D03*
D26*
X174500000Y-70840000D03*
X177040000Y-70840000D03*
X179580000Y-70840000D03*
X182120000Y-70840000D03*
X184660000Y-70840000D03*
X187200000Y-70840000D03*
X189740000Y-70840000D03*
D25*
X131300000Y-119130000D03*
D26*
X133840000Y-119130000D03*
X136380000Y-119130000D03*
X138920000Y-119130000D03*
X141460000Y-119130000D03*
X144000000Y-119130000D03*
X146540000Y-119130000D03*
X149080000Y-119130000D03*
D25*
X154170000Y-119150000D03*
D26*
X156710000Y-119150000D03*
X159250000Y-119150000D03*
X161790000Y-119150000D03*
X164330000Y-119150000D03*
X166870000Y-119150000D03*
X169410000Y-119150000D03*
X171950000Y-119150000D03*
D25*
X169540000Y-91190000D03*
D26*
X167000000Y-91190000D03*
X169540000Y-93730000D03*
X167000000Y-93730000D03*
X169540000Y-96270000D03*
X167000000Y-96270000D03*
D25*
X137600000Y-105600000D03*
D26*
X135060000Y-105600000D03*
X132520000Y-105600000D03*
D25*
X137600000Y-110100000D03*
D26*
X135060000Y-110100000D03*
X132520000Y-110100000D03*
D25*
X137600000Y-114700000D03*
D26*
X135060000Y-114700000D03*
X132520000Y-114700000D03*
D25*
X133000000Y-123000000D03*
D26*
X133000000Y-125540000D03*
X133000000Y-128080000D03*
D25*
X138750000Y-123000000D03*
D26*
X138750000Y-125540000D03*
X138750000Y-128080000D03*
D25*
X144500000Y-123000000D03*
D26*
X144500000Y-125540000D03*
X144500000Y-128080000D03*
D27*
X113750000Y-99000000D03*
D28*
X116250000Y-99000000D03*
X118750000Y-99000000D03*
X121250000Y-99000000D03*
X123750000Y-99000000D03*
X126250000Y-99000000D03*
X128750000Y-99000000D03*
X131250000Y-99000000D03*
X133750000Y-99000000D03*
X136250000Y-99000000D03*
X138750000Y-99000000D03*
X141250000Y-99000000D03*
X143750000Y-99000000D03*
X146250000Y-99000000D03*
X148750000Y-99000000D03*
X151250000Y-99000000D03*
X153750000Y-99000000D03*
X156250000Y-99000000D03*
X158750000Y-99000000D03*
X161250000Y-99000000D03*
D23*
X169750000Y-78750000D03*
X165750000Y-78750000D03*
D29*
X168250000Y-81500000D03*
X168250000Y-85500000D03*
D30*
X172500000Y-84350000D03*
X172500000Y-82150000D03*
X170750000Y-82150000D03*
X170750000Y-84350000D03*
D17*
X165250000Y-73750000D03*
X167450000Y-73750000D03*
X167450000Y-75300000D03*
X165250000Y-75300000D03*
D29*
X193500000Y-91250000D03*
X193500000Y-95250000D03*
D23*
X200700000Y-90700000D03*
X196700000Y-90700000D03*
D29*
X146900000Y-83100000D03*
X146900000Y-87100000D03*
X149400000Y-83100000D03*
X149400000Y-87100000D03*
D23*
X168400000Y-101600000D03*
X172400000Y-101600000D03*
X168800000Y-106200000D03*
X172800000Y-106200000D03*
X172800000Y-108800000D03*
X168800000Y-108800000D03*
X172800000Y-103900000D03*
X168800000Y-103900000D03*
D29*
X173000000Y-111750000D03*
X173000000Y-115750000D03*
X173100000Y-94400000D03*
X173100000Y-90400000D03*
X191800000Y-103000000D03*
X191800000Y-107000000D03*
X189100000Y-103000000D03*
X189100000Y-107000000D03*
X187750000Y-96250000D03*
X187750000Y-100250000D03*
X190000000Y-96250000D03*
X190000000Y-100250000D03*
X183250000Y-96250000D03*
X183250000Y-100250000D03*
X185500000Y-96250000D03*
X185500000Y-100250000D03*
X190500000Y-88250000D03*
X190500000Y-92250000D03*
X187750000Y-88250000D03*
X187750000Y-92250000D03*
X185000000Y-88250000D03*
X185000000Y-92250000D03*
X182250000Y-88250000D03*
X182250000Y-92250000D03*
D31*
X196700000Y-105600000D03*
X196700000Y-102200000D03*
D32*
X181117500Y-79265000D03*
X181117500Y-77995000D03*
X181117500Y-76725000D03*
X181117500Y-75455000D03*
X181117500Y-80535000D03*
X181117500Y-81805000D03*
X181117500Y-83075000D03*
X181117500Y-84345000D03*
X189882500Y-75455000D03*
X189882500Y-76725000D03*
X189882500Y-77995000D03*
X189882500Y-79265000D03*
X189882500Y-80535000D03*
X189882500Y-81805000D03*
X189882500Y-83075000D03*
X189882500Y-84345000D03*
D33*
X109300000Y-85475000D03*
X111000000Y-85475000D03*
X112700000Y-85475000D03*
X114400000Y-85475000D03*
X116100000Y-85475000D03*
D34*
X112700000Y-76325000D03*
D35*
X205500000Y-111750000D03*
X203500000Y-111750000D03*
X201500000Y-111750000D03*
X199500000Y-111750000D03*
X197500000Y-111750000D03*
X195500000Y-111750000D03*
X193500000Y-111750000D03*
X191500000Y-111750000D03*
X191500000Y-127750000D03*
X193500000Y-127750000D03*
X195500000Y-127750000D03*
X197500000Y-127750000D03*
X199500000Y-127750000D03*
X201500000Y-127750000D03*
X203500000Y-127750000D03*
X205500000Y-127750000D03*
D36*
X156350000Y-115650000D03*
X156350000Y-114700000D03*
X156350000Y-113750000D03*
X153650000Y-113750000D03*
X153650000Y-115650000D03*
X153650000Y-114700000D03*
D37*
X153050000Y-107525000D03*
X153050000Y-108175000D03*
X153050000Y-108825000D03*
X153050000Y-109475000D03*
X157450000Y-109475000D03*
X157450000Y-108825000D03*
X157450000Y-108175000D03*
X157450000Y-107525000D03*
X153050000Y-103775000D03*
X153050000Y-104425000D03*
X153050000Y-105075000D03*
X153050000Y-105725000D03*
X157450000Y-105725000D03*
X157450000Y-105075000D03*
X157450000Y-104425000D03*
X157450000Y-103775000D03*
D38*
X178050000Y-104595000D03*
X178050000Y-105865000D03*
X178050000Y-107135000D03*
X178050000Y-108405000D03*
X183450000Y-108405000D03*
X183450000Y-107135000D03*
X183450000Y-105865000D03*
X183450000Y-104595000D03*
X174800000Y-97345000D03*
X174800000Y-98615000D03*
X174800000Y-99885000D03*
X174800000Y-101155000D03*
X180200000Y-101155000D03*
X180200000Y-99885000D03*
X180200000Y-98615000D03*
X180200000Y-97345000D03*
D39*
X114225000Y-105850000D03*
X114225000Y-107550000D03*
X114225000Y-109250000D03*
X114225000Y-110950000D03*
X114225000Y-112650000D03*
D40*
X123375000Y-109250000D03*
D41*
X152800000Y-88300000D03*
X152800000Y-93500000D03*
D42*
X111500000Y-121450000D03*
X111500000Y-127550000D03*
D43*
X114900000Y-117750000D03*
X114900000Y-115650000D03*
D44*
X122750000Y-118000000D03*
X122750000Y-126500000D03*
D45*
X111900000Y-114700000D03*
X111900000Y-117700000D03*
D46*
X123000000Y-76800000D03*
X120000000Y-76800000D03*
D29*
X108750000Y-117250000D03*
X108750000Y-113250000D03*
D23*
X124400000Y-74100000D03*
X120400000Y-74100000D03*
D16*
X162200000Y-106400000D03*
X166200000Y-106400000D03*
X162200000Y-104200000D03*
X166200000Y-104200000D03*
D47*
X205000000Y-108500000D03*
X202460000Y-108500000D03*
X199920000Y-108500000D03*
X197380000Y-108500000D03*
X205000000Y-93500000D03*
X202460000Y-93500000D03*
X199920000Y-93500000D03*
X197380000Y-93500000D03*
M02*
