G04 #@! TF.FileFunction,Legend,Bot*
%FSLAX46Y46*%
G04 Gerber Fmt 4.6, Leading zero omitted, Abs format (unit mm)*
G04 Created by KiCad (PCBNEW 4.0.5) date 03/12/18 21:03:07*
%MOMM*%
%LPD*%
G01*
G04 APERTURE LIST*
%ADD10C,0.100000*%
%ADD11C,0.120000*%
%ADD12C,0.150000*%
G04 APERTURE END LIST*
D10*
D11*
X184490000Y-120330000D02*
X184490000Y-119400000D01*
X184490000Y-117170000D02*
X184490000Y-118100000D01*
X184490000Y-117170000D02*
X186650000Y-117170000D01*
X184490000Y-120330000D02*
X185950000Y-120330000D01*
X190510000Y-117170000D02*
X190510000Y-118100000D01*
X190510000Y-120330000D02*
X190510000Y-119400000D01*
X190510000Y-120330000D02*
X188350000Y-120330000D01*
X190510000Y-117170000D02*
X189050000Y-117170000D01*
X190510000Y-122170000D02*
X190510000Y-123100000D01*
X190510000Y-125330000D02*
X190510000Y-124400000D01*
X190510000Y-125330000D02*
X188350000Y-125330000D01*
X190510000Y-122170000D02*
X189050000Y-122170000D01*
X184490000Y-125330000D02*
X184490000Y-124400000D01*
X184490000Y-122170000D02*
X184490000Y-123100000D01*
X184490000Y-122170000D02*
X186650000Y-122170000D01*
X184490000Y-125330000D02*
X185950000Y-125330000D01*
X194510000Y-119670000D02*
X194510000Y-120600000D01*
X194510000Y-122830000D02*
X194510000Y-121900000D01*
X194510000Y-122830000D02*
X192350000Y-122830000D01*
X194510000Y-119670000D02*
X193050000Y-119670000D01*
X196250000Y-126430000D02*
X194250000Y-126430000D01*
X194250000Y-128570000D02*
X196250000Y-128570000D01*
X194250000Y-125570000D02*
X196250000Y-125570000D01*
X196250000Y-123430000D02*
X194250000Y-123430000D01*
X186500000Y-111930000D02*
X184500000Y-111930000D01*
X184500000Y-114070000D02*
X186500000Y-114070000D01*
X186500000Y-114430000D02*
X184500000Y-114430000D01*
X184500000Y-116570000D02*
X186500000Y-116570000D01*
X191500000Y-116570000D02*
X193500000Y-116570000D01*
X193500000Y-114430000D02*
X191500000Y-114430000D01*
X193500000Y-111930000D02*
X191500000Y-111930000D01*
X191500000Y-114070000D02*
X193500000Y-114070000D01*
X200500000Y-119070000D02*
X202500000Y-119070000D01*
X202500000Y-116930000D02*
X200500000Y-116930000D01*
X200500000Y-116320000D02*
X202500000Y-116320000D01*
X202500000Y-114180000D02*
X200500000Y-114180000D01*
D12*
X185345238Y-116797619D02*
X185440476Y-116750000D01*
X185535714Y-116654762D01*
X185678571Y-116511905D01*
X185773810Y-116464286D01*
X185869048Y-116464286D01*
X185821429Y-116702381D02*
X185916667Y-116654762D01*
X186011905Y-116559524D01*
X186059524Y-116369048D01*
X186059524Y-116035714D01*
X186011905Y-115845238D01*
X185916667Y-115750000D01*
X185821429Y-115702381D01*
X185630952Y-115702381D01*
X185535714Y-115750000D01*
X185440476Y-115845238D01*
X185392857Y-116035714D01*
X185392857Y-116369048D01*
X185440476Y-116559524D01*
X185535714Y-116654762D01*
X185630952Y-116702381D01*
X185821429Y-116702381D01*
X184440476Y-116702381D02*
X185011905Y-116702381D01*
X184726191Y-116702381D02*
X184726191Y-115702381D01*
X184821429Y-115845238D01*
X184916667Y-115940476D01*
X185011905Y-115988095D01*
X189845238Y-121797619D02*
X189940476Y-121750000D01*
X190035714Y-121654762D01*
X190178571Y-121511905D01*
X190273810Y-121464286D01*
X190369048Y-121464286D01*
X190321429Y-121702381D02*
X190416667Y-121654762D01*
X190511905Y-121559524D01*
X190559524Y-121369048D01*
X190559524Y-121035714D01*
X190511905Y-120845238D01*
X190416667Y-120750000D01*
X190321429Y-120702381D01*
X190130952Y-120702381D01*
X190035714Y-120750000D01*
X189940476Y-120845238D01*
X189892857Y-121035714D01*
X189892857Y-121369048D01*
X189940476Y-121559524D01*
X190035714Y-121654762D01*
X190130952Y-121702381D01*
X190321429Y-121702381D01*
X189511905Y-120797619D02*
X189464286Y-120750000D01*
X189369048Y-120702381D01*
X189130952Y-120702381D01*
X189035714Y-120750000D01*
X188988095Y-120797619D01*
X188940476Y-120892857D01*
X188940476Y-120988095D01*
X188988095Y-121130952D01*
X189559524Y-121702381D01*
X188940476Y-121702381D01*
X189845238Y-126797619D02*
X189940476Y-126750000D01*
X190035714Y-126654762D01*
X190178571Y-126511905D01*
X190273810Y-126464286D01*
X190369048Y-126464286D01*
X190321429Y-126702381D02*
X190416667Y-126654762D01*
X190511905Y-126559524D01*
X190559524Y-126369048D01*
X190559524Y-126035714D01*
X190511905Y-125845238D01*
X190416667Y-125750000D01*
X190321429Y-125702381D01*
X190130952Y-125702381D01*
X190035714Y-125750000D01*
X189940476Y-125845238D01*
X189892857Y-126035714D01*
X189892857Y-126369048D01*
X189940476Y-126559524D01*
X190035714Y-126654762D01*
X190130952Y-126702381D01*
X190321429Y-126702381D01*
X189559524Y-125702381D02*
X188940476Y-125702381D01*
X189273810Y-126083333D01*
X189130952Y-126083333D01*
X189035714Y-126130952D01*
X188988095Y-126178571D01*
X188940476Y-126273810D01*
X188940476Y-126511905D01*
X188988095Y-126607143D01*
X189035714Y-126654762D01*
X189130952Y-126702381D01*
X189416667Y-126702381D01*
X189511905Y-126654762D01*
X189559524Y-126607143D01*
X185345238Y-121797619D02*
X185440476Y-121750000D01*
X185535714Y-121654762D01*
X185678571Y-121511905D01*
X185773810Y-121464286D01*
X185869048Y-121464286D01*
X185821429Y-121702381D02*
X185916667Y-121654762D01*
X186011905Y-121559524D01*
X186059524Y-121369048D01*
X186059524Y-121035714D01*
X186011905Y-120845238D01*
X185916667Y-120750000D01*
X185821429Y-120702381D01*
X185630952Y-120702381D01*
X185535714Y-120750000D01*
X185440476Y-120845238D01*
X185392857Y-121035714D01*
X185392857Y-121369048D01*
X185440476Y-121559524D01*
X185535714Y-121654762D01*
X185630952Y-121702381D01*
X185821429Y-121702381D01*
X184535714Y-121035714D02*
X184535714Y-121702381D01*
X184773810Y-120654762D02*
X185011905Y-121369048D01*
X184392857Y-121369048D01*
X193845238Y-124297619D02*
X193940476Y-124250000D01*
X194035714Y-124154762D01*
X194178571Y-124011905D01*
X194273810Y-123964286D01*
X194369048Y-123964286D01*
X194321429Y-124202381D02*
X194416667Y-124154762D01*
X194511905Y-124059524D01*
X194559524Y-123869048D01*
X194559524Y-123535714D01*
X194511905Y-123345238D01*
X194416667Y-123250000D01*
X194321429Y-123202381D01*
X194130952Y-123202381D01*
X194035714Y-123250000D01*
X193940476Y-123345238D01*
X193892857Y-123535714D01*
X193892857Y-123869048D01*
X193940476Y-124059524D01*
X194035714Y-124154762D01*
X194130952Y-124202381D01*
X194321429Y-124202381D01*
X192988095Y-123202381D02*
X193464286Y-123202381D01*
X193511905Y-123678571D01*
X193464286Y-123630952D01*
X193369048Y-123583333D01*
X193130952Y-123583333D01*
X193035714Y-123630952D01*
X192988095Y-123678571D01*
X192940476Y-123773810D01*
X192940476Y-124011905D01*
X192988095Y-124107143D01*
X193035714Y-124154762D01*
X193130952Y-124202381D01*
X193369048Y-124202381D01*
X193464286Y-124154762D01*
X193511905Y-124107143D01*
X195416666Y-129802381D02*
X195750000Y-129326190D01*
X195988095Y-129802381D02*
X195988095Y-128802381D01*
X195607142Y-128802381D01*
X195511904Y-128850000D01*
X195464285Y-128897619D01*
X195416666Y-128992857D01*
X195416666Y-129135714D01*
X195464285Y-129230952D01*
X195511904Y-129278571D01*
X195607142Y-129326190D01*
X195988095Y-129326190D01*
X194464285Y-129802381D02*
X195035714Y-129802381D01*
X194750000Y-129802381D02*
X194750000Y-128802381D01*
X194845238Y-128945238D01*
X194940476Y-129040476D01*
X195035714Y-129088095D01*
X195416666Y-123102381D02*
X195750000Y-122626190D01*
X195988095Y-123102381D02*
X195988095Y-122102381D01*
X195607142Y-122102381D01*
X195511904Y-122150000D01*
X195464285Y-122197619D01*
X195416666Y-122292857D01*
X195416666Y-122435714D01*
X195464285Y-122530952D01*
X195511904Y-122578571D01*
X195607142Y-122626190D01*
X195988095Y-122626190D01*
X195035714Y-122197619D02*
X194988095Y-122150000D01*
X194892857Y-122102381D01*
X194654761Y-122102381D01*
X194559523Y-122150000D01*
X194511904Y-122197619D01*
X194464285Y-122292857D01*
X194464285Y-122388095D01*
X194511904Y-122530952D01*
X195083333Y-123102381D01*
X194464285Y-123102381D01*
X185666666Y-115302381D02*
X186000000Y-114826190D01*
X186238095Y-115302381D02*
X186238095Y-114302381D01*
X185857142Y-114302381D01*
X185761904Y-114350000D01*
X185714285Y-114397619D01*
X185666666Y-114492857D01*
X185666666Y-114635714D01*
X185714285Y-114730952D01*
X185761904Y-114778571D01*
X185857142Y-114826190D01*
X186238095Y-114826190D01*
X185333333Y-114302381D02*
X184714285Y-114302381D01*
X185047619Y-114683333D01*
X184904761Y-114683333D01*
X184809523Y-114730952D01*
X184761904Y-114778571D01*
X184714285Y-114873810D01*
X184714285Y-115111905D01*
X184761904Y-115207143D01*
X184809523Y-115254762D01*
X184904761Y-115302381D01*
X185190476Y-115302381D01*
X185285714Y-115254762D01*
X185333333Y-115207143D01*
X185666666Y-117802381D02*
X186000000Y-117326190D01*
X186238095Y-117802381D02*
X186238095Y-116802381D01*
X185857142Y-116802381D01*
X185761904Y-116850000D01*
X185714285Y-116897619D01*
X185666666Y-116992857D01*
X185666666Y-117135714D01*
X185714285Y-117230952D01*
X185761904Y-117278571D01*
X185857142Y-117326190D01*
X186238095Y-117326190D01*
X184809523Y-117135714D02*
X184809523Y-117802381D01*
X185047619Y-116754762D02*
X185285714Y-117469048D01*
X184666666Y-117469048D01*
X192666666Y-114102381D02*
X193000000Y-113626190D01*
X193238095Y-114102381D02*
X193238095Y-113102381D01*
X192857142Y-113102381D01*
X192761904Y-113150000D01*
X192714285Y-113197619D01*
X192666666Y-113292857D01*
X192666666Y-113435714D01*
X192714285Y-113530952D01*
X192761904Y-113578571D01*
X192857142Y-113626190D01*
X193238095Y-113626190D01*
X191761904Y-113102381D02*
X192238095Y-113102381D01*
X192285714Y-113578571D01*
X192238095Y-113530952D01*
X192142857Y-113483333D01*
X191904761Y-113483333D01*
X191809523Y-113530952D01*
X191761904Y-113578571D01*
X191714285Y-113673810D01*
X191714285Y-113911905D01*
X191761904Y-114007143D01*
X191809523Y-114054762D01*
X191904761Y-114102381D01*
X192142857Y-114102381D01*
X192238095Y-114054762D01*
X192285714Y-114007143D01*
X192666666Y-115302381D02*
X193000000Y-114826190D01*
X193238095Y-115302381D02*
X193238095Y-114302381D01*
X192857142Y-114302381D01*
X192761904Y-114350000D01*
X192714285Y-114397619D01*
X192666666Y-114492857D01*
X192666666Y-114635714D01*
X192714285Y-114730952D01*
X192761904Y-114778571D01*
X192857142Y-114826190D01*
X193238095Y-114826190D01*
X191809523Y-114302381D02*
X192000000Y-114302381D01*
X192095238Y-114350000D01*
X192142857Y-114397619D01*
X192238095Y-114540476D01*
X192285714Y-114730952D01*
X192285714Y-115111905D01*
X192238095Y-115207143D01*
X192190476Y-115254762D01*
X192095238Y-115302381D01*
X191904761Y-115302381D01*
X191809523Y-115254762D01*
X191761904Y-115207143D01*
X191714285Y-115111905D01*
X191714285Y-114873810D01*
X191761904Y-114778571D01*
X191809523Y-114730952D01*
X191904761Y-114683333D01*
X192095238Y-114683333D01*
X192190476Y-114730952D01*
X192238095Y-114778571D01*
X192285714Y-114873810D01*
X202142857Y-116602381D02*
X202476191Y-116126190D01*
X202714286Y-116602381D02*
X202714286Y-115602381D01*
X202333333Y-115602381D01*
X202238095Y-115650000D01*
X202190476Y-115697619D01*
X202142857Y-115792857D01*
X202142857Y-115935714D01*
X202190476Y-116030952D01*
X202238095Y-116078571D01*
X202333333Y-116126190D01*
X202714286Y-116126190D01*
X201190476Y-116602381D02*
X201761905Y-116602381D01*
X201476191Y-116602381D02*
X201476191Y-115602381D01*
X201571429Y-115745238D01*
X201666667Y-115840476D01*
X201761905Y-115888095D01*
X200857143Y-115602381D02*
X200190476Y-115602381D01*
X200619048Y-116602381D01*
X202142857Y-113852381D02*
X202476191Y-113376190D01*
X202714286Y-113852381D02*
X202714286Y-112852381D01*
X202333333Y-112852381D01*
X202238095Y-112900000D01*
X202190476Y-112947619D01*
X202142857Y-113042857D01*
X202142857Y-113185714D01*
X202190476Y-113280952D01*
X202238095Y-113328571D01*
X202333333Y-113376190D01*
X202714286Y-113376190D01*
X201809524Y-112852381D02*
X201190476Y-112852381D01*
X201523810Y-113233333D01*
X201380952Y-113233333D01*
X201285714Y-113280952D01*
X201238095Y-113328571D01*
X201190476Y-113423810D01*
X201190476Y-113661905D01*
X201238095Y-113757143D01*
X201285714Y-113804762D01*
X201380952Y-113852381D01*
X201666667Y-113852381D01*
X201761905Y-113804762D01*
X201809524Y-113757143D01*
X200333333Y-112852381D02*
X200523810Y-112852381D01*
X200619048Y-112900000D01*
X200666667Y-112947619D01*
X200761905Y-113090476D01*
X200809524Y-113280952D01*
X200809524Y-113661905D01*
X200761905Y-113757143D01*
X200714286Y-113804762D01*
X200619048Y-113852381D01*
X200428571Y-113852381D01*
X200333333Y-113804762D01*
X200285714Y-113757143D01*
X200238095Y-113661905D01*
X200238095Y-113423810D01*
X200285714Y-113328571D01*
X200333333Y-113280952D01*
X200428571Y-113233333D01*
X200619048Y-113233333D01*
X200714286Y-113280952D01*
X200761905Y-113328571D01*
X200809524Y-113423810D01*
M02*
