M48
;DRILL file {KiCad 4.0.5} date 03/21/18 16:23:25
;FORMAT={3:3/ absolute / metric / suppress leading zeros}
FMAT,2
METRIC,TZ
T1C0.600
T2C0.800
T3C1.000
T4C1.001
T5C1.100
T6C1.501
T7C1.999
T8C2.000
%
G90
G05
M71
T1
X95460Y-125000
X96730Y-126270
X98000Y-125000
X101230Y-124730
X102500Y-123460
X102500Y-126000
T2
X68000Y-125000
X68000Y-127500
X68000Y-129880
X68000Y-137500
X68000Y-139880
X68000Y-147500
X71500Y-125880
X71500Y-133500
X71500Y-135880
X71500Y-143500
X71500Y-146000
X71500Y-148500
X73880Y-123000
X75000Y-126000
X75000Y-128500
X75000Y-130880
X75000Y-138500
X75000Y-140880
X75000Y-148500
X78000Y-126500
X78000Y-129040
X78000Y-131580
X78000Y-134120
X78000Y-136660
X78000Y-139200
X78000Y-141740
X78000Y-145000
X78000Y-148000
X81500Y-123000
X85620Y-126500
X85620Y-129040
X85620Y-131580
X85620Y-134120
X85620Y-136660
X85620Y-139200
X85620Y-141740
X85620Y-145000
X85620Y-148000
X88000Y-126000
X88000Y-128500
X88500Y-131000
X88500Y-138620
X88500Y-140880
X88500Y-148500
X92000Y-132000
X92000Y-139620
X92000Y-142000
X92000Y-149620
X95500Y-131000
X96000Y-137000
X96000Y-139540
X96000Y-142080
X96000Y-144620
X98000Y-131000
X101000Y-129500
X101000Y-133500
X103500Y-129500
X103500Y-133500
X103620Y-137000
X103620Y-139540
X103620Y-142080
X103620Y-144620
X108000Y-123500
X108000Y-126000
X112380Y-148500
X113380Y-137500
X113380Y-141500
X113500Y-145000
X115380Y-134000
X118500Y-124500
X120000Y-148500
X121000Y-124500
X121000Y-137500
X121000Y-141500
X121120Y-145000
X123000Y-134000
T3
X107000Y-130460
X107000Y-133000
X107500Y-137000
X107500Y-139540
X107500Y-142080
X107500Y-144620
X109540Y-130460
X109540Y-133000
X110040Y-137000
X110040Y-139540
X110040Y-142080
X110040Y-144620
X112080Y-130460
X112080Y-133000
X136000Y-131200
X136000Y-133740
X136000Y-136280
X136000Y-142300
X136000Y-144840
X136000Y-147380
T4
X63000Y-132500
X63000Y-142660
X102000Y-149000
X107000Y-149000
T5
X145900Y-125500
X145900Y-133120
X145900Y-139600
X145900Y-147220
T6
X141500Y-124100
X141500Y-134260
X141500Y-138500
X141500Y-148660
T7
X114840Y-124500
X125000Y-124500
T8
X130400Y-124800
X130400Y-147700
T0
M30
