M48
;DRILL file {KiCad 4.0.5} date 03/21/18 17:23:15
;FORMAT={3:3/ absolute / metric / suppress leading zeros}
FMAT,2
METRIC,TZ
T1C0.600
T2C0.800
T3C1.000
T4C1.001
T5C1.100
T6C1.501
T7C1.999
T8C2.000
%
G90
G05
M71
T1
X92560Y-126800
X93830Y-128070
X95100Y-126800
X101230Y-124730
X102500Y-123460
X102500Y-126000
T2
X68000Y-125000
X68000Y-127500
X68000Y-129880
X68000Y-137500
X68000Y-139880
X68000Y-147500
X71500Y-125880
X71500Y-133500
X71500Y-135880
X71500Y-143500
X71500Y-146000
X71500Y-148500
X73880Y-123000
X75000Y-126000
X75000Y-128500
X75000Y-130880
X75000Y-138500
X75000Y-140880
X75000Y-148500
X78000Y-126500
X78000Y-129040
X78000Y-131580
X78000Y-134120
X78000Y-136660
X78000Y-139200
X78000Y-141740
X78000Y-145000
X78000Y-148000
X81500Y-123000
X85620Y-126500
X85620Y-129040
X85620Y-131580
X85620Y-134120
X85620Y-136660
X85620Y-139200
X85620Y-141740
X85620Y-145000
X85620Y-148000
X88000Y-126000
X88000Y-128500
X88500Y-131900
X88500Y-139520
X88500Y-141880
X88500Y-149500
X91280Y-149000
X92000Y-138400
X92000Y-146020
X92600Y-132600
X95100Y-132600
X96000Y-137000
X96000Y-139540
X96000Y-142080
X96000Y-144620
X98000Y-129300
X98000Y-133000
X98900Y-149000
X100500Y-129300
X100500Y-133000
X103620Y-137000
X103620Y-139540
X103620Y-142080
X103620Y-144620
X108000Y-123500
X108000Y-126000
X112380Y-134300
X112480Y-138300
X112480Y-141800
X112480Y-148900
X112500Y-145300
X118500Y-124500
X120000Y-134300
X120100Y-138300
X120100Y-141800
X120100Y-148900
X120120Y-145300
X121000Y-124500
T3
X104100Y-130060
X104100Y-132600
X106600Y-137000
X106600Y-139540
X106600Y-142080
X106600Y-144620
X106640Y-130060
X106640Y-132600
X109140Y-137000
X109140Y-139540
X109140Y-142080
X109140Y-144620
X109180Y-130060
X109180Y-132600
X123800Y-131100
X123800Y-133640
X123800Y-136180
X123900Y-142100
X123900Y-144640
X123900Y-147180
T4
X63000Y-132500
X63000Y-142660
X102000Y-149000
X107000Y-149000
T5
X135300Y-140900
X135300Y-148520
X135400Y-125400
X135400Y-133020
T6
X138200Y-135100
X138300Y-139100
X138300Y-149260
X138400Y-123000
T7
X114840Y-124500
X125000Y-124500
T8
X130400Y-124800
X130400Y-147700
T0
M30
