M48
;DRILL file {KiCad 4.0.6} date 03/11/18 16:36:24
;FORMAT={-:-/ absolute / metric / decimal}
FMAT,2
METRIC,TZ
T1C0.600
T2C0.800
T3C1.000
T4C1.001
T5C1.100
T6C1.501
T7C1.999
%
G90
G05
M71
T1
X95.46Y-125.
X96.73Y-126.27
X98.Y-125.
X101.23Y-124.73
X102.5Y-123.46
X102.5Y-126.
T2
X68.Y-125.
X68.Y-127.5
X68.Y-129.88
X68.Y-137.5
X68.Y-139.88
X68.Y-147.5
X71.5Y-125.88
X71.5Y-133.5
X71.5Y-135.88
X71.5Y-143.5
X71.5Y-146.
X71.5Y-148.5
X73.88Y-123.
X75.Y-126.
X75.Y-128.5
X75.Y-130.88
X75.Y-138.5
X75.Y-140.88
X75.Y-148.5
X78.Y-126.5
X78.Y-129.04
X78.Y-131.58
X78.Y-134.12
X78.Y-136.66
X78.Y-139.2
X78.Y-141.74
X78.Y-145.
X78.Y-148.
X81.5Y-123.
X85.62Y-126.5
X85.62Y-129.04
X85.62Y-131.58
X85.62Y-134.12
X85.62Y-136.66
X85.62Y-139.2
X85.62Y-141.74
X85.62Y-145.
X85.62Y-148.
X88.Y-126.
X88.Y-128.5
X88.5Y-131.
X88.5Y-138.62
X88.5Y-140.88
X88.5Y-148.5
X92.Y-121.88
X92.Y-129.5
X92.Y-132.
X92.Y-139.62
X92.Y-142.
X92.Y-149.62
X95.5Y-131.
X96.Y-137.
X96.Y-139.54
X96.Y-142.08
X96.Y-144.62
X98.Y-131.
X101.Y-129.5
X101.Y-133.5
X103.5Y-129.5
X103.5Y-133.5
X103.62Y-137.
X103.62Y-139.54
X103.62Y-142.08
X103.62Y-144.62
X108.Y-123.5
X108.Y-126.
X112.38Y-148.5
X113.38Y-137.5
X113.38Y-141.5
X113.5Y-145.
X115.38Y-134.
X118.5Y-124.5
X120.Y-148.5
X121.Y-124.5
X121.Y-137.5
X121.Y-141.5
X121.12Y-145.
X123.Y-134.
T3
X107.Y-130.46
X107.Y-133.
X107.5Y-137.
X107.5Y-139.54
X107.5Y-142.08
X107.5Y-144.62
X109.54Y-130.46
X109.54Y-133.
X110.04Y-137.
X110.04Y-139.54
X110.04Y-142.08
X110.04Y-144.62
X112.08Y-130.46
X112.08Y-133.
X127.Y-131.
X127.Y-133.54
X127.Y-136.08
X127.Y-142.5
X127.Y-145.04
X127.Y-147.58
T4
X63.Y-132.5
X63.Y-142.66
X102.Y-149.
X107.Y-149.
T5
X135.5Y-124.5
X135.5Y-132.12
X135.5Y-139.5
X135.5Y-147.12
T6
X132.Y-123.
X132.Y-133.16
X132.Y-138.
X132.Y-148.16
T7
X114.84Y-124.5
X125.Y-124.5
T0
M30
