G04 #@! TF.FileFunction,Copper,L1,Top,Signal*
%FSLAX46Y46*%
G04 Gerber Fmt 4.6, Leading zero omitted, Abs format (unit mm)*
G04 Created by KiCad (PCBNEW 4.0.5) date 03/21/18 17:23:09*
%MOMM*%
%LPD*%
G01*
G04 APERTURE LIST*
%ADD10C,0.100000*%
%ADD11C,1.600000*%
%ADD12R,1.600000X1.600000*%
%ADD13O,1.600000X1.600000*%
%ADD14R,2.200000X2.200000*%
%ADD15O,2.200000X2.200000*%
%ADD16C,4.000500*%
%ADD17C,2.499360*%
%ADD18R,1.700000X1.700000*%
%ADD19O,1.700000X1.700000*%
%ADD20C,2.999740*%
%ADD21R,1.800000X1.800000*%
%ADD22O,1.800000X1.800000*%
%ADD23C,1.000000*%
%ADD24R,1.000000X1.000000*%
%ADD25C,3.000000*%
%ADD26C,1.000000*%
%ADD27C,0.250000*%
G04 APERTURE END LIST*
D10*
D11*
X98000000Y-129300000D03*
X100500000Y-129300000D03*
X75000000Y-126000000D03*
X75000000Y-128500000D03*
D12*
X92600000Y-132600000D03*
D11*
X95100000Y-132600000D03*
X71500000Y-146000000D03*
X71500000Y-148500000D03*
D12*
X121000000Y-124500000D03*
D11*
X118500000Y-124500000D03*
X68000000Y-127500000D03*
X68000000Y-125000000D03*
D12*
X108000000Y-126000000D03*
D11*
X108000000Y-123500000D03*
X100500000Y-133000000D03*
X98000000Y-133000000D03*
X88000000Y-128500000D03*
X88000000Y-126000000D03*
D12*
X78000000Y-145000000D03*
D13*
X85620000Y-145000000D03*
D14*
X135400000Y-125400000D03*
D15*
X135400000Y-133020000D03*
D14*
X135300000Y-140900000D03*
D15*
X135300000Y-148520000D03*
D16*
X125000000Y-124500000D03*
X114840000Y-124500000D03*
D17*
X63000000Y-132500000D03*
X63000000Y-142660000D03*
D18*
X104100000Y-132600000D03*
D19*
X104100000Y-130060000D03*
X106640000Y-132600000D03*
X106640000Y-130060000D03*
X109180000Y-132600000D03*
X109180000Y-130060000D03*
D18*
X106600000Y-137000000D03*
D19*
X109140000Y-137000000D03*
X106600000Y-139540000D03*
X109140000Y-139540000D03*
X106600000Y-142080000D03*
X109140000Y-142080000D03*
X106600000Y-144620000D03*
X109140000Y-144620000D03*
D17*
X102000000Y-149000000D03*
X107000000Y-149000000D03*
D20*
X138400000Y-123000000D03*
X138200000Y-135100000D03*
X138300000Y-139100000D03*
X138300000Y-149260000D03*
D21*
X123800000Y-131100000D03*
D22*
X123800000Y-133640000D03*
X123800000Y-136180000D03*
D21*
X123900000Y-142100000D03*
D22*
X123900000Y-144640000D03*
X123900000Y-147180000D03*
D11*
X71500000Y-143500000D03*
D13*
X71500000Y-135880000D03*
D11*
X71500000Y-133500000D03*
D13*
X71500000Y-125880000D03*
D11*
X81500000Y-123000000D03*
D13*
X73880000Y-123000000D03*
D11*
X75000000Y-138500000D03*
D13*
X75000000Y-130880000D03*
D11*
X68000000Y-137500000D03*
D13*
X68000000Y-129880000D03*
D11*
X68000000Y-147500000D03*
D13*
X68000000Y-139880000D03*
D11*
X88500000Y-131900000D03*
D13*
X88500000Y-139520000D03*
D11*
X75000000Y-148500000D03*
D13*
X75000000Y-140880000D03*
D11*
X88500000Y-149500000D03*
D13*
X88500000Y-141880000D03*
D11*
X78000000Y-148000000D03*
D13*
X85620000Y-148000000D03*
D11*
X92000000Y-138400000D03*
D13*
X92000000Y-146020000D03*
D11*
X98900000Y-149000000D03*
D13*
X91280000Y-149000000D03*
D11*
X112500000Y-145300000D03*
D13*
X120120000Y-145300000D03*
D11*
X120100000Y-138300000D03*
D13*
X112480000Y-138300000D03*
D11*
X120000000Y-134300000D03*
D13*
X112380000Y-134300000D03*
D11*
X120100000Y-141800000D03*
D13*
X112480000Y-141800000D03*
D11*
X120100000Y-148900000D03*
D13*
X112480000Y-148900000D03*
D23*
X93830000Y-128070000D03*
X92560000Y-126800000D03*
D24*
X95100000Y-126800000D03*
D12*
X78000000Y-126500000D03*
D13*
X85620000Y-141740000D03*
X78000000Y-129040000D03*
X85620000Y-139200000D03*
X78000000Y-131580000D03*
X85620000Y-136660000D03*
X78000000Y-134120000D03*
X85620000Y-134120000D03*
X78000000Y-136660000D03*
X85620000Y-131580000D03*
X78000000Y-139200000D03*
X85620000Y-129040000D03*
X78000000Y-141740000D03*
X85620000Y-126500000D03*
D23*
X101230000Y-124730000D03*
X102500000Y-123460000D03*
D24*
X102500000Y-126000000D03*
D12*
X96000000Y-137000000D03*
D13*
X103620000Y-144620000D03*
X96000000Y-139540000D03*
X103620000Y-142080000D03*
X96000000Y-142080000D03*
X103620000Y-139540000D03*
X96000000Y-144620000D03*
X103620000Y-137000000D03*
D25*
X130400000Y-147700000D03*
X130400000Y-124800000D03*
D26*
X131100000Y-127600000D02*
X122300000Y-127600000D01*
X121000000Y-126300000D02*
X121000000Y-124500000D01*
X122300000Y-127600000D02*
X121000000Y-126300000D01*
X135400000Y-125400000D02*
X133300000Y-125400000D01*
X133300000Y-125400000D02*
X131100000Y-127600000D01*
X135400000Y-125400000D02*
X136000000Y-125400000D01*
X136000000Y-125400000D02*
X138400000Y-123000000D01*
X138300000Y-139100000D02*
X140399871Y-137000129D01*
X140399871Y-137000129D02*
X140399871Y-132499871D01*
X140399871Y-132499871D02*
X135400000Y-127500000D01*
X135400000Y-127500000D02*
X135400000Y-125400000D01*
X135300000Y-140900000D02*
X136500000Y-140900000D01*
X136500000Y-140900000D02*
X138300000Y-139100000D01*
X130400000Y-147700000D02*
X130400000Y-145800000D01*
X130400000Y-145800000D02*
X135300000Y-140900000D01*
D27*
X95100000Y-126800000D02*
X98000000Y-126800000D01*
X98000000Y-126800000D02*
X98000000Y-129300000D01*
X135400000Y-125400000D02*
X135400000Y-126712800D01*
X140025500Y-131647200D02*
X135301800Y-126923500D01*
X140025500Y-137374500D02*
X140025500Y-131647200D01*
X138300000Y-139100000D02*
X140025500Y-137374500D01*
X135400000Y-126825300D02*
X135301800Y-126923500D01*
X135400000Y-126712800D02*
X135400000Y-126825300D01*
X101307600Y-123460000D02*
X102500000Y-123460000D01*
X98000000Y-126767600D02*
X101307600Y-123460000D01*
X98000000Y-126800000D02*
X98000000Y-126767600D01*
X119874700Y-124218700D02*
X119874700Y-124500000D01*
X117821100Y-122165100D02*
X119874700Y-124218700D01*
X103794900Y-122165100D02*
X117821100Y-122165100D01*
X102500000Y-123460000D02*
X103794900Y-122165100D01*
X121000000Y-124500000D02*
X119874700Y-124500000D01*
X75000000Y-125245300D02*
X75000000Y-126000000D01*
X73880000Y-124125300D02*
X75000000Y-125245300D01*
X73880000Y-123000000D02*
X73880000Y-124125300D01*
X78000000Y-134120000D02*
X79125300Y-134120000D01*
X72500000Y-146000000D02*
X71500000Y-146000000D01*
X75000000Y-148500000D02*
X72500000Y-146000000D01*
X79125300Y-133838700D02*
X79125300Y-134120000D01*
X85049400Y-127914600D02*
X79125300Y-133838700D01*
X86170100Y-127914600D02*
X85049400Y-127914600D01*
X86751600Y-127333100D02*
X86170100Y-127914600D01*
X92026900Y-127333100D02*
X86751600Y-127333100D01*
X92560000Y-126800000D02*
X92026900Y-127333100D01*
X92026900Y-130901600D02*
X92600000Y-131474700D01*
X92026900Y-127333100D02*
X92026900Y-130901600D01*
X92600000Y-132600000D02*
X92600000Y-131474700D01*
X77500000Y-148500000D02*
X75000000Y-148500000D01*
X78000000Y-148000000D02*
X77500000Y-148500000D01*
X92600000Y-132600000D02*
X92600000Y-133725300D01*
X93619700Y-134745000D02*
X92600000Y-133725300D01*
X93619700Y-141605600D02*
X93619700Y-134745000D01*
X86059500Y-149165800D02*
X93619700Y-141605600D01*
X79165800Y-149165800D02*
X86059500Y-149165800D01*
X78000000Y-148000000D02*
X79165800Y-149165800D01*
X68000000Y-129880000D02*
X68000000Y-127500000D01*
X103440000Y-130060000D02*
X103512400Y-130060000D01*
X100500000Y-133000000D02*
X103440000Y-130060000D01*
X104100000Y-130060000D02*
X103806200Y-130060000D01*
X103806200Y-130060000D02*
X103512400Y-130060000D01*
X102500000Y-126000000D02*
X102500000Y-126825300D01*
X108000000Y-126000000D02*
X106874700Y-126000000D01*
X104743200Y-128131500D02*
X106874700Y-126000000D01*
X103806200Y-128131500D02*
X104743200Y-128131500D01*
X103806200Y-130060000D02*
X103806200Y-128131500D01*
X103806200Y-128131500D02*
X102500000Y-126825300D01*
X103620000Y-137000000D02*
X103620000Y-138125300D01*
X98762800Y-134737200D02*
X100500000Y-133000000D01*
X96132800Y-134737200D02*
X98762800Y-134737200D01*
X94874600Y-135995400D02*
X96132800Y-134737200D01*
X94874600Y-140074100D02*
X94874600Y-135995400D01*
X95526100Y-140725600D02*
X94874600Y-140074100D01*
X102000000Y-140725600D02*
X95526100Y-140725600D01*
X102000000Y-139464000D02*
X102000000Y-140725600D01*
X103338700Y-138125300D02*
X102000000Y-139464000D01*
X103620000Y-138125300D02*
X103338700Y-138125300D01*
X102000000Y-140725600D02*
X102000000Y-149000000D01*
X88500000Y-139520000D02*
X87374700Y-139520000D01*
X87054700Y-139200000D02*
X85620000Y-139200000D01*
X87374700Y-139520000D02*
X87054700Y-139200000D01*
X85620000Y-139200000D02*
X84494700Y-139200000D01*
X76535300Y-140470000D02*
X76125300Y-140880000D01*
X83224700Y-140470000D02*
X76535300Y-140470000D01*
X84494700Y-139200000D02*
X83224700Y-140470000D01*
X88000000Y-130791600D02*
X88000000Y-128500000D01*
X85797000Y-132994600D02*
X88000000Y-130791600D01*
X85078500Y-132994600D02*
X85797000Y-132994600D01*
X84494700Y-133578400D02*
X85078500Y-132994600D01*
X84494700Y-139200000D02*
X84494700Y-133578400D01*
X75000000Y-140880000D02*
X75433500Y-140880000D01*
X75433500Y-140880000D02*
X76125300Y-140880000D01*
X75433500Y-141308200D02*
X78000000Y-143874700D01*
X75433500Y-140880000D02*
X75433500Y-141308200D01*
X78000000Y-145000000D02*
X78000000Y-143874700D01*
X78000000Y-141740000D02*
X79125300Y-141740000D01*
X79008100Y-146156200D02*
X81274800Y-143889500D01*
X74940000Y-146156200D02*
X79008100Y-146156200D01*
X73648200Y-144864400D02*
X74940000Y-146156200D01*
X70635600Y-144864400D02*
X73648200Y-144864400D01*
X68000000Y-147500000D02*
X70635600Y-144864400D01*
X79125300Y-141740000D02*
X81274800Y-143889500D01*
X82385300Y-145000000D02*
X85620000Y-145000000D01*
X81274800Y-143889500D02*
X82385300Y-145000000D01*
D26*
X135400000Y-133020000D02*
X136120000Y-133020000D01*
X136120000Y-133020000D02*
X138200000Y-135100000D01*
X123800000Y-133640000D02*
X134780000Y-133640000D01*
X134780000Y-133640000D02*
X135400000Y-133020000D01*
X135300000Y-148520000D02*
X137560000Y-148520000D01*
X137560000Y-148520000D02*
X138300000Y-149260000D01*
X123900000Y-144640000D02*
X129160001Y-149900001D01*
X134200001Y-149619999D02*
X135300000Y-148520000D01*
X129160001Y-149900001D02*
X133919999Y-149900001D01*
X133919999Y-149900001D02*
X134200001Y-149619999D01*
D27*
X78000000Y-131580000D02*
X76874700Y-131580000D01*
X71500000Y-135880000D02*
X71500000Y-134754700D01*
X64000000Y-133500000D02*
X63000000Y-132500000D01*
X71500000Y-133500000D02*
X64000000Y-133500000D01*
X74954700Y-133500000D02*
X71500000Y-133500000D01*
X76874700Y-131580000D02*
X74954700Y-133500000D01*
X71500000Y-133500000D02*
X71500000Y-134754700D01*
X103620000Y-142080000D02*
X106600000Y-142080000D01*
X103620000Y-139540000D02*
X106600000Y-139540000D01*
X107775300Y-134910600D02*
X106640000Y-133775300D01*
X107775300Y-137997500D02*
X107775300Y-134910600D01*
X107408100Y-138364700D02*
X107775300Y-137997500D01*
X106600000Y-138364700D02*
X107408100Y-138364700D01*
X106600000Y-139540000D02*
X106600000Y-138364700D01*
X106640000Y-132600000D02*
X106640000Y-133775300D01*
X106640000Y-130060000D02*
X107815300Y-130060000D01*
X103620000Y-144620000D02*
X106600000Y-144620000D01*
X107815300Y-130427400D02*
X107815300Y-130060000D01*
X108623200Y-131235300D02*
X107815300Y-130427400D01*
X110915800Y-131235300D02*
X108623200Y-131235300D01*
X113620200Y-133939700D02*
X110915800Y-131235300D01*
X113620200Y-138751400D02*
X113620200Y-133939700D01*
X111471000Y-140900600D02*
X113620200Y-138751400D01*
X108635200Y-140900600D02*
X111471000Y-140900600D01*
X107775300Y-141760500D02*
X108635200Y-140900600D01*
X107775300Y-142636800D02*
X107775300Y-141760500D01*
X106967400Y-143444700D02*
X107775300Y-142636800D01*
X106600000Y-143444700D02*
X106967400Y-143444700D01*
X106600000Y-144620000D02*
X106600000Y-143444700D01*
X108004700Y-132232600D02*
X108004700Y-132600000D01*
X107196800Y-131424700D02*
X108004700Y-132232600D01*
X106148100Y-131424700D02*
X107196800Y-131424700D01*
X105370000Y-132202800D02*
X106148100Y-131424700D01*
X105370000Y-133490100D02*
X105370000Y-132202800D01*
X103451700Y-135408400D02*
X105370000Y-133490100D01*
X98716900Y-135408400D02*
X103451700Y-135408400D01*
X97125300Y-137000000D02*
X98716900Y-135408400D01*
X96000000Y-137000000D02*
X97125300Y-137000000D01*
X109180000Y-132600000D02*
X108004700Y-132600000D01*
X111354700Y-138039400D02*
X110315300Y-137000000D01*
X111354700Y-138300000D02*
X111354700Y-138039400D01*
X109140000Y-137000000D02*
X110315300Y-137000000D01*
X112480000Y-138300000D02*
X111354700Y-138300000D01*
X92000000Y-146020000D02*
X93125300Y-146020000D01*
X96105300Y-149000000D02*
X98900000Y-149000000D01*
X93125300Y-146020000D02*
X96105300Y-149000000D01*
X107964700Y-139907400D02*
X107964700Y-139540000D01*
X107156800Y-140715300D02*
X107964700Y-139907400D01*
X103358800Y-140715300D02*
X107156800Y-140715300D01*
X102450400Y-141623700D02*
X103358800Y-140715300D01*
X102450400Y-146297500D02*
X102450400Y-141623700D01*
X103575400Y-147422500D02*
X102450400Y-146297500D01*
X103575400Y-149726400D02*
X103575400Y-147422500D01*
X102692200Y-150609600D02*
X103575400Y-149726400D01*
X100509600Y-150609600D02*
X102692200Y-150609600D01*
X98900000Y-149000000D02*
X100509600Y-150609600D01*
X109140000Y-139540000D02*
X107964700Y-139540000D01*
X110595300Y-141800000D02*
X110315300Y-142080000D01*
X112480000Y-141800000D02*
X110595300Y-141800000D01*
X109140000Y-142080000D02*
X110315300Y-142080000D01*
X110995300Y-145300000D02*
X110315300Y-144620000D01*
X112500000Y-145300000D02*
X110995300Y-145300000D01*
X109140000Y-144620000D02*
X110315300Y-144620000D01*
X109140000Y-146860000D02*
X109140000Y-144620000D01*
X107000000Y-149000000D02*
X109140000Y-146860000D01*
X122574700Y-131725300D02*
X122574700Y-131100000D01*
X120000000Y-134300000D02*
X122574700Y-131725300D01*
X123800000Y-131100000D02*
X122574700Y-131100000D01*
X120000000Y-138200000D02*
X120000000Y-134300000D01*
X120100000Y-138300000D02*
X120000000Y-138200000D01*
X123900000Y-142100000D02*
X122674700Y-142100000D01*
X121777400Y-142997300D02*
X122674700Y-142100000D01*
X121297300Y-142997300D02*
X121777400Y-142997300D01*
X121297300Y-147702700D02*
X121297300Y-142997300D01*
X120100000Y-148900000D02*
X121297300Y-147702700D01*
X121297300Y-142997300D02*
X120100000Y-141800000D01*
X78000000Y-129040000D02*
X77437400Y-129040000D01*
X79436500Y-123000000D02*
X81500000Y-123000000D01*
X76869400Y-125567100D02*
X79436500Y-123000000D01*
X76869400Y-128472000D02*
X76869400Y-125567100D01*
X77437400Y-129040000D02*
X76869400Y-128472000D01*
X75000000Y-130880000D02*
X76125300Y-130880000D01*
X76125300Y-130352100D02*
X76125300Y-130880000D01*
X77437400Y-129040000D02*
X76125300Y-130352100D01*
X76840000Y-133596000D02*
X76840000Y-136660000D01*
X77730600Y-132705400D02*
X76840000Y-133596000D01*
X78510500Y-132705400D02*
X77730600Y-132705400D01*
X79125400Y-132090500D02*
X78510500Y-132705400D01*
X79125400Y-128469400D02*
X79125400Y-132090500D01*
X78281300Y-127625300D02*
X79125400Y-128469400D01*
X78000000Y-127625300D02*
X78281300Y-127625300D01*
X78000000Y-136660000D02*
X76840000Y-136660000D01*
X76840000Y-136660000D02*
X75000000Y-138500000D01*
X78000000Y-126500000D02*
X78000000Y-127625300D01*
X69338900Y-139666400D02*
X69125300Y-139880000D01*
X76408300Y-139666400D02*
X69338900Y-139666400D01*
X76874700Y-139200000D02*
X76408300Y-139666400D01*
X78000000Y-139200000D02*
X76874700Y-139200000D01*
X68000000Y-139880000D02*
X68562700Y-139880000D01*
X68562700Y-139880000D02*
X69125300Y-139880000D01*
X68000000Y-139317300D02*
X68000000Y-137500000D01*
X68562700Y-139880000D02*
X68000000Y-139317300D01*
X93169400Y-139325300D02*
X85620000Y-146874700D01*
X93169400Y-137967100D02*
X93169400Y-139325300D01*
X91862300Y-136660000D02*
X93169400Y-137967100D01*
X85620000Y-136660000D02*
X91862300Y-136660000D01*
X85620000Y-148000000D02*
X85620000Y-146874700D01*
X104291400Y-135866700D02*
X105424700Y-137000000D01*
X100798600Y-135866700D02*
X104291400Y-135866700D01*
X97125300Y-139540000D02*
X100798600Y-135866700D01*
X96000000Y-139540000D02*
X97125300Y-139540000D01*
X106600000Y-137000000D02*
X105424700Y-137000000D01*
X89700000Y-140700000D02*
X92000000Y-138400000D01*
X87785300Y-140700000D02*
X89700000Y-140700000D01*
X86745300Y-141740000D02*
X87785300Y-140700000D01*
X85620000Y-141740000D02*
X86745300Y-141740000D01*
D26*
X130400000Y-124800000D02*
X125300000Y-124800000D01*
X125300000Y-124800000D02*
X125000000Y-124500000D01*
M02*
