G04 #@! TF.FileFunction,Soldermask,Bot*
%FSLAX46Y46*%
G04 Gerber Fmt 4.6, Leading zero omitted, Abs format (unit mm)*
G04 Created by KiCad (PCBNEW 4.0.5) date 03/21/18 17:23:09*
%MOMM*%
%LPD*%
G01*
G04 APERTURE LIST*
%ADD10C,0.100000*%
%ADD11C,2.000000*%
%ADD12R,2.000000X2.000000*%
%ADD13O,2.000000X2.000000*%
%ADD14R,2.600000X2.600000*%
%ADD15O,2.600000X2.600000*%
%ADD16C,4.400500*%
%ADD17C,2.899360*%
%ADD18R,2.100000X2.100000*%
%ADD19O,2.100000X2.100000*%
%ADD20C,3.399740*%
%ADD21R,2.200000X2.200000*%
%ADD22O,2.200000X2.200000*%
%ADD23C,1.400000*%
%ADD24R,1.400000X1.400000*%
%ADD25C,3.400000*%
G04 APERTURE END LIST*
D10*
D11*
X98000000Y-129300000D03*
X100500000Y-129300000D03*
X75000000Y-126000000D03*
X75000000Y-128500000D03*
D12*
X92600000Y-132600000D03*
D11*
X95100000Y-132600000D03*
X71500000Y-146000000D03*
X71500000Y-148500000D03*
D12*
X121000000Y-124500000D03*
D11*
X118500000Y-124500000D03*
X68000000Y-127500000D03*
X68000000Y-125000000D03*
D12*
X108000000Y-126000000D03*
D11*
X108000000Y-123500000D03*
X100500000Y-133000000D03*
X98000000Y-133000000D03*
X88000000Y-128500000D03*
X88000000Y-126000000D03*
D12*
X78000000Y-145000000D03*
D13*
X85620000Y-145000000D03*
D14*
X135400000Y-125400000D03*
D15*
X135400000Y-133020000D03*
D14*
X135300000Y-140900000D03*
D15*
X135300000Y-148520000D03*
D16*
X125000000Y-124500000D03*
X114840000Y-124500000D03*
D17*
X63000000Y-132500000D03*
X63000000Y-142660000D03*
D18*
X104100000Y-132600000D03*
D19*
X104100000Y-130060000D03*
X106640000Y-132600000D03*
X106640000Y-130060000D03*
X109180000Y-132600000D03*
X109180000Y-130060000D03*
D18*
X106600000Y-137000000D03*
D19*
X109140000Y-137000000D03*
X106600000Y-139540000D03*
X109140000Y-139540000D03*
X106600000Y-142080000D03*
X109140000Y-142080000D03*
X106600000Y-144620000D03*
X109140000Y-144620000D03*
D17*
X102000000Y-149000000D03*
X107000000Y-149000000D03*
D20*
X138400000Y-123000000D03*
X138200000Y-135100000D03*
X138300000Y-139100000D03*
X138300000Y-149260000D03*
D21*
X123800000Y-131100000D03*
D22*
X123800000Y-133640000D03*
X123800000Y-136180000D03*
D21*
X123900000Y-142100000D03*
D22*
X123900000Y-144640000D03*
X123900000Y-147180000D03*
D11*
X71500000Y-143500000D03*
D13*
X71500000Y-135880000D03*
D11*
X71500000Y-133500000D03*
D13*
X71500000Y-125880000D03*
D11*
X81500000Y-123000000D03*
D13*
X73880000Y-123000000D03*
D11*
X75000000Y-138500000D03*
D13*
X75000000Y-130880000D03*
D11*
X68000000Y-137500000D03*
D13*
X68000000Y-129880000D03*
D11*
X68000000Y-147500000D03*
D13*
X68000000Y-139880000D03*
D11*
X88500000Y-131900000D03*
D13*
X88500000Y-139520000D03*
D11*
X75000000Y-148500000D03*
D13*
X75000000Y-140880000D03*
D11*
X88500000Y-149500000D03*
D13*
X88500000Y-141880000D03*
D11*
X78000000Y-148000000D03*
D13*
X85620000Y-148000000D03*
D11*
X92000000Y-138400000D03*
D13*
X92000000Y-146020000D03*
D11*
X98900000Y-149000000D03*
D13*
X91280000Y-149000000D03*
D11*
X112500000Y-145300000D03*
D13*
X120120000Y-145300000D03*
D11*
X120100000Y-138300000D03*
D13*
X112480000Y-138300000D03*
D11*
X120000000Y-134300000D03*
D13*
X112380000Y-134300000D03*
D11*
X120100000Y-141800000D03*
D13*
X112480000Y-141800000D03*
D11*
X120100000Y-148900000D03*
D13*
X112480000Y-148900000D03*
D23*
X93830000Y-128070000D03*
X92560000Y-126800000D03*
D24*
X95100000Y-126800000D03*
D12*
X78000000Y-126500000D03*
D13*
X85620000Y-141740000D03*
X78000000Y-129040000D03*
X85620000Y-139200000D03*
X78000000Y-131580000D03*
X85620000Y-136660000D03*
X78000000Y-134120000D03*
X85620000Y-134120000D03*
X78000000Y-136660000D03*
X85620000Y-131580000D03*
X78000000Y-139200000D03*
X85620000Y-129040000D03*
X78000000Y-141740000D03*
X85620000Y-126500000D03*
D23*
X101230000Y-124730000D03*
X102500000Y-123460000D03*
D24*
X102500000Y-126000000D03*
D12*
X96000000Y-137000000D03*
D13*
X103620000Y-144620000D03*
X96000000Y-139540000D03*
X103620000Y-142080000D03*
X96000000Y-142080000D03*
X103620000Y-139540000D03*
X96000000Y-144620000D03*
X103620000Y-137000000D03*
D25*
X130400000Y-147700000D03*
X130400000Y-124800000D03*
M02*
