G04 #@! TF.FileFunction,Legend,Top*
%FSLAX46Y46*%
G04 Gerber Fmt 4.6, Leading zero omitted, Abs format (unit mm)*
G04 Created by KiCad (PCBNEW 4.0.6) date 03/11/18 15:23:17*
%MOMM*%
%LPD*%
G01*
G04 APERTURE LIST*
%ADD10C,0.100000*%
%ADD11C,0.300000*%
%ADD12C,0.120000*%
%ADD13C,0.150000*%
G04 APERTURE END LIST*
D10*
D11*
X51471430Y-129714287D02*
X51471430Y-130642858D01*
X50900001Y-130142858D01*
X50900001Y-130357144D01*
X50828572Y-130500001D01*
X50757144Y-130571430D01*
X50614287Y-130642858D01*
X50257144Y-130642858D01*
X50114287Y-130571430D01*
X50042858Y-130500001D01*
X49971430Y-130357144D01*
X49971430Y-129928572D01*
X50042858Y-129785715D01*
X50114287Y-129714287D01*
X51471430Y-131571429D02*
X51471430Y-131714286D01*
X51400001Y-131857143D01*
X51328572Y-131928572D01*
X51185715Y-132000001D01*
X50900001Y-132071429D01*
X50542858Y-132071429D01*
X50257144Y-132000001D01*
X50114287Y-131928572D01*
X50042858Y-131857143D01*
X49971430Y-131714286D01*
X49971430Y-131571429D01*
X50042858Y-131428572D01*
X50114287Y-131357143D01*
X50257144Y-131285715D01*
X50542858Y-131214286D01*
X50900001Y-131214286D01*
X51185715Y-131285715D01*
X51328572Y-131357143D01*
X51400001Y-131428572D01*
X51471430Y-131571429D01*
X50114287Y-132714286D02*
X50042858Y-132785714D01*
X49971430Y-132714286D01*
X50042858Y-132642857D01*
X50114287Y-132714286D01*
X49971430Y-132714286D01*
X51471430Y-133714286D02*
X51471430Y-133857143D01*
X51400001Y-134000000D01*
X51328572Y-134071429D01*
X51185715Y-134142858D01*
X50900001Y-134214286D01*
X50542858Y-134214286D01*
X50257144Y-134142858D01*
X50114287Y-134071429D01*
X50042858Y-134000000D01*
X49971430Y-133857143D01*
X49971430Y-133714286D01*
X50042858Y-133571429D01*
X50114287Y-133500000D01*
X50257144Y-133428572D01*
X50542858Y-133357143D01*
X50900001Y-133357143D01*
X51185715Y-133428572D01*
X51328572Y-133500000D01*
X51400001Y-133571429D01*
X51471430Y-133714286D01*
X51471430Y-135142857D02*
X51471430Y-135285714D01*
X51400001Y-135428571D01*
X51328572Y-135500000D01*
X51185715Y-135571429D01*
X50900001Y-135642857D01*
X50542858Y-135642857D01*
X50257144Y-135571429D01*
X50114287Y-135500000D01*
X50042858Y-135428571D01*
X49971430Y-135285714D01*
X49971430Y-135142857D01*
X50042858Y-135000000D01*
X50114287Y-134928571D01*
X50257144Y-134857143D01*
X50542858Y-134785714D01*
X50900001Y-134785714D01*
X51185715Y-134857143D01*
X51328572Y-134928571D01*
X51400001Y-135000000D01*
X51471430Y-135142857D01*
X51471430Y-136571428D02*
X51471430Y-136714285D01*
X51400001Y-136857142D01*
X51328572Y-136928571D01*
X51185715Y-137000000D01*
X50900001Y-137071428D01*
X50542858Y-137071428D01*
X50257144Y-137000000D01*
X50114287Y-136928571D01*
X50042858Y-136857142D01*
X49971430Y-136714285D01*
X49971430Y-136571428D01*
X50042858Y-136428571D01*
X50114287Y-136357142D01*
X50257144Y-136285714D01*
X50542858Y-136214285D01*
X50900001Y-136214285D01*
X51185715Y-136285714D01*
X51328572Y-136357142D01*
X51400001Y-136428571D01*
X51471430Y-136571428D01*
X49971430Y-138857142D02*
X50971430Y-138857142D01*
X50828572Y-138857142D02*
X50900001Y-138928570D01*
X50971430Y-139071428D01*
X50971430Y-139285713D01*
X50900001Y-139428570D01*
X50757144Y-139499999D01*
X49971430Y-139499999D01*
X50757144Y-139499999D02*
X50900001Y-139571428D01*
X50971430Y-139714285D01*
X50971430Y-139928570D01*
X50900001Y-140071428D01*
X50757144Y-140142856D01*
X49971430Y-140142856D01*
X49971430Y-140857142D02*
X50971430Y-140857142D01*
X50828572Y-140857142D02*
X50900001Y-140928570D01*
X50971430Y-141071428D01*
X50971430Y-141285713D01*
X50900001Y-141428570D01*
X50757144Y-141499999D01*
X49971430Y-141499999D01*
X50757144Y-141499999D02*
X50900001Y-141571428D01*
X50971430Y-141714285D01*
X50971430Y-141928570D01*
X50900001Y-142071428D01*
X50757144Y-142142856D01*
X49971430Y-142142856D01*
X52000001Y-121000000D02*
X52000001Y-151000000D01*
X60000000Y-121000000D02*
X49300001Y-121000000D01*
X60000000Y-151000000D02*
X49300001Y-151000000D01*
X52000001Y-151000000D02*
X51413580Y-149873496D01*
X52000001Y-151000000D02*
X52586422Y-149873496D01*
X52000001Y-121000000D02*
X51413580Y-122126504D01*
X52000001Y-121000000D02*
X52586422Y-122126504D01*
X93214287Y-154528570D02*
X94214287Y-154528570D01*
X93571430Y-156028570D01*
X94642858Y-154528570D02*
X95642858Y-154528570D01*
X95000001Y-156028570D01*
X96214286Y-155885713D02*
X96285714Y-155957142D01*
X96214286Y-156028570D01*
X96142857Y-155957142D01*
X96214286Y-155885713D01*
X96214286Y-156028570D01*
X97214286Y-154528570D02*
X97357143Y-154528570D01*
X97500000Y-154599999D01*
X97571429Y-154671428D01*
X97642858Y-154814285D01*
X97714286Y-155099999D01*
X97714286Y-155457142D01*
X97642858Y-155742856D01*
X97571429Y-155885713D01*
X97500000Y-155957142D01*
X97357143Y-156028570D01*
X97214286Y-156028570D01*
X97071429Y-155957142D01*
X97000000Y-155885713D01*
X96928572Y-155742856D01*
X96857143Y-155457142D01*
X96857143Y-155099999D01*
X96928572Y-154814285D01*
X97000000Y-154671428D01*
X97071429Y-154599999D01*
X97214286Y-154528570D01*
X98642857Y-154528570D02*
X98785714Y-154528570D01*
X98928571Y-154599999D01*
X99000000Y-154671428D01*
X99071429Y-154814285D01*
X99142857Y-155099999D01*
X99142857Y-155457142D01*
X99071429Y-155742856D01*
X99000000Y-155885713D01*
X98928571Y-155957142D01*
X98785714Y-156028570D01*
X98642857Y-156028570D01*
X98500000Y-155957142D01*
X98428571Y-155885713D01*
X98357143Y-155742856D01*
X98285714Y-155457142D01*
X98285714Y-155099999D01*
X98357143Y-154814285D01*
X98428571Y-154671428D01*
X98500000Y-154599999D01*
X98642857Y-154528570D01*
X100071428Y-154528570D02*
X100214285Y-154528570D01*
X100357142Y-154599999D01*
X100428571Y-154671428D01*
X100500000Y-154814285D01*
X100571428Y-155099999D01*
X100571428Y-155457142D01*
X100500000Y-155742856D01*
X100428571Y-155885713D01*
X100357142Y-155957142D01*
X100214285Y-156028570D01*
X100071428Y-156028570D01*
X99928571Y-155957142D01*
X99857142Y-155885713D01*
X99785714Y-155742856D01*
X99714285Y-155457142D01*
X99714285Y-155099999D01*
X99785714Y-154814285D01*
X99857142Y-154671428D01*
X99928571Y-154599999D01*
X100071428Y-154528570D01*
X102357142Y-156028570D02*
X102357142Y-155028570D01*
X102357142Y-155171428D02*
X102428570Y-155099999D01*
X102571428Y-155028570D01*
X102785713Y-155028570D01*
X102928570Y-155099999D01*
X102999999Y-155242856D01*
X102999999Y-156028570D01*
X102999999Y-155242856D02*
X103071428Y-155099999D01*
X103214285Y-155028570D01*
X103428570Y-155028570D01*
X103571428Y-155099999D01*
X103642856Y-155242856D01*
X103642856Y-156028570D01*
X104357142Y-156028570D02*
X104357142Y-155028570D01*
X104357142Y-155171428D02*
X104428570Y-155099999D01*
X104571428Y-155028570D01*
X104785713Y-155028570D01*
X104928570Y-155099999D01*
X104999999Y-155242856D01*
X104999999Y-156028570D01*
X104999999Y-155242856D02*
X105071428Y-155099999D01*
X105214285Y-155028570D01*
X105428570Y-155028570D01*
X105571428Y-155099999D01*
X105642856Y-155242856D01*
X105642856Y-156028570D01*
X61000000Y-153999999D02*
X138000000Y-153999999D01*
X61000000Y-152000000D02*
X61000000Y-156699999D01*
X138000000Y-152000000D02*
X138000000Y-156699999D01*
X138000000Y-153999999D02*
X136873496Y-154586420D01*
X138000000Y-153999999D02*
X136873496Y-153413578D01*
X61000000Y-153999999D02*
X62126504Y-154586420D01*
X61000000Y-153999999D02*
X62126504Y-153413578D01*
D12*
X100290000Y-128140000D02*
X104210000Y-128140000D01*
X100290000Y-130860000D02*
X104210000Y-130860000D01*
X100290000Y-128140000D02*
X100290000Y-128750000D01*
X100290000Y-130250000D02*
X100290000Y-130860000D01*
X104210000Y-128140000D02*
X104210000Y-128750000D01*
X104210000Y-130250000D02*
X104210000Y-130860000D01*
X75861000Y-126663000D02*
X75861000Y-127837000D01*
X74139000Y-126663000D02*
X74139000Y-127837000D01*
X99055722Y-129820277D02*
G75*
G03X94444420Y-129820000I-2305722J-1179723D01*
G01*
X99055722Y-132179723D02*
G75*
G02X94444420Y-132180000I-2305722J1179723D01*
G01*
X99055722Y-132179723D02*
G75*
G03X99055580Y-129820000I-2305722J1179723D01*
G01*
X96750000Y-128450000D02*
X96750000Y-133550000D01*
X96790000Y-128450000D02*
X96790000Y-133550000D01*
X96830000Y-128451000D02*
X96830000Y-133549000D01*
X96870000Y-128452000D02*
X96870000Y-133548000D01*
X96910000Y-128454000D02*
X96910000Y-133546000D01*
X96950000Y-128457000D02*
X96950000Y-133543000D01*
X96990000Y-128461000D02*
X96990000Y-133539000D01*
X97030000Y-128465000D02*
X97030000Y-130020000D01*
X97030000Y-131980000D02*
X97030000Y-133535000D01*
X97070000Y-128469000D02*
X97070000Y-130020000D01*
X97070000Y-131980000D02*
X97070000Y-133531000D01*
X97110000Y-128475000D02*
X97110000Y-130020000D01*
X97110000Y-131980000D02*
X97110000Y-133525000D01*
X97150000Y-128481000D02*
X97150000Y-130020000D01*
X97150000Y-131980000D02*
X97150000Y-133519000D01*
X97190000Y-128487000D02*
X97190000Y-130020000D01*
X97190000Y-131980000D02*
X97190000Y-133513000D01*
X97230000Y-128494000D02*
X97230000Y-130020000D01*
X97230000Y-131980000D02*
X97230000Y-133506000D01*
X97270000Y-128502000D02*
X97270000Y-130020000D01*
X97270000Y-131980000D02*
X97270000Y-133498000D01*
X97310000Y-128511000D02*
X97310000Y-130020000D01*
X97310000Y-131980000D02*
X97310000Y-133489000D01*
X97350000Y-128520000D02*
X97350000Y-130020000D01*
X97350000Y-131980000D02*
X97350000Y-133480000D01*
X97390000Y-128530000D02*
X97390000Y-130020000D01*
X97390000Y-131980000D02*
X97390000Y-133470000D01*
X97430000Y-128540000D02*
X97430000Y-130020000D01*
X97430000Y-131980000D02*
X97430000Y-133460000D01*
X97471000Y-128552000D02*
X97471000Y-130020000D01*
X97471000Y-131980000D02*
X97471000Y-133448000D01*
X97511000Y-128564000D02*
X97511000Y-130020000D01*
X97511000Y-131980000D02*
X97511000Y-133436000D01*
X97551000Y-128576000D02*
X97551000Y-130020000D01*
X97551000Y-131980000D02*
X97551000Y-133424000D01*
X97591000Y-128590000D02*
X97591000Y-130020000D01*
X97591000Y-131980000D02*
X97591000Y-133410000D01*
X97631000Y-128604000D02*
X97631000Y-130020000D01*
X97631000Y-131980000D02*
X97631000Y-133396000D01*
X97671000Y-128618000D02*
X97671000Y-130020000D01*
X97671000Y-131980000D02*
X97671000Y-133382000D01*
X97711000Y-128634000D02*
X97711000Y-130020000D01*
X97711000Y-131980000D02*
X97711000Y-133366000D01*
X97751000Y-128650000D02*
X97751000Y-130020000D01*
X97751000Y-131980000D02*
X97751000Y-133350000D01*
X97791000Y-128667000D02*
X97791000Y-130020000D01*
X97791000Y-131980000D02*
X97791000Y-133333000D01*
X97831000Y-128685000D02*
X97831000Y-130020000D01*
X97831000Y-131980000D02*
X97831000Y-133315000D01*
X97871000Y-128704000D02*
X97871000Y-130020000D01*
X97871000Y-131980000D02*
X97871000Y-133296000D01*
X97911000Y-128724000D02*
X97911000Y-130020000D01*
X97911000Y-131980000D02*
X97911000Y-133276000D01*
X97951000Y-128744000D02*
X97951000Y-130020000D01*
X97951000Y-131980000D02*
X97951000Y-133256000D01*
X97991000Y-128766000D02*
X97991000Y-130020000D01*
X97991000Y-131980000D02*
X97991000Y-133234000D01*
X98031000Y-128788000D02*
X98031000Y-130020000D01*
X98031000Y-131980000D02*
X98031000Y-133212000D01*
X98071000Y-128811000D02*
X98071000Y-130020000D01*
X98071000Y-131980000D02*
X98071000Y-133189000D01*
X98111000Y-128835000D02*
X98111000Y-130020000D01*
X98111000Y-131980000D02*
X98111000Y-133165000D01*
X98151000Y-128860000D02*
X98151000Y-130020000D01*
X98151000Y-131980000D02*
X98151000Y-133140000D01*
X98191000Y-128887000D02*
X98191000Y-130020000D01*
X98191000Y-131980000D02*
X98191000Y-133113000D01*
X98231000Y-128914000D02*
X98231000Y-130020000D01*
X98231000Y-131980000D02*
X98231000Y-133086000D01*
X98271000Y-128942000D02*
X98271000Y-130020000D01*
X98271000Y-131980000D02*
X98271000Y-133058000D01*
X98311000Y-128972000D02*
X98311000Y-130020000D01*
X98311000Y-131980000D02*
X98311000Y-133028000D01*
X98351000Y-129003000D02*
X98351000Y-130020000D01*
X98351000Y-131980000D02*
X98351000Y-132997000D01*
X98391000Y-129035000D02*
X98391000Y-130020000D01*
X98391000Y-131980000D02*
X98391000Y-132965000D01*
X98431000Y-129068000D02*
X98431000Y-130020000D01*
X98431000Y-131980000D02*
X98431000Y-132932000D01*
X98471000Y-129103000D02*
X98471000Y-130020000D01*
X98471000Y-131980000D02*
X98471000Y-132897000D01*
X98511000Y-129139000D02*
X98511000Y-130020000D01*
X98511000Y-131980000D02*
X98511000Y-132861000D01*
X98551000Y-129177000D02*
X98551000Y-130020000D01*
X98551000Y-131980000D02*
X98551000Y-132823000D01*
X98591000Y-129217000D02*
X98591000Y-130020000D01*
X98591000Y-131980000D02*
X98591000Y-132783000D01*
X98631000Y-129258000D02*
X98631000Y-130020000D01*
X98631000Y-131980000D02*
X98631000Y-132742000D01*
X98671000Y-129301000D02*
X98671000Y-130020000D01*
X98671000Y-131980000D02*
X98671000Y-132699000D01*
X98711000Y-129346000D02*
X98711000Y-130020000D01*
X98711000Y-131980000D02*
X98711000Y-132654000D01*
X98751000Y-129394000D02*
X98751000Y-130020000D01*
X98751000Y-131980000D02*
X98751000Y-132606000D01*
X98791000Y-129444000D02*
X98791000Y-130020000D01*
X98791000Y-131980000D02*
X98791000Y-132556000D01*
X98831000Y-129496000D02*
X98831000Y-130020000D01*
X98831000Y-131980000D02*
X98831000Y-132504000D01*
X98871000Y-129552000D02*
X98871000Y-130020000D01*
X98871000Y-131980000D02*
X98871000Y-132448000D01*
X98911000Y-129610000D02*
X98911000Y-130020000D01*
X98911000Y-131980000D02*
X98911000Y-132390000D01*
X98951000Y-129673000D02*
X98951000Y-130020000D01*
X98951000Y-131980000D02*
X98951000Y-132327000D01*
X98991000Y-129739000D02*
X98991000Y-132261000D01*
X99031000Y-129811000D02*
X99031000Y-132189000D01*
X99071000Y-129888000D02*
X99071000Y-132112000D01*
X99111000Y-129972000D02*
X99111000Y-132028000D01*
X99151000Y-130066000D02*
X99151000Y-131934000D01*
X99191000Y-130171000D02*
X99191000Y-131829000D01*
X99231000Y-130293000D02*
X99231000Y-131707000D01*
X99271000Y-130441000D02*
X99271000Y-131559000D01*
X99311000Y-130646000D02*
X99311000Y-131354000D01*
X93300000Y-131000000D02*
X94500000Y-131000000D01*
X93900000Y-130350000D02*
X93900000Y-131650000D01*
X72860000Y-145290000D02*
X72860000Y-149210000D01*
X70140000Y-145290000D02*
X70140000Y-149210000D01*
X72860000Y-145290000D02*
X72250000Y-145290000D01*
X70750000Y-145290000D02*
X70140000Y-145290000D01*
X72860000Y-149210000D02*
X72250000Y-149210000D01*
X70750000Y-149210000D02*
X70140000Y-149210000D01*
X117444278Y-125679723D02*
G75*
G03X122055580Y-125680000I2305722J1179723D01*
G01*
X117444278Y-123320277D02*
G75*
G02X122055580Y-123320000I2305722J-1179723D01*
G01*
X117444278Y-123320277D02*
G75*
G03X117444420Y-125680000I2305722J-1179723D01*
G01*
X119750000Y-127050000D02*
X119750000Y-121950000D01*
X119710000Y-127050000D02*
X119710000Y-121950000D01*
X119670000Y-127049000D02*
X119670000Y-121951000D01*
X119630000Y-127048000D02*
X119630000Y-121952000D01*
X119590000Y-127046000D02*
X119590000Y-121954000D01*
X119550000Y-127043000D02*
X119550000Y-121957000D01*
X119510000Y-127039000D02*
X119510000Y-121961000D01*
X119470000Y-127035000D02*
X119470000Y-125480000D01*
X119470000Y-123520000D02*
X119470000Y-121965000D01*
X119430000Y-127031000D02*
X119430000Y-125480000D01*
X119430000Y-123520000D02*
X119430000Y-121969000D01*
X119390000Y-127025000D02*
X119390000Y-125480000D01*
X119390000Y-123520000D02*
X119390000Y-121975000D01*
X119350000Y-127019000D02*
X119350000Y-125480000D01*
X119350000Y-123520000D02*
X119350000Y-121981000D01*
X119310000Y-127013000D02*
X119310000Y-125480000D01*
X119310000Y-123520000D02*
X119310000Y-121987000D01*
X119270000Y-127006000D02*
X119270000Y-125480000D01*
X119270000Y-123520000D02*
X119270000Y-121994000D01*
X119230000Y-126998000D02*
X119230000Y-125480000D01*
X119230000Y-123520000D02*
X119230000Y-122002000D01*
X119190000Y-126989000D02*
X119190000Y-125480000D01*
X119190000Y-123520000D02*
X119190000Y-122011000D01*
X119150000Y-126980000D02*
X119150000Y-125480000D01*
X119150000Y-123520000D02*
X119150000Y-122020000D01*
X119110000Y-126970000D02*
X119110000Y-125480000D01*
X119110000Y-123520000D02*
X119110000Y-122030000D01*
X119070000Y-126960000D02*
X119070000Y-125480000D01*
X119070000Y-123520000D02*
X119070000Y-122040000D01*
X119029000Y-126948000D02*
X119029000Y-125480000D01*
X119029000Y-123520000D02*
X119029000Y-122052000D01*
X118989000Y-126936000D02*
X118989000Y-125480000D01*
X118989000Y-123520000D02*
X118989000Y-122064000D01*
X118949000Y-126924000D02*
X118949000Y-125480000D01*
X118949000Y-123520000D02*
X118949000Y-122076000D01*
X118909000Y-126910000D02*
X118909000Y-125480000D01*
X118909000Y-123520000D02*
X118909000Y-122090000D01*
X118869000Y-126896000D02*
X118869000Y-125480000D01*
X118869000Y-123520000D02*
X118869000Y-122104000D01*
X118829000Y-126882000D02*
X118829000Y-125480000D01*
X118829000Y-123520000D02*
X118829000Y-122118000D01*
X118789000Y-126866000D02*
X118789000Y-125480000D01*
X118789000Y-123520000D02*
X118789000Y-122134000D01*
X118749000Y-126850000D02*
X118749000Y-125480000D01*
X118749000Y-123520000D02*
X118749000Y-122150000D01*
X118709000Y-126833000D02*
X118709000Y-125480000D01*
X118709000Y-123520000D02*
X118709000Y-122167000D01*
X118669000Y-126815000D02*
X118669000Y-125480000D01*
X118669000Y-123520000D02*
X118669000Y-122185000D01*
X118629000Y-126796000D02*
X118629000Y-125480000D01*
X118629000Y-123520000D02*
X118629000Y-122204000D01*
X118589000Y-126776000D02*
X118589000Y-125480000D01*
X118589000Y-123520000D02*
X118589000Y-122224000D01*
X118549000Y-126756000D02*
X118549000Y-125480000D01*
X118549000Y-123520000D02*
X118549000Y-122244000D01*
X118509000Y-126734000D02*
X118509000Y-125480000D01*
X118509000Y-123520000D02*
X118509000Y-122266000D01*
X118469000Y-126712000D02*
X118469000Y-125480000D01*
X118469000Y-123520000D02*
X118469000Y-122288000D01*
X118429000Y-126689000D02*
X118429000Y-125480000D01*
X118429000Y-123520000D02*
X118429000Y-122311000D01*
X118389000Y-126665000D02*
X118389000Y-125480000D01*
X118389000Y-123520000D02*
X118389000Y-122335000D01*
X118349000Y-126640000D02*
X118349000Y-125480000D01*
X118349000Y-123520000D02*
X118349000Y-122360000D01*
X118309000Y-126613000D02*
X118309000Y-125480000D01*
X118309000Y-123520000D02*
X118309000Y-122387000D01*
X118269000Y-126586000D02*
X118269000Y-125480000D01*
X118269000Y-123520000D02*
X118269000Y-122414000D01*
X118229000Y-126558000D02*
X118229000Y-125480000D01*
X118229000Y-123520000D02*
X118229000Y-122442000D01*
X118189000Y-126528000D02*
X118189000Y-125480000D01*
X118189000Y-123520000D02*
X118189000Y-122472000D01*
X118149000Y-126497000D02*
X118149000Y-125480000D01*
X118149000Y-123520000D02*
X118149000Y-122503000D01*
X118109000Y-126465000D02*
X118109000Y-125480000D01*
X118109000Y-123520000D02*
X118109000Y-122535000D01*
X118069000Y-126432000D02*
X118069000Y-125480000D01*
X118069000Y-123520000D02*
X118069000Y-122568000D01*
X118029000Y-126397000D02*
X118029000Y-125480000D01*
X118029000Y-123520000D02*
X118029000Y-122603000D01*
X117989000Y-126361000D02*
X117989000Y-125480000D01*
X117989000Y-123520000D02*
X117989000Y-122639000D01*
X117949000Y-126323000D02*
X117949000Y-125480000D01*
X117949000Y-123520000D02*
X117949000Y-122677000D01*
X117909000Y-126283000D02*
X117909000Y-125480000D01*
X117909000Y-123520000D02*
X117909000Y-122717000D01*
X117869000Y-126242000D02*
X117869000Y-125480000D01*
X117869000Y-123520000D02*
X117869000Y-122758000D01*
X117829000Y-126199000D02*
X117829000Y-125480000D01*
X117829000Y-123520000D02*
X117829000Y-122801000D01*
X117789000Y-126154000D02*
X117789000Y-125480000D01*
X117789000Y-123520000D02*
X117789000Y-122846000D01*
X117749000Y-126106000D02*
X117749000Y-125480000D01*
X117749000Y-123520000D02*
X117749000Y-122894000D01*
X117709000Y-126056000D02*
X117709000Y-125480000D01*
X117709000Y-123520000D02*
X117709000Y-122944000D01*
X117669000Y-126004000D02*
X117669000Y-125480000D01*
X117669000Y-123520000D02*
X117669000Y-122996000D01*
X117629000Y-125948000D02*
X117629000Y-125480000D01*
X117629000Y-123520000D02*
X117629000Y-123052000D01*
X117589000Y-125890000D02*
X117589000Y-125480000D01*
X117589000Y-123520000D02*
X117589000Y-123110000D01*
X117549000Y-125827000D02*
X117549000Y-125480000D01*
X117549000Y-123520000D02*
X117549000Y-123173000D01*
X117509000Y-125761000D02*
X117509000Y-123239000D01*
X117469000Y-125689000D02*
X117469000Y-123311000D01*
X117429000Y-125612000D02*
X117429000Y-123388000D01*
X117389000Y-125528000D02*
X117389000Y-123472000D01*
X117349000Y-125434000D02*
X117349000Y-123566000D01*
X117309000Y-125329000D02*
X117309000Y-123671000D01*
X117269000Y-125207000D02*
X117269000Y-123793000D01*
X117229000Y-125059000D02*
X117229000Y-123941000D01*
X117189000Y-124854000D02*
X117189000Y-124146000D01*
X123200000Y-124500000D02*
X122000000Y-124500000D01*
X122600000Y-125150000D02*
X122600000Y-123850000D01*
X67139000Y-126837000D02*
X67139000Y-125663000D01*
X68861000Y-126837000D02*
X68861000Y-125663000D01*
X106820277Y-122444278D02*
G75*
G03X106820000Y-127055580I1179723J-2305722D01*
G01*
X109179723Y-122444278D02*
G75*
G02X109180000Y-127055580I-1179723J-2305722D01*
G01*
X109179723Y-122444278D02*
G75*
G03X106820000Y-122444420I-1179723J-2305722D01*
G01*
X105450000Y-124750000D02*
X110550000Y-124750000D01*
X105450000Y-124710000D02*
X110550000Y-124710000D01*
X105451000Y-124670000D02*
X110549000Y-124670000D01*
X105452000Y-124630000D02*
X110548000Y-124630000D01*
X105454000Y-124590000D02*
X110546000Y-124590000D01*
X105457000Y-124550000D02*
X110543000Y-124550000D01*
X105461000Y-124510000D02*
X110539000Y-124510000D01*
X105465000Y-124470000D02*
X107020000Y-124470000D01*
X108980000Y-124470000D02*
X110535000Y-124470000D01*
X105469000Y-124430000D02*
X107020000Y-124430000D01*
X108980000Y-124430000D02*
X110531000Y-124430000D01*
X105475000Y-124390000D02*
X107020000Y-124390000D01*
X108980000Y-124390000D02*
X110525000Y-124390000D01*
X105481000Y-124350000D02*
X107020000Y-124350000D01*
X108980000Y-124350000D02*
X110519000Y-124350000D01*
X105487000Y-124310000D02*
X107020000Y-124310000D01*
X108980000Y-124310000D02*
X110513000Y-124310000D01*
X105494000Y-124270000D02*
X107020000Y-124270000D01*
X108980000Y-124270000D02*
X110506000Y-124270000D01*
X105502000Y-124230000D02*
X107020000Y-124230000D01*
X108980000Y-124230000D02*
X110498000Y-124230000D01*
X105511000Y-124190000D02*
X107020000Y-124190000D01*
X108980000Y-124190000D02*
X110489000Y-124190000D01*
X105520000Y-124150000D02*
X107020000Y-124150000D01*
X108980000Y-124150000D02*
X110480000Y-124150000D01*
X105530000Y-124110000D02*
X107020000Y-124110000D01*
X108980000Y-124110000D02*
X110470000Y-124110000D01*
X105540000Y-124070000D02*
X107020000Y-124070000D01*
X108980000Y-124070000D02*
X110460000Y-124070000D01*
X105552000Y-124029000D02*
X107020000Y-124029000D01*
X108980000Y-124029000D02*
X110448000Y-124029000D01*
X105564000Y-123989000D02*
X107020000Y-123989000D01*
X108980000Y-123989000D02*
X110436000Y-123989000D01*
X105576000Y-123949000D02*
X107020000Y-123949000D01*
X108980000Y-123949000D02*
X110424000Y-123949000D01*
X105590000Y-123909000D02*
X107020000Y-123909000D01*
X108980000Y-123909000D02*
X110410000Y-123909000D01*
X105604000Y-123869000D02*
X107020000Y-123869000D01*
X108980000Y-123869000D02*
X110396000Y-123869000D01*
X105618000Y-123829000D02*
X107020000Y-123829000D01*
X108980000Y-123829000D02*
X110382000Y-123829000D01*
X105634000Y-123789000D02*
X107020000Y-123789000D01*
X108980000Y-123789000D02*
X110366000Y-123789000D01*
X105650000Y-123749000D02*
X107020000Y-123749000D01*
X108980000Y-123749000D02*
X110350000Y-123749000D01*
X105667000Y-123709000D02*
X107020000Y-123709000D01*
X108980000Y-123709000D02*
X110333000Y-123709000D01*
X105685000Y-123669000D02*
X107020000Y-123669000D01*
X108980000Y-123669000D02*
X110315000Y-123669000D01*
X105704000Y-123629000D02*
X107020000Y-123629000D01*
X108980000Y-123629000D02*
X110296000Y-123629000D01*
X105724000Y-123589000D02*
X107020000Y-123589000D01*
X108980000Y-123589000D02*
X110276000Y-123589000D01*
X105744000Y-123549000D02*
X107020000Y-123549000D01*
X108980000Y-123549000D02*
X110256000Y-123549000D01*
X105766000Y-123509000D02*
X107020000Y-123509000D01*
X108980000Y-123509000D02*
X110234000Y-123509000D01*
X105788000Y-123469000D02*
X107020000Y-123469000D01*
X108980000Y-123469000D02*
X110212000Y-123469000D01*
X105811000Y-123429000D02*
X107020000Y-123429000D01*
X108980000Y-123429000D02*
X110189000Y-123429000D01*
X105835000Y-123389000D02*
X107020000Y-123389000D01*
X108980000Y-123389000D02*
X110165000Y-123389000D01*
X105860000Y-123349000D02*
X107020000Y-123349000D01*
X108980000Y-123349000D02*
X110140000Y-123349000D01*
X105887000Y-123309000D02*
X107020000Y-123309000D01*
X108980000Y-123309000D02*
X110113000Y-123309000D01*
X105914000Y-123269000D02*
X107020000Y-123269000D01*
X108980000Y-123269000D02*
X110086000Y-123269000D01*
X105942000Y-123229000D02*
X107020000Y-123229000D01*
X108980000Y-123229000D02*
X110058000Y-123229000D01*
X105972000Y-123189000D02*
X107020000Y-123189000D01*
X108980000Y-123189000D02*
X110028000Y-123189000D01*
X106003000Y-123149000D02*
X107020000Y-123149000D01*
X108980000Y-123149000D02*
X109997000Y-123149000D01*
X106035000Y-123109000D02*
X107020000Y-123109000D01*
X108980000Y-123109000D02*
X109965000Y-123109000D01*
X106068000Y-123069000D02*
X107020000Y-123069000D01*
X108980000Y-123069000D02*
X109932000Y-123069000D01*
X106103000Y-123029000D02*
X107020000Y-123029000D01*
X108980000Y-123029000D02*
X109897000Y-123029000D01*
X106139000Y-122989000D02*
X107020000Y-122989000D01*
X108980000Y-122989000D02*
X109861000Y-122989000D01*
X106177000Y-122949000D02*
X107020000Y-122949000D01*
X108980000Y-122949000D02*
X109823000Y-122949000D01*
X106217000Y-122909000D02*
X107020000Y-122909000D01*
X108980000Y-122909000D02*
X109783000Y-122909000D01*
X106258000Y-122869000D02*
X107020000Y-122869000D01*
X108980000Y-122869000D02*
X109742000Y-122869000D01*
X106301000Y-122829000D02*
X107020000Y-122829000D01*
X108980000Y-122829000D02*
X109699000Y-122829000D01*
X106346000Y-122789000D02*
X107020000Y-122789000D01*
X108980000Y-122789000D02*
X109654000Y-122789000D01*
X106394000Y-122749000D02*
X107020000Y-122749000D01*
X108980000Y-122749000D02*
X109606000Y-122749000D01*
X106444000Y-122709000D02*
X107020000Y-122709000D01*
X108980000Y-122709000D02*
X109556000Y-122709000D01*
X106496000Y-122669000D02*
X107020000Y-122669000D01*
X108980000Y-122669000D02*
X109504000Y-122669000D01*
X106552000Y-122629000D02*
X107020000Y-122629000D01*
X108980000Y-122629000D02*
X109448000Y-122629000D01*
X106610000Y-122589000D02*
X107020000Y-122589000D01*
X108980000Y-122589000D02*
X109390000Y-122589000D01*
X106673000Y-122549000D02*
X107020000Y-122549000D01*
X108980000Y-122549000D02*
X109327000Y-122549000D01*
X106739000Y-122509000D02*
X109261000Y-122509000D01*
X106811000Y-122469000D02*
X109189000Y-122469000D01*
X106888000Y-122429000D02*
X109112000Y-122429000D01*
X106972000Y-122389000D02*
X109028000Y-122389000D01*
X107066000Y-122349000D02*
X108934000Y-122349000D01*
X107171000Y-122309000D02*
X108829000Y-122309000D01*
X107293000Y-122269000D02*
X108707000Y-122269000D01*
X107441000Y-122229000D02*
X108559000Y-122229000D01*
X107646000Y-122189000D02*
X108354000Y-122189000D01*
X108000000Y-128200000D02*
X108000000Y-127000000D01*
X107350000Y-127600000D02*
X108650000Y-127600000D01*
X104210000Y-134860000D02*
X100290000Y-134860000D01*
X104210000Y-132140000D02*
X100290000Y-132140000D01*
X104210000Y-134860000D02*
X104210000Y-134250000D01*
X104210000Y-132750000D02*
X104210000Y-132140000D01*
X100290000Y-134860000D02*
X100290000Y-134250000D01*
X100290000Y-132750000D02*
X100290000Y-132140000D01*
X87139000Y-127837000D02*
X87139000Y-126663000D01*
X88861000Y-127837000D02*
X88861000Y-126663000D01*
X79750000Y-143940000D02*
X79750000Y-146060000D01*
X79750000Y-146060000D02*
X83870000Y-146060000D01*
X83870000Y-146060000D02*
X83870000Y-143940000D01*
X83870000Y-143940000D02*
X79750000Y-143940000D01*
X78980000Y-145000000D02*
X79750000Y-145000000D01*
X84640000Y-145000000D02*
X83870000Y-145000000D01*
X80410000Y-143940000D02*
X80410000Y-146060000D01*
X136780000Y-140650000D02*
X136910000Y-140650000D01*
X136910000Y-140650000D02*
X136910000Y-145970000D01*
X136910000Y-145970000D02*
X136780000Y-145970000D01*
X134220000Y-140650000D02*
X134090000Y-140650000D01*
X134090000Y-140650000D02*
X134090000Y-145970000D01*
X134090000Y-145970000D02*
X134220000Y-145970000D01*
X136910000Y-141490000D02*
X134090000Y-141490000D01*
X136780000Y-125650000D02*
X136910000Y-125650000D01*
X136910000Y-125650000D02*
X136910000Y-130970000D01*
X136910000Y-130970000D02*
X136780000Y-130970000D01*
X134220000Y-125650000D02*
X134090000Y-125650000D01*
X134090000Y-125650000D02*
X134090000Y-130970000D01*
X134090000Y-130970000D02*
X134220000Y-130970000D01*
X136910000Y-126490000D02*
X134090000Y-126490000D01*
X113410000Y-134330000D02*
X113410000Y-129130000D01*
X108270000Y-134330000D02*
X113410000Y-134330000D01*
X105670000Y-129130000D02*
X113410000Y-129130000D01*
X108270000Y-134330000D02*
X108270000Y-131730000D01*
X108270000Y-131730000D02*
X105670000Y-131730000D01*
X105670000Y-131730000D02*
X105670000Y-129130000D01*
X107000000Y-134330000D02*
X105670000Y-134330000D01*
X105670000Y-134330000D02*
X105670000Y-133000000D01*
X106170000Y-145950000D02*
X111370000Y-145950000D01*
X106170000Y-138270000D02*
X106170000Y-145950000D01*
X111370000Y-135670000D02*
X111370000Y-145950000D01*
X106170000Y-138270000D02*
X108770000Y-138270000D01*
X108770000Y-138270000D02*
X108770000Y-135670000D01*
X108770000Y-135670000D02*
X111370000Y-135670000D01*
X106170000Y-137000000D02*
X106170000Y-135670000D01*
X106170000Y-135670000D02*
X107500000Y-135670000D01*
X129620000Y-139920000D02*
X129620000Y-150160000D01*
X124979000Y-139920000D02*
X124979000Y-150160000D01*
X129620000Y-139920000D02*
X124979000Y-139920000D01*
X129620000Y-150160000D02*
X124979000Y-150160000D01*
X128110000Y-139920000D02*
X128110000Y-150160000D01*
X129620000Y-143190000D02*
X128110000Y-143190000D01*
X129620000Y-146891000D02*
X128110000Y-146891000D01*
X129620000Y-128420000D02*
X129620000Y-138660000D01*
X124979000Y-128420000D02*
X124979000Y-138660000D01*
X129620000Y-128420000D02*
X124979000Y-128420000D01*
X129620000Y-138660000D02*
X124979000Y-138660000D01*
X128110000Y-128420000D02*
X128110000Y-138660000D01*
X129620000Y-131690000D02*
X128110000Y-131690000D01*
X129620000Y-135391000D02*
X128110000Y-135391000D01*
X70520000Y-142900000D02*
X70190000Y-142900000D01*
X70190000Y-142900000D02*
X70190000Y-136480000D01*
X70190000Y-136480000D02*
X70520000Y-136480000D01*
X72480000Y-142900000D02*
X72810000Y-142900000D01*
X72810000Y-142900000D02*
X72810000Y-136480000D01*
X72810000Y-136480000D02*
X72480000Y-136480000D01*
X70520000Y-132900000D02*
X70190000Y-132900000D01*
X70190000Y-132900000D02*
X70190000Y-126480000D01*
X70190000Y-126480000D02*
X70520000Y-126480000D01*
X72480000Y-132900000D02*
X72810000Y-132900000D01*
X72810000Y-132900000D02*
X72810000Y-126480000D01*
X72810000Y-126480000D02*
X72480000Y-126480000D01*
X80900000Y-123980000D02*
X80900000Y-124310000D01*
X80900000Y-124310000D02*
X74480000Y-124310000D01*
X74480000Y-124310000D02*
X74480000Y-123980000D01*
X80900000Y-122020000D02*
X80900000Y-121690000D01*
X80900000Y-121690000D02*
X74480000Y-121690000D01*
X74480000Y-121690000D02*
X74480000Y-122020000D01*
X74020000Y-137900000D02*
X73690000Y-137900000D01*
X73690000Y-137900000D02*
X73690000Y-131480000D01*
X73690000Y-131480000D02*
X74020000Y-131480000D01*
X75980000Y-137900000D02*
X76310000Y-137900000D01*
X76310000Y-137900000D02*
X76310000Y-131480000D01*
X76310000Y-131480000D02*
X75980000Y-131480000D01*
X67020000Y-136900000D02*
X66690000Y-136900000D01*
X66690000Y-136900000D02*
X66690000Y-130480000D01*
X66690000Y-130480000D02*
X67020000Y-130480000D01*
X68980000Y-136900000D02*
X69310000Y-136900000D01*
X69310000Y-136900000D02*
X69310000Y-130480000D01*
X69310000Y-130480000D02*
X68980000Y-130480000D01*
X67020000Y-146900000D02*
X66690000Y-146900000D01*
X66690000Y-146900000D02*
X66690000Y-140480000D01*
X66690000Y-140480000D02*
X67020000Y-140480000D01*
X68980000Y-146900000D02*
X69310000Y-146900000D01*
X69310000Y-146900000D02*
X69310000Y-140480000D01*
X69310000Y-140480000D02*
X68980000Y-140480000D01*
X89480000Y-131600000D02*
X89810000Y-131600000D01*
X89810000Y-131600000D02*
X89810000Y-138020000D01*
X89810000Y-138020000D02*
X89480000Y-138020000D01*
X87520000Y-131600000D02*
X87190000Y-131600000D01*
X87190000Y-131600000D02*
X87190000Y-138020000D01*
X87190000Y-138020000D02*
X87520000Y-138020000D01*
X74020000Y-147900000D02*
X73690000Y-147900000D01*
X73690000Y-147900000D02*
X73690000Y-141480000D01*
X73690000Y-141480000D02*
X74020000Y-141480000D01*
X75980000Y-147900000D02*
X76310000Y-147900000D01*
X76310000Y-147900000D02*
X76310000Y-141480000D01*
X76310000Y-141480000D02*
X75980000Y-141480000D01*
X87520000Y-147900000D02*
X87190000Y-147900000D01*
X87190000Y-147900000D02*
X87190000Y-141480000D01*
X87190000Y-141480000D02*
X87520000Y-141480000D01*
X89480000Y-147900000D02*
X89810000Y-147900000D01*
X89810000Y-147900000D02*
X89810000Y-141480000D01*
X89810000Y-141480000D02*
X89480000Y-141480000D01*
X78600000Y-147020000D02*
X78600000Y-146690000D01*
X78600000Y-146690000D02*
X85020000Y-146690000D01*
X85020000Y-146690000D02*
X85020000Y-147020000D01*
X78600000Y-148980000D02*
X78600000Y-149310000D01*
X78600000Y-149310000D02*
X85020000Y-149310000D01*
X85020000Y-149310000D02*
X85020000Y-148980000D01*
X91020000Y-128900000D02*
X90690000Y-128900000D01*
X90690000Y-128900000D02*
X90690000Y-122480000D01*
X90690000Y-122480000D02*
X91020000Y-122480000D01*
X92980000Y-128900000D02*
X93310000Y-128900000D01*
X93310000Y-128900000D02*
X93310000Y-122480000D01*
X93310000Y-122480000D02*
X92980000Y-122480000D01*
X92980000Y-132600000D02*
X93310000Y-132600000D01*
X93310000Y-132600000D02*
X93310000Y-139020000D01*
X93310000Y-139020000D02*
X92980000Y-139020000D01*
X91020000Y-132600000D02*
X90690000Y-132600000D01*
X90690000Y-132600000D02*
X90690000Y-139020000D01*
X90690000Y-139020000D02*
X91020000Y-139020000D01*
X92980000Y-142600000D02*
X93310000Y-142600000D01*
X93310000Y-142600000D02*
X93310000Y-149020000D01*
X93310000Y-149020000D02*
X92980000Y-149020000D01*
X91020000Y-142600000D02*
X90690000Y-142600000D01*
X90690000Y-142600000D02*
X90690000Y-149020000D01*
X90690000Y-149020000D02*
X91020000Y-149020000D01*
X114100000Y-144020000D02*
X114100000Y-143690000D01*
X114100000Y-143690000D02*
X120520000Y-143690000D01*
X120520000Y-143690000D02*
X120520000Y-144020000D01*
X114100000Y-145980000D02*
X114100000Y-146310000D01*
X114100000Y-146310000D02*
X120520000Y-146310000D01*
X120520000Y-146310000D02*
X120520000Y-145980000D01*
X120400000Y-138480000D02*
X120400000Y-138810000D01*
X120400000Y-138810000D02*
X113980000Y-138810000D01*
X113980000Y-138810000D02*
X113980000Y-138480000D01*
X120400000Y-136520000D02*
X120400000Y-136190000D01*
X120400000Y-136190000D02*
X113980000Y-136190000D01*
X113980000Y-136190000D02*
X113980000Y-136520000D01*
X122400000Y-134980000D02*
X122400000Y-135310000D01*
X122400000Y-135310000D02*
X115980000Y-135310000D01*
X115980000Y-135310000D02*
X115980000Y-134980000D01*
X122400000Y-133020000D02*
X122400000Y-132690000D01*
X122400000Y-132690000D02*
X115980000Y-132690000D01*
X115980000Y-132690000D02*
X115980000Y-133020000D01*
X120400000Y-142480000D02*
X120400000Y-142810000D01*
X120400000Y-142810000D02*
X113980000Y-142810000D01*
X113980000Y-142810000D02*
X113980000Y-142480000D01*
X120400000Y-140520000D02*
X120400000Y-140190000D01*
X120400000Y-140190000D02*
X113980000Y-140190000D01*
X113980000Y-140190000D02*
X113980000Y-140520000D01*
X119400000Y-149480000D02*
X119400000Y-149810000D01*
X119400000Y-149810000D02*
X112980000Y-149810000D01*
X112980000Y-149810000D02*
X112980000Y-149480000D01*
X119400000Y-147520000D02*
X119400000Y-147190000D01*
X119400000Y-147190000D02*
X112980000Y-147190000D01*
X112980000Y-147190000D02*
X112980000Y-147520000D01*
X98530000Y-123150000D02*
X94930000Y-123150000D01*
X98568478Y-123161522D02*
G75*
G02X96730000Y-127600000I-1838478J-1838478D01*
G01*
X94891522Y-123161522D02*
G75*
G03X96730000Y-127600000I1838478J-1838478D01*
G01*
X82810000Y-125170000D02*
G75*
G02X80810000Y-125170000I-1000000J0D01*
G01*
X80810000Y-125170000D02*
X79160000Y-125170000D01*
X79160000Y-125170000D02*
X79160000Y-143070000D01*
X79160000Y-143070000D02*
X84460000Y-143070000D01*
X84460000Y-143070000D02*
X84460000Y-125170000D01*
X84460000Y-125170000D02*
X82810000Y-125170000D01*
X104350000Y-126530000D02*
X104350000Y-122930000D01*
X104338478Y-126568478D02*
G75*
G02X99900000Y-124730000I-1838478J1838478D01*
G01*
X104338478Y-122891522D02*
G75*
G03X99900000Y-124730000I-1838478J-1838478D01*
G01*
X100810000Y-135670000D02*
G75*
G02X98810000Y-135670000I-1000000J0D01*
G01*
X98810000Y-135670000D02*
X97160000Y-135670000D01*
X97160000Y-135670000D02*
X97160000Y-145950000D01*
X97160000Y-145950000D02*
X102460000Y-145950000D01*
X102460000Y-145950000D02*
X102460000Y-135670000D01*
X102460000Y-135670000D02*
X100810000Y-135670000D01*
D13*
X102083334Y-127247143D02*
X102035715Y-127294762D01*
X101892858Y-127342381D01*
X101797620Y-127342381D01*
X101654762Y-127294762D01*
X101559524Y-127199524D01*
X101511905Y-127104286D01*
X101464286Y-126913810D01*
X101464286Y-126770952D01*
X101511905Y-126580476D01*
X101559524Y-126485238D01*
X101654762Y-126390000D01*
X101797620Y-126342381D01*
X101892858Y-126342381D01*
X102035715Y-126390000D01*
X102083334Y-126437619D01*
X103035715Y-127342381D02*
X102464286Y-127342381D01*
X102750000Y-127342381D02*
X102750000Y-126342381D01*
X102654762Y-126485238D01*
X102559524Y-126580476D01*
X102464286Y-126628095D01*
X77467143Y-127416666D02*
X77514762Y-127464285D01*
X77562381Y-127607142D01*
X77562381Y-127702380D01*
X77514762Y-127845238D01*
X77419524Y-127940476D01*
X77324286Y-127988095D01*
X77133810Y-128035714D01*
X76990952Y-128035714D01*
X76800476Y-127988095D01*
X76705238Y-127940476D01*
X76610000Y-127845238D01*
X76562381Y-127702380D01*
X76562381Y-127607142D01*
X76610000Y-127464285D01*
X76657619Y-127416666D01*
X76657619Y-127035714D02*
X76610000Y-126988095D01*
X76562381Y-126892857D01*
X76562381Y-126654761D01*
X76610000Y-126559523D01*
X76657619Y-126511904D01*
X76752857Y-126464285D01*
X76848095Y-126464285D01*
X76990952Y-126511904D01*
X77562381Y-127083333D01*
X77562381Y-126464285D01*
X96583334Y-127547143D02*
X96535715Y-127594762D01*
X96392858Y-127642381D01*
X96297620Y-127642381D01*
X96154762Y-127594762D01*
X96059524Y-127499524D01*
X96011905Y-127404286D01*
X95964286Y-127213810D01*
X95964286Y-127070952D01*
X96011905Y-126880476D01*
X96059524Y-126785238D01*
X96154762Y-126690000D01*
X96297620Y-126642381D01*
X96392858Y-126642381D01*
X96535715Y-126690000D01*
X96583334Y-126737619D01*
X96916667Y-126642381D02*
X97535715Y-126642381D01*
X97202381Y-127023333D01*
X97345239Y-127023333D01*
X97440477Y-127070952D01*
X97488096Y-127118571D01*
X97535715Y-127213810D01*
X97535715Y-127451905D01*
X97488096Y-127547143D01*
X97440477Y-127594762D01*
X97345239Y-127642381D01*
X97059524Y-127642381D01*
X96964286Y-127594762D01*
X96916667Y-127547143D01*
X69857143Y-149666666D02*
X69904762Y-149714285D01*
X69952381Y-149857142D01*
X69952381Y-149952380D01*
X69904762Y-150095238D01*
X69809524Y-150190476D01*
X69714286Y-150238095D01*
X69523810Y-150285714D01*
X69380952Y-150285714D01*
X69190476Y-150238095D01*
X69095238Y-150190476D01*
X69000000Y-150095238D01*
X68952381Y-149952380D01*
X68952381Y-149857142D01*
X69000000Y-149714285D01*
X69047619Y-149666666D01*
X69285714Y-148809523D02*
X69952381Y-148809523D01*
X68904762Y-149047619D02*
X69619048Y-149285714D01*
X69619048Y-148666666D01*
X119583334Y-128667143D02*
X119535715Y-128714762D01*
X119392858Y-128762381D01*
X119297620Y-128762381D01*
X119154762Y-128714762D01*
X119059524Y-128619524D01*
X119011905Y-128524286D01*
X118964286Y-128333810D01*
X118964286Y-128190952D01*
X119011905Y-128000476D01*
X119059524Y-127905238D01*
X119154762Y-127810000D01*
X119297620Y-127762381D01*
X119392858Y-127762381D01*
X119535715Y-127810000D01*
X119583334Y-127857619D01*
X120488096Y-127762381D02*
X120011905Y-127762381D01*
X119964286Y-128238571D01*
X120011905Y-128190952D01*
X120107143Y-128143333D01*
X120345239Y-128143333D01*
X120440477Y-128190952D01*
X120488096Y-128238571D01*
X120535715Y-128333810D01*
X120535715Y-128571905D01*
X120488096Y-128667143D01*
X120440477Y-128714762D01*
X120345239Y-128762381D01*
X120107143Y-128762381D01*
X120011905Y-128714762D01*
X119964286Y-128667143D01*
X66247143Y-126416666D02*
X66294762Y-126464285D01*
X66342381Y-126607142D01*
X66342381Y-126702380D01*
X66294762Y-126845238D01*
X66199524Y-126940476D01*
X66104286Y-126988095D01*
X65913810Y-127035714D01*
X65770952Y-127035714D01*
X65580476Y-126988095D01*
X65485238Y-126940476D01*
X65390000Y-126845238D01*
X65342381Y-126702380D01*
X65342381Y-126607142D01*
X65390000Y-126464285D01*
X65437619Y-126416666D01*
X65342381Y-125559523D02*
X65342381Y-125750000D01*
X65390000Y-125845238D01*
X65437619Y-125892857D01*
X65580476Y-125988095D01*
X65770952Y-126035714D01*
X66151905Y-126035714D01*
X66247143Y-125988095D01*
X66294762Y-125940476D01*
X66342381Y-125845238D01*
X66342381Y-125654761D01*
X66294762Y-125559523D01*
X66247143Y-125511904D01*
X66151905Y-125464285D01*
X65913810Y-125464285D01*
X65818571Y-125511904D01*
X65770952Y-125559523D01*
X65723333Y-125654761D01*
X65723333Y-125845238D01*
X65770952Y-125940476D01*
X65818571Y-125988095D01*
X65913810Y-126035714D01*
X104547143Y-124916666D02*
X104594762Y-124964285D01*
X104642381Y-125107142D01*
X104642381Y-125202380D01*
X104594762Y-125345238D01*
X104499524Y-125440476D01*
X104404286Y-125488095D01*
X104213810Y-125535714D01*
X104070952Y-125535714D01*
X103880476Y-125488095D01*
X103785238Y-125440476D01*
X103690000Y-125345238D01*
X103642381Y-125202380D01*
X103642381Y-125107142D01*
X103690000Y-124964285D01*
X103737619Y-124916666D01*
X103642381Y-124583333D02*
X103642381Y-123916666D01*
X104642381Y-124345238D01*
X102083334Y-136467143D02*
X102035715Y-136514762D01*
X101892858Y-136562381D01*
X101797620Y-136562381D01*
X101654762Y-136514762D01*
X101559524Y-136419524D01*
X101511905Y-136324286D01*
X101464286Y-136133810D01*
X101464286Y-135990952D01*
X101511905Y-135800476D01*
X101559524Y-135705238D01*
X101654762Y-135610000D01*
X101797620Y-135562381D01*
X101892858Y-135562381D01*
X102035715Y-135610000D01*
X102083334Y-135657619D01*
X102654762Y-135990952D02*
X102559524Y-135943333D01*
X102511905Y-135895714D01*
X102464286Y-135800476D01*
X102464286Y-135752857D01*
X102511905Y-135657619D01*
X102559524Y-135610000D01*
X102654762Y-135562381D01*
X102845239Y-135562381D01*
X102940477Y-135610000D01*
X102988096Y-135657619D01*
X103035715Y-135752857D01*
X103035715Y-135800476D01*
X102988096Y-135895714D01*
X102940477Y-135943333D01*
X102845239Y-135990952D01*
X102654762Y-135990952D01*
X102559524Y-136038571D01*
X102511905Y-136086190D01*
X102464286Y-136181429D01*
X102464286Y-136371905D01*
X102511905Y-136467143D01*
X102559524Y-136514762D01*
X102654762Y-136562381D01*
X102845239Y-136562381D01*
X102940477Y-136514762D01*
X102988096Y-136467143D01*
X103035715Y-136371905D01*
X103035715Y-136181429D01*
X102988096Y-136086190D01*
X102940477Y-136038571D01*
X102845239Y-135990952D01*
X88357143Y-124166666D02*
X88404762Y-124214285D01*
X88452381Y-124357142D01*
X88452381Y-124452380D01*
X88404762Y-124595238D01*
X88309524Y-124690476D01*
X88214286Y-124738095D01*
X88023810Y-124785714D01*
X87880952Y-124785714D01*
X87690476Y-124738095D01*
X87595238Y-124690476D01*
X87500000Y-124595238D01*
X87452381Y-124452380D01*
X87452381Y-124357142D01*
X87500000Y-124214285D01*
X87547619Y-124166666D01*
X88452381Y-123690476D02*
X88452381Y-123500000D01*
X88404762Y-123404761D01*
X88357143Y-123357142D01*
X88214286Y-123261904D01*
X88023810Y-123214285D01*
X87642857Y-123214285D01*
X87547619Y-123261904D01*
X87500000Y-123309523D01*
X87452381Y-123404761D01*
X87452381Y-123595238D01*
X87500000Y-123690476D01*
X87547619Y-123738095D01*
X87642857Y-123785714D01*
X87880952Y-123785714D01*
X87976190Y-123738095D01*
X88023810Y-123690476D01*
X88071429Y-123595238D01*
X88071429Y-123404761D01*
X88023810Y-123309523D01*
X87976190Y-123261904D01*
X87880952Y-123214285D01*
X81261905Y-145452381D02*
X81261905Y-144452381D01*
X81500000Y-144452381D01*
X81642858Y-144500000D01*
X81738096Y-144595238D01*
X81785715Y-144690476D01*
X81833334Y-144880952D01*
X81833334Y-145023810D01*
X81785715Y-145214286D01*
X81738096Y-145309524D01*
X81642858Y-145404762D01*
X81500000Y-145452381D01*
X81261905Y-145452381D01*
X82785715Y-145452381D02*
X82214286Y-145452381D01*
X82500000Y-145452381D02*
X82500000Y-144452381D01*
X82404762Y-144595238D01*
X82309524Y-144690476D01*
X82214286Y-144738095D01*
X138362381Y-144048095D02*
X137362381Y-144048095D01*
X137362381Y-143810000D01*
X137410000Y-143667142D01*
X137505238Y-143571904D01*
X137600476Y-143524285D01*
X137790952Y-143476666D01*
X137933810Y-143476666D01*
X138124286Y-143524285D01*
X138219524Y-143571904D01*
X138314762Y-143667142D01*
X138362381Y-143810000D01*
X138362381Y-144048095D01*
X137457619Y-143095714D02*
X137410000Y-143048095D01*
X137362381Y-142952857D01*
X137362381Y-142714761D01*
X137410000Y-142619523D01*
X137457619Y-142571904D01*
X137552857Y-142524285D01*
X137648095Y-142524285D01*
X137790952Y-142571904D01*
X138362381Y-143143333D01*
X138362381Y-142524285D01*
X138362381Y-129048095D02*
X137362381Y-129048095D01*
X137362381Y-128810000D01*
X137410000Y-128667142D01*
X137505238Y-128571904D01*
X137600476Y-128524285D01*
X137790952Y-128476666D01*
X137933810Y-128476666D01*
X138124286Y-128524285D01*
X138219524Y-128571904D01*
X138314762Y-128667142D01*
X138362381Y-128810000D01*
X138362381Y-129048095D01*
X137362381Y-128143333D02*
X137362381Y-127524285D01*
X137743333Y-127857619D01*
X137743333Y-127714761D01*
X137790952Y-127619523D01*
X137838571Y-127571904D01*
X137933810Y-127524285D01*
X138171905Y-127524285D01*
X138267143Y-127571904D01*
X138314762Y-127619523D01*
X138362381Y-127714761D01*
X138362381Y-128000476D01*
X138314762Y-128095714D01*
X138267143Y-128143333D01*
X119815267Y-123749181D02*
X119815267Y-124463467D01*
X119767647Y-124606324D01*
X119672409Y-124701562D01*
X119529552Y-124749181D01*
X119434314Y-124749181D01*
X120815267Y-124749181D02*
X120243838Y-124749181D01*
X120529552Y-124749181D02*
X120529552Y-123749181D01*
X120434314Y-123892038D01*
X120339076Y-123987276D01*
X120243838Y-124034895D01*
X62249181Y-137684733D02*
X62963467Y-137684733D01*
X63106324Y-137732353D01*
X63201562Y-137827591D01*
X63249181Y-137970448D01*
X63249181Y-138065686D01*
X62344419Y-137256162D02*
X62296800Y-137208543D01*
X62249181Y-137113305D01*
X62249181Y-136875209D01*
X62296800Y-136779971D01*
X62344419Y-136732352D01*
X62439657Y-136684733D01*
X62534895Y-136684733D01*
X62677752Y-136732352D01*
X63249181Y-137303781D01*
X63249181Y-136684733D01*
X104122381Y-132063333D02*
X104836667Y-132063333D01*
X104979524Y-132110953D01*
X105074762Y-132206191D01*
X105122381Y-132349048D01*
X105122381Y-132444286D01*
X104122381Y-131682381D02*
X104122381Y-131063333D01*
X104503333Y-131396667D01*
X104503333Y-131253809D01*
X104550952Y-131158571D01*
X104598571Y-131110952D01*
X104693810Y-131063333D01*
X104931905Y-131063333D01*
X105027143Y-131110952D01*
X105074762Y-131158571D01*
X105122381Y-131253809D01*
X105122381Y-131539524D01*
X105074762Y-131634762D01*
X105027143Y-131682381D01*
X108436667Y-134122381D02*
X108436667Y-134836667D01*
X108389047Y-134979524D01*
X108293809Y-135074762D01*
X108150952Y-135122381D01*
X108055714Y-135122381D01*
X109341429Y-134455714D02*
X109341429Y-135122381D01*
X109103333Y-134074762D02*
X108865238Y-134789048D01*
X109484286Y-134789048D01*
X104018067Y-148655581D02*
X104018067Y-149369867D01*
X103970447Y-149512724D01*
X103875209Y-149607962D01*
X103732352Y-149655581D01*
X103637114Y-149655581D01*
X104970448Y-148655581D02*
X104494257Y-148655581D01*
X104446638Y-149131771D01*
X104494257Y-149084152D01*
X104589495Y-149036533D01*
X104827591Y-149036533D01*
X104922829Y-149084152D01*
X104970448Y-149131771D01*
X105018067Y-149227010D01*
X105018067Y-149465105D01*
X104970448Y-149560343D01*
X104922829Y-149607962D01*
X104827591Y-149655581D01*
X104589495Y-149655581D01*
X104494257Y-149607962D01*
X104446638Y-149560343D01*
X131249181Y-143184733D02*
X131963467Y-143184733D01*
X132106324Y-143232353D01*
X132201562Y-143327591D01*
X132249181Y-143470448D01*
X132249181Y-143565686D01*
X131249181Y-142279971D02*
X131249181Y-142470448D01*
X131296800Y-142565686D01*
X131344419Y-142613305D01*
X131487276Y-142708543D01*
X131677752Y-142756162D01*
X132058705Y-142756162D01*
X132153943Y-142708543D01*
X132201562Y-142660924D01*
X132249181Y-142565686D01*
X132249181Y-142375209D01*
X132201562Y-142279971D01*
X132153943Y-142232352D01*
X132058705Y-142184733D01*
X131820610Y-142184733D01*
X131725371Y-142232352D01*
X131677752Y-142279971D01*
X131630133Y-142375209D01*
X131630133Y-142565686D01*
X131677752Y-142660924D01*
X131725371Y-142708543D01*
X131820610Y-142756162D01*
X131249181Y-128184733D02*
X131963467Y-128184733D01*
X132106324Y-128232353D01*
X132201562Y-128327591D01*
X132249181Y-128470448D01*
X132249181Y-128565686D01*
X131249181Y-127803781D02*
X131249181Y-127137114D01*
X132249181Y-127565686D01*
X131167619Y-145135238D02*
X131120000Y-145230476D01*
X131024762Y-145325714D01*
X130881905Y-145468571D01*
X130834286Y-145563810D01*
X130834286Y-145659048D01*
X131072381Y-145611429D02*
X131024762Y-145706667D01*
X130929524Y-145801905D01*
X130739048Y-145849524D01*
X130405714Y-145849524D01*
X130215238Y-145801905D01*
X130120000Y-145706667D01*
X130072381Y-145611429D01*
X130072381Y-145420952D01*
X130120000Y-145325714D01*
X130215238Y-145230476D01*
X130405714Y-145182857D01*
X130739048Y-145182857D01*
X130929524Y-145230476D01*
X131024762Y-145325714D01*
X131072381Y-145420952D01*
X131072381Y-145611429D01*
X131072381Y-144230476D02*
X131072381Y-144801905D01*
X131072381Y-144516191D02*
X130072381Y-144516191D01*
X130215238Y-144611429D01*
X130310476Y-144706667D01*
X130358095Y-144801905D01*
X131167619Y-133635238D02*
X131120000Y-133730476D01*
X131024762Y-133825714D01*
X130881905Y-133968571D01*
X130834286Y-134063810D01*
X130834286Y-134159048D01*
X131072381Y-134111429D02*
X131024762Y-134206667D01*
X130929524Y-134301905D01*
X130739048Y-134349524D01*
X130405714Y-134349524D01*
X130215238Y-134301905D01*
X130120000Y-134206667D01*
X130072381Y-134111429D01*
X130072381Y-133920952D01*
X130120000Y-133825714D01*
X130215238Y-133730476D01*
X130405714Y-133682857D01*
X130739048Y-133682857D01*
X130929524Y-133730476D01*
X131024762Y-133825714D01*
X131072381Y-133920952D01*
X131072381Y-134111429D01*
X130167619Y-133301905D02*
X130120000Y-133254286D01*
X130072381Y-133159048D01*
X130072381Y-132920952D01*
X130120000Y-132825714D01*
X130167619Y-132778095D01*
X130262857Y-132730476D01*
X130358095Y-132730476D01*
X130500952Y-132778095D01*
X131072381Y-133349524D01*
X131072381Y-132730476D01*
X71952381Y-139666666D02*
X71476190Y-140000000D01*
X71952381Y-140238095D02*
X70952381Y-140238095D01*
X70952381Y-139857142D01*
X71000000Y-139761904D01*
X71047619Y-139714285D01*
X71142857Y-139666666D01*
X71285714Y-139666666D01*
X71380952Y-139714285D01*
X71428571Y-139761904D01*
X71476190Y-139857142D01*
X71476190Y-140238095D01*
X71952381Y-138714285D02*
X71952381Y-139285714D01*
X71952381Y-139000000D02*
X70952381Y-139000000D01*
X71095238Y-139095238D01*
X71190476Y-139190476D01*
X71238095Y-139285714D01*
X71952381Y-129666666D02*
X71476190Y-130000000D01*
X71952381Y-130238095D02*
X70952381Y-130238095D01*
X70952381Y-129857142D01*
X71000000Y-129761904D01*
X71047619Y-129714285D01*
X71142857Y-129666666D01*
X71285714Y-129666666D01*
X71380952Y-129714285D01*
X71428571Y-129761904D01*
X71476190Y-129857142D01*
X71476190Y-130238095D01*
X71047619Y-129285714D02*
X71000000Y-129238095D01*
X70952381Y-129142857D01*
X70952381Y-128904761D01*
X71000000Y-128809523D01*
X71047619Y-128761904D01*
X71142857Y-128714285D01*
X71238095Y-128714285D01*
X71380952Y-128761904D01*
X71952381Y-129333333D01*
X71952381Y-128714285D01*
X77333334Y-123452381D02*
X77000000Y-122976190D01*
X76761905Y-123452381D02*
X76761905Y-122452381D01*
X77142858Y-122452381D01*
X77238096Y-122500000D01*
X77285715Y-122547619D01*
X77333334Y-122642857D01*
X77333334Y-122785714D01*
X77285715Y-122880952D01*
X77238096Y-122928571D01*
X77142858Y-122976190D01*
X76761905Y-122976190D01*
X77666667Y-122452381D02*
X78285715Y-122452381D01*
X77952381Y-122833333D01*
X78095239Y-122833333D01*
X78190477Y-122880952D01*
X78238096Y-122928571D01*
X78285715Y-123023810D01*
X78285715Y-123261905D01*
X78238096Y-123357143D01*
X78190477Y-123404762D01*
X78095239Y-123452381D01*
X77809524Y-123452381D01*
X77714286Y-123404762D01*
X77666667Y-123357143D01*
X75452381Y-135166666D02*
X74976190Y-135500000D01*
X75452381Y-135738095D02*
X74452381Y-135738095D01*
X74452381Y-135357142D01*
X74500000Y-135261904D01*
X74547619Y-135214285D01*
X74642857Y-135166666D01*
X74785714Y-135166666D01*
X74880952Y-135214285D01*
X74928571Y-135261904D01*
X74976190Y-135357142D01*
X74976190Y-135738095D01*
X74785714Y-134309523D02*
X75452381Y-134309523D01*
X74404762Y-134547619D02*
X75119048Y-134785714D01*
X75119048Y-134166666D01*
X68452381Y-134166666D02*
X67976190Y-134500000D01*
X68452381Y-134738095D02*
X67452381Y-134738095D01*
X67452381Y-134357142D01*
X67500000Y-134261904D01*
X67547619Y-134214285D01*
X67642857Y-134166666D01*
X67785714Y-134166666D01*
X67880952Y-134214285D01*
X67928571Y-134261904D01*
X67976190Y-134357142D01*
X67976190Y-134738095D01*
X67452381Y-133261904D02*
X67452381Y-133738095D01*
X67928571Y-133785714D01*
X67880952Y-133738095D01*
X67833333Y-133642857D01*
X67833333Y-133404761D01*
X67880952Y-133309523D01*
X67928571Y-133261904D01*
X68023810Y-133214285D01*
X68261905Y-133214285D01*
X68357143Y-133261904D01*
X68404762Y-133309523D01*
X68452381Y-133404761D01*
X68452381Y-133642857D01*
X68404762Y-133738095D01*
X68357143Y-133785714D01*
X68452381Y-144166666D02*
X67976190Y-144500000D01*
X68452381Y-144738095D02*
X67452381Y-144738095D01*
X67452381Y-144357142D01*
X67500000Y-144261904D01*
X67547619Y-144214285D01*
X67642857Y-144166666D01*
X67785714Y-144166666D01*
X67880952Y-144214285D01*
X67928571Y-144261904D01*
X67976190Y-144357142D01*
X67976190Y-144738095D01*
X67452381Y-143309523D02*
X67452381Y-143500000D01*
X67500000Y-143595238D01*
X67547619Y-143642857D01*
X67690476Y-143738095D01*
X67880952Y-143785714D01*
X68261905Y-143785714D01*
X68357143Y-143738095D01*
X68404762Y-143690476D01*
X68452381Y-143595238D01*
X68452381Y-143404761D01*
X68404762Y-143309523D01*
X68357143Y-143261904D01*
X68261905Y-143214285D01*
X68023810Y-143214285D01*
X67928571Y-143261904D01*
X67880952Y-143309523D01*
X67833333Y-143404761D01*
X67833333Y-143595238D01*
X67880952Y-143690476D01*
X67928571Y-143738095D01*
X68023810Y-143785714D01*
X88952381Y-135166666D02*
X88476190Y-135500000D01*
X88952381Y-135738095D02*
X87952381Y-135738095D01*
X87952381Y-135357142D01*
X88000000Y-135261904D01*
X88047619Y-135214285D01*
X88142857Y-135166666D01*
X88285714Y-135166666D01*
X88380952Y-135214285D01*
X88428571Y-135261904D01*
X88476190Y-135357142D01*
X88476190Y-135738095D01*
X87952381Y-134833333D02*
X87952381Y-134166666D01*
X88952381Y-134595238D01*
X75452381Y-145166666D02*
X74976190Y-145500000D01*
X75452381Y-145738095D02*
X74452381Y-145738095D01*
X74452381Y-145357142D01*
X74500000Y-145261904D01*
X74547619Y-145214285D01*
X74642857Y-145166666D01*
X74785714Y-145166666D01*
X74880952Y-145214285D01*
X74928571Y-145261904D01*
X74976190Y-145357142D01*
X74976190Y-145738095D01*
X74880952Y-144595238D02*
X74833333Y-144690476D01*
X74785714Y-144738095D01*
X74690476Y-144785714D01*
X74642857Y-144785714D01*
X74547619Y-144738095D01*
X74500000Y-144690476D01*
X74452381Y-144595238D01*
X74452381Y-144404761D01*
X74500000Y-144309523D01*
X74547619Y-144261904D01*
X74642857Y-144214285D01*
X74690476Y-144214285D01*
X74785714Y-144261904D01*
X74833333Y-144309523D01*
X74880952Y-144404761D01*
X74880952Y-144595238D01*
X74928571Y-144690476D01*
X74976190Y-144738095D01*
X75071429Y-144785714D01*
X75261905Y-144785714D01*
X75357143Y-144738095D01*
X75404762Y-144690476D01*
X75452381Y-144595238D01*
X75452381Y-144404761D01*
X75404762Y-144309523D01*
X75357143Y-144261904D01*
X75261905Y-144214285D01*
X75071429Y-144214285D01*
X74976190Y-144261904D01*
X74928571Y-144309523D01*
X74880952Y-144404761D01*
X88952381Y-145166666D02*
X88476190Y-145500000D01*
X88952381Y-145738095D02*
X87952381Y-145738095D01*
X87952381Y-145357142D01*
X88000000Y-145261904D01*
X88047619Y-145214285D01*
X88142857Y-145166666D01*
X88285714Y-145166666D01*
X88380952Y-145214285D01*
X88428571Y-145261904D01*
X88476190Y-145357142D01*
X88476190Y-145738095D01*
X88952381Y-144690476D02*
X88952381Y-144500000D01*
X88904762Y-144404761D01*
X88857143Y-144357142D01*
X88714286Y-144261904D01*
X88523810Y-144214285D01*
X88142857Y-144214285D01*
X88047619Y-144261904D01*
X88000000Y-144309523D01*
X87952381Y-144404761D01*
X87952381Y-144595238D01*
X88000000Y-144690476D01*
X88047619Y-144738095D01*
X88142857Y-144785714D01*
X88380952Y-144785714D01*
X88476190Y-144738095D01*
X88523810Y-144690476D01*
X88571429Y-144595238D01*
X88571429Y-144404761D01*
X88523810Y-144309523D01*
X88476190Y-144261904D01*
X88380952Y-144214285D01*
X81357143Y-148452381D02*
X81023809Y-147976190D01*
X80785714Y-148452381D02*
X80785714Y-147452381D01*
X81166667Y-147452381D01*
X81261905Y-147500000D01*
X81309524Y-147547619D01*
X81357143Y-147642857D01*
X81357143Y-147785714D01*
X81309524Y-147880952D01*
X81261905Y-147928571D01*
X81166667Y-147976190D01*
X80785714Y-147976190D01*
X82309524Y-148452381D02*
X81738095Y-148452381D01*
X82023809Y-148452381D02*
X82023809Y-147452381D01*
X81928571Y-147595238D01*
X81833333Y-147690476D01*
X81738095Y-147738095D01*
X82928571Y-147452381D02*
X83023810Y-147452381D01*
X83119048Y-147500000D01*
X83166667Y-147547619D01*
X83214286Y-147642857D01*
X83261905Y-147833333D01*
X83261905Y-148071429D01*
X83214286Y-148261905D01*
X83166667Y-148357143D01*
X83119048Y-148404762D01*
X83023810Y-148452381D01*
X82928571Y-148452381D01*
X82833333Y-148404762D01*
X82785714Y-148357143D01*
X82738095Y-148261905D01*
X82690476Y-148071429D01*
X82690476Y-147833333D01*
X82738095Y-147642857D01*
X82785714Y-147547619D01*
X82833333Y-147500000D01*
X82928571Y-147452381D01*
X92452381Y-126642857D02*
X91976190Y-126976191D01*
X92452381Y-127214286D02*
X91452381Y-127214286D01*
X91452381Y-126833333D01*
X91500000Y-126738095D01*
X91547619Y-126690476D01*
X91642857Y-126642857D01*
X91785714Y-126642857D01*
X91880952Y-126690476D01*
X91928571Y-126738095D01*
X91976190Y-126833333D01*
X91976190Y-127214286D01*
X92452381Y-125690476D02*
X92452381Y-126261905D01*
X92452381Y-125976191D02*
X91452381Y-125976191D01*
X91595238Y-126071429D01*
X91690476Y-126166667D01*
X91738095Y-126261905D01*
X92452381Y-124738095D02*
X92452381Y-125309524D01*
X92452381Y-125023810D02*
X91452381Y-125023810D01*
X91595238Y-125119048D01*
X91690476Y-125214286D01*
X91738095Y-125309524D01*
X92452381Y-136642857D02*
X91976190Y-136976191D01*
X92452381Y-137214286D02*
X91452381Y-137214286D01*
X91452381Y-136833333D01*
X91500000Y-136738095D01*
X91547619Y-136690476D01*
X91642857Y-136642857D01*
X91785714Y-136642857D01*
X91880952Y-136690476D01*
X91928571Y-136738095D01*
X91976190Y-136833333D01*
X91976190Y-137214286D01*
X92452381Y-135690476D02*
X92452381Y-136261905D01*
X92452381Y-135976191D02*
X91452381Y-135976191D01*
X91595238Y-136071429D01*
X91690476Y-136166667D01*
X91738095Y-136261905D01*
X91547619Y-135309524D02*
X91500000Y-135261905D01*
X91452381Y-135166667D01*
X91452381Y-134928571D01*
X91500000Y-134833333D01*
X91547619Y-134785714D01*
X91642857Y-134738095D01*
X91738095Y-134738095D01*
X91880952Y-134785714D01*
X92452381Y-135357143D01*
X92452381Y-134738095D01*
X92452381Y-146642857D02*
X91976190Y-146976191D01*
X92452381Y-147214286D02*
X91452381Y-147214286D01*
X91452381Y-146833333D01*
X91500000Y-146738095D01*
X91547619Y-146690476D01*
X91642857Y-146642857D01*
X91785714Y-146642857D01*
X91880952Y-146690476D01*
X91928571Y-146738095D01*
X91976190Y-146833333D01*
X91976190Y-147214286D01*
X92452381Y-145690476D02*
X92452381Y-146261905D01*
X92452381Y-145976191D02*
X91452381Y-145976191D01*
X91595238Y-146071429D01*
X91690476Y-146166667D01*
X91738095Y-146261905D01*
X91452381Y-145357143D02*
X91452381Y-144738095D01*
X91833333Y-145071429D01*
X91833333Y-144928571D01*
X91880952Y-144833333D01*
X91928571Y-144785714D01*
X92023810Y-144738095D01*
X92261905Y-144738095D01*
X92357143Y-144785714D01*
X92404762Y-144833333D01*
X92452381Y-144928571D01*
X92452381Y-145214286D01*
X92404762Y-145309524D01*
X92357143Y-145357143D01*
X116667143Y-143142381D02*
X116333809Y-142666190D01*
X116095714Y-143142381D02*
X116095714Y-142142381D01*
X116476667Y-142142381D01*
X116571905Y-142190000D01*
X116619524Y-142237619D01*
X116667143Y-142332857D01*
X116667143Y-142475714D01*
X116619524Y-142570952D01*
X116571905Y-142618571D01*
X116476667Y-142666190D01*
X116095714Y-142666190D01*
X117619524Y-143142381D02*
X117048095Y-143142381D01*
X117333809Y-143142381D02*
X117333809Y-142142381D01*
X117238571Y-142285238D01*
X117143333Y-142380476D01*
X117048095Y-142428095D01*
X118476667Y-142475714D02*
X118476667Y-143142381D01*
X118238571Y-142094762D02*
X118000476Y-142809048D01*
X118619524Y-142809048D01*
X116547143Y-140262381D02*
X116213809Y-139786190D01*
X115975714Y-140262381D02*
X115975714Y-139262381D01*
X116356667Y-139262381D01*
X116451905Y-139310000D01*
X116499524Y-139357619D01*
X116547143Y-139452857D01*
X116547143Y-139595714D01*
X116499524Y-139690952D01*
X116451905Y-139738571D01*
X116356667Y-139786190D01*
X115975714Y-139786190D01*
X117499524Y-140262381D02*
X116928095Y-140262381D01*
X117213809Y-140262381D02*
X117213809Y-139262381D01*
X117118571Y-139405238D01*
X117023333Y-139500476D01*
X116928095Y-139548095D01*
X118404286Y-139262381D02*
X117928095Y-139262381D01*
X117880476Y-139738571D01*
X117928095Y-139690952D01*
X118023333Y-139643333D01*
X118261429Y-139643333D01*
X118356667Y-139690952D01*
X118404286Y-139738571D01*
X118451905Y-139833810D01*
X118451905Y-140071905D01*
X118404286Y-140167143D01*
X118356667Y-140214762D01*
X118261429Y-140262381D01*
X118023333Y-140262381D01*
X117928095Y-140214762D01*
X117880476Y-140167143D01*
X118547143Y-136762381D02*
X118213809Y-136286190D01*
X117975714Y-136762381D02*
X117975714Y-135762381D01*
X118356667Y-135762381D01*
X118451905Y-135810000D01*
X118499524Y-135857619D01*
X118547143Y-135952857D01*
X118547143Y-136095714D01*
X118499524Y-136190952D01*
X118451905Y-136238571D01*
X118356667Y-136286190D01*
X117975714Y-136286190D01*
X119499524Y-136762381D02*
X118928095Y-136762381D01*
X119213809Y-136762381D02*
X119213809Y-135762381D01*
X119118571Y-135905238D01*
X119023333Y-136000476D01*
X118928095Y-136048095D01*
X120356667Y-135762381D02*
X120166190Y-135762381D01*
X120070952Y-135810000D01*
X120023333Y-135857619D01*
X119928095Y-136000476D01*
X119880476Y-136190952D01*
X119880476Y-136571905D01*
X119928095Y-136667143D01*
X119975714Y-136714762D01*
X120070952Y-136762381D01*
X120261429Y-136762381D01*
X120356667Y-136714762D01*
X120404286Y-136667143D01*
X120451905Y-136571905D01*
X120451905Y-136333810D01*
X120404286Y-136238571D01*
X120356667Y-136190952D01*
X120261429Y-136143333D01*
X120070952Y-136143333D01*
X119975714Y-136190952D01*
X119928095Y-136238571D01*
X119880476Y-136333810D01*
X116547143Y-144262381D02*
X116213809Y-143786190D01*
X115975714Y-144262381D02*
X115975714Y-143262381D01*
X116356667Y-143262381D01*
X116451905Y-143310000D01*
X116499524Y-143357619D01*
X116547143Y-143452857D01*
X116547143Y-143595714D01*
X116499524Y-143690952D01*
X116451905Y-143738571D01*
X116356667Y-143786190D01*
X115975714Y-143786190D01*
X117499524Y-144262381D02*
X116928095Y-144262381D01*
X117213809Y-144262381D02*
X117213809Y-143262381D01*
X117118571Y-143405238D01*
X117023333Y-143500476D01*
X116928095Y-143548095D01*
X117832857Y-143262381D02*
X118499524Y-143262381D01*
X118070952Y-144262381D01*
X115547143Y-151262381D02*
X115213809Y-150786190D01*
X114975714Y-151262381D02*
X114975714Y-150262381D01*
X115356667Y-150262381D01*
X115451905Y-150310000D01*
X115499524Y-150357619D01*
X115547143Y-150452857D01*
X115547143Y-150595714D01*
X115499524Y-150690952D01*
X115451905Y-150738571D01*
X115356667Y-150786190D01*
X114975714Y-150786190D01*
X116499524Y-151262381D02*
X115928095Y-151262381D01*
X116213809Y-151262381D02*
X116213809Y-150262381D01*
X116118571Y-150405238D01*
X116023333Y-150500476D01*
X115928095Y-150548095D01*
X117070952Y-150690952D02*
X116975714Y-150643333D01*
X116928095Y-150595714D01*
X116880476Y-150500476D01*
X116880476Y-150452857D01*
X116928095Y-150357619D01*
X116975714Y-150310000D01*
X117070952Y-150262381D01*
X117261429Y-150262381D01*
X117356667Y-150310000D01*
X117404286Y-150357619D01*
X117451905Y-150452857D01*
X117451905Y-150500476D01*
X117404286Y-150595714D01*
X117356667Y-150643333D01*
X117261429Y-150690952D01*
X117070952Y-150690952D01*
X116975714Y-150738571D01*
X116928095Y-150786190D01*
X116880476Y-150881429D01*
X116880476Y-151071905D01*
X116928095Y-151167143D01*
X116975714Y-151214762D01*
X117070952Y-151262381D01*
X117261429Y-151262381D01*
X117356667Y-151214762D01*
X117404286Y-151167143D01*
X117451905Y-151071905D01*
X117451905Y-150881429D01*
X117404286Y-150786190D01*
X117356667Y-150738571D01*
X117261429Y-150690952D01*
X95968095Y-128012381D02*
X95968095Y-128821905D01*
X96015714Y-128917143D01*
X96063333Y-128964762D01*
X96158571Y-129012381D01*
X96349048Y-129012381D01*
X96444286Y-128964762D01*
X96491905Y-128917143D01*
X96539524Y-128821905D01*
X96539524Y-128012381D01*
X97539524Y-129012381D02*
X96968095Y-129012381D01*
X97253809Y-129012381D02*
X97253809Y-128012381D01*
X97158571Y-128155238D01*
X97063333Y-128250476D01*
X96968095Y-128298095D01*
X81048095Y-123622381D02*
X81048095Y-124431905D01*
X81095714Y-124527143D01*
X81143333Y-124574762D01*
X81238571Y-124622381D01*
X81429048Y-124622381D01*
X81524286Y-124574762D01*
X81571905Y-124527143D01*
X81619524Y-124431905D01*
X81619524Y-123622381D01*
X82048095Y-123717619D02*
X82095714Y-123670000D01*
X82190952Y-123622381D01*
X82429048Y-123622381D01*
X82524286Y-123670000D01*
X82571905Y-123717619D01*
X82619524Y-123812857D01*
X82619524Y-123908095D01*
X82571905Y-124050952D01*
X82000476Y-124622381D01*
X82619524Y-124622381D01*
X98392381Y-125491905D02*
X99201905Y-125491905D01*
X99297143Y-125444286D01*
X99344762Y-125396667D01*
X99392381Y-125301429D01*
X99392381Y-125110952D01*
X99344762Y-125015714D01*
X99297143Y-124968095D01*
X99201905Y-124920476D01*
X98392381Y-124920476D01*
X98392381Y-124539524D02*
X98392381Y-123920476D01*
X98773333Y-124253810D01*
X98773333Y-124110952D01*
X98820952Y-124015714D01*
X98868571Y-123968095D01*
X98963810Y-123920476D01*
X99201905Y-123920476D01*
X99297143Y-123968095D01*
X99344762Y-124015714D01*
X99392381Y-124110952D01*
X99392381Y-124396667D01*
X99344762Y-124491905D01*
X99297143Y-124539524D01*
X99048095Y-134122381D02*
X99048095Y-134931905D01*
X99095714Y-135027143D01*
X99143333Y-135074762D01*
X99238571Y-135122381D01*
X99429048Y-135122381D01*
X99524286Y-135074762D01*
X99571905Y-135027143D01*
X99619524Y-134931905D01*
X99619524Y-134122381D01*
X100524286Y-134455714D02*
X100524286Y-135122381D01*
X100286190Y-134074762D02*
X100048095Y-134789048D01*
X100667143Y-134789048D01*
M02*
