G04 #@! TF.FileFunction,Copper,L2,Bot,Signal*
%FSLAX46Y46*%
G04 Gerber Fmt 4.6, Leading zero omitted, Abs format (unit mm)*
G04 Created by KiCad (PCBNEW 4.0.5) date 03/21/18 17:23:09*
%MOMM*%
%LPD*%
G01*
G04 APERTURE LIST*
%ADD10C,0.100000*%
%ADD11C,1.600000*%
%ADD12R,1.600000X1.600000*%
%ADD13O,1.600000X1.600000*%
%ADD14R,2.200000X2.200000*%
%ADD15O,2.200000X2.200000*%
%ADD16C,4.000500*%
%ADD17C,2.499360*%
%ADD18R,1.700000X1.700000*%
%ADD19O,1.700000X1.700000*%
%ADD20C,2.999740*%
%ADD21R,1.800000X1.800000*%
%ADD22O,1.800000X1.800000*%
%ADD23C,1.000000*%
%ADD24R,1.000000X1.000000*%
%ADD25C,3.000000*%
%ADD26C,0.250000*%
%ADD27C,0.254000*%
G04 APERTURE END LIST*
D10*
D11*
X98000000Y-129300000D03*
X100500000Y-129300000D03*
X75000000Y-126000000D03*
X75000000Y-128500000D03*
D12*
X92600000Y-132600000D03*
D11*
X95100000Y-132600000D03*
X71500000Y-146000000D03*
X71500000Y-148500000D03*
D12*
X121000000Y-124500000D03*
D11*
X118500000Y-124500000D03*
X68000000Y-127500000D03*
X68000000Y-125000000D03*
D12*
X108000000Y-126000000D03*
D11*
X108000000Y-123500000D03*
X100500000Y-133000000D03*
X98000000Y-133000000D03*
X88000000Y-128500000D03*
X88000000Y-126000000D03*
D12*
X78000000Y-145000000D03*
D13*
X85620000Y-145000000D03*
D14*
X135400000Y-125400000D03*
D15*
X135400000Y-133020000D03*
D14*
X135300000Y-140900000D03*
D15*
X135300000Y-148520000D03*
D16*
X125000000Y-124500000D03*
X114840000Y-124500000D03*
D17*
X63000000Y-132500000D03*
X63000000Y-142660000D03*
D18*
X104100000Y-132600000D03*
D19*
X104100000Y-130060000D03*
X106640000Y-132600000D03*
X106640000Y-130060000D03*
X109180000Y-132600000D03*
X109180000Y-130060000D03*
D18*
X106600000Y-137000000D03*
D19*
X109140000Y-137000000D03*
X106600000Y-139540000D03*
X109140000Y-139540000D03*
X106600000Y-142080000D03*
X109140000Y-142080000D03*
X106600000Y-144620000D03*
X109140000Y-144620000D03*
D17*
X102000000Y-149000000D03*
X107000000Y-149000000D03*
D20*
X138400000Y-123000000D03*
X138200000Y-135100000D03*
X138300000Y-139100000D03*
X138300000Y-149260000D03*
D21*
X123800000Y-131100000D03*
D22*
X123800000Y-133640000D03*
X123800000Y-136180000D03*
D21*
X123900000Y-142100000D03*
D22*
X123900000Y-144640000D03*
X123900000Y-147180000D03*
D11*
X71500000Y-143500000D03*
D13*
X71500000Y-135880000D03*
D11*
X71500000Y-133500000D03*
D13*
X71500000Y-125880000D03*
D11*
X81500000Y-123000000D03*
D13*
X73880000Y-123000000D03*
D11*
X75000000Y-138500000D03*
D13*
X75000000Y-130880000D03*
D11*
X68000000Y-137500000D03*
D13*
X68000000Y-129880000D03*
D11*
X68000000Y-147500000D03*
D13*
X68000000Y-139880000D03*
D11*
X88500000Y-131900000D03*
D13*
X88500000Y-139520000D03*
D11*
X75000000Y-148500000D03*
D13*
X75000000Y-140880000D03*
D11*
X88500000Y-149500000D03*
D13*
X88500000Y-141880000D03*
D11*
X78000000Y-148000000D03*
D13*
X85620000Y-148000000D03*
D11*
X92000000Y-138400000D03*
D13*
X92000000Y-146020000D03*
D11*
X98900000Y-149000000D03*
D13*
X91280000Y-149000000D03*
D11*
X112500000Y-145300000D03*
D13*
X120120000Y-145300000D03*
D11*
X120100000Y-138300000D03*
D13*
X112480000Y-138300000D03*
D11*
X120000000Y-134300000D03*
D13*
X112380000Y-134300000D03*
D11*
X120100000Y-141800000D03*
D13*
X112480000Y-141800000D03*
D11*
X120100000Y-148900000D03*
D13*
X112480000Y-148900000D03*
D23*
X93830000Y-128070000D03*
X92560000Y-126800000D03*
D24*
X95100000Y-126800000D03*
D12*
X78000000Y-126500000D03*
D13*
X85620000Y-141740000D03*
X78000000Y-129040000D03*
X85620000Y-139200000D03*
X78000000Y-131580000D03*
X85620000Y-136660000D03*
X78000000Y-134120000D03*
X85620000Y-134120000D03*
X78000000Y-136660000D03*
X85620000Y-131580000D03*
X78000000Y-139200000D03*
X85620000Y-129040000D03*
X78000000Y-141740000D03*
X85620000Y-126500000D03*
D23*
X101230000Y-124730000D03*
X102500000Y-123460000D03*
D24*
X102500000Y-126000000D03*
D12*
X96000000Y-137000000D03*
D13*
X103620000Y-144620000D03*
X96000000Y-139540000D03*
X103620000Y-142080000D03*
X96000000Y-142080000D03*
X103620000Y-139540000D03*
X96000000Y-144620000D03*
X103620000Y-137000000D03*
D25*
X130400000Y-147700000D03*
X130400000Y-124800000D03*
D26*
X71500000Y-143500000D02*
X71500000Y-146000000D01*
X104791600Y-134466900D02*
X104100000Y-133775300D01*
X104791600Y-140064400D02*
X104791600Y-134466900D01*
X103901300Y-140954700D02*
X104791600Y-140064400D01*
X103620000Y-140954700D02*
X103901300Y-140954700D01*
X103620000Y-142080000D02*
X103620000Y-140954700D01*
X104100000Y-132600000D02*
X104100000Y-133775300D01*
X87000000Y-148000000D02*
X88500000Y-149500000D01*
X85620000Y-148000000D02*
X87000000Y-148000000D01*
D27*
G36*
X72837189Y-121985302D02*
X72526120Y-122450849D01*
X72416887Y-123000000D01*
X72526120Y-123549151D01*
X72837189Y-124014698D01*
X73302736Y-124325767D01*
X73851887Y-124435000D01*
X73908113Y-124435000D01*
X74457264Y-124325767D01*
X74922811Y-124014698D01*
X75233880Y-123549151D01*
X75343113Y-123000000D01*
X75233880Y-122450849D01*
X74922811Y-121985302D01*
X74510793Y-121710000D01*
X80864286Y-121710000D01*
X80688200Y-121782757D01*
X80284176Y-122186077D01*
X80065250Y-122713309D01*
X80064752Y-123284187D01*
X80282757Y-123811800D01*
X80686077Y-124215824D01*
X81213309Y-124434750D01*
X81784187Y-124435248D01*
X82311800Y-124217243D01*
X82589631Y-123939896D01*
X100619501Y-123939896D01*
X101230000Y-124550395D01*
X101244143Y-124536253D01*
X101423748Y-124715858D01*
X101409605Y-124730000D01*
X101423748Y-124744143D01*
X101244143Y-124923748D01*
X101230000Y-124909605D01*
X100619501Y-125520104D01*
X100656648Y-125735217D01*
X101084972Y-125878112D01*
X101352560Y-125859163D01*
X101352560Y-126500000D01*
X101396838Y-126735317D01*
X101535910Y-126951441D01*
X101748110Y-127096431D01*
X102000000Y-127147440D01*
X103000000Y-127147440D01*
X103235317Y-127103162D01*
X103451441Y-126964090D01*
X103596431Y-126751890D01*
X103647440Y-126500000D01*
X103647440Y-125500000D01*
X103603162Y-125264683D01*
X103561540Y-125200000D01*
X106552560Y-125200000D01*
X106552560Y-126800000D01*
X106596838Y-127035317D01*
X106735910Y-127251441D01*
X106948110Y-127396431D01*
X107200000Y-127447440D01*
X108800000Y-127447440D01*
X109035317Y-127403162D01*
X109251441Y-127264090D01*
X109396431Y-127051890D01*
X109447440Y-126800000D01*
X109447440Y-126375202D01*
X113144403Y-126375202D01*
X113365203Y-126745949D01*
X114336953Y-127139367D01*
X115385287Y-127130965D01*
X116314797Y-126745949D01*
X116535597Y-126375202D01*
X114840000Y-124679605D01*
X113144403Y-126375202D01*
X109447440Y-126375202D01*
X109447440Y-125200000D01*
X109403162Y-124964683D01*
X109264090Y-124748559D01*
X109051890Y-124603569D01*
X108813799Y-124555354D01*
X108828139Y-124507745D01*
X108000000Y-123679605D01*
X107171861Y-124507745D01*
X107186145Y-124555167D01*
X106964683Y-124596838D01*
X106748559Y-124735910D01*
X106603569Y-124948110D01*
X106552560Y-125200000D01*
X103561540Y-125200000D01*
X103464090Y-125048559D01*
X103251890Y-124903569D01*
X103000000Y-124852560D01*
X102376521Y-124852560D01*
X102358273Y-124594877D01*
X102724775Y-124595197D01*
X103142086Y-124422767D01*
X103461645Y-124103765D01*
X103634803Y-123686756D01*
X103635155Y-123283223D01*
X106553035Y-123283223D01*
X106580222Y-123853454D01*
X106746136Y-124254005D01*
X106992255Y-124328139D01*
X107820395Y-123500000D01*
X108179605Y-123500000D01*
X109007745Y-124328139D01*
X109253864Y-124254005D01*
X109346258Y-123996953D01*
X112200633Y-123996953D01*
X112209035Y-125045287D01*
X112594051Y-125974797D01*
X112964798Y-126195597D01*
X114660395Y-124500000D01*
X115019605Y-124500000D01*
X116715202Y-126195597D01*
X117085949Y-125974797D01*
X117275037Y-125507745D01*
X117671861Y-125507745D01*
X117745995Y-125753864D01*
X118283223Y-125946965D01*
X118853454Y-125919778D01*
X119254005Y-125753864D01*
X119328139Y-125507745D01*
X118500000Y-124679605D01*
X117671861Y-125507745D01*
X117275037Y-125507745D01*
X117363458Y-125289344D01*
X117492255Y-125328139D01*
X118320395Y-124500000D01*
X118679605Y-124500000D01*
X119507745Y-125328139D01*
X119555167Y-125313855D01*
X119596838Y-125535317D01*
X119735910Y-125751441D01*
X119948110Y-125896431D01*
X120200000Y-125947440D01*
X121800000Y-125947440D01*
X122035317Y-125903162D01*
X122251441Y-125764090D01*
X122396431Y-125551890D01*
X122447440Y-125300000D01*
X122447440Y-125223115D01*
X122764641Y-125990799D01*
X123505302Y-126732754D01*
X124473517Y-127134792D01*
X125521884Y-127135707D01*
X126490799Y-126735359D01*
X127232754Y-125994698D01*
X127553267Y-125222815D01*
X128264630Y-125222815D01*
X128588980Y-126007800D01*
X129189041Y-126608909D01*
X129973459Y-126934628D01*
X130822815Y-126935370D01*
X131607800Y-126611020D01*
X132208909Y-126010959D01*
X132534628Y-125226541D01*
X132535370Y-124377185D01*
X132211020Y-123592200D01*
X131610959Y-122991091D01*
X130826541Y-122665372D01*
X129977185Y-122664630D01*
X129192200Y-122988980D01*
X128591091Y-123589041D01*
X128265372Y-124373459D01*
X128264630Y-125222815D01*
X127553267Y-125222815D01*
X127634792Y-125026483D01*
X127635707Y-123978116D01*
X127235359Y-123009201D01*
X126494698Y-122267246D01*
X125526483Y-121865208D01*
X124478116Y-121864293D01*
X123509201Y-122264641D01*
X122767246Y-123005302D01*
X122447440Y-123775480D01*
X122447440Y-123700000D01*
X122403162Y-123464683D01*
X122264090Y-123248559D01*
X122051890Y-123103569D01*
X121800000Y-123052560D01*
X120200000Y-123052560D01*
X119964683Y-123096838D01*
X119748559Y-123235910D01*
X119603569Y-123448110D01*
X119555354Y-123686201D01*
X119507745Y-123671861D01*
X118679605Y-124500000D01*
X118320395Y-124500000D01*
X117492255Y-123671861D01*
X117369162Y-123708938D01*
X117279409Y-123492255D01*
X117671861Y-123492255D01*
X118500000Y-124320395D01*
X119328139Y-123492255D01*
X119254005Y-123246136D01*
X118716777Y-123053035D01*
X118146546Y-123080222D01*
X117745995Y-123246136D01*
X117671861Y-123492255D01*
X117279409Y-123492255D01*
X117085949Y-123025203D01*
X116715202Y-122804403D01*
X115019605Y-124500000D01*
X114660395Y-124500000D01*
X112964798Y-122804403D01*
X112594051Y-123025203D01*
X112200633Y-123996953D01*
X109346258Y-123996953D01*
X109446965Y-123716777D01*
X109419778Y-123146546D01*
X109253864Y-122745995D01*
X109007745Y-122671861D01*
X108179605Y-123500000D01*
X107820395Y-123500000D01*
X106992255Y-122671861D01*
X106746136Y-122745995D01*
X106553035Y-123283223D01*
X103635155Y-123283223D01*
X103635197Y-123235225D01*
X103462767Y-122817914D01*
X103143765Y-122498355D01*
X103129075Y-122492255D01*
X107171861Y-122492255D01*
X108000000Y-123320395D01*
X108695596Y-122624798D01*
X113144403Y-122624798D01*
X114840000Y-124320395D01*
X116535597Y-122624798D01*
X116314797Y-122254051D01*
X115343047Y-121860633D01*
X114294713Y-121869035D01*
X113365203Y-122254051D01*
X113144403Y-122624798D01*
X108695596Y-122624798D01*
X108828139Y-122492255D01*
X108754005Y-122246136D01*
X108216777Y-122053035D01*
X107646546Y-122080222D01*
X107245995Y-122246136D01*
X107171861Y-122492255D01*
X103129075Y-122492255D01*
X102726756Y-122325197D01*
X102275225Y-122324803D01*
X101857914Y-122497233D01*
X101538355Y-122816235D01*
X101365197Y-123233244D01*
X101364892Y-123582606D01*
X100924625Y-123613783D01*
X100656648Y-123724783D01*
X100619501Y-123939896D01*
X82589631Y-123939896D01*
X82715824Y-123813923D01*
X82934750Y-123286691D01*
X82935248Y-122715813D01*
X82717243Y-122188200D01*
X82313923Y-121784176D01*
X82135287Y-121710000D01*
X136670452Y-121710000D01*
X136591200Y-121789114D01*
X136265501Y-122573485D01*
X136264760Y-123422789D01*
X136359700Y-123652560D01*
X134300000Y-123652560D01*
X134064683Y-123696838D01*
X133848559Y-123835910D01*
X133703569Y-124048110D01*
X133652560Y-124300000D01*
X133652560Y-126500000D01*
X133696838Y-126735317D01*
X133835910Y-126951441D01*
X134048110Y-127096431D01*
X134300000Y-127147440D01*
X136500000Y-127147440D01*
X136735317Y-127103162D01*
X136951441Y-126964090D01*
X137096431Y-126751890D01*
X137147440Y-126500000D01*
X137147440Y-124767053D01*
X137189114Y-124808800D01*
X137973485Y-125134499D01*
X138822789Y-125135240D01*
X139607727Y-124810910D01*
X140208800Y-124210886D01*
X140534499Y-123426515D01*
X140535240Y-122577211D01*
X140210910Y-121792273D01*
X140128781Y-121710000D01*
X140773000Y-121710000D01*
X140773000Y-150290000D01*
X140183910Y-150290000D01*
X140434499Y-149686515D01*
X140435240Y-148837211D01*
X140110910Y-148052273D01*
X139510886Y-147451200D01*
X138726515Y-147125501D01*
X137877211Y-147124760D01*
X137092273Y-147449090D01*
X136829199Y-147711705D01*
X136526830Y-147259179D01*
X135963956Y-146883078D01*
X135300000Y-146751009D01*
X134636044Y-146883078D01*
X134073170Y-147259179D01*
X133697069Y-147822053D01*
X133565000Y-148486009D01*
X133565000Y-148553991D01*
X133697069Y-149217947D01*
X134073170Y-149780821D01*
X134636044Y-150156922D01*
X135300000Y-150288991D01*
X135963956Y-150156922D01*
X136274838Y-149949197D01*
X136415655Y-150290000D01*
X120493696Y-150290000D01*
X120911800Y-150117243D01*
X121315824Y-149713923D01*
X121534750Y-149186691D01*
X121535248Y-148615813D01*
X121317243Y-148088200D01*
X120913923Y-147684176D01*
X120578129Y-147544742D01*
X122408954Y-147544742D01*
X122662034Y-148087576D01*
X123103583Y-148492240D01*
X123535260Y-148671036D01*
X123773000Y-148550378D01*
X123773000Y-147307000D01*
X124027000Y-147307000D01*
X124027000Y-148550378D01*
X124264740Y-148671036D01*
X124696417Y-148492240D01*
X125099514Y-148122815D01*
X128264630Y-148122815D01*
X128588980Y-148907800D01*
X129189041Y-149508909D01*
X129973459Y-149834628D01*
X130822815Y-149835370D01*
X131607800Y-149511020D01*
X132208909Y-148910959D01*
X132534628Y-148126541D01*
X132535370Y-147277185D01*
X132211020Y-146492200D01*
X131610959Y-145891091D01*
X130826541Y-145565372D01*
X129977185Y-145564630D01*
X129192200Y-145888980D01*
X128591091Y-146489041D01*
X128265372Y-147273459D01*
X128264630Y-148122815D01*
X125099514Y-148122815D01*
X125137966Y-148087576D01*
X125391046Y-147544742D01*
X125270997Y-147307000D01*
X124027000Y-147307000D01*
X123773000Y-147307000D01*
X122529003Y-147307000D01*
X122408954Y-147544742D01*
X120578129Y-147544742D01*
X120386691Y-147465250D01*
X119815813Y-147464752D01*
X119288200Y-147682757D01*
X118884176Y-148086077D01*
X118665250Y-148613309D01*
X118664752Y-149184187D01*
X118882757Y-149711800D01*
X119286077Y-150115824D01*
X119705539Y-150290000D01*
X112833085Y-150290000D01*
X113335134Y-150052389D01*
X113711041Y-149637423D01*
X113871904Y-149249039D01*
X113749915Y-149027000D01*
X112607000Y-149027000D01*
X112607000Y-149047000D01*
X112353000Y-149047000D01*
X112353000Y-149027000D01*
X111210085Y-149027000D01*
X111088096Y-149249039D01*
X111248959Y-149637423D01*
X111624866Y-150052389D01*
X112126915Y-150290000D01*
X108375415Y-150290000D01*
X108596822Y-150068979D01*
X108884352Y-149376531D01*
X108885006Y-148626759D01*
X108853688Y-148550961D01*
X111088096Y-148550961D01*
X111210085Y-148773000D01*
X112353000Y-148773000D01*
X112353000Y-147629371D01*
X112607000Y-147629371D01*
X112607000Y-148773000D01*
X113749915Y-148773000D01*
X113871904Y-148550961D01*
X113711041Y-148162577D01*
X113335134Y-147747611D01*
X112829041Y-147508086D01*
X112607000Y-147629371D01*
X112353000Y-147629371D01*
X112130959Y-147508086D01*
X111624866Y-147747611D01*
X111248959Y-148162577D01*
X111088096Y-148550961D01*
X108853688Y-148550961D01*
X108598686Y-147933809D01*
X108068979Y-147403178D01*
X107376531Y-147115648D01*
X106626759Y-147114994D01*
X105933809Y-147401314D01*
X105403178Y-147931021D01*
X105115648Y-148623469D01*
X105114994Y-149373241D01*
X105401314Y-150066191D01*
X105624733Y-150290000D01*
X103375415Y-150290000D01*
X103596822Y-150068979D01*
X103884352Y-149376531D01*
X103885006Y-148626759D01*
X103598686Y-147933809D01*
X103068979Y-147403178D01*
X102376531Y-147115648D01*
X101626759Y-147114994D01*
X100933809Y-147401314D01*
X100403178Y-147931021D01*
X100206594Y-148404447D01*
X100117243Y-148188200D01*
X99713923Y-147784176D01*
X99186691Y-147565250D01*
X98615813Y-147564752D01*
X98088200Y-147782757D01*
X97684176Y-148186077D01*
X97465250Y-148713309D01*
X97464752Y-149284187D01*
X97682757Y-149811800D01*
X98086077Y-150215824D01*
X98264713Y-150290000D01*
X91844375Y-150290000D01*
X92135134Y-150152389D01*
X92511041Y-149737423D01*
X92671904Y-149349039D01*
X92549915Y-149127000D01*
X91407000Y-149127000D01*
X91407000Y-149147000D01*
X91153000Y-149147000D01*
X91153000Y-149127000D01*
X91133000Y-149127000D01*
X91133000Y-148873000D01*
X91153000Y-148873000D01*
X91153000Y-147729371D01*
X91407000Y-147729371D01*
X91407000Y-148873000D01*
X92549915Y-148873000D01*
X92671904Y-148650961D01*
X92511041Y-148262577D01*
X92135134Y-147847611D01*
X91629041Y-147608086D01*
X91407000Y-147729371D01*
X91153000Y-147729371D01*
X90930959Y-147608086D01*
X90424866Y-147847611D01*
X90048959Y-148262577D01*
X89888096Y-148650961D01*
X90010084Y-148872998D01*
X89845000Y-148872998D01*
X89845000Y-148997396D01*
X89717243Y-148688200D01*
X89313923Y-148284176D01*
X88786691Y-148065250D01*
X88215813Y-148064752D01*
X87688200Y-148282757D01*
X87284176Y-148686077D01*
X87065250Y-149213309D01*
X87064752Y-149784187D01*
X87273749Y-150290000D01*
X61710000Y-150290000D01*
X61710000Y-149507745D01*
X70671861Y-149507745D01*
X70745995Y-149753864D01*
X71283223Y-149946965D01*
X71853454Y-149919778D01*
X72254005Y-149753864D01*
X72328139Y-149507745D01*
X71500000Y-148679605D01*
X70671861Y-149507745D01*
X61710000Y-149507745D01*
X61710000Y-147784187D01*
X66564752Y-147784187D01*
X66782757Y-148311800D01*
X67186077Y-148715824D01*
X67713309Y-148934750D01*
X68284187Y-148935248D01*
X68811800Y-148717243D01*
X69215824Y-148313923D01*
X69228571Y-148283223D01*
X70053035Y-148283223D01*
X70080222Y-148853454D01*
X70246136Y-149254005D01*
X70492255Y-149328139D01*
X71320395Y-148500000D01*
X71679605Y-148500000D01*
X72507745Y-149328139D01*
X72753864Y-149254005D01*
X72922735Y-148784187D01*
X73564752Y-148784187D01*
X73782757Y-149311800D01*
X74186077Y-149715824D01*
X74713309Y-149934750D01*
X75284187Y-149935248D01*
X75811800Y-149717243D01*
X76215824Y-149313923D01*
X76434750Y-148786691D01*
X76435188Y-148284187D01*
X76564752Y-148284187D01*
X76782757Y-148811800D01*
X77186077Y-149215824D01*
X77713309Y-149434750D01*
X78284187Y-149435248D01*
X78811800Y-149217243D01*
X79215824Y-148813923D01*
X79434750Y-148286691D01*
X79435000Y-148000000D01*
X84156887Y-148000000D01*
X84266120Y-148549151D01*
X84577189Y-149014698D01*
X85042736Y-149325767D01*
X85591887Y-149435000D01*
X85648113Y-149435000D01*
X86197264Y-149325767D01*
X86662811Y-149014698D01*
X86973880Y-148549151D01*
X87083113Y-148000000D01*
X86973880Y-147450849D01*
X86662811Y-146985302D01*
X86197264Y-146674233D01*
X85648113Y-146565000D01*
X85591887Y-146565000D01*
X85042736Y-146674233D01*
X84577189Y-146985302D01*
X84266120Y-147450849D01*
X84156887Y-148000000D01*
X79435000Y-148000000D01*
X79435248Y-147715813D01*
X79217243Y-147188200D01*
X78813923Y-146784176D01*
X78286691Y-146565250D01*
X77715813Y-146564752D01*
X77188200Y-146782757D01*
X76784176Y-147186077D01*
X76565250Y-147713309D01*
X76564752Y-148284187D01*
X76435188Y-148284187D01*
X76435248Y-148215813D01*
X76217243Y-147688200D01*
X75813923Y-147284176D01*
X75286691Y-147065250D01*
X74715813Y-147064752D01*
X74188200Y-147282757D01*
X73784176Y-147686077D01*
X73565250Y-148213309D01*
X73564752Y-148784187D01*
X72922735Y-148784187D01*
X72946965Y-148716777D01*
X72919778Y-148146546D01*
X72753864Y-147745995D01*
X72507745Y-147671861D01*
X71679605Y-148500000D01*
X71320395Y-148500000D01*
X70492255Y-147671861D01*
X70246136Y-147745995D01*
X70053035Y-148283223D01*
X69228571Y-148283223D01*
X69434750Y-147786691D01*
X69435248Y-147215813D01*
X69217243Y-146688200D01*
X68813923Y-146284176D01*
X68286691Y-146065250D01*
X67715813Y-146064752D01*
X67188200Y-146282757D01*
X66784176Y-146686077D01*
X66565250Y-147213309D01*
X66564752Y-147784187D01*
X61710000Y-147784187D01*
X61710000Y-144084038D01*
X61732785Y-144106823D01*
X61846518Y-143993090D01*
X61975725Y-144285859D01*
X62675883Y-144554071D01*
X63425384Y-144533928D01*
X64024275Y-144285859D01*
X64153483Y-143993089D01*
X63000000Y-142839605D01*
X62985858Y-142853748D01*
X62806252Y-142674142D01*
X62820395Y-142660000D01*
X63179605Y-142660000D01*
X64333089Y-143813483D01*
X64399470Y-143784187D01*
X70064752Y-143784187D01*
X70282757Y-144311800D01*
X70686077Y-144715824D01*
X70767931Y-144749813D01*
X70688200Y-144782757D01*
X70284176Y-145186077D01*
X70065250Y-145713309D01*
X70064752Y-146284187D01*
X70282757Y-146811800D01*
X70686077Y-147215824D01*
X70752544Y-147243423D01*
X70745995Y-147246136D01*
X70671861Y-147492255D01*
X71500000Y-148320395D01*
X72328139Y-147492255D01*
X72254005Y-147246136D01*
X72247517Y-147243804D01*
X72311800Y-147217243D01*
X72715824Y-146813923D01*
X72934750Y-146286691D01*
X72935248Y-145715813D01*
X72717243Y-145188200D01*
X72313923Y-144784176D01*
X72232069Y-144750187D01*
X72311800Y-144717243D01*
X72715824Y-144313923D01*
X72763128Y-144200000D01*
X76552560Y-144200000D01*
X76552560Y-145800000D01*
X76596838Y-146035317D01*
X76735910Y-146251441D01*
X76948110Y-146396431D01*
X77200000Y-146447440D01*
X78800000Y-146447440D01*
X79035317Y-146403162D01*
X79251441Y-146264090D01*
X79396431Y-146051890D01*
X79447440Y-145800000D01*
X79447440Y-145000000D01*
X84156887Y-145000000D01*
X84266120Y-145549151D01*
X84577189Y-146014698D01*
X85042736Y-146325767D01*
X85591887Y-146435000D01*
X85648113Y-146435000D01*
X86197264Y-146325767D01*
X86662811Y-146014698D01*
X86678052Y-145991887D01*
X90565000Y-145991887D01*
X90565000Y-146048113D01*
X90674233Y-146597264D01*
X90985302Y-147062811D01*
X91450849Y-147373880D01*
X92000000Y-147483113D01*
X92549151Y-147373880D01*
X93014698Y-147062811D01*
X93325767Y-146597264D01*
X93435000Y-146048113D01*
X93435000Y-145991887D01*
X93325767Y-145442736D01*
X93014698Y-144977189D01*
X93002501Y-144969039D01*
X94608096Y-144969039D01*
X94768959Y-145357423D01*
X95144866Y-145772389D01*
X95650959Y-146011914D01*
X95873000Y-145890629D01*
X95873000Y-144747000D01*
X96127000Y-144747000D01*
X96127000Y-145890629D01*
X96349041Y-146011914D01*
X96855134Y-145772389D01*
X97231041Y-145357423D01*
X97391904Y-144969039D01*
X97269915Y-144747000D01*
X96127000Y-144747000D01*
X95873000Y-144747000D01*
X94730085Y-144747000D01*
X94608096Y-144969039D01*
X93002501Y-144969039D01*
X92549151Y-144666120D01*
X92000000Y-144556887D01*
X91450849Y-144666120D01*
X90985302Y-144977189D01*
X90674233Y-145442736D01*
X90565000Y-145991887D01*
X86678052Y-145991887D01*
X86973880Y-145549151D01*
X87083113Y-145000000D01*
X86973880Y-144450849D01*
X86662811Y-143985302D01*
X86197264Y-143674233D01*
X85648113Y-143565000D01*
X85591887Y-143565000D01*
X85042736Y-143674233D01*
X84577189Y-143985302D01*
X84266120Y-144450849D01*
X84156887Y-145000000D01*
X79447440Y-145000000D01*
X79447440Y-144200000D01*
X79403162Y-143964683D01*
X79264090Y-143748559D01*
X79051890Y-143603569D01*
X78800000Y-143552560D01*
X77200000Y-143552560D01*
X76964683Y-143596838D01*
X76748559Y-143735910D01*
X76603569Y-143948110D01*
X76552560Y-144200000D01*
X72763128Y-144200000D01*
X72934750Y-143786691D01*
X72935248Y-143215813D01*
X72717243Y-142688200D01*
X72313923Y-142284176D01*
X71786691Y-142065250D01*
X71215813Y-142064752D01*
X70688200Y-142282757D01*
X70284176Y-142686077D01*
X70065250Y-143213309D01*
X70064752Y-143784187D01*
X64399470Y-143784187D01*
X64625859Y-143684275D01*
X64894071Y-142984117D01*
X64873928Y-142234616D01*
X64625859Y-141635725D01*
X64333089Y-141506517D01*
X63179605Y-142660000D01*
X62820395Y-142660000D01*
X62806252Y-142645858D01*
X62985858Y-142466252D01*
X63000000Y-142480395D01*
X64153483Y-141326911D01*
X64024275Y-141034141D01*
X63324117Y-140765929D01*
X62574616Y-140786072D01*
X61975725Y-141034141D01*
X61846518Y-141326910D01*
X61732785Y-141213177D01*
X61710000Y-141235962D01*
X61710000Y-137784187D01*
X66564752Y-137784187D01*
X66782757Y-138311800D01*
X67178419Y-138708152D01*
X66985302Y-138837189D01*
X66674233Y-139302736D01*
X66565000Y-139851887D01*
X66565000Y-139908113D01*
X66674233Y-140457264D01*
X66985302Y-140922811D01*
X67450849Y-141233880D01*
X68000000Y-141343113D01*
X68549151Y-141233880D01*
X69014698Y-140922811D01*
X69325767Y-140457264D01*
X69435000Y-139908113D01*
X69435000Y-139851887D01*
X69325767Y-139302736D01*
X69014698Y-138837189D01*
X68935376Y-138784187D01*
X73564752Y-138784187D01*
X73782757Y-139311800D01*
X74178419Y-139708152D01*
X73985302Y-139837189D01*
X73674233Y-140302736D01*
X73565000Y-140851887D01*
X73565000Y-140908113D01*
X73674233Y-141457264D01*
X73985302Y-141922811D01*
X74450849Y-142233880D01*
X75000000Y-142343113D01*
X75549151Y-142233880D01*
X76014698Y-141922811D01*
X76325767Y-141457264D01*
X76435000Y-140908113D01*
X76435000Y-140851887D01*
X76325767Y-140302736D01*
X76014698Y-139837189D01*
X75821177Y-139707882D01*
X76215824Y-139313923D01*
X76434750Y-138786691D01*
X76435248Y-138215813D01*
X76217243Y-137688200D01*
X75813923Y-137284176D01*
X75286691Y-137065250D01*
X74715813Y-137064752D01*
X74188200Y-137282757D01*
X73784176Y-137686077D01*
X73565250Y-138213309D01*
X73564752Y-138784187D01*
X68935376Y-138784187D01*
X68821177Y-138707882D01*
X69215824Y-138313923D01*
X69434750Y-137786691D01*
X69435248Y-137215813D01*
X69217243Y-136688200D01*
X68813923Y-136284176D01*
X68286691Y-136065250D01*
X67715813Y-136064752D01*
X67188200Y-136282757D01*
X66784176Y-136686077D01*
X66565250Y-137213309D01*
X66564752Y-137784187D01*
X61710000Y-137784187D01*
X61710000Y-133875415D01*
X61931021Y-134096822D01*
X62623469Y-134384352D01*
X63373241Y-134385006D01*
X64066191Y-134098686D01*
X64381238Y-133784187D01*
X70064752Y-133784187D01*
X70282757Y-134311800D01*
X70678419Y-134708152D01*
X70485302Y-134837189D01*
X70174233Y-135302736D01*
X70065000Y-135851887D01*
X70065000Y-135908113D01*
X70174233Y-136457264D01*
X70485302Y-136922811D01*
X70950849Y-137233880D01*
X71500000Y-137343113D01*
X72049151Y-137233880D01*
X72514698Y-136922811D01*
X72825767Y-136457264D01*
X72935000Y-135908113D01*
X72935000Y-135851887D01*
X72825767Y-135302736D01*
X72514698Y-134837189D01*
X72321177Y-134707882D01*
X72715824Y-134313923D01*
X72934750Y-133786691D01*
X72935248Y-133215813D01*
X72717243Y-132688200D01*
X72313923Y-132284176D01*
X71786691Y-132065250D01*
X71215813Y-132064752D01*
X70688200Y-132282757D01*
X70284176Y-132686077D01*
X70065250Y-133213309D01*
X70064752Y-133784187D01*
X64381238Y-133784187D01*
X64596822Y-133568979D01*
X64884352Y-132876531D01*
X64885006Y-132126759D01*
X64598686Y-131433809D01*
X64068979Y-130903178D01*
X63376531Y-130615648D01*
X62626759Y-130614994D01*
X61933809Y-130901314D01*
X61710000Y-131124733D01*
X61710000Y-127784187D01*
X66564752Y-127784187D01*
X66782757Y-128311800D01*
X67178419Y-128708152D01*
X66985302Y-128837189D01*
X66674233Y-129302736D01*
X66565000Y-129851887D01*
X66565000Y-129908113D01*
X66674233Y-130457264D01*
X66985302Y-130922811D01*
X67450849Y-131233880D01*
X68000000Y-131343113D01*
X68549151Y-131233880D01*
X69014698Y-130922811D01*
X69062087Y-130851887D01*
X73565000Y-130851887D01*
X73565000Y-130908113D01*
X73674233Y-131457264D01*
X73985302Y-131922811D01*
X74450849Y-132233880D01*
X75000000Y-132343113D01*
X75549151Y-132233880D01*
X76014698Y-131922811D01*
X76325767Y-131457264D01*
X76435000Y-130908113D01*
X76435000Y-130851887D01*
X76325767Y-130302736D01*
X76014698Y-129837189D01*
X75776789Y-129678223D01*
X75828139Y-129507745D01*
X75000000Y-128679605D01*
X74171861Y-129507745D01*
X74223211Y-129678223D01*
X73985302Y-129837189D01*
X73674233Y-130302736D01*
X73565000Y-130851887D01*
X69062087Y-130851887D01*
X69325767Y-130457264D01*
X69435000Y-129908113D01*
X69435000Y-129851887D01*
X69325767Y-129302736D01*
X69014698Y-128837189D01*
X68821177Y-128707882D01*
X69215824Y-128313923D01*
X69228571Y-128283223D01*
X73553035Y-128283223D01*
X73580222Y-128853454D01*
X73746136Y-129254005D01*
X73992255Y-129328139D01*
X74820395Y-128500000D01*
X75179605Y-128500000D01*
X76007745Y-129328139D01*
X76253864Y-129254005D01*
X76330785Y-129040000D01*
X76536887Y-129040000D01*
X76646120Y-129589151D01*
X76957189Y-130054698D01*
X77339275Y-130310000D01*
X76957189Y-130565302D01*
X76646120Y-131030849D01*
X76536887Y-131580000D01*
X76646120Y-132129151D01*
X76957189Y-132594698D01*
X77339275Y-132850000D01*
X76957189Y-133105302D01*
X76646120Y-133570849D01*
X76536887Y-134120000D01*
X76646120Y-134669151D01*
X76957189Y-135134698D01*
X77339275Y-135390000D01*
X76957189Y-135645302D01*
X76646120Y-136110849D01*
X76536887Y-136660000D01*
X76646120Y-137209151D01*
X76957189Y-137674698D01*
X77339275Y-137930000D01*
X76957189Y-138185302D01*
X76646120Y-138650849D01*
X76536887Y-139200000D01*
X76646120Y-139749151D01*
X76957189Y-140214698D01*
X77339275Y-140470000D01*
X76957189Y-140725302D01*
X76646120Y-141190849D01*
X76536887Y-141740000D01*
X76646120Y-142289151D01*
X76957189Y-142754698D01*
X77422736Y-143065767D01*
X77971887Y-143175000D01*
X78028113Y-143175000D01*
X78577264Y-143065767D01*
X79042811Y-142754698D01*
X79353880Y-142289151D01*
X79463113Y-141740000D01*
X79353880Y-141190849D01*
X79042811Y-140725302D01*
X78660725Y-140470000D01*
X79042811Y-140214698D01*
X79353880Y-139749151D01*
X79463113Y-139200000D01*
X79353880Y-138650849D01*
X79042811Y-138185302D01*
X78660725Y-137930000D01*
X79042811Y-137674698D01*
X79353880Y-137209151D01*
X79463113Y-136660000D01*
X84156887Y-136660000D01*
X84266120Y-137209151D01*
X84577189Y-137674698D01*
X84959275Y-137930000D01*
X84577189Y-138185302D01*
X84266120Y-138650849D01*
X84156887Y-139200000D01*
X84266120Y-139749151D01*
X84577189Y-140214698D01*
X84959275Y-140470000D01*
X84577189Y-140725302D01*
X84266120Y-141190849D01*
X84156887Y-141740000D01*
X84266120Y-142289151D01*
X84577189Y-142754698D01*
X85042736Y-143065767D01*
X85591887Y-143175000D01*
X85648113Y-143175000D01*
X86197264Y-143065767D01*
X86662811Y-142754698D01*
X86973880Y-142289151D01*
X86985836Y-142229041D01*
X87108086Y-142229041D01*
X87347611Y-142735134D01*
X87762577Y-143111041D01*
X88150961Y-143271904D01*
X88373000Y-143149915D01*
X88373000Y-142007000D01*
X88627000Y-142007000D01*
X88627000Y-143149915D01*
X88849039Y-143271904D01*
X89237423Y-143111041D01*
X89652389Y-142735134D01*
X89891914Y-142229041D01*
X89770629Y-142007000D01*
X88627000Y-142007000D01*
X88373000Y-142007000D01*
X87229371Y-142007000D01*
X87108086Y-142229041D01*
X86985836Y-142229041D01*
X87083113Y-141740000D01*
X86973880Y-141190849D01*
X86662811Y-140725302D01*
X86280725Y-140470000D01*
X86662811Y-140214698D01*
X86973880Y-139749151D01*
X87025053Y-139491887D01*
X87065000Y-139491887D01*
X87065000Y-139548113D01*
X87174233Y-140097264D01*
X87485302Y-140562811D01*
X87699605Y-140706004D01*
X87347611Y-141024866D01*
X87108086Y-141530959D01*
X87229371Y-141753000D01*
X88373000Y-141753000D01*
X88373000Y-141733000D01*
X88627000Y-141733000D01*
X88627000Y-141753000D01*
X89770629Y-141753000D01*
X89891914Y-141530959D01*
X89652389Y-141024866D01*
X89300395Y-140706004D01*
X89514698Y-140562811D01*
X89825767Y-140097264D01*
X89935000Y-139548113D01*
X89935000Y-139491887D01*
X89825767Y-138942736D01*
X89653010Y-138684187D01*
X90564752Y-138684187D01*
X90782757Y-139211800D01*
X91186077Y-139615824D01*
X91713309Y-139834750D01*
X92284187Y-139835248D01*
X92811800Y-139617243D01*
X92889177Y-139540000D01*
X94536887Y-139540000D01*
X94646120Y-140089151D01*
X94957189Y-140554698D01*
X95339275Y-140810000D01*
X94957189Y-141065302D01*
X94646120Y-141530849D01*
X94536887Y-142080000D01*
X94646120Y-142629151D01*
X94957189Y-143094698D01*
X95361703Y-143364986D01*
X95144866Y-143467611D01*
X94768959Y-143882577D01*
X94608096Y-144270961D01*
X94730085Y-144493000D01*
X95873000Y-144493000D01*
X95873000Y-144473000D01*
X96127000Y-144473000D01*
X96127000Y-144493000D01*
X97269915Y-144493000D01*
X97391904Y-144270961D01*
X97231041Y-143882577D01*
X96855134Y-143467611D01*
X96638297Y-143364986D01*
X97042811Y-143094698D01*
X97353880Y-142629151D01*
X97463113Y-142080000D01*
X97353880Y-141530849D01*
X97042811Y-141065302D01*
X96660725Y-140810000D01*
X97042811Y-140554698D01*
X97353880Y-140089151D01*
X97463113Y-139540000D01*
X97353880Y-138990849D01*
X97042811Y-138525302D01*
X96898535Y-138428899D01*
X97035317Y-138403162D01*
X97251441Y-138264090D01*
X97396431Y-138051890D01*
X97447440Y-137800000D01*
X97447440Y-137000000D01*
X102156887Y-137000000D01*
X102266120Y-137549151D01*
X102577189Y-138014698D01*
X102959275Y-138270000D01*
X102577189Y-138525302D01*
X102266120Y-138990849D01*
X102156887Y-139540000D01*
X102266120Y-140089151D01*
X102577189Y-140554698D01*
X102959275Y-140810000D01*
X102577189Y-141065302D01*
X102266120Y-141530849D01*
X102156887Y-142080000D01*
X102266120Y-142629151D01*
X102577189Y-143094698D01*
X102959275Y-143350000D01*
X102577189Y-143605302D01*
X102266120Y-144070849D01*
X102156887Y-144620000D01*
X102266120Y-145169151D01*
X102577189Y-145634698D01*
X103042736Y-145945767D01*
X103591887Y-146055000D01*
X103648113Y-146055000D01*
X104197264Y-145945767D01*
X104662811Y-145634698D01*
X104973880Y-145169151D01*
X105083113Y-144620000D01*
X104973880Y-144070849D01*
X104662811Y-143605302D01*
X104280725Y-143350000D01*
X104662811Y-143094698D01*
X104973880Y-142629151D01*
X105083113Y-142080000D01*
X104973880Y-141530849D01*
X104662811Y-141065302D01*
X104280725Y-140810000D01*
X104662811Y-140554698D01*
X104973880Y-140089151D01*
X105083113Y-139540000D01*
X105085907Y-139540000D01*
X105198946Y-140108285D01*
X105520853Y-140590054D01*
X105850026Y-140810000D01*
X105520853Y-141029946D01*
X105198946Y-141511715D01*
X105085907Y-142080000D01*
X105198946Y-142648285D01*
X105520853Y-143130054D01*
X105850026Y-143350000D01*
X105520853Y-143569946D01*
X105198946Y-144051715D01*
X105085907Y-144620000D01*
X105198946Y-145188285D01*
X105520853Y-145670054D01*
X106002622Y-145991961D01*
X106570907Y-146105000D01*
X106629093Y-146105000D01*
X107197378Y-145991961D01*
X107679147Y-145670054D01*
X107870000Y-145384422D01*
X108060853Y-145670054D01*
X108542622Y-145991961D01*
X109110907Y-146105000D01*
X109169093Y-146105000D01*
X109737378Y-145991961D01*
X110219147Y-145670054D01*
X110276521Y-145584187D01*
X111064752Y-145584187D01*
X111282757Y-146111800D01*
X111686077Y-146515824D01*
X112213309Y-146734750D01*
X112784187Y-146735248D01*
X113311800Y-146517243D01*
X113715824Y-146113923D01*
X113908860Y-145649039D01*
X118728096Y-145649039D01*
X118888959Y-146037423D01*
X119264866Y-146452389D01*
X119770959Y-146691914D01*
X119993000Y-146570629D01*
X119993000Y-145427000D01*
X120247000Y-145427000D01*
X120247000Y-146570629D01*
X120469041Y-146691914D01*
X120975134Y-146452389D01*
X121351041Y-146037423D01*
X121511904Y-145649039D01*
X121389915Y-145427000D01*
X120247000Y-145427000D01*
X119993000Y-145427000D01*
X118850085Y-145427000D01*
X118728096Y-145649039D01*
X113908860Y-145649039D01*
X113934750Y-145586691D01*
X113935248Y-145015813D01*
X113908452Y-144950961D01*
X118728096Y-144950961D01*
X118850085Y-145173000D01*
X119993000Y-145173000D01*
X119993000Y-144029371D01*
X120247000Y-144029371D01*
X120247000Y-145173000D01*
X121389915Y-145173000D01*
X121511904Y-144950961D01*
X121351041Y-144562577D01*
X120975134Y-144147611D01*
X120469041Y-143908086D01*
X120247000Y-144029371D01*
X119993000Y-144029371D01*
X119770959Y-143908086D01*
X119264866Y-144147611D01*
X118888959Y-144562577D01*
X118728096Y-144950961D01*
X113908452Y-144950961D01*
X113717243Y-144488200D01*
X113313923Y-144084176D01*
X112786691Y-143865250D01*
X112215813Y-143864752D01*
X111688200Y-144082757D01*
X111284176Y-144486077D01*
X111065250Y-145013309D01*
X111064752Y-145584187D01*
X110276521Y-145584187D01*
X110541054Y-145188285D01*
X110654093Y-144620000D01*
X110541054Y-144051715D01*
X110219147Y-143569946D01*
X109889974Y-143350000D01*
X110219147Y-143130054D01*
X110541054Y-142648285D01*
X110654093Y-142080000D01*
X110598398Y-141800000D01*
X111016887Y-141800000D01*
X111126120Y-142349151D01*
X111437189Y-142814698D01*
X111902736Y-143125767D01*
X112451887Y-143235000D01*
X112508113Y-143235000D01*
X113057264Y-143125767D01*
X113522811Y-142814698D01*
X113833880Y-142349151D01*
X113886584Y-142084187D01*
X118664752Y-142084187D01*
X118882757Y-142611800D01*
X119286077Y-143015824D01*
X119813309Y-143234750D01*
X120384187Y-143235248D01*
X120911800Y-143017243D01*
X121315824Y-142613923D01*
X121534750Y-142086691D01*
X121535248Y-141515813D01*
X121404757Y-141200000D01*
X122352560Y-141200000D01*
X122352560Y-143000000D01*
X122396838Y-143235317D01*
X122535910Y-143451441D01*
X122748110Y-143596431D01*
X122764344Y-143599719D01*
X122481845Y-144022509D01*
X122365000Y-144609928D01*
X122365000Y-144670072D01*
X122481845Y-145257491D01*
X122814591Y-145755481D01*
X123052582Y-145914501D01*
X122662034Y-146272424D01*
X122408954Y-146815258D01*
X122529003Y-147053000D01*
X123773000Y-147053000D01*
X123773000Y-147033000D01*
X124027000Y-147033000D01*
X124027000Y-147053000D01*
X125270997Y-147053000D01*
X125391046Y-146815258D01*
X125137966Y-146272424D01*
X124747418Y-145914501D01*
X124985409Y-145755481D01*
X125318155Y-145257491D01*
X125435000Y-144670072D01*
X125435000Y-144609928D01*
X125318155Y-144022509D01*
X125037163Y-143601974D01*
X125251441Y-143464090D01*
X125396431Y-143251890D01*
X125447440Y-143000000D01*
X125447440Y-141200000D01*
X125403162Y-140964683D01*
X125264090Y-140748559D01*
X125051890Y-140603569D01*
X124800000Y-140552560D01*
X123000000Y-140552560D01*
X122764683Y-140596838D01*
X122548559Y-140735910D01*
X122403569Y-140948110D01*
X122352560Y-141200000D01*
X121404757Y-141200000D01*
X121317243Y-140988200D01*
X120913923Y-140584176D01*
X120386691Y-140365250D01*
X119815813Y-140364752D01*
X119288200Y-140582757D01*
X118884176Y-140986077D01*
X118665250Y-141513309D01*
X118664752Y-142084187D01*
X113886584Y-142084187D01*
X113943113Y-141800000D01*
X113833880Y-141250849D01*
X113522811Y-140785302D01*
X113057264Y-140474233D01*
X112508113Y-140365000D01*
X112451887Y-140365000D01*
X111902736Y-140474233D01*
X111437189Y-140785302D01*
X111126120Y-141250849D01*
X111016887Y-141800000D01*
X110598398Y-141800000D01*
X110541054Y-141511715D01*
X110219147Y-141029946D01*
X109889974Y-140810000D01*
X110219147Y-140590054D01*
X110541054Y-140108285D01*
X110602375Y-139800000D01*
X133552560Y-139800000D01*
X133552560Y-142000000D01*
X133596838Y-142235317D01*
X133735910Y-142451441D01*
X133948110Y-142596431D01*
X134200000Y-142647440D01*
X136400000Y-142647440D01*
X136635317Y-142603162D01*
X136851441Y-142464090D01*
X136996431Y-142251890D01*
X137047440Y-142000000D01*
X137047440Y-140867053D01*
X137089114Y-140908800D01*
X137873485Y-141234499D01*
X138722789Y-141235240D01*
X139507727Y-140910910D01*
X140108800Y-140310886D01*
X140434499Y-139526515D01*
X140435240Y-138677211D01*
X140110910Y-137892273D01*
X139510886Y-137291200D01*
X139000383Y-137079221D01*
X139407727Y-136910910D01*
X140008800Y-136310886D01*
X140334499Y-135526515D01*
X140335240Y-134677211D01*
X140010910Y-133892273D01*
X139410886Y-133291200D01*
X138626515Y-132965501D01*
X137777211Y-132964760D01*
X137096829Y-133245888D01*
X137135000Y-133053991D01*
X137135000Y-132986009D01*
X137002931Y-132322053D01*
X136626830Y-131759179D01*
X136063956Y-131383078D01*
X135400000Y-131251009D01*
X134736044Y-131383078D01*
X134173170Y-131759179D01*
X133797069Y-132322053D01*
X133665000Y-132986009D01*
X133665000Y-133053991D01*
X133797069Y-133717947D01*
X134173170Y-134280821D01*
X134736044Y-134656922D01*
X135400000Y-134788991D01*
X136063956Y-134656922D01*
X136075613Y-134649133D01*
X136065501Y-134673485D01*
X136064760Y-135522789D01*
X136389090Y-136307727D01*
X136989114Y-136908800D01*
X137499617Y-137120779D01*
X137092273Y-137289090D01*
X136491200Y-137889114D01*
X136165501Y-138673485D01*
X136165083Y-139152560D01*
X134200000Y-139152560D01*
X133964683Y-139196838D01*
X133748559Y-139335910D01*
X133603569Y-139548110D01*
X133552560Y-139800000D01*
X110602375Y-139800000D01*
X110654093Y-139540000D01*
X110541054Y-138971715D01*
X110219147Y-138489946D01*
X109934873Y-138300000D01*
X111016887Y-138300000D01*
X111126120Y-138849151D01*
X111437189Y-139314698D01*
X111902736Y-139625767D01*
X112451887Y-139735000D01*
X112508113Y-139735000D01*
X113057264Y-139625767D01*
X113522811Y-139314698D01*
X113833880Y-138849151D01*
X113886584Y-138584187D01*
X118664752Y-138584187D01*
X118882757Y-139111800D01*
X119286077Y-139515824D01*
X119813309Y-139734750D01*
X120384187Y-139735248D01*
X120911800Y-139517243D01*
X121315824Y-139113923D01*
X121534750Y-138586691D01*
X121535248Y-138015813D01*
X121317243Y-137488200D01*
X120913923Y-137084176D01*
X120386691Y-136865250D01*
X119815813Y-136864752D01*
X119288200Y-137082757D01*
X118884176Y-137486077D01*
X118665250Y-138013309D01*
X118664752Y-138584187D01*
X113886584Y-138584187D01*
X113943113Y-138300000D01*
X113833880Y-137750849D01*
X113522811Y-137285302D01*
X113057264Y-136974233D01*
X112508113Y-136865000D01*
X112451887Y-136865000D01*
X111902736Y-136974233D01*
X111437189Y-137285302D01*
X111126120Y-137750849D01*
X111016887Y-138300000D01*
X109934873Y-138300000D01*
X109889974Y-138270000D01*
X110219147Y-138050054D01*
X110541054Y-137568285D01*
X110654093Y-137000000D01*
X110563537Y-136544742D01*
X122308954Y-136544742D01*
X122562034Y-137087576D01*
X123003583Y-137492240D01*
X123435260Y-137671036D01*
X123673000Y-137550378D01*
X123673000Y-136307000D01*
X123927000Y-136307000D01*
X123927000Y-137550378D01*
X124164740Y-137671036D01*
X124596417Y-137492240D01*
X125037966Y-137087576D01*
X125291046Y-136544742D01*
X125170997Y-136307000D01*
X123927000Y-136307000D01*
X123673000Y-136307000D01*
X122429003Y-136307000D01*
X122308954Y-136544742D01*
X110563537Y-136544742D01*
X110541054Y-136431715D01*
X110219147Y-135949946D01*
X109737378Y-135628039D01*
X109169093Y-135515000D01*
X109110907Y-135515000D01*
X108542622Y-135628039D01*
X108060853Y-135949946D01*
X108060029Y-135951179D01*
X108053162Y-135914683D01*
X107914090Y-135698559D01*
X107701890Y-135553569D01*
X107450000Y-135502560D01*
X105750000Y-135502560D01*
X105514683Y-135546838D01*
X105298559Y-135685910D01*
X105153569Y-135898110D01*
X105102560Y-136150000D01*
X105102560Y-137850000D01*
X105146838Y-138085317D01*
X105285910Y-138301441D01*
X105498110Y-138446431D01*
X105565541Y-138460086D01*
X105520853Y-138489946D01*
X105198946Y-138971715D01*
X105085907Y-139540000D01*
X105083113Y-139540000D01*
X104973880Y-138990849D01*
X104662811Y-138525302D01*
X104280725Y-138270000D01*
X104662811Y-138014698D01*
X104973880Y-137549151D01*
X105083113Y-137000000D01*
X104973880Y-136450849D01*
X104662811Y-135985302D01*
X104197264Y-135674233D01*
X103648113Y-135565000D01*
X103591887Y-135565000D01*
X103042736Y-135674233D01*
X102577189Y-135985302D01*
X102266120Y-136450849D01*
X102156887Y-137000000D01*
X97447440Y-137000000D01*
X97447440Y-136200000D01*
X97403162Y-135964683D01*
X97264090Y-135748559D01*
X97051890Y-135603569D01*
X96800000Y-135552560D01*
X95200000Y-135552560D01*
X94964683Y-135596838D01*
X94748559Y-135735910D01*
X94603569Y-135948110D01*
X94552560Y-136200000D01*
X94552560Y-137800000D01*
X94596838Y-138035317D01*
X94735910Y-138251441D01*
X94948110Y-138396431D01*
X95103089Y-138427815D01*
X94957189Y-138525302D01*
X94646120Y-138990849D01*
X94536887Y-139540000D01*
X92889177Y-139540000D01*
X93215824Y-139213923D01*
X93434750Y-138686691D01*
X93435248Y-138115813D01*
X93217243Y-137588200D01*
X92813923Y-137184176D01*
X92286691Y-136965250D01*
X91715813Y-136964752D01*
X91188200Y-137182757D01*
X90784176Y-137586077D01*
X90565250Y-138113309D01*
X90564752Y-138684187D01*
X89653010Y-138684187D01*
X89514698Y-138477189D01*
X89049151Y-138166120D01*
X88500000Y-138056887D01*
X87950849Y-138166120D01*
X87485302Y-138477189D01*
X87174233Y-138942736D01*
X87065000Y-139491887D01*
X87025053Y-139491887D01*
X87083113Y-139200000D01*
X86973880Y-138650849D01*
X86662811Y-138185302D01*
X86280725Y-137930000D01*
X86662811Y-137674698D01*
X86973880Y-137209151D01*
X87083113Y-136660000D01*
X86973880Y-136110849D01*
X86662811Y-135645302D01*
X86258297Y-135375014D01*
X86475134Y-135272389D01*
X86851041Y-134857423D01*
X86937350Y-134649039D01*
X110988096Y-134649039D01*
X111148959Y-135037423D01*
X111524866Y-135452389D01*
X112030959Y-135691914D01*
X112253000Y-135570629D01*
X112253000Y-134427000D01*
X112507000Y-134427000D01*
X112507000Y-135570629D01*
X112729041Y-135691914D01*
X113235134Y-135452389D01*
X113611041Y-135037423D01*
X113771904Y-134649039D01*
X113736275Y-134584187D01*
X118564752Y-134584187D01*
X118782757Y-135111800D01*
X119186077Y-135515824D01*
X119713309Y-135734750D01*
X120284187Y-135735248D01*
X120811800Y-135517243D01*
X121215824Y-135113923D01*
X121434750Y-134586691D01*
X121435248Y-134015813D01*
X121217243Y-133488200D01*
X120813923Y-133084176D01*
X120286691Y-132865250D01*
X119715813Y-132864752D01*
X119188200Y-133082757D01*
X118784176Y-133486077D01*
X118565250Y-134013309D01*
X118564752Y-134584187D01*
X113736275Y-134584187D01*
X113649915Y-134427000D01*
X112507000Y-134427000D01*
X112253000Y-134427000D01*
X111110085Y-134427000D01*
X110988096Y-134649039D01*
X86937350Y-134649039D01*
X87011904Y-134469039D01*
X86889915Y-134247000D01*
X85747000Y-134247000D01*
X85747000Y-134267000D01*
X85493000Y-134267000D01*
X85493000Y-134247000D01*
X84350085Y-134247000D01*
X84228096Y-134469039D01*
X84388959Y-134857423D01*
X84764866Y-135272389D01*
X84981703Y-135375014D01*
X84577189Y-135645302D01*
X84266120Y-136110849D01*
X84156887Y-136660000D01*
X79463113Y-136660000D01*
X79353880Y-136110849D01*
X79042811Y-135645302D01*
X78660725Y-135390000D01*
X79042811Y-135134698D01*
X79353880Y-134669151D01*
X79463113Y-134120000D01*
X79353880Y-133570849D01*
X79042811Y-133105302D01*
X78660725Y-132850000D01*
X79042811Y-132594698D01*
X79353880Y-132129151D01*
X79463113Y-131580000D01*
X79353880Y-131030849D01*
X79042811Y-130565302D01*
X78660725Y-130310000D01*
X79042811Y-130054698D01*
X79353880Y-129589151D01*
X79463113Y-129040000D01*
X79353880Y-128490849D01*
X79042811Y-128025302D01*
X78898535Y-127928899D01*
X79035317Y-127903162D01*
X79251441Y-127764090D01*
X79396431Y-127551890D01*
X79447440Y-127300000D01*
X79447440Y-126500000D01*
X84156887Y-126500000D01*
X84266120Y-127049151D01*
X84577189Y-127514698D01*
X84959275Y-127770000D01*
X84577189Y-128025302D01*
X84266120Y-128490849D01*
X84156887Y-129040000D01*
X84266120Y-129589151D01*
X84577189Y-130054698D01*
X84959275Y-130310000D01*
X84577189Y-130565302D01*
X84266120Y-131030849D01*
X84156887Y-131580000D01*
X84266120Y-132129151D01*
X84577189Y-132594698D01*
X84981703Y-132864986D01*
X84764866Y-132967611D01*
X84388959Y-133382577D01*
X84228096Y-133770961D01*
X84350085Y-133993000D01*
X85493000Y-133993000D01*
X85493000Y-133973000D01*
X85747000Y-133973000D01*
X85747000Y-133993000D01*
X86889915Y-133993000D01*
X87011904Y-133770961D01*
X86851041Y-133382577D01*
X86475134Y-132967611D01*
X86348643Y-132907745D01*
X87671861Y-132907745D01*
X87745995Y-133153864D01*
X88283223Y-133346965D01*
X88853454Y-133319778D01*
X89254005Y-133153864D01*
X89328139Y-132907745D01*
X88500000Y-132079605D01*
X87671861Y-132907745D01*
X86348643Y-132907745D01*
X86258297Y-132864986D01*
X86662811Y-132594698D01*
X86973880Y-132129151D01*
X87054881Y-131721934D01*
X87080222Y-132253454D01*
X87246136Y-132654005D01*
X87492255Y-132728139D01*
X88320395Y-131900000D01*
X88679605Y-131900000D01*
X89507745Y-132728139D01*
X89753864Y-132654005D01*
X89946965Y-132116777D01*
X89931862Y-131800000D01*
X91152560Y-131800000D01*
X91152560Y-133400000D01*
X91196838Y-133635317D01*
X91335910Y-133851441D01*
X91548110Y-133996431D01*
X91800000Y-134047440D01*
X93400000Y-134047440D01*
X93635317Y-134003162D01*
X93851441Y-133864090D01*
X93996431Y-133651890D01*
X94005370Y-133607745D01*
X94271861Y-133607745D01*
X94345995Y-133853864D01*
X94883223Y-134046965D01*
X95453454Y-134019778D01*
X95482504Y-134007745D01*
X97171861Y-134007745D01*
X97245995Y-134253864D01*
X97783223Y-134446965D01*
X98353454Y-134419778D01*
X98754005Y-134253864D01*
X98828139Y-134007745D01*
X98000000Y-133179605D01*
X97171861Y-134007745D01*
X95482504Y-134007745D01*
X95854005Y-133853864D01*
X95928139Y-133607745D01*
X95100000Y-132779605D01*
X94271861Y-133607745D01*
X94005370Y-133607745D01*
X94044646Y-133413799D01*
X94092255Y-133428139D01*
X94920395Y-132600000D01*
X95279605Y-132600000D01*
X96107745Y-133428139D01*
X96353864Y-133354005D01*
X96546965Y-132816777D01*
X96545366Y-132783223D01*
X96553035Y-132783223D01*
X96580222Y-133353454D01*
X96746136Y-133754005D01*
X96992255Y-133828139D01*
X97820395Y-133000000D01*
X98179605Y-133000000D01*
X99007745Y-133828139D01*
X99253864Y-133754005D01*
X99256196Y-133747517D01*
X99282757Y-133811800D01*
X99686077Y-134215824D01*
X100213309Y-134434750D01*
X100784187Y-134435248D01*
X101311800Y-134217243D01*
X101715824Y-133813923D01*
X101934750Y-133286691D01*
X101935248Y-132715813D01*
X101717243Y-132188200D01*
X101313923Y-131784176D01*
X101231619Y-131750000D01*
X102602560Y-131750000D01*
X102602560Y-133450000D01*
X102646838Y-133685317D01*
X102785910Y-133901441D01*
X102998110Y-134046431D01*
X103250000Y-134097440D01*
X104950000Y-134097440D01*
X105185317Y-134053162D01*
X105401441Y-133914090D01*
X105546431Y-133701890D01*
X105560086Y-133634459D01*
X105589946Y-133679147D01*
X106071715Y-134001054D01*
X106640000Y-134114093D01*
X107208285Y-134001054D01*
X107690054Y-133679147D01*
X107910000Y-133349974D01*
X108129946Y-133679147D01*
X108611715Y-134001054D01*
X109180000Y-134114093D01*
X109748285Y-134001054D01*
X109823254Y-133950961D01*
X110988096Y-133950961D01*
X111110085Y-134173000D01*
X112253000Y-134173000D01*
X112253000Y-133029371D01*
X112507000Y-133029371D01*
X112507000Y-134173000D01*
X113649915Y-134173000D01*
X113771904Y-133950961D01*
X113611041Y-133562577D01*
X113235134Y-133147611D01*
X112729041Y-132908086D01*
X112507000Y-133029371D01*
X112253000Y-133029371D01*
X112030959Y-132908086D01*
X111524866Y-133147611D01*
X111148959Y-133562577D01*
X110988096Y-133950961D01*
X109823254Y-133950961D01*
X110230054Y-133679147D01*
X110551961Y-133197378D01*
X110665000Y-132629093D01*
X110665000Y-132570907D01*
X110551961Y-132002622D01*
X110230054Y-131520853D01*
X109946899Y-131331655D01*
X109946924Y-131331645D01*
X110375183Y-130941358D01*
X110621486Y-130416892D01*
X110507643Y-130200000D01*
X122252560Y-130200000D01*
X122252560Y-132000000D01*
X122296838Y-132235317D01*
X122435910Y-132451441D01*
X122648110Y-132596431D01*
X122664344Y-132599719D01*
X122381845Y-133022509D01*
X122265000Y-133609928D01*
X122265000Y-133670072D01*
X122381845Y-134257491D01*
X122714591Y-134755481D01*
X122952582Y-134914501D01*
X122562034Y-135272424D01*
X122308954Y-135815258D01*
X122429003Y-136053000D01*
X123673000Y-136053000D01*
X123673000Y-136033000D01*
X123927000Y-136033000D01*
X123927000Y-136053000D01*
X125170997Y-136053000D01*
X125291046Y-135815258D01*
X125037966Y-135272424D01*
X124647418Y-134914501D01*
X124885409Y-134755481D01*
X125218155Y-134257491D01*
X125335000Y-133670072D01*
X125335000Y-133609928D01*
X125218155Y-133022509D01*
X124937163Y-132601974D01*
X125151441Y-132464090D01*
X125296431Y-132251890D01*
X125347440Y-132000000D01*
X125347440Y-130200000D01*
X125303162Y-129964683D01*
X125164090Y-129748559D01*
X124951890Y-129603569D01*
X124700000Y-129552560D01*
X122900000Y-129552560D01*
X122664683Y-129596838D01*
X122448559Y-129735910D01*
X122303569Y-129948110D01*
X122252560Y-130200000D01*
X110507643Y-130200000D01*
X110500819Y-130187000D01*
X109307000Y-130187000D01*
X109307000Y-130207000D01*
X109053000Y-130207000D01*
X109053000Y-130187000D01*
X109033000Y-130187000D01*
X109033000Y-129933000D01*
X109053000Y-129933000D01*
X109053000Y-128739845D01*
X109307000Y-128739845D01*
X109307000Y-129933000D01*
X110500819Y-129933000D01*
X110621486Y-129703108D01*
X110375183Y-129178642D01*
X109946924Y-128788355D01*
X109536890Y-128618524D01*
X109307000Y-128739845D01*
X109053000Y-128739845D01*
X108823110Y-128618524D01*
X108413076Y-128788355D01*
X107984817Y-129178642D01*
X107917702Y-129321553D01*
X107690054Y-128980853D01*
X107208285Y-128658946D01*
X106640000Y-128545907D01*
X106071715Y-128658946D01*
X105589946Y-128980853D01*
X105370000Y-129310026D01*
X105150054Y-128980853D01*
X104668285Y-128658946D01*
X104100000Y-128545907D01*
X103531715Y-128658946D01*
X103049946Y-128980853D01*
X102728039Y-129462622D01*
X102615000Y-130030907D01*
X102615000Y-130089093D01*
X102728039Y-130657378D01*
X103049946Y-131139147D01*
X103051179Y-131139971D01*
X103014683Y-131146838D01*
X102798559Y-131285910D01*
X102653569Y-131498110D01*
X102602560Y-131750000D01*
X101231619Y-131750000D01*
X100786691Y-131565250D01*
X100215813Y-131564752D01*
X99688200Y-131782757D01*
X99284176Y-132186077D01*
X99256577Y-132252544D01*
X99253864Y-132245995D01*
X99007745Y-132171861D01*
X98179605Y-133000000D01*
X97820395Y-133000000D01*
X96992255Y-132171861D01*
X96746136Y-132245995D01*
X96553035Y-132783223D01*
X96545366Y-132783223D01*
X96519778Y-132246546D01*
X96414448Y-131992255D01*
X97171861Y-131992255D01*
X98000000Y-132820395D01*
X98828139Y-131992255D01*
X98754005Y-131746136D01*
X98216777Y-131553035D01*
X97646546Y-131580222D01*
X97245995Y-131746136D01*
X97171861Y-131992255D01*
X96414448Y-131992255D01*
X96353864Y-131845995D01*
X96107745Y-131771861D01*
X95279605Y-132600000D01*
X94920395Y-132600000D01*
X94092255Y-131771861D01*
X94044833Y-131786145D01*
X94008351Y-131592255D01*
X94271861Y-131592255D01*
X95100000Y-132420395D01*
X95928139Y-131592255D01*
X95854005Y-131346136D01*
X95316777Y-131153035D01*
X94746546Y-131180222D01*
X94345995Y-131346136D01*
X94271861Y-131592255D01*
X94008351Y-131592255D01*
X94003162Y-131564683D01*
X93864090Y-131348559D01*
X93651890Y-131203569D01*
X93400000Y-131152560D01*
X91800000Y-131152560D01*
X91564683Y-131196838D01*
X91348559Y-131335910D01*
X91203569Y-131548110D01*
X91152560Y-131800000D01*
X89931862Y-131800000D01*
X89919778Y-131546546D01*
X89753864Y-131145995D01*
X89507745Y-131071861D01*
X88679605Y-131900000D01*
X88320395Y-131900000D01*
X87492255Y-131071861D01*
X87246136Y-131145995D01*
X87074409Y-131623759D01*
X87083113Y-131580000D01*
X86973880Y-131030849D01*
X86881275Y-130892255D01*
X87671861Y-130892255D01*
X88500000Y-131720395D01*
X89328139Y-130892255D01*
X89254005Y-130646136D01*
X88716777Y-130453035D01*
X88146546Y-130480222D01*
X87745995Y-130646136D01*
X87671861Y-130892255D01*
X86881275Y-130892255D01*
X86662811Y-130565302D01*
X86280725Y-130310000D01*
X86662811Y-130054698D01*
X86973880Y-129589151D01*
X86988127Y-129517528D01*
X87186077Y-129715824D01*
X87713309Y-129934750D01*
X88284187Y-129935248D01*
X88811800Y-129717243D01*
X88945088Y-129584187D01*
X96564752Y-129584187D01*
X96782757Y-130111800D01*
X97186077Y-130515824D01*
X97713309Y-130734750D01*
X98284187Y-130735248D01*
X98811800Y-130517243D01*
X99021663Y-130307745D01*
X99671861Y-130307745D01*
X99745995Y-130553864D01*
X100283223Y-130746965D01*
X100853454Y-130719778D01*
X101254005Y-130553864D01*
X101328139Y-130307745D01*
X100500000Y-129479605D01*
X99671861Y-130307745D01*
X99021663Y-130307745D01*
X99215824Y-130113923D01*
X99243423Y-130047456D01*
X99246136Y-130054005D01*
X99492255Y-130128139D01*
X100320395Y-129300000D01*
X100679605Y-129300000D01*
X101507745Y-130128139D01*
X101753864Y-130054005D01*
X101946965Y-129516777D01*
X101919778Y-128946546D01*
X101753864Y-128545995D01*
X101507745Y-128471861D01*
X100679605Y-129300000D01*
X100320395Y-129300000D01*
X99492255Y-128471861D01*
X99246136Y-128545995D01*
X99243804Y-128552483D01*
X99217243Y-128488200D01*
X99021640Y-128292255D01*
X99671861Y-128292255D01*
X100500000Y-129120395D01*
X101328139Y-128292255D01*
X101254005Y-128046136D01*
X100716777Y-127853035D01*
X100146546Y-127880222D01*
X99745995Y-128046136D01*
X99671861Y-128292255D01*
X99021640Y-128292255D01*
X98813923Y-128084176D01*
X98286691Y-127865250D01*
X97715813Y-127864752D01*
X97188200Y-128082757D01*
X96784176Y-128486077D01*
X96565250Y-129013309D01*
X96564752Y-129584187D01*
X88945088Y-129584187D01*
X89215824Y-129313923D01*
X89404266Y-128860104D01*
X93219501Y-128860104D01*
X93256648Y-129075217D01*
X93684972Y-129218112D01*
X94135375Y-129186217D01*
X94403352Y-129075217D01*
X94440499Y-128860104D01*
X93830000Y-128249605D01*
X93219501Y-128860104D01*
X89404266Y-128860104D01*
X89434750Y-128786691D01*
X89435248Y-128215813D01*
X89217243Y-127688200D01*
X88813923Y-127284176D01*
X88747456Y-127256577D01*
X88754005Y-127253864D01*
X88823009Y-127024775D01*
X91424803Y-127024775D01*
X91597233Y-127442086D01*
X91916235Y-127761645D01*
X92333244Y-127934803D01*
X92682606Y-127935108D01*
X92713783Y-128375375D01*
X92824783Y-128643352D01*
X93039896Y-128680499D01*
X93650395Y-128070000D01*
X93636253Y-128055858D01*
X93815858Y-127876253D01*
X93830000Y-127890395D01*
X93844143Y-127876253D01*
X94023748Y-128055858D01*
X94009605Y-128070000D01*
X94620104Y-128680499D01*
X94835217Y-128643352D01*
X94978112Y-128215028D01*
X94959163Y-127947440D01*
X95600000Y-127947440D01*
X95835317Y-127903162D01*
X96051441Y-127764090D01*
X96196431Y-127551890D01*
X96247440Y-127300000D01*
X96247440Y-126300000D01*
X96203162Y-126064683D01*
X96064090Y-125848559D01*
X95851890Y-125703569D01*
X95600000Y-125652560D01*
X94600000Y-125652560D01*
X94364683Y-125696838D01*
X94148559Y-125835910D01*
X94003569Y-126048110D01*
X93952560Y-126300000D01*
X93952560Y-126923479D01*
X93694877Y-126941727D01*
X93695197Y-126575225D01*
X93522767Y-126157914D01*
X93203765Y-125838355D01*
X92786756Y-125665197D01*
X92335225Y-125664803D01*
X91917914Y-125837233D01*
X91598355Y-126156235D01*
X91425197Y-126573244D01*
X91424803Y-127024775D01*
X88823009Y-127024775D01*
X88828139Y-127007745D01*
X88000000Y-126179605D01*
X87985858Y-126193748D01*
X87806252Y-126014142D01*
X87820395Y-126000000D01*
X88179605Y-126000000D01*
X89007745Y-126828139D01*
X89253864Y-126754005D01*
X89446965Y-126216777D01*
X89419778Y-125646546D01*
X89253864Y-125245995D01*
X89007745Y-125171861D01*
X88179605Y-126000000D01*
X87820395Y-126000000D01*
X86992255Y-125171861D01*
X86746136Y-125245995D01*
X86660641Y-125483852D01*
X86197264Y-125174233D01*
X85648113Y-125065000D01*
X85591887Y-125065000D01*
X85042736Y-125174233D01*
X84577189Y-125485302D01*
X84266120Y-125950849D01*
X84156887Y-126500000D01*
X79447440Y-126500000D01*
X79447440Y-125700000D01*
X79403162Y-125464683D01*
X79264090Y-125248559D01*
X79051890Y-125103569D01*
X78800000Y-125052560D01*
X77200000Y-125052560D01*
X76964683Y-125096838D01*
X76748559Y-125235910D01*
X76603569Y-125448110D01*
X76552560Y-125700000D01*
X76552560Y-127300000D01*
X76596838Y-127535317D01*
X76735910Y-127751441D01*
X76948110Y-127896431D01*
X77103089Y-127927815D01*
X76957189Y-128025302D01*
X76646120Y-128490849D01*
X76536887Y-129040000D01*
X76330785Y-129040000D01*
X76446965Y-128716777D01*
X76419778Y-128146546D01*
X76253864Y-127745995D01*
X76007745Y-127671861D01*
X75179605Y-128500000D01*
X74820395Y-128500000D01*
X73992255Y-127671861D01*
X73746136Y-127745995D01*
X73553035Y-128283223D01*
X69228571Y-128283223D01*
X69434750Y-127786691D01*
X69435248Y-127215813D01*
X69217243Y-126688200D01*
X68813923Y-126284176D01*
X68747456Y-126256577D01*
X68754005Y-126253864D01*
X68761481Y-126229041D01*
X70108086Y-126229041D01*
X70347611Y-126735134D01*
X70762577Y-127111041D01*
X71150961Y-127271904D01*
X71373000Y-127149915D01*
X71373000Y-126007000D01*
X71627000Y-126007000D01*
X71627000Y-127149915D01*
X71849039Y-127271904D01*
X72237423Y-127111041D01*
X72652389Y-126735134D01*
X72865814Y-126284187D01*
X73564752Y-126284187D01*
X73782757Y-126811800D01*
X74186077Y-127215824D01*
X74252544Y-127243423D01*
X74245995Y-127246136D01*
X74171861Y-127492255D01*
X75000000Y-128320395D01*
X75828139Y-127492255D01*
X75754005Y-127246136D01*
X75747517Y-127243804D01*
X75811800Y-127217243D01*
X76215824Y-126813923D01*
X76434750Y-126286691D01*
X76435248Y-125715813D01*
X76217243Y-125188200D01*
X76021640Y-124992255D01*
X87171861Y-124992255D01*
X88000000Y-125820395D01*
X88828139Y-124992255D01*
X88754005Y-124746136D01*
X88305630Y-124584972D01*
X100081888Y-124584972D01*
X100113783Y-125035375D01*
X100224783Y-125303352D01*
X100439896Y-125340499D01*
X101050395Y-124730000D01*
X100439896Y-124119501D01*
X100224783Y-124156648D01*
X100081888Y-124584972D01*
X88305630Y-124584972D01*
X88216777Y-124553035D01*
X87646546Y-124580222D01*
X87245995Y-124746136D01*
X87171861Y-124992255D01*
X76021640Y-124992255D01*
X75813923Y-124784176D01*
X75286691Y-124565250D01*
X74715813Y-124564752D01*
X74188200Y-124782757D01*
X73784176Y-125186077D01*
X73565250Y-125713309D01*
X73564752Y-126284187D01*
X72865814Y-126284187D01*
X72891914Y-126229041D01*
X72770629Y-126007000D01*
X71627000Y-126007000D01*
X71373000Y-126007000D01*
X70229371Y-126007000D01*
X70108086Y-126229041D01*
X68761481Y-126229041D01*
X68828139Y-126007745D01*
X68000000Y-125179605D01*
X67171861Y-126007745D01*
X67245995Y-126253864D01*
X67252483Y-126256196D01*
X67188200Y-126282757D01*
X66784176Y-126686077D01*
X66565250Y-127213309D01*
X66564752Y-127784187D01*
X61710000Y-127784187D01*
X61710000Y-124783223D01*
X66553035Y-124783223D01*
X66580222Y-125353454D01*
X66746136Y-125754005D01*
X66992255Y-125828139D01*
X67820395Y-125000000D01*
X68179605Y-125000000D01*
X69007745Y-125828139D01*
X69253864Y-125754005D01*
X69334035Y-125530959D01*
X70108086Y-125530959D01*
X70229371Y-125753000D01*
X71373000Y-125753000D01*
X71373000Y-124610085D01*
X71627000Y-124610085D01*
X71627000Y-125753000D01*
X72770629Y-125753000D01*
X72891914Y-125530959D01*
X72652389Y-125024866D01*
X72237423Y-124648959D01*
X71849039Y-124488096D01*
X71627000Y-124610085D01*
X71373000Y-124610085D01*
X71150961Y-124488096D01*
X70762577Y-124648959D01*
X70347611Y-125024866D01*
X70108086Y-125530959D01*
X69334035Y-125530959D01*
X69446965Y-125216777D01*
X69419778Y-124646546D01*
X69253864Y-124245995D01*
X69007745Y-124171861D01*
X68179605Y-125000000D01*
X67820395Y-125000000D01*
X66992255Y-124171861D01*
X66746136Y-124245995D01*
X66553035Y-124783223D01*
X61710000Y-124783223D01*
X61710000Y-123992255D01*
X67171861Y-123992255D01*
X68000000Y-124820395D01*
X68828139Y-123992255D01*
X68754005Y-123746136D01*
X68216777Y-123553035D01*
X67646546Y-123580222D01*
X67245995Y-123746136D01*
X67171861Y-123992255D01*
X61710000Y-123992255D01*
X61710000Y-121710000D01*
X73249207Y-121710000D01*
X72837189Y-121985302D01*
X72837189Y-121985302D01*
G37*
X72837189Y-121985302D02*
X72526120Y-122450849D01*
X72416887Y-123000000D01*
X72526120Y-123549151D01*
X72837189Y-124014698D01*
X73302736Y-124325767D01*
X73851887Y-124435000D01*
X73908113Y-124435000D01*
X74457264Y-124325767D01*
X74922811Y-124014698D01*
X75233880Y-123549151D01*
X75343113Y-123000000D01*
X75233880Y-122450849D01*
X74922811Y-121985302D01*
X74510793Y-121710000D01*
X80864286Y-121710000D01*
X80688200Y-121782757D01*
X80284176Y-122186077D01*
X80065250Y-122713309D01*
X80064752Y-123284187D01*
X80282757Y-123811800D01*
X80686077Y-124215824D01*
X81213309Y-124434750D01*
X81784187Y-124435248D01*
X82311800Y-124217243D01*
X82589631Y-123939896D01*
X100619501Y-123939896D01*
X101230000Y-124550395D01*
X101244143Y-124536253D01*
X101423748Y-124715858D01*
X101409605Y-124730000D01*
X101423748Y-124744143D01*
X101244143Y-124923748D01*
X101230000Y-124909605D01*
X100619501Y-125520104D01*
X100656648Y-125735217D01*
X101084972Y-125878112D01*
X101352560Y-125859163D01*
X101352560Y-126500000D01*
X101396838Y-126735317D01*
X101535910Y-126951441D01*
X101748110Y-127096431D01*
X102000000Y-127147440D01*
X103000000Y-127147440D01*
X103235317Y-127103162D01*
X103451441Y-126964090D01*
X103596431Y-126751890D01*
X103647440Y-126500000D01*
X103647440Y-125500000D01*
X103603162Y-125264683D01*
X103561540Y-125200000D01*
X106552560Y-125200000D01*
X106552560Y-126800000D01*
X106596838Y-127035317D01*
X106735910Y-127251441D01*
X106948110Y-127396431D01*
X107200000Y-127447440D01*
X108800000Y-127447440D01*
X109035317Y-127403162D01*
X109251441Y-127264090D01*
X109396431Y-127051890D01*
X109447440Y-126800000D01*
X109447440Y-126375202D01*
X113144403Y-126375202D01*
X113365203Y-126745949D01*
X114336953Y-127139367D01*
X115385287Y-127130965D01*
X116314797Y-126745949D01*
X116535597Y-126375202D01*
X114840000Y-124679605D01*
X113144403Y-126375202D01*
X109447440Y-126375202D01*
X109447440Y-125200000D01*
X109403162Y-124964683D01*
X109264090Y-124748559D01*
X109051890Y-124603569D01*
X108813799Y-124555354D01*
X108828139Y-124507745D01*
X108000000Y-123679605D01*
X107171861Y-124507745D01*
X107186145Y-124555167D01*
X106964683Y-124596838D01*
X106748559Y-124735910D01*
X106603569Y-124948110D01*
X106552560Y-125200000D01*
X103561540Y-125200000D01*
X103464090Y-125048559D01*
X103251890Y-124903569D01*
X103000000Y-124852560D01*
X102376521Y-124852560D01*
X102358273Y-124594877D01*
X102724775Y-124595197D01*
X103142086Y-124422767D01*
X103461645Y-124103765D01*
X103634803Y-123686756D01*
X103635155Y-123283223D01*
X106553035Y-123283223D01*
X106580222Y-123853454D01*
X106746136Y-124254005D01*
X106992255Y-124328139D01*
X107820395Y-123500000D01*
X108179605Y-123500000D01*
X109007745Y-124328139D01*
X109253864Y-124254005D01*
X109346258Y-123996953D01*
X112200633Y-123996953D01*
X112209035Y-125045287D01*
X112594051Y-125974797D01*
X112964798Y-126195597D01*
X114660395Y-124500000D01*
X115019605Y-124500000D01*
X116715202Y-126195597D01*
X117085949Y-125974797D01*
X117275037Y-125507745D01*
X117671861Y-125507745D01*
X117745995Y-125753864D01*
X118283223Y-125946965D01*
X118853454Y-125919778D01*
X119254005Y-125753864D01*
X119328139Y-125507745D01*
X118500000Y-124679605D01*
X117671861Y-125507745D01*
X117275037Y-125507745D01*
X117363458Y-125289344D01*
X117492255Y-125328139D01*
X118320395Y-124500000D01*
X118679605Y-124500000D01*
X119507745Y-125328139D01*
X119555167Y-125313855D01*
X119596838Y-125535317D01*
X119735910Y-125751441D01*
X119948110Y-125896431D01*
X120200000Y-125947440D01*
X121800000Y-125947440D01*
X122035317Y-125903162D01*
X122251441Y-125764090D01*
X122396431Y-125551890D01*
X122447440Y-125300000D01*
X122447440Y-125223115D01*
X122764641Y-125990799D01*
X123505302Y-126732754D01*
X124473517Y-127134792D01*
X125521884Y-127135707D01*
X126490799Y-126735359D01*
X127232754Y-125994698D01*
X127553267Y-125222815D01*
X128264630Y-125222815D01*
X128588980Y-126007800D01*
X129189041Y-126608909D01*
X129973459Y-126934628D01*
X130822815Y-126935370D01*
X131607800Y-126611020D01*
X132208909Y-126010959D01*
X132534628Y-125226541D01*
X132535370Y-124377185D01*
X132211020Y-123592200D01*
X131610959Y-122991091D01*
X130826541Y-122665372D01*
X129977185Y-122664630D01*
X129192200Y-122988980D01*
X128591091Y-123589041D01*
X128265372Y-124373459D01*
X128264630Y-125222815D01*
X127553267Y-125222815D01*
X127634792Y-125026483D01*
X127635707Y-123978116D01*
X127235359Y-123009201D01*
X126494698Y-122267246D01*
X125526483Y-121865208D01*
X124478116Y-121864293D01*
X123509201Y-122264641D01*
X122767246Y-123005302D01*
X122447440Y-123775480D01*
X122447440Y-123700000D01*
X122403162Y-123464683D01*
X122264090Y-123248559D01*
X122051890Y-123103569D01*
X121800000Y-123052560D01*
X120200000Y-123052560D01*
X119964683Y-123096838D01*
X119748559Y-123235910D01*
X119603569Y-123448110D01*
X119555354Y-123686201D01*
X119507745Y-123671861D01*
X118679605Y-124500000D01*
X118320395Y-124500000D01*
X117492255Y-123671861D01*
X117369162Y-123708938D01*
X117279409Y-123492255D01*
X117671861Y-123492255D01*
X118500000Y-124320395D01*
X119328139Y-123492255D01*
X119254005Y-123246136D01*
X118716777Y-123053035D01*
X118146546Y-123080222D01*
X117745995Y-123246136D01*
X117671861Y-123492255D01*
X117279409Y-123492255D01*
X117085949Y-123025203D01*
X116715202Y-122804403D01*
X115019605Y-124500000D01*
X114660395Y-124500000D01*
X112964798Y-122804403D01*
X112594051Y-123025203D01*
X112200633Y-123996953D01*
X109346258Y-123996953D01*
X109446965Y-123716777D01*
X109419778Y-123146546D01*
X109253864Y-122745995D01*
X109007745Y-122671861D01*
X108179605Y-123500000D01*
X107820395Y-123500000D01*
X106992255Y-122671861D01*
X106746136Y-122745995D01*
X106553035Y-123283223D01*
X103635155Y-123283223D01*
X103635197Y-123235225D01*
X103462767Y-122817914D01*
X103143765Y-122498355D01*
X103129075Y-122492255D01*
X107171861Y-122492255D01*
X108000000Y-123320395D01*
X108695596Y-122624798D01*
X113144403Y-122624798D01*
X114840000Y-124320395D01*
X116535597Y-122624798D01*
X116314797Y-122254051D01*
X115343047Y-121860633D01*
X114294713Y-121869035D01*
X113365203Y-122254051D01*
X113144403Y-122624798D01*
X108695596Y-122624798D01*
X108828139Y-122492255D01*
X108754005Y-122246136D01*
X108216777Y-122053035D01*
X107646546Y-122080222D01*
X107245995Y-122246136D01*
X107171861Y-122492255D01*
X103129075Y-122492255D01*
X102726756Y-122325197D01*
X102275225Y-122324803D01*
X101857914Y-122497233D01*
X101538355Y-122816235D01*
X101365197Y-123233244D01*
X101364892Y-123582606D01*
X100924625Y-123613783D01*
X100656648Y-123724783D01*
X100619501Y-123939896D01*
X82589631Y-123939896D01*
X82715824Y-123813923D01*
X82934750Y-123286691D01*
X82935248Y-122715813D01*
X82717243Y-122188200D01*
X82313923Y-121784176D01*
X82135287Y-121710000D01*
X136670452Y-121710000D01*
X136591200Y-121789114D01*
X136265501Y-122573485D01*
X136264760Y-123422789D01*
X136359700Y-123652560D01*
X134300000Y-123652560D01*
X134064683Y-123696838D01*
X133848559Y-123835910D01*
X133703569Y-124048110D01*
X133652560Y-124300000D01*
X133652560Y-126500000D01*
X133696838Y-126735317D01*
X133835910Y-126951441D01*
X134048110Y-127096431D01*
X134300000Y-127147440D01*
X136500000Y-127147440D01*
X136735317Y-127103162D01*
X136951441Y-126964090D01*
X137096431Y-126751890D01*
X137147440Y-126500000D01*
X137147440Y-124767053D01*
X137189114Y-124808800D01*
X137973485Y-125134499D01*
X138822789Y-125135240D01*
X139607727Y-124810910D01*
X140208800Y-124210886D01*
X140534499Y-123426515D01*
X140535240Y-122577211D01*
X140210910Y-121792273D01*
X140128781Y-121710000D01*
X140773000Y-121710000D01*
X140773000Y-150290000D01*
X140183910Y-150290000D01*
X140434499Y-149686515D01*
X140435240Y-148837211D01*
X140110910Y-148052273D01*
X139510886Y-147451200D01*
X138726515Y-147125501D01*
X137877211Y-147124760D01*
X137092273Y-147449090D01*
X136829199Y-147711705D01*
X136526830Y-147259179D01*
X135963956Y-146883078D01*
X135300000Y-146751009D01*
X134636044Y-146883078D01*
X134073170Y-147259179D01*
X133697069Y-147822053D01*
X133565000Y-148486009D01*
X133565000Y-148553991D01*
X133697069Y-149217947D01*
X134073170Y-149780821D01*
X134636044Y-150156922D01*
X135300000Y-150288991D01*
X135963956Y-150156922D01*
X136274838Y-149949197D01*
X136415655Y-150290000D01*
X120493696Y-150290000D01*
X120911800Y-150117243D01*
X121315824Y-149713923D01*
X121534750Y-149186691D01*
X121535248Y-148615813D01*
X121317243Y-148088200D01*
X120913923Y-147684176D01*
X120578129Y-147544742D01*
X122408954Y-147544742D01*
X122662034Y-148087576D01*
X123103583Y-148492240D01*
X123535260Y-148671036D01*
X123773000Y-148550378D01*
X123773000Y-147307000D01*
X124027000Y-147307000D01*
X124027000Y-148550378D01*
X124264740Y-148671036D01*
X124696417Y-148492240D01*
X125099514Y-148122815D01*
X128264630Y-148122815D01*
X128588980Y-148907800D01*
X129189041Y-149508909D01*
X129973459Y-149834628D01*
X130822815Y-149835370D01*
X131607800Y-149511020D01*
X132208909Y-148910959D01*
X132534628Y-148126541D01*
X132535370Y-147277185D01*
X132211020Y-146492200D01*
X131610959Y-145891091D01*
X130826541Y-145565372D01*
X129977185Y-145564630D01*
X129192200Y-145888980D01*
X128591091Y-146489041D01*
X128265372Y-147273459D01*
X128264630Y-148122815D01*
X125099514Y-148122815D01*
X125137966Y-148087576D01*
X125391046Y-147544742D01*
X125270997Y-147307000D01*
X124027000Y-147307000D01*
X123773000Y-147307000D01*
X122529003Y-147307000D01*
X122408954Y-147544742D01*
X120578129Y-147544742D01*
X120386691Y-147465250D01*
X119815813Y-147464752D01*
X119288200Y-147682757D01*
X118884176Y-148086077D01*
X118665250Y-148613309D01*
X118664752Y-149184187D01*
X118882757Y-149711800D01*
X119286077Y-150115824D01*
X119705539Y-150290000D01*
X112833085Y-150290000D01*
X113335134Y-150052389D01*
X113711041Y-149637423D01*
X113871904Y-149249039D01*
X113749915Y-149027000D01*
X112607000Y-149027000D01*
X112607000Y-149047000D01*
X112353000Y-149047000D01*
X112353000Y-149027000D01*
X111210085Y-149027000D01*
X111088096Y-149249039D01*
X111248959Y-149637423D01*
X111624866Y-150052389D01*
X112126915Y-150290000D01*
X108375415Y-150290000D01*
X108596822Y-150068979D01*
X108884352Y-149376531D01*
X108885006Y-148626759D01*
X108853688Y-148550961D01*
X111088096Y-148550961D01*
X111210085Y-148773000D01*
X112353000Y-148773000D01*
X112353000Y-147629371D01*
X112607000Y-147629371D01*
X112607000Y-148773000D01*
X113749915Y-148773000D01*
X113871904Y-148550961D01*
X113711041Y-148162577D01*
X113335134Y-147747611D01*
X112829041Y-147508086D01*
X112607000Y-147629371D01*
X112353000Y-147629371D01*
X112130959Y-147508086D01*
X111624866Y-147747611D01*
X111248959Y-148162577D01*
X111088096Y-148550961D01*
X108853688Y-148550961D01*
X108598686Y-147933809D01*
X108068979Y-147403178D01*
X107376531Y-147115648D01*
X106626759Y-147114994D01*
X105933809Y-147401314D01*
X105403178Y-147931021D01*
X105115648Y-148623469D01*
X105114994Y-149373241D01*
X105401314Y-150066191D01*
X105624733Y-150290000D01*
X103375415Y-150290000D01*
X103596822Y-150068979D01*
X103884352Y-149376531D01*
X103885006Y-148626759D01*
X103598686Y-147933809D01*
X103068979Y-147403178D01*
X102376531Y-147115648D01*
X101626759Y-147114994D01*
X100933809Y-147401314D01*
X100403178Y-147931021D01*
X100206594Y-148404447D01*
X100117243Y-148188200D01*
X99713923Y-147784176D01*
X99186691Y-147565250D01*
X98615813Y-147564752D01*
X98088200Y-147782757D01*
X97684176Y-148186077D01*
X97465250Y-148713309D01*
X97464752Y-149284187D01*
X97682757Y-149811800D01*
X98086077Y-150215824D01*
X98264713Y-150290000D01*
X91844375Y-150290000D01*
X92135134Y-150152389D01*
X92511041Y-149737423D01*
X92671904Y-149349039D01*
X92549915Y-149127000D01*
X91407000Y-149127000D01*
X91407000Y-149147000D01*
X91153000Y-149147000D01*
X91153000Y-149127000D01*
X91133000Y-149127000D01*
X91133000Y-148873000D01*
X91153000Y-148873000D01*
X91153000Y-147729371D01*
X91407000Y-147729371D01*
X91407000Y-148873000D01*
X92549915Y-148873000D01*
X92671904Y-148650961D01*
X92511041Y-148262577D01*
X92135134Y-147847611D01*
X91629041Y-147608086D01*
X91407000Y-147729371D01*
X91153000Y-147729371D01*
X90930959Y-147608086D01*
X90424866Y-147847611D01*
X90048959Y-148262577D01*
X89888096Y-148650961D01*
X90010084Y-148872998D01*
X89845000Y-148872998D01*
X89845000Y-148997396D01*
X89717243Y-148688200D01*
X89313923Y-148284176D01*
X88786691Y-148065250D01*
X88215813Y-148064752D01*
X87688200Y-148282757D01*
X87284176Y-148686077D01*
X87065250Y-149213309D01*
X87064752Y-149784187D01*
X87273749Y-150290000D01*
X61710000Y-150290000D01*
X61710000Y-149507745D01*
X70671861Y-149507745D01*
X70745995Y-149753864D01*
X71283223Y-149946965D01*
X71853454Y-149919778D01*
X72254005Y-149753864D01*
X72328139Y-149507745D01*
X71500000Y-148679605D01*
X70671861Y-149507745D01*
X61710000Y-149507745D01*
X61710000Y-147784187D01*
X66564752Y-147784187D01*
X66782757Y-148311800D01*
X67186077Y-148715824D01*
X67713309Y-148934750D01*
X68284187Y-148935248D01*
X68811800Y-148717243D01*
X69215824Y-148313923D01*
X69228571Y-148283223D01*
X70053035Y-148283223D01*
X70080222Y-148853454D01*
X70246136Y-149254005D01*
X70492255Y-149328139D01*
X71320395Y-148500000D01*
X71679605Y-148500000D01*
X72507745Y-149328139D01*
X72753864Y-149254005D01*
X72922735Y-148784187D01*
X73564752Y-148784187D01*
X73782757Y-149311800D01*
X74186077Y-149715824D01*
X74713309Y-149934750D01*
X75284187Y-149935248D01*
X75811800Y-149717243D01*
X76215824Y-149313923D01*
X76434750Y-148786691D01*
X76435188Y-148284187D01*
X76564752Y-148284187D01*
X76782757Y-148811800D01*
X77186077Y-149215824D01*
X77713309Y-149434750D01*
X78284187Y-149435248D01*
X78811800Y-149217243D01*
X79215824Y-148813923D01*
X79434750Y-148286691D01*
X79435000Y-148000000D01*
X84156887Y-148000000D01*
X84266120Y-148549151D01*
X84577189Y-149014698D01*
X85042736Y-149325767D01*
X85591887Y-149435000D01*
X85648113Y-149435000D01*
X86197264Y-149325767D01*
X86662811Y-149014698D01*
X86973880Y-148549151D01*
X87083113Y-148000000D01*
X86973880Y-147450849D01*
X86662811Y-146985302D01*
X86197264Y-146674233D01*
X85648113Y-146565000D01*
X85591887Y-146565000D01*
X85042736Y-146674233D01*
X84577189Y-146985302D01*
X84266120Y-147450849D01*
X84156887Y-148000000D01*
X79435000Y-148000000D01*
X79435248Y-147715813D01*
X79217243Y-147188200D01*
X78813923Y-146784176D01*
X78286691Y-146565250D01*
X77715813Y-146564752D01*
X77188200Y-146782757D01*
X76784176Y-147186077D01*
X76565250Y-147713309D01*
X76564752Y-148284187D01*
X76435188Y-148284187D01*
X76435248Y-148215813D01*
X76217243Y-147688200D01*
X75813923Y-147284176D01*
X75286691Y-147065250D01*
X74715813Y-147064752D01*
X74188200Y-147282757D01*
X73784176Y-147686077D01*
X73565250Y-148213309D01*
X73564752Y-148784187D01*
X72922735Y-148784187D01*
X72946965Y-148716777D01*
X72919778Y-148146546D01*
X72753864Y-147745995D01*
X72507745Y-147671861D01*
X71679605Y-148500000D01*
X71320395Y-148500000D01*
X70492255Y-147671861D01*
X70246136Y-147745995D01*
X70053035Y-148283223D01*
X69228571Y-148283223D01*
X69434750Y-147786691D01*
X69435248Y-147215813D01*
X69217243Y-146688200D01*
X68813923Y-146284176D01*
X68286691Y-146065250D01*
X67715813Y-146064752D01*
X67188200Y-146282757D01*
X66784176Y-146686077D01*
X66565250Y-147213309D01*
X66564752Y-147784187D01*
X61710000Y-147784187D01*
X61710000Y-144084038D01*
X61732785Y-144106823D01*
X61846518Y-143993090D01*
X61975725Y-144285859D01*
X62675883Y-144554071D01*
X63425384Y-144533928D01*
X64024275Y-144285859D01*
X64153483Y-143993089D01*
X63000000Y-142839605D01*
X62985858Y-142853748D01*
X62806252Y-142674142D01*
X62820395Y-142660000D01*
X63179605Y-142660000D01*
X64333089Y-143813483D01*
X64399470Y-143784187D01*
X70064752Y-143784187D01*
X70282757Y-144311800D01*
X70686077Y-144715824D01*
X70767931Y-144749813D01*
X70688200Y-144782757D01*
X70284176Y-145186077D01*
X70065250Y-145713309D01*
X70064752Y-146284187D01*
X70282757Y-146811800D01*
X70686077Y-147215824D01*
X70752544Y-147243423D01*
X70745995Y-147246136D01*
X70671861Y-147492255D01*
X71500000Y-148320395D01*
X72328139Y-147492255D01*
X72254005Y-147246136D01*
X72247517Y-147243804D01*
X72311800Y-147217243D01*
X72715824Y-146813923D01*
X72934750Y-146286691D01*
X72935248Y-145715813D01*
X72717243Y-145188200D01*
X72313923Y-144784176D01*
X72232069Y-144750187D01*
X72311800Y-144717243D01*
X72715824Y-144313923D01*
X72763128Y-144200000D01*
X76552560Y-144200000D01*
X76552560Y-145800000D01*
X76596838Y-146035317D01*
X76735910Y-146251441D01*
X76948110Y-146396431D01*
X77200000Y-146447440D01*
X78800000Y-146447440D01*
X79035317Y-146403162D01*
X79251441Y-146264090D01*
X79396431Y-146051890D01*
X79447440Y-145800000D01*
X79447440Y-145000000D01*
X84156887Y-145000000D01*
X84266120Y-145549151D01*
X84577189Y-146014698D01*
X85042736Y-146325767D01*
X85591887Y-146435000D01*
X85648113Y-146435000D01*
X86197264Y-146325767D01*
X86662811Y-146014698D01*
X86678052Y-145991887D01*
X90565000Y-145991887D01*
X90565000Y-146048113D01*
X90674233Y-146597264D01*
X90985302Y-147062811D01*
X91450849Y-147373880D01*
X92000000Y-147483113D01*
X92549151Y-147373880D01*
X93014698Y-147062811D01*
X93325767Y-146597264D01*
X93435000Y-146048113D01*
X93435000Y-145991887D01*
X93325767Y-145442736D01*
X93014698Y-144977189D01*
X93002501Y-144969039D01*
X94608096Y-144969039D01*
X94768959Y-145357423D01*
X95144866Y-145772389D01*
X95650959Y-146011914D01*
X95873000Y-145890629D01*
X95873000Y-144747000D01*
X96127000Y-144747000D01*
X96127000Y-145890629D01*
X96349041Y-146011914D01*
X96855134Y-145772389D01*
X97231041Y-145357423D01*
X97391904Y-144969039D01*
X97269915Y-144747000D01*
X96127000Y-144747000D01*
X95873000Y-144747000D01*
X94730085Y-144747000D01*
X94608096Y-144969039D01*
X93002501Y-144969039D01*
X92549151Y-144666120D01*
X92000000Y-144556887D01*
X91450849Y-144666120D01*
X90985302Y-144977189D01*
X90674233Y-145442736D01*
X90565000Y-145991887D01*
X86678052Y-145991887D01*
X86973880Y-145549151D01*
X87083113Y-145000000D01*
X86973880Y-144450849D01*
X86662811Y-143985302D01*
X86197264Y-143674233D01*
X85648113Y-143565000D01*
X85591887Y-143565000D01*
X85042736Y-143674233D01*
X84577189Y-143985302D01*
X84266120Y-144450849D01*
X84156887Y-145000000D01*
X79447440Y-145000000D01*
X79447440Y-144200000D01*
X79403162Y-143964683D01*
X79264090Y-143748559D01*
X79051890Y-143603569D01*
X78800000Y-143552560D01*
X77200000Y-143552560D01*
X76964683Y-143596838D01*
X76748559Y-143735910D01*
X76603569Y-143948110D01*
X76552560Y-144200000D01*
X72763128Y-144200000D01*
X72934750Y-143786691D01*
X72935248Y-143215813D01*
X72717243Y-142688200D01*
X72313923Y-142284176D01*
X71786691Y-142065250D01*
X71215813Y-142064752D01*
X70688200Y-142282757D01*
X70284176Y-142686077D01*
X70065250Y-143213309D01*
X70064752Y-143784187D01*
X64399470Y-143784187D01*
X64625859Y-143684275D01*
X64894071Y-142984117D01*
X64873928Y-142234616D01*
X64625859Y-141635725D01*
X64333089Y-141506517D01*
X63179605Y-142660000D01*
X62820395Y-142660000D01*
X62806252Y-142645858D01*
X62985858Y-142466252D01*
X63000000Y-142480395D01*
X64153483Y-141326911D01*
X64024275Y-141034141D01*
X63324117Y-140765929D01*
X62574616Y-140786072D01*
X61975725Y-141034141D01*
X61846518Y-141326910D01*
X61732785Y-141213177D01*
X61710000Y-141235962D01*
X61710000Y-137784187D01*
X66564752Y-137784187D01*
X66782757Y-138311800D01*
X67178419Y-138708152D01*
X66985302Y-138837189D01*
X66674233Y-139302736D01*
X66565000Y-139851887D01*
X66565000Y-139908113D01*
X66674233Y-140457264D01*
X66985302Y-140922811D01*
X67450849Y-141233880D01*
X68000000Y-141343113D01*
X68549151Y-141233880D01*
X69014698Y-140922811D01*
X69325767Y-140457264D01*
X69435000Y-139908113D01*
X69435000Y-139851887D01*
X69325767Y-139302736D01*
X69014698Y-138837189D01*
X68935376Y-138784187D01*
X73564752Y-138784187D01*
X73782757Y-139311800D01*
X74178419Y-139708152D01*
X73985302Y-139837189D01*
X73674233Y-140302736D01*
X73565000Y-140851887D01*
X73565000Y-140908113D01*
X73674233Y-141457264D01*
X73985302Y-141922811D01*
X74450849Y-142233880D01*
X75000000Y-142343113D01*
X75549151Y-142233880D01*
X76014698Y-141922811D01*
X76325767Y-141457264D01*
X76435000Y-140908113D01*
X76435000Y-140851887D01*
X76325767Y-140302736D01*
X76014698Y-139837189D01*
X75821177Y-139707882D01*
X76215824Y-139313923D01*
X76434750Y-138786691D01*
X76435248Y-138215813D01*
X76217243Y-137688200D01*
X75813923Y-137284176D01*
X75286691Y-137065250D01*
X74715813Y-137064752D01*
X74188200Y-137282757D01*
X73784176Y-137686077D01*
X73565250Y-138213309D01*
X73564752Y-138784187D01*
X68935376Y-138784187D01*
X68821177Y-138707882D01*
X69215824Y-138313923D01*
X69434750Y-137786691D01*
X69435248Y-137215813D01*
X69217243Y-136688200D01*
X68813923Y-136284176D01*
X68286691Y-136065250D01*
X67715813Y-136064752D01*
X67188200Y-136282757D01*
X66784176Y-136686077D01*
X66565250Y-137213309D01*
X66564752Y-137784187D01*
X61710000Y-137784187D01*
X61710000Y-133875415D01*
X61931021Y-134096822D01*
X62623469Y-134384352D01*
X63373241Y-134385006D01*
X64066191Y-134098686D01*
X64381238Y-133784187D01*
X70064752Y-133784187D01*
X70282757Y-134311800D01*
X70678419Y-134708152D01*
X70485302Y-134837189D01*
X70174233Y-135302736D01*
X70065000Y-135851887D01*
X70065000Y-135908113D01*
X70174233Y-136457264D01*
X70485302Y-136922811D01*
X70950849Y-137233880D01*
X71500000Y-137343113D01*
X72049151Y-137233880D01*
X72514698Y-136922811D01*
X72825767Y-136457264D01*
X72935000Y-135908113D01*
X72935000Y-135851887D01*
X72825767Y-135302736D01*
X72514698Y-134837189D01*
X72321177Y-134707882D01*
X72715824Y-134313923D01*
X72934750Y-133786691D01*
X72935248Y-133215813D01*
X72717243Y-132688200D01*
X72313923Y-132284176D01*
X71786691Y-132065250D01*
X71215813Y-132064752D01*
X70688200Y-132282757D01*
X70284176Y-132686077D01*
X70065250Y-133213309D01*
X70064752Y-133784187D01*
X64381238Y-133784187D01*
X64596822Y-133568979D01*
X64884352Y-132876531D01*
X64885006Y-132126759D01*
X64598686Y-131433809D01*
X64068979Y-130903178D01*
X63376531Y-130615648D01*
X62626759Y-130614994D01*
X61933809Y-130901314D01*
X61710000Y-131124733D01*
X61710000Y-127784187D01*
X66564752Y-127784187D01*
X66782757Y-128311800D01*
X67178419Y-128708152D01*
X66985302Y-128837189D01*
X66674233Y-129302736D01*
X66565000Y-129851887D01*
X66565000Y-129908113D01*
X66674233Y-130457264D01*
X66985302Y-130922811D01*
X67450849Y-131233880D01*
X68000000Y-131343113D01*
X68549151Y-131233880D01*
X69014698Y-130922811D01*
X69062087Y-130851887D01*
X73565000Y-130851887D01*
X73565000Y-130908113D01*
X73674233Y-131457264D01*
X73985302Y-131922811D01*
X74450849Y-132233880D01*
X75000000Y-132343113D01*
X75549151Y-132233880D01*
X76014698Y-131922811D01*
X76325767Y-131457264D01*
X76435000Y-130908113D01*
X76435000Y-130851887D01*
X76325767Y-130302736D01*
X76014698Y-129837189D01*
X75776789Y-129678223D01*
X75828139Y-129507745D01*
X75000000Y-128679605D01*
X74171861Y-129507745D01*
X74223211Y-129678223D01*
X73985302Y-129837189D01*
X73674233Y-130302736D01*
X73565000Y-130851887D01*
X69062087Y-130851887D01*
X69325767Y-130457264D01*
X69435000Y-129908113D01*
X69435000Y-129851887D01*
X69325767Y-129302736D01*
X69014698Y-128837189D01*
X68821177Y-128707882D01*
X69215824Y-128313923D01*
X69228571Y-128283223D01*
X73553035Y-128283223D01*
X73580222Y-128853454D01*
X73746136Y-129254005D01*
X73992255Y-129328139D01*
X74820395Y-128500000D01*
X75179605Y-128500000D01*
X76007745Y-129328139D01*
X76253864Y-129254005D01*
X76330785Y-129040000D01*
X76536887Y-129040000D01*
X76646120Y-129589151D01*
X76957189Y-130054698D01*
X77339275Y-130310000D01*
X76957189Y-130565302D01*
X76646120Y-131030849D01*
X76536887Y-131580000D01*
X76646120Y-132129151D01*
X76957189Y-132594698D01*
X77339275Y-132850000D01*
X76957189Y-133105302D01*
X76646120Y-133570849D01*
X76536887Y-134120000D01*
X76646120Y-134669151D01*
X76957189Y-135134698D01*
X77339275Y-135390000D01*
X76957189Y-135645302D01*
X76646120Y-136110849D01*
X76536887Y-136660000D01*
X76646120Y-137209151D01*
X76957189Y-137674698D01*
X77339275Y-137930000D01*
X76957189Y-138185302D01*
X76646120Y-138650849D01*
X76536887Y-139200000D01*
X76646120Y-139749151D01*
X76957189Y-140214698D01*
X77339275Y-140470000D01*
X76957189Y-140725302D01*
X76646120Y-141190849D01*
X76536887Y-141740000D01*
X76646120Y-142289151D01*
X76957189Y-142754698D01*
X77422736Y-143065767D01*
X77971887Y-143175000D01*
X78028113Y-143175000D01*
X78577264Y-143065767D01*
X79042811Y-142754698D01*
X79353880Y-142289151D01*
X79463113Y-141740000D01*
X79353880Y-141190849D01*
X79042811Y-140725302D01*
X78660725Y-140470000D01*
X79042811Y-140214698D01*
X79353880Y-139749151D01*
X79463113Y-139200000D01*
X79353880Y-138650849D01*
X79042811Y-138185302D01*
X78660725Y-137930000D01*
X79042811Y-137674698D01*
X79353880Y-137209151D01*
X79463113Y-136660000D01*
X84156887Y-136660000D01*
X84266120Y-137209151D01*
X84577189Y-137674698D01*
X84959275Y-137930000D01*
X84577189Y-138185302D01*
X84266120Y-138650849D01*
X84156887Y-139200000D01*
X84266120Y-139749151D01*
X84577189Y-140214698D01*
X84959275Y-140470000D01*
X84577189Y-140725302D01*
X84266120Y-141190849D01*
X84156887Y-141740000D01*
X84266120Y-142289151D01*
X84577189Y-142754698D01*
X85042736Y-143065767D01*
X85591887Y-143175000D01*
X85648113Y-143175000D01*
X86197264Y-143065767D01*
X86662811Y-142754698D01*
X86973880Y-142289151D01*
X86985836Y-142229041D01*
X87108086Y-142229041D01*
X87347611Y-142735134D01*
X87762577Y-143111041D01*
X88150961Y-143271904D01*
X88373000Y-143149915D01*
X88373000Y-142007000D01*
X88627000Y-142007000D01*
X88627000Y-143149915D01*
X88849039Y-143271904D01*
X89237423Y-143111041D01*
X89652389Y-142735134D01*
X89891914Y-142229041D01*
X89770629Y-142007000D01*
X88627000Y-142007000D01*
X88373000Y-142007000D01*
X87229371Y-142007000D01*
X87108086Y-142229041D01*
X86985836Y-142229041D01*
X87083113Y-141740000D01*
X86973880Y-141190849D01*
X86662811Y-140725302D01*
X86280725Y-140470000D01*
X86662811Y-140214698D01*
X86973880Y-139749151D01*
X87025053Y-139491887D01*
X87065000Y-139491887D01*
X87065000Y-139548113D01*
X87174233Y-140097264D01*
X87485302Y-140562811D01*
X87699605Y-140706004D01*
X87347611Y-141024866D01*
X87108086Y-141530959D01*
X87229371Y-141753000D01*
X88373000Y-141753000D01*
X88373000Y-141733000D01*
X88627000Y-141733000D01*
X88627000Y-141753000D01*
X89770629Y-141753000D01*
X89891914Y-141530959D01*
X89652389Y-141024866D01*
X89300395Y-140706004D01*
X89514698Y-140562811D01*
X89825767Y-140097264D01*
X89935000Y-139548113D01*
X89935000Y-139491887D01*
X89825767Y-138942736D01*
X89653010Y-138684187D01*
X90564752Y-138684187D01*
X90782757Y-139211800D01*
X91186077Y-139615824D01*
X91713309Y-139834750D01*
X92284187Y-139835248D01*
X92811800Y-139617243D01*
X92889177Y-139540000D01*
X94536887Y-139540000D01*
X94646120Y-140089151D01*
X94957189Y-140554698D01*
X95339275Y-140810000D01*
X94957189Y-141065302D01*
X94646120Y-141530849D01*
X94536887Y-142080000D01*
X94646120Y-142629151D01*
X94957189Y-143094698D01*
X95361703Y-143364986D01*
X95144866Y-143467611D01*
X94768959Y-143882577D01*
X94608096Y-144270961D01*
X94730085Y-144493000D01*
X95873000Y-144493000D01*
X95873000Y-144473000D01*
X96127000Y-144473000D01*
X96127000Y-144493000D01*
X97269915Y-144493000D01*
X97391904Y-144270961D01*
X97231041Y-143882577D01*
X96855134Y-143467611D01*
X96638297Y-143364986D01*
X97042811Y-143094698D01*
X97353880Y-142629151D01*
X97463113Y-142080000D01*
X97353880Y-141530849D01*
X97042811Y-141065302D01*
X96660725Y-140810000D01*
X97042811Y-140554698D01*
X97353880Y-140089151D01*
X97463113Y-139540000D01*
X97353880Y-138990849D01*
X97042811Y-138525302D01*
X96898535Y-138428899D01*
X97035317Y-138403162D01*
X97251441Y-138264090D01*
X97396431Y-138051890D01*
X97447440Y-137800000D01*
X97447440Y-137000000D01*
X102156887Y-137000000D01*
X102266120Y-137549151D01*
X102577189Y-138014698D01*
X102959275Y-138270000D01*
X102577189Y-138525302D01*
X102266120Y-138990849D01*
X102156887Y-139540000D01*
X102266120Y-140089151D01*
X102577189Y-140554698D01*
X102959275Y-140810000D01*
X102577189Y-141065302D01*
X102266120Y-141530849D01*
X102156887Y-142080000D01*
X102266120Y-142629151D01*
X102577189Y-143094698D01*
X102959275Y-143350000D01*
X102577189Y-143605302D01*
X102266120Y-144070849D01*
X102156887Y-144620000D01*
X102266120Y-145169151D01*
X102577189Y-145634698D01*
X103042736Y-145945767D01*
X103591887Y-146055000D01*
X103648113Y-146055000D01*
X104197264Y-145945767D01*
X104662811Y-145634698D01*
X104973880Y-145169151D01*
X105083113Y-144620000D01*
X104973880Y-144070849D01*
X104662811Y-143605302D01*
X104280725Y-143350000D01*
X104662811Y-143094698D01*
X104973880Y-142629151D01*
X105083113Y-142080000D01*
X104973880Y-141530849D01*
X104662811Y-141065302D01*
X104280725Y-140810000D01*
X104662811Y-140554698D01*
X104973880Y-140089151D01*
X105083113Y-139540000D01*
X105085907Y-139540000D01*
X105198946Y-140108285D01*
X105520853Y-140590054D01*
X105850026Y-140810000D01*
X105520853Y-141029946D01*
X105198946Y-141511715D01*
X105085907Y-142080000D01*
X105198946Y-142648285D01*
X105520853Y-143130054D01*
X105850026Y-143350000D01*
X105520853Y-143569946D01*
X105198946Y-144051715D01*
X105085907Y-144620000D01*
X105198946Y-145188285D01*
X105520853Y-145670054D01*
X106002622Y-145991961D01*
X106570907Y-146105000D01*
X106629093Y-146105000D01*
X107197378Y-145991961D01*
X107679147Y-145670054D01*
X107870000Y-145384422D01*
X108060853Y-145670054D01*
X108542622Y-145991961D01*
X109110907Y-146105000D01*
X109169093Y-146105000D01*
X109737378Y-145991961D01*
X110219147Y-145670054D01*
X110276521Y-145584187D01*
X111064752Y-145584187D01*
X111282757Y-146111800D01*
X111686077Y-146515824D01*
X112213309Y-146734750D01*
X112784187Y-146735248D01*
X113311800Y-146517243D01*
X113715824Y-146113923D01*
X113908860Y-145649039D01*
X118728096Y-145649039D01*
X118888959Y-146037423D01*
X119264866Y-146452389D01*
X119770959Y-146691914D01*
X119993000Y-146570629D01*
X119993000Y-145427000D01*
X120247000Y-145427000D01*
X120247000Y-146570629D01*
X120469041Y-146691914D01*
X120975134Y-146452389D01*
X121351041Y-146037423D01*
X121511904Y-145649039D01*
X121389915Y-145427000D01*
X120247000Y-145427000D01*
X119993000Y-145427000D01*
X118850085Y-145427000D01*
X118728096Y-145649039D01*
X113908860Y-145649039D01*
X113934750Y-145586691D01*
X113935248Y-145015813D01*
X113908452Y-144950961D01*
X118728096Y-144950961D01*
X118850085Y-145173000D01*
X119993000Y-145173000D01*
X119993000Y-144029371D01*
X120247000Y-144029371D01*
X120247000Y-145173000D01*
X121389915Y-145173000D01*
X121511904Y-144950961D01*
X121351041Y-144562577D01*
X120975134Y-144147611D01*
X120469041Y-143908086D01*
X120247000Y-144029371D01*
X119993000Y-144029371D01*
X119770959Y-143908086D01*
X119264866Y-144147611D01*
X118888959Y-144562577D01*
X118728096Y-144950961D01*
X113908452Y-144950961D01*
X113717243Y-144488200D01*
X113313923Y-144084176D01*
X112786691Y-143865250D01*
X112215813Y-143864752D01*
X111688200Y-144082757D01*
X111284176Y-144486077D01*
X111065250Y-145013309D01*
X111064752Y-145584187D01*
X110276521Y-145584187D01*
X110541054Y-145188285D01*
X110654093Y-144620000D01*
X110541054Y-144051715D01*
X110219147Y-143569946D01*
X109889974Y-143350000D01*
X110219147Y-143130054D01*
X110541054Y-142648285D01*
X110654093Y-142080000D01*
X110598398Y-141800000D01*
X111016887Y-141800000D01*
X111126120Y-142349151D01*
X111437189Y-142814698D01*
X111902736Y-143125767D01*
X112451887Y-143235000D01*
X112508113Y-143235000D01*
X113057264Y-143125767D01*
X113522811Y-142814698D01*
X113833880Y-142349151D01*
X113886584Y-142084187D01*
X118664752Y-142084187D01*
X118882757Y-142611800D01*
X119286077Y-143015824D01*
X119813309Y-143234750D01*
X120384187Y-143235248D01*
X120911800Y-143017243D01*
X121315824Y-142613923D01*
X121534750Y-142086691D01*
X121535248Y-141515813D01*
X121404757Y-141200000D01*
X122352560Y-141200000D01*
X122352560Y-143000000D01*
X122396838Y-143235317D01*
X122535910Y-143451441D01*
X122748110Y-143596431D01*
X122764344Y-143599719D01*
X122481845Y-144022509D01*
X122365000Y-144609928D01*
X122365000Y-144670072D01*
X122481845Y-145257491D01*
X122814591Y-145755481D01*
X123052582Y-145914501D01*
X122662034Y-146272424D01*
X122408954Y-146815258D01*
X122529003Y-147053000D01*
X123773000Y-147053000D01*
X123773000Y-147033000D01*
X124027000Y-147033000D01*
X124027000Y-147053000D01*
X125270997Y-147053000D01*
X125391046Y-146815258D01*
X125137966Y-146272424D01*
X124747418Y-145914501D01*
X124985409Y-145755481D01*
X125318155Y-145257491D01*
X125435000Y-144670072D01*
X125435000Y-144609928D01*
X125318155Y-144022509D01*
X125037163Y-143601974D01*
X125251441Y-143464090D01*
X125396431Y-143251890D01*
X125447440Y-143000000D01*
X125447440Y-141200000D01*
X125403162Y-140964683D01*
X125264090Y-140748559D01*
X125051890Y-140603569D01*
X124800000Y-140552560D01*
X123000000Y-140552560D01*
X122764683Y-140596838D01*
X122548559Y-140735910D01*
X122403569Y-140948110D01*
X122352560Y-141200000D01*
X121404757Y-141200000D01*
X121317243Y-140988200D01*
X120913923Y-140584176D01*
X120386691Y-140365250D01*
X119815813Y-140364752D01*
X119288200Y-140582757D01*
X118884176Y-140986077D01*
X118665250Y-141513309D01*
X118664752Y-142084187D01*
X113886584Y-142084187D01*
X113943113Y-141800000D01*
X113833880Y-141250849D01*
X113522811Y-140785302D01*
X113057264Y-140474233D01*
X112508113Y-140365000D01*
X112451887Y-140365000D01*
X111902736Y-140474233D01*
X111437189Y-140785302D01*
X111126120Y-141250849D01*
X111016887Y-141800000D01*
X110598398Y-141800000D01*
X110541054Y-141511715D01*
X110219147Y-141029946D01*
X109889974Y-140810000D01*
X110219147Y-140590054D01*
X110541054Y-140108285D01*
X110602375Y-139800000D01*
X133552560Y-139800000D01*
X133552560Y-142000000D01*
X133596838Y-142235317D01*
X133735910Y-142451441D01*
X133948110Y-142596431D01*
X134200000Y-142647440D01*
X136400000Y-142647440D01*
X136635317Y-142603162D01*
X136851441Y-142464090D01*
X136996431Y-142251890D01*
X137047440Y-142000000D01*
X137047440Y-140867053D01*
X137089114Y-140908800D01*
X137873485Y-141234499D01*
X138722789Y-141235240D01*
X139507727Y-140910910D01*
X140108800Y-140310886D01*
X140434499Y-139526515D01*
X140435240Y-138677211D01*
X140110910Y-137892273D01*
X139510886Y-137291200D01*
X139000383Y-137079221D01*
X139407727Y-136910910D01*
X140008800Y-136310886D01*
X140334499Y-135526515D01*
X140335240Y-134677211D01*
X140010910Y-133892273D01*
X139410886Y-133291200D01*
X138626515Y-132965501D01*
X137777211Y-132964760D01*
X137096829Y-133245888D01*
X137135000Y-133053991D01*
X137135000Y-132986009D01*
X137002931Y-132322053D01*
X136626830Y-131759179D01*
X136063956Y-131383078D01*
X135400000Y-131251009D01*
X134736044Y-131383078D01*
X134173170Y-131759179D01*
X133797069Y-132322053D01*
X133665000Y-132986009D01*
X133665000Y-133053991D01*
X133797069Y-133717947D01*
X134173170Y-134280821D01*
X134736044Y-134656922D01*
X135400000Y-134788991D01*
X136063956Y-134656922D01*
X136075613Y-134649133D01*
X136065501Y-134673485D01*
X136064760Y-135522789D01*
X136389090Y-136307727D01*
X136989114Y-136908800D01*
X137499617Y-137120779D01*
X137092273Y-137289090D01*
X136491200Y-137889114D01*
X136165501Y-138673485D01*
X136165083Y-139152560D01*
X134200000Y-139152560D01*
X133964683Y-139196838D01*
X133748559Y-139335910D01*
X133603569Y-139548110D01*
X133552560Y-139800000D01*
X110602375Y-139800000D01*
X110654093Y-139540000D01*
X110541054Y-138971715D01*
X110219147Y-138489946D01*
X109934873Y-138300000D01*
X111016887Y-138300000D01*
X111126120Y-138849151D01*
X111437189Y-139314698D01*
X111902736Y-139625767D01*
X112451887Y-139735000D01*
X112508113Y-139735000D01*
X113057264Y-139625767D01*
X113522811Y-139314698D01*
X113833880Y-138849151D01*
X113886584Y-138584187D01*
X118664752Y-138584187D01*
X118882757Y-139111800D01*
X119286077Y-139515824D01*
X119813309Y-139734750D01*
X120384187Y-139735248D01*
X120911800Y-139517243D01*
X121315824Y-139113923D01*
X121534750Y-138586691D01*
X121535248Y-138015813D01*
X121317243Y-137488200D01*
X120913923Y-137084176D01*
X120386691Y-136865250D01*
X119815813Y-136864752D01*
X119288200Y-137082757D01*
X118884176Y-137486077D01*
X118665250Y-138013309D01*
X118664752Y-138584187D01*
X113886584Y-138584187D01*
X113943113Y-138300000D01*
X113833880Y-137750849D01*
X113522811Y-137285302D01*
X113057264Y-136974233D01*
X112508113Y-136865000D01*
X112451887Y-136865000D01*
X111902736Y-136974233D01*
X111437189Y-137285302D01*
X111126120Y-137750849D01*
X111016887Y-138300000D01*
X109934873Y-138300000D01*
X109889974Y-138270000D01*
X110219147Y-138050054D01*
X110541054Y-137568285D01*
X110654093Y-137000000D01*
X110563537Y-136544742D01*
X122308954Y-136544742D01*
X122562034Y-137087576D01*
X123003583Y-137492240D01*
X123435260Y-137671036D01*
X123673000Y-137550378D01*
X123673000Y-136307000D01*
X123927000Y-136307000D01*
X123927000Y-137550378D01*
X124164740Y-137671036D01*
X124596417Y-137492240D01*
X125037966Y-137087576D01*
X125291046Y-136544742D01*
X125170997Y-136307000D01*
X123927000Y-136307000D01*
X123673000Y-136307000D01*
X122429003Y-136307000D01*
X122308954Y-136544742D01*
X110563537Y-136544742D01*
X110541054Y-136431715D01*
X110219147Y-135949946D01*
X109737378Y-135628039D01*
X109169093Y-135515000D01*
X109110907Y-135515000D01*
X108542622Y-135628039D01*
X108060853Y-135949946D01*
X108060029Y-135951179D01*
X108053162Y-135914683D01*
X107914090Y-135698559D01*
X107701890Y-135553569D01*
X107450000Y-135502560D01*
X105750000Y-135502560D01*
X105514683Y-135546838D01*
X105298559Y-135685910D01*
X105153569Y-135898110D01*
X105102560Y-136150000D01*
X105102560Y-137850000D01*
X105146838Y-138085317D01*
X105285910Y-138301441D01*
X105498110Y-138446431D01*
X105565541Y-138460086D01*
X105520853Y-138489946D01*
X105198946Y-138971715D01*
X105085907Y-139540000D01*
X105083113Y-139540000D01*
X104973880Y-138990849D01*
X104662811Y-138525302D01*
X104280725Y-138270000D01*
X104662811Y-138014698D01*
X104973880Y-137549151D01*
X105083113Y-137000000D01*
X104973880Y-136450849D01*
X104662811Y-135985302D01*
X104197264Y-135674233D01*
X103648113Y-135565000D01*
X103591887Y-135565000D01*
X103042736Y-135674233D01*
X102577189Y-135985302D01*
X102266120Y-136450849D01*
X102156887Y-137000000D01*
X97447440Y-137000000D01*
X97447440Y-136200000D01*
X97403162Y-135964683D01*
X97264090Y-135748559D01*
X97051890Y-135603569D01*
X96800000Y-135552560D01*
X95200000Y-135552560D01*
X94964683Y-135596838D01*
X94748559Y-135735910D01*
X94603569Y-135948110D01*
X94552560Y-136200000D01*
X94552560Y-137800000D01*
X94596838Y-138035317D01*
X94735910Y-138251441D01*
X94948110Y-138396431D01*
X95103089Y-138427815D01*
X94957189Y-138525302D01*
X94646120Y-138990849D01*
X94536887Y-139540000D01*
X92889177Y-139540000D01*
X93215824Y-139213923D01*
X93434750Y-138686691D01*
X93435248Y-138115813D01*
X93217243Y-137588200D01*
X92813923Y-137184176D01*
X92286691Y-136965250D01*
X91715813Y-136964752D01*
X91188200Y-137182757D01*
X90784176Y-137586077D01*
X90565250Y-138113309D01*
X90564752Y-138684187D01*
X89653010Y-138684187D01*
X89514698Y-138477189D01*
X89049151Y-138166120D01*
X88500000Y-138056887D01*
X87950849Y-138166120D01*
X87485302Y-138477189D01*
X87174233Y-138942736D01*
X87065000Y-139491887D01*
X87025053Y-139491887D01*
X87083113Y-139200000D01*
X86973880Y-138650849D01*
X86662811Y-138185302D01*
X86280725Y-137930000D01*
X86662811Y-137674698D01*
X86973880Y-137209151D01*
X87083113Y-136660000D01*
X86973880Y-136110849D01*
X86662811Y-135645302D01*
X86258297Y-135375014D01*
X86475134Y-135272389D01*
X86851041Y-134857423D01*
X86937350Y-134649039D01*
X110988096Y-134649039D01*
X111148959Y-135037423D01*
X111524866Y-135452389D01*
X112030959Y-135691914D01*
X112253000Y-135570629D01*
X112253000Y-134427000D01*
X112507000Y-134427000D01*
X112507000Y-135570629D01*
X112729041Y-135691914D01*
X113235134Y-135452389D01*
X113611041Y-135037423D01*
X113771904Y-134649039D01*
X113736275Y-134584187D01*
X118564752Y-134584187D01*
X118782757Y-135111800D01*
X119186077Y-135515824D01*
X119713309Y-135734750D01*
X120284187Y-135735248D01*
X120811800Y-135517243D01*
X121215824Y-135113923D01*
X121434750Y-134586691D01*
X121435248Y-134015813D01*
X121217243Y-133488200D01*
X120813923Y-133084176D01*
X120286691Y-132865250D01*
X119715813Y-132864752D01*
X119188200Y-133082757D01*
X118784176Y-133486077D01*
X118565250Y-134013309D01*
X118564752Y-134584187D01*
X113736275Y-134584187D01*
X113649915Y-134427000D01*
X112507000Y-134427000D01*
X112253000Y-134427000D01*
X111110085Y-134427000D01*
X110988096Y-134649039D01*
X86937350Y-134649039D01*
X87011904Y-134469039D01*
X86889915Y-134247000D01*
X85747000Y-134247000D01*
X85747000Y-134267000D01*
X85493000Y-134267000D01*
X85493000Y-134247000D01*
X84350085Y-134247000D01*
X84228096Y-134469039D01*
X84388959Y-134857423D01*
X84764866Y-135272389D01*
X84981703Y-135375014D01*
X84577189Y-135645302D01*
X84266120Y-136110849D01*
X84156887Y-136660000D01*
X79463113Y-136660000D01*
X79353880Y-136110849D01*
X79042811Y-135645302D01*
X78660725Y-135390000D01*
X79042811Y-135134698D01*
X79353880Y-134669151D01*
X79463113Y-134120000D01*
X79353880Y-133570849D01*
X79042811Y-133105302D01*
X78660725Y-132850000D01*
X79042811Y-132594698D01*
X79353880Y-132129151D01*
X79463113Y-131580000D01*
X79353880Y-131030849D01*
X79042811Y-130565302D01*
X78660725Y-130310000D01*
X79042811Y-130054698D01*
X79353880Y-129589151D01*
X79463113Y-129040000D01*
X79353880Y-128490849D01*
X79042811Y-128025302D01*
X78898535Y-127928899D01*
X79035317Y-127903162D01*
X79251441Y-127764090D01*
X79396431Y-127551890D01*
X79447440Y-127300000D01*
X79447440Y-126500000D01*
X84156887Y-126500000D01*
X84266120Y-127049151D01*
X84577189Y-127514698D01*
X84959275Y-127770000D01*
X84577189Y-128025302D01*
X84266120Y-128490849D01*
X84156887Y-129040000D01*
X84266120Y-129589151D01*
X84577189Y-130054698D01*
X84959275Y-130310000D01*
X84577189Y-130565302D01*
X84266120Y-131030849D01*
X84156887Y-131580000D01*
X84266120Y-132129151D01*
X84577189Y-132594698D01*
X84981703Y-132864986D01*
X84764866Y-132967611D01*
X84388959Y-133382577D01*
X84228096Y-133770961D01*
X84350085Y-133993000D01*
X85493000Y-133993000D01*
X85493000Y-133973000D01*
X85747000Y-133973000D01*
X85747000Y-133993000D01*
X86889915Y-133993000D01*
X87011904Y-133770961D01*
X86851041Y-133382577D01*
X86475134Y-132967611D01*
X86348643Y-132907745D01*
X87671861Y-132907745D01*
X87745995Y-133153864D01*
X88283223Y-133346965D01*
X88853454Y-133319778D01*
X89254005Y-133153864D01*
X89328139Y-132907745D01*
X88500000Y-132079605D01*
X87671861Y-132907745D01*
X86348643Y-132907745D01*
X86258297Y-132864986D01*
X86662811Y-132594698D01*
X86973880Y-132129151D01*
X87054881Y-131721934D01*
X87080222Y-132253454D01*
X87246136Y-132654005D01*
X87492255Y-132728139D01*
X88320395Y-131900000D01*
X88679605Y-131900000D01*
X89507745Y-132728139D01*
X89753864Y-132654005D01*
X89946965Y-132116777D01*
X89931862Y-131800000D01*
X91152560Y-131800000D01*
X91152560Y-133400000D01*
X91196838Y-133635317D01*
X91335910Y-133851441D01*
X91548110Y-133996431D01*
X91800000Y-134047440D01*
X93400000Y-134047440D01*
X93635317Y-134003162D01*
X93851441Y-133864090D01*
X93996431Y-133651890D01*
X94005370Y-133607745D01*
X94271861Y-133607745D01*
X94345995Y-133853864D01*
X94883223Y-134046965D01*
X95453454Y-134019778D01*
X95482504Y-134007745D01*
X97171861Y-134007745D01*
X97245995Y-134253864D01*
X97783223Y-134446965D01*
X98353454Y-134419778D01*
X98754005Y-134253864D01*
X98828139Y-134007745D01*
X98000000Y-133179605D01*
X97171861Y-134007745D01*
X95482504Y-134007745D01*
X95854005Y-133853864D01*
X95928139Y-133607745D01*
X95100000Y-132779605D01*
X94271861Y-133607745D01*
X94005370Y-133607745D01*
X94044646Y-133413799D01*
X94092255Y-133428139D01*
X94920395Y-132600000D01*
X95279605Y-132600000D01*
X96107745Y-133428139D01*
X96353864Y-133354005D01*
X96546965Y-132816777D01*
X96545366Y-132783223D01*
X96553035Y-132783223D01*
X96580222Y-133353454D01*
X96746136Y-133754005D01*
X96992255Y-133828139D01*
X97820395Y-133000000D01*
X98179605Y-133000000D01*
X99007745Y-133828139D01*
X99253864Y-133754005D01*
X99256196Y-133747517D01*
X99282757Y-133811800D01*
X99686077Y-134215824D01*
X100213309Y-134434750D01*
X100784187Y-134435248D01*
X101311800Y-134217243D01*
X101715824Y-133813923D01*
X101934750Y-133286691D01*
X101935248Y-132715813D01*
X101717243Y-132188200D01*
X101313923Y-131784176D01*
X101231619Y-131750000D01*
X102602560Y-131750000D01*
X102602560Y-133450000D01*
X102646838Y-133685317D01*
X102785910Y-133901441D01*
X102998110Y-134046431D01*
X103250000Y-134097440D01*
X104950000Y-134097440D01*
X105185317Y-134053162D01*
X105401441Y-133914090D01*
X105546431Y-133701890D01*
X105560086Y-133634459D01*
X105589946Y-133679147D01*
X106071715Y-134001054D01*
X106640000Y-134114093D01*
X107208285Y-134001054D01*
X107690054Y-133679147D01*
X107910000Y-133349974D01*
X108129946Y-133679147D01*
X108611715Y-134001054D01*
X109180000Y-134114093D01*
X109748285Y-134001054D01*
X109823254Y-133950961D01*
X110988096Y-133950961D01*
X111110085Y-134173000D01*
X112253000Y-134173000D01*
X112253000Y-133029371D01*
X112507000Y-133029371D01*
X112507000Y-134173000D01*
X113649915Y-134173000D01*
X113771904Y-133950961D01*
X113611041Y-133562577D01*
X113235134Y-133147611D01*
X112729041Y-132908086D01*
X112507000Y-133029371D01*
X112253000Y-133029371D01*
X112030959Y-132908086D01*
X111524866Y-133147611D01*
X111148959Y-133562577D01*
X110988096Y-133950961D01*
X109823254Y-133950961D01*
X110230054Y-133679147D01*
X110551961Y-133197378D01*
X110665000Y-132629093D01*
X110665000Y-132570907D01*
X110551961Y-132002622D01*
X110230054Y-131520853D01*
X109946899Y-131331655D01*
X109946924Y-131331645D01*
X110375183Y-130941358D01*
X110621486Y-130416892D01*
X110507643Y-130200000D01*
X122252560Y-130200000D01*
X122252560Y-132000000D01*
X122296838Y-132235317D01*
X122435910Y-132451441D01*
X122648110Y-132596431D01*
X122664344Y-132599719D01*
X122381845Y-133022509D01*
X122265000Y-133609928D01*
X122265000Y-133670072D01*
X122381845Y-134257491D01*
X122714591Y-134755481D01*
X122952582Y-134914501D01*
X122562034Y-135272424D01*
X122308954Y-135815258D01*
X122429003Y-136053000D01*
X123673000Y-136053000D01*
X123673000Y-136033000D01*
X123927000Y-136033000D01*
X123927000Y-136053000D01*
X125170997Y-136053000D01*
X125291046Y-135815258D01*
X125037966Y-135272424D01*
X124647418Y-134914501D01*
X124885409Y-134755481D01*
X125218155Y-134257491D01*
X125335000Y-133670072D01*
X125335000Y-133609928D01*
X125218155Y-133022509D01*
X124937163Y-132601974D01*
X125151441Y-132464090D01*
X125296431Y-132251890D01*
X125347440Y-132000000D01*
X125347440Y-130200000D01*
X125303162Y-129964683D01*
X125164090Y-129748559D01*
X124951890Y-129603569D01*
X124700000Y-129552560D01*
X122900000Y-129552560D01*
X122664683Y-129596838D01*
X122448559Y-129735910D01*
X122303569Y-129948110D01*
X122252560Y-130200000D01*
X110507643Y-130200000D01*
X110500819Y-130187000D01*
X109307000Y-130187000D01*
X109307000Y-130207000D01*
X109053000Y-130207000D01*
X109053000Y-130187000D01*
X109033000Y-130187000D01*
X109033000Y-129933000D01*
X109053000Y-129933000D01*
X109053000Y-128739845D01*
X109307000Y-128739845D01*
X109307000Y-129933000D01*
X110500819Y-129933000D01*
X110621486Y-129703108D01*
X110375183Y-129178642D01*
X109946924Y-128788355D01*
X109536890Y-128618524D01*
X109307000Y-128739845D01*
X109053000Y-128739845D01*
X108823110Y-128618524D01*
X108413076Y-128788355D01*
X107984817Y-129178642D01*
X107917702Y-129321553D01*
X107690054Y-128980853D01*
X107208285Y-128658946D01*
X106640000Y-128545907D01*
X106071715Y-128658946D01*
X105589946Y-128980853D01*
X105370000Y-129310026D01*
X105150054Y-128980853D01*
X104668285Y-128658946D01*
X104100000Y-128545907D01*
X103531715Y-128658946D01*
X103049946Y-128980853D01*
X102728039Y-129462622D01*
X102615000Y-130030907D01*
X102615000Y-130089093D01*
X102728039Y-130657378D01*
X103049946Y-131139147D01*
X103051179Y-131139971D01*
X103014683Y-131146838D01*
X102798559Y-131285910D01*
X102653569Y-131498110D01*
X102602560Y-131750000D01*
X101231619Y-131750000D01*
X100786691Y-131565250D01*
X100215813Y-131564752D01*
X99688200Y-131782757D01*
X99284176Y-132186077D01*
X99256577Y-132252544D01*
X99253864Y-132245995D01*
X99007745Y-132171861D01*
X98179605Y-133000000D01*
X97820395Y-133000000D01*
X96992255Y-132171861D01*
X96746136Y-132245995D01*
X96553035Y-132783223D01*
X96545366Y-132783223D01*
X96519778Y-132246546D01*
X96414448Y-131992255D01*
X97171861Y-131992255D01*
X98000000Y-132820395D01*
X98828139Y-131992255D01*
X98754005Y-131746136D01*
X98216777Y-131553035D01*
X97646546Y-131580222D01*
X97245995Y-131746136D01*
X97171861Y-131992255D01*
X96414448Y-131992255D01*
X96353864Y-131845995D01*
X96107745Y-131771861D01*
X95279605Y-132600000D01*
X94920395Y-132600000D01*
X94092255Y-131771861D01*
X94044833Y-131786145D01*
X94008351Y-131592255D01*
X94271861Y-131592255D01*
X95100000Y-132420395D01*
X95928139Y-131592255D01*
X95854005Y-131346136D01*
X95316777Y-131153035D01*
X94746546Y-131180222D01*
X94345995Y-131346136D01*
X94271861Y-131592255D01*
X94008351Y-131592255D01*
X94003162Y-131564683D01*
X93864090Y-131348559D01*
X93651890Y-131203569D01*
X93400000Y-131152560D01*
X91800000Y-131152560D01*
X91564683Y-131196838D01*
X91348559Y-131335910D01*
X91203569Y-131548110D01*
X91152560Y-131800000D01*
X89931862Y-131800000D01*
X89919778Y-131546546D01*
X89753864Y-131145995D01*
X89507745Y-131071861D01*
X88679605Y-131900000D01*
X88320395Y-131900000D01*
X87492255Y-131071861D01*
X87246136Y-131145995D01*
X87074409Y-131623759D01*
X87083113Y-131580000D01*
X86973880Y-131030849D01*
X86881275Y-130892255D01*
X87671861Y-130892255D01*
X88500000Y-131720395D01*
X89328139Y-130892255D01*
X89254005Y-130646136D01*
X88716777Y-130453035D01*
X88146546Y-130480222D01*
X87745995Y-130646136D01*
X87671861Y-130892255D01*
X86881275Y-130892255D01*
X86662811Y-130565302D01*
X86280725Y-130310000D01*
X86662811Y-130054698D01*
X86973880Y-129589151D01*
X86988127Y-129517528D01*
X87186077Y-129715824D01*
X87713309Y-129934750D01*
X88284187Y-129935248D01*
X88811800Y-129717243D01*
X88945088Y-129584187D01*
X96564752Y-129584187D01*
X96782757Y-130111800D01*
X97186077Y-130515824D01*
X97713309Y-130734750D01*
X98284187Y-130735248D01*
X98811800Y-130517243D01*
X99021663Y-130307745D01*
X99671861Y-130307745D01*
X99745995Y-130553864D01*
X100283223Y-130746965D01*
X100853454Y-130719778D01*
X101254005Y-130553864D01*
X101328139Y-130307745D01*
X100500000Y-129479605D01*
X99671861Y-130307745D01*
X99021663Y-130307745D01*
X99215824Y-130113923D01*
X99243423Y-130047456D01*
X99246136Y-130054005D01*
X99492255Y-130128139D01*
X100320395Y-129300000D01*
X100679605Y-129300000D01*
X101507745Y-130128139D01*
X101753864Y-130054005D01*
X101946965Y-129516777D01*
X101919778Y-128946546D01*
X101753864Y-128545995D01*
X101507745Y-128471861D01*
X100679605Y-129300000D01*
X100320395Y-129300000D01*
X99492255Y-128471861D01*
X99246136Y-128545995D01*
X99243804Y-128552483D01*
X99217243Y-128488200D01*
X99021640Y-128292255D01*
X99671861Y-128292255D01*
X100500000Y-129120395D01*
X101328139Y-128292255D01*
X101254005Y-128046136D01*
X100716777Y-127853035D01*
X100146546Y-127880222D01*
X99745995Y-128046136D01*
X99671861Y-128292255D01*
X99021640Y-128292255D01*
X98813923Y-128084176D01*
X98286691Y-127865250D01*
X97715813Y-127864752D01*
X97188200Y-128082757D01*
X96784176Y-128486077D01*
X96565250Y-129013309D01*
X96564752Y-129584187D01*
X88945088Y-129584187D01*
X89215824Y-129313923D01*
X89404266Y-128860104D01*
X93219501Y-128860104D01*
X93256648Y-129075217D01*
X93684972Y-129218112D01*
X94135375Y-129186217D01*
X94403352Y-129075217D01*
X94440499Y-128860104D01*
X93830000Y-128249605D01*
X93219501Y-128860104D01*
X89404266Y-128860104D01*
X89434750Y-128786691D01*
X89435248Y-128215813D01*
X89217243Y-127688200D01*
X88813923Y-127284176D01*
X88747456Y-127256577D01*
X88754005Y-127253864D01*
X88823009Y-127024775D01*
X91424803Y-127024775D01*
X91597233Y-127442086D01*
X91916235Y-127761645D01*
X92333244Y-127934803D01*
X92682606Y-127935108D01*
X92713783Y-128375375D01*
X92824783Y-128643352D01*
X93039896Y-128680499D01*
X93650395Y-128070000D01*
X93636253Y-128055858D01*
X93815858Y-127876253D01*
X93830000Y-127890395D01*
X93844143Y-127876253D01*
X94023748Y-128055858D01*
X94009605Y-128070000D01*
X94620104Y-128680499D01*
X94835217Y-128643352D01*
X94978112Y-128215028D01*
X94959163Y-127947440D01*
X95600000Y-127947440D01*
X95835317Y-127903162D01*
X96051441Y-127764090D01*
X96196431Y-127551890D01*
X96247440Y-127300000D01*
X96247440Y-126300000D01*
X96203162Y-126064683D01*
X96064090Y-125848559D01*
X95851890Y-125703569D01*
X95600000Y-125652560D01*
X94600000Y-125652560D01*
X94364683Y-125696838D01*
X94148559Y-125835910D01*
X94003569Y-126048110D01*
X93952560Y-126300000D01*
X93952560Y-126923479D01*
X93694877Y-126941727D01*
X93695197Y-126575225D01*
X93522767Y-126157914D01*
X93203765Y-125838355D01*
X92786756Y-125665197D01*
X92335225Y-125664803D01*
X91917914Y-125837233D01*
X91598355Y-126156235D01*
X91425197Y-126573244D01*
X91424803Y-127024775D01*
X88823009Y-127024775D01*
X88828139Y-127007745D01*
X88000000Y-126179605D01*
X87985858Y-126193748D01*
X87806252Y-126014142D01*
X87820395Y-126000000D01*
X88179605Y-126000000D01*
X89007745Y-126828139D01*
X89253864Y-126754005D01*
X89446965Y-126216777D01*
X89419778Y-125646546D01*
X89253864Y-125245995D01*
X89007745Y-125171861D01*
X88179605Y-126000000D01*
X87820395Y-126000000D01*
X86992255Y-125171861D01*
X86746136Y-125245995D01*
X86660641Y-125483852D01*
X86197264Y-125174233D01*
X85648113Y-125065000D01*
X85591887Y-125065000D01*
X85042736Y-125174233D01*
X84577189Y-125485302D01*
X84266120Y-125950849D01*
X84156887Y-126500000D01*
X79447440Y-126500000D01*
X79447440Y-125700000D01*
X79403162Y-125464683D01*
X79264090Y-125248559D01*
X79051890Y-125103569D01*
X78800000Y-125052560D01*
X77200000Y-125052560D01*
X76964683Y-125096838D01*
X76748559Y-125235910D01*
X76603569Y-125448110D01*
X76552560Y-125700000D01*
X76552560Y-127300000D01*
X76596838Y-127535317D01*
X76735910Y-127751441D01*
X76948110Y-127896431D01*
X77103089Y-127927815D01*
X76957189Y-128025302D01*
X76646120Y-128490849D01*
X76536887Y-129040000D01*
X76330785Y-129040000D01*
X76446965Y-128716777D01*
X76419778Y-128146546D01*
X76253864Y-127745995D01*
X76007745Y-127671861D01*
X75179605Y-128500000D01*
X74820395Y-128500000D01*
X73992255Y-127671861D01*
X73746136Y-127745995D01*
X73553035Y-128283223D01*
X69228571Y-128283223D01*
X69434750Y-127786691D01*
X69435248Y-127215813D01*
X69217243Y-126688200D01*
X68813923Y-126284176D01*
X68747456Y-126256577D01*
X68754005Y-126253864D01*
X68761481Y-126229041D01*
X70108086Y-126229041D01*
X70347611Y-126735134D01*
X70762577Y-127111041D01*
X71150961Y-127271904D01*
X71373000Y-127149915D01*
X71373000Y-126007000D01*
X71627000Y-126007000D01*
X71627000Y-127149915D01*
X71849039Y-127271904D01*
X72237423Y-127111041D01*
X72652389Y-126735134D01*
X72865814Y-126284187D01*
X73564752Y-126284187D01*
X73782757Y-126811800D01*
X74186077Y-127215824D01*
X74252544Y-127243423D01*
X74245995Y-127246136D01*
X74171861Y-127492255D01*
X75000000Y-128320395D01*
X75828139Y-127492255D01*
X75754005Y-127246136D01*
X75747517Y-127243804D01*
X75811800Y-127217243D01*
X76215824Y-126813923D01*
X76434750Y-126286691D01*
X76435248Y-125715813D01*
X76217243Y-125188200D01*
X76021640Y-124992255D01*
X87171861Y-124992255D01*
X88000000Y-125820395D01*
X88828139Y-124992255D01*
X88754005Y-124746136D01*
X88305630Y-124584972D01*
X100081888Y-124584972D01*
X100113783Y-125035375D01*
X100224783Y-125303352D01*
X100439896Y-125340499D01*
X101050395Y-124730000D01*
X100439896Y-124119501D01*
X100224783Y-124156648D01*
X100081888Y-124584972D01*
X88305630Y-124584972D01*
X88216777Y-124553035D01*
X87646546Y-124580222D01*
X87245995Y-124746136D01*
X87171861Y-124992255D01*
X76021640Y-124992255D01*
X75813923Y-124784176D01*
X75286691Y-124565250D01*
X74715813Y-124564752D01*
X74188200Y-124782757D01*
X73784176Y-125186077D01*
X73565250Y-125713309D01*
X73564752Y-126284187D01*
X72865814Y-126284187D01*
X72891914Y-126229041D01*
X72770629Y-126007000D01*
X71627000Y-126007000D01*
X71373000Y-126007000D01*
X70229371Y-126007000D01*
X70108086Y-126229041D01*
X68761481Y-126229041D01*
X68828139Y-126007745D01*
X68000000Y-125179605D01*
X67171861Y-126007745D01*
X67245995Y-126253864D01*
X67252483Y-126256196D01*
X67188200Y-126282757D01*
X66784176Y-126686077D01*
X66565250Y-127213309D01*
X66564752Y-127784187D01*
X61710000Y-127784187D01*
X61710000Y-124783223D01*
X66553035Y-124783223D01*
X66580222Y-125353454D01*
X66746136Y-125754005D01*
X66992255Y-125828139D01*
X67820395Y-125000000D01*
X68179605Y-125000000D01*
X69007745Y-125828139D01*
X69253864Y-125754005D01*
X69334035Y-125530959D01*
X70108086Y-125530959D01*
X70229371Y-125753000D01*
X71373000Y-125753000D01*
X71373000Y-124610085D01*
X71627000Y-124610085D01*
X71627000Y-125753000D01*
X72770629Y-125753000D01*
X72891914Y-125530959D01*
X72652389Y-125024866D01*
X72237423Y-124648959D01*
X71849039Y-124488096D01*
X71627000Y-124610085D01*
X71373000Y-124610085D01*
X71150961Y-124488096D01*
X70762577Y-124648959D01*
X70347611Y-125024866D01*
X70108086Y-125530959D01*
X69334035Y-125530959D01*
X69446965Y-125216777D01*
X69419778Y-124646546D01*
X69253864Y-124245995D01*
X69007745Y-124171861D01*
X68179605Y-125000000D01*
X67820395Y-125000000D01*
X66992255Y-124171861D01*
X66746136Y-124245995D01*
X66553035Y-124783223D01*
X61710000Y-124783223D01*
X61710000Y-123992255D01*
X67171861Y-123992255D01*
X68000000Y-124820395D01*
X68828139Y-123992255D01*
X68754005Y-123746136D01*
X68216777Y-123553035D01*
X67646546Y-123580222D01*
X67245995Y-123746136D01*
X67171861Y-123992255D01*
X61710000Y-123992255D01*
X61710000Y-121710000D01*
X73249207Y-121710000D01*
X72837189Y-121985302D01*
M02*
